<?xml version="1.0" standalone="no"?><!DOCTYPE svg PUBLIC "-//W3C//DTD SVG 1.1//EN" "http://www.w3.org/Graphics/SVG/1.1/DTD/svg11.dtd"><svg width="100%" height="100%" viewBox="0 0 1122 1694" version="1.1" xmlns="http://www.w3.org/2000/svg" xmlns:xlink="http://www.w3.org/1999/xlink" xml:space="preserve" style="fill-rule:evenodd;clip-rule:evenodd;stroke-linecap:round;stroke-linejoin:round;stroke-miterlimit:1.41421;"><path d="M483,887.193c-2,1 -1,-1 -2,0c-5,5 -10,16 -17,40c-8,23 -16,58 -25,95c-14,60 -29,125 -47,170c-20,46 -43,72 -69,85c-32,17 -61,14 -88,5c-23,-8 -44,-21 -64,-42c-17,-19 -32,-44 -47,-78c-25,-58 -48,-148 -72,-238l0,-2l52,-13l55,-16l0,2c22,85 45,171 67,224c10,22 19,36 27,46c6,7 12,10 18,12c2,1 -1,3 0,2l1,0c4,-2 9,-10 17,-30c15,-35 29,-96 42,-152c9,-38 18,-74 27,-103c13,-42 27,-67 42,-82c20,-22 37,-27 54,-31l29,106Z" style="fill:#fccf97;fill-rule:nonzero;"/><path d="M859,782.193c21,16 42,32 65,58c23,24 45,56 67,100c22,44 44,101 63,163c18,58 33,123 43,188c22,133 23,267 24,401l1,0l-66,0l-45,1l0,-1l-1,0l1,0c-2,-129 -3,-258 -23,-383c-10,-60 -24,-119 -40,-174c-17,-58 -37,-108 -56,-145c-17,-35 -33,-58 -50,-76c-15,-17 -33,-31 -51,-45l68,-87Z" style="fill:#fccea7;fill-rule:nonzero;"/><path d="M702,512.193l-4,216l91,33l-186,167l-103,-164l91,-32l14,-208l97,-12Z" style="fill:#fccf97;"/><ellipse cx="849" cy="399.193" rx="70" ry="67" style="fill:#fccf97;"/><ellipse cx="441" cy="399.193" rx="70" ry="67" style="fill:#fccf97;"/><path d="M435,235.193c-2,37 -5,95 -2,154c2,58 11,117 34,162c22,45 58,77 90,97c31,20 57,29 84,29c28,0 57,-8 90,-32c33,-24 70,-63 93,-103c23,-40 33,-82 36,-142c4,-60 1,-139 -9,-196c-9,-57 -25,-92 -46,-117c-21,-24 -48,-38 -78,-47c-30,-10 -63,-16 -104,-11c-42,5 -91,21 -122,45c-31,25 -45,57 -53,82c-8,24 -10,41 -13,79Z" style="fill:#fccf97;"/><path d="M578,293.193c-5,-3 -16,-7 -27,-9c-10,-3 -21,-3 -30,-3c-9,0 -15,1 -23,3c-7,3 -16,7 -22,14c-6,7 -11,16 -11,20c0,3 4,0 12,-3c8,-3 20,-8 33,-10c12,-3 25,-3 35,-4c10,0 17,0 23,0c5,1 8,1 10,0c3,-1 4,-4 0,-8Z" style="fill:#000;"/><path d="M707,291.193c5,-3 16,-7 27,-8c11,-2 21,-2 30,-2c9,0 15,1 23,4c7,3 15,8 21,15c7,7 11,16 11,20c0,3 -4,0 -12,-3c-8,-4 -20,-9 -33,-12c-12,-3 -25,-4 -35,-5c-10,0 -17,0 -22,0c-5,0 -9,0 -11,-1c-2,-2 -4,-4 1,-8Z" style="fill:#000;"/><path d="M557,370.193c-7,0 -12,-8 -12,-17c0,-10 6,-18 13,-18c6,0 12,8 12,18c-1,10 -6,17 -13,17Z" style="fill:#000;"/><path d="M729,370.193c-7,0 -13,-8 -12,-17c0,-10 6,-18 12,-18c7,0 13,8 12,18c0,10 -6,17 -12,17Z" style="fill:#000;"/><path d="M627,450.193c1,4 6,13 29,15c2,0 4,2 4,5c-11,-1 -42,-2 -41,-21c0,-7 3,-13 7,-23c12,-21 13,-22 1,24Z" style="fill:#151514;fill-rule:nonzero;"/><path d="M703,548.193c-34,43 -95,33 -111,-4" style="fill:none;stroke-width:10.41px;stroke:#b8a48a;"/><path d="M937,1551.19c-24,-248 -40,-497 -54,-747c-1,-10 -1,-6 -1,-12c-41,-22 -118,-47 -152,-54c-16,80 -148,69 -165,-3c-39,16 -77,24 -129,48c-20,255 -30,505 -50,762c75,20 155,33 238,37c17,0 34,1 51,1l1,0c91,0 179,-11 261,-32ZM443,777.193c-2,2 -4,3 0,0Z" style="fill:#000;"/><path d="M415,1133.19c7,-116 14,-233 23,-351c-12,4 -24,11 -37,26c-15,16 -30,41 -43,85c-9,30 -18,67 -27,106c-9,37 -18,77 -28,110c18,16 36,32 55,44c14,10 28,17 43,24c5,-14 9,-28 14,-44Z" style="fill:#000;"/><path d="M883,876.193c3,39 5,78 8,117c19,39 38,90 56,149c2,6 3,11 5,17c18,-7 37,-14 55,-21c17,-8 35,-16 51,-26c0,-1 1,-1 1,-1c0,-1 0,-2 0,-2c-31,-115 -83,-263 -180,-318c1,28 3,56 4,85Z" style="fill:#000;"/><path d="M258,778.193c-1,-3 -7,-5 -16,-5c-9,1 -21,4 -33,12c-12,8 -23,20 -30,27c-7,7 -9,8 -11,8c-2,1 -4,0 -6,-6c-2,-6 -5,-17 -9,-32c-3,-15 -6,-34 -7,-55c-2,-21 -1,-43 -2,-58c-2,-16 -6,-24 -9,-29c-2,-5 -4,-6 -5,-7c-2,-1 -3,-1 -5,0c-1,1 -2,4 -3,13c-1,10 -2,28 -3,51c-2,23 -5,52 -6,65c0,12 1,9 -2,1c-2,-8 -7,-22 -11,-41c-4,-19 -5,-43 -8,-61c-2,-17 -5,-27 -9,-33c-4,-6 -8,-8 -11,-9c-3,-1 -5,0 -5,0c-1,1 -1,2 -1,17c0,15 1,44 2,60c0,16 1,19 2,30c1,11 4,30 5,39c1,9 1,9 -2,0c-2,-9 -7,-26 -11,-46c-3,-19 -7,-41 -10,-55c-4,-13 -9,-19 -12,-21c-4,-3 -7,-2 -9,-2c-1,1 -1,0 -1,10c0,10 1,30 2,44c1,14 1,22 2,27c2,6 3,8 5,18c2,9 5,24 6,32c1,8 1,8 -3,-1c-3,-8 -10,-25 -16,-39c-5,-13 -8,-23 -12,-29c-3,-6 -5,-9 -8,-10c-3,-1 -6,-1 -6,2c0,3 2,8 4,17c1,9 3,21 7,33c3,13 9,26 13,36c4,10 6,18 8,33c3,14 6,35 12,64c5,30 13,67 18,88c4,20 5,24 12,25c7,2 21,0 35,-2c14,-2 30,-4 37,-8c7,-3 6,-8 6,-18c0,-10 1,-26 4,-41c2,-15 7,-29 14,-39c7,-10 17,-15 25,-26c8,-10 14,-25 21,-37c7,-11 15,-20 21,-25c6,-5 10,-7 14,-9c4,-3 8,-6 7,-8Z" style="fill:#fccf97;"/><path d="M427,414.193c-8,-15 -21,-27 -33,-38c-11,-11 -22,-22 -27,-32c-6,-10 -5,-17 -8,-24c-4,-7 -11,-13 -15,-22c-4,-8 -6,-18 0,-29c5,-10 18,-21 22,-34c4,-12 -2,-26 -3,-39c-2,-12 1,-23 15,-35c13,-11 37,-22 49,-36c13,-13 13,-28 16,-43c3,-14 9,-29 20,-33c12,-5 30,0 42,-8c11,-9 17,-32 32,-39c15,-6 40,2 63,4c22,2 43,-4 63,5c21,8 41,30 62,31c21,0 44,-20 62,-15c18,5 33,35 57,52c23,17 55,20 67,37c12,18 3,48 3,78c1,30 10,58 16,77c5,19 7,30 4,49c-4,19 -11,47 -20,61c-10,15 -22,17 -31,20c-9,3 -15,8 -19,13c-5,4 -7,9 -9,18c-2,9 -4,23 -6,33c-2,11 -4,18 -4,18c0,0 2,-7 2,-22c0,-15 -3,-37 -5,-55c-3,-18 -5,-32 -5,-46c0,-14 2,-29 0,-46c-2,-18 -9,-38 -15,-53c-7,-16 -15,-27 -18,-33c-3,-6 -1,-6 -4,-8c-4,-2 -12,-6 -20,-13c-8,-7 -15,-17 -21,-18c-7,-1 -12,8 -20,3c-9,-5 -19,-23 -27,-24c-8,-2 -13,14 -19,22c-6,9 -14,10 -24,11c-11,2 -25,3 -39,0c-15,-2 -31,-9 -41,-8c-11,0 -16,8 -27,4c-11,-3 -28,-17 -41,-19c-13,-1 -22,9 -27,13c-6,5 -8,3 -9,10c-2,6 -3,21 -6,32c-3,11 -9,19 -12,28c-3,9 -4,20 -6,32c-1,12 -3,25 -5,37c-3,11 -5,20 -7,39c-2,20 -2,49 -4,67c-1,19 -2,26 -5,19c-2,-6 -5,-25 -13,-41Z" style="fill:#211d1e;"/></svg>