<?xml version="1.0" standalone="no"?><!DOCTYPE svg PUBLIC "-//W3C//DTD SVG 1.1//EN" "http://www.w3.org/Graphics/SVG/1.1/DTD/svg11.dtd"><svg width="100%" height="100%" viewBox="0 0 1062 1700" version="1.1" xmlns="http://www.w3.org/2000/svg" xmlns:xlink="http://www.w3.org/1999/xlink" xml:space="preserve" style="fill-rule:evenodd;clip-rule:evenodd;stroke-linejoin:round;stroke-miterlimit:1.41421;"><path d="M457.266,895c-2,0 -1,-2 -2,-1c-4,5 -10,16 -17,40c-6,23 -14,59 -22,96c-14,60 -28,124 -46,169c-18,46 -40,72 -65,86c-30,16 -58,14 -83,4c-22,-8 -41,-21 -60,-42c-16,-19 -31,-44 -45,-77c-24,-59 -46,-149 -68,-239l0,-1l49,-14l52,-15l0,1c21,86 42,171 64,224c9,22 17,37 26,46c5,7 11,11 16,13c2,0 -1,3 0,2l1,0c4,-2 9,-11 16,-30c14,-35 28,-96 40,-152c9,-38 17,-74 25,-103c13,-43 26,-67 40,-83c19,-22 35,-26 51,-31l28,107Z" style="fill:#fccf97;fill-rule:nonzero;"/><path d="M813.266,789c20,16 39,32 61,58c22,24 43,56 64,100c21,44 42,101 59,163c17,58 31,123 41,189c21,133 22,266 23,400l0,1l-62,0l-43,0c-1,-129 -2,-259 -21,-384c-9,-59 -23,-119 -38,-174c-17,-57 -35,-108 -53,-145c-16,-34 -32,-58 -47,-76c-15,-17 -32,-31 -49,-45l65,-87Z" style="fill:#fccea7;fill-rule:nonzero;"/><path d="M661.266,519l-4,216l87,33l-177,168l-97,-165l86,-31l13,-209l92,-12Z" style="fill:#fccf97;"/><ellipse cx="819.266" cy="398" rx="70" ry="67" style="fill:#fccf97;"/><ellipse cx="411.266" cy="398" rx="70" ry="67" style="fill:#fccf97;"/><path d="M405.266,232c-3,37 -6,96 -3,154c3,59 12,118 30,163c19,45 47,76 78,96c31,21 65,30 101,31c35,2 71,-5 104,-29c33,-23 63,-65 82,-106c20,-42 30,-83 33,-144c3,-60 0,-139 -9,-196c-9,-57 -25,-93 -46,-117c-21,-24 -48,-38 -78,-48c-30,-9 -63,-15 -105,-10c-41,5 -90,21 -121,45c-32,24 -45,57 -53,82c-8,24 -11,41 -13,79Z" style="fill:#fccf97;"/><path d="M401.266,339c-3,9 -97,-147 49,-279c12,-11 29,-22 50,-31c21,-10 46,-17 65,-21c19,-5 32,-8 48,-8c16,1 35,4 51,7c15,3 27,4 39,8c12,3 24,8 36,14c13,6 25,13 38,23c13,10 27,23 38,36c11,13 20,25 25,38c26,59 27,115 6,176c-3,9 -9,24 -16,46c-8,27 -1,-25 -1,-37c2,-57 -25,-65 -27,-185c0,-8 -18,-25 -47,-26c-2,-2 13,-7 6,-13c-6,-6 -22,-16 -35,-22c-2,-1 -4,-2 -6,-4c-8,-6 -8,-13 -20,-11c-18,3 -15,1 -34,-2c-15,-3 -24,-4 -34,-5c-10,-1 -19,-3 -28,-2c-9,0 -18,4 -27,6c-10,2 -21,2 -28,3c-8,1 -12,3 -17,5c-5,2 -12,5 -20,7c-8,3 -17,4 -23,8c-6,4 -8,11 -13,16c-5,5 -12,9 -19,14c-6,5 -12,10 -17,19c-5,9 -8,20 -10,29c-3,9 -4,16 -8,24c-3,9 -10,20 -14,35c-4,16 -5,36 -5,63c0,27 0,60 -2,69Z" style="fill:#211d1e;"/><path d="M547.266,298c-4,-3 -15,-7 -26,-10c-11,-2 -22,-2 -30,-2c-9,0 -16,0 -23,3c-7,2 -16,7 -22,14c-7,7 -11,16 -11,19c-1,4 3,1 12,-2c8,-4 20,-8 33,-11c12,-2 25,-3 35,-3c10,0 17,0 22,0c6,0 9,1 11,0c2,-2 4,-4 -1,-8Z" style="fill:#000;"/><path d="M677.266,296c5,-3 15,-7 26,-9c11,-2 22,-2 31,-1c9,0 15,1 22,4c8,3 16,8 22,15c6,7 10,16 10,19c1,4 -3,1 -11,-3c-8,-3 -21,-8 -33,-11c-12,-3 -25,-4 -35,-5c-10,0 -17,-1 -22,-1c-6,1 -9,1 -11,-1c-3,-1 -4,-4 1,-7Z" style="fill:#000;"/><path d="M527.266,369c-7,-1 -13,-9 -13,-18c1,-10 6,-18 13,-17c7,0 12,8 12,17c0,10 -6,18 -12,18Z" style="fill:#000;"/><path d="M698.266,369c-6,-1 -12,-9 -12,-18c1,-10 6,-18 13,-17c7,0 12,8 12,17c0,10 -6,18 -13,18Z" style="fill:#000;"/><path d="M596.266,427c1,10 7,26 30,31c2,0 3,5 3,10c-10,-2 -42,-4 -40,-43c0,-14 3,-26 7,-45c11,-44 12,-46 0,47Z" style="fill:#151514;fill-rule:nonzero;"/><path d="M887.266,1559c-23,-249 -38,-498 -52,-748c-1,-9 0,-5 -1,-12c-39,-21 -111,-46 -143,-54c-15,81 -140,69 -157,-2c-37,15 -72,24 -122,47c-18,255 -28,506 -47,762c71,20 147,33 225,37c16,1 33,1 49,1c87,0 170,-11 248,-31ZM419.266,785c-1,1 -3,2 0,0Z" style="fill:#000;"/><path d="M392.266,1141c7,-117 14,-234 22,-352c-11,5 -22,12 -35,26c-14,16 -28,42 -41,85c-8,30 -17,67 -25,107c-9,37 -17,76 -26,109c16,17 33,32 52,45c13,9 26,16 41,23c4,-13 8,-28 12,-43Z" style="fill:#000;"/><path d="M836.266,883c2,39 4,78 7,117c18,39 36,91 53,149c2,6 3,11 5,17c17,-7 35,-13 51,-21c17,-8 34,-16 49,-26l1,-1c0,-1 0,-1 0,-2c-29,-115 -78,-263 -171,-318c2,28 3,57 5,85Z" style="fill:#000;"/><path d="M244.266,785c-1,-3 -6,-5 -15,-4c-9,0 -20,3 -31,11c-12,8 -22,20 -29,27c-6,7 -8,8 -10,8c-2,1 -4,0 -6,-5c-2,-6 -5,-17 -8,-33c-3,-15 -6,-34 -8,-55c-1,-20 0,-43 -1,-58c-2,-15 -5,-23 -8,-28c-3,-5 -4,-7 -6,-8c-1,-1 -2,0 -4,1c-1,1 -2,3 -3,13c-1,10 -1,28 -3,51c-1,23 -4,51 -5,64c-1,13 0,10 -2,1c-2,-8 -7,-22 -11,-41c-3,-19 -5,-43 -7,-60c-2,-18 -5,-28 -9,-34c-4,-6 -8,-8 -11,-9c-2,0 -4,0 -4,1c-1,0 -1,1 -1,16c0,15 1,44 2,60c0,16 1,19 2,30c1,11 3,30 4,39c1,9 1,9 -1,1c-2,-9 -6,-27 -10,-46c-4,-20 -7,-42 -11,-55c-3,-14 -7,-20 -11,-22c-3,-3 -6,-2 -8,-1c-1,0 -1,0 -1,10c0,9 1,29 2,43c1,14 1,22 2,28c1,5 3,8 5,17c2,9 4,25 5,32c1,8 1,8 -2,0c-4,-9 -10,-26 -15,-39c-5,-14 -9,-24 -12,-30c-3,-6 -5,-9 -8,-10c-2,-1 -5,-1 -5,2c-1,3 1,8 3,17c2,9 3,21 7,34c3,12 8,25 12,35c4,10 6,18 8,33c3,14 6,36 11,65c5,29 13,66 17,87c4,20 5,24 12,26c7,1 19,-1 33,-2c13,-2 28,-5 35,-8c7,-4 6,-8 6,-19c0,-10 1,-25 3,-40c3,-15 7,-29 13,-39c7,-10 16,-16 24,-27c8,-10 14,-25 20,-36c7,-12 14,-20 20,-25c6,-6 10,-8 14,-10c3,-3 7,-6 6,-8Z" style="fill:#fccf97;"/><path d="M684.266,521c-7,31 -35,55 -68,55c-33,0 -61,-24 -67,-55l135,0Z" style="fill:#fff;"/><path d="M414.266,189c83,85 269,-35 297,-61c37,-35 86,1 93,39c4,-41 8,-87 -44,-106c-76,-27 -216,-67 -287,-13c-10,7 -54,78 -54,90c0,18 -67,-12 -5,51Z" style="fill:#211d1e;"/><path d="M387.266,315c49,-7 82,-8 125,-7c73,2 68,26 101,24c33,2 28,-22 101,-24c43,-1 76,0 125,7l1,34c-16,14 -16,30 -26,57c-10,30 -82,30 -122,25c-26,-3 -39,-14 -47,-31c-9,-20 -15,-44 -32,-46c-17,2 -23,26 -32,46c-8,17 -21,28 -46,31c-40,5 -112,5 -123,-25c-10,-27 -10,-43 -26,-57l1,-34ZM776.266,318c-56,-6 -122,5 -128,18c-8,16 -8,58 24,81c13,9 32,10 58,10c62,-4 77,-13 82,-47c2,-9 2,-18 2,-27c-2,-16 -13,-32 -38,-35ZM450.266,318c57,-6 122,5 129,18c8,16 8,58 -25,81c-13,9 -31,10 -58,10c-62,-4 -76,-13 -82,-47c-1,-9 -2,-18 -1,-27c1,-16 13,-32 37,-35Z" style="fill:#000;"/></svg>