<?xml version="1.0" standalone="no"?><!DOCTYPE svg PUBLIC "-//W3C//DTD SVG 1.1//EN" "http://www.w3.org/Graphics/SVG/1.1/DTD/svg11.dtd"><svg width="100%" height="100%" viewBox="0 0 1138 1528" version="1.1" xmlns="http://www.w3.org/2000/svg" xmlns:xlink="http://www.w3.org/1999/xlink" xml:space="preserve" style="fill-rule:evenodd;clip-rule:evenodd;stroke-linecap:round;stroke-linejoin:round;stroke-miterlimit:1.41421;"><path d="M894.598,705.927c44,35 89,70 133,158c22,43 43,99 60,161c17,58 30,121 38,184c10,77 12,153 12,230c-23,3 -45,6 -68,8c-22,3 -45,5 -68,7c2,-78 0,-155 -10,-231c-8,-58 -20,-116 -35,-169c-16,-55 -34,-104 -52,-141c-33,-65 -68,-92 -102,-119l-4,-3l48,-42l44,-46l4,3Z" style="fill:#000;fill-rule:nonzero;"/><path d="M234.598,664.927c-2,-2 -8,-2 -15,2c-8,3 -17,10 -24,20c-8,11 -13,24 -17,32c-3,8 -5,10 -6,11c-2,1 -3,1 -7,-2c-4,-3 -10,-8 -19,-19c-9,-11 -21,-26 -33,-44c-12,-18 -24,-39 -32,-51c-8,-13 -12,-17 -15,-19c-3,-3 -5,-4 -6,-4c-2,0 -3,1 -4,2c-1,1 -1,4 2,12c2,9 7,24 16,42c8,18 20,38 26,49c6,10 5,9 1,3c-5,-6 -14,-18 -23,-32c-9,-15 -17,-32 -25,-45c-7,-12 -13,-20 -18,-24c-5,-3 -9,-3 -12,-3c-3,0 -4,1 -4,2c-1,0 0,1 5,14c5,12 14,36 20,49c6,13 7,16 12,24c6,9 15,23 19,30c5,7 5,7 0,0c-5,-7 -14,-20 -24,-35c-9,-15 -19,-32 -26,-43c-8,-10 -13,-13 -17,-14c-4,-1 -7,1 -8,2c-1,1 -1,0 2,8c4,9 11,25 16,36c5,12 8,18 11,22c2,5 4,6 9,13c5,7 12,20 15,26c4,6 4,6 -1,0c-4,-6 -13,-19 -20,-30c-7,-10 -12,-20 -16,-26c-4,-6 -7,-8 -10,-10c-3,-1 -6,-1 -6,2c0,3 3,10 7,18c3,8 7,18 13,29c5,10 13,21 19,30c6,8 10,14 17,25c7,12 16,28 30,51c14,23 33,51 43,67c10,16 12,19 19,18c6,-2 17,-7 28,-13c12,-6 24,-13 29,-19c5,-5 2,-8 -1,-17c-3,-8 -7,-22 -10,-35c-3,-13 -4,-26 -1,-37c3,-11 9,-19 13,-30c3,-11 4,-26 6,-38c2,-11 6,-21 9,-27c4,-6 7,-9 9,-13c3,-3 5,-7 4,-9Z" style="fill:#fccf97;"/><path d="M213.374,821.593l1.074,4.103l1.074,4.097l1.074,4.089l1.073,4.083l1.072,4.073l1.072,4.062l1.071,4.055l1.071,4.043l1.069,4.029l1.071,4.021l0.533,1.999l0.535,2.003l0.534,1.996l0.534,1.992l0.533,1.989l0.534,1.984l0.534,1.984l0.534,1.977l0.533,1.972l0.533,1.97l0.533,1.964l0.532,1.959l0.534,1.956l0.533,1.955l0.532,1.945l0.532,1.939l0.532,1.936l0.532,1.931l0.532,1.928l0.532,1.921l0.532,1.916l0.531,1.91l0.53,1.901l0.532,1.901l0.531,1.893l0.531,1.889l0.531,1.883l0.529,1.871l0.531,1.871l0.53,1.865l0.529,1.853l0.53,1.852l0.53,1.844l0.529,1.834l0.529,1.829l0.529,1.824l0.528,1.815l0.529,1.81l0.528,1.803l0.527,1.789l0.528,1.788l0.529,1.783l0.527,1.77l0.526,1.761l0.528,1.759l0.526,1.747l0.525,1.737l0.526,1.731l0.525,1.722l0.526,1.717l0.525,1.706l0.525,1.696l0.524,1.689l0.523,1.678l0.524,1.669l0.524,1.666l0.523,1.65l0.521,1.64l0.522,1.633l0.521,1.622l0.522,1.615l0.52,1.604l0.52,1.592l0.52,1.584l0.519,1.573l0.523,1.576l0.253,0.759l0.26,0.778l0.26,0.777l0.256,0.762l0.258,0.766l0.26,0.769l0.26,0.766l0.255,0.748l0.258,0.756l0.259,0.759l0.257,0.748l0.256,0.743l0.258,0.748l0.259,0.746l0.252,0.727l0.259,0.741l0.259,0.741l0.254,0.725l0.254,0.721l0.255,0.723l0.257,0.724l0.258,0.725l0.254,0.714l0.253,0.705l0.253,0.706l0.257,0.711l0.256,0.708l0.25,0.689l0.256,0.702l0.255,0.7l0.248,0.675l0.255,0.694l0.256,0.691l0.251,0.677l0.25,0.674l0.251,0.671l0.254,0.676l0.25,0.665l0.25,0.662l0.252,0.665l0.252,0.661l0.249,0.653l0.247,0.641l0.251,0.652l0.251,0.649l0.247,0.637l0.247,0.635l0.249,0.634l0.25,0.637l0.244,0.617l0.246,0.621l0.249,0.627l0.245,0.612l0.245,0.611l0.245,0.609l0.246,0.606l0.243,0.598l0.245,0.599l0.244,0.596l0.242,0.588l0.242,0.585l0.24,0.577l0.244,0.583l0.241,0.574l0.24,0.57l0.243,0.573l0.238,0.56l0.238,0.556l0.237,0.552l0.234,0.541l0.24,0.554l0.236,0.542l0.232,0.529l0.239,0.543l0.235,0.531l0.23,0.517l0.238,0.532l0.233,0.519l0.234,0.516l0.236,0.521l0.224,0.491l0.231,0.504l0.239,0.519l0.231,0.497l0.229,0.493l0.23,0.49l0.229,0.486l0.232,0.492l0.228,0.478l0.227,0.475l0.231,0.481l0.226,0.468l0.225,0.464l0.23,0.47l0.224,0.457l0.223,0.452l0.228,0.46l0.227,0.455l0.222,0.442l0.221,0.439l0.226,0.445l0.225,0.441l0.219,0.427l0.218,0.424l0.228,0.441l0.218,0.417l0.216,0.413l0.227,0.43l0.22,0.417l0.214,0.402l0.214,0.399l0.224,0.416l0.212,0.393l0.212,0.388l0.222,0.405l0.216,0.392l0.215,0.388l0.208,0.375l0.214,0.382l0.213,0.377l0.212,0.374l0.217,0.382l0.205,0.358l0.21,0.363l0.209,0.361l0.208,0.356l0.214,0.365l0.2,0.34l0.206,0.346l0.212,0.355l0.205,0.342l0.203,0.336l0.209,0.345l0.195,0.319l0.201,0.325l0.214,0.348l0.193,0.309l0.197,0.315l0.205,0.325l0.197,0.311l0.196,0.308l0.202,0.315l0.193,0.299l0.2,0.308l0.199,0.305l0.192,0.291l0.19,0.288l0.188,0.282l0.197,0.295l0.195,0.289l0.193,0.285l0.186,0.272l0.175,0.255l0.2,0.29l0.199,0.286l0.175,0.249l0.177,0.252l0.186,0.263l0.206,0.288l0.177,0.247l0.165,0.228l0.192,0.265l0.184,0.252l0.173,0.234l0.178,0.24l0.189,0.252l0.179,0.24l0.168,0.222l0.166,0.218l0.177,0.23l0.183,0.238l0.182,0.234l0.161,0.207l0.16,0.203l0.183,0.231l0.178,0.223l0.156,0.194l0.167,0.207l0.174,0.214l0.165,0.201l0.164,0.199l0.149,0.18l0.169,0.202l0.174,0.206l0.159,0.187l0.165,0.194l0.148,0.172l0.155,0.179l0.162,0.186l0.153,0.173l0.159,0.18l0.164,0.185l0.14,0.156l0.156,0.172l0.161,0.177l0.144,0.158l0.143,0.154l0.157,0.169l0.156,0.168l0.123,0.129l0.162,0.171l0.153,0.159l0.134,0.14l0.141,0.145l0.149,0.152l0.139,0.141l0.146,0.148l0.145,0.145l0.126,0.124l0.142,0.141l0.141,0.137l0.14,0.136l0.139,0.133l0.118,0.114l0.136,0.128l0.144,0.136l0.114,0.107l0.141,0.13l0.15,0.139l0.11,0.099l0.118,0.108l0.147,0.132l0.125,0.111l0.124,0.11l0.123,0.108l0.142,0.124l0.12,0.103l0.109,0.094l0.117,0.099l0.116,0.098l0.136,0.114l0.136,0.113l0.111,0.092l0.111,0.09l0.122,0.099l0.131,0.105l0.106,0.085l0.096,0.075l0.127,0.1l0.126,0.098l0.125,0.097l0.09,0.069l0.123,0.093l0.121,0.091l0.121,0.09l0.094,0.07l0.109,0.08l0.133,0.097l0.09,0.065l0.115,0.082l0.105,0.074l0.086,0.061l0.138,0.096l0.137,0.095l0.073,0.05l0.108,0.073l0.107,0.072l0.088,0.059l0.133,0.087l0.104,0.069l0.103,0.066l0.121,0.079l0.091,0.058l0.109,0.069l0.119,0.074l0.089,0.056l0.096,0.059l0.117,0.071l0.115,0.07l0.094,0.057l0.093,0.055l0.114,0.066l0.121,0.071l0.112,0.065l0.08,0.046l0.089,0.05l0.109,0.062l0.15,0.083l0.108,0.06l0.045,0.024l0.116,0.062l0.147,0.079l0.106,0.057l0.073,0.038l0.105,0.054l0.137,0.071l0.112,0.057l0.078,0.04l0.103,0.051l0.135,0.067l0.102,0.05l0.101,0.05l0.109,0.052l0.1,0.048l0.134,0.063l0.107,0.05l0.099,0.045l0.133,0.061l0.098,0.045l0.042,0.018l0.031,-0.042l0.153,-0.213l0.156,-0.219l0.154,-0.218l0.163,-0.234l0.158,-0.228l0.171,-0.251l0.164,-0.242l0.167,-0.25l0.172,-0.26l0.175,-0.267l0.183,-0.282l0.172,-0.267l0.176,-0.277l0.186,-0.295l0.187,-0.3l0.189,-0.307l0.187,-0.305l0.184,-0.304l0.196,-0.329l0.2,-0.335l0.19,-0.325l0.199,-0.341l0.201,-0.349l0.192,-0.336l0.205,-0.364l0.212,-0.379l0.204,-0.369l0.202,-0.367l0.208,-0.383l0.22,-0.408l0.212,-0.398l0.205,-0.388l0.216,-0.412l0.226,-0.438l0.216,-0.418l0.212,-0.418l0.223,-0.442l0.225,-0.45l0.222,-0.448l0.219,-0.448l0.229,-0.471l0.227,-0.471l0.224,-0.47l0.23,-0.486l0.231,-0.494l0.233,-0.5l0.23,-0.5l0.235,-0.516l0.233,-0.516l0.234,-0.522l0.236,-0.531l0.236,-0.538l0.238,-0.544l0.239,-0.554l0.237,-0.553l0.238,-0.561l0.245,-0.582l0.176,-0.422l0.183,-0.45l0.249,-0.614l0.248,-0.621l0.253,-0.635l0.25,-0.636l0.252,-0.643l0.257,-0.662l0.255,-0.663l0.256,-0.67l0.261,-0.69l0.255,-0.675l0.26,-0.696l0.263,-0.709l0.258,-0.702l0.263,-0.72l0.264,-0.726l0.262,-0.727l0.267,-0.746l0.265,-0.745l0.265,-0.75l0.267,-0.762l0.264,-0.755l0.267,-0.773l0.272,-0.791l0.269,-0.784l0.268,-0.79l0.269,-0.795l0.27,-0.805l0.273,-0.818l0.271,-0.816l0.27,-0.818l0.27,-0.826l0.275,-0.843l0.273,-0.84l0.269,-0.834l0.274,-0.858l0.275,-0.862l0.274,-0.861l0.275,-0.874l0.272,-0.866l0.273,-0.876l0.277,-0.891l0.276,-0.891l0.272,-0.886l0.277,-0.904l0.277,-0.911l0.273,-0.903l0.276,-0.914l0.277,-0.924l0.276,-0.922l0.274,-0.921l0.277,-0.938l0.276,-0.936l0.276,-0.943l0.278,-0.951l0.275,-0.944l0.278,-0.96l0.276,-0.957l0.276,-0.963l0.278,-0.973l0.275,-0.964l0.276,-0.973l0.278,-0.984l0.276,-0.983l0.276,-0.986l0.279,-0.997l0.276,-0.992l0.274,-0.988l0.278,-1.008l0.279,-1.013l0.274,-1l0.275,-1.008l0.278,-1.021l0.276,-1.019l0.276,-1.019l0.277,-1.03l0.276,-1.028l0.276,-1.029l0.275,-1.033l0.276,-1.037l0.277,-1.043l0.275,-1.042l0.275,-1.045l0.275,-1.047l0.275,-1.05l0.277,-1.059l0.274,-1.053l0.275,-1.058l0.276,-1.068l0.272,-1.053l0.551,-2.143l0.549,-2.144l0.548,-2.154l0.548,-2.16l0.546,-2.169l0.548,-2.18l0.545,-2.183l0.545,-2.19l0.544,-2.196l0.544,-2.203l0.544,-2.211l0.542,-2.213l0.541,-2.217l0.542,-2.225l0.54,-2.226l0.539,-2.231l0.54,-2.236l0.538,-2.238l0.538,-2.238l0.537,-2.244l0.536,-2.243l0.534,-2.243l0.536,-2.25l0.533,-2.246l0.532,-2.242l1.065,-4.501l1.061,-4.492l1.058,-4.488l2.108,-8.948l1.049,-4.453l1.047,-4.436l1.044,-4.419l1.04,-4.392l0.521,-2.195l0.519,-2.183l0.518,-2.175l0.518,-2.17l0.518,-2.162l0.517,-2.157l0.516,-2.146l0.516,-2.137l0.515,-2.13l0.515,-2.121l0.515,-2.114l0.514,-2.102l0.514,-2.095l0.514,-2.082l0.513,-2.073l0.513,-2.065l0.512,-2.05l0.514,-2.044l0.512,-2.027l0.511,-2.017l0.515,-2.014l0.507,-1.977l0.259,-1.003l0.259,-1.001l0.255,-0.981l0.255,-0.98l0.257,-0.983l0.257,-0.98l0.258,-0.978l0.256,-0.968l0.255,-0.962l0.259,-0.975l0.259,-0.966l0.252,-0.942l0.258,-0.958l0.261,-0.964l0.256,-0.944l0.256,-0.94l0.259,-0.943l0.259,-0.942l0.259,-0.937l0.259,-0.933l0.257,-0.924l0.258,-0.921l0.263,-0.933l0.26,-0.918l0.258,-0.909l0.259,-0.909l0.261,-0.908l0.262,-0.906l0.263,-0.906l0.262,-0.9l0.26,-0.887l0.264,-0.894l0.264,-0.889l0.262,-0.879l0.265,-0.883l0.352,-1.164l0.368,-1.17l0.28,-0.884l0.278,-0.873l0.28,-0.875l0.28,-0.868l0.28,-0.864l0.278,-0.854l0.282,-0.859l0.284,-0.857l0.278,-0.836l0.283,-0.847l0.282,-0.836l0.28,-0.824l0.287,-0.842l0.282,-0.821l0.28,-0.81l0.284,-0.817l0.289,-0.824l0.285,-0.807l0.281,-0.791l0.286,-0.8l0.286,-0.796l0.291,-0.803l0.287,-0.785l0.282,-0.77l0.29,-0.783l0.289,-0.775l0.29,-0.775l0.291,-0.77l0.292,-0.766l0.289,-0.755l0.292,-0.756l0.292,-0.753l0.292,-0.746l0.297,-0.753l0.29,-0.73l0.294,-0.737l0.3,-0.744l0.295,-0.727l0.3,-0.735l0.299,-0.726l0.298,-0.718l0.299,-0.716l0.299,-0.709l0.304,-0.717l0.303,-0.708l0.302,-0.701l0.303,-0.698l0.307,-0.702l0.306,-0.694l0.307,-0.691l0.309,-0.69l0.313,-0.693l0.309,-0.68l0.311,-0.677l0.309,-0.67l0.311,-0.668l0.326,-0.694l0.312,-0.658l0.315,-0.662l0.318,-0.659l0.322,-0.664l0.324,-0.662l0.32,-0.648l0.327,-0.659l0.321,-0.638l0.325,-0.644l0.33,-0.647l0.332,-0.646l0.328,-0.632l0.326,-0.624l0.339,-0.641l0.34,-0.64l0.339,-0.631l0.339,-0.624l0.337,-0.617l0.339,-0.615l0.348,-0.627l0.347,-0.618l0.339,-0.597l0.356,-0.623l0.354,-0.615l0.349,-0.599l0.36,-0.613l0.355,-0.598l0.356,-0.596l0.363,-0.602l0.359,-0.588l0.364,-0.592l0.367,-0.592l0.362,-0.577l0.373,-0.59l0.384,-0.601l0.38,-0.588l0.369,-0.566l0.38,-0.578l0.383,-0.577l0.372,-0.554l0.398,-0.589l0.394,-0.575l0.381,-0.552l0.403,-0.578l0.389,-0.55l0.401,-0.564l0.407,-0.566l0.392,-0.54l0.412,-0.561l0.419,-0.564l0.413,-0.551l0.399,-0.527l0.413,-0.54l0.435,-0.561l0.421,-0.539l0.414,-0.524l0.42,-0.527l0.435,-0.539l0.437,-0.536l0.442,-0.535l0.447,-0.537l0.422,-0.499l0.445,-0.523l0.451,-0.524l0.445,-0.51l0.459,-0.521l0.443,-0.497l0.469,-0.522l0.463,-0.507l0.456,-0.495l0.461,-0.494l0.465,-0.494l0.482,-0.505l0.463,-0.48l0.479,-0.491l0.496,-0.503l0.465,-0.465l0.494,-0.488l0.486,-0.475l0.478,-0.462l0.509,-0.485l0.475,-0.448l0.504,-0.471l0.51,-0.469l0.488,-0.443l0.505,-0.454l0.511,-0.454l0.502,-0.439l0.519,-0.45l0.511,-0.437l0.514,-0.434l0.534,-0.445l0.509,-0.419l0.498,-0.406l0.519,-0.417l0.549,-0.435l0.529,-0.414l0.515,-0.398l0.547,-0.418l0.525,-0.394l0.511,-0.381l0.547,-0.401l0.533,-0.386l0.523,-0.375l0.56,-0.395l0.546,-0.38l0.517,-0.355l0.535,-0.363l0.525,-0.351l0.562,-0.372l0.559,-0.364l0.517,-0.332l0.54,-0.344l0.537,-0.336l0.54,-0.334l0.544,-0.331l0.548,-0.329l0.551,-0.327l0.519,-0.304l0.535,-0.309l0.562,-0.32l0.541,-0.304l0.523,-0.289l0.511,-0.279l0.564,-0.305l0.555,-0.294l0.496,-0.26l0.536,-0.278l0.514,-0.262l0.541,-0.273l0.545,-0.27l0.496,-0.243l0.524,-0.253l0.526,-0.251l0.529,-0.248l0.504,-0.234l0.507,-0.232l0.509,-0.23l0.485,-0.216l0.512,-0.225l0.515,-0.223l0.501,-0.215l0.492,-0.207l0.508,-0.212l0.479,-0.196l0.468,-0.191l0.497,-0.198l0.472,-0.187l0.472,-0.184l0.485,-0.186l0.446,-0.17l0.448,-0.168l0.477,-0.177l0.45,-0.165l0.45,-0.163l0.462,-0.165l0.463,-0.163l0.415,-0.145l0.425,-0.146l0.436,-0.149l0.397,-0.134l0.437,-0.145l0.428,-0.141l0.443,-0.145l0.765,-0.245l0.781,-0.245l0.767,-0.236l0.745,-0.225l0.724,-0.215l0.715,-0.209l0.681,-0.196l0.666,-0.188l0.652,-0.182l0.605,-0.167l0.595,-0.162l0.596,-0.161l0.57,-0.153l1.008,-0.268l0.948,-0.25l31.594,119.83l0.001,-0.001l0.106,-0.078l0.07,-0.052l0.084,-0.063l0.105,-0.08l0.074,-0.058l0.087,-0.068l0.108,-0.085l0.077,-0.062l0.057,-0.046l0.067,-0.056l0.092,-0.076l0.071,-0.061l0.069,-0.058l0.077,-0.067l0.059,-0.052l0.069,-0.061l0.062,-0.056l0.045,-0.04l0.066,-0.061l0.062,-0.058l0.031,-0.03l0.065,-0.061l0.035,-0.034l0.042,-0.041l0.05,-0.049l0.02,-0.021l0.052,-0.052l0.035,-0.036l0.018,-0.019l0.037,-0.039l0.021,-0.022l0.015,-0.016l0.011,-0.012l0.017,-0.019l0.022,-0.024l0.011,-0.012l0.003,-0.004l-0.001,0.001l-0.025,0.03l-0.006,0.007l-0.011,0.013l-0.013,0.016l-0.027,0.035l-0.034,0.043l-0.028,0.035l-0.014,0.019l-0.036,0.047l-0.05,0.066l-0.037,0.048l-0.031,0.042l-0.037,0.052l-0.058,0.08l-0.044,0.059l-0.049,0.07l-0.063,0.089l-0.048,0.069l-0.069,0.101l-0.059,0.085l-0.053,0.079l-0.08,0.119l-0.07,0.105l-0.072,0.11l-0.085,0.13l-0.074,0.115l-0.069,0.108l-0.081,0.128l-0.092,0.147l-0.088,0.141l-0.09,0.147l-0.097,0.158l-0.07,0.117l0.042,0.159l-0.163,0.043l-0.101,0.17l-0.097,0.164l-0.108,0.186l-0.102,0.178l-0.101,0.177l-0.119,0.21l-0.111,0.198l-0.11,0.197l-0.119,0.216l-0.122,0.223l-0.121,0.224l-0.121,0.224l-0.119,0.224l-0.122,0.231l-0.134,0.256l-0.133,0.256l-0.129,0.251l-0.131,0.258l-0.137,0.271l-0.142,0.282l-0.135,0.272l-0.144,0.291l-0.139,0.285l-0.142,0.292l-0.147,0.305l-0.148,0.312l-0.154,0.324l-0.139,0.297l-0.155,0.332l-0.157,0.339l-0.155,0.34l-0.158,0.347l-0.155,0.342l-0.159,0.355l-0.16,0.362l-0.163,0.369l-0.162,0.37l-0.166,0.382l-0.168,0.39l-0.167,0.391l-0.167,0.392l-0.172,0.41l-0.172,0.412l-0.174,0.419l-0.174,0.421l-0.172,0.422l-0.178,0.439l-0.174,0.431l-0.179,0.449l-0.185,0.466l-0.178,0.452l-0.184,0.468l-0.183,0.472l-0.185,0.479l-0.187,0.489l-0.186,0.489l-0.187,0.495l-0.188,0.5l-0.189,0.509l-0.19,0.513l-0.197,0.536l-0.193,0.53l-0.19,0.523l-0.194,0.54l-0.196,0.547l-0.201,0.567l-0.198,0.561l-0.194,0.555l-0.199,0.571l-0.204,0.591l-0.202,0.588l-0.198,0.58l-0.206,0.608l-0.205,0.606l-0.203,0.607l-0.209,0.628l-0.204,0.618l-0.206,0.628l-0.21,0.644l-0.209,0.644l-0.21,0.652l-0.21,0.656l-0.213,0.668l-0.212,0.67l-0.124,0.394l-0.118,0.389l-0.204,0.681l-0.208,0.696l-0.206,0.697l-0.208,0.703l-0.211,0.721l-0.21,0.719l-0.21,0.723l-0.212,0.734l-0.213,0.743l-0.215,0.752l-0.217,0.764l-0.216,0.763l-0.214,0.759l-0.218,0.781l-0.22,0.789l-0.219,0.789l-0.22,0.794l-0.22,0.8l-0.221,0.808l-0.224,0.821l-0.224,0.827l-0.221,0.816l-0.224,0.831l-0.23,0.856l-0.225,0.842l-0.223,0.841l-0.229,0.863l-0.229,0.867l-0.228,0.865l-0.229,0.873l-0.229,0.877l-0.232,0.889l-0.233,0.896l-0.229,0.885l-0.23,0.891l-0.471,1.835l-0.467,1.831l-0.472,1.859l-0.474,1.878l-0.476,1.892l-0.478,1.915l-0.48,1.928l-0.482,1.948l-0.484,1.966l-0.486,1.98l-0.489,1.998l-0.489,2.01l-0.493,2.027l-0.494,2.043l-0.496,2.057l-0.498,2.071l-0.5,2.081l-0.501,2.097l-0.504,2.109l-0.505,2.122l-0.508,2.133l-0.508,2.14l-1.024,4.325l-1.031,4.363l-1.038,4.401l-1.045,4.435l-2.11,8.959l-1.066,4.52l-1.073,4.544l-1.079,4.558l-0.544,2.294l-0.545,2.294l-0.545,2.293l-0.549,2.301l-0.55,2.303l-0.551,2.303l-0.555,2.309l-0.555,2.307l-0.557,2.308l-0.559,2.312l-0.561,2.314l-0.563,2.312l-0.565,2.314l-0.567,2.314l-0.568,2.31l-0.57,2.312l-0.573,2.312l-0.575,2.31l-0.577,2.308l-0.578,2.302l-0.581,2.303l-0.583,2.302l-0.584,2.296l-0.587,2.295l-0.587,2.283l-0.299,1.154l-0.294,1.135l-0.297,1.144l-0.298,1.144l-0.296,1.134l-0.298,1.14l-0.299,1.138l-0.3,1.137l-0.3,1.136l-0.299,1.129l-0.301,1.133l-0.303,1.132l-0.302,1.131l-0.303,1.128l-0.302,1.121l-0.305,1.127l-0.305,1.123l-0.303,1.117l-0.307,1.124l-0.309,1.126l-0.305,1.109l-0.306,1.108l-0.311,1.123l-0.31,1.114l-0.308,1.103l-0.311,1.109l-0.311,1.106l-0.31,1.099l-0.314,1.104l-0.315,1.107l-0.312,1.093l-0.315,1.096l-0.316,1.096l-0.314,1.086l-0.319,1.097l-0.317,1.082l-0.317,1.085l-0.32,1.085l-0.319,1.076l-0.322,1.086l-0.323,1.078l-0.32,1.069l-0.324,1.072l-0.326,1.076l-0.323,1.061l-0.324,1.06l-0.329,1.071l-0.327,1.058l-0.326,1.051l-0.331,1.058l-0.332,1.06l-0.33,1.044l-0.332,1.048l-0.332,1.041l-0.332,1.037l-0.34,1.052l-0.336,1.036l-0.334,1.027l-0.34,1.034l-0.34,1.033l-0.341,1.028l-0.34,1.016l-0.342,1.021l-0.345,1.021l-0.346,1.018l-0.347,1.014l-0.344,0.998l-0.348,1.007l-0.354,1.016l-0.351,0.999l-0.354,1.001l-0.354,0.997l-0.353,0.986l-0.359,0.995l-0.358,0.986l-0.359,0.982l-0.365,0.991l-0.36,0.972l-0.365,0.976l-0.371,0.986l-0.364,0.96l-0.371,0.971l-0.372,0.966l-0.371,0.957l-0.377,0.965l-0.379,0.961l-0.378,0.951l-0.382,0.954l-0.384,0.95l-0.449,1.102l-0.458,1.097l-0.388,0.924l-0.397,0.935l-0.4,0.931l-0.397,0.92l-0.4,0.918l-0.402,0.914l-0.404,0.91l-0.406,0.907l-0.409,0.904l-0.407,0.891l-0.412,0.897l-0.412,0.886l-0.413,0.883l-0.416,0.879l-0.422,0.884l-0.42,0.873l-0.419,0.862l-0.429,0.874l-0.427,0.863l-0.426,0.853l-0.428,0.849l-0.439,0.863l-0.438,0.851l-0.426,0.823l-0.438,0.837l-0.45,0.851l-0.444,0.831l-0.436,0.811l-0.449,0.826l-0.456,0.831l-0.454,0.82l-0.447,0.798l-0.455,0.806l-0.469,0.821l-0.46,0.799l-0.463,0.797l-0.472,0.804l-0.465,0.782l-0.467,0.78l-0.48,0.795l-0.479,0.783l-0.477,0.772l-0.479,0.77l-0.482,0.764l-0.491,0.774l-0.497,0.773l-0.486,0.748l-0.495,0.755l-0.498,0.752l-0.504,0.753l-0.507,0.75l-0.501,0.733l-0.515,0.746l-0.51,0.73l-0.52,0.738l-0.517,0.726l-0.522,0.724l-0.525,0.721l-0.527,0.716l-0.543,0.73l-0.528,0.701l-0.531,0.7l-0.546,0.71l-0.54,0.694l-0.554,0.706l-0.559,0.703l-0.541,0.673l-0.557,0.685l-0.572,0.697l-0.566,0.68l-0.52,0.617l-0.305,0.361l-0.307,0.36l-0.294,0.343l-0.285,0.33l-0.297,0.342l-0.272,0.311l-0.289,0.329l-0.315,0.356l-0.275,0.31l-0.303,0.34l-0.293,0.325l-0.279,0.308l-0.322,0.354l-0.281,0.307l-0.282,0.306l-0.326,0.352l-0.313,0.335l-0.301,0.321l-0.286,0.303l-0.288,0.303l-0.304,0.319l-0.29,0.302l-0.336,0.348l-0.323,0.331l-0.293,0.299l-0.311,0.315l-0.295,0.299l-0.313,0.313l-0.298,0.297l-0.331,0.328l-0.317,0.311l-0.302,0.295l-0.335,0.326l-0.272,0.262l-0.321,0.309l-0.356,0.339l-0.342,0.324l-0.31,0.29l-0.276,0.258l-0.312,0.289l-0.364,0.337l-0.331,0.302l-0.315,0.288l-0.317,0.286l-0.319,0.286l-0.319,0.285l-0.337,0.299l-0.376,0.331l-0.286,0.249l-0.325,0.283l-0.365,0.314l-0.327,0.28l-0.329,0.28l-0.308,0.26l-0.348,0.293l-0.373,0.31l-0.335,0.277l-0.336,0.275l-0.296,0.242l-0.338,0.275l-0.398,0.32l-0.359,0.286l-0.283,0.224l-0.344,0.272l-0.406,0.316l-0.304,0.235l-0.365,0.282l-0.35,0.267l-0.351,0.267l-0.353,0.265l-0.309,0.232l-0.372,0.276l-0.357,0.264l-0.405,0.296l-0.361,0.26l-0.267,0.193l-0.38,0.272l-0.412,0.292l-0.366,0.257l-0.336,0.234l-0.32,0.222l-0.403,0.278l-0.371,0.253l-0.341,0.23l-0.392,0.263l-0.376,0.25l-0.31,0.205l-0.396,0.26l-0.381,0.247l-0.33,0.213l-0.4,0.256l-0.369,0.234l-0.387,0.243l-0.405,0.253l-0.336,0.207l-0.337,0.207l-0.392,0.239l-0.411,0.248l-0.396,0.236l-0.325,0.192l-0.416,0.245l-0.4,0.232l-0.345,0.2l-0.346,0.197l-0.405,0.231l-0.422,0.236l-0.334,0.186l-0.409,0.226l-0.427,0.234l-0.353,0.19l-0.354,0.191l-0.415,0.221l-0.417,0.219l-0.357,0.186l-0.358,0.186l-0.437,0.224l-0.361,0.183l-0.408,0.206l-0.426,0.211l-0.379,0.187l-0.366,0.177l-0.35,0.17l-0.446,0.214l-0.434,0.205l-0.369,0.172l-0.37,0.172l-0.437,0.201l-0.373,0.169l-0.44,0.198l-0.389,0.173l-0.361,0.159l-0.444,0.193l-0.378,0.163l-0.447,0.19l-0.769,0.322l-0.792,0.324l-0.81,0.326l-0.808,0.315l-0.806,0.309l-0.859,0.32l-0.785,0.285l-0.781,0.278l-0.828,0.287l-0.833,0.281l-0.836,0.275l-0.84,0.268l-0.801,0.249l-0.809,0.245l-0.812,0.239l-0.81,0.231l-0.858,0.238l-0.822,0.22l-0.825,0.215l-0.822,0.206l-0.786,0.191l-0.873,0.206l-0.836,0.189l-0.794,0.173l-0.795,0.168l-0.843,0.171l-0.842,0.163l-0.802,0.15l-0.808,0.144l-0.81,0.138l-0.851,0.139l-0.85,0.131l-0.772,0.113l-0.817,0.115l-0.813,0.106l-0.817,0.102l-0.82,0.095l-0.777,0.085l-0.819,0.083l-0.824,0.078l-0.781,0.067l-0.779,0.063l-0.827,0.059l-0.783,0.051l-0.827,0.048l-0.784,0.038l-0.784,0.035l-0.785,0.027l-0.742,0.022l-0.831,0.019l-0.787,0.011l-0.742,0.007l-0.787,0.001l-0.788,-0.005l-0.743,-0.009l-0.744,-0.014l-0.787,-0.02l-0.788,-0.026l-0.744,-0.029l-0.743,-0.034l-0.743,-0.039l-0.744,-0.044l-0.744,-0.048l-0.742,-0.053l-0.741,-0.058l-0.699,-0.059l-0.743,-0.066l-0.742,-0.072l-0.742,-0.077l-0.738,-0.081l-0.697,-0.081l-0.697,-0.084l-0.693,-0.089l-0.695,-0.092l-0.739,-0.103l-0.694,-0.101l-0.694,-0.105l-0.693,-0.109l-0.649,-0.106l-0.734,-0.123l-0.695,-0.122l-0.647,-0.117l-0.642,-0.119l-0.689,-0.131l-0.687,-0.136l-0.649,-0.131l-0.685,-0.143l-0.643,-0.137l-0.646,-0.142l-0.636,-0.143l-0.64,-0.146l-0.649,-0.153l-0.638,-0.153l-0.638,-0.156l-0.636,-0.16l-0.636,-0.163l-0.604,-0.157l-0.634,-0.169l-0.591,-0.16l-0.638,-0.175l-0.631,-0.179l-0.554,-0.158l-0.594,-0.172l-0.628,-0.185l-0.592,-0.179l-0.592,-0.18l-0.585,-0.182l-0.59,-0.185l-0.589,-0.188l-0.549,-0.178l-0.62,-0.203l-0.548,-0.183l-0.553,-0.186l-0.578,-0.198l-0.545,-0.189l-0.583,-0.204l-0.22,-0.078l-0.226,-0.078l-0.548,-0.193l-0.548,-0.194l-0.546,-0.196l-0.509,-0.185l-0.576,-0.21l-0.551,-0.205l-0.507,-0.19l-0.573,-0.216l-0.587,-0.225l-0.541,-0.21l-0.497,-0.195l-0.577,-0.227l-0.539,-0.216l-0.538,-0.217l-0.574,-0.235l-0.537,-0.221l-0.571,-0.239l-0.528,-0.222l-0.534,-0.227l-0.569,-0.245l-0.533,-0.232l-0.566,-0.248l-0.558,-0.248l-0.53,-0.238l-0.564,-0.255l-0.528,-0.242l-0.561,-0.259l-0.553,-0.259l-0.525,-0.247l-0.558,-0.266l-0.549,-0.264l-0.556,-0.27l-0.554,-0.272l-0.521,-0.258l-0.552,-0.276l-0.576,-0.292l-0.542,-0.276l-0.516,-0.267l-0.547,-0.284l-0.579,-0.304l-0.545,-0.29l-0.503,-0.269l-0.534,-0.289l-0.605,-0.33l-0.54,-0.298l-0.499,-0.277l-0.537,-0.302l-0.559,-0.316l-0.566,-0.324l-0.533,-0.309l-0.523,-0.305l-0.531,-0.312l-0.551,-0.327l-0.549,-0.329l-0.527,-0.319l-0.525,-0.321l-0.544,-0.335l-0.552,-0.343l-0.521,-0.327l-0.53,-0.335l-0.548,-0.35l-0.516,-0.333l-0.535,-0.347l-0.533,-0.35l-0.504,-0.333l-0.548,-0.365l-0.528,-0.356l-0.526,-0.357l-0.561,-0.385l-0.496,-0.343l-0.495,-0.344l-0.546,-0.384l-0.528,-0.374l-0.516,-0.37l-0.54,-0.389l-0.497,-0.362l-0.52,-0.382l-0.535,-0.396l-0.508,-0.379l-0.506,-0.381l-0.504,-0.382l-0.537,-0.411l-0.501,-0.387l-0.499,-0.388l-0.498,-0.39l-0.529,-0.418l-0.517,-0.413l-0.493,-0.396l-0.5,-0.406l-0.512,-0.417l-0.51,-0.421l-0.485,-0.403l-0.484,-0.406l-0.505,-0.425l-0.502,-0.427l-0.51,-0.437l-0.499,-0.432l-0.475,-0.414l-0.495,-0.434l-0.493,-0.436l-0.492,-0.439l-0.469,-0.421l-0.496,-0.449l-0.506,-0.462l-0.464,-0.427l-0.473,-0.438l-0.5,-0.467l-0.468,-0.441l-0.476,-0.451l-0.494,-0.472l-0.473,-0.456l-0.471,-0.457l-0.469,-0.459l-0.468,-0.46l-0.483,-0.48l-0.464,-0.464l-0.462,-0.465l-0.469,-0.477l-0.459,-0.468l-0.466,-0.48l-0.472,-0.49l-0.454,-0.474l-0.443,-0.466l-0.483,-0.512l-0.448,-0.479l-0.447,-0.48l-0.461,-0.5l-0.459,-0.501l-0.442,-0.486l-0.447,-0.494l-0.462,-0.516l-0.436,-0.49l-0.442,-0.499l-0.449,-0.511l-0.438,-0.502l-0.445,-0.514l-0.451,-0.525l-0.433,-0.507l-0.44,-0.519l-0.424,-0.504l-0.428,-0.511l-0.448,-0.54l-0.433,-0.525l-0.431,-0.526l-0.422,-0.518l-0.428,-0.53l-0.439,-0.547l-0.417,-0.523l-0.411,-0.519l-0.434,-0.55l-0.432,-0.554l-0.411,-0.529l-0.41,-0.531l-0.415,-0.542l-0.426,-0.559l-0.424,-0.561l-0.411,-0.547l-0.402,-0.539l-0.411,-0.555l-0.418,-0.567l-0.405,-0.554l-0.397,-0.545l-0.423,-0.586l-0.411,-0.573l-0.383,-0.537l-0.401,-0.565l-0.41,-0.582l-0.412,-0.59l-0.387,-0.557l-0.387,-0.558l-0.41,-0.598l-0.4,-0.586l-0.391,-0.577l-0.39,-0.58l-0.387,-0.577l-0.396,-0.595l-0.393,-0.594l-0.391,-0.596l-0.384,-0.587l-0.382,-0.589l-0.39,-0.604l-0.38,-0.592l-0.385,-0.604l-0.384,-0.605l-0.376,-0.598l-0.383,-0.611l-0.388,-0.624l-0.364,-0.59l-0.38,-0.616l-0.384,-0.629l-0.369,-0.607l-0.375,-0.622l-0.373,-0.621l-0.366,-0.613l-0.372,-0.627l-0.377,-0.638l-0.363,-0.619l-0.368,-0.632l-0.368,-0.634l-0.366,-0.635l-0.371,-0.647l-0.358,-0.628l-0.363,-0.641l-0.362,-0.642l-0.361,-0.645l-0.365,-0.656l-0.359,-0.648l-0.358,-0.65l-0.351,-0.641l-0.362,-0.664l-0.36,-0.666l-0.348,-0.647l-0.359,-0.669l-0.358,-0.672l-0.351,-0.663l-0.345,-0.655l-0.355,-0.677l-0.353,-0.68l-0.343,-0.661l-0.351,-0.682l-0.351,-0.685l-0.345,-0.677l-0.345,-0.679l-0.348,-0.69l-0.347,-0.693l-0.342,-0.685l-0.341,-0.687l-0.344,-0.699l-0.344,-0.7l-0.339,-0.693l-0.342,-0.705l-0.341,-0.707l-0.336,-0.699l-0.34,-0.711l-0.34,-0.714l-0.333,-0.705l-0.338,-0.717l-0.337,-0.719l-0.336,-0.722l-0.335,-0.723l-0.326,-0.708l-0.334,-0.727l-0.341,-0.748l-0.328,-0.723l-0.332,-0.735l-0.331,-0.736l-0.326,-0.73l-0.334,-0.75l-0.329,-0.743l-0.324,-0.737l-0.331,-0.755l-0.327,-0.751l-0.323,-0.742l-0.329,-0.763l-0.325,-0.757l-0.325,-0.759l-0.324,-0.762l-0.32,-0.755l-0.321,-0.762l-0.321,-0.764l-0.318,-0.762l-0.321,-0.773l-0.319,-0.771l-0.319,-0.774l-0.316,-0.77l-0.317,-0.775l-0.317,-0.78l-0.315,-0.777l-0.314,-0.782l-0.315,-0.783l-0.315,-0.789l-0.31,-0.779l-0.314,-0.79l-0.315,-0.8l-0.309,-0.786l-0.311,-0.793l-0.311,-0.799l-0.311,-0.802l-0.307,-0.794l-0.308,-0.798l-0.312,-0.813l-0.308,-0.806l-0.306,-0.804l-0.305,-0.806l-0.308,-0.813l-0.307,-0.816l-0.303,-0.809l-0.307,-0.82l-0.305,-0.822l-0.306,-0.824l-0.301,-0.815l-0.301,-0.817l-0.309,-0.842l-0.3,-0.821l-0.3,-0.824l-0.306,-0.842l-0.299,-0.827l-0.299,-0.83l-0.302,-0.84l-0.302,-0.846l-0.3,-0.841l-0.297,-0.836l-0.298,-0.84l-0.3,-0.848l-0.3,-0.852l-0.3,-0.855l-0.295,-0.843l-0.295,-0.848l-0.301,-0.866l-0.295,-0.852l-0.295,-0.854l-0.298,-0.864l-0.296,-0.863l-0.293,-0.857l-0.296,-0.865l-0.298,-0.878l-0.293,-0.863l-0.292,-0.865l-0.294,-0.873l-0.296,-0.88l-0.292,-0.871l-0.292,-0.873l-0.299,-0.898l-0.58,-1.748l-0.584,-1.769l-0.582,-1.774l-0.582,-1.782l-0.58,-1.788l-0.579,-1.793l-0.579,-1.802l-0.578,-1.808l-0.577,-1.816l-0.576,-1.82l-0.574,-1.821l-0.574,-1.832l-0.574,-1.839l-0.572,-1.844l-0.572,-1.85l-0.571,-1.855l-0.569,-1.857l-0.57,-1.868l-0.569,-1.872l-0.568,-1.88l-0.567,-1.884l-0.566,-1.884l-0.566,-1.896l-0.566,-1.9l-0.563,-1.9l-0.564,-1.907l-0.564,-1.919l-0.562,-1.916l-0.562,-1.923l-0.562,-1.93l-0.56,-1.931l-0.561,-1.939l-0.56,-1.944l-0.559,-1.946l-0.558,-1.949l-0.559,-1.958l-0.557,-1.959l-0.556,-1.961l-0.558,-1.971l-0.556,-1.971l-0.555,-1.974l-0.555,-1.979l-0.554,-1.982l-0.555,-1.99l-0.554,-1.991l-0.553,-1.993l-0.553,-1.997l-0.552,-2l-0.552,-2.004l-0.552,-2.008l-0.552,-2.013l-0.551,-2.014l-0.549,-2.013l-0.55,-2.018l-0.55,-2.024l-0.55,-2.025l-0.549,-2.027l-0.548,-2.03l-0.549,-2.033l-0.547,-2.032l-0.548,-2.038l-0.547,-2.04l-0.548,-2.042l-0.546,-2.044l-0.546,-2.042l-0.547,-2.052l-1.09,-4.094l-1.09,-4.107l-1.089,-4.111l-1.087,-4.114l-1.087,-4.121l-1.086,-4.125l-1.084,-4.125l-1.084,-4.13l-1.083,-4.13l-1.082,-4.133l-2.16,-8.257l-2.158,-8.255l120.936,-31.612l2.155,8.243l2.153,8.229Z" style="fill:#000;"/><path d="M734.598,421.927l-4,224l58,41l-153,166l-103,-127l91,-76l14,-215l97,-13Z" style="fill:#fccea7;"/><g id="_744781632_"><path d="M742.598,684.927c-23,28 -48,33 -74,33c-25,0 -48,-7 -69,-30c16,93 -60,605 -42,766c0,5 3,9 7,14c23,2 47,4 71,5c21,1 50,2 64,2c14,0 13,-1 20,-1c29,0 57,-1 85,-3c5,-8 7,-16 8,-25c15,-200 -84,-680 -70,-761Z" style="fill:#000;"/><path d="M453.598,707.927c43,124 0,170 9,273c-3,24 21,101 22,125c3,187 -29,241 -65,341c46,10 94,17 144,22c23,3 47,4 71,5c1,-31 2,-101 9,-173c6,-75 18,-157 20,-250c1,-93 -8,-198 -10,-255c-1,-18 -2,-31 -1,-41c-21,-23 -52,-74 -62,-110c-69,32 -56,17 -137,63ZM938.598,1454.93l0,-1c-20,-90 -52,-125 -63,-347c-1,-23 22,-74 23,-131c0,-35 -14,-86 -16,-120c-4,-66 4,-112 8,-153c-37,-22 -81,-33 -142,-57c-4,33 -35,82 -58,106c1,8 1,17 2,28c1,43 -1,120 1,232c2,112 9,260 15,350c4,55 8,91 10,114c29,-1 58,-2 86,-4c46,-4 90,-9 134,-17ZM718.598,1476.93l0,1l0,-1ZM719.598,1482.93l0,1l0,-1ZM719.598,1483.93l0,1l0,-1ZM720.598,1492.93l1,1l-1,-1ZM721.598,1494.93l0,1l0,-1ZM722.598,1501.93l0,1l0,-1ZM722.598,1510.93l0,1l0,-1ZM723.598,1512.93l0,1l0,-1ZM723.598,1517.93l0,1l0,-1ZM723.598,1526.93l0,1l0,-1Z" style="fill:#000;"/></g><path d="M675.598,16.927c327,4 301,571 -3,573c-306,-1 -329,-576 3,-573Z" style="fill:#fccea7;"/><path d="M814.598,330.927c1,2 0,5 -3,7c-2,1 -5,0 -6,-3c-4,-7 -9,-13 -15,-17c-8,-7 -18,-10 -29,-11c-10,-1 -21,1 -30,6c-6,3 -11,7 -15,12c-2,2 -5,3 -7,1c-2,-2 -3,-5 -1,-7c5,-6 12,-12 19,-15c10,-6 23,-8 35,-7c12,1 24,5 34,13c7,5 13,12 18,21Z" style="fill:#151514;fill-rule:nonzero;"/><path d="M806.598,336.927c-2,-2 -2,-5 -1,-7c2,-2 5,-2 7,-1c1,1 2,1 3,1c1,1 4,1 6,0c2,0 3,-1 4,-2c1,-3 3,-4 6,-4c3,1 4,4 4,6c-1,2 -1,3 -2,4l-1,0c-2,3 -5,5 -8,6l-1,0c-3,1 -7,1 -11,0c-2,0 -4,-2 -6,-3ZM825.598,327.927l0,0ZM825.598,327.927l0,0Z" style="fill:#151514;fill-rule:nonzero;"/><path d="M795.598,321.927c-2,-2 -2,-5 0,-7c1,-2 5,-2 7,-1c0,1 1,1 2,2c2,0 4,0 6,-1c2,0 3,-1 4,-2c1,-3 4,-4 6,-4c3,1 4,4 4,6c-1,2 -1,3 -2,4c-2,3 -6,5 -9,6c-4,1 -8,1 -12,0c-2,0 -4,-1 -6,-3ZM814.598,312.927l0,0Z" style="fill:#151514;fill-rule:nonzero;"/><path d="M659.598,352.927c0,35 -6,62 -9,74c1,4 2,14 22,15c2,1 4,2 4,5c-10,-1 -38,-2 -37,-18c1,-13 15,-73 20,-76Z" style="fill:#151514;fill-rule:nonzero;"/><path d="M527.598,331.927c-1,2 -4,3 -6,2c-3,-2 -4,-5 -2,-7c4,-9 10,-15 17,-20c11,-8 23,-12 35,-13c12,0 25,3 35,8c7,4 14,9 18,16c2,2 1,5 -1,7c-2,1 -5,1 -7,-1c-4,-6 -9,-10 -15,-13c-8,-5 -19,-7 -29,-7c-11,1 -21,4 -30,11c-6,4 -11,10 -15,17Z" style="fill:#151514;fill-rule:nonzero;"/><path d="M520.598,325.927c2,-2 5,-2 7,0c2,2 1,6 -1,7c-2,2 -4,3 -6,3c-4,1 -8,1 -12,-1c-3,-1 -6,-3 -8,-5c-1,-1 -2,-3 -2,-4c-1,-3 1,-6 3,-6c3,-1 6,1 6,4c1,1 3,1 5,2c2,1 4,1 6,1c0,-1 1,-1 2,-1ZM507.598,323.927l0,0Z" style="fill:#151514;fill-rule:nonzero;"/><path d="M531.598,310.927c2,-2 5,-2 7,1c2,2 1,5 -1,7c-2,1 -4,2 -6,3c-4,0 -8,0 -11,-1c-4,-1 -7,-3 -9,-6c-1,-1 -2,-2 -2,-4c-1,-3 1,-5 4,-6c2,0 5,1 6,4c0,1 2,2 4,2c2,1 4,1 6,1c1,0 1,-1 2,-1ZM519.598,308.927l0,0Z" style="fill:#151514;fill-rule:nonzero;"/><path d="M584.252,317.393c-6.681,0.014 -12.093,5.45 -12.078,12.13c0.014,6.681 5.45,12.092 12.13,12.078c6.681,-0.015 12.093,-5.45 12.078,-12.131c-0.014,-6.68 -5.45,-12.092 -12.13,-12.077Z" style="fill:#1a1a1a;"/><path d="M753.002,318.053c-6.681,0.014 -12.093,5.45 -12.078,12.13c0.014,6.681 5.45,12.092 12.13,12.078c6.681,-0.015 12.093,-5.45 12.078,-12.131c-0.014,-6.68 -5.45,-12.092 -12.13,-12.077Z" style="fill:#1a1a1a;"/><path d="M722.598,484.927c-28,36 -79,28 -93,-3" style="fill:none;stroke-width:10.41px;stroke:#b8a48a;"/><path d="M514.598,264.927c5,-4 14,-10 21,-14c7,-3 11,-4 23,-4c13,1 33,4 46,8c13,4 19,10 21,13c2,3 0,4 -6,2c-5,-1 -15,-4 -28,-7c-13,-3 -29,-5 -40,-5c-11,1 -16,3 -23,6c-6,3 -13,7 -17,7c-3,1 -2,-2 3,-6Z" style="fill:#45302c;"/><path d="M713.598,866.927c13,17 14,15 18,14c3,-1 6,-2 10,-2c-7,-3 -14,-4 -21,-7c-2,-2 -5,-4 -8,-6l1,1Z" style="fill:#000;fill-opacity:0.14902;"/><path d="M565.598,58.927c-16,24 -51,61 -71,113c-21,53 -29,119 -27,176c2,56 15,102 43,140c28,38 73,68 114,98c41,30 78,59 92,80c14,21 3,33 -40,44c-43,11 -119,21 -158,18c-39,-2 -40,-17 -38,-35c3,-18 9,-40 11,-65c2,-24 -2,-52 -14,-85c-11,-34 -31,-73 -45,-112c-13,-40 -20,-80 -17,-131c3,-52 16,-115 32,-157c17,-42 37,-62 59,-80c23,-18 48,-34 62,-37c13,-3 14,9 -3,33Z" style="fill:#b3b3b3;"/><path d="M583.598,45.927c35,0 85,7 132,29c47,22 93,60 124,111c31,51 48,114 48,167c0,54 -18,97 -51,134c-33,37 -81,69 -136,99c-56,30 -118,59 -160,79c-42,20 -64,31 -75,37c-12,6 -12,6 15,39c28,33 82,100 116,144c35,43 50,64 63,75c13,11 23,12 54,-25c31,-37 82,-112 122,-154c40,-43 69,-53 73,-63c3,-9 -19,-18 -35,-35c-17,-18 -29,-44 -32,-68c-2,-25 5,-48 23,-89c18,-40 48,-97 58,-157c10,-60 0,-123 -15,-176c-16,-53 -38,-96 -70,-128c-32,-32 -75,-53 -122,-61c-47,-8 -99,-3 -135,8c-36,11 -56,28 -55,33c0,6 22,0 58,1Z" style="fill:#ccc;"/><path d="M494.598,171.927c29,-19 58,-38 98,-49c40,-12 91,-15 124,-14c34,1 52,7 69,12c-22,-19 -45,-35 -70,-46c-47,-22 -97,-29 -132,-29c-4,0 -7,0 -10,0c-2,4 -5,8 -8,13c-16,24 -51,61 -71,113Z" style="fill:#808080;"/><path d="M821.598,264.927c-5,-4 -14,-10 -21,-14c-6,-3 -11,-4 -23,-4c-13,1 -33,4 -46,8c-13,4 -19,10 -21,13c-2,3 0,4 6,2c6,-1 15,-4 28,-7c13,-3 29,-5 40,-5c11,1 17,3 23,6c7,3 14,7 17,7c3,1 2,-2 -3,-6Z" style="fill:#45302c;"/><path d="M446.598,285.927c49,-6 82,-7 126,-6c72,2 67,26 100,24c33,2 28,-22 101,-24c44,-1 76,0 125,6l1,35c-15,14 -16,30 -25,57c-11,29 -83,30 -123,25c-26,-3 -39,-14 -47,-31c-9,-20 -15,-44 -32,-46c-17,2 -23,26 -32,46c-8,17 -21,28 -46,31c-40,5 -112,4 -123,-25c-10,-27 -10,-43 -26,-57l1,-35ZM835.598,289.927c-56,-7 -122,4 -128,18c-8,16 -8,58 24,80c13,9 32,10 59,11c61,-5 76,-13 81,-48c2,-9 2,-18 2,-26c-1,-16 -13,-32 -38,-35ZM509.598,289.927c57,-7 122,4 129,18c8,16 8,58 -25,80c-13,9 -31,10 -58,11c-62,-5 -76,-13 -82,-48c-1,-9 -2,-18 -1,-26c1,-16 13,-32 37,-35Z" style="fill:#000;"/></svg>