<?xml version="1.0" standalone="no"?><!DOCTYPE svg PUBLIC "-//W3C//DTD SVG 1.1//EN" "http://www.w3.org/Graphics/SVG/1.1/DTD/svg11.dtd"><svg width="100%" height="100%" viewBox="0 0 1228 1684" version="1.1" xmlns="http://www.w3.org/2000/svg" xmlns:xlink="http://www.w3.org/1999/xlink" xml:space="preserve" style="fill-rule:evenodd;clip-rule:evenodd;stroke-linecap:round;stroke-linejoin:round;stroke-miterlimit:1.41421;"><path d="M529,878c-2,1 -1,-1 -2,0c-5,5 -11,16 -19,40c-8,23 -17,58 -27,95c-15,60 -32,125 -52,170c-21,46 -47,72 -75,85c-35,17 -67,14 -97,5c-25,-8 -48,-21 -69,-42c-19,-19 -36,-44 -52,-78c-27,-58 -53,-148 -79,-238l0,-2l57,-13l60,-16l0,2c25,85 49,171 74,224c10,22 20,36 30,46c6,7 13,10 19,12c2,1 -2,3 0,2l1,0c4,-2 10,-10 19,-30c16,-35 31,-96 46,-152c10,-38 19,-74 29,-103c14,-42 30,-67 46,-82c22,-22 40,-27 59,-31l32,106Z" style="fill:#fccf97;fill-rule:nonzero;"/><path d="M941,773c23,16 46,32 71,58c25,24 49,56 74,100c24,44 48,101 69,163c19,58 35,123 47,188c23,133 25,267 26,401l-71,0l-50,1l0,-1c-1,-129 -3,-258 -25,-383c-10,-60 -26,-119 -44,-174c-19,-58 -40,-108 -61,-145c-18,-35 -36,-58 -54,-76c-17,-17 -37,-31 -57,-45l75,-87Z" style="fill:#fccea7;fill-rule:nonzero;"/><path d="M755,503l-4,216l91,33l-186,167l-102,-164l90,-32l14,-208l97,-12Z" style="fill:#fccf97;"/><ellipse cx="903" cy="432" rx="70" ry="67" style="fill:#fccf97;"/><ellipse cx="495" cy="432" rx="70" ry="67" style="fill:#fccf97;"/><path d="M489,295c-3,34 -6,87 -3,141c3,53 12,107 33,148c20,42 54,72 85,90c31,18 60,26 96,23c36,-2 79,-14 112,-36c33,-22 56,-53 73,-87c16,-35 25,-73 29,-128c3,-55 0,-127 -9,-179c-9,-53 -25,-85 -46,-107c-22,-23 -48,-35 -78,-44c-30,-9 -64,-14 -105,-9c-41,4 -90,19 -121,41c-32,22 -46,52 -54,75c-8,22 -10,38 -12,72Z" style="fill:#fccf97;"/><path d="M485,413c-6,19 -30,-57 -29,-93c1,-20 -2,-44 -2,-62c1,-19 4,-33 14,-47c9,-14 23,-29 34,-41c11,-13 20,-24 32,-35c73,-66 155,-87 185,-135c23,0 111,103 142,126c13,10 27,24 38,36c11,13 20,26 25,38c5,13 7,25 11,42c4,17 10,39 12,57c0,5 4,11 2,17c-19,61 -10,34 -19,61c-3,9 -10,24 -16,46c-8,27 -1,-25 -1,-37c2,-57 -26,-65 -27,-185c0,-8 -19,-25 -48,-27c-2,-1 14,-6 7,-12c-7,-6 -22,-16 -36,-22c-2,-1 -4,-2 -5,-4c-8,-6 -8,-13 -20,-11c-19,3 -16,1 -34,-2c-15,-3 -25,-4 -34,-5c-10,-1 -19,-3 -28,-2c-9,0 -18,3 -28,5c-9,2 -20,3 -28,4c-7,1 -11,2 -16,5c-6,2 -13,5 -20,7c-8,2 -17,4 -23,8c-6,4 -9,11 -14,16c-4,5 -11,9 -18,14c-6,5 -13,10 -17,19c-5,8 -8,20 -11,29c-2,9 -3,15 -7,24c-4,9 -10,20 -14,35c-4,16 -5,36 -6,63c0,27 1,60 -1,68Z" style="fill:#211d1e;"/><path d="M631,345c-5,-4 -15,-8 -26,-10c-11,-2 -22,-3 -31,-3c-8,0 -15,1 -21,2c-7,2 -14,4 -20,7c-6,3 -12,7 -10,8c2,1 12,0 24,-2c12,-2 27,-4 40,-3c13,1 24,5 32,7c7,2 11,3 13,1c2,-1 4,-4 -1,-7Z" style="fill:#000;"/><path d="M610,415c-7,0 -12,-8 -12,-18c0,-9 6,-17 13,-17c7,0 12,8 12,18c0,10 -6,17 -13,17Z" style="fill:#000;"/><path d="M782,415c-7,0 -12,-8 -12,-18c0,-9 6,-17 13,-17c7,0 12,8 12,18c0,10 -6,17 -13,17Z" style="fill:#000;"/><path d="M680,474c1,9 6,26 30,31c2,0 3,5 3,10c-11,-3 -42,-4 -41,-43c1,-14 4,-26 8,-45c11,-44 12,-46 0,47Z" style="fill:#151514;fill-rule:nonzero;"/><path d="M1027,1542c-27,-248 -44,-497 -60,-747c-1,-10 -1,-6 -1,-12c-45,-22 -129,-47 -166,-54c-18,80 -162,69 -181,-3c-43,16 -85,24 -142,48c-21,255 -33,505 -54,762c82,20 170,33 261,37c18,0 37,1 56,1c100,0 197,-11 287,-32ZM486,768c-2,2 -5,3 0,0Z" style="fill:#000;"/><path d="M454,1124c8,-116 16,-233 26,-351c-13,4 -26,11 -41,26c-16,16 -32,41 -47,85c-10,30 -20,67 -30,106c-9,37 -20,77 -30,110c19,16 39,32 60,44c15,10 31,17 48,24c5,-14 10,-28 14,-44Z" style="fill:#000;"/><path d="M968,867c2,39 5,78 7,117c21,39 43,90 62,149c2,6 4,11 6,17c20,-7 40,-14 59,-21c20,-8 39,-16 57,-26c0,-1 1,-1 1,-1c0,-1 0,-2 0,-2c-34,-115 -91,-263 -198,-318c2,28 4,56 6,85Z" style="fill:#000;"/><path d="M283,769c-1,-3 -7,-5 -17,-5c-10,1 -24,4 -37,12c-13,8 -25,20 -33,27c-7,7 -10,8 -12,8c-2,1 -4,0 -6,-6c-3,-6 -6,-17 -10,-32c-3,-15 -7,-34 -8,-55c-2,-21 -1,-43 -2,-58c-2,-16 -6,-24 -9,-29c-3,-5 -5,-6 -7,-7c-1,-1 -3,-1 -5,0c-1,1 -3,4 -3,13c-1,10 -2,28 -4,51c-2,23 -5,52 -6,65c-1,12 1,9 -2,1c-2,-8 -8,-22 -12,-41c-4,-19 -6,-43 -9,-61c-3,-17 -6,-27 -10,-33c-4,-6 -9,-8 -12,-9c-4,-1 -5,0 -6,0c-1,1 -1,2 -1,17c1,15 2,44 2,60c1,16 1,19 3,30c1,11 4,30 5,39c1,9 1,9 -1,0c-3,-9 -8,-26 -12,-46c-5,-19 -8,-41 -12,-55c-5,-13 -9,-19 -13,-21c-4,-3 -8,-2 -10,-2c-1,1 -1,0 -1,10c0,10 1,30 2,44c1,14 2,22 3,27c1,6 3,8 5,18c2,9 5,24 6,32c2,8 1,8 -3,-1c-4,-8 -11,-25 -17,-39c-6,-13 -10,-23 -13,-29c-3,-6 -6,-9 -9,-10c-3,-1 -7,-1 -7,2c0,3 2,8 4,17c2,9 4,21 8,33c4,13 10,26 14,36c4,10 7,18 10,33c3,14 6,35 12,64c6,30 15,67 20,88c5,20 6,24 13,25c8,2 23,0 38,-2c16,-2 33,-4 41,-8c8,-3 7,-8 7,-18c0,-10 1,-26 4,-41c3,-15 7,-29 15,-39c8,-10 19,-15 27,-26c9,-10 16,-25 24,-37c8,-11 16,-20 23,-25c6,-5 11,-7 15,-9c5,-3 9,-6 8,-8Z" style="fill:#fccf97;"/><path d="M501,223c-14,-28 75,-65 124,-47c44,16 172,-2 225,-2c51,0 18,29 44,29c4,-41 2,-48 -50,-67c-76,-27 -216,-68 -288,-13c-10,7 -53,77 -53,90c0,8 -3,6 -2,10Z" style="fill:#211d1e;"/><path d="M474,363c49,-6 82,-7 125,-6c73,2 68,26 101,24c33,2 28,-22 101,-24c43,-1 76,0 125,6l1,35c-16,14 -16,30 -26,57c-10,30 -82,30 -123,25c-25,-3 -38,-14 -46,-31c-9,-20 -15,-44 -32,-46c-17,2 -23,26 -32,46c-8,17 -21,28 -46,31c-40,5 -112,5 -123,-25c-10,-27 -10,-43 -26,-57l1,-35ZM863,367c-56,-6 -122,4 -129,18c-8,16 -7,58 25,80c13,10 32,11 58,11c62,-4 77,-13 82,-48c2,-8 2,-18 1,-26c-1,-16 -12,-32 -37,-35ZM537,367c56,-6 122,4 129,18c8,16 7,58 -25,80c-13,10 -31,11 -58,11c-62,-4 -76,-13 -82,-48c-2,-8 -2,-18 -1,-26c1,-16 12,-32 37,-35Z" style="fill:#000;"/><path d="M758,345c5,-4 16,-8 27,-10c10,-2 21,-3 30,-3c9,0 15,1 22,2c6,2 13,4 19,7c6,3 12,7 10,8c-2,1 -12,0 -24,-2c-12,-2 -26,-4 -39,-3c-13,1 -25,5 -32,7c-8,2 -11,3 -13,1c-3,-1 -4,-4 0,-7Z" style="fill:#000;"/><path d="M760,577c-34,43 -95,33 -111,-4" style="fill:none;stroke-width:10.41px;stroke:#b8a48a;"/></svg>