<?xml version="1.0" standalone="no"?><!DOCTYPE svg PUBLIC "-//W3C//DTD SVG 1.1//EN" "http://www.w3.org/Graphics/SVG/1.1/DTD/svg11.dtd"><svg width="100%" height="100%" viewBox="0 0 1959 1959" version="1.1" xmlns="http://www.w3.org/2000/svg" xmlns:xlink="http://www.w3.org/1999/xlink" xml:space="preserve" style="fill-rule:evenodd;clip-rule:evenodd;stroke-linecap:round;stroke-linejoin:round;stroke-miterlimit:1.41421;"><g id="_801177392_"><path d="M477.094,628.48c-240.841,9.175 -240.841,16.056 -245.428,142.21c-4.588,126.155 -13.762,371.583 -6.881,500.032c6.881,126.154 27.524,139.917 272.953,146.798c245.428,6.881 715.641,11.469 961.069,9.175c245.428,-2.294 266.072,-6.881 275.246,-137.623c6.882,-130.743 0,-385.346 -11.468,-518.382c-9.175,-135.329 -25.231,-149.091 -272.953,-151.385c-250.016,-4.588 -731.697,2.294 -972.538,9.175Z" style="fill:none;stroke-width:31.85px;stroke:#205d76;"/><path d="M642.242,532.143c52.756,0 98.63,20.644 135.33,55.05c34.405,34.406 55.049,82.574 55.049,135.329c0,4.588 0,9.175 0,16.056c-2.294,34.406 -2.294,71.106 -2.294,105.512c0,48.168 2.294,91.748 11.469,119.273c4.587,16.056 11.468,25.231 20.643,32.112c9.175,4.588 20.644,6.881 32.112,4.588c9.175,-2.294 16.056,-4.588 20.644,-6.882c6.881,-4.587 9.175,-9.174 11.469,-13.762c2.293,-4.587 4.587,-11.469 4.587,-16.056c0,-6.881 -2.294,-11.469 -4.587,-16.056c-6.882,-13.762 -20.644,-25.231 -34.406,-34.406c-11.469,-9.175 -13.763,-25.231 -6.881,-36.699c2.293,-2.294 2.293,-2.294 4.587,-4.588c9.175,-11.468 27.525,-13.762 38.993,-4.587c18.35,16.056 36.7,29.818 48.168,52.755c6.882,13.763 11.469,27.525 11.469,41.287c0,16.056 -2.294,29.819 -9.175,41.287c-6.881,16.056 -18.35,27.525 -32.112,36.7c-11.469,9.175 -27.525,16.056 -45.874,18.35c-16.056,2.293 -36.7,2.293 -57.343,-6.882c-4.588,-2.293 -9.175,-4.587 -13.763,-6.881c-18.35,-13.762 -34.406,-32.112 -43.581,-61.93c-2.293,-9.175 -4.587,-20.644 -6.881,-32.112c-4.587,-25.231 -6.881,-55.05 -6.881,-87.162c-6.881,4.588 -13.762,11.469 -20.643,16.056c0,18.35 0,36.7 0,55.05c0,22.937 2.293,45.874 2.293,68.811c2.294,41.287 6.882,77.987 13.763,103.218c6.881,25.231 13.762,38.993 22.937,48.168c6.881,9.175 16.056,13.762 22.937,16.056c6.881,4.587 13.762,4.587 20.644,4.587c4.587,0 9.175,0 13.762,-2.293c4.587,0 9.175,-4.588 13.762,-6.881c2.294,-2.294 4.588,-6.882 6.881,-9.175c0,-2.294 0,-4.588 2.294,-6.881c0,-2.294 -2.294,-6.882 -2.294,-9.175c0,-2.294 -2.293,-2.294 -2.293,-4.588c-2.294,-4.587 -6.881,-6.881 -9.175,-9.175c-9.175,-13.762 -9.175,-29.818 4.587,-41.287l0,-2.293c13.763,-6.882 29.819,-6.882 38.994,4.587c4.587,4.587 9.174,9.175 11.468,13.762c4.588,6.882 9.175,13.763 11.469,20.644c2.294,9.175 4.587,20.643 4.587,29.818c-2.293,9.175 -4.587,20.644 -9.175,29.819c-4.587,9.174 -11.468,18.349 -20.643,27.524c-6.881,6.881 -18.35,13.763 -27.525,18.35c-11.468,4.587 -25.231,6.881 -36.699,4.587c-13.763,0 -27.525,-2.293 -41.287,-6.881c-16.056,-6.881 -32.112,-16.056 -45.875,-32.112c-13.762,-16.056 -27.524,-38.993 -34.406,-73.399c-9.174,-29.818 -11.468,-68.812 -16.056,-114.686c0,-29.818 -2.293,-64.224 -2.293,-98.63c-9.175,2.294 -16.056,4.587 -25.231,6.881l0,328.002c0,18.35 0,34.406 4.587,45.875c2.294,4.587 2.294,6.881 4.588,9.175c2.293,2.293 6.881,4.587 9.174,6.881c4.588,0 6.882,0 11.469,0c4.588,0 6.881,0 11.469,-2.294c2.293,0 2.293,-2.294 4.587,-4.587c2.294,-2.294 2.294,-4.588 2.294,-6.881c2.294,-2.294 2.294,-4.588 2.294,-6.882c0,-4.587 -2.294,-6.881 -2.294,-11.468c-2.294,-4.588 -6.881,-6.881 -11.469,-11.469c-11.468,-11.468 -11.468,-29.818 0,-41.287c11.469,-11.468 29.819,-11.468 41.287,0c6.881,6.881 16.056,16.056 22.937,32.112c2.294,6.881 4.588,16.056 6.882,27.525c0,6.881 0,18.35 -2.294,27.525c-2.294,9.174 -6.881,18.349 -13.762,27.524c-6.882,9.175 -16.056,16.056 -25.231,20.644c-11.469,4.587 -22.938,6.881 -34.406,6.881c-11.469,2.294 -22.937,0 -32.112,-4.588c-11.469,-2.293 -22.938,-9.174 -32.112,-18.349c-6.882,-9.175 -13.763,-18.35 -18.35,-32.112c-4.588,-16.056 -6.881,-34.406 -6.881,-52.756l0,-2.294l0,-9.175l0,-2.293l0,-325.709c-6.882,-2.294 -16.056,-4.587 -22.938,-6.881c0,64.224 0,123.861 -2.293,174.323c0,34.406 -4.588,61.93 -9.175,87.161c-4.588,25.231 -13.762,48.168 -25.231,64.224c-13.762,18.35 -29.818,27.525 -48.168,34.406c-18.35,6.881 -41.287,6.881 -57.343,4.588c-16.056,-2.294 -29.819,-9.175 -41.287,-16.056c-11.469,-9.175 -20.644,-20.644 -29.819,-32.112c-4.587,-9.175 -9.175,-20.644 -11.468,-29.819c-4.588,-11.468 -4.588,-22.937 -4.588,-34.406c0,-9.174 2.294,-18.349 4.588,-25.231c2.293,-9.174 6.881,-18.349 11.468,-25.23l25.231,-25.231c11.469,-9.175 25.231,-9.175 34.406,-2.294c2.294,2.294 4.588,2.294 6.881,4.587c9.175,13.763 9.175,32.112 -4.587,41.287c-2.294,2.294 -4.588,4.588 -9.175,6.881c-2.294,2.294 -2.294,6.882 -4.588,9.175c-2.293,2.294 -4.587,4.588 -4.587,9.175c-2.294,2.294 -2.294,6.881 -2.294,9.175c0,4.588 0,9.175 2.294,16.056c0,4.588 2.294,9.175 6.881,16.056c2.294,4.588 6.881,9.175 13.763,13.763c4.587,4.587 9.174,6.881 16.056,6.881c9.174,2.293 20.643,2.293 29.818,-2.294c6.881,-2.294 16.056,-6.881 20.643,-13.762c6.882,-9.175 11.469,-22.938 16.057,-41.287c4.587,-22.938 6.881,-48.168 6.881,-77.987c2.293,-41.287 2.293,-87.161 2.293,-137.623c0,-20.644 0,-41.287 0,-61.931c-6.881,-4.587 -16.056,-9.175 -22.937,-16.056l0,2.294c0,41.287 -2.294,77.987 -9.175,105.511c-2.293,4.588 -2.293,9.175 -4.587,11.469c-9.175,25.231 -20.644,43.581 -36.7,55.049c-2.293,2.294 -4.587,4.588 -6.881,6.881c-22.937,16.056 -48.168,16.056 -71.105,13.763c-18.35,-2.294 -34.406,-9.175 -45.875,-18.35c-13.762,-9.175 -25.231,-20.644 -32.112,-36.7c-4.587,-11.468 -6.881,-22.937 -9.175,-36.699c0,-13.763 2.294,-27.525 6.882,-38.993c6.881,-20.644 18.349,-29.819 32.112,-38.994c11.468,-11.468 29.818,-9.175 38.993,4.588l2.294,2.293c6.881,11.469 4.587,29.819 -6.882,36.7c-4.587,4.587 -11.468,9.175 -13.762,16.056c0,4.587 -2.294,9.175 -2.294,16.056c2.294,6.881 2.294,11.469 4.588,16.056c2.294,4.588 6.881,9.175 11.468,13.762c6.882,2.294 13.763,4.588 22.938,6.882c9.175,2.293 20.643,0 32.112,-4.588c6.881,-6.881 13.762,-16.056 18.35,-32.112c9.174,-22.937 11.468,-57.343 11.468,-98.63c0,-6.881 2.294,-11.469 2.294,-18.35c0,-32.112 -2.294,-66.518 -2.294,-100.923c-2.294,-6.882 -2.294,-16.057 -2.294,-22.938c0,-52.755 20.644,-100.923 57.343,-135.329c34.406,-34.406 82.574,-55.05 135.33,-55.05ZM568.843,662.886c13.762,0 25.231,11.468 25.231,22.937c0,4.587 -2.294,9.175 -4.588,11.468c-2.293,-6.881 -11.468,-11.468 -20.643,-11.468c-9.175,0 -16.056,4.587 -20.644,11.468c-2.293,-2.293 -2.293,-6.881 -2.293,-11.468c0,-11.469 11.468,-22.937 22.937,-22.937ZM713.347,662.886c11.469,0 22.938,11.468 22.938,22.937c0,4.587 0,9.175 -2.294,11.468c-4.588,-6.881 -11.469,-11.468 -20.644,-11.468c-9.174,0 -16.056,4.587 -20.643,11.468c-2.294,-2.293 -2.294,-6.881 -2.294,-11.468c0,-11.469 9.175,-22.937 22.937,-22.937Z" style="fill:#ffa09e;"/><path d="M1082.64,821.152c87.161,-2.293 174.322,-4.587 250.015,-4.587c77.987,0 144.505,4.587 211.023,9.175" style="fill:none;stroke-width:15.93px;stroke:#62d4d4;"/><path d="M1082.64,933.545c87.161,-2.294 174.322,-4.588 250.015,-2.294c77.987,0 144.505,2.294 211.023,6.881" style="fill:none;stroke-width:15.93px;stroke:#62d4d4;"/><path d="M1082.64,1036.76c87.161,-2.294 174.322,-4.587 250.015,-4.587c77.987,0 144.505,4.587 211.023,9.175" style="fill:none;stroke-width:15.93px;stroke:#62d4d4;"/><path d="M1082.64,1146.86c59.636,-2.294 116.979,-4.588 169.735,-4.588c50.462,0 96.336,4.588 142.211,9.175" style="fill:none;stroke-width:15.93px;stroke:#62d4d4;"/></g></svg>