<?xml version="1.0" standalone="no"?><!DOCTYPE svg PUBLIC "-//W3C//DTD SVG 1.1//EN" "http://www.w3.org/Graphics/SVG/1.1/DTD/svg11.dtd"><svg width="100%" height="100%" viewBox="0 0 1957 1957" version="1.1" xmlns="http://www.w3.org/2000/svg" xmlns:xlink="http://www.w3.org/1999/xlink" xml:space="preserve" style="fill-rule:evenodd;clip-rule:evenodd;stroke-linecap:round;stroke-linejoin:round;stroke-miterlimit:1.41421;"><g id="_801164528_"><path d="M1292.67,460.525l0.81,0.001l0.803,0.002l0.798,0.003l0.796,0.005l0.788,0.005l0.778,0.006l0.77,0.007l0.768,0.009l0.76,0.009l0.755,0.011l0.747,0.012l0.744,0.013l0.734,0.014l0.732,0.015l0.724,0.017l0.718,0.019l0.716,0.019l0.706,0.021l0.7,0.023l0.697,0.024l0.691,0.025l0.685,0.028l0.683,0.028l0.673,0.031l0.671,0.032l0.666,0.034l0.657,0.036l0.654,0.037l0.653,0.039l0.648,0.042l0.638,0.043l0.632,0.045l0.632,0.047l0.631,0.05l0.621,0.052l0.622,0.054l0.616,0.057l0.602,0.057l0.606,0.061l0.607,0.064l0.602,0.066l0.592,0.069l0.589,0.071l0.588,0.074l0.584,0.077l0.586,0.081l0.576,0.083l0.554,0.082l0.306,0.047l0.288,0.046l0.271,0.044l0.291,0.047l0.286,0.048l0.278,0.048l0.288,0.05l0.277,0.05l0.271,0.049l0.293,0.054l0.278,0.053l0.269,0.052l0.29,0.057l0.271,0.055l0.271,0.055l0.277,0.058l0.276,0.059l0.284,0.062l0.274,0.06l0.274,0.062l0.266,0.062l0.272,0.064l0.271,0.065l0.265,0.064l0.28,0.07l0.27,0.068l0.269,0.069l0.278,0.074l0.267,0.072l0.254,0.069l0.267,0.074l0.282,0.08l0.264,0.077l0.259,0.076l0.274,0.082l0.263,0.08l0.269,0.084l0.261,0.083l0.252,0.081l0.28,0.092l0.267,0.09l0.25,0.085l0.27,0.094l0.266,0.094l0.256,0.092l0.257,0.095l0.264,0.098l0.267,0.102l0.257,0.099l0.254,0.101l0.263,0.105l0.265,0.108l0.252,0.105l0.263,0.112l0.263,0.113l0.25,0.11l0.25,0.112l0.261,0.119l0.249,0.115l0.249,0.117l0.27,0.13l0.259,0.126l0.246,0.123l0.257,0.13l0.244,0.126l0.245,0.128l0.254,0.136l0.255,0.139l0.253,0.14l0.254,0.143l0.251,0.144l0.238,0.139l0.24,0.142l0.249,0.151l0.249,0.153l0.234,0.146l0.247,0.158l0.246,0.159l0.256,0.169l0.243,0.165l0.218,0.149l0.227,0.158l0.252,0.178l0.24,0.173l0.229,0.168l0.247,0.185l0.215,0.164l0.226,0.175l0.233,0.184l0.244,0.194l0.23,0.19l0.208,0.172l0.229,0.194l0.226,0.195l0.219,0.192l0.225,0.201l0.206,0.187l0.221,0.205l0.228,0.215l0.194,0.186l0.217,0.211l0.222,0.222l0.18,0.182l0.212,0.217l0.224,0.237l0.191,0.205l0.189,0.205l0.212,0.235l0.192,0.217l0.192,0.22l0.197,0.232l0.18,0.214l0.191,0.232l0.183,0.227l0.19,0.239l0.178,0.229l0.176,0.23l0.168,0.224l0.172,0.233l0.191,0.264l0.162,0.228l0.165,0.237l0.163,0.239l0.161,0.239l0.173,0.264l0.156,0.242l0.144,0.228l0.148,0.237l0.164,0.268l0.147,0.247l0.131,0.224l0.162,0.279l0.14,0.25l0.126,0.226l0.15,0.276l0.134,0.252l0.135,0.26l0.13,0.254l0.115,0.229l0.129,0.262l0.133,0.276l0.123,0.263l0.11,0.238l0.115,0.253l0.118,0.265l0.104,0.239l0.112,0.261l0.122,0.292l0.096,0.236l0.106,0.262l0.104,0.269l0.093,0.242l0.101,0.269l0.048,0.128l0.052,0.107l0.027,0.08l0.052,0.109l0.109,0.237l0.099,0.214l0.11,0.243l0.107,0.239l0.105,0.238l0.097,0.223l0.102,0.235l0.112,0.263l0.103,0.246l0.1,0.243l0.099,0.242l0.089,0.22l0.097,0.244l0.107,0.271l0.085,0.223l0.093,0.24l0.092,0.246l0.093,0.247l0.09,0.246l0.083,0.229l0.097,0.271l0.086,0.245l0.079,0.226l0.086,0.249l0.085,0.25l0.083,0.251l0.082,0.247l0.074,0.228l0.082,0.252l0.087,0.276l0.072,0.23l0.071,0.23l0.085,0.277l0.075,0.251l0.073,0.247l0.14,0.484l0.144,0.509l0.138,0.502l0.132,0.493l0.133,0.514l0.127,0.506l0.125,0.51l0.121,0.51l0.116,0.501l0.116,0.513l0.112,0.515l0.109,0.517l0.106,0.519l0.101,0.508l0.098,0.511l0.098,0.524l0.095,0.525l0.09,0.516l0.09,0.529l0.084,0.52l0.083,0.52l0.081,0.534l0.077,0.524l0.075,0.527l0.073,0.528l0.07,0.53l0.068,0.531l0.065,0.533l0.065,0.545l0.06,0.536l0.057,0.529l0.057,0.539l0.054,0.541l0.052,0.544l0.048,0.534l0.048,0.546l0.045,0.548l0.043,0.54l0.041,0.551l0.04,0.553l0.036,0.545l0.035,0.556l0.032,0.547l0.032,0.549l0.029,0.562l0.027,0.552l0.025,0.555l0.023,0.555l0.022,0.568l0.019,0.559l0.018,0.56l0.016,0.562l0.014,0.564l0.013,0.565l0.011,0.557l0.009,0.569l0.008,0.579l0.005,0.571l0.004,0.564l0.003,0.565l0.001,0.575l0,0.578l-0.002,0.578l-0.004,0.571l-0.005,0.572l-0.007,0.583l-0.008,0.575l-0.009,0.586l-0.012,0.587l-0.012,0.57l-0.014,0.581l-0.015,0.591l-0.017,0.583l-0.018,0.585l-0.019,0.586l-0.021,0.588l-0.022,0.597l-0.024,0.591l-0.025,0.582l-0.025,0.592l-0.027,0.585l-0.028,0.595l-0.031,0.605l-0.03,0.589l-0.032,0.589l-0.033,0.6l-0.034,0.601l-0.036,0.602l-0.037,0.594l-0.037,0.596l-0.039,0.605l-0.04,0.598l-0.04,0.599l-0.043,0.608l-0.043,0.601l-0.044,0.602l-0.045,0.603l-0.045,0.605l-0.048,0.613l-0.048,0.606l-0.048,0.598l-0.05,0.608l-0.051,0.609l-0.051,0.609l-0.053,0.611l-0.053,0.612l-0.055,0.612l-0.054,0.597l-31.677,-2.861l0.053,-0.583l0.05,-0.566l0.05,-0.565l0.049,-0.564l0.047,-0.564l0.047,-0.562l0.046,-0.562l0.046,-0.569l0.044,-0.559l0.043,-0.55l0.042,-0.557l0.042,-0.556l0.04,-0.555l0.04,-0.554l0.038,-0.544l0.037,-0.552l0.036,-0.55l0.035,-0.54l0.035,-0.548l0.033,-0.547l0.032,-0.536l0.031,-0.535l0.029,-0.534l0.029,-0.541l0.028,-0.539l0.026,-0.52l0.025,-0.528l0.025,-0.536l0.023,-0.524l0.022,-0.532l0.021,-0.522l0.019,-0.511l0.018,-0.518l0.017,-0.517l0.016,-0.515l0.015,-0.514l0.013,-0.502l0.012,-0.51l0.011,-0.517l0.01,-0.497l0.008,-0.495l0.007,-0.503l0.006,-0.491l0.004,-0.499l0.003,-0.496l0.002,-0.485l0.001,-0.484l-0.001,-0.481l-0.003,-0.488l-0.003,-0.487l-0.005,-0.475l-0.006,-0.463l-0.008,-0.471l-0.009,-0.477l-0.01,-0.467l-0.012,-0.463l-0.013,-0.462l-0.015,-0.459l-0.016,-0.456l-0.017,-0.444l-0.019,-0.452l-0.02,-0.45l-0.022,-0.447l-0.022,-0.434l-0.026,-0.441l-0.025,-0.439l-0.027,-0.427l-0.029,-0.434l-0.03,-0.421l-0.032,-0.418l-0.033,-0.425l-0.034,-0.413l-0.036,-0.41l-0.038,-0.417l-0.039,-0.404l-0.04,-0.4l-0.041,-0.399l-0.044,-0.405l-0.044,-0.392l-0.045,-0.378l-0.047,-0.385l-0.049,-0.383l-0.05,-0.379l-0.052,-0.376l-0.053,-0.372l-0.054,-0.369l-0.054,-0.356l-0.058,-0.363l-0.059,-0.359l-0.058,-0.344l-0.062,-0.353l-0.06,-0.337l-0.063,-0.334l-0.066,-0.342l-0.067,-0.338l-0.066,-0.323l-0.067,-0.319l-0.069,-0.316l-0.07,-0.311l-0.074,-0.319l-0.072,-0.304l-0.073,-0.299l-0.074,-0.296l-0.074,-0.282l-0.08,-0.299l-0.077,-0.283l-0.076,-0.269l-0.085,-0.291l-0.041,-0.137l-0.039,-0.132l-0.032,-0.105l-0.046,-0.15l-0.046,-0.148l-0.033,-0.102l-0.04,-0.123l-0.047,-0.146l-0.041,-0.125l-0.041,-0.12l-0.04,-0.12l-0.041,-0.118l-0.049,-0.141l-0.042,-0.12l-0.033,-0.093l-0.049,-0.133l-0.041,-0.113l-0.042,-0.112l-0.042,-0.111l-0.044,-0.115l-0.051,-0.132l-0.032,-0.081l-0.042,-0.107l-0.052,-0.129l-0.043,-0.104l-0.043,-0.105l-0.041,-0.098l-0.034,-0.079l-0.046,-0.105l-0.051,-0.118l-0.043,-0.099l-0.044,-0.098l-0.042,-0.091l-0.054,-0.118l-0.044,-0.095l-0.033,-0.071l-0.042,-0.087l-0.044,-0.092l-0.045,-0.091l-0.547,-1.101l-0.38,-1.13l-0.017,-0.048l-0.025,-0.073l-0.018,-0.05l-0.018,-0.049l-0.016,-0.041l-0.025,-0.067l-0.015,-0.038l-0.017,-0.042l-0.028,-0.067l-0.003,-0.008l-0.016,-0.038l-0.025,-0.057l-0.013,-0.029l-0.018,-0.04l-0.024,-0.052l-0.012,-0.025l-0.005,-0.011l-0.011,-0.023l-0.027,-0.053l-0.013,-0.026l-0.01,-0.019l-0.013,-0.024l-0.025,-0.046l-0.01,-0.017l-0.021,-0.036l-0.01,-0.016l-0.013,-0.021l-0.02,-0.032l-0.007,-0.011l-0.007,-0.01l-0.009,-0.013l-0.009,-0.013l-0.007,-0.011l-0.003,-0.003l-0.014,-0.018l-0.008,-0.011l-0.006,-0.009l-0.007,-0.008l-0.001,-0.001l-0.013,-0.016l-0.007,-0.008l-0.005,-0.005l-0.01,-0.011l-0.004,-0.004l-0.023,-0.024l-0.02,-0.019l0,0l-0.02,-0.018l-0.004,-0.004l-0.012,-0.01l-0.005,-0.005l-0.007,-0.005l-0.029,-0.025l-0.008,-0.006l-0.009,-0.007l-0.021,-0.016l-0.033,-0.025l-0.002,-0.002l-0.025,-0.018l-0.015,-0.011l-0.006,-0.005l-0.033,-0.022l-0.044,-0.03l-0.02,-0.014l-0.011,-0.007l-0.023,-0.015l-0.024,-0.016l-0.04,-0.024l-0.027,-0.017l-0.029,-0.017l-0.041,-0.025l-0.046,-0.027l-0.033,-0.019l-0.035,-0.019l-0.037,-0.021l-0.038,-0.021l-0.04,-0.021l-0.054,-0.028l-0.055,-0.029l-0.045,-0.023l-0.059,-0.029l-0.049,-0.024l-0.039,-0.019l-0.065,-0.03l-0.066,-0.031l-0.056,-0.025l-0.07,-0.032l-0.072,-0.031l-0.062,-0.027l-0.064,-0.027l-0.078,-0.032l-0.067,-0.028l-0.073,-0.029l-0.084,-0.033l-0.083,-0.032l-0.075,-0.029l-0.081,-0.03l-0.092,-0.034l-0.093,-0.034l-0.088,-0.031l-0.086,-0.03l-0.108,-0.036l-0.094,-0.032l-0.085,-0.028l-0.113,-0.036l-0.108,-0.035l-0.103,-0.032l-0.112,-0.034l-0.102,-0.031l-0.121,-0.035l-0.118,-0.034l-0.103,-0.029l-0.122,-0.034l-0.136,-0.038l-0.127,-0.034l-0.116,-0.03l-0.13,-0.034l-0.133,-0.034l-0.124,-0.03l-0.142,-0.035l-0.139,-0.033l-0.141,-0.033l-0.149,-0.035l-0.145,-0.032l-0.146,-0.033l-0.14,-0.03l-0.151,-0.032l-0.153,-0.032l-0.161,-0.033l-0.164,-0.033l-0.149,-0.03l-0.171,-0.033l-0.166,-0.031l-0.155,-0.029l-0.177,-0.032l-0.176,-0.032l-0.168,-0.029l-0.18,-0.031l-0.176,-0.029l-0.174,-0.029l-0.196,-0.031l-0.182,-0.029l-0.167,-0.026l-0.401,-0.06l-0.392,-0.056l-0.393,-0.054l-0.407,-0.054l-0.416,-0.052l-0.427,-0.052l-0.436,-0.05l-0.438,-0.049l-0.446,-0.047l-0.459,-0.046l-0.476,-0.045l-0.474,-0.044l-0.482,-0.042l-0.494,-0.041l-0.498,-0.039l-0.51,-0.038l-0.522,-0.037l-0.529,-0.036l-0.532,-0.034l-0.542,-0.033l-0.552,-0.032l-0.564,-0.03l-0.568,-0.029l-0.575,-0.028l-0.587,-0.026l-0.591,-0.025l-0.602,-0.024l-0.61,-0.023l-0.617,-0.021l-0.629,-0.02l-0.637,-0.019l-0.641,-0.018l-0.651,-0.016l-0.66,-0.016l-0.667,-0.014l-0.679,-0.013l-0.683,-0.012l-0.693,-0.011l-0.702,-0.01l-0.709,-0.009l-0.718,-0.008l-0.728,-0.006l-0.735,-0.006l-0.741,-0.005l-0.748,-0.004l-0.759,-0.003l-0.771,-0.002l-0.778,-0.001l-0.779,-0.001l-0.723,0.001l-0.732,0.002l-0.738,0.004l-0.747,0.006l-0.758,0.007l-0.767,0.009l-0.773,0.01l-0.785,0.012l-0.792,0.014l-0.798,0.015l-0.81,0.016l-0.814,0.018l-0.825,0.021l-0.837,0.021l-0.838,0.023l-0.849,0.024l-0.857,0.026l-0.865,0.028l-0.871,0.029l-0.88,0.031l-0.89,0.032l-0.894,0.034l-0.901,0.035l-0.909,0.037l-0.915,0.038l-0.926,0.04l-0.932,0.041l-0.936,0.043l-0.944,0.044l-0.95,0.046l-0.959,0.047l-0.965,0.049l-0.972,0.05l-0.979,0.051l-0.982,0.053l-0.989,0.055l-0.997,0.056l-1.006,0.057l-1.01,0.059l-1.013,0.06l-1.022,0.061l-1.029,0.064l-1.032,0.064l-1.037,0.065l-1.044,0.068l-1.052,0.068l-1.057,0.07l-1.061,0.072l-1.063,0.072l-1.074,0.074l-1.079,0.076l-1.081,0.076l-1.087,0.078l-1.094,0.08l-1.098,0.08l-1.101,0.082l-1.109,0.084l-1.112,0.084l-1.116,0.086l-1.122,0.088l-1.127,0.088l-1.131,0.09l-1.135,0.091l-1.138,0.092l-1.145,0.094l-1.149,0.094l-1.149,0.096l-1.158,0.098l-1.16,0.098l-1.164,0.1l-1.17,0.101l-1.171,0.102l-1.176,0.104l-1.179,0.104l-1.184,0.106l-1.188,0.107l-1.189,0.108l-1.192,0.109l-1.197,0.111l-1.202,0.111l-1.202,0.113l-1.207,0.114l-1.21,0.115l-1.211,0.116l-1.216,0.118l-1.22,0.118l-1.22,0.119l-1.224,0.121l-1.227,0.122l-1.229,0.123l-1.233,0.124l-1.233,0.125l-1.236,0.126l-1.24,0.127l-1.241,0.128l-1.243,0.129l-1.247,0.131l-1.247,0.131l-1.249,0.132l-1.252,0.134l-1.253,0.134l-1.256,0.136l-1.257,0.136l-1.258,0.137l-1.259,0.139l-1.262,0.139l-1.266,0.141l-1.263,0.141l-1.264,0.142l-1.27,0.144l-1.268,0.144l-1.267,0.145l-1.273,0.146l-1.272,0.147l-1.27,0.148l-1.274,0.149l-1.274,0.15l-1.275,0.151l-1.276,0.151l-1.276,0.153l-1.276,0.153l-1.276,0.154l-1.279,0.155l-1.277,0.156l-1.277,0.157l-1.281,0.158l-1.276,0.158l-1.282,0.16l-3.939,-31.561l1.296,-0.161l1.299,-0.161l1.296,-0.16l1.299,-0.16l1.299,-0.158l1.296,-0.158l1.298,-0.156l1.297,-0.156l1.297,-0.155l1.294,-0.154l1.295,-0.153l1.294,-0.152l1.292,-0.151l1.295,-0.151l1.291,-0.149l1.288,-0.148l1.292,-0.148l1.288,-0.146l1.285,-0.146l1.288,-0.145l1.286,-0.143l1.281,-0.143l1.281,-0.141l1.282,-0.141l1.281,-0.14l1.276,-0.138l1.275,-0.138l1.274,-0.137l1.271,-0.135l1.272,-0.135l1.268,-0.133l1.265,-0.133l1.265,-0.131l1.262,-0.13l1.258,-0.13l1.259,-0.128l1.258,-0.127l1.25,-0.126l1.251,-0.125l1.248,-0.124l1.245,-0.123l1.245,-0.121l1.237,-0.121l1.237,-0.119l1.236,-0.119l1.232,-0.117l1.228,-0.116l1.227,-0.115l1.221,-0.113l1.218,-0.113l1.218,-0.111l1.213,-0.111l1.209,-0.108l1.205,-0.108l1.204,-0.107l1.2,-0.105l1.196,-0.105l1.19,-0.102l1.189,-0.102l1.184,-0.101l1.179,-0.099l1.179,-0.098l1.173,-0.097l1.167,-0.096l1.166,-0.094l1.16,-0.093l1.157,-0.092l1.151,-0.09l1.147,-0.09l1.146,-0.088l1.138,-0.086l1.133,-0.086l1.131,-0.084l1.124,-0.082l1.12,-0.082l1.117,-0.08l1.111,-0.079l1.105,-0.077l1.1,-0.076l1.099,-0.075l1.092,-0.073l1.083,-0.072l1.079,-0.07l1.076,-0.069l1.073,-0.068l1.064,-0.067l1.057,-0.064l1.054,-0.064l1.051,-0.062l1.042,-0.061l1.035,-0.059l1.03,-0.058l1.028,-0.057l1.021,-0.055l1.013,-0.053l1.007,-0.052l1.001,-0.05l0.995,-0.049l0.991,-0.048l0.985,-0.046l0.978,-0.045l0.969,-0.043l0.964,-0.041l0.959,-0.04l0.952,-0.039l0.946,-0.037l0.939,-0.035l0.93,-0.034l0.926,-0.032l0.919,-0.031l0.913,-0.029l0.905,-0.027l0.899,-0.026l0.893,-0.025l0.882,-0.022l0.877,-0.022l0.873,-0.019l0.863,-0.018l0.859,-0.016l0.848,-0.014l0.841,-0.013l0.837,-0.011l0.825,-0.01l0.819,-0.008l0.815,-0.006l0.807,-0.004l0.796,-0.003l0.788,-0.001l0.824,0.001ZM1359.26,486.39l0.095,0.265l0.086,0.244l0.093,0.271l-0.245,-0.729l-0.05,-0.108l0.021,0.057ZM1358.99,485.816l0.114,0.235l0.115,0.24l0.02,0.042l-0.029,-0.079l-0.335,-0.672l0.115,0.234Z" style="fill:#ffc122;"/><path d="M1117.6,411.14l0.491,0.007l0.479,0.01l0.477,0.014l0.486,0.017l0.484,0.021l0.472,0.024l0.47,0.028l0.47,0.032l0.478,0.036l0.477,0.04l0.454,0.043l0.463,0.046l0.474,0.053l0.448,0.054l0.267,0.034l0.217,0.029l0.221,0.03l0.24,0.035l0.221,0.032l0.215,0.033l0.237,0.037l0.245,0.04l0.24,0.041l0.215,0.037l0.22,0.039l0.235,0.044l0.215,0.041l0.245,0.047l0.24,0.049l0.209,0.043l0.214,0.046l0.22,0.047l0.24,0.054l0.233,0.054l0.214,0.05l0.247,0.06l0.233,0.058l0.214,0.055l0.212,0.056l0.207,0.055l0.247,0.067l0.24,0.068l0.205,0.059l0.205,0.06l0.241,0.072l0.22,0.069l0.205,0.063l0.231,0.075l0.24,0.079l0.213,0.072l0.213,0.072l0.229,0.081l0.204,0.073l0.239,0.087l0.213,0.08l0.212,0.081l0.229,0.089l0.202,0.08l0.239,0.097l0.201,0.084l0.201,0.084l0.239,0.102l0.2,0.088l0.239,0.107l0.399,0.183l0.237,0.113l0.198,0.095l0.198,0.097l0.225,0.112l0.21,0.108l0.197,0.101l0.223,0.118l0.195,0.105l0.222,0.121l0.209,0.117l0.195,0.11l0.219,0.127l0.193,0.114l0.179,0.107l0.208,0.126l0.191,0.118l0.217,0.135l0.214,0.138l0.175,0.114l0.205,0.136l0.189,0.127l0.188,0.129l0.211,0.146l0.193,0.137l0.164,0.118l0.185,0.134l0.19,0.141l0.207,0.156l0.199,0.153l0.143,0.112l0.204,0.16l0.201,0.163l0.162,0.132l0.178,0.148l0.161,0.135l0.177,0.151l0.195,0.17l0.157,0.14l0.175,0.155l0.172,0.158l0.154,0.141l0.172,0.162l0.17,0.161l0.169,0.164l0.167,0.164l0.149,0.149l0.148,0.148l0.164,0.169l0.163,0.169l0.161,0.171l0.143,0.153l0.16,0.174l0.14,0.156l0.14,0.156l0.156,0.177l0.135,0.155l0.137,0.16l0.17,0.201l0.265,0.321l0.269,0.335l0.266,0.34l0.253,0.333l0.254,0.343l0.25,0.347l0.239,0.341l0.232,0.34l0.236,0.355l0.226,0.349l0.205,0.325l0.21,0.341l0.21,0.35l0.202,0.344l0.198,0.346l0.19,0.342l0.183,0.337l0.179,0.337l0.18,0.346l0.166,0.328l0.166,0.335l0.169,0.349l0.157,0.332l0.16,0.345l0.154,0.339l0.139,0.315l0.14,0.322l0.144,0.336l0.14,0.338l0.133,0.325l0.129,0.32l0.13,0.332l0.127,0.329l0.123,0.324l0.117,0.316l0.116,0.318l0.113,0.314l0.114,0.319l0.111,0.321l0.109,0.317l0.104,0.31l0.104,0.311l0.105,0.321l0.101,0.312l0.101,0.315l0.096,0.307l0.095,0.303l0.094,0.305l0.096,0.315l0.095,0.318l0.178,0.6l0.177,0.607l0.173,0.603l0.17,0.603l0.169,0.603l0.166,0.598l0.165,0.598l0.325,1.192l0.661,2.426l0.686,2.529l0.712,2.627l0.736,2.719l1.546,5.711l0.808,2.984l0.832,3.066l0.855,3.146l0.878,3.22l0.9,3.294l0.458,1.67l0.463,1.69l0.469,1.706l0.474,1.722l0.479,1.736l0.484,1.752l0.49,1.766l0.495,1.783l0.5,1.795l0.505,1.809l0.509,1.822l0.515,1.833l0.519,1.847l0.524,1.858l0.529,1.871l0.534,1.882l0.538,1.89l0.542,1.901l0.547,1.911l0.552,1.919l0.556,1.931l0.561,1.938l0.565,1.947l0.568,1.953l0.573,1.96l0.577,1.967l0.581,1.973l0.586,1.981l0.588,1.984l0.594,1.99l0.597,1.996l0.601,2l0.604,2.002l0.608,2.005l0.612,2.009l0.615,2.013l0.618,2.011l0.623,2.017l0.627,2.02l0.312,1.004l0.315,1.007l0.317,1.011l0.317,1.011l0.316,1.006l0.319,1.012l-30.331,9.572l-0.324,-1.027l-0.325,-1.034l-0.323,-1.029l-0.322,-1.028l-0.322,-1.032l-0.322,-1.034l-0.637,-2.055l-0.635,-2.055l-0.632,-2.056l-0.627,-2.05l-0.623,-2.046l-0.62,-2.045l-0.615,-2.04l-0.612,-2.035l-0.606,-2.027l-0.604,-2.025l-0.599,-2.019l-0.595,-2.012l-0.591,-2.006l-0.586,-1.998l-0.582,-1.992l-0.577,-1.983l-0.573,-1.973l-0.568,-1.966l-0.564,-1.956l-0.56,-1.948l-0.555,-1.938l-0.55,-1.926l-0.545,-1.918l-0.54,-1.903l-0.535,-1.892l-0.53,-1.881l-0.526,-1.868l-0.521,-1.857l-0.515,-1.841l-0.51,-1.829l-0.505,-1.814l-0.499,-1.798l-0.495,-1.785l-0.49,-1.769l-0.484,-1.755l-0.478,-1.736l-0.472,-1.719l-0.467,-1.703l-0.462,-1.686l-0.906,-3.315l-0.883,-3.242l-0.859,-3.161l-0.836,-3.079l-0.811,-2.994l-1.547,-5.715l-0.735,-2.715l-0.708,-2.613l-0.681,-2.51l-0.655,-2.404l-0.312,-1.143l-0.152,-0.549l-0.148,-0.536l-0.144,-0.516l-0.143,-0.503l-0.14,-0.489l-0.137,-0.47l-0.137,-0.463l-0.063,-0.209l-0.063,-0.207l-0.066,-0.215l-0.066,-0.211l-0.064,-0.205l-0.062,-0.194l-0.062,-0.191l-0.059,-0.18l-0.062,-0.186l-0.062,-0.184l-0.059,-0.172l-0.058,-0.165l-0.057,-0.162l-0.059,-0.165l-0.058,-0.157l-0.057,-0.154l-0.054,-0.143l-0.052,-0.136l-0.05,-0.126l-0.054,-0.135l-0.052,-0.127l-0.046,-0.11l-0.046,-0.108l-0.051,-0.118l-0.054,-0.121l-0.042,-0.093l-0.038,-0.083l-0.045,-0.093l-0.034,-0.071l-0.04,-0.081l-0.043,-0.085l-0.033,-0.063l-0.035,-0.066l-0.035,-0.064l-0.03,-0.054l-0.026,-0.046l-0.026,-0.044l-0.015,-0.025l-0.031,-0.011l-0.007,-0.002l-0.018,-0.006l-0.046,-0.014l-0.031,-0.01l-0.014,-0.004l-0.051,-0.015l-0.053,-0.015l-0.019,-0.006l-0.014,-0.003l-0.058,-0.016l-0.051,-0.013l-0.054,-0.014l-0.035,-0.009l-0.025,-0.006l-0.059,-0.014l-0.041,-0.009l-0.036,-0.008l-0.059,-0.013l-0.067,-0.014l-0.074,-0.015l-0.044,-0.009l-0.041,-0.008l-0.074,-0.014l-0.055,-0.011l-0.072,-0.012l-0.08,-0.014l-0.055,-0.01l-0.054,-0.009l-0.064,-0.01l-0.086,-0.013l-0.085,-0.012l-0.066,-0.01l-0.088,-0.012l-0.094,-0.012l-0.046,-0.006l-0.184,-0.022l-0.167,-0.019l-0.186,-0.019l-0.204,-0.019l-0.19,-0.016l-0.197,-0.015l-0.215,-0.014l-0.223,-0.013l-0.23,-0.012l-0.228,-0.01l-0.235,-0.008l-0.252,-0.007l-0.261,-0.006l-0.257,-0.004l-0.265,-0.001l-0.283,0l-0.29,0.001l-0.288,0.004l-0.295,0.006l-0.302,0.007l-0.31,0.01l-0.327,0.013l-0.325,0.014l-0.332,0.016l-0.349,0.019l-0.347,0.021l-0.354,0.023l-0.362,0.026l-0.362,0.027l-0.384,0.032l-0.385,0.032l-0.383,0.035l-0.406,0.039l-0.406,0.04l-0.413,0.044l-0.421,0.045l-0.421,0.048l-0.434,0.051l-0.443,0.053l-0.451,0.057l-0.455,0.058l-0.458,0.061l-0.465,0.064l-0.479,0.068l-0.493,0.071l-0.487,0.071l-0.494,0.075l-0.509,0.079l-0.508,0.08l-0.522,0.084l-0.532,0.087l-0.53,0.089l-0.539,0.092l-0.553,0.096l-0.553,0.097l-0.561,0.101l-0.574,0.104l-0.576,0.107l-0.583,0.109l-0.591,0.113l-0.605,0.116l-0.605,0.118l-0.613,0.121l-0.621,0.124l-0.628,0.128l-0.637,0.13l-0.645,0.134l-0.656,0.137l-0.652,0.138l-0.668,0.143l-0.679,0.146l-0.677,0.147l-0.69,0.152l-0.698,0.155l-0.7,0.156l-0.712,0.161l-0.721,0.164l-0.728,0.167l-0.738,0.171l-0.743,0.173l-0.748,0.175l-0.756,0.179l-0.772,0.183l-0.772,0.185l-0.779,0.188l-0.792,0.192l-0.799,0.195l-0.804,0.197l-0.812,0.201l-0.824,0.204l-0.829,0.207l-0.84,0.211l-0.844,0.213l-0.852,0.217l-0.866,0.221l-0.869,0.222l-0.878,0.226l-0.887,0.23l-0.894,0.232l-0.906,0.237l-0.911,0.239l-0.92,0.242l-0.928,0.246l-0.937,0.249l-0.945,0.251l-0.954,0.256l-0.962,0.258l-0.972,0.262l-0.979,0.265l-0.985,0.267l-0.997,0.272l-1.01,0.276l-1.012,0.278l-1.023,0.281l-1.032,0.285l-1.039,0.288l-1.05,0.291l-1.059,0.295l-1.068,0.298l-1.074,0.301l-1.086,0.305l-1.092,0.307l-1.102,0.311l-1.117,0.316l-1.118,0.317l-2.269,0.646l-2.308,0.659l-2.343,0.673l-2.381,0.687l-2.418,0.7l-2.457,0.713l-2.49,0.726l-2.526,0.74l-2.565,0.753l-2.596,0.764l-2.631,0.778l-2.665,0.789l-2.695,0.802l-2.73,0.813l-2.76,0.825l-2.791,0.837l-2.822,0.847l-2.85,0.859l-2.881,0.869l-2.909,0.881l-2.938,0.891l-2.964,0.9l-2.99,0.911l-3.016,0.921l-3.044,0.931l-3.069,0.94l-3.091,0.949l-3.116,0.958l-3.14,0.968l-3.162,0.975l-3.183,0.985l-3.205,0.993l-3.226,1.001l-3.248,1.009l-3.266,1.017l-3.285,1.024l-3.305,1.031l-3.321,1.039l-3.341,1.046l-3.356,1.052l-3.372,1.06l-3.389,1.066l-3.403,1.072l-3.417,1.077l-3.432,1.084l-3.446,1.09l-3.457,1.094l-3.47,1.1l-3.482,1.106l-3.492,1.11l-3.504,1.115l-3.513,1.119l-3.522,1.123l-3.531,1.128l-3.538,1.132l-3.547,1.135l-3.555,1.14l-3.559,1.141l-3.566,1.146l-3.571,1.148l-3.576,1.152l-3.58,1.154l-3.582,1.155l-3.586,1.159l-3.589,1.161l-3.59,1.162l-3.592,1.164l-3.592,1.166l-3.592,1.166l-3.591,1.168l-3.59,1.168l-3.588,1.17l-3.587,1.169l-3.582,1.17l-3.581,1.171l-3.576,1.17l-3.571,1.17l-3.566,1.17l-3.56,1.168l-3.553,1.168l-3.549,1.167l-3.539,1.166l-3.53,1.164l-3.524,1.163l-3.514,1.161l-3.501,1.158l-3.494,1.157l-3.484,1.155l-3.469,1.151l-3.458,1.149l-3.447,1.147l-3.432,1.142l-3.419,1.14l-3.404,1.136l-3.388,1.133l-3.374,1.128l-3.357,1.125l-3.34,1.12l-3.324,1.116l-3.305,1.111l-3.286,1.106l-3.267,1.101l-3.248,1.096l-3.227,1.091l-3.207,1.085l-3.186,1.079l-3.163,1.073l-3.14,1.066l-3.117,1.061l-3.094,1.054l-3.069,1.047l-3.044,1.04l-3.018,1.033l-2.994,1.026l-2.965,1.018l-2.939,1.011l-2.912,1.002l-2.882,0.995l-2.853,0.985l-2.824,0.978l-2.793,0.969l-2.763,0.96l-2.731,0.95l-2.699,0.942l-2.667,0.932l-2.634,0.923l-2.601,0.912l-2.566,0.903l-2.529,0.891l-2.495,0.882l-2.459,0.871l-2.572,0.913l-2.538,0.847l-2.351,0.786l-2.316,0.776l-2.278,0.764l-2.242,0.754l-2.206,0.744l-2.167,0.733l-2.133,0.723l-2.099,0.713l-2.061,0.703l-2.025,0.693l-1.993,0.684l-1.957,0.674l-1.922,0.664l-1.886,0.655l-1.853,0.646l-1.82,0.637l-1.784,0.627l-1.755,0.621l-0.86,0.305l-0.854,0.303l-0.844,0.301l-0.838,0.3l-0.834,0.299l-0.82,0.295l-0.812,0.293l-0.806,0.291l-0.798,0.29l-0.79,0.287l-0.775,0.283l-0.775,0.284l-0.766,0.282l-0.753,0.277l-0.751,0.278l-0.739,0.274l-0.729,0.272l-0.727,0.272l-0.716,0.269l-0.709,0.268l-0.699,0.264l-0.691,0.263l-0.685,0.262l-0.673,0.258l-0.67,0.258l-0.666,0.257l-0.649,0.252l-0.644,0.252l-0.639,0.25l-0.626,0.247l-0.622,0.247l-0.616,0.245l-0.605,0.242l-0.598,0.241l-0.595,0.24l-0.579,0.235l-0.575,0.236l-0.569,0.234l-0.562,0.232l-0.552,0.23l-0.542,0.227l-0.536,0.226l-0.529,0.225l-0.524,0.223l-0.516,0.222l-0.504,0.218l-0.496,0.216l-0.5,0.219l-0.484,0.214l-0.468,0.208l-0.469,0.211l-0.469,0.212l-0.448,0.204l-0.45,0.207l-0.442,0.204l-0.425,0.198l-0.427,0.201l-0.417,0.198l-0.406,0.195l-0.405,0.196l-0.391,0.19l-0.384,0.189l-0.382,0.19l-0.373,0.187l-0.368,0.186l-0.35,0.18l-0.346,0.179l-0.35,0.183l-0.334,0.177l-0.318,0.169l-0.324,0.175l-0.312,0.171l-0.302,0.167l-0.305,0.171l-0.283,0.159l-0.279,0.161l-0.28,0.162l-0.264,0.155l-0.256,0.153l-0.254,0.153l-0.245,0.151l-0.231,0.143l-0.231,0.145l-0.227,0.146l-0.208,0.134l-0.213,0.141l-0.198,0.131l-0.185,0.126l-0.19,0.131l-0.175,0.123l-0.167,0.119l-0.159,0.116l-0.115,0.085l0.014,0.028l0.077,0.155l0.086,0.169l0.084,0.166l0.082,0.157l0.089,0.171l0.099,0.185l0.097,0.182l0.096,0.178l0.108,0.197l0.107,0.194l0.106,0.192l0.115,0.204l0.119,0.211l0.115,0.204l0.118,0.205l0.129,0.224l0.126,0.219l0.269,0.46l0.273,0.465l0.286,0.48l0.606,1.013l0.523,1.042l0.252,0.497l0.259,0.506l0.266,0.516l0.271,0.522l0.281,0.537l0.284,0.54l0.292,0.551l0.301,0.565l0.306,0.571l0.309,0.574l0.315,0.581l0.325,0.596l0.332,0.608l0.334,0.609l0.342,0.619l0.349,0.63l0.354,0.638l0.36,0.646l0.365,0.653l0.37,0.661l0.376,0.668l0.383,0.679l0.387,0.684l0.795,1.402l0.813,1.429l0.835,1.463l0.856,1.496l0.876,1.529l0.896,1.561l1.85,3.22l1.924,3.349l0.989,1.724l1.006,1.755l1.025,1.79l1.04,1.822l1.056,1.853l1.073,1.887l1.089,1.92l0.55,0.973l0.554,0.98l0.558,0.991l0.561,0.998l0.565,1.004l0.569,1.017l0.572,1.022l0.574,1.028l0.579,1.04l0.582,1.046l0.586,1.056l0.591,1.067l0.591,1.072l0.594,1.078l0.6,1.091l0.603,1.1l0.603,1.104l0.609,1.115l0.61,1.124l0.614,1.131l0.618,1.141l0.619,1.149l0.624,1.158l0.625,1.167l0.627,1.172l0.633,1.185l0.632,1.191l0.637,1.2l0.639,1.21l0.64,1.216l0.645,1.228l0.647,1.235l0.648,1.244l0.651,1.252l0.653,1.26l0.656,1.27l0.66,1.282l0.659,1.287l0.662,1.294l0.664,1.306l0.667,1.314l0.669,1.323l0.671,1.332l0.672,1.341l0.674,1.348l0.678,1.361l0.677,1.366l0.68,1.375l0.683,1.388l0.682,1.393l0.685,1.402l0.688,1.414l0.688,1.423l0.689,1.428l0.692,1.439l0.692,1.449l0.694,1.456l0.696,1.468l0.698,1.477l0.698,1.485l0.699,1.495l0.701,1.503l0.703,1.514l0.702,1.522l0.703,1.528l0.707,1.543l0.706,1.551l0.706,1.556l0.707,1.565l0.357,0.794l0.395,0.881l0.395,0.913l0.355,0.823l0.354,0.821l0.357,0.833l0.355,0.83l0.355,0.832l0.355,0.836l0.355,0.835l0.355,0.839l0.355,0.841l0.355,0.845l0.354,0.843l0.355,0.847l0.355,0.851l0.354,0.851l0.355,0.854l0.353,0.854l0.354,0.857l0.356,0.863l0.354,0.862l0.354,0.864l0.352,0.863l0.354,0.867l0.355,0.874l0.353,0.87l0.353,0.872l0.353,0.874l0.355,0.881l0.352,0.879l0.353,0.88l0.353,0.885l0.353,0.886l0.352,0.886l0.352,0.886l0.353,0.893l0.353,0.896l0.352,0.893l0.351,0.895l0.352,0.898l0.351,0.898l0.353,0.904l0.352,0.906l0.35,0.903l0.351,0.907l0.352,0.91l0.352,0.914l0.35,0.912l0.349,0.911l0.352,0.918l0.352,0.923l0.697,1.834l0.7,1.848l0.699,1.855l0.699,1.862l0.697,1.867l0.697,1.873l0.696,1.882l0.695,1.885l0.695,1.893l0.694,1.9l0.692,1.904l0.693,1.911l0.692,1.918l0.69,1.923l0.69,1.928l0.688,1.934l0.688,1.939l0.687,1.946l0.687,1.952l0.684,1.955l0.684,1.96l0.684,1.967l0.683,1.973l0.68,1.976l0.68,1.98l0.679,1.987l0.678,1.99l0.677,1.995l0.676,2.001l0.675,2.006l0.673,2.009l0.673,2.012l0.671,2.017l0.67,2.022l0.669,2.028l0.668,2.03l0.665,2.032l0.666,2.038l0.663,2.042l0.663,2.046l0.661,2.048l0.66,2.051l0.658,2.057l0.657,2.059l0.656,2.062l0.653,2.065l0.653,2.069l0.651,2.071l0.651,2.075l0.648,2.078l0.647,2.08l0.645,2.082l0.643,2.085l0.643,2.09l0.64,2.089l0.639,2.094l0.637,2.094l0.636,2.098l0.634,2.099l0.632,2.1l0.63,2.103l0.63,2.105l0.627,2.109l0.625,2.107l0.623,2.109l0.622,2.113l0.62,2.112l0.619,2.116l0.616,2.116l0.614,2.116l0.612,2.117l0.611,2.119l0.609,2.12l0.607,2.12l0.604,2.122l0.603,2.122l0.601,2.124l0.598,2.123l0.597,2.123l0.594,2.123l0.593,2.124l0.591,2.127l0.588,2.124l0.586,2.124l0.584,2.125l0.582,2.123l0.579,2.125l0.578,2.124l0.574,2.122l0.574,2.124l0.57,2.123l0.568,2.12l0.567,2.121l0.563,2.122l0.561,2.117l0.559,2.119l0.557,2.118l0.554,2.114l0.552,2.115l0.549,2.114l0.547,2.113l0.544,2.11l0.542,2.109l0.539,2.108l0.538,2.108l0.535,2.108l0.532,2.107l0.529,2.104l0.528,2.106l0.524,2.104l0.522,2.101l0.52,2.101l0.518,2.102l0.515,2.101l0.512,2.098l0.511,2.098l0.508,2.097l0.506,2.098l0.504,2.096l0.501,2.093l0.499,2.094l0.498,2.096l0.494,2.093l0.492,2.09l0.491,2.09l0.488,2.091l0.486,2.088l0.485,2.088l0.482,2.089l0.48,2.087l0.478,2.085l0.476,2.085l0.474,2.085l0.472,2.084l0.471,2.083l0.468,2.083l0.466,2.081l0.464,2.08l0.463,2.081l0.461,2.079l0.459,2.08l0.457,2.077l0.455,2.077l0.453,2.077l0.452,2.076l0.45,2.074l0.449,2.074l0.447,2.076l0.444,2.072l0.444,2.071l0.442,2.073l0.44,2.073l0.438,2.069l0.437,2.07l0.436,2.069l0.434,2.069l0.432,2.069l0.431,2.066l0.429,2.067l0.428,2.067l0.427,2.064l0.425,2.066l0.424,2.065l0.422,2.064l0.421,2.062l0.42,2.065l0.419,2.061l0.417,2.062l0.415,2.061l0.415,2.061l0.414,2.06l0.411,2.058l0.412,2.06l0.41,2.059l0.409,2.058l0.407,2.057l0.406,2.057l0.406,2.057l0.404,2.056l0.403,2.056l0.402,2.054l0.401,2.055l0.401,2.055l0.399,2.054l0.398,2.052l0.398,2.053l0.396,2.054l0.395,2.05l0.396,2.054l0.786,4.102l0.783,4.1l0.781,4.098l0.777,4.098l0.775,4.096l0.772,4.095l0.77,4.093l0.767,4.092l0.765,4.091l0.763,4.09l0.762,4.089l0.759,4.088l0.758,4.085l0.757,4.086l0.756,4.085l0.754,4.084l0.754,4.083l1.505,8.163l1.504,8.161l-31.28,5.763l-1.503,-8.159l-1.504,-8.158l-0.753,-4.078l-0.753,-4.077l-0.754,-4.077l-0.756,-4.078l-0.756,-4.078l-0.758,-4.077l-0.759,-4.076l-0.761,-4.078l-0.762,-4.077l-0.765,-4.077l-0.766,-4.078l-0.769,-4.078l-0.772,-4.078l-0.774,-4.078l-0.776,-4.08l-0.779,-4.079l-0.783,-4.081l-0.392,-2.038l-0.394,-2.041l-0.394,-2.04l-0.395,-2.04l-0.396,-2.043l-0.396,-2.04l-0.398,-2.041l-0.399,-2.041l-0.399,-2.042l-0.401,-2.042l-0.401,-2.042l-0.402,-2.041l-0.404,-2.044l-0.405,-2.043l-0.405,-2.042l-0.407,-2.042l-0.408,-2.043l-0.409,-2.045l-0.41,-2.044l-0.411,-2.044l-0.413,-2.044l-0.414,-2.045l-0.415,-2.046l-0.415,-2.044l-0.418,-2.046l-0.419,-2.047l-0.42,-2.045l-0.421,-2.046l-0.423,-2.048l-0.424,-2.047l-0.426,-2.047l-0.427,-2.049l-0.427,-2.047l-0.43,-2.049l-0.431,-2.049l-0.433,-2.05l-0.434,-2.051l-0.436,-2.049l-0.437,-2.049l-0.439,-2.052l-0.441,-2.053l-0.441,-2.05l-0.444,-2.053l-0.445,-2.053l-0.447,-2.053l-0.448,-2.053l-0.451,-2.055l-0.452,-2.055l-0.453,-2.054l-0.456,-2.056l-0.457,-2.055l-0.459,-2.058l-0.461,-2.057l-0.463,-2.057l-0.464,-2.058l-0.466,-2.058l-0.469,-2.059l-0.47,-2.06l-0.472,-2.06l-0.474,-2.061l-0.476,-2.06l-0.478,-2.062l-0.48,-2.063l-0.482,-2.063l-0.484,-2.064l-0.487,-2.065l-0.488,-2.065l-0.489,-2.063l-0.493,-2.065l-0.495,-2.069l-0.497,-2.067l-0.498,-2.066l-0.502,-2.069l-0.503,-2.069l-0.506,-2.071l-0.508,-2.07l-0.51,-2.07l-0.512,-2.073l-0.516,-2.073l-0.516,-2.073l-0.519,-2.072l-0.523,-2.077l-0.524,-2.074l-0.526,-2.075l-0.529,-2.077l-0.532,-2.078l-0.535,-2.08l-0.536,-2.082l-0.54,-2.083l-0.541,-2.083l-0.545,-2.087l-0.547,-2.088l-0.548,-2.088l-0.552,-2.089l-0.554,-2.092l-0.555,-2.091l-0.559,-2.091l-0.561,-2.096l-0.562,-2.092l-0.565,-2.093l-0.568,-2.097l-0.57,-2.094l-0.571,-2.094l-0.575,-2.098l-0.575,-2.095l-0.579,-2.096l-0.58,-2.096l-0.582,-2.093l-0.585,-2.097l-0.586,-2.095l-0.589,-2.096l-0.59,-2.095l-0.592,-2.092l-0.595,-2.094l-0.596,-2.092l-0.599,-2.091l-0.6,-2.09l-0.602,-2.09l-0.605,-2.089l-0.606,-2.088l-0.607,-2.086l-0.609,-2.084l-0.611,-2.084l-0.613,-2.08l-0.615,-2.08l-0.617,-2.081l-0.618,-2.075l-0.619,-2.075l-0.622,-2.072l-0.624,-2.072l-0.624,-2.069l-0.626,-2.066l-0.628,-2.065l-0.63,-2.061l-0.631,-2.06l-0.632,-2.056l-0.634,-2.054l-0.636,-2.052l-0.637,-2.049l-0.638,-2.045l-0.64,-2.042l-0.641,-2.039l-0.643,-2.037l-0.644,-2.034l-0.645,-2.029l-0.647,-2.028l-0.647,-2.021l-0.65,-2.02l-0.65,-2.016l-0.651,-2.01l-0.653,-2.008l-0.654,-2.004l-0.656,-2.002l-0.655,-1.995l-0.657,-1.99l-0.659,-1.986l-0.66,-1.984l-0.661,-1.979l-0.662,-1.975l-0.662,-1.968l-0.663,-1.963l-0.665,-1.96l-0.666,-1.955l-0.667,-1.95l-0.668,-1.945l-0.667,-1.939l-0.669,-1.933l-0.67,-1.928l-0.672,-1.924l-0.672,-1.919l-0.672,-1.91l-0.673,-1.906l-0.674,-1.901l-0.675,-1.895l-0.675,-1.888l-0.676,-1.883l-0.676,-1.875l-0.678,-1.87l-0.679,-1.865l-0.678,-1.857l-0.679,-1.85l-0.68,-1.846l-0.679,-1.836l-0.682,-1.831l-0.681,-1.825l-0.681,-1.815l-0.682,-1.809l-0.682,-1.802l-0.686,-1.802l-0.339,-0.891l-0.341,-0.89l-0.343,-0.895l-0.342,-0.89l-0.341,-0.885l-0.342,-0.884l-0.342,-0.885l-0.343,-0.884l-0.341,-0.878l-0.342,-0.875l-0.343,-0.878l-0.343,-0.875l-0.343,-0.874l-0.342,-0.871l-0.342,-0.865l-0.342,-0.864l-0.343,-0.867l-0.343,-0.863l-0.343,-0.86l-0.342,-0.856l-0.343,-0.857l-0.343,-0.855l-0.342,-0.848l-0.343,-0.851l-0.344,-0.849l-0.343,-0.847l-0.341,-0.84l-0.344,-0.841l-0.344,-0.842l-0.343,-0.837l-0.342,-0.835l-0.342,-0.829l-0.343,-0.83l-0.344,-0.83l-0.343,-0.826l-0.343,-0.824l-0.342,-0.82l-0.343,-0.819l-0.344,-0.82l-0.342,-0.812l-0.343,-0.813l-0.342,-0.809l-0.344,-0.81l-0.342,-0.805l-0.343,-0.803l-0.342,-0.801l-0.341,-0.794l-0.344,-0.8l-0.343,-0.794l-0.303,-0.701l-0.302,-0.673l-0.34,-0.757l-0.687,-1.52l-0.686,-1.511l-0.682,-1.5l-0.681,-1.487l-0.683,-1.484l-0.681,-1.474l-0.678,-1.462l-0.678,-1.455l-0.677,-1.446l-0.675,-1.436l-0.674,-1.428l-0.673,-1.418l-0.672,-1.412l-0.671,-1.402l-0.669,-1.392l-0.668,-1.386l-0.665,-1.375l-0.664,-1.363l-0.664,-1.361l-0.662,-1.351l-0.658,-1.338l-0.659,-1.332l-0.657,-1.326l-0.653,-1.311l-0.654,-1.309l-0.651,-1.298l-0.65,-1.289l-0.647,-1.28l-0.645,-1.272l-0.643,-1.264l-0.643,-1.257l-0.639,-1.248l-0.637,-1.236l-0.635,-1.23l-0.634,-1.223l-0.632,-1.215l-0.628,-1.206l-0.626,-1.196l-0.624,-1.188l-0.623,-1.183l-0.619,-1.171l-0.617,-1.164l-0.616,-1.159l-0.611,-1.145l-0.611,-1.142l-0.607,-1.133l-0.604,-1.122l-0.602,-1.117l-0.599,-1.107l-0.597,-1.1l-0.594,-1.093l-0.592,-1.083l-0.589,-1.079l-0.585,-1.067l-0.582,-1.058l-0.581,-1.056l-0.578,-1.046l-0.572,-1.034l-0.571,-1.029l-0.569,-1.024l-0.565,-1.013l-0.563,-1.009l-0.559,-0.999l-0.554,-0.988l-0.553,-0.985l-0.549,-0.976l-0.545,-0.967l-0.543,-0.961l-0.538,-0.953l-1.069,-1.886l-1.055,-1.855l-1.042,-1.827l-1.026,-1.797l-1.011,-1.767l-0.998,-1.741l-0.982,-1.711l-1.919,-3.34l-1.854,-3.227l-0.903,-1.574l-0.888,-1.548l-0.869,-1.52l-0.855,-1.497l-0.837,-1.472l-0.817,-1.44l-0.404,-0.716l-0.398,-0.706l-0.396,-0.703l-0.39,-0.697l-0.386,-0.69l-0.381,-0.683l-0.376,-0.677l-0.371,-0.67l-0.368,-0.667l-0.364,-0.664l-0.356,-0.651l-0.353,-0.648l-0.352,-0.649l-0.346,-0.643l-0.339,-0.632l-0.332,-0.624l-0.332,-0.625l-0.327,-0.622l-0.319,-0.611l-0.318,-0.612l-0.312,-0.605l-0.307,-0.601l-0.302,-0.597l-0.02,-0.038l-0.032,-0.054l-0.341,-0.574l-0.339,-0.576l-0.332,-0.569l-0.168,-0.29l-0.163,-0.284l-0.171,-0.297l-0.168,-0.297l-0.161,-0.286l-0.164,-0.292l-0.166,-0.3l-0.162,-0.294l-0.158,-0.289l-0.165,-0.305l-0.16,-0.299l-0.156,-0.293l-0.159,-0.304l-0.164,-0.316l-0.155,-0.304l-0.151,-0.298l-0.155,-0.311l-0.156,-0.317l-0.153,-0.316l-0.149,-0.312l-0.153,-0.324l-0.15,-0.326l-0.141,-0.312l-0.146,-0.327l-0.152,-0.347l-0.143,-0.335l-0.137,-0.33l-0.138,-0.337l-0.133,-0.332l-0.138,-0.354l-0.141,-0.37l-0.125,-0.343l-0.129,-0.359l-0.13,-0.376l-0.124,-0.369l-0.116,-0.36l-0.115,-0.366l-0.117,-0.391l-0.111,-0.388l-0.109,-0.395l-0.104,-0.398l-0.098,-0.395l-0.098,-0.416l-0.089,-0.405l-0.085,-0.411l-0.082,-0.425l-0.076,-0.43l-0.068,-0.418l-0.034,-0.225l-0.03,-0.207l-0.034,-0.246l-0.027,-0.214l-0.025,-0.209l-0.024,-0.21l-0.027,-0.253l-0.024,-0.25l-0.015,-0.173l-0.021,-0.254l-0.018,-0.252l-0.013,-0.214l-0.012,-0.216l-0.011,-0.214l-0.01,-0.255l-0.008,-0.256l-0.005,-0.256l-0.002,-0.217l-0.001,-0.216l0.001,-0.257l0.004,-0.217l0.004,-0.218l0.009,-0.297l0.012,-0.256l0.009,-0.179l0.014,-0.259l0.018,-0.256l0.019,-0.256l0.024,-0.259l0.021,-0.215l0.027,-0.255l0.026,-0.224l0.031,-0.254l0.035,-0.254l0.037,-0.258l0.04,-0.253l0.034,-0.212l0.045,-0.258l0.048,-0.257l0.048,-0.25l0.051,-0.248l0.053,-0.248l0.048,-0.209l0.058,-0.255l0.073,-0.291l0.053,-0.206l0.064,-0.243l0.077,-0.278l0.062,-0.215l0.07,-0.238l0.085,-0.275l0.068,-0.212l0.077,-0.235l0.092,-0.269l0.082,-0.233l0.084,-0.231l0.091,-0.243l0.087,-0.228l0.09,-0.227l0.097,-0.239l0.093,-0.224l0.095,-0.222l0.111,-0.253l0.099,-0.219l0.1,-0.218l0.124,-0.262l0.104,-0.214l0.098,-0.198l0.115,-0.227l0.123,-0.238l0.126,-0.237l0.105,-0.193l0.104,-0.189l0.146,-0.259l0.126,-0.217l0.117,-0.2l0.12,-0.198l0.109,-0.181l0.153,-0.247l0.134,-0.209l0.123,-0.191l0.142,-0.215l0.126,-0.189l0.144,-0.21l0.145,-0.209l0.13,-0.184l0.119,-0.166l0.148,-0.204l0.161,-0.217l0.134,-0.178l0.151,-0.197l0.14,-0.18l0.137,-0.174l0.167,-0.208l0.142,-0.175l0.156,-0.188l0.157,-0.187l0.142,-0.167l0.143,-0.166l0.145,-0.167l0.175,-0.198l0.146,-0.162l0.161,-0.177l0.163,-0.176l0.148,-0.158l0.179,-0.189l0.15,-0.156l0.151,-0.156l0.166,-0.168l0.167,-0.168l0.153,-0.152l0.167,-0.165l0.184,-0.177l0.156,-0.149l0.17,-0.161l0.156,-0.145l0.157,-0.145l0.186,-0.171l0.16,-0.144l0.173,-0.155l0.188,-0.167l0.16,-0.139l0.176,-0.153l0.19,-0.162l0.325,-0.274l0.357,-0.296l0.352,-0.284l0.354,-0.283l0.365,-0.284l0.361,-0.276l0.363,-0.273l0.371,-0.275l0.375,-0.271l0.378,-0.27l0.381,-0.267l0.376,-0.26l0.392,-0.266l0.391,-0.261l0.386,-0.254l0.402,-0.261l0.394,-0.251l0.401,-0.253l0.413,-0.256l0.409,-0.25l0.412,-0.25l0.421,-0.25l0.425,-0.25l0.42,-0.244l0.432,-0.248l0.441,-0.249l0.43,-0.241l0.444,-0.246l0.447,-0.243l0.446,-0.242l0.465,-0.249l0.459,-0.242l0.458,-0.239l0.472,-0.244l0.479,-0.246l0.475,-0.24l0.483,-0.243l0.485,-0.241l0.495,-0.244l0.502,-0.244l0.499,-0.242l0.512,-0.245l0.513,-0.243l0.515,-0.243l0.53,-0.247l0.527,-0.243l0.531,-0.245l0.546,-0.248l0.537,-0.243l0.551,-0.247l0.565,-0.252l0.563,-0.248l0.56,-0.246l0.576,-0.252l0.583,-0.251l0.584,-0.251l0.588,-0.251l0.597,-0.254l0.605,-0.255l0.612,-0.256l0.616,-0.256l0.619,-0.257l0.626,-0.257l0.635,-0.26l0.644,-0.261l0.642,-0.26l0.654,-0.263l0.66,-0.264l0.664,-0.265l0.671,-0.266l0.682,-0.268l0.684,-0.269l0.693,-0.27l0.703,-0.273l0.699,-0.271l0.712,-0.274l0.722,-0.277l0.725,-0.276l0.734,-0.28l0.741,-0.28l0.747,-0.281l0.753,-0.283l0.758,-0.284l0.771,-0.288l0.776,-0.288l0.78,-0.288l0.793,-0.293l0.795,-0.292l0.801,-0.294l0.817,-0.298l0.819,-0.298l0.824,-0.299l0.833,-0.301l0.843,-0.304l0.85,-0.306l0.853,-0.305l0.864,-0.31l0.873,-0.311l0.881,-0.313l0.89,-0.316l1.794,-0.634l1.831,-0.644l1.859,-0.65l1.892,-0.66l1.926,-0.669l1.958,-0.676l1.99,-0.686l2.022,-0.693l2.057,-0.705l2.092,-0.712l2.122,-0.722l2.159,-0.732l2.195,-0.742l2.227,-0.751l2.263,-0.761l2.297,-0.771l2.333,-0.782l2.371,-0.792l2.257,-0.753l2.296,-0.815l2.481,-0.879l2.518,-0.89l2.553,-0.9l2.587,-0.91l2.619,-0.919l2.653,-0.929l2.685,-0.939l2.719,-0.948l2.75,-0.957l2.78,-0.966l2.81,-0.975l2.84,-0.983l2.87,-0.992l2.899,-1l2.926,-1.007l2.953,-1.016l2.981,-1.023l3.006,-1.03l3.034,-1.039l3.059,-1.045l3.082,-1.051l3.106,-1.058l3.131,-1.066l3.154,-1.071l3.175,-1.077l3.198,-1.083l3.217,-1.089l3.241,-1.095l3.259,-1.1l3.279,-1.105l3.299,-1.11l3.315,-1.115l3.334,-1.119l3.351,-1.124l3.369,-1.128l3.384,-1.132l3.4,-1.137l3.414,-1.139l3.429,-1.143l3.443,-1.147l3.456,-1.149l3.468,-1.153l3.482,-1.155l3.491,-1.157l3.502,-1.16l3.515,-1.163l3.523,-1.164l3.531,-1.165l3.543,-1.168l3.549,-1.169l3.555,-1.17l3.564,-1.171l3.57,-1.172l3.575,-1.173l3.583,-1.173l3.584,-1.173l3.589,-1.173l3.593,-1.174l3.596,-1.173l3.598,-1.172l3.6,-1.172l3.601,-1.171l3.601,-1.169l3.601,-1.169l3.601,-1.167l3.6,-1.165l3.598,-1.164l3.596,-1.162l3.594,-1.159l3.589,-1.157l3.586,-1.154l3.58,-1.152l3.576,-1.149l3.571,-1.145l3.563,-1.142l3.556,-1.139l3.55,-1.135l3.541,-1.131l3.534,-1.127l3.523,-1.123l3.514,-1.118l3.503,-1.113l3.492,-1.109l3.482,-1.104l3.47,-1.099l3.456,-1.092l3.443,-1.088l3.43,-1.081l3.416,-1.076l3.399,-1.069l3.385,-1.064l3.37,-1.056l3.351,-1.05l3.335,-1.043l3.318,-1.035l3.299,-1.029l3.28,-1.021l3.259,-1.013l3.241,-1.006l3.221,-0.997l3.199,-0.989l3.177,-0.981l3.154,-0.971l3.132,-0.964l3.108,-0.954l3.085,-0.945l3.058,-0.935l3.034,-0.927l3.011,-0.917l2.982,-0.906l2.954,-0.896l2.929,-0.886l2.9,-0.875l2.872,-0.866l2.843,-0.853l2.813,-0.843l2.782,-0.832l2.751,-0.82l2.722,-0.809l2.688,-0.796l2.656,-0.785l2.624,-0.773l2.587,-0.76l2.557,-0.748l2.522,-0.735l2.484,-0.722l2.45,-0.709l2.414,-0.697l2.379,-0.682l2.342,-0.67l2.306,-0.656l1.144,-0.324l1.128,-0.319l1.124,-0.318l1.116,-0.314l1.105,-0.31l1.099,-0.308l1.088,-0.303l1.08,-0.301l1.072,-0.298l1.066,-0.295l1.054,-0.291l1.048,-0.288l1.041,-0.285l1.027,-0.281l1.023,-0.279l1.018,-0.276l1.006,-0.273l0.999,-0.269l0.99,-0.266l0.983,-0.263l0.976,-0.26l0.967,-0.257l0.96,-0.254l0.952,-0.25l0.944,-0.248l0.934,-0.244l0.93,-0.242l0.922,-0.238l0.914,-0.236l0.908,-0.232l0.895,-0.229l0.893,-0.227l0.887,-0.223l0.875,-0.22l0.871,-0.218l0.859,-0.213l0.858,-0.212l0.85,-0.209l0.84,-0.205l0.832,-0.201l0.83,-0.201l0.823,-0.196l0.808,-0.193l0.81,-0.191l0.803,-0.188l0.792,-0.184l0.786,-0.182l0.778,-0.179l0.774,-0.175l0.765,-0.173l0.766,-0.172l0.754,-0.167l0.747,-0.164l0.746,-0.162l0.731,-0.158l0.728,-0.156l0.729,-0.154l0.713,-0.149l0.711,-0.147l0.705,-0.145l0.7,-0.142l0.695,-0.138l0.688,-0.137l0.684,-0.133l0.672,-0.129l0.671,-0.128l0.667,-0.125l0.662,-0.122l0.65,-0.119l0.651,-0.116l0.646,-0.114l0.635,-0.11l0.635,-0.109l0.632,-0.105l0.619,-0.102l0.614,-0.099l0.617,-0.097l0.605,-0.094l0.608,-0.092l0.602,-0.088l0.585,-0.085l0.588,-0.083l0.588,-0.08l0.585,-0.078l0.576,-0.074l0.57,-0.072l0.564,-0.068l0.563,-0.066l0.566,-0.064l0.554,-0.06l0.55,-0.057l0.546,-0.055l0.536,-0.051l0.548,-0.05l0.535,-0.045l0.525,-0.043l0.538,-0.041l0.526,-0.037l0.524,-0.034l0.52,-0.031l0.509,-0.028l0.514,-0.026l0.512,-0.022l0.5,-0.019l0.506,-0.016l0.505,-0.013l0.501,-0.01l0.5,-0.006l0.487,-0.003l0.485,0l0.493,0.003Z" style="fill:#205d76;"/><path d="M705.479,595.534c-13.743,6.872 -16.034,18.324 -13.743,176.37c4.581,155.755 13.743,458.103 20.614,609.277c4.581,151.174 9.162,148.883 123.688,146.593c116.816,-4.581 343.577,-13.743 464.975,-18.324c121.397,-4.581 135.14,-6.872 135.14,-164.918c0,-155.755 -13.743,-471.846 -20.615,-632.182c-4.581,-162.626 -4.581,-171.788 -112.235,-169.498c-107.654,2.291 -322.962,18.324 -442.069,29.777c-119.107,9.162 -142.012,13.743 -155.755,22.905Z" style="fill:#ffa09e;"/><path d="M1055.93,634.473c34.357,0 66.425,13.743 89.33,36.648c22.905,25.196 38.938,57.263 38.938,91.621c0,4.581 0,6.871 0,9.162c-2.29,25.195 -2.29,50.391 -2.29,71.006c0,34.357 2.29,64.134 6.871,82.458c4.581,11.453 9.163,16.034 13.744,20.615c6.871,4.581 16.033,4.581 22.905,4.581c4.581,-2.291 9.162,-4.581 13.743,-6.872c4.581,-2.29 6.871,-4.581 9.162,-9.162c0,-2.29 0,-6.871 0,-9.162c0,-4.581 0,-9.162 -2.291,-11.452c-4.581,-9.162 -13.743,-16.034 -22.905,-22.906c-6.871,-6.871 -9.162,-18.324 -4.581,-25.195c2.291,0 2.291,-2.291 2.291,-2.291c6.871,-9.162 18.324,-9.162 27.486,-2.29c11.452,9.162 25.196,18.324 32.067,34.357c4.581,9.163 6.872,18.325 6.872,27.487c0,9.162 0,20.614 -4.581,27.486c-4.581,11.452 -11.453,18.324 -20.615,25.196c-9.162,6.871 -20.615,9.162 -32.067,11.452c-11.453,2.291 -25.196,2.291 -38.939,-4.581c-2.291,0 -6.872,-2.29 -9.162,-4.581c-11.453,-6.872 -22.905,-20.615 -29.777,-41.229c-2.29,-6.872 -2.29,-13.743 -4.581,-22.905c-2.29,-16.034 -4.581,-36.649 -4.581,-57.263c-4.581,4.581 -9.162,6.871 -13.743,11.452c0,11.453 0,25.196 0,36.649c0,16.033 2.291,29.776 2.291,45.81c2.29,27.486 4.581,52.682 9.162,71.006c4.581,16.033 9.162,25.195 13.743,32.067c6.871,4.581 11.452,9.162 16.033,11.453c6.872,0 11.453,2.29 13.743,2.29c4.581,0 6.872,0 11.453,-2.29c2.291,0 4.581,-2.291 6.872,-4.581c2.29,-2.291 4.581,-4.581 4.581,-6.872c2.29,0 2.29,-2.29 2.29,-4.581c0,-2.291 0,-2.291 0,-4.581c-2.29,-2.291 -2.29,-2.291 -2.29,-4.581c-2.291,-2.291 -4.581,-4.581 -6.872,-6.872c-6.872,-6.871 -4.581,-20.614 2.291,-27.486l2.29,0c6.872,-6.871 18.324,-4.581 25.196,2.291c2.29,2.29 4.581,6.871 6.871,9.162c4.581,4.581 6.872,9.162 6.872,13.743c2.29,6.871 4.581,13.743 4.581,20.615c0,6.871 -2.291,13.743 -4.581,20.614c-4.581,6.872 -9.162,11.453 -16.034,18.324c-4.581,4.581 -11.452,9.162 -18.324,11.453c-6.871,2.29 -16.034,4.581 -25.196,4.581c-9.162,0 -18.324,-2.291 -27.486,-6.872c-9.162,-2.29 -20.614,-9.162 -29.776,-20.614c-9.163,-11.453 -18.325,-25.196 -22.906,-48.101c-6.871,-20.615 -9.162,-48.101 -11.452,-77.878c0,-20.614 -2.291,-43.519 -2.291,-66.425c-4.581,2.291 -11.452,2.291 -16.033,4.581l0,219.89c0,11.453 0,22.905 2.29,32.067c2.291,2.291 2.291,4.581 4.581,6.872c2.291,0 2.291,2.29 4.581,2.29c2.291,0 6.872,2.291 9.162,2.291c2.291,-2.291 4.581,-2.291 6.872,-2.291c0,-2.29 2.29,-2.29 2.29,-4.581c2.291,0 2.291,-2.29 2.291,-2.29c2.29,-2.291 2.29,-4.581 2.29,-6.872c-2.29,-2.29 -2.29,-4.581 -2.29,-6.871c-2.291,-2.291 -4.581,-4.581 -6.872,-9.162c-6.871,-6.872 -9.162,-18.325 0,-25.196c6.872,-9.162 18.324,-9.162 27.487,-2.291c4.581,6.872 11.452,11.453 16.033,22.905c0,4.582 2.291,11.453 2.291,18.325c2.29,4.581 0,11.452 0,18.324c-2.291,6.871 -4.581,13.743 -9.162,18.324c-4.581,6.871 -11.453,11.452 -18.325,13.743c-6.871,2.29 -13.743,4.581 -22.905,4.581c-6.871,2.29 -13.743,0 -20.614,-2.291c-9.162,-2.29 -16.034,-6.871 -20.615,-13.743c-6.872,-4.581 -9.162,-11.452 -13.743,-20.614c-2.291,-11.453 -4.581,-22.905 -4.581,-36.649l0,-6.871l0,-2.291l0,-217.599c-4.581,-2.29 -9.162,-2.29 -16.034,-4.581c2.291,43.52 2.291,82.459 0,116.817c-2.29,22.905 -2.29,41.229 -6.871,57.263c-2.291,18.324 -9.162,34.357 -18.324,45.81c-6.872,11.452 -18.324,18.324 -29.777,22.905c-13.743,4.581 -27.486,4.581 -41.229,2.291c-9.162,-2.291 -18.324,-6.872 -25.196,-11.453c-9.162,-6.872 -16.034,-13.743 -20.615,-20.615c-4.581,-6.871 -6.871,-13.743 -9.162,-20.614c-2.29,-9.162 -2.29,-16.034 -2.29,-22.905c0,-6.872 2.29,-11.453 2.29,-18.325c2.291,-4.581 4.581,-11.452 9.162,-16.033c2.291,-2.291 4.581,-6.872 9.162,-9.162c2.291,-2.291 4.581,-4.581 6.872,-6.872c6.872,-6.871 16.034,-6.871 25.196,-2.29c0,2.29 2.29,2.29 2.29,4.581c6.872,6.871 6.872,18.324 -2.29,25.195c-2.291,2.291 -4.581,4.581 -4.581,6.872c-2.291,0 -4.581,2.29 -4.581,4.581c-2.291,2.29 -2.291,4.581 -4.581,6.872l0,16.033c2.29,4.581 2.29,6.872 4.581,11.453c2.29,2.29 6.871,6.871 9.162,9.162c4.581,2.29 6.871,4.581 13.743,4.581c4.581,2.29 11.452,2.29 18.324,0c4.581,-2.291 9.162,-4.581 13.743,-9.162c4.581,-6.872 9.162,-16.034 11.453,-29.777c2.29,-13.743 4.581,-32.067 4.581,-50.391c2.29,-27.486 2.29,-59.554 2.29,-93.911c0,-13.744 0,-27.487 -2.29,-41.23c-4.581,-2.29 -9.163,-6.871 -13.744,-11.452l0,2.29c0,27.486 -2.29,52.682 -6.871,71.006c0,2.291 -2.291,4.581 -2.291,6.872c-6.871,18.324 -13.743,29.776 -25.195,38.939c0,0 -2.291,2.29 -4.581,2.29c-16.034,11.453 -32.068,11.453 -48.101,9.162c-11.453,-2.29 -22.905,-4.581 -29.777,-11.452c-9.162,-6.872 -18.324,-13.744 -22.905,-25.196c-2.29,-6.872 -4.581,-16.034 -4.581,-22.905c0,-11.453 0,-20.615 2.291,-27.486c6.871,-13.744 13.743,-20.615 22.905,-27.487c6.871,-6.871 20.614,-4.581 25.195,4.581c2.291,0 2.291,0 2.291,2.291c4.581,6.871 2.29,18.324 -4.581,25.196c-4.581,2.29 -6.872,4.581 -9.162,9.162c0,2.29 0,6.871 0,11.452c0,2.291 0,6.872 2.29,9.162c0,4.581 4.581,6.872 6.872,9.162c4.581,2.291 9.162,4.581 16.033,6.872c6.872,0 13.744,0 20.615,-4.581c4.581,-4.581 9.162,-9.162 13.743,-20.615c4.581,-16.033 6.872,-38.939 6.872,-66.425l0,-80.168c0,-6.871 -2.291,-11.452 -2.291,-16.033c0,-34.358 16.034,-66.425 38.939,-91.621c22.905,-22.905 54.972,-36.648 91.621,-36.648ZM1007.83,723.803c6.871,0 13.743,6.871 13.743,13.743c0,4.581 0,6.871 0,9.162c-4.581,-6.872 -9.162,-9.162 -13.743,-9.162c-6.872,0 -11.453,2.29 -16.034,9.162c0,-2.291 0,-4.581 0,-9.162c0,-6.872 6.872,-13.743 16.034,-13.743ZM1104.03,723.803c6.872,0 13.743,6.871 13.743,13.743c0,4.581 0,6.871 0,9.162c-2.29,-6.872 -9.162,-9.162 -13.743,-9.162c-6.871,0 -11.452,2.29 -13.743,9.162c-2.29,-2.291 -2.29,-4.581 -2.29,-9.162c0,-6.872 6.871,-13.743 16.033,-13.743Z" style="fill:#fff;"/><path d="M879.558,1294.14c73.296,-4.581 144.302,-9.162 208.437,-11.452c64.134,-2.291 119.107,-2.291 176.369,-2.291" style="fill:none;stroke-width:15.91px;stroke:#fff;"/><path d="M881.848,1342.24c73.297,-4.581 144.303,-6.872 208.437,-9.162c64.135,-2.291 119.107,-4.581 176.37,-4.581" style="fill:none;stroke-width:15.91px;stroke:#fff;"/><path d="M884.139,1394.92c48.101,-2.291 96.202,-4.581 139.721,-6.872c43.52,-2.29 82.459,-2.29 119.107,0" style="fill:none;stroke-width:15.91px;stroke:#fff;"/></g></svg>