<?xml version="1.0" standalone="no"?><!DOCTYPE svg PUBLIC "-//W3C//DTD SVG 1.1//EN" "http://www.w3.org/Graphics/SVG/1.1/DTD/svg11.dtd"><svg width="100%" height="100%" viewBox="0 0 1963 1963" version="1.1" xmlns="http://www.w3.org/2000/svg" xmlns:xlink="http://www.w3.org/1999/xlink" xml:space="preserve" style="fill-rule:evenodd;clip-rule:evenodd;stroke-linecap:round;stroke-linejoin:round;stroke-miterlimit:1.41421;"><g id="_796207920_"><path d="M769.929,1199.71c9.194,128.704 16.088,128.704 142.495,131.003c126.406,2.298 370.025,6.895 498.73,4.596c128.705,-4.596 142.494,-16.088 149.389,-147.091c6.895,-131.003 9.194,-381.517 9.194,-512.52c-2.299,-131.003 -9.194,-142.494 -137.898,-144.793c-131.003,-4.596 -386.114,-2.298 -519.415,4.597c-135.6,4.597 -149.39,13.79 -151.688,147.091c-4.596,131.003 2.298,388.412 9.193,517.117Z" style="fill:none;stroke-width:31.91px;stroke:#205d76;"/><g><path d="M1264.06,680.296c-52.861,-2.299 -105.722,-2.299 -140.196,4.596c-32.176,6.895 -48.264,22.983 -62.054,41.37c-13.79,18.386 -22.983,36.772 -22.983,62.054c2.298,25.281 18.386,55.159 41.369,75.843c22.983,18.387 57.458,29.878 73.546,36.773c16.088,4.597 16.088,4.597 16.088,13.79c-2.298,6.895 -2.298,20.685 6.895,32.176c6.895,11.492 27.579,22.983 43.667,39.071c13.79,13.79 25.282,34.475 32.177,55.159c4.596,20.685 6.894,39.071 2.298,59.756c-4.597,18.386 -13.79,36.773 -48.264,45.966c-36.773,11.491 -96.529,16.088 -140.196,0c-45.966,-13.79 -75.844,-45.966 -71.248,-75.844c2.299,-29.878 36.773,-57.457 71.248,-75.844c34.474,-20.684 68.948,-29.877 87.335,-43.667c16.088,-11.492 16.088,-25.282 16.088,-34.475c0,-11.491 0,-16.088 9.193,-27.579c11.492,-11.492 32.176,-27.58 45.966,-45.966c11.492,-18.387 16.088,-39.071 13.79,-59.756c0,-20.685 -4.597,-43.668 -20.685,-62.054c-13.79,-18.386 -36.773,-29.878 -55.159,-34.474c-18.386,-4.597 -27.58,-4.597 -39.071,-2.299" style="fill:none;stroke-width:31.91px;stroke:#ffa09e;"/><path d="M1307.73,905.529c45.966,0 91.932,0 137.898,0" style="fill:none;stroke-width:31.91px;stroke:#ffa09e;"/><path d="M1374.38,843.475c0,45.966 0,91.932 0,135.599" style="fill:none;stroke-width:31.91px;stroke:#ffa09e;"/></g><path d="M510.222,1089.39c-110.318,2.298 -110.318,6.894 -112.617,59.755c-2.298,55.159 -6.895,160.881 -2.298,216.04c2.298,55.159 11.491,59.756 124.108,64.352c114.915,2.299 330.955,4.597 443.571,2.299c112.617,0 121.81,-2.299 126.407,-57.458c2.298,-57.457 0,-165.477 -4.597,-225.233c-4.597,-57.457 -11.492,-64.352 -126.406,-64.352c-114.915,-2.298 -335.552,2.298 -448.168,4.597Z" style="fill:#ffc122;"/><path d="M611.347,1312.33c-4.597,9.193 -9.193,13.79 -18.387,18.387c-9.193,6.895 -20.684,9.193 -34.474,9.193c-13.79,0 -20.685,-2.298 -27.58,-9.193c-4.596,-4.597 -9.193,-11.492 -9.193,-20.685c0,-9.193 4.597,-18.386 9.193,-22.983c6.895,-4.597 18.387,-9.193 32.177,-11.491c13.789,-2.299 25.281,-4.597 34.474,-6.895c6.895,-2.299 11.492,-4.597 13.79,-6.895l0,50.562ZM572.276,1185.92c-16.088,0 -29.878,4.597 -41.37,11.491c-9.193,9.194 -16.088,20.685 -18.386,34.475c0,4.597 0,6.895 2.298,6.895c2.299,2.298 2.299,4.596 4.597,4.596c4.597,0 6.895,-2.298 6.895,-2.298c2.298,-2.298 4.596,-4.596 4.596,-6.895c0,-9.193 4.597,-16.088 11.492,-22.983c4.597,-4.596 16.088,-6.895 29.878,-6.895c13.79,0 22.983,2.299 29.878,6.895c6.895,4.597 9.193,11.492 9.193,20.685c0,9.193 -2.298,16.088 -6.895,18.386c-6.895,2.299 -20.685,6.895 -41.369,9.193c-25.282,2.299 -41.37,9.194 -50.563,20.685c-4.596,6.895 -9.193,16.088 -9.193,29.878c0,13.79 4.597,25.281 13.79,34.474c9.193,6.895 22.983,11.492 41.369,11.492c11.492,0 22.983,-2.298 34.474,-6.895c6.895,-2.298 13.79,-6.895 20.685,-13.79c0,6.895 0,11.492 4.597,13.79c4.596,2.298 11.491,4.597 22.983,4.597c2.298,0 4.596,-2.299 6.895,-4.597c2.298,0 2.298,-2.298 2.298,-4.597c0,-2.298 -2.298,-4.596 -2.298,-6.894c-2.299,0 -4.597,-2.299 -6.895,-2.299c-2.299,0 -4.597,0 -6.895,-2.298c-2.298,-2.298 -4.597,-4.597 -4.597,-6.895l0,-94.23c0,-16.088 -4.596,-27.58 -16.088,-34.475c-9.193,-6.894 -22.983,-11.491 -41.369,-11.491Z" style="fill:#205d76;fill-rule:nonzero;"/><path id="1" d="M815.895,1137.66c0,-2.299 -2.298,-4.597 -4.596,-6.895c0,-2.298 -2.299,-2.298 -4.597,-2.298c-2.298,0 -4.597,0 -6.895,2.298c-2.298,2.298 -2.298,4.596 -2.298,6.895l0,75.844c-6.895,-9.194 -13.79,-16.089 -22.983,-18.387c-6.895,-4.596 -18.386,-6.895 -29.878,-6.895c-20.685,0 -39.071,6.895 -52.861,25.282c-9.193,16.088 -16.088,34.474 -16.088,59.755c0,22.983 6.895,41.37 16.088,57.458c13.79,16.088 32.176,25.281 52.861,25.281c13.79,0 22.983,-2.298 32.176,-6.895c9.193,-4.597 16.088,-11.491 20.685,-18.386l0,13.789c0,2.299 0,4.597 2.298,6.895c2.298,0 4.597,2.299 6.895,2.299c2.298,0 4.597,0 4.597,-2.299c2.298,-2.298 4.596,-4.596 4.596,-6.895l0,-206.846ZM744.648,1204.31c18.386,0 29.878,6.895 39.071,20.685c9.193,11.492 13.79,27.58 13.79,48.264c0,18.387 -4.597,32.176 -13.79,45.966c-9.193,13.79 -20.685,20.685 -39.071,20.685c-16.088,0 -27.579,-6.895 -36.773,-20.685c-9.193,-13.79 -13.789,-27.579 -13.789,-45.966c0,-20.684 4.596,-36.772 13.789,-48.264c9.194,-13.79 20.685,-20.685 36.773,-20.685Z" style="fill:#205d76;fill-rule:nonzero;"/><path id="2" d="M917.02,1185.92c-16.088,0 -29.878,4.597 -39.071,11.491c-11.491,6.895 -16.088,18.387 -16.088,32.177c0,11.491 4.597,20.684 13.79,27.579c6.895,6.895 20.685,13.79 36.773,18.387c20.684,4.596 32.176,9.193 39.071,16.088c6.895,4.596 9.193,9.193 9.193,18.386c0,9.193 -2.298,16.088 -9.193,20.685c-6.895,6.895 -18.387,9.193 -29.878,9.193c-16.088,0 -27.58,-2.298 -34.475,-9.193c-6.894,-4.597 -9.193,-13.79 -9.193,-22.983c0,-2.299 -2.298,-4.597 -2.298,-6.895c-2.298,0 -4.597,-2.298 -6.895,-2.298c-2.298,0 -4.597,2.298 -6.895,2.298c-2.298,2.298 -2.298,4.596 -2.298,6.895c0,16.088 6.895,27.579 16.088,36.772c11.491,6.895 25.281,11.492 45.966,11.492c18.386,0 34.474,-4.597 43.668,-13.79c9.193,-6.895 16.088,-18.386 16.088,-32.176c0,-13.79 -4.597,-22.983 -13.79,-29.878c-6.895,-9.193 -22.983,-16.088 -43.668,-20.685c-16.088,-4.596 -27.579,-9.193 -34.474,-13.789c-6.895,-4.597 -9.193,-11.492 -9.193,-18.387c0,-6.895 4.596,-13.789 9.193,-18.386c6.895,-4.597 16.088,-4.597 25.281,-4.597c13.79,0 25.281,2.299 29.878,6.895c6.895,4.597 11.491,11.492 11.491,18.387c0,4.596 2.299,6.895 4.597,6.895c2.298,2.298 2.298,2.298 6.895,2.298c2.298,0 4.596,-2.298 6.895,-2.298c0,-2.299 2.298,-4.597 2.298,-6.895c-2.298,-13.79 -6.895,-22.983 -16.088,-29.878c-9.193,-9.193 -25.281,-13.79 -43.668,-13.79Z" style="fill:#205d76;fill-rule:nonzero;"/></g></svg>