<?xml version="1.0" standalone="no"?><!DOCTYPE svg PUBLIC "-//W3C//DTD SVG 1.1//EN" "http://www.w3.org/Graphics/SVG/1.1/DTD/svg11.dtd"><svg width="100%" height="100%" viewBox="0 0 1961 1961" version="1.1" xmlns="http://www.w3.org/2000/svg" xmlns:xlink="http://www.w3.org/1999/xlink" xml:space="preserve" style="fill-rule:evenodd;clip-rule:evenodd;stroke-linecap:round;stroke-linejoin:round;stroke-miterlimit:1.41421;"><g id="_801118896_"><path d="M849.443,539.511c-140.043,6.888 -140.043,13.775 -142.339,140.043c-2.296,126.269 -6.887,371.919 -4.592,500.483c4.592,128.565 16.071,140.044 158.41,146.931c142.339,9.183 413.243,11.479 555.582,9.183c142.339,0 156.114,-6.887 158.409,-137.747c4.592,-128.565 2.296,-383.398 -4.591,-518.85c-6.888,-133.155 -16.071,-146.93 -158.41,-151.522c-144.635,-2.296 -422.426,4.592 -562.469,11.479Z" style="fill:none;stroke-width:31.88px;stroke:#205d76;"/><rect x="704.808" y="792.179" width="312.228" height="31.879" style="fill:#205d76;"/><rect x="1281.05" y="796.771" width="293.861" height="31.879" style="fill:#205d76;"/><path d="M1388.95,592.314c-18.366,2.296 -18.366,2.296 -18.366,18.367c0,16.07 -2.296,48.211 -2.296,66.578c2.296,16.07 2.296,18.366 22.958,18.366c18.366,2.296 52.803,2.296 71.17,2.296c20.662,0 20.662,-2.296 20.662,-18.367c2.296,-18.366 0,-50.507 0,-68.873c0,-18.367 -2.296,-18.367 -20.662,-20.662c-18.367,0 -55.099,2.295 -73.466,2.295Z" style="fill:#62d4d4;"/><circle cx="1141.01" cy="893.063" r="215.804" style="fill:#ffa09e;"/><path d="M500.483,1088.21c-112.494,2.295 -112.494,6.887 -112.494,59.69c-2.296,55.099 -6.887,160.706 -4.592,215.805c4.592,55.099 13.775,61.986 126.269,64.282c112.494,2.296 328.298,4.591 443.088,4.591c112.494,-2.295 121.677,-4.591 123.973,-59.69c4.591,-57.395 2.295,-165.297 -4.592,-224.988c-4.592,-57.395 -11.479,-61.986 -126.269,-64.282c-112.493,-2.296 -335.185,2.296 -445.383,4.592Z" style="fill:#ffc122;"/><path d="M601.498,1310.9c-4.592,9.184 -11.479,16.071 -20.663,20.662c-9.183,4.592 -20.662,6.888 -34.436,6.888c-11.479,0 -20.663,-2.296 -25.254,-6.888c-6.888,-6.887 -9.183,-13.774 -9.183,-22.957c0,-9.184 2.295,-18.367 9.183,-22.958c6.887,-4.592 16.07,-9.184 29.845,-11.479c16.071,-2.296 27.55,-4.592 36.733,-6.888c6.887,-2.295 11.479,-4.591 13.775,-6.887l0,50.507ZM560.173,1186.92c-16.07,0 -29.845,2.295 -39.028,9.183c-11.479,9.183 -16.071,20.662 -18.367,34.437c-2.295,4.591 0,6.887 0,6.887c2.296,2.296 4.592,4.592 6.888,4.592c2.296,0 4.591,0 6.887,-2.296c2.296,-2.296 2.296,-4.592 4.592,-6.888c0,-9.183 4.591,-16.07 9.183,-20.662c6.887,-6.887 16.071,-9.183 29.845,-9.183c13.775,0 25.254,2.296 32.141,6.887c6.888,4.592 9.184,11.479 9.184,22.958c0,6.888 -2.296,13.775 -9.184,16.071c-6.887,4.592 -18.366,6.887 -41.324,9.183c-22.958,4.592 -39.028,9.183 -48.212,20.662c-6.887,6.888 -9.183,16.071 -9.183,29.846c0,13.774 4.592,25.253 13.775,34.436c9.183,6.888 20.662,11.479 39.029,11.479c13.774,0 25.253,-2.295 34.436,-6.887c9.184,-2.296 16.071,-6.887 20.663,-13.775c0,6.888 2.295,11.479 4.591,13.775c4.592,2.296 13.775,4.592 25.254,4.592c2.296,0 4.591,-2.296 6.887,-2.296c0,-2.296 0,-4.592 0,-6.888c0,-2.295 0,-4.591 -2.296,-6.887c0,0 -2.295,-2.296 -4.591,-2.296c-4.592,0 -6.888,0 -9.183,-2.296c-2.296,-2.295 -2.296,-4.591 -2.296,-6.887l0,-94.127c0,-16.071 -4.592,-27.55 -16.071,-34.437c-11.479,-6.888 -25.253,-9.183 -43.62,-9.183Z" style="fill:#205d76;fill-rule:nonzero;"/><path id="1" d="M803.527,1136.42c0,-2.296 0,-4.591 -2.296,-6.887c-2.295,-2.296 -4.591,-2.296 -6.887,-2.296c-2.296,0 -4.591,0 -6.887,2.296c0,2.296 -2.296,4.591 -2.296,6.887l0,78.057c-4.592,-9.183 -13.775,-16.07 -20.662,-20.662c-9.183,-4.592 -18.367,-6.887 -29.845,-6.887c-22.958,0 -41.325,9.183 -52.804,25.253c-11.479,16.071 -16.07,34.437 -16.07,59.691c0,22.958 4.591,41.324 16.07,57.395c11.479,18.366 29.846,25.253 52.804,25.253c11.478,0 22.957,-2.295 32.141,-6.887c9.183,-4.592 13.774,-11.479 18.366,-18.366l0,13.774c0,2.296 2.296,4.592 2.296,6.888c2.296,0 4.591,2.296 6.887,2.296c2.296,0 4.592,0 6.887,-2.296c2.296,-2.296 2.296,-4.592 2.296,-6.888l0,-206.621ZM734.654,1203c16.07,0 29.845,6.887 39.028,20.662c6.887,13.775 11.479,27.55 11.479,48.212c0,18.366 -4.592,34.437 -11.479,45.916c-9.183,13.774 -22.958,20.662 -39.028,20.662c-16.071,0 -29.846,-6.888 -39.029,-20.662c-6.887,-11.479 -11.479,-27.55 -11.479,-45.916c0,-20.662 4.592,-34.437 11.479,-48.212c9.183,-13.775 22.958,-20.662 39.029,-20.662Z" style="fill:#205d76;fill-rule:nonzero;"/><path id="2" d="M904.542,1186.92c-16.07,0 -27.549,2.295 -39.028,9.183c-9.184,6.887 -16.071,18.366 -16.071,32.141c0,11.479 4.592,20.662 13.775,29.845c9.183,6.888 20.662,11.479 39.028,16.071c18.367,4.591 32.141,9.183 39.029,16.07c6.887,4.592 9.183,11.479 9.183,18.367c0,9.183 -4.592,16.07 -11.479,20.662c-6.887,6.887 -16.071,9.183 -29.845,9.183c-13.775,0 -25.254,-2.296 -32.141,-9.183c-6.888,-4.592 -9.184,-13.775 -9.184,-22.958c-2.295,-2.296 -2.295,-4.592 -4.591,-6.888c-2.296,0 -4.592,-2.295 -6.888,-2.295c-2.295,0 -4.591,2.295 -6.887,2.295c0,2.296 -2.296,4.592 -2.296,6.888c2.296,16.07 6.888,27.549 18.367,36.732c9.183,6.888 25.253,11.479 43.62,11.479c20.662,0 34.437,-4.591 45.916,-13.774c9.183,-6.888 13.774,-18.367 13.774,-32.141c0,-13.775 -4.591,-22.958 -11.479,-29.846c-9.183,-9.183 -22.958,-16.07 -43.62,-20.662c-18.366,-4.591 -29.845,-9.183 -34.437,-13.775c-6.887,-4.591 -9.183,-11.479 -9.183,-18.366c0,-6.887 2.296,-13.775 9.183,-18.366c6.888,-2.296 16.071,-4.592 25.254,-4.592c13.775,0 22.958,2.296 29.845,6.887c6.888,4.592 9.184,11.479 11.479,20.663c0,2.295 0,4.591 2.296,4.591c2.296,2.296 4.592,2.296 6.888,2.296c2.295,0 4.591,0 6.887,-2.296c2.296,-2.296 2.296,-4.591 2.296,-6.887c0,-11.479 -4.592,-22.958 -13.775,-29.845c-11.479,-9.184 -25.254,-11.479 -45.916,-11.479Z" style="fill:#205d76;fill-rule:nonzero;"/></g></svg>