<?xml version="1.0" standalone="no"?><!DOCTYPE svg PUBLIC "-//W3C//DTD SVG 1.1//EN" "http://www.w3.org/Graphics/SVG/1.1/DTD/svg11.dtd"><svg width="100%" height="100%" viewBox="0 0 1969 1969" version="1.1" xmlns="http://www.w3.org/2000/svg" xmlns:xlink="http://www.w3.org/1999/xlink" xml:space="preserve" style="fill-rule:evenodd;clip-rule:evenodd;stroke-linecap:round;stroke-linejoin:round;stroke-miterlimit:1.41421;"><g id="_804775344_"><path d="M1041.62,366.41c-32.262,-18.435 -66.829,-32.262 -99.092,-34.567c-29.958,0 -55.307,13.827 -80.656,32.263c-25.349,16.131 -48.394,36.871 -59.916,59.916c-11.523,20.74 -13.827,43.785 -6.914,71.439c6.914,25.349 23.045,55.307 29.958,82.96c9.218,29.958 9.218,59.917 4.609,101.397c-4.609,41.48 -11.522,96.788 -32.262,135.964c-18.436,39.176 -48.394,66.829 -106.006,99.092c-57.611,34.567 -140.572,76.047 -191.27,108.31c-53.003,32.262 -73.743,55.307 -80.657,96.787c-4.609,41.481 6.914,101.397 23.045,161.313c16.131,62.221 39.176,122.137 80.656,177.444c43.785,55.307 110.615,106.006 202.793,138.268c94.484,29.958 214.316,41.481 308.799,39.176c94.483,-4.609 159.008,-23.045 225.838,-48.394c66.829,-25.349 133.659,-57.611 184.357,-122.136c48.394,-66.83 82.961,-165.922 96.788,-232.752c13.827,-64.525 11.522,-96.787 -43.785,-147.486c-53.003,-50.698 -159.008,-117.528 -235.056,-159.008c-73.743,-43.785 -115.223,-57.612 -140.572,-106.005c-23.045,-46.09 -32.263,-124.442 -34.567,-177.444c-4.609,-55.308 -4.609,-85.266 2.304,-106.006c4.609,-20.74 18.436,-29.958 27.654,-46.089c6.913,-16.132 11.522,-41.481 0,-62.221c-13.827,-23.045 -41.481,-43.785 -76.048,-62.221Z" style="fill:none;stroke-width:32px;stroke:#205d76;"/><path d="M790.432,442.458c13.827,16.131 29.959,32.262 53.003,43.785c20.74,9.218 50.699,11.522 85.266,11.522c32.262,0 69.134,-2.304 99.092,-9.218c29.958,-6.913 50.698,-20.74 71.438,-32.262" style="fill:none;stroke-width:32px;stroke:#205d76;"/><path d="M419.413,1119.97c39.176,27.654 76.048,55.308 159.008,73.743c80.657,20.741 205.098,32.263 331.844,34.567c129.05,0 260.405,-6.913 354.888,-18.435c92.179,-11.523 149.79,-27.654 205.097,-46.09" style="fill:none;stroke-width:32px;stroke:#205d76;"/><path d="M1094.62,914.874c50.698,36.871 99.092,73.743 140.573,99.092c41.48,25.349 73.743,36.871 106.005,48.394" style="fill:none;stroke-width:32px;stroke:#205d76;"/><path d="M1272.07,599.162c-43.785,9.217 -87.57,29.958 -115.223,53.002c-29.958,20.741 -41.481,41.481 -48.394,71.439c-4.609,27.654 -2.304,59.916 6.913,92.179c9.218,34.567 23.045,64.525 41.481,87.569c16.131,23.045 34.567,41.481 59.916,55.308c27.654,13.826 62.221,25.349 92.179,25.349c32.262,0 59.916,-11.523 87.569,-25.349c27.654,-13.827 55.308,-29.958 78.352,-50.699c20.741,-20.74 36.872,-43.785 46.09,-78.352c6.913,-36.871 6.913,-82.96 -2.305,-115.223c-9.218,-32.263 -27.653,-50.698 -48.394,-66.83c-57.611,-48.393 -124.441,-62.22 -198.184,-48.393Z" style="fill:#ffc122;"/><path d="M1281.28,656.773l-6.913,-18.435c-2.305,-4.609 -4.609,-6.914 -11.523,-4.609c-4.609,2.304 -6.913,6.913 -4.609,11.522l6.914,18.436c-18.436,9.218 -32.263,20.74 -39.176,34.567c-9.218,18.435 -9.218,34.567 0,55.307c4.609,16.131 16.131,25.349 32.262,29.958c13.827,4.609 34.567,6.913 57.612,2.305l41.481,96.787c-16.132,4.609 -29.959,6.914 -41.481,2.305c-16.131,-4.609 -27.654,-16.132 -34.567,-34.567c-2.304,-4.609 -4.609,-6.914 -6.913,-6.914c-2.305,-2.304 -4.609,-2.304 -6.914,-2.304c-2.304,2.304 -4.609,4.609 -4.609,6.913c-2.304,2.305 -2.304,4.609 0,9.218c9.218,25.349 25.349,41.48 46.09,48.394c13.827,2.304 32.262,2.304 55.307,-4.609l9.218,23.045c2.304,4.609 6.913,6.913 11.522,4.609c4.609,-2.305 6.914,-6.914 4.609,-11.523l-9.218,-23.044c18.436,-9.218 32.263,-23.045 41.481,-39.176c9.218,-18.436 9.218,-36.872 2.304,-55.308c-9.218,-16.131 -20.74,-27.653 -36.871,-32.262c-13.827,-4.609 -32.263,-4.609 -59.917,-2.305l-36.871,-89.874c11.522,-4.609 20.74,-4.609 29.958,-4.609c11.522,4.609 20.74,11.522 27.654,25.349c2.304,4.609 4.609,6.914 6.913,6.914c2.305,2.304 4.609,2.304 6.913,0c4.609,0 4.609,-2.305 6.914,-4.609c0,-2.305 0,-6.914 0,-9.218c-6.914,-18.436 -18.436,-29.958 -34.567,-34.567c-16.131,-4.609 -32.263,-4.609 -53.003,2.304ZM1272.07,679.818l36.872,87.57c-18.436,2.304 -32.263,2.304 -43.785,-2.305c-9.218,-4.609 -16.131,-11.522 -20.74,-23.044c-4.609,-13.827 -4.609,-25.35 2.304,-36.872c6.913,-11.522 13.827,-18.436 25.349,-25.349ZM1373.46,875.698l-39.176,-92.179c20.74,-2.304 36.871,-2.304 46.089,0c9.218,4.609 16.131,13.827 23.045,27.654c4.609,13.826 4.609,27.653 -4.609,39.176c-4.609,11.522 -13.827,18.435 -25.349,25.349Z" style="fill:#fff;fill-rule:nonzero;"/></g></svg>