<?xml version="1.0" standalone="no"?><!DOCTYPE svg PUBLIC "-//W3C//DTD SVG 1.1//EN" "http://www.w3.org/Graphics/SVG/1.1/DTD/svg11.dtd"><svg width="100%" height="100%" viewBox="0 0 1981 1981" version="1.1" xmlns="http://www.w3.org/2000/svg" xmlns:xlink="http://www.w3.org/1999/xlink" xml:space="preserve" style="fill-rule:evenodd;clip-rule:evenodd;stroke-linecap:round;stroke-linejoin:round;stroke-miterlimit:1.41421;"><g id="_873477248_"><path d="M955.263,950.626c57.965,25.504 176.213,88.106 243.453,129.841c67.239,41.735 85.788,62.602 102.018,83.47c16.23,18.549 30.142,39.416 51.009,76.514c18.549,37.097 46.372,92.744 51.009,118.248c2.319,25.505 -13.911,20.868 -88.106,-25.504c-71.877,-46.372 -201.718,-132.161 -271.276,-178.533c-67.24,-46.372 -76.514,-51.009 -85.789,-71.876c-9.274,-23.186 -23.186,-60.284 -34.779,-85.788c-9.274,-25.505 -18.548,-41.735 -23.186,-55.647c-4.637,-11.593 -4.637,-18.549 55.647,9.275Z" style="fill:#ffc122;"/><path d="M306.055,790.642c55.646,-81.151 169.258,-238.815 231.86,-319.966c64.921,-83.47 78.832,-90.426 155.346,-39.417c76.514,53.328 213.311,164.621 285.188,217.949c71.876,53.328 81.151,46.372 125.204,-6.956c46.372,-55.646 132.16,-162.302 173.895,-217.948c41.735,-53.328 41.735,-55.647 115.93,41.734c76.514,95.063 224.904,292.144 294.462,389.525c71.877,97.381 60.284,97.381 6.956,171.576c-53.328,74.196 -153.028,224.905 -208.674,301.418c-53.328,76.514 -62.602,78.833 -146.072,27.824c-81.151,-51.01 -236.497,-155.347 -317.648,-206.356c-78.832,-51.009 -88.107,-48.69 -136.797,32.461c-51.009,78.832 -146.072,236.497 -199.4,315.329c-55.646,81.151 -69.558,83.47 -134.478,-32.46c-64.921,-115.93 -178.533,-347.79 -238.816,-468.357c-57.965,-118.249 -62.602,-125.205 -6.956,-206.356Z" style="fill:none;stroke-width:32.2px;stroke:#205d76;"/><path d="M1075.83,739.633c115.93,217.948 231.86,433.578 347.79,649.208" style="fill:none;stroke-width:32.2px;stroke:#205d76;"/><path d="M1224.22,642.252c18.549,-13.912 44.054,-20.867 64.921,-20.867c23.186,2.318 46.372,13.911 62.602,32.46c2.319,2.319 2.319,4.637 4.638,4.637c9.274,13.912 20.867,27.823 30.141,39.416c16.23,18.549 30.142,32.461 41.735,39.417c6.956,4.637 11.593,4.637 16.23,4.637c6.956,0 9.275,-4.637 13.912,-6.956c2.318,-2.319 4.637,-6.956 4.637,-9.274c2.319,-2.319 2.319,-6.956 0,-9.275c0,-2.318 -2.319,-4.637 -2.319,-6.956c-2.318,-2.318 -4.637,-2.318 -6.955,-4.637c-6.956,-2.318 -13.912,-2.318 -23.186,-2.318c-6.956,0 -11.593,-4.638 -13.912,-9.275l0,-2.318c0,-9.275 6.956,-13.912 13.912,-13.912c11.593,0 23.186,0 32.46,4.637c6.956,2.319 11.593,4.637 16.23,11.593c4.637,4.637 9.275,9.275 11.593,16.23c0,6.956 0,16.231 -2.318,23.186c0,6.956 -4.638,13.912 -9.275,20.868c-6.956,4.637 -13.911,11.593 -23.186,13.911c-2.318,0 -4.637,2.319 -6.956,2.319c-11.593,0 -23.186,-2.319 -34.779,-9.274c-4.637,-2.319 -9.274,-4.638 -13.911,-9.275c-9.275,-6.956 -18.549,-18.549 -27.823,-30.142c0,4.638 -2.319,9.275 -2.319,13.912c4.637,6.956 11.593,11.593 16.23,18.549c6.956,9.274 16.23,16.23 23.186,23.186c11.593,13.911 25.505,27.823 34.779,34.779c9.275,6.956 18.549,9.274 23.186,9.274c4.637,2.319 9.275,0 13.912,0c4.637,-2.318 6.956,-2.318 9.274,-4.637c2.319,-2.319 2.319,-4.637 4.637,-6.956c0,0 0,-2.318 2.319,-4.637c0,-2.319 0,-4.637 -2.319,-6.956l0,-2.318c-2.318,0 -2.318,-2.319 -2.318,-2.319c-2.319,0 -2.319,-2.319 -4.637,-2.319c-2.319,0 -2.319,0 -4.638,0c-6.955,-2.318 -13.911,-9.274 -11.593,-16.23c2.319,-6.956 9.275,-11.593 16.231,-11.593c2.318,2.319 4.637,2.319 6.955,2.319c4.638,0 6.956,2.318 11.593,4.637c2.319,2.319 6.956,4.637 9.275,9.274c2.318,2.319 4.637,6.956 6.956,11.593c0,6.956 0,11.593 0,16.231c0,6.955 -2.319,11.593 -4.638,16.23c-2.318,4.637 -6.955,9.274 -11.593,13.911c-4.637,2.319 -9.274,6.956 -16.23,9.275c-6.956,2.318 -16.23,4.637 -27.823,2.318c-9.274,-2.318 -20.867,-6.956 -32.46,-16.23c-13.912,-6.956 -27.824,-20.867 -41.735,-37.097c-9.274,-9.275 -20.867,-20.868 -30.142,-32.461c-2.318,2.319 -4.637,4.637 -6.956,9.275l97.381,115.929l2.319,0l0,2.319c4.637,4.637 11.593,11.593 16.23,13.912c0,2.318 2.319,2.318 4.637,2.318c0,0 2.319,0 4.638,0c0,-2.318 2.318,-2.318 4.637,-4.637l2.318,-2.319c0,-2.318 0,-2.318 0,-4.637l0,-2.318c0,-2.319 -2.318,-2.319 -2.318,-4.638c-2.319,0 -2.319,-2.318 -4.637,-2.318c-2.319,0 -4.638,0 -6.956,-2.319c-6.956,0 -13.912,-4.637 -11.593,-13.911c0,-6.956 4.637,-11.593 13.911,-11.593c4.638,0 11.593,0 18.549,4.637c2.319,0 6.956,4.637 9.275,6.956c2.318,2.318 6.955,6.955 6.955,11.593c2.319,4.637 4.638,9.274 4.638,13.911c0,4.637 0,9.275 -2.319,13.912c-2.319,4.637 -6.956,9.274 -9.274,13.911c-4.638,2.319 -9.275,6.956 -13.912,9.275c-4.637,0 -11.593,2.318 -16.23,2.318c-6.956,-2.318 -11.593,-2.318 -16.23,-6.955c-9.275,-4.638 -13.912,-9.275 -20.868,-16.231l-2.318,-4.637l-99.7,-118.248c-4.637,2.318 -6.956,4.637 -11.593,4.637c20.867,23.186 39.416,44.053 53.328,64.921c9.274,11.593 18.548,23.186 23.186,32.46c6.955,11.593 9.274,20.867 11.593,32.46c0,9.275 -2.319,18.549 -6.956,25.505c-4.637,9.274 -13.912,16.23 -20.867,20.867c-6.956,2.319 -11.593,4.638 -18.549,4.638c-6.956,0 -13.912,0 -20.868,-2.319c-4.637,-2.319 -9.274,-4.637 -13.911,-6.956c-4.637,-2.318 -9.275,-6.956 -11.593,-9.274c-2.319,-4.637 -4.637,-6.956 -6.956,-11.593c0,-4.637 -2.319,-9.275 -2.319,-11.593c0,-4.637 0,-6.956 0,-9.275c0,-4.637 0,-6.955 2.319,-9.274c0,-4.637 4.637,-9.274 11.593,-11.593l2.319,0c6.955,2.319 13.911,9.274 11.593,16.23l0,16.23l2.318,2.319c2.319,2.319 4.637,4.637 4.637,6.956c2.319,0 4.638,2.318 9.275,2.318c2.318,0 4.637,2.319 9.274,2.319c2.319,-2.319 4.637,-2.319 6.956,-4.637c4.637,-2.319 9.274,-4.637 11.593,-9.275c0,-2.318 2.319,-6.955 2.319,-11.593c0,-4.637 -2.319,-11.593 -6.956,-18.548c-4.637,-9.275 -11.593,-18.549 -20.868,-30.142c-11.593,-16.23 -25.504,-32.461 -41.734,-51.009c-6.956,-6.956 -11.593,-13.912 -18.549,-20.868c-4.637,0 -9.275,0 -13.912,0l2.319,0c11.593,16.231 20.867,30.142 27.823,41.735c0,2.319 2.319,4.637 2.319,4.637c4.637,13.912 4.637,23.186 4.637,32.461c-2.319,0 -2.319,2.318 -2.319,2.318c-2.318,13.912 -11.593,23.186 -20.867,27.823c-6.956,4.638 -13.912,6.956 -20.868,9.275c-9.274,0 -16.23,-2.319 -23.186,-4.637c-6.955,-2.319 -11.593,-6.956 -13.911,-11.593c-4.637,-4.638 -9.275,-9.275 -11.593,-13.912c-2.319,-11.593 -2.319,-18.549 0,-25.505c2.318,-6.955 9.274,-11.593 16.23,-9.274c6.956,2.319 11.593,9.274 9.274,16.23c0,2.319 0,4.637 0,6.956c2.319,2.319 2.319,4.637 4.638,6.956c2.318,2.318 4.637,4.637 6.955,4.637c2.319,2.319 4.638,2.319 6.956,2.319c4.637,0 6.956,-2.319 11.593,-4.638c4.637,-2.318 6.956,-6.955 9.275,-11.593c0,-4.637 0,-9.274 -2.319,-16.23c-4.637,-11.593 -13.912,-25.504 -25.505,-39.416c-2.318,-2.318 -4.637,-4.637 -6.955,-6.956c-9.275,-11.593 -18.549,-23.186 -30.142,-34.779c-2.319,-2.318 -4.637,-6.955 -6.956,-9.274c-16.23,-18.549 -23.186,-41.735 -20.867,-64.921c0,-23.186 11.593,-46.372 30.141,-62.602ZM1238.13,711.81c4.637,-2.319 11.593,-2.319 16.23,2.319c2.319,0 2.319,2.318 2.319,4.637c-4.637,-2.319 -6.956,0 -11.593,2.318c-2.319,2.319 -4.637,6.956 -2.319,9.275c-2.318,0 -4.637,0 -4.637,-2.319c-4.637,-4.637 -4.637,-11.593 0,-16.23ZM1291.46,667.757c4.637,-2.319 11.593,-2.319 13.911,2.318c2.319,2.319 2.319,2.319 2.319,4.637c-2.319,-2.318 -6.956,0 -11.593,2.319c-2.319,2.319 -4.637,6.956 -2.319,11.593c-2.318,-2.319 -2.318,-2.319 -4.637,-4.637c-4.637,-4.637 -2.318,-11.593 2.319,-16.23Z" style="fill:#ffa09e;"/><path d="M1407.39,1112.93c55.646,-71.877 113.611,-143.754 169.257,-217.949" style="fill:none;stroke-width:16.1px;stroke:#62d4d4;"/><path d="M1463.04,1212.63c57.965,-78.832 113.611,-157.664 169.258,-234.178" style="fill:none;stroke-width:16.1px;stroke:#62d4d4;"/><path d="M855.563,936.714l-264.32,-549.508c-18.549,9.274 -39.416,30.142 -69.558,69.558c-64.921,85.788 -183.17,248.09 -238.816,331.56c-57.965,83.469 -53.328,90.425 6.956,213.311c60.283,122.886 176.213,377.932 241.134,496.18c67.24,120.567 106.656,118.249 162.302,34.779c55.647,-81.151 166.939,-264.32 206.355,-326.922c39.417,-62.603 39.417,-64.921 57.965,-69.558l-102.018,-199.4Z" style="fill:#62d4d4;"/><path d="M605.154,403.436c102.019,213.311 206.356,426.622 308.374,639.934" style="fill:none;stroke-width:32.2px;stroke:#205d76;"/></g></svg>