<?xml version="1.0" standalone="no"?><!DOCTYPE svg PUBLIC "-//W3C//DTD SVG 1.1//EN" "http://www.w3.org/Graphics/SVG/1.1/DTD/svg11.dtd"><svg width="100%" height="100%" viewBox="0 0 2625 2625" version="1.1" xmlns="http://www.w3.org/2000/svg" xmlns:xlink="http://www.w3.org/1999/xlink" xml:space="preserve" style="fill-rule:evenodd;clip-rule:evenodd;stroke-linejoin:round;stroke-miterlimit:1.41421;"><g id="_856107648_"><path d="M1112,1556l-80,0l0,-727c0,-44 36,-80 80,-80l80,0l0,727c0,44 -36,80 -80,80Z" style="fill:#205d76;"/><path d="M1633,749c56,0 109,10 157,31c49,21 91,50 128,87c36,36 65,79 86,127c21,49 31,101 31,157l0,405l-402,0c-55,0 -107,-11 -156,-32c-50,-21 -93,-50 -130,-87c-37,-37 -66,-80 -87,-129c-21,-49 -31,-102 -31,-157c0,-56 10,-108 31,-157c21,-48 50,-91 87,-127c37,-37 80,-66 130,-87c49,-21 101,-31 156,-31ZM1875,1396l0,-245c0,-33 -6,-65 -19,-94c-12,-29 -29,-55 -52,-77c-22,-22 -48,-40 -77,-52c-29,-13 -61,-19 -94,-19c-34,0 -65,6 -95,19c-30,12 -56,30 -79,52c-22,22 -39,48 -52,77c-12,29 -18,61 -18,94c0,34 6,66 18,96c13,30 30,56 52,78c23,22 49,39 79,52c30,12 61,19 95,19l242,0Z" style="fill:#205d76;"/><path d="M2161,1556l80,0l0,-1146c0,-44 -36,-80 -80,-80l-80,0l0,1146c0,44 36,80 80,80Z" style="fill:#205d76;"/><path d="M2141,587l-101,0l-110,0c-43,0 -79,35 -79,77l0,76l399,0c44,0 80,-34 80,-76l0,-77l-189,0Z" style="fill:#205d76;"/><path d="M2386,1373c-50,0 -91,41 -91,92l0,91l91,0c50,0 91,-41 91,-91c0,-51 -41,-92 -91,-92Z" style="fill:#ffc122;"/><path d="M553,749c56,0 108,10 157,31c48,21 91,50 127,87c37,36 66,79 87,127c21,49 31,101 31,157l0,405l-402,0c-55,0 -108,-11 -157,-32c-49,-21 -92,-50 -129,-87c-37,-37 -66,-80 -87,-129c-21,-49 -32,-102 -32,-157c0,-56 11,-108 32,-157c21,-48 50,-91 87,-127c37,-37 80,-66 129,-87c49,-21 102,-31 157,-31ZM795,1396l0,-245c0,-33 -6,-65 -19,-94c-12,-29 -30,-55 -52,-77c-22,-22 -48,-40 -77,-52c-29,-13 -61,-19 -94,-19c-34,0 -66,6 -96,19c-30,12 -56,30 -78,52c-22,22 -39,48 -52,77c-12,29 -19,61 -19,94c0,34 7,66 19,96c13,30 30,56 52,78c22,22 48,39 78,52c30,12 62,19 96,19l242,0Z" style="fill:#205d76;"/><path d="M875,1754l80,0l0,-654c0,-43 -36,-79 -80,-79l-80,0l0,653c0,44 36,80 80,80Z" style="fill:#205d76;"/><path d="M612,2295c48,0 92,-9 134,-27c41,-18 77,-43 109,-74c31,-31 55,-67 73,-108c18,-42 27,-87 27,-135l0,-344l-343,0c-47,0 -92,9 -134,26c-41,18 -78,43 -110,75c-32,31 -56,68 -74,110c-18,42 -27,86 -27,133c0,48 9,93 27,135c18,41 42,77 74,108c32,31 69,56 110,74c42,18 87,27 134,27ZM802,1743c0,127 17,337 -110,399c-24,12 -52,16 -80,16c-29,0 -56,-5 -81,-16c-26,-11 -48,-25 -67,-44c-19,-19 -34,-41 -45,-66c-10,-25 -16,-52 -16,-81c0,-28 6,-55 16,-81c11,-25 26,-48 45,-66c19,-19 41,-34 67,-45c25,-11 52,-16 81,-16l190,0Z" style="fill:#205d76;"/><path d="M1192,1676l0,-66l-447,0c-37,0 -67,30 -67,66l0,67l447,0c37,0 67,-30 67,-67Z" style="fill:#205d76;"/><path d="M875,1556l80,0l0,-727c0,-44 -36,-80 -80,-80l-80,0l0,727c0,44 36,80 80,80Z" style="fill:#205d76;"/></g></svg>