<?xml version="1.0" standalone="no"?><!DOCTYPE svg PUBLIC "-//W3C//DTD SVG 1.1//EN" "http://www.w3.org/Graphics/SVG/1.1/DTD/svg11.dtd"><svg width="100%" height="100%" viewBox="0 0 3034 884" version="1.1" xmlns="http://www.w3.org/2000/svg" xmlns:xlink="http://www.w3.org/1999/xlink" xml:space="preserve" style="fill-rule:evenodd;clip-rule:evenodd;stroke-linejoin:round;stroke-miterlimit:1.41421;"><path d="M14,269.22c-12,48 -11,110 -5,162c-5,21 -9,43 -9,69c0,54 17,120 46,170c17,28 37,51 63,72c29,39 70,76 113,99c43,23 88,31 144,33c10,2 21,4 32,6c87,12 183,-6 260,-49c78,-44 135,-112 175,-176c107,-171 39,-391 -101,-523c-56,-53 -156,-89 -234,-110c-78,-20 -135,-26 -187,-20c-52,6 -98,24 -141,66c-55,55 -139,130 -156,201Z" style="fill:#f96332;"/><g id="_858415984_"><clipPath id="_clip1"><path d="M14,269.22c-12,48 -11,110 -5,162c-5,21 -9,43 -9,69c0,54 17,120 46,170c17,28 37,51 63,72c29,39 70,76 113,99c43,23 88,31 144,33c10,2 21,4 32,6c87,12 183,-6 260,-49c78,-44 135,-112 175,-176c107,-171 39,-391 -101,-523c-56,-53 -156,-89 -234,-110c-78,-20 -135,-26 -187,-20c-52,6 -98,24 -141,66c-55,55 -139,130 -156,201Z"/></clipPath><g clip-path="url(#_clip1)"><path id="1" d="M1256,377.22c81,-11 50,-92 70,-88c0,1 0,2 1,3l2,5l1,2c22,82 -51,115 -120,108l-8,-38c17,7 34,13 54,8ZM1077,752.22c-1,-5 1,-3 -1,-7c-15,6 -6,10 -23,3c3,-18 2,-12 13,-20c55,-40 26,-62 18,-149l46,-20c15,21 54,221 -51,201c-2,-3 -1,-5 -2,-8ZM984,736.22l-24,10c12,-28 41,-17 34,-67c-3,-26 -7,-50 -11,-76l0,-1c-2,-7 -2,-17 -2,-22c0,-2 0,-2 0,-3c-8,-62 -9,-34 -10,2c-1,0 -46,4 -80,4c-67,-2 -147,-8 -150,-8c-7,-4 -9,-42 -15,-21c1,9 0,29 0,34c0,2 0,3 0,3c8,59 2,171 -55,177l0,-1c0,-1 -1,-2 -1,-2l-2,-10c-9,5 -15,17 -19,3c-3,-8 5,-15 9,-19c45,-51 20,-89 25,-151c-1,-6 0,-14 0,-22l-1,1c0,-1 0,-1 0,-2c0,-4 1,-5 0,-13c-7,-41 -11,7 -10,22l-206,7c16,-27 44,-38 56,-117c5,-31 4,-43 1,-73c-3,-30 -13,-43 -16,-66c38,4 75,1 111,-7c48,-10 210,0 283,-5c65,-4 234,8 278,47c25,22 22,67 12,101c-11,35 -21,61 -45,76l-1,0c-3,2 -19,11 -19,12c-15,12 -40,18 -58,23c-13,5 -26,7 -31,6c-11,-3 -4,-16 -9,-16c-2,2 -2,4 -3,6c1,4 1,8 1,11c0,4 0,7 -1,12c3,35 4,86 1,122c-3,39 -31,79 -58,43l16,-20ZM902,598.22c11,61 -3,188 -75,161c-1,-17 9,-15 20,-23c-12,-10 0,-1 -9,-3l-7,-2c23,-21 31,-13 42,-56c8,-33 -3,-54 1,-81l28,4ZM552,749.22c-8,6 -8,7 -14,13c-6,-44 19,-5 29,-89c8,-81 -2,-85 30,-86c1,36 1,67 3,100c2,43 -4,56 -30,74c-15,-9 3,-6 -18,-12ZM381,207.22c-6,-17 13,-51 24,-38l-10,42l-14,-4ZM408,154.22c-27,-7 -34,23 -45,47c4,-34 12,-64 45,-47ZM199,469.22c-10,-37 21,-128 34,-160c12,-30 19,-35 37,-55c16,-18 21,-36 48,-41c48,-8 93,11 121,44c27,33 56,60 69,108c15,51 8,112 -13,159c-21,48 -52,54 -62,61c-54,39 -119,35 -171,-1c-39,-27 -48,-64 -63,-115ZM232,269.22c-1,0 -1,0 -1,-1c-4,-2 -9,-9 -13,-15c-4,-5 -5,-10 -6,-13c-1,-1 -1,-2 -1,-2c-12,-23 -7,-62 13,-69c21,-8 58,55 49,64c-26,14 -24,-52 -65,-30c-2,18 6,33 15,45c4,3 8,8 10,10c2,1 2,2 3,2c8,6 6,0 5,-7c-7,-6 -13,-12 -18,-19c-14,-23 -3,-23 -3,-23c17,-3 31,23 38,35c-4,8 -20,35 -26,23ZM841,773.22l14,-1c70,-19 55,-140 58,-178l58,-2c5,18 14,94 12,113c-5,8 -12,14 -18,20c-10,10 -10,5 -17,18c2,10 8,24 14,28c32,21 55,4 69,-33c9,-24 4,-121 4,-151l39,-5c21,122 21,115 -33,151c-13,45 63,46 91,20c57,-51 12,-163 9,-203c46,-20 54,-69 72,-129c63,-9 128,-11 130,-88c1,-20 2,-45 -9,-58c-45,-4 1,52 -54,84c-35,21 -70,6 -99,-15c-12,-8 -87,-31 -104,-34c-58,-9 -301,-8 -359,-7c-41,1 -73,0 -112,9c-46,12 -80,-3 -111,-2c-22,-29 -53,-71 -87,-89c4,-24 23,-66 -1,-81c-40,-23 -50,37 -56,58c-23,2 -43,-3 -58,13c-5,5 -1,2 -7,5c-11,-8 -11,-14 -26,-35c-49,-64 -86,19 -51,76c8,14 11,12 24,20c-4,17 -10,25 -16,41c-12,34 -31,97 -30,130c3,145 136,205 216,166c54,-26 33,-19 76,-21c28,-1 57,-5 84,-4c2,17 -8,90 -12,109c-7,27 -12,20 -22,37c-32,56 74,58 81,-19c4,-43 -7,-80 1,-129c16,-2 42,-6 60,1c1,39 8,87 -6,122c-8,20 -27,30 -29,40c-5,20 16,30 34,29c35,-2 47,-35 60,-70c13,-35 7,-81 7,-119c2,-1 1,-2 9,-3l117,7c2,34 7,70 -7,102c-11,25 -55,19 -43,68c12,9 13,9 28,9Z" style="fill:#fff;"/><path d="M374,441.22c-45,68 -36,-27 -32,-56c1,-7 10,-4 11,-18c1,-9 -36,-7 -35,2c0,13 12,2 8,51c-1,10 2,86 -28,45c-4,-6 2,3 -3,-5l-2,-6c-10,14 -4,23 10,28c23,8 25,-5 30,-8c9,4 19,6 31,-4c12,-8 15,-20 10,-29Z" style="fill:#fff;"/><path d="M303,339.22c18,-19 4,-33 -10,-31c-8,1 -18,9 -15,21c2,15 15,20 25,10Z" style="fill:#fff;"/><path d="M888,381.22c-11,-1 -6,0 -12,3c2,3 -5,10 25,12c1,0 15,1 15,1c39,-7 -20,-15 -28,-16Z" style="fill:#fff;"/><path d="M965,504.22c-18,-1 -42,-3 -55,8c8,8 31,4 43,0c16,-4 5,1 12,-8Z" style="fill:#fff;"/><path d="M829,495.22c0,0 -2,-1 -1,-1c2,0 -47,-9 -66,-2c10,15 62,6 67,3Z" style="fill:#fff;"/><path d="M921,339.22c1,3 -7,13 26,8c71,-11 3,-11 -26,-8Z" style="fill:#fff;"/><path d="M920,457.22c-17,1 -41,-4 -55,3c4,4 -5,6 15,8c13,1 35,0 40,-11Z" style="fill:#fff;"/><path d="M569,550.22l-52,4c6,13 17,13 38,6c17,-6 8,-1 14,-10Z" style="fill:#fff;"/><path d="M582,508.22c-14,-1 -33,-3 -47,3c3,2 -4,12 28,7c13,-1 13,-2 19,-10Z" style="fill:#fff;"/><path d="M689,397.22c-11,-5 -39,-7 -48,-2c9,16 36,12 48,2Z" style="fill:#fff;"/><path d="M1062,431.22c-5,-3 9,-5 -25,-3c-13,0 -20,-1 -29,5c11,12 40,2 54,-2Z" style="fill:#fff;"/><path d="M996,470.22c0,0 -2,-1 -1,-1c0,0 -45,-9 -52,7c8,5 44,1 53,-6Z" style="fill:#fff;"/><path d="M1030,373.22c-7,-5 -3,-3 -24,-2c-26,1 -20,-1 -25,9c12,5 37,0 49,-7Z" style="fill:#fff;"/><path d="M1119,468.22c-10,-7 -37,-3 -49,2c5,15 40,2 49,-2Z" style="fill:#fff;"/><path d="M613,445.22c-15,-3 -34,-5 -41,4c9,6 31,13 41,-4Z" style="fill:#fff;"/><path d="M1086,359.22c-59,2 -4,8 32,4c-9,-7 -20,-4 -32,-4Z" style="fill:#fff;"/><path d="M613,365.22c-4,-5 3,-3 -7,-5c-4,-1 -8,0 -12,0l-15,2c-1,0 -2,1 -3,1c0,0 -1,1 -2,1c8,16 27,9 39,1Z" style="fill:#fff;"/><path d="M847,361.22c-5,-1 -12,-3 -18,-4c-14,-2 -9,-3 -19,1c1,2 -4,11 21,10c8,0 13,1 16,-7Z" style="fill:#fff;"/><path d="M794,533.22c-11,-6 -36,-4 -49,4c5,3 -9,7 23,2c9,-2 19,-4 26,-6Z" style="fill:#fff;"/><path d="M672,525.22c0,0 -3,-1 -2,-1c1,-1 -19,-9 -33,-2c9,14 23,13 35,3Z" style="fill:#fff;"/><path d="M676,356.22c-8,-8 -23,-9 -32,0c10,11 22,9 32,0Z" style="fill:#fff;"/><path d="M222,471.22c7,0 30,-17 42,-30c-14,-1 -46,12 -42,30Z" style="fill:#fff;"/><path d="M599,402.22c-4,-6 1,-3 -7,-6c0,-1 -8,-3 -9,-3c-11,-2 -7,-3 -15,2c6,14 19,13 31,7Z" style="fill:#fff;"/><path d="M836,396.22c-8,-8 -26,-7 -34,-4c3,16 24,8 34,4Z" style="fill:#fff;"/><path d="M760,357.22c-12,-7 -18,-3 -31,0c9,13 23,14 31,0Z" style="fill:#fff;"/><path d="M453,460.22c-7,-15 -28,-27 -42,-31c0,16 27,30 42,31Z" style="fill:#fff;"/><path d="M624,350.22c-8,-6 -20,-11 -31,-3c8,9 18,14 31,3Z" style="fill:#fff;"/><path d="M776,420.22c-7,-5 -19,-5 -25,-4c-9,2 -5,1 -10,4c12,12 24,7 35,0Z" style="fill:#fff;"/><path d="M457,421.22c-10,-2 -38,-8 -44,0c9,9 34,6 44,0Z" style="fill:#fff;"/><path d="M1151,402.22c-23,-7 -36,-2 -44,1c0,0 -1,8 44,-1Z" style="fill:#fff;"/><path d="M684,484.22l-33,-4c5,17 24,15 33,4Z" style="fill:#fff;"/><path d="M271,414.22c-19,4 -22,1 -28,17c12,-1 25,-3 28,-17Z" style="fill:#fff;"/><path d="M823,340.22l-4,-3c-22,-14 -18,-4 -20,-3c5,14 13,12 24,6Z" style="fill:#fff;"/><path d="M715,449.22c-1,-1 -3,-2 -2,-2l-12,-2c-12,0 -8,-1 -14,5c10,10 19,5 28,-1Z" style="fill:#fff;"/><path d="M1174,463.22c-12,1 -12,0 -18,13c12,-1 15,-3 18,-13Z" style="fill:#fff;"/><path d="M1032,516.22c-10,2 -6,1 -11,6c3,3 -2,11 28,5c1,-1 14,-4 14,-4c36,-18 -23,-8 -31,-7Z" style="fill:#fff;"/><path d="M417,330.22c16,-16 4,-28 -8,-26c-7,1 -15,8 -13,18c2,12 13,16 21,8Z" style="fill:#fff;"/><path d="M429,471.22c-4,-7 -14,-26 -21,-25c0,10 13,22 21,25Z" style="fill:#fff;"/><path d="M272,457.22c-6,4 -24,14 -24,21c9,1 21,-13 24,-21Z" style="fill:#fff;"/></g></g><path d="M1642,154.22c-63,-63 -145,-95 -257,-95c-211,0 -370,158 -370,373c0,216 159,373 370,373c86,0 190,-25 269,-72l0,-348l-242,0l0,66l170,0l0,238c-54,30 -124,50 -197,50c-182,0 -292,-143 -292,-307c0,-163 110,-307 292,-307c87,0 154,31 203,83l54,-54Z" style="fill:#18ce0f;fill-rule:nonzero;"/><path id="11" d="M1900,318.22l-66,0l0,469l66,0l0,-469ZM1915,137.22c0,-28 -24,-48 -48,-48c-24,0 -48,20 -48,48c0,28 24,48 48,48c24,0 48,-20 48,-48Z" style="fill:#18ce0f;fill-rule:nonzero;"/><path id="2" d="M2327,499.22c-112,0 -291,10 -291,163c0,91 78,137 161,137c75,0 127,-26 166,-88l2,0c0,25 2,53 6,76l64,0c-4,-25 -8,-69 -8,-105l0,-210c0,-114 -79,-166 -172,-166c-88,0 -155,24 -198,68l40,47c40,-36 88,-55 143,-55c81,0 121,40 121,121l0,12l-34,0ZM2361,553.22l0,34c0,84 -47,152 -143,152c-53,0 -110,-24 -110,-86c0,-95 151,-100 218,-100l35,0Z" style="fill:#18ce0f;fill-rule:nonzero;"/><path id="3" d="M2823,318.22l-136,0l0,-133l-66,0l0,133l-99,0l0,60l99,0l0,296c0,103 66,125 117,125c33,0 65,-6 89,-17l-3,-61c-20,11 -45,18 -68,18c-42,0 -69,-14 -69,-84l0,-277l136,0l0,-60Z" style="fill:#18ce0f;fill-rule:nonzero;"/><path id="4" d="M3034,739.22c0,-28 -22,-54 -54,-54c-32,0 -54,26 -54,54c0,28 22,54 54,54c32,0 54,-26 54,-54Z" style="fill:#f96332;fill-rule:nonzero;"/></svg>