<?xml version="1.0" standalone="no"?><!DOCTYPE svg PUBLIC "-//W3C//DTD SVG 1.1//EN" "http://www.w3.org/Graphics/SVG/1.1/DTD/svg11.dtd"><svg width="100%" height="100%" viewBox="0 0 1122 1688" version="1.1" xmlns="http://www.w3.org/2000/svg" xmlns:xlink="http://www.w3.org/1999/xlink" xml:space="preserve" style="fill-rule:evenodd;clip-rule:evenodd;stroke-linecap:round;stroke-linejoin:round;stroke-miterlimit:1.41421;"><path d="M483,882c-1,1 -1,-1 -2,0c-4,5 -9,16 -17,40c-7,23 -15,58 -24,95c-14,60 -29,125 -48,170c-19,46 -43,72 -69,85l1,0c-32,17 -62,14 -89,5c-22,-8 -43,-21 -63,-42c-17,-19 -33,-44 -47,-78c-25,-58 -49,-148 -72,-238l0,-2l52,-13l54,-16l1,2c22,85 44,171 67,224c9,22 18,36 27,46c6,7 12,10 18,12c1,1 -2,3 0,2c4,-2 10,-10 18,-30c14,-35 29,-96 42,-152c9,-38 17,-74 26,-103c13,-42 28,-67 42,-82c20,-22 37,-27 54,-31l29,106Z" style="fill:#fccf97;fill-rule:nonzero;"/><path d="M860,777c21,16 41,32 65,58c22,24 45,56 67,100c22,44 44,101 63,163c17,58 32,123 43,188c21,133 23,267 24,401l-65,0l-46,1l0,-1c-1,-129 -2,-258 -23,-383c-9,-60 -23,-119 -40,-174c-17,-58 -36,-108 -55,-145c-17,-35 -34,-58 -50,-76c-16,-17 -34,-31 -52,-45l69,-87Z" style="fill:#fccea7;fill-rule:nonzero;"/><path d="M702,507l-4,216l91,33l-186,167l-102,-164l91,-32l13,-208l97,-12Z" style="fill:#fccf97;"/><ellipse cx="850" cy="394" rx="70" ry="67" style="fill:#fccf97;"/><ellipse cx="442" cy="394" rx="70" ry="67" style="fill:#fccf97;"/><path d="M436,230c-3,37 -6,95 -3,154c3,58 12,117 30,162c19,45 47,76 78,96c31,20 65,30 100,31c36,1 72,-5 105,-29c33,-24 63,-65 82,-106c20,-41 30,-83 33,-143c3,-60 0,-139 -9,-196c-9,-57 -25,-92 -46,-117c-22,-24 -48,-38 -78,-47c-30,-10 -64,-16 -105,-11c-41,5 -90,21 -121,45c-32,25 -45,57 -53,82c-8,24 -11,41 -13,79Z" style="fill:#fccf97;"/><path d="M432,384c-3,9 -8,-11 -15,-23c-6,-13 -12,-18 -16,-22c-4,-3 -6,-5 -5,-14c2,-9 6,-25 7,-47c1,-22 -2,-50 -2,-71c1,-21 5,-37 14,-53c9,-16 23,-32 34,-47c12,-14 20,-26 32,-39c12,-12 29,-25 50,-36c20,-10 46,-18 65,-24c19,-5 32,-8 48,-8c16,1 35,5 50,8c16,3 28,5 40,8c12,4 24,10 36,17c13,6 25,14 38,25c13,12 27,27 38,41c11,15 20,29 25,43c5,14 7,28 11,48c4,19 10,43 12,65c0,5 1,11 2,19c5,38 11,64 5,76c-1,3 -19,-23 -24,-8c-3,11 -10,27 -16,53c-8,30 -1,-29 -1,-42c1,-15 1,-30 0,-45c0,-2 0,0 0,-7c1,-7 -1,-12 -1,-18c-1,-5 -1,-15 -2,-18c-1,-4 -1,-4 -2,-5c-2,-12 -5,-23 -7,-33c0,-3 -1,-11 -2,-14c-6,-13 -1,-11 -7,-19c-1,-1 -10,-41 -12,-47c-3,-7 -8,-14 -12,-22c-1,-1 -2,-2 -2,-3c-3,-5 -4,-9 -6,-12c-2,-2 -5,-3 -9,-5c-2,-2 -4,-4 -6,-6c-11,-11 -22,-19 -35,-25c-2,-2 -4,-3 -6,-5c-8,-6 -8,-15 -20,-12c-19,3 -16,1 -34,-3c-15,-3 -25,-4 -34,-5c-10,-2 -19,-4 -28,-3c-9,1 -18,4 -28,7c-9,2 -20,3 -28,4c-7,1 -11,2 -16,5c-6,2 -12,6 -20,8c-8,3 -17,5 -23,10c-6,4 -9,12 -13,17c-5,6 -12,11 -19,16c-6,6 -12,12 -17,22c-5,10 -8,23 -10,33c-3,10 -4,17 -8,27c-4,10 -10,22 -14,40c-4,18 -5,40 -6,71c0,30 1,69 -1,78Z" style="fill:#211d1e;"/><path d="M578,295c-4,-4 -15,-8 -26,-10c-11,-2 -22,-3 -30,-3c-9,0 -16,1 -23,4c-8,2 -16,7 -22,14c-7,7 -11,16 -12,19c0,3 4,1 12,-3c9,-3 21,-7 33,-10c13,-2 26,-3 35,-3c10,0 18,0 23,0c5,0 9,1 11,-1c2,-1 4,-4 -1,-7Z" style="fill:#000;"/><path d="M708,293c4,-3 15,-7 26,-9c11,-2 22,-2 31,-2c8,1 15,2 22,5c8,2 16,7 22,15c6,7 10,16 10,19c0,4 -3,1 -11,-3c-8,-4 -21,-8 -33,-11c-12,-3 -25,-4 -35,-5c-10,-1 -17,-1 -23,-1c-5,0 -8,1 -10,-1c-3,-1 -4,-4 1,-7Z" style="fill:#000;"/><path d="M557,365c-6,0 -12,-8 -12,-17c1,-10 6,-18 13,-18c7,0 12,8 12,18c0,10 -6,17 -13,17Z" style="fill:#000;"/><path d="M729,365c-7,0 -12,-8 -12,-17c0,-10 6,-18 13,-18c7,0 12,8 12,18c0,10 -6,17 -13,17Z" style="fill:#000;"/><path d="M627,445c1,4 6,13 30,15c2,0 3,2 3,5c-10,-1 -42,-2 -40,-21c0,-7 3,-13 7,-23c11,-21 12,-22 0,24Z" style="fill:#151514;fill-rule:nonzero;"/><path d="M703,543c-34,43 -95,33 -111,-4" style="fill:none;stroke-width:10.41px;stroke:#b8a48a;"/><path d="M578,659c0,-3 9,-4 17,-5c8,-1 16,-3 22,-5c5,-3 9,-7 11,-11c3,-4 5,-9 7,-12c2,-3 4,-4 7,-4c3,0 7,0 9,0c2,1 4,2 7,4c3,2 7,6 13,9c6,3 13,6 18,8c5,1 8,2 13,2c5,0 13,1 19,1c7,1 13,2 17,1c4,0 6,-1 1,1c-5,3 -18,9 -27,14c-10,5 -17,8 -27,11c-10,2 -23,3 -34,4c-11,0 -20,1 -29,0c-9,-1 -18,-3 -27,-6c-9,-4 -17,-9 -17,-12Z" style="fill:#000;fill-opacity:0.184314;"/><path d="M403,311c-4,3 -9,9 -14,13c-6,3 -11,5 -14,6c-3,1 -5,1 -4,2c0,1 2,3 5,4c2,0 6,0 6,2c0,2 -3,7 -6,10c-3,3 -5,4 -6,5c-1,1 -1,1 5,-1c7,-2 19,-6 26,-11c8,-5 12,-11 14,-16c3,-4 3,-8 3,-11c-1,-3 -2,-6 -4,-7c-2,0 -6,0 -11,4Z" style="fill:#211d1e;"/><path d="M902,322c4,4 10,9 15,13c5,4 10,6 13,7c3,1 5,1 5,2c-1,1 -3,3 -5,3c-3,1 -7,1 -7,3c0,2 3,7 6,9c3,3 5,5 6,5c1,1 1,1 -5,-1c-6,-1 -18,-6 -26,-11c-8,-5 -12,-10 -14,-15c-2,-5 -3,-8 -2,-12c0,-3 1,-5 3,-6c3,-1 6,0 11,3Z" style="fill:#211d1e;"/><path d="M938,1546c-25,-248 -40,-497 -55,-747c-1,-10 0,-6 -1,-12c-41,-22 -118,-47 -151,-54c-16,80 -148,69 -165,-3c-40,16 -78,24 -130,48c-19,255 -30,505 -49,762c75,20 154,33 238,37c17,0 34,1 51,1c92,0 180,-11 262,-32ZM444,772c-2,2 -4,3 0,0Z" style="fill:#000;"/><path d="M415,1128c7,-116 14,-233 23,-351c-11,4 -23,11 -36,26c-16,16 -30,41 -44,85c-9,30 -18,67 -27,106c-9,37 -18,77 -27,110c17,16 35,32 55,44c13,10 28,17 43,24c5,-14 9,-28 13,-44Z" style="fill:#000;"/><path d="M884,871c2,39 5,78 7,117c19,39 39,90 57,149c1,6 3,11 5,17c18,-7 36,-14 54,-21c18,-8 35,-16 51,-26c1,-1 1,-1 2,-1c0,-1 0,-2 -1,-2c-31,-115 -82,-263 -180,-318c2,28 3,56 5,85Z" style="fill:#000;"/><path d="M259,773c-1,-3 -7,-5 -16,-5c-9,1 -22,4 -33,12c-12,8 -24,20 -30,27c-7,7 -9,8 -11,8c-2,1 -4,0 -6,-6c-3,-6 -6,-17 -9,-32c-3,-15 -7,-34 -8,-55c-1,-21 0,-43 -2,-58c-1,-16 -5,-24 -8,-29c-3,-5 -4,-6 -6,-7c-1,-1 -3,-1 -4,0c-2,1 -3,4 -4,13c-1,10 -1,28 -3,51c-1,23 -4,52 -5,65c-1,12 0,9 -2,1c-2,-8 -8,-22 -11,-41c-4,-19 -6,-43 -8,-61c-3,-17 -6,-27 -10,-33c-3,-6 -8,-8 -11,-9c-3,-1 -4,0 -5,0c-1,1 -1,2 0,17c0,15 1,44 1,60c1,16 1,19 3,30c1,11 3,30 4,39c1,9 1,9 -1,0c-2,-9 -7,-26 -11,-46c-4,-19 -7,-41 -11,-55c-4,-13 -8,-19 -12,-21c-4,-3 -7,-2 -8,-2c-2,1 -2,0 -1,10c0,10 1,30 1,44c1,14 2,22 3,27c1,6 2,8 5,18c2,9 4,24 6,32c1,8 0,8 -3,-1c-4,-8 -11,-25 -16,-39c-5,-13 -9,-23 -12,-29c-3,-6 -6,-9 -8,-10c-3,-1 -6,-1 -7,2c0,3 2,8 4,17c2,9 3,21 7,33c4,13 9,26 13,36c4,10 6,18 9,33c3,14 6,35 11,64c6,30 14,67 18,88c5,20 6,24 13,25c7,2 20,0 34,-2c15,-2 30,-4 38,-8c7,-3 6,-8 6,-18c0,-10 1,-26 3,-41c3,-15 7,-29 14,-39c7,-10 17,-15 25,-26c8,-10 15,-25 22,-37c7,-11 15,-20 21,-25c6,-5 10,-7 14,-9c4,-3 8,-6 7,-8Z" style="fill:#fccf97;"/></svg>