<?xml version="1.0" standalone="no"?><!DOCTYPE svg PUBLIC "-//W3C//DTD SVG 1.1//EN" "http://www.w3.org/Graphics/SVG/1.1/DTD/svg11.dtd"><svg width="100%" height="100%" viewBox="0 0 8268 11693" version="1.1" xmlns="http://www.w3.org/2000/svg" xmlns:xlink="http://www.w3.org/1999/xlink" xml:space="preserve" style="fill-rule:evenodd;clip-rule:evenodd;stroke-linecap:round;stroke-linejoin:round;stroke-miterlimit:1.41421;"><g id="Layer_x0020_1"><path d="M1019,1589c-1,1 -1,-1 -2,0c-4,5 -9,16 -17,40c-7,23 -15,58 -24,95c-14,60 -29,125 -48,170c-19,46 -43,72 -69,85l1,0c-32,17 -62,14 -89,5c-22,-8 -43,-21 -63,-42c-17,-19 -33,-44 -47,-78c-25,-58 -49,-148 -72,-238l0,-2l52,-13l54,-16l1,2c22,85 44,171 67,224c9,22 18,36 27,46c6,7 12,10 18,12c1,1 -2,3 0,2c4,-2 10,-10 18,-30c14,-35 29,-96 42,-152c9,-38 17,-74 26,-103c13,-42 28,-67 42,-82c20,-22 37,-27 54,-31l29,106Z" style="fill:#fccf97;fill-rule:nonzero;"/><path d="M1396,1484c21,16 41,32 65,58c22,24 45,56 67,100c22,44 44,101 63,163c17,58 32,123 43,188c21,133 23,267 24,401l-65,0l-46,1l0,-1c-1,-129 -2,-258 -23,-383c-9,-60 -23,-119 -40,-174c-17,-58 -36,-108 -55,-145c-17,-35 -34,-58 -50,-76c-16,-17 -34,-31 -52,-45l69,-87Z" style="fill:#fccea7;fill-rule:nonzero;"/><path d="M1238,1214l-4,216l91,33l-186,167l-102,-164l91,-32l13,-208l97,-12Z" style="fill:#fccf97;"/><ellipse cx="1386" cy="1101" rx="70" ry="67" style="fill:#fccf97;"/><ellipse cx="978" cy="1101" rx="70" ry="67" style="fill:#fccf97;"/><path d="M972,937c-3,37 -6,95 -3,154c3,58 12,117 30,162c19,45 47,76 78,96c31,20 65,30 100,31c36,1 72,-5 105,-29c33,-24 63,-65 82,-106c20,-41 30,-83 33,-143c3,-60 0,-139 -9,-196c-9,-57 -25,-92 -46,-117c-22,-24 -48,-38 -78,-47c-30,-10 -64,-16 -105,-11c-41,5 -90,21 -121,45c-32,25 -45,57 -53,82c-8,24 -11,41 -13,79Z" style="fill:#fccf97;"/><path d="M968,1091c-3,9 -8,-11 -15,-23c-6,-13 -12,-18 -16,-22c-4,-3 -6,-5 -5,-14c2,-9 6,-25 7,-47c1,-22 -2,-50 -2,-71c1,-21 5,-37 14,-53c9,-16 23,-32 34,-47c12,-14 20,-26 32,-39c12,-12 29,-25 50,-36c20,-10 46,-18 65,-24c19,-5 32,-8 48,-8c16,1 35,5 50,8c16,3 28,5 40,8c12,4 24,10 36,17c13,6 25,14 38,25c13,12 27,27 38,41c11,15 20,29 25,43c5,14 7,28 11,48c4,19 10,43 12,65c0,5 1,11 2,19c5,38 11,64 5,76c-1,3 -19,-23 -24,-8c-3,11 -10,27 -16,53c-8,30 -1,-29 -1,-42c1,-15 1,-30 0,-45c0,-2 0,0 0,-7c1,-7 -1,-12 -1,-18c-1,-5 -1,-15 -2,-18c-1,-4 -1,-4 -2,-5c-2,-12 -5,-23 -7,-33c0,-3 -1,-11 -2,-14c-6,-13 -1,-11 -7,-19c-1,-1 -10,-41 -12,-47c-3,-7 -8,-14 -12,-22c-1,-1 -2,-2 -2,-3c-3,-5 -4,-9 -6,-12c-2,-2 -5,-3 -9,-5c-2,-2 -4,-4 -6,-6c-11,-11 -22,-19 -35,-25c-2,-2 -4,-3 -6,-5c-8,-6 -8,-15 -20,-12c-19,3 -16,1 -34,-3c-15,-3 -25,-4 -34,-5c-10,-2 -19,-4 -28,-3c-9,1 -18,4 -28,7c-9,2 -20,3 -28,4c-7,1 -11,2 -16,5c-6,2 -12,6 -20,8c-8,3 -17,5 -23,10c-6,4 -9,12 -13,17c-5,6 -12,11 -19,16c-6,6 -12,12 -17,22c-5,10 -8,23 -10,33c-3,10 -4,17 -8,27c-4,10 -10,22 -14,40c-4,18 -5,40 -6,71c0,30 1,69 -1,78Z" style="fill:#211d1e;"/><path d="M1114,1002c-4,-4 -15,-8 -26,-10c-11,-2 -22,-3 -30,-3c-9,0 -16,1 -23,4c-8,2 -16,7 -22,14c-7,7 -11,16 -12,19c0,3 4,1 12,-3c9,-3 21,-7 33,-10c13,-2 26,-3 35,-3c10,0 18,0 23,0c5,0 9,1 11,-1c2,-1 4,-4 -1,-7Z" style="fill:#000;"/><path d="M1244,1000c4,-3 15,-7 26,-9c11,-2 22,-2 31,-2c8,1 15,2 22,5c8,2 16,7 22,15c6,7 10,16 10,19c0,4 -3,1 -11,-3c-8,-4 -21,-8 -33,-11c-12,-3 -25,-4 -35,-5c-10,-1 -17,-1 -23,-1c-5,0 -8,1 -10,-1c-3,-1 -4,-4 1,-7Z" style="fill:#000;"/><path d="M1093,1072c-6,0 -12,-8 -12,-17c1,-10 6,-18 13,-18c7,0 12,8 12,18c0,10 -6,17 -13,17Z" style="fill:#000;"/><path d="M1265,1072c-7,0 -12,-8 -12,-17c0,-10 6,-18 13,-18c7,0 12,8 12,18c0,10 -6,17 -13,17Z" style="fill:#000;"/><path d="M1163,1152c1,4 6,13 30,15c2,0 3,2 3,5c-10,-1 -42,-2 -40,-21c0,-7 3,-13 7,-23c11,-21 12,-22 0,24Z" style="fill:#151514;fill-rule:nonzero;"/><path d="M1239,1250c-34,43 -95,33 -111,-4" style="fill:none;stroke-width:10.41px;stroke:#b8a48a;"/><path d="M1114,1366c0,-3 9,-4 17,-5c8,-1 16,-3 22,-5c5,-3 9,-7 11,-11c3,-4 5,-9 7,-12c2,-3 4,-4 7,-4c3,0 7,0 9,0c2,1 4,2 7,4c3,2 7,6 13,9c6,3 13,6 18,8c5,1 8,2 13,2c5,0 13,1 19,1c7,1 13,2 17,1c4,0 6,-1 1,1c-5,3 -18,9 -27,14c-10,5 -17,8 -27,11c-10,2 -23,3 -34,4c-11,0 -20,1 -29,0c-9,-1 -18,-3 -27,-6c-9,-4 -17,-9 -17,-12Z" style="fill:#000;fill-opacity:0.184314;"/><path d="M939,1018c-4,3 -9,9 -14,13c-6,3 -11,5 -14,6c-3,1 -5,1 -4,2c0,1 2,3 5,4c2,0 6,0 6,2c0,2 -3,7 -6,10c-3,3 -5,4 -6,5c-1,1 -1,1 5,-1c7,-2 19,-6 26,-11c8,-5 12,-11 14,-16c3,-4 3,-8 3,-11c-1,-3 -2,-6 -4,-7c-2,0 -6,0 -11,4Z" style="fill:#211d1e;"/><path d="M1438,1029c4,4 10,9 15,13c5,4 10,6 13,7c3,1 5,1 5,2c-1,1 -3,3 -5,3c-3,1 -7,1 -7,3c0,2 3,7 6,9c3,3 5,5 6,5c1,1 1,1 -5,-1c-6,-1 -18,-6 -26,-11c-8,-5 -12,-10 -14,-15c-2,-5 -3,-8 -2,-12c0,-3 1,-5 3,-6c3,-1 6,0 11,3Z" style="fill:#211d1e;"/><path d="M1474,2253c-25,-248 -40,-497 -55,-747c-1,-10 0,-6 -1,-12c-41,-22 -118,-47 -151,-54c-16,80 -148,69 -165,-3c-40,16 -78,24 -130,48c-19,255 -30,505 -49,762c75,20 154,33 238,37c17,0 34,1 51,1c92,0 180,-11 262,-32ZM980,1479c-2,2 -4,3 0,0Z" style="fill:#000;"/><path d="M951,1835c7,-116 14,-233 23,-351c-11,4 -23,11 -36,26c-16,16 -30,41 -44,85c-9,30 -18,67 -27,106c-9,37 -18,77 -27,110c17,16 35,32 55,44c13,10 28,17 43,24c5,-14 9,-28 13,-44Z" style="fill:#000;"/><path d="M1420,1578c2,39 5,78 7,117c19,39 39,90 57,149c1,6 3,11 5,17c18,-7 36,-14 54,-21c18,-8 35,-16 51,-26c1,-1 1,-1 2,-1c0,-1 0,-2 -1,-2c-31,-115 -82,-263 -180,-318c2,28 3,56 5,85Z" style="fill:#000;"/><path d="M795,1480c-1,-3 -7,-5 -16,-5c-9,1 -22,4 -33,12c-12,8 -24,20 -30,27c-7,7 -9,8 -11,8c-2,1 -4,0 -6,-6c-3,-6 -6,-17 -9,-32c-3,-15 -7,-34 -8,-55c-1,-21 0,-43 -2,-58c-1,-16 -5,-24 -8,-29c-3,-5 -4,-6 -6,-7c-1,-1 -3,-1 -4,0c-2,1 -3,4 -4,13c-1,10 -1,28 -3,51c-1,23 -4,52 -5,65c-1,12 0,9 -2,1c-2,-8 -8,-22 -11,-41c-4,-19 -6,-43 -8,-61c-3,-17 -6,-27 -10,-33c-3,-6 -8,-8 -11,-9c-3,-1 -4,0 -5,0c-1,1 -1,2 0,17c0,15 1,44 1,60c1,16 1,19 3,30c1,11 3,30 4,39c1,9 1,9 -1,0c-2,-9 -7,-26 -11,-46c-4,-19 -7,-41 -11,-55c-4,-13 -8,-19 -12,-21c-4,-3 -7,-2 -8,-2c-2,1 -2,0 -1,10c0,10 1,30 1,44c1,14 2,22 3,27c1,6 2,8 5,18c2,9 4,24 6,32c1,8 0,8 -3,-1c-4,-8 -11,-25 -16,-39c-5,-13 -9,-23 -12,-29c-3,-6 -6,-9 -8,-10c-3,-1 -6,-1 -7,2c0,3 2,8 4,17c2,9 3,21 7,33c4,13 9,26 13,36c4,10 6,18 9,33c3,14 6,35 11,64c6,30 14,67 18,88c5,20 6,24 13,25c7,2 20,0 34,-2c15,-2 30,-4 38,-8c7,-3 6,-8 6,-18c0,-10 1,-26 3,-41c3,-15 7,-29 14,-39c7,-10 17,-15 25,-26c8,-10 15,-25 22,-37c7,-11 15,-20 21,-25c6,-5 10,-7 14,-9c4,-3 8,-6 7,-8Z" style="fill:#fccf97;"/><path d="M2928,1589c-1,1 -1,-1 -2,0c-4,5 -10,16 -17,40c-7,23 -16,58 -24,95c-14,60 -30,125 -48,170c-19,46 -43,72 -69,85c-31,17 -61,14 -88,5c-23,-8 -44,-21 -63,-42c-17,-19 -33,-44 -47,-78c-26,-58 -49,-148 -72,-238l-1,-2l53,-13l54,-16l1,2c22,85 44,171 67,224c9,22 18,36 27,46c6,7 12,10 18,12c1,1 -2,3 0,2c4,-2 10,-10 18,-30c14,-35 28,-96 42,-152c9,-38 17,-74 26,-103c13,-42 27,-67 42,-82c20,-22 37,-27 54,-31l29,106Z" style="fill:#fccf97;fill-rule:nonzero;"/><path d="M3305,1484c20,16 41,32 64,58c23,24 45,56 68,100c22,44 44,101 63,163c17,58 32,123 43,188c21,133 22,267 24,401l-66,0l-45,1l0,-1c-1,-129 -2,-258 -23,-383c-9,-60 -23,-119 -40,-174c-17,-58 -36,-108 -55,-145c-17,-35 -34,-58 -50,-76c-16,-17 -34,-31 -52,-45l69,-87Z" style="fill:#fccea7;fill-rule:nonzero;"/><path d="M3147,1214l-4,216l91,33l-186,167l-102,-164l90,-32l14,-208l97,-12Z" style="fill:#fccf97;"/><ellipse cx="3294" cy="1092" rx="70" ry="67" style="fill:#fccf97;"/><ellipse cx="2887" cy="1092" rx="70" ry="67" style="fill:#fccf97;"/><path d="M2881,965c-3,35 -6,88 -3,141c3,54 11,107 30,149c18,41 47,69 78,88c31,18 65,27 100,28c35,1 72,-5 105,-26c33,-22 62,-60 82,-98c20,-38 29,-76 33,-131c3,-55 0,-127 -9,-179c-10,-52 -25,-84 -47,-107c-21,-22 -47,-34 -77,-43c-30,-9 -64,-14 -105,-10c-41,5 -90,20 -121,42c-32,22 -46,52 -54,74c-8,23 -10,38 -12,72Z" style="fill:#fccf97;"/><path d="M2877,1084c-6,19 -30,-58 -29,-94c1,-19 -2,-43 -2,-62c1,-19 4,-32 13,-46c10,-14 24,-29 35,-42c11,-12 19,-23 32,-34c12,-11 29,-23 49,-32c21,-9 46,-16 65,-21c20,-5 33,-8 49,-7c16,0 35,4 50,6c16,3 27,5 39,8c12,3 25,8 37,14c12,6 25,13 38,23c13,10 26,23 38,36c11,13 19,26 25,38c5,13 7,25 11,42c4,17 9,38 12,57c0,5 3,11 2,17c-19,60 -10,33 -19,60c-3,10 -10,24 -16,47c-8,27 -1,-25 -1,-37c2,-58 -26,-65 -27,-185c-1,-8 -19,-26 -48,-27c-2,-2 14,-7 7,-12c-7,-6 -22,-17 -36,-22c-2,-2 -4,-3 -5,-4c-8,-6 -8,-13 -20,-11c-19,2 -16,1 -34,-3c-15,-3 -25,-3 -34,-4c-10,-2 -19,-3 -28,-3c-9,1 -18,4 -28,6c-10,2 -20,3 -28,4c-7,1 -11,2 -16,4c-6,2 -13,5 -21,8c-7,2 -16,4 -22,8c-6,4 -9,10 -14,16c-4,5 -11,9 -18,13c-7,5 -13,11 -17,19c-5,9 -8,21 -11,30c-2,9 -3,15 -7,24c-4,8 -11,19 -15,35c-4,15 -5,35 -5,62c0,27 1,61 -1,69Z" style="fill:#211d1e;"/><path d="M3023,999c-5,-4 -15,-8 -26,-10c-11,-2 -22,-3 -31,-3c-8,0 -15,1 -22,3c-8,3 -16,8 -23,15c-6,6 -10,16 -11,19c0,3 4,1 12,-3c8,-3 21,-8 33,-10c13,-2 25,-3 35,-3c10,-1 18,-1 23,0c5,0 8,0 11,-1c2,-1 4,-4 -1,-7Z" style="fill:#000;"/><path d="M3152,997c5,-4 16,-7 27,-9c11,-2 22,-2 31,-2c8,1 15,1 22,4c7,3 16,8 22,15c6,7 10,17 10,20c0,3 -4,1 -12,-3c-8,-4 -20,-9 -32,-12c-13,-3 -25,-4 -35,-4c-10,-1 -17,-1 -23,-1c-5,0 -8,0 -11,-1c-2,-1 -3,-4 1,-7Z" style="fill:#000;"/><path d="M3002,1069c-7,0 -12,-8 -12,-18c0,-9 6,-17 13,-17c7,0 12,8 12,18c0,10 -6,17 -13,17Z" style="fill:#000;"/><path d="M3174,1069c-7,0 -12,-8 -12,-18c0,-9 6,-17 13,-17c7,0 12,8 12,18c0,10 -6,17 -13,17Z" style="fill:#000;"/><path d="M3072,1128c1,9 6,26 29,30c3,1 4,5 4,11c-11,-3 -42,-4 -41,-44c1,-13 4,-25 8,-45c11,-43 12,-45 0,48Z" style="fill:#151514;fill-rule:nonzero;"/><path d="M3383,2253c-25,-248 -40,-497 -55,-747c-1,-10 0,-6 -1,-12c-41,-22 -118,-47 -152,-54c-15,80 -147,69 -165,-3c-39,16 -77,24 -129,48c-19,255 -30,505 -49,762c74,20 154,33 237,37c17,0 34,1 52,1c92,0 180,-11 262,-32ZM2889,1479c-2,2 -4,3 0,0Z" style="fill:#000;"/><path d="M2860,1835c7,-116 14,-233 23,-351c-11,4 -23,11 -37,26c-15,16 -29,41 -43,85c-9,30 -18,67 -27,106c-9,37 -18,77 -28,110c18,16 36,32 55,44c14,10 29,17 44,24c4,-14 9,-28 13,-44Z" style="fill:#000;"/><path d="M3329,1578c2,39 4,78 7,117c19,39 39,90 56,149c2,6 4,11 5,17c19,-7 37,-14 55,-21c18,-8 35,-16 51,-26c1,-1 1,-1 2,-1c0,-1 -1,-2 -1,-2c-31,-115 -82,-263 -180,-318c2,28 3,56 5,85Z" style="fill:#000;"/><path d="M2704,1480c-1,-3 -7,-5 -16,-5c-9,1 -22,4 -34,12c-11,8 -23,20 -30,27c-6,7 -9,8 -11,8c-2,1 -3,0 -5,-6c-3,-6 -6,-17 -9,-32c-3,-15 -7,-34 -8,-55c-1,-21 0,-43 -2,-58c-1,-16 -5,-24 -8,-29c-3,-5 -4,-6 -6,-7c-1,-1 -3,-1 -4,0c-2,1 -3,4 -4,13c-1,10 -1,28 -3,51c-2,23 -4,52 -5,65c-1,12 0,9 -2,1c-2,-8 -8,-22 -12,-41c-3,-19 -5,-43 -7,-61c-3,-17 -6,-27 -10,-33c-4,-6 -8,-8 -11,-9c-3,-1 -4,0 -5,0c-1,1 -1,2 -1,17c1,15 1,44 2,60c1,16 1,19 2,30c2,11 4,30 5,39c1,9 1,9 -1,0c-3,-9 -7,-26 -11,-46c-4,-19 -7,-41 -11,-55c-4,-13 -8,-19 -12,-21c-4,-3 -7,-2 -8,-2c-2,1 -2,0 -2,10c1,10 1,30 2,44c1,14 2,22 3,27c1,6 2,8 4,18c2,9 5,24 6,32c2,8 1,8 -2,-1c-4,-8 -11,-25 -16,-39c-5,-13 -9,-23 -12,-29c-3,-6 -6,-9 -9,-10c-2,-1 -5,-1 -6,2c0,3 2,8 4,17c2,9 3,21 7,33c3,13 9,26 13,36c4,10 6,18 9,33c3,14 6,35 11,64c6,30 14,67 18,88c4,20 5,24 12,25c8,2 21,0 35,-2c15,-2 30,-4 37,-8c8,-3 7,-8 7,-18c0,-10 1,-26 3,-41c3,-15 7,-29 14,-39c7,-10 17,-15 25,-26c8,-10 14,-25 21,-37c8,-11 15,-20 21,-25c6,-5 11,-7 15,-9c4,-3 8,-6 7,-8Z" style="fill:#fccf97;"/><path d="M3159,1222c-6,31 -34,54 -67,54c-33,0 -61,-23 -68,-54l135,0Z" style="fill:#fff;"/><path d="M2893,893c-14,-27 75,-64 124,-46c44,16 172,-2 225,-2c51,0 18,28 44,28c4,-41 2,-47 -51,-66c-75,-28 -216,-68 -287,-14c-10,8 -53,78 -53,91c0,7 -3,6 -2,9Z" style="fill:#211d1e;"/><path d="M4752,1589c-2,1 -1,-1 -2,0c-5,5 -11,16 -19,40c-8,23 -17,58 -27,95c-15,60 -32,125 -52,170c-21,46 -47,72 -75,85c-35,17 -67,14 -97,5c-25,-8 -48,-21 -69,-42c-19,-19 -36,-44 -52,-78c-27,-58 -53,-148 -79,-238l0,-2l57,-13l60,-16l0,2c25,85 49,171 74,224c10,22 20,36 30,46c6,7 13,10 19,12c2,1 -2,3 0,2l1,0c4,-2 10,-10 19,-30c16,-35 31,-96 46,-152c10,-38 19,-74 29,-103c14,-42 30,-67 46,-82c22,-22 40,-27 59,-31l32,106Z" style="fill:#fccf97;fill-rule:nonzero;"/><path d="M5164,1484c23,16 46,32 71,58c25,24 49,56 74,100c24,44 48,101 69,163c19,58 35,123 47,188c23,133 25,267 26,401l-71,0l-50,1l0,-1c-1,-129 -3,-258 -25,-383c-10,-60 -26,-119 -44,-174c-19,-58 -40,-108 -61,-145c-18,-35 -36,-58 -54,-76c-17,-17 -37,-31 -57,-45l75,-87Z" style="fill:#fccea7;fill-rule:nonzero;"/><path d="M4978,1214l-4,216l91,33l-186,167l-102,-164l90,-32l14,-208l97,-12Z" style="fill:#fccf97;"/><ellipse cx="5126" cy="1143" rx="70" ry="67" style="fill:#fccf97;"/><ellipse cx="4718" cy="1143" rx="70" ry="67" style="fill:#fccf97;"/><path d="M4712,1006c-3,34 -6,87 -3,141c3,53 12,107 33,148c20,42 54,72 85,90c31,18 60,26 96,23c36,-2 79,-14 112,-36c33,-22 56,-53 73,-87c16,-35 25,-73 29,-128c3,-55 0,-127 -9,-179c-9,-53 -25,-85 -46,-107c-22,-23 -48,-35 -78,-44c-30,-9 -64,-14 -105,-9c-41,4 -90,19 -121,41c-32,22 -46,52 -54,75c-8,22 -10,38 -12,72Z" style="fill:#fccf97;"/><path d="M4708,1124c-6,19 -30,-57 -29,-93c1,-20 -2,-44 -2,-62c1,-19 4,-33 14,-47c9,-14 23,-29 34,-41c11,-13 20,-24 32,-35c73,-66 155,-87 185,-135c23,0 111,103 142,126c13,10 27,24 38,36c11,13 20,26 25,38c5,13 7,25 11,42c4,17 10,39 12,57c0,5 4,11 2,17c-19,61 -10,34 -19,61c-3,9 -10,24 -16,46c-8,27 -1,-25 -1,-37c2,-57 -26,-65 -27,-185c0,-8 -19,-25 -48,-27c-2,-1 14,-6 7,-12c-7,-6 -22,-16 -36,-22c-2,-1 -4,-2 -5,-4c-8,-6 -8,-13 -20,-11c-19,3 -16,1 -34,-2c-15,-3 -25,-4 -34,-5c-10,-1 -19,-3 -28,-2c-9,0 -18,3 -28,5c-9,2 -20,3 -28,4c-7,1 -11,2 -16,5c-6,2 -13,5 -20,7c-8,2 -17,4 -23,8c-6,4 -9,11 -14,16c-4,5 -11,9 -18,14c-6,5 -13,10 -17,19c-5,8 -8,20 -11,29c-2,9 -3,15 -7,24c-4,9 -10,20 -14,35c-4,16 -5,36 -6,63c0,27 1,60 -1,68Z" style="fill:#211d1e;"/><path d="M4854,1056c-5,-4 -15,-8 -26,-10c-11,-2 -22,-3 -31,-3c-8,0 -15,1 -21,2c-7,2 -14,4 -20,7c-6,3 -12,7 -10,8c2,1 12,0 24,-2c12,-2 27,-4 40,-3c13,1 24,5 32,7c7,2 11,3 13,1c2,-1 4,-4 -1,-7Z" style="fill:#000;"/><path d="M4833,1126c-7,0 -12,-8 -12,-18c0,-9 6,-17 13,-17c7,0 12,8 12,18c0,10 -6,17 -13,17Z" style="fill:#000;"/><path d="M5005,1126c-7,0 -12,-8 -12,-18c0,-9 6,-17 13,-17c7,0 12,8 12,18c0,10 -6,17 -13,17Z" style="fill:#000;"/><path d="M4903,1185c1,9 6,26 30,31c2,0 3,5 3,10c-11,-3 -42,-4 -41,-43c1,-14 4,-26 8,-45c11,-44 12,-46 0,47Z" style="fill:#151514;fill-rule:nonzero;"/><path d="M5250,2253c-27,-248 -44,-497 -60,-747c-1,-10 -1,-6 -1,-12c-45,-22 -129,-47 -166,-54c-18,80 -162,69 -181,-3c-43,16 -85,24 -142,48c-21,255 -33,505 -54,762c82,20 170,33 261,37c18,0 37,1 56,1c100,0 197,-11 287,-32ZM4709,1479c-2,2 -5,3 0,0Z" style="fill:#000;"/><path d="M4677,1835c8,-116 16,-233 26,-351c-13,4 -26,11 -41,26c-16,16 -32,41 -47,85c-10,30 -20,67 -30,106c-9,37 -20,77 -30,110c19,16 39,32 60,44c15,10 31,17 48,24c5,-14 10,-28 14,-44Z" style="fill:#000;"/><path d="M5191,1578c2,39 5,78 7,117c21,39 43,90 62,149c2,6 4,11 6,17c20,-7 40,-14 59,-21c20,-8 39,-16 57,-26c0,-1 1,-1 1,-1c0,-1 0,-2 0,-2c-34,-115 -91,-263 -198,-318c2,28 4,56 6,85Z" style="fill:#000;"/><path d="M4506,1480c-1,-3 -7,-5 -17,-5c-10,1 -24,4 -37,12c-13,8 -25,20 -33,27c-7,7 -10,8 -12,8c-2,1 -4,0 -6,-6c-3,-6 -6,-17 -10,-32c-3,-15 -7,-34 -8,-55c-2,-21 -1,-43 -2,-58c-2,-16 -6,-24 -9,-29c-3,-5 -5,-6 -7,-7c-1,-1 -3,-1 -5,0c-1,1 -3,4 -3,13c-1,10 -2,28 -4,51c-2,23 -5,52 -6,65c-1,12 1,9 -2,1c-2,-8 -8,-22 -12,-41c-4,-19 -6,-43 -9,-61c-3,-17 -6,-27 -10,-33c-4,-6 -9,-8 -12,-9c-4,-1 -5,0 -6,0c-1,1 -1,2 -1,17c1,15 2,44 2,60c1,16 1,19 3,30c1,11 4,30 5,39c1,9 1,9 -1,0c-3,-9 -8,-26 -12,-46c-5,-19 -8,-41 -12,-55c-5,-13 -9,-19 -13,-21c-4,-3 -8,-2 -10,-2c-1,1 -1,0 -1,10c0,10 1,30 2,44c1,14 2,22 3,27c1,6 3,8 5,18c2,9 5,24 6,32c2,8 1,8 -3,-1c-4,-8 -11,-25 -17,-39c-6,-13 -10,-23 -13,-29c-3,-6 -6,-9 -9,-10c-3,-1 -7,-1 -7,2c0,3 2,8 4,17c2,9 4,21 8,33c4,13 10,26 14,36c4,10 7,18 10,33c3,14 6,35 12,64c6,30 15,67 20,88c5,20 6,24 13,25c8,2 23,0 38,-2c16,-2 33,-4 41,-8c8,-3 7,-8 7,-18c0,-10 1,-26 4,-41c3,-15 7,-29 15,-39c8,-10 19,-15 27,-26c9,-10 16,-25 24,-37c8,-11 16,-20 23,-25c6,-5 11,-7 15,-9c5,-3 9,-6 8,-8Z" style="fill:#fccf97;"/><path d="M4724,934c-14,-28 75,-65 124,-47c44,16 172,-2 225,-2c51,0 18,29 44,29c4,-41 2,-48 -50,-67c-76,-27 -216,-68 -288,-13c-10,7 -53,77 -53,90c0,8 -3,6 -2,10Z" style="fill:#211d1e;"/><path d="M4697,1074c49,-6 82,-7 125,-6c73,2 68,26 101,24c33,2 28,-22 101,-24c43,-1 76,0 125,6l1,35c-16,14 -16,30 -26,57c-10,30 -82,30 -123,25c-25,-3 -38,-14 -46,-31c-9,-20 -15,-44 -32,-46c-17,2 -23,26 -32,46c-8,17 -21,28 -46,31c-40,5 -112,5 -123,-25c-10,-27 -10,-43 -26,-57l1,-35ZM5086,1078c-56,-6 -122,4 -129,18c-8,16 -7,58 25,80c13,10 32,11 58,11c62,-4 77,-13 82,-48c2,-8 2,-18 1,-26c-1,-16 -12,-32 -37,-35ZM4760,1078c56,-6 122,4 129,18c8,16 7,58 -25,80c-13,10 -31,11 -58,11c-62,-4 -76,-13 -82,-48c-2,-8 -2,-18 -1,-26c1,-16 12,-32 37,-35Z" style="fill:#000;"/><path d="M4981,1056c5,-4 16,-8 27,-10c10,-2 21,-3 30,-3c9,0 15,1 22,2c6,2 13,4 19,7c6,3 12,7 10,8c-2,1 -12,0 -24,-2c-12,-2 -26,-4 -39,-3c-13,1 -25,5 -32,7c-8,2 -11,3 -13,1c-3,-1 -4,-4 0,-7Z" style="fill:#000;"/><path d="M4983,1288c-34,43 -95,33 -111,-4" style="fill:none;stroke-width:10.41px;stroke:#b8a48a;"/><path d="M6504,1589c-2,1 -1,-1 -2,0c-5,5 -10,16 -17,40c-8,23 -16,58 -25,95c-14,60 -29,125 -47,170c-20,46 -43,72 -69,85c-32,17 -61,14 -88,5c-23,-8 -44,-21 -64,-42c-17,-19 -32,-44 -47,-78c-25,-58 -48,-148 -72,-238l0,-2l52,-13l55,-16l0,2c22,85 45,171 67,224c10,22 19,36 27,46c6,7 12,10 18,12c2,1 -1,3 0,2l1,0c4,-2 9,-10 17,-30c15,-35 29,-96 42,-152c9,-38 18,-74 27,-103c13,-42 27,-67 42,-82c20,-22 37,-27 54,-31l29,106Z" style="fill:#fccf97;fill-rule:nonzero;"/><path d="M6880,1484c21,16 42,32 65,58c23,24 45,56 67,100c22,44 44,101 63,163c18,58 33,123 43,188c22,133 23,267 24,401l1,0l-66,0l-45,1l0,-1l-1,0l1,0c-2,-129 -3,-258 -23,-383c-10,-60 -24,-119 -40,-174c-17,-58 -37,-108 -56,-145c-17,-35 -33,-58 -50,-76c-15,-17 -33,-31 -51,-45l68,-87Z" style="fill:#fccea7;fill-rule:nonzero;"/><path d="M6723,1214l-4,216l91,33l-186,167l-103,-164l91,-32l14,-208l97,-12Z" style="fill:#fccf97;"/><ellipse cx="6870" cy="1101" rx="70" ry="67" style="fill:#fccf97;"/><ellipse cx="6462" cy="1101" rx="70" ry="67" style="fill:#fccf97;"/><path d="M6456,937c-2,37 -5,95 -2,154c2,58 11,117 34,162c22,45 58,77 90,97c31,20 57,29 84,29c28,0 57,-8 90,-32c33,-24 70,-63 93,-103c23,-40 33,-82 36,-142c4,-60 1,-139 -9,-196c-9,-57 -25,-92 -46,-117c-21,-24 -48,-38 -78,-47c-30,-10 -63,-16 -104,-11c-42,5 -91,21 -122,45c-31,25 -45,57 -53,82c-8,24 -10,41 -13,79Z" style="fill:#fccf97;"/><path d="M6599,995c-5,-3 -16,-7 -27,-9c-10,-3 -21,-3 -30,-3c-9,0 -15,1 -23,3c-7,3 -16,7 -22,14c-6,7 -11,16 -11,20c0,3 4,0 12,-3c8,-3 20,-8 33,-10c12,-3 25,-3 35,-4c10,0 17,0 23,0c5,1 8,1 10,0c3,-1 4,-4 0,-8Z" style="fill:#000;"/><path d="M6728,993c5,-3 16,-7 27,-8c11,-2 21,-2 30,-2c9,0 15,1 23,4c7,3 15,8 21,15c7,7 11,16 11,20c0,3 -4,0 -12,-3c-8,-4 -20,-9 -33,-12c-12,-3 -25,-4 -35,-5c-10,0 -17,0 -22,0c-5,0 -9,0 -11,-1c-2,-2 -4,-4 1,-8Z" style="fill:#000;"/><path d="M6578,1072c-7,0 -12,-8 -12,-17c0,-10 6,-18 13,-18c6,0 12,8 12,18c-1,10 -6,17 -13,17Z" style="fill:#000;"/><path d="M6750,1072c-7,0 -13,-8 -12,-17c0,-10 6,-18 12,-18c7,0 13,8 12,18c0,10 -6,17 -12,17Z" style="fill:#000;"/><path d="M6648,1152c1,4 6,13 29,15c2,0 4,2 4,5c-11,-1 -42,-2 -41,-21c0,-7 3,-13 7,-23c12,-21 13,-22 1,24Z" style="fill:#151514;fill-rule:nonzero;"/><path d="M6724,1250c-34,43 -95,33 -111,-4" style="fill:none;stroke-width:10.41px;stroke:#b8a48a;"/><path d="M6958,2253c-24,-248 -40,-497 -54,-747c-1,-10 -1,-6 -1,-12c-41,-22 -118,-47 -152,-54c-16,80 -148,69 -165,-3c-39,16 -77,24 -129,48c-20,255 -30,505 -50,762c75,20 155,33 238,37c17,0 34,1 51,1l1,0c91,0 179,-11 261,-32ZM6464,1479c-2,2 -4,3 0,0Z" style="fill:#000;"/><path d="M6436,1835c7,-116 14,-233 23,-351c-12,4 -24,11 -37,26c-15,16 -30,41 -43,85c-9,30 -18,67 -27,106c-9,37 -18,77 -28,110c18,16 36,32 55,44c14,10 28,17 43,24c5,-14 9,-28 14,-44Z" style="fill:#000;"/><path d="M6904,1578c3,39 5,78 8,117c19,39 38,90 56,149c2,6 3,11 5,17c18,-7 37,-14 55,-21c17,-8 35,-16 51,-26c0,-1 1,-1 1,-1c0,-1 0,-2 0,-2c-31,-115 -83,-263 -180,-318c1,28 3,56 4,85Z" style="fill:#000;"/><path d="M6279,1480c-1,-3 -7,-5 -16,-5c-9,1 -21,4 -33,12c-12,8 -23,20 -30,27c-7,7 -9,8 -11,8c-2,1 -4,0 -6,-6c-2,-6 -5,-17 -9,-32c-3,-15 -6,-34 -7,-55c-2,-21 -1,-43 -2,-58c-2,-16 -6,-24 -9,-29c-2,-5 -4,-6 -5,-7c-2,-1 -3,-1 -5,0c-1,1 -2,4 -3,13c-1,10 -2,28 -3,51c-2,23 -5,52 -6,65c0,12 1,9 -2,1c-2,-8 -7,-22 -11,-41c-4,-19 -5,-43 -8,-61c-2,-17 -5,-27 -9,-33c-4,-6 -8,-8 -11,-9c-3,-1 -5,0 -5,0c-1,1 -1,2 -1,17c0,15 1,44 2,60c0,16 1,19 2,30c1,11 4,30 5,39c1,9 1,9 -2,0c-2,-9 -7,-26 -11,-46c-3,-19 -7,-41 -10,-55c-4,-13 -9,-19 -12,-21c-4,-3 -7,-2 -9,-2c-1,1 -1,0 -1,10c0,10 1,30 2,44c1,14 1,22 2,27c2,6 3,8 5,18c2,9 5,24 6,32c1,8 1,8 -3,-1c-3,-8 -10,-25 -16,-39c-5,-13 -8,-23 -12,-29c-3,-6 -5,-9 -8,-10c-3,-1 -6,-1 -6,2c0,3 2,8 4,17c1,9 3,21 7,33c3,13 9,26 13,36c4,10 6,18 8,33c3,14 6,35 12,64c5,30 13,67 18,88c4,20 5,24 12,25c7,2 21,0 35,-2c14,-2 30,-4 37,-8c7,-3 6,-8 6,-18c0,-10 1,-26 4,-41c2,-15 7,-29 14,-39c7,-10 17,-15 25,-26c8,-10 14,-25 21,-37c7,-11 15,-20 21,-25c6,-5 10,-7 14,-9c4,-3 8,-6 7,-8Z" style="fill:#fccf97;"/><path d="M6448,1116c-8,-15 -21,-27 -33,-38c-11,-11 -22,-22 -27,-32c-6,-10 -5,-17 -8,-24c-4,-7 -11,-13 -15,-22c-4,-8 -6,-18 0,-29c5,-10 18,-21 22,-34c4,-12 -2,-26 -3,-39c-2,-12 1,-23 15,-35c13,-11 37,-22 49,-36c13,-13 13,-28 16,-43c3,-14 9,-29 20,-33c12,-5 30,0 42,-8c11,-9 17,-32 32,-39c15,-6 40,2 63,4c22,2 43,-4 63,5c21,8 41,30 62,31c21,0 44,-20 62,-15c18,5 33,35 57,52c23,17 55,20 67,37c12,18 3,48 3,78c1,30 10,58 16,77c5,19 7,30 4,49c-4,19 -11,47 -20,61c-10,15 -22,17 -31,20c-9,3 -15,8 -19,13c-5,4 -7,9 -9,18c-2,9 -4,23 -6,33c-2,11 -4,18 -4,18c0,0 2,-7 2,-22c0,-15 -3,-37 -5,-55c-3,-18 -5,-32 -5,-46c0,-14 2,-29 0,-46c-2,-18 -9,-38 -15,-53c-7,-16 -15,-27 -18,-33c-3,-6 -1,-6 -4,-8c-4,-2 -12,-6 -20,-13c-8,-7 -15,-17 -21,-18c-7,-1 -12,8 -20,3c-9,-5 -19,-23 -27,-24c-8,-2 -13,14 -19,22c-6,9 -14,10 -24,11c-11,2 -25,3 -39,0c-15,-2 -31,-9 -41,-8c-11,0 -16,8 -27,4c-11,-3 -28,-17 -41,-19c-13,-1 -22,9 -27,13c-6,5 -8,3 -9,10c-2,6 -3,21 -6,32c-3,11 -9,19 -12,28c-3,9 -4,20 -6,32c-1,12 -3,25 -5,37c-3,11 -5,20 -7,39c-2,20 -2,49 -4,67c-1,19 -2,26 -5,19c-2,-6 -5,-25 -13,-41Z" style="fill:#211d1e;"/><path d="M1010,3843c-2,0 -1,-2 -2,-1c-4,5 -10,16 -17,40c-6,23 -14,59 -22,96c-14,60 -28,124 -46,169c-18,46 -40,72 -65,86c-30,16 -58,14 -83,4c-22,-8 -41,-21 -60,-42c-16,-19 -31,-44 -45,-77c-24,-59 -46,-149 -68,-239l0,-1l49,-14l52,-15l0,1c21,86 42,171 64,224c9,22 17,37 26,46c5,7 11,11 16,13c2,0 -1,3 0,2l1,0c4,-2 9,-11 16,-30c14,-35 28,-96 40,-152c9,-38 17,-74 25,-103c13,-43 26,-67 40,-83c19,-22 35,-26 51,-31l28,107Z" style="fill:#fccf97;fill-rule:nonzero;"/><path d="M1366,3737c20,16 39,32 61,58c22,24 43,56 64,100c21,44 42,101 59,163c17,58 31,123 41,189c21,133 22,266 23,400l0,1l-62,0l-43,0c-1,-129 -2,-259 -21,-384c-9,-59 -23,-119 -38,-174c-17,-57 -35,-108 -53,-145c-16,-34 -32,-58 -47,-76c-15,-17 -32,-31 -49,-45l65,-87Z" style="fill:#fccea7;fill-rule:nonzero;"/><path d="M1214,3467l-4,216l87,33l-177,168l-97,-165l86,-31l13,-209l92,-12Z" style="fill:#fccf97;"/><ellipse cx="1372" cy="3346" rx="70" ry="67" style="fill:#fccf97;"/><ellipse cx="964" cy="3346" rx="70" ry="67" style="fill:#fccf97;"/><path d="M958,3180c-3,37 -6,96 -3,154c3,59 12,118 30,163c19,45 47,76 78,96c31,21 65,30 101,31c35,2 71,-5 104,-29c33,-23 63,-65 82,-106c20,-42 30,-83 33,-144c3,-60 0,-139 -9,-196c-9,-57 -25,-93 -46,-117c-21,-24 -48,-38 -78,-48c-30,-9 -63,-15 -105,-10c-41,5 -90,21 -121,45c-32,24 -45,57 -53,82c-8,24 -11,41 -13,79Z" style="fill:#fccf97;"/><path d="M954,3287c-3,9 -97,-147 49,-279c12,-11 29,-22 50,-31c21,-10 46,-17 65,-21c19,-5 32,-8 48,-8c16,1 35,4 51,7c15,3 27,4 39,8c12,3 24,8 36,14c13,6 25,13 38,23c13,10 27,23 38,36c11,13 20,25 25,38c26,59 27,115 6,176c-3,9 -9,24 -16,46c-8,27 -1,-25 -1,-37c2,-57 -25,-65 -27,-185c0,-8 -18,-25 -47,-26c-2,-2 13,-7 6,-13c-6,-6 -22,-16 -35,-22c-2,-1 -4,-2 -6,-4c-8,-6 -8,-13 -20,-11c-18,3 -15,1 -34,-2c-15,-3 -24,-4 -34,-5c-10,-1 -19,-3 -28,-2c-9,0 -18,4 -27,6c-10,2 -21,2 -28,3c-8,1 -12,3 -17,5c-5,2 -12,5 -20,7c-8,3 -17,4 -23,8c-6,4 -8,11 -13,16c-5,5 -12,9 -19,14c-6,5 -12,10 -17,19c-5,9 -8,20 -10,29c-3,9 -4,16 -8,24c-3,9 -10,20 -14,35c-4,16 -5,36 -5,63c0,27 0,60 -2,69Z" style="fill:#211d1e;"/><path d="M1100,3246c-4,-3 -15,-7 -26,-10c-11,-2 -22,-2 -30,-2c-9,0 -16,0 -23,3c-7,2 -16,7 -22,14c-7,7 -11,16 -11,19c-1,4 3,1 12,-2c8,-4 20,-8 33,-11c12,-2 25,-3 35,-3c10,0 17,0 22,0c6,0 9,1 11,0c2,-2 4,-4 -1,-8Z" style="fill:#000;"/><path d="M1230,3244c5,-3 15,-7 26,-9c11,-2 22,-2 31,-1c9,0 15,1 22,4c8,3 16,8 22,15c6,7 10,16 10,19c1,4 -3,1 -11,-3c-8,-3 -21,-8 -33,-11c-12,-3 -25,-4 -35,-5c-10,0 -17,-1 -22,-1c-6,1 -9,1 -11,-1c-3,-1 -4,-4 1,-7Z" style="fill:#000;"/><path d="M1080,3317c-7,-1 -13,-9 -13,-18c1,-10 6,-18 13,-17c7,0 12,8 12,17c0,10 -6,18 -12,18Z" style="fill:#000;"/><path d="M1251,3317c-6,-1 -12,-9 -12,-18c1,-10 6,-18 13,-17c7,0 12,8 12,17c0,10 -6,18 -13,18Z" style="fill:#000;"/><path d="M1149,3375c1,10 7,26 30,31c2,0 3,5 3,10c-10,-2 -42,-4 -40,-43c0,-14 3,-26 7,-45c11,-44 12,-46 0,47Z" style="fill:#151514;fill-rule:nonzero;"/><path d="M1440,4507c-23,-249 -38,-498 -52,-748c-1,-9 0,-5 -1,-12c-39,-21 -111,-46 -143,-54c-15,81 -140,69 -157,-2c-37,15 -72,24 -122,47c-18,255 -28,506 -47,762c71,20 147,33 225,37c16,1 33,1 49,1c87,0 170,-11 248,-31ZM972,3733c-1,1 -3,2 0,0Z" style="fill:#000;"/><path d="M945,4089c7,-117 14,-234 22,-352c-11,5 -22,12 -35,26c-14,16 -28,42 -41,85c-8,30 -17,67 -25,107c-9,37 -17,76 -26,109c16,17 33,32 52,45c13,9 26,16 41,23c4,-13 8,-28 12,-43Z" style="fill:#000;"/><path d="M1389,3831c2,39 4,78 7,117c18,39 36,91 53,149c2,6 3,11 5,17c17,-7 35,-13 51,-21c17,-8 34,-16 49,-26l1,-1c0,-1 0,-1 0,-2c-29,-115 -78,-263 -171,-318c2,28 3,57 5,85Z" style="fill:#000;"/><path d="M797,3733c-1,-3 -6,-5 -15,-4c-9,0 -20,3 -31,11c-12,8 -22,20 -29,27c-6,7 -8,8 -10,8c-2,1 -4,0 -6,-5c-2,-6 -5,-17 -8,-33c-3,-15 -6,-34 -8,-55c-1,-20 0,-43 -1,-58c-2,-15 -5,-23 -8,-28c-3,-5 -4,-7 -6,-8c-1,-1 -2,0 -4,1c-1,1 -2,3 -3,13c-1,10 -1,28 -3,51c-1,23 -4,51 -5,64c-1,13 0,10 -2,1c-2,-8 -7,-22 -11,-41c-3,-19 -5,-43 -7,-60c-2,-18 -5,-28 -9,-34c-4,-6 -8,-8 -11,-9c-2,0 -4,0 -4,1c-1,0 -1,1 -1,16c0,15 1,44 2,60c0,16 1,19 2,30c1,11 3,30 4,39c1,9 1,9 -1,1c-2,-9 -6,-27 -10,-46c-4,-20 -7,-42 -11,-55c-3,-14 -7,-20 -11,-22c-3,-3 -6,-2 -8,-1c-1,0 -1,0 -1,10c0,9 1,29 2,43c1,14 1,22 2,28c1,5 3,8 5,17c2,9 4,25 5,32c1,8 1,8 -2,0c-4,-9 -10,-26 -15,-39c-5,-14 -9,-24 -12,-30c-3,-6 -5,-9 -8,-10c-2,-1 -5,-1 -5,2c-1,3 1,8 3,17c2,9 3,21 7,34c3,12 8,25 12,35c4,10 6,18 8,33c3,14 6,36 11,65c5,29 13,66 17,87c4,20 5,24 12,26c7,1 19,-1 33,-2c13,-2 28,-5 35,-8c7,-4 6,-8 6,-19c0,-10 1,-25 3,-40c3,-15 7,-29 13,-39c7,-10 16,-16 24,-27c8,-10 14,-25 20,-36c7,-12 14,-20 20,-25c6,-6 10,-8 14,-10c3,-3 7,-6 6,-8Z" style="fill:#fccf97;"/><path d="M1237,3469c-7,31 -35,55 -68,55c-33,0 -61,-24 -67,-55l135,0Z" style="fill:#fff;"/><path d="M967,3137c83,85 269,-35 297,-61c37,-35 86,1 93,39c4,-41 8,-87 -44,-106c-76,-27 -216,-67 -287,-13c-10,7 -54,78 -54,90c0,18 -67,-12 -5,51Z" style="fill:#211d1e;"/><path d="M940,3263c49,-7 82,-8 125,-7c73,2 68,26 101,24c33,2 28,-22 101,-24c43,-1 76,0 125,7l1,34c-16,14 -16,30 -26,57c-10,30 -82,30 -122,25c-26,-3 -39,-14 -47,-31c-9,-20 -15,-44 -32,-46c-17,2 -23,26 -32,46c-8,17 -21,28 -46,31c-40,5 -112,5 -123,-25c-10,-27 -10,-43 -26,-57l1,-34ZM1329,3266c-56,-6 -122,5 -128,18c-8,16 -8,58 24,81c13,9 32,10 58,10c62,-4 77,-13 82,-47c2,-9 2,-18 2,-27c-2,-16 -13,-32 -38,-35ZM1003,3266c57,-6 122,5 129,18c8,16 8,58 -25,81c-13,9 -31,10 -58,10c-62,-4 -76,-13 -82,-47c-1,-9 -2,-18 -1,-27c1,-16 13,-32 37,-35Z" style="fill:#000;"/><path d="M4305,3752c44,35 89,70 133,158c22,43 43,99 60,161c17,58 30,121 38,184c10,77 12,153 12,230c-23,3 -45,6 -68,8c-22,3 -45,5 -68,7c2,-78 0,-155 -10,-231c-8,-58 -20,-116 -35,-169c-16,-55 -34,-104 -52,-141c-33,-65 -68,-92 -102,-119l-4,-3l48,-42l44,-46l4,3Z" style="fill:#000;fill-rule:nonzero;"/><path d="M3645,3711c-2,-2 -8,-2 -15,2c-8,3 -17,10 -24,20c-8,11 -13,24 -17,32c-3,8 -5,10 -6,11c-2,1 -3,1 -7,-2c-4,-3 -10,-8 -19,-19c-9,-11 -21,-26 -33,-44c-12,-18 -24,-39 -32,-51c-8,-13 -12,-17 -15,-19c-3,-3 -5,-4 -6,-4c-2,0 -3,1 -4,2c-1,1 -1,4 2,12c2,9 7,24 16,42c8,18 20,38 26,49c6,10 5,9 1,3c-5,-6 -14,-18 -23,-32c-9,-15 -17,-32 -25,-45c-7,-12 -13,-20 -18,-24c-5,-3 -9,-3 -12,-3c-3,0 -4,1 -4,2c-1,0 0,1 5,14c5,12 14,36 20,49c6,13 7,16 12,24c6,9 15,23 19,30c5,7 5,7 0,0c-5,-7 -14,-20 -24,-35c-9,-15 -19,-32 -26,-43c-8,-10 -13,-13 -17,-14c-4,-1 -7,1 -8,2c-1,1 -1,0 2,8c4,9 11,25 16,36c5,12 8,18 11,22c2,5 4,6 9,13c5,7 12,20 15,26c4,6 4,6 -1,0c-4,-6 -13,-19 -20,-30c-7,-10 -12,-20 -16,-26c-4,-6 -7,-8 -10,-10c-3,-1 -6,-1 -6,2c0,3 3,10 7,18c3,8 7,18 13,29c5,10 13,21 19,30c6,8 10,14 17,25c7,12 16,28 30,51c14,23 33,51 43,67c10,16 12,19 19,18c6,-2 17,-7 28,-13c12,-6 24,-13 29,-19c5,-5 2,-8 -1,-17c-3,-8 -7,-22 -10,-35c-3,-13 -4,-26 -1,-37c3,-11 9,-19 13,-30c3,-11 4,-26 6,-38c2,-11 6,-21 9,-27c4,-6 7,-9 9,-13c3,-3 5,-7 4,-9Z" style="fill:#fccf97;"/><path d="M3623.78,3867.67l1.074,4.103l1.074,4.097l1.074,4.089l1.073,4.084l1.072,4.072l1.071,4.062l1.072,4.056l1.071,4.042l1.069,4.029l1.071,4.021l0.533,2l0.535,2.002l0.534,1.997l0.534,1.991l0.533,1.989l0.534,1.984l0.534,1.984l0.534,1.977l0.533,1.973l0.533,1.969l0.533,1.964l0.532,1.959l0.533,1.957l0.534,1.954l0.532,1.945l0.531,1.939l0.533,1.936l0.532,1.931l0.532,1.928l0.532,1.921l0.531,1.916l0.532,1.91l0.53,1.902l0.532,1.9l0.531,1.893l0.531,1.889l0.531,1.883l0.529,1.871l0.531,1.872l0.53,1.864l0.529,1.853l0.53,1.852l0.53,1.844l0.529,1.835l0.528,1.828l0.53,1.825l0.528,1.814l0.529,1.81l0.528,1.803l0.527,1.79l0.528,1.788l0.529,1.782l0.527,1.77l0.526,1.761l0.528,1.759l0.526,1.747l0.525,1.738l0.526,1.731l0.525,1.721l0.526,1.717l0.525,1.707l0.525,1.696l0.524,1.688l0.523,1.678l0.524,1.669l0.524,1.666l0.523,1.651l0.521,1.639l0.522,1.633l0.521,1.622l0.522,1.615l0.52,1.604l0.52,1.592l0.52,1.585l0.519,1.572l0.523,1.577l0.253,0.758l0.26,0.779l0.26,0.776l0.256,0.763l0.258,0.765l0.26,0.769l0.26,0.766l0.254,0.748l0.258,0.756l0.26,0.759l0.257,0.748l0.256,0.743l0.258,0.749l0.258,0.745l0.253,0.728l0.259,0.74l0.259,0.741l0.254,0.725l0.254,0.722l0.255,0.722l0.257,0.724l0.258,0.725l0.254,0.714l0.253,0.706l0.253,0.705l0.257,0.711l0.256,0.708l0.25,0.689l0.256,0.703l0.255,0.7l0.248,0.674l0.255,0.694l0.256,0.691l0.251,0.677l0.25,0.674l0.251,0.671l0.254,0.676l0.25,0.665l0.25,0.663l0.252,0.664l0.252,0.661l0.249,0.653l0.246,0.641l0.252,0.652l0.251,0.649l0.247,0.638l0.247,0.634l0.249,0.634l0.25,0.637l0.244,0.617l0.246,0.622l0.249,0.627l0.245,0.611l0.245,0.611l0.245,0.609l0.246,0.607l0.243,0.597l0.245,0.599l0.244,0.596l0.242,0.588l0.242,0.585l0.24,0.577l0.244,0.583l0.241,0.574l0.24,0.571l0.243,0.572l0.238,0.56l0.238,0.556l0.237,0.552l0.234,0.542l0.24,0.554l0.236,0.541l0.232,0.53l0.239,0.543l0.235,0.53l0.23,0.517l0.238,0.532l0.233,0.52l0.233,0.515l0.237,0.521l0.224,0.491l0.231,0.504l0.239,0.519l0.231,0.497l0.229,0.493l0.23,0.49l0.228,0.486l0.233,0.492l0.227,0.478l0.228,0.476l0.231,0.48l0.226,0.468l0.225,0.464l0.23,0.47l0.224,0.457l0.223,0.453l0.228,0.459l0.227,0.455l0.222,0.443l0.221,0.438l0.226,0.445l0.224,0.441l0.219,0.428l0.219,0.424l0.228,0.44l0.217,0.417l0.217,0.413l0.226,0.431l0.221,0.416l0.214,0.403l0.214,0.398l0.224,0.416l0.212,0.393l0.212,0.388l0.222,0.406l0.216,0.392l0.215,0.388l0.208,0.375l0.214,0.381l0.213,0.377l0.212,0.374l0.217,0.382l0.205,0.358l0.21,0.364l0.209,0.36l0.208,0.357l0.214,0.364l0.2,0.34l0.206,0.347l0.212,0.354l0.205,0.342l0.203,0.336l0.209,0.345l0.195,0.319l0.201,0.326l0.214,0.347l0.192,0.309l0.198,0.315l0.204,0.325l0.198,0.311l0.196,0.308l0.202,0.315l0.193,0.299l0.2,0.308l0.199,0.305l0.192,0.291l0.19,0.289l0.188,0.281l0.197,0.295l0.195,0.289l0.193,0.285l0.186,0.273l0.175,0.254l0.2,0.29l0.199,0.286l0.175,0.25l0.177,0.252l0.186,0.262l0.206,0.288l0.176,0.247l0.166,0.229l0.192,0.264l0.184,0.252l0.173,0.234l0.178,0.24l0.189,0.253l0.179,0.239l0.168,0.222l0.166,0.218l0.177,0.231l0.183,0.237l0.182,0.235l0.161,0.206l0.16,0.203l0.183,0.231l0.178,0.223l0.156,0.194l0.167,0.207l0.174,0.214l0.165,0.202l0.164,0.198l0.149,0.18l0.169,0.202l0.174,0.206l0.159,0.187l0.165,0.194l0.148,0.173l0.155,0.179l0.162,0.185l0.153,0.174l0.159,0.18l0.164,0.184l0.14,0.156l0.156,0.172l0.16,0.177l0.145,0.158l0.143,0.154l0.157,0.17l0.156,0.167l0.123,0.13l0.162,0.17l0.153,0.16l0.134,0.139l0.141,0.145l0.149,0.153l0.139,0.141l0.146,0.147l0.145,0.145l0.126,0.125l0.142,0.14l0.141,0.138l0.14,0.135l0.139,0.134l0.118,0.113l0.136,0.128l0.144,0.137l0.114,0.106l0.141,0.131l0.15,0.138l0.11,0.1l0.118,0.107l0.147,0.132l0.125,0.112l0.124,0.109l0.123,0.108l0.142,0.124l0.12,0.103l0.109,0.094l0.117,0.1l0.116,0.097l0.136,0.114l0.136,0.113l0.111,0.092l0.111,0.09l0.122,0.099l0.131,0.105l0.106,0.085l0.096,0.076l0.127,0.099l0.126,0.098l0.125,0.097l0.09,0.069l0.123,0.093l0.121,0.091l0.121,0.09l0.094,0.07l0.109,0.08l0.133,0.097l0.09,0.065l0.115,0.082l0.105,0.074l0.086,0.061l0.138,0.096l0.137,0.095l0.073,0.05l0.108,0.073l0.107,0.072l0.088,0.059l0.133,0.088l0.104,0.068l0.102,0.067l0.121,0.078l0.092,0.058l0.109,0.069l0.119,0.075l0.089,0.055l0.096,0.059l0.117,0.071l0.115,0.07l0.094,0.057l0.093,0.055l0.113,0.067l0.122,0.07l0.112,0.065l0.08,0.046l0.089,0.05l0.109,0.062l0.15,0.083l0.108,0.06l0.045,0.024l0.116,0.063l0.147,0.078l0.106,0.057l0.073,0.038l0.105,0.055l0.137,0.07l0.112,0.058l0.078,0.039l0.103,0.051l0.135,0.068l0.102,0.05l0.101,0.049l0.109,0.052l0.1,0.048l0.134,0.063l0.107,0.05l0.099,0.046l0.133,0.061l0.098,0.044l0.042,0.019l0.03,-0.043l0.154,-0.212l0.156,-0.22l0.154,-0.218l0.163,-0.233l0.158,-0.229l0.171,-0.251l0.164,-0.242l0.167,-0.25l0.172,-0.26l0.175,-0.267l0.183,-0.282l0.172,-0.267l0.176,-0.277l0.186,-0.295l0.187,-0.299l0.189,-0.307l0.187,-0.306l0.184,-0.304l0.196,-0.328l0.2,-0.336l0.19,-0.324l0.199,-0.342l0.201,-0.349l0.191,-0.336l0.206,-0.364l0.212,-0.379l0.204,-0.368l0.202,-0.368l0.208,-0.383l0.22,-0.408l0.212,-0.398l0.205,-0.387l0.216,-0.413l0.226,-0.437l0.216,-0.419l0.212,-0.418l0.223,-0.442l0.225,-0.449l0.222,-0.449l0.219,-0.447l0.229,-0.472l0.227,-0.471l0.224,-0.47l0.23,-0.486l0.231,-0.494l0.233,-0.5l0.23,-0.5l0.235,-0.516l0.233,-0.515l0.234,-0.523l0.236,-0.531l0.236,-0.537l0.238,-0.545l0.239,-0.554l0.237,-0.553l0.238,-0.56l0.245,-0.583l0.176,-0.422l0.183,-0.449l0.248,-0.614l0.249,-0.622l0.253,-0.635l0.25,-0.635l0.252,-0.644l0.257,-0.662l0.255,-0.663l0.256,-0.67l0.261,-0.689l0.255,-0.676l0.259,-0.696l0.264,-0.709l0.258,-0.701l0.263,-0.72l0.264,-0.727l0.262,-0.727l0.267,-0.746l0.265,-0.744l0.265,-0.751l0.267,-0.762l0.263,-0.755l0.268,-0.773l0.272,-0.791l0.269,-0.784l0.268,-0.789l0.269,-0.795l0.27,-0.806l0.273,-0.818l0.271,-0.816l0.27,-0.818l0.27,-0.826l0.275,-0.843l0.273,-0.84l0.269,-0.834l0.274,-0.858l0.275,-0.861l0.274,-0.862l0.275,-0.874l0.272,-0.866l0.273,-0.876l0.277,-0.891l0.276,-0.891l0.272,-0.886l0.276,-0.904l0.278,-0.911l0.273,-0.903l0.276,-0.913l0.277,-0.925l0.276,-0.922l0.274,-0.921l0.277,-0.938l0.276,-0.936l0.276,-0.943l0.278,-0.951l0.275,-0.943l0.277,-0.961l0.277,-0.957l0.276,-0.963l0.278,-0.972l0.275,-0.965l0.276,-0.973l0.278,-0.984l0.276,-0.983l0.276,-0.986l0.279,-0.997l0.276,-0.992l0.274,-0.988l0.278,-1.008l0.278,-1.013l0.275,-1l0.275,-1.008l0.278,-1.021l0.276,-1.019l0.276,-1.019l0.277,-1.03l0.276,-1.028l0.276,-1.029l0.275,-1.033l0.276,-1.036l0.276,-1.044l0.276,-1.042l0.275,-1.045l0.275,-1.047l0.275,-1.049l0.277,-1.06l0.274,-1.053l0.274,-1.057l0.277,-1.069l0.272,-1.053l0.551,-2.143l0.549,-2.144l0.548,-2.153l0.547,-2.16l0.547,-2.17l0.548,-2.18l0.545,-2.183l0.545,-2.189l0.544,-2.196l0.544,-2.203l0.544,-2.212l0.542,-2.213l0.541,-2.217l0.542,-2.225l0.54,-2.226l0.539,-2.23l0.54,-2.237l0.538,-2.238l0.538,-2.238l0.537,-2.244l0.536,-2.243l0.534,-2.243l0.536,-2.25l0.533,-2.246l0.532,-2.242l1.065,-4.501l1.061,-4.492l1.058,-4.487l2.108,-8.949l1.049,-4.453l1.047,-4.436l1.043,-4.419l1.041,-4.392l0.521,-2.195l0.519,-2.182l0.518,-2.176l0.518,-2.17l0.517,-2.161l0.518,-2.157l0.516,-2.147l0.516,-2.137l0.515,-2.13l0.515,-2.121l0.515,-2.114l0.514,-2.102l0.514,-2.094l0.513,-2.083l0.513,-2.073l0.514,-2.065l0.512,-2.05l0.513,-2.043l0.513,-2.028l0.511,-2.017l0.514,-2.014l0.508,-1.977l0.259,-1.003l0.259,-1l0.255,-0.982l0.255,-0.98l0.257,-0.983l0.257,-0.98l0.258,-0.977l0.256,-0.969l0.255,-0.962l0.259,-0.975l0.259,-0.966l0.252,-0.942l0.258,-0.958l0.261,-0.964l0.256,-0.944l0.256,-0.94l0.259,-0.943l0.259,-0.942l0.259,-0.937l0.259,-0.933l0.257,-0.924l0.258,-0.921l0.263,-0.933l0.26,-0.918l0.258,-0.909l0.259,-0.909l0.261,-0.907l0.262,-0.907l0.262,-0.906l0.263,-0.9l0.26,-0.887l0.264,-0.893l0.264,-0.89l0.262,-0.879l0.265,-0.883l0.352,-1.163l0.368,-1.171l0.28,-0.883l0.278,-0.874l0.28,-0.875l0.28,-0.868l0.28,-0.864l0.278,-0.854l0.282,-0.858l0.284,-0.858l0.278,-0.836l0.283,-0.847l0.282,-0.836l0.279,-0.824l0.287,-0.841l0.283,-0.822l0.28,-0.81l0.284,-0.817l0.289,-0.824l0.285,-0.807l0.281,-0.79l0.285,-0.801l0.287,-0.796l0.291,-0.803l0.287,-0.785l0.282,-0.77l0.29,-0.783l0.289,-0.775l0.29,-0.775l0.291,-0.77l0.291,-0.766l0.29,-0.755l0.291,-0.756l0.293,-0.753l0.292,-0.746l0.297,-0.753l0.289,-0.73l0.295,-0.737l0.3,-0.744l0.295,-0.727l0.3,-0.735l0.299,-0.725l0.298,-0.719l0.299,-0.716l0.299,-0.709l0.304,-0.717l0.303,-0.708l0.302,-0.701l0.303,-0.698l0.307,-0.702l0.306,-0.694l0.307,-0.691l0.309,-0.69l0.313,-0.693l0.309,-0.68l0.31,-0.677l0.31,-0.67l0.311,-0.668l0.326,-0.694l0.312,-0.658l0.315,-0.662l0.318,-0.659l0.322,-0.664l0.324,-0.662l0.319,-0.648l0.328,-0.658l0.32,-0.639l0.326,-0.643l0.33,-0.648l0.332,-0.645l0.328,-0.632l0.326,-0.625l0.339,-0.641l0.34,-0.639l0.339,-0.632l0.338,-0.624l0.338,-0.617l0.339,-0.615l0.348,-0.626l0.347,-0.618l0.339,-0.598l0.356,-0.623l0.354,-0.615l0.349,-0.599l0.36,-0.612l0.355,-0.599l0.356,-0.596l0.363,-0.602l0.359,-0.588l0.364,-0.592l0.367,-0.591l0.362,-0.578l0.373,-0.589l0.384,-0.602l0.38,-0.588l0.368,-0.565l0.38,-0.578l0.384,-0.577l0.372,-0.555l0.398,-0.589l0.394,-0.574l0.381,-0.553l0.403,-0.577l0.389,-0.551l0.401,-0.564l0.407,-0.566l0.392,-0.539l0.412,-0.562l0.419,-0.564l0.413,-0.551l0.399,-0.527l0.413,-0.539l0.435,-0.562l0.42,-0.538l0.415,-0.525l0.42,-0.526l0.435,-0.54l0.437,-0.535l0.441,-0.536l0.448,-0.536l0.422,-0.5l0.445,-0.523l0.451,-0.523l0.445,-0.511l0.459,-0.521l0.443,-0.497l0.469,-0.521l0.462,-0.508l0.457,-0.495l0.461,-0.494l0.465,-0.494l0.482,-0.505l0.463,-0.48l0.479,-0.491l0.496,-0.503l0.465,-0.464l0.494,-0.489l0.486,-0.475l0.478,-0.462l0.509,-0.485l0.475,-0.448l0.504,-0.47l0.51,-0.469l0.488,-0.444l0.505,-0.454l0.511,-0.454l0.502,-0.439l0.519,-0.45l0.511,-0.437l0.514,-0.434l0.534,-0.445l0.509,-0.419l0.498,-0.405l0.519,-0.417l0.549,-0.436l0.529,-0.414l0.515,-0.398l0.547,-0.417l0.525,-0.395l0.511,-0.38l0.547,-0.402l0.532,-0.386l0.524,-0.375l0.56,-0.395l0.546,-0.38l0.517,-0.355l0.535,-0.363l0.525,-0.351l0.562,-0.372l0.559,-0.364l0.517,-0.332l0.54,-0.343l0.537,-0.336l0.54,-0.334l0.544,-0.332l0.548,-0.329l0.551,-0.327l0.519,-0.303l0.535,-0.31l0.562,-0.319l0.541,-0.304l0.523,-0.289l0.511,-0.28l0.564,-0.305l0.555,-0.294l0.496,-0.26l0.536,-0.278l0.514,-0.262l0.541,-0.273l0.544,-0.27l0.497,-0.243l0.524,-0.253l0.526,-0.251l0.528,-0.248l0.505,-0.234l0.507,-0.232l0.509,-0.23l0.485,-0.216l0.512,-0.225l0.515,-0.223l0.501,-0.215l0.492,-0.207l0.508,-0.212l0.478,-0.196l0.469,-0.19l0.497,-0.199l0.472,-0.186l0.472,-0.185l0.485,-0.186l0.446,-0.17l0.448,-0.168l0.477,-0.177l0.45,-0.165l0.45,-0.163l0.462,-0.165l0.463,-0.163l0.415,-0.144l0.425,-0.147l0.436,-0.148l0.397,-0.134l0.437,-0.146l0.428,-0.141l0.443,-0.145l0.765,-0.245l0.781,-0.245l0.767,-0.236l0.745,-0.225l0.724,-0.215l0.715,-0.209l0.681,-0.195l0.666,-0.189l0.652,-0.182l0.605,-0.167l0.595,-0.162l0.596,-0.161l0.57,-0.153l1.008,-0.268l0.948,-0.25l31.593,119.83l0.002,-0.001l0.106,-0.078l0.07,-0.052l0.083,-0.063l0.106,-0.08l0.074,-0.058l0.087,-0.067l0.108,-0.086l0.077,-0.062l0.056,-0.046l0.068,-0.056l0.092,-0.076l0.071,-0.06l0.069,-0.059l0.077,-0.067l0.059,-0.052l0.069,-0.06l0.062,-0.056l0.045,-0.041l0.066,-0.061l0.062,-0.058l0.031,-0.03l0.065,-0.061l0.035,-0.034l0.042,-0.041l0.05,-0.049l0.02,-0.021l0.052,-0.052l0.035,-0.036l0.018,-0.019l0.037,-0.039l0.021,-0.021l0.015,-0.017l0.011,-0.012l0.017,-0.018l0.022,-0.025l0.011,-0.012l0.003,-0.004l-0.001,0.001l-0.026,0.031l-0.005,0.007l-0.011,0.013l-0.013,0.016l-0.027,0.034l-0.034,0.043l-0.028,0.035l-0.014,0.019l-0.036,0.047l-0.05,0.066l-0.037,0.049l-0.031,0.041l-0.037,0.052l-0.059,0.08l-0.043,0.06l-0.049,0.069l-0.063,0.089l-0.048,0.069l-0.07,0.101l-0.058,0.085l-0.053,0.079l-0.081,0.12l-0.069,0.104l-0.072,0.11l-0.085,0.13l-0.074,0.115l-0.069,0.108l-0.081,0.128l-0.092,0.147l-0.088,0.141l-0.09,0.147l-0.097,0.158l-0.07,0.117l0.042,0.159l-0.163,0.043l-0.101,0.17l-0.097,0.165l-0.108,0.185l-0.102,0.178l-0.101,0.177l-0.12,0.211l-0.11,0.197l-0.11,0.197l-0.119,0.216l-0.122,0.223l-0.122,0.224l-0.12,0.224l-0.119,0.224l-0.122,0.231l-0.134,0.256l-0.133,0.257l-0.129,0.251l-0.131,0.257l-0.137,0.271l-0.142,0.283l-0.135,0.272l-0.144,0.29l-0.139,0.286l-0.142,0.292l-0.147,0.305l-0.149,0.311l-0.153,0.324l-0.14,0.297l-0.154,0.332l-0.157,0.339l-0.155,0.34l-0.158,0.347l-0.155,0.343l-0.159,0.354l-0.16,0.362l-0.163,0.369l-0.162,0.37l-0.166,0.382l-0.168,0.39l-0.167,0.391l-0.167,0.393l-0.172,0.409l-0.172,0.412l-0.174,0.419l-0.174,0.421l-0.172,0.422l-0.178,0.439l-0.174,0.432l-0.179,0.448l-0.185,0.466l-0.178,0.452l-0.184,0.469l-0.183,0.472l-0.185,0.478l-0.187,0.49l-0.186,0.488l-0.187,0.496l-0.188,0.499l-0.189,0.51l-0.19,0.512l-0.197,0.536l-0.193,0.53l-0.19,0.523l-0.194,0.541l-0.196,0.547l-0.201,0.566l-0.198,0.561l-0.194,0.555l-0.199,0.571l-0.204,0.591l-0.203,0.588l-0.197,0.58l-0.206,0.608l-0.205,0.606l-0.203,0.607l-0.209,0.629l-0.204,0.617l-0.206,0.628l-0.21,0.644l-0.209,0.644l-0.21,0.652l-0.21,0.656l-0.213,0.668l-0.212,0.67l-0.124,0.394l-0.118,0.389l-0.204,0.681l-0.208,0.696l-0.206,0.697l-0.208,0.703l-0.211,0.721l-0.21,0.719l-0.21,0.723l-0.212,0.734l-0.213,0.743l-0.215,0.752l-0.217,0.764l-0.216,0.763l-0.214,0.759l-0.218,0.781l-0.22,0.789l-0.219,0.789l-0.22,0.794l-0.22,0.8l-0.221,0.808l-0.224,0.821l-0.224,0.827l-0.221,0.816l-0.224,0.832l-0.23,0.856l-0.225,0.841l-0.224,0.841l-0.228,0.864l-0.229,0.866l-0.228,0.865l-0.229,0.873l-0.229,0.877l-0.232,0.889l-0.233,0.896l-0.229,0.886l-0.23,0.89l-0.471,1.836l-0.468,1.83l-0.471,1.859l-0.474,1.878l-0.476,1.892l-0.478,1.915l-0.48,1.928l-0.482,1.948l-0.484,1.966l-0.486,1.98l-0.489,1.998l-0.49,2.01l-0.492,2.027l-0.494,2.043l-0.496,2.058l-0.498,2.07l-0.5,2.081l-0.501,2.097l-0.504,2.109l-0.505,2.122l-0.508,2.133l-0.508,2.14l-1.024,4.326l-1.031,4.362l-1.038,4.401l-1.045,4.435l-2.11,8.959l-1.066,4.521l-1.073,4.543l-1.079,4.558l-0.544,2.294l-0.545,2.294l-0.545,2.293l-0.549,2.301l-0.55,2.303l-0.552,2.303l-0.554,2.309l-0.555,2.307l-0.557,2.309l-0.559,2.312l-0.561,2.313l-0.563,2.312l-0.565,2.314l-0.567,2.314l-0.568,2.31l-0.571,2.312l-0.572,2.312l-0.575,2.31l-0.577,2.308l-0.578,2.302l-0.581,2.304l-0.583,2.301l-0.584,2.297l-0.587,2.294l-0.588,2.283l-0.298,1.154l-0.294,1.136l-0.297,1.143l-0.298,1.144l-0.296,1.134l-0.298,1.14l-0.299,1.138l-0.3,1.137l-0.3,1.136l-0.3,1.13l-0.301,1.132l-0.302,1.132l-0.302,1.132l-0.303,1.127l-0.302,1.122l-0.305,1.127l-0.305,1.123l-0.303,1.116l-0.307,1.124l-0.309,1.126l-0.305,1.109l-0.306,1.109l-0.311,1.122l-0.31,1.114l-0.308,1.103l-0.311,1.109l-0.311,1.106l-0.311,1.099l-0.313,1.105l-0.315,1.106l-0.312,1.093l-0.315,1.096l-0.316,1.096l-0.314,1.086l-0.319,1.097l-0.317,1.083l-0.318,1.084l-0.319,1.085l-0.319,1.076l-0.323,1.086l-0.322,1.078l-0.32,1.069l-0.324,1.072l-0.326,1.076l-0.323,1.061l-0.324,1.061l-0.329,1.07l-0.327,1.058l-0.327,1.051l-0.33,1.058l-0.332,1.06l-0.33,1.045l-0.332,1.048l-0.332,1.04l-0.333,1.037l-0.339,1.052l-0.336,1.037l-0.335,1.026l-0.339,1.034l-0.34,1.033l-0.341,1.028l-0.34,1.017l-0.342,1.02l-0.345,1.021l-0.346,1.018l-0.347,1.014l-0.344,0.999l-0.348,1.007l-0.354,1.015l-0.351,0.999l-0.354,1.001l-0.354,0.997l-0.353,0.987l-0.359,0.994l-0.358,0.986l-0.359,0.982l-0.365,0.991l-0.36,0.972l-0.365,0.977l-0.371,0.985l-0.364,0.961l-0.371,0.97l-0.372,0.966l-0.371,0.957l-0.378,0.965l-0.378,0.961l-0.378,0.951l-0.382,0.954l-0.384,0.95l-0.449,1.103l-0.458,1.096l-0.389,0.924l-0.396,0.935l-0.4,0.931l-0.397,0.921l-0.4,0.917l-0.402,0.914l-0.404,0.91l-0.407,0.907l-0.408,0.904l-0.407,0.892l-0.412,0.896l-0.412,0.887l-0.413,0.882l-0.416,0.879l-0.422,0.884l-0.42,0.873l-0.419,0.862l-0.429,0.874l-0.427,0.864l-0.426,0.852l-0.428,0.849l-0.439,0.863l-0.438,0.851l-0.426,0.823l-0.438,0.837l-0.45,0.852l-0.444,0.83l-0.436,0.811l-0.449,0.826l-0.456,0.831l-0.455,0.82l-0.446,0.798l-0.455,0.806l-0.469,0.821l-0.46,0.799l-0.463,0.797l-0.472,0.804l-0.465,0.782l-0.467,0.78l-0.48,0.795l-0.479,0.783l-0.477,0.772l-0.479,0.77l-0.482,0.765l-0.492,0.773l-0.496,0.773l-0.486,0.749l-0.495,0.754l-0.498,0.752l-0.504,0.753l-0.507,0.75l-0.501,0.733l-0.515,0.746l-0.51,0.73l-0.52,0.738l-0.518,0.726l-0.521,0.725l-0.525,0.721l-0.527,0.715l-0.543,0.73l-0.528,0.701l-0.532,0.7l-0.545,0.71l-0.54,0.694l-0.554,0.706l-0.559,0.703l-0.541,0.673l-0.557,0.686l-0.572,0.696l-0.566,0.68l-0.52,0.618l-0.305,0.36l-0.307,0.361l-0.294,0.342l-0.285,0.33l-0.297,0.342l-0.272,0.312l-0.289,0.328l-0.315,0.357l-0.275,0.31l-0.303,0.339l-0.293,0.325l-0.279,0.309l-0.322,0.353l-0.281,0.307l-0.282,0.306l-0.326,0.353l-0.313,0.335l-0.301,0.32l-0.286,0.304l-0.288,0.303l-0.304,0.318l-0.29,0.302l-0.336,0.348l-0.323,0.331l-0.293,0.3l-0.311,0.314l-0.295,0.299l-0.313,0.313l-0.298,0.297l-0.331,0.328l-0.317,0.311l-0.302,0.296l-0.336,0.325l-0.271,0.262l-0.321,0.309l-0.356,0.339l-0.343,0.324l-0.309,0.29l-0.276,0.258l-0.312,0.29l-0.364,0.336l-0.331,0.302l-0.316,0.288l-0.316,0.286l-0.319,0.286l-0.319,0.285l-0.337,0.299l-0.376,0.331l-0.286,0.249l-0.325,0.283l-0.365,0.314l-0.327,0.281l-0.329,0.279l-0.308,0.26l-0.348,0.293l-0.373,0.31l-0.335,0.277l-0.336,0.275l-0.296,0.242l-0.338,0.275l-0.398,0.32l-0.359,0.286l-0.284,0.224l-0.343,0.272l-0.406,0.316l-0.304,0.236l-0.365,0.282l-0.35,0.266l-0.351,0.268l-0.353,0.265l-0.309,0.231l-0.373,0.277l-0.357,0.263l-0.405,0.296l-0.36,0.26l-0.267,0.193l-0.38,0.272l-0.412,0.292l-0.366,0.257l-0.336,0.235l-0.32,0.222l-0.403,0.277l-0.372,0.253l-0.34,0.23l-0.392,0.263l-0.376,0.251l-0.31,0.204l-0.396,0.26l-0.381,0.247l-0.33,0.213l-0.401,0.257l-0.368,0.233l-0.387,0.243l-0.405,0.253l-0.336,0.207l-0.337,0.207l-0.393,0.239l-0.41,0.248l-0.397,0.236l-0.324,0.193l-0.416,0.244l-0.4,0.232l-0.345,0.2l-0.346,0.198l-0.405,0.23l-0.423,0.237l-0.333,0.185l-0.409,0.227l-0.427,0.233l-0.353,0.191l-0.354,0.19l-0.415,0.221l-0.417,0.219l-0.357,0.187l-0.359,0.185l-0.436,0.224l-0.361,0.183l-0.408,0.206l-0.426,0.211l-0.379,0.187l-0.366,0.178l-0.35,0.169l-0.446,0.214l-0.434,0.205l-0.369,0.173l-0.37,0.172l-0.437,0.2l-0.373,0.169l-0.44,0.199l-0.389,0.172l-0.361,0.159l-0.444,0.193l-0.378,0.163l-0.447,0.19l-0.769,0.323l-0.792,0.323l-0.81,0.326l-0.809,0.315l-0.805,0.309l-0.859,0.32l-0.785,0.285l-0.781,0.278l-0.828,0.288l-0.833,0.28l-0.836,0.276l-0.841,0.268l-0.8,0.248l-0.809,0.245l-0.812,0.239l-0.81,0.231l-0.858,0.238l-0.822,0.22l-0.825,0.215l-0.822,0.206l-0.786,0.192l-0.873,0.205l-0.836,0.189l-0.794,0.173l-0.795,0.168l-0.843,0.171l-0.842,0.163l-0.802,0.15l-0.809,0.144l-0.81,0.139l-0.85,0.138l-0.85,0.131l-0.772,0.113l-0.817,0.115l-0.813,0.106l-0.817,0.103l-0.821,0.094l-0.776,0.085l-0.819,0.083l-0.824,0.078l-0.781,0.067l-0.779,0.063l-0.827,0.059l-0.783,0.051l-0.827,0.048l-0.784,0.039l-0.784,0.034l-0.786,0.028l-0.741,0.022l-0.831,0.018l-0.787,0.011l-0.742,0.007l-0.787,0.001l-0.788,-0.005l-0.743,-0.009l-0.744,-0.014l-0.787,-0.02l-0.789,-0.026l-0.744,-0.029l-0.742,-0.034l-0.743,-0.039l-0.744,-0.043l-0.744,-0.049l-0.742,-0.053l-0.741,-0.058l-0.699,-0.059l-0.743,-0.066l-0.742,-0.072l-0.742,-0.076l-0.738,-0.082l-0.697,-0.08l-0.697,-0.085l-0.693,-0.088l-0.696,-0.093l-0.738,-0.103l-0.694,-0.101l-0.694,-0.105l-0.693,-0.109l-0.649,-0.105l-0.734,-0.124l-0.695,-0.122l-0.647,-0.116l-0.642,-0.12l-0.689,-0.131l-0.687,-0.136l-0.649,-0.131l-0.685,-0.143l-0.643,-0.137l-0.646,-0.141l-0.636,-0.143l-0.64,-0.147l-0.649,-0.153l-0.638,-0.153l-0.638,-0.156l-0.636,-0.16l-0.636,-0.162l-0.604,-0.158l-0.634,-0.168l-0.592,-0.161l-0.637,-0.175l-0.631,-0.178l-0.554,-0.159l-0.594,-0.172l-0.628,-0.185l-0.593,-0.179l-0.591,-0.18l-0.585,-0.181l-0.59,-0.185l-0.589,-0.189l-0.549,-0.177l-0.62,-0.204l-0.548,-0.183l-0.553,-0.186l-0.578,-0.198l-0.545,-0.188l-0.583,-0.205l-0.22,-0.078l-0.226,-0.078l-0.548,-0.193l-0.548,-0.194l-0.547,-0.196l-0.508,-0.184l-0.576,-0.211l-0.552,-0.205l-0.506,-0.189l-0.573,-0.217l-0.587,-0.225l-0.541,-0.21l-0.497,-0.194l-0.577,-0.228l-0.539,-0.216l-0.538,-0.217l-0.574,-0.234l-0.537,-0.222l-0.572,-0.238l-0.527,-0.223l-0.534,-0.227l-0.569,-0.245l-0.533,-0.232l-0.566,-0.248l-0.558,-0.248l-0.53,-0.238l-0.564,-0.255l-0.528,-0.242l-0.561,-0.259l-0.553,-0.258l-0.525,-0.248l-0.558,-0.266l-0.549,-0.264l-0.556,-0.27l-0.555,-0.272l-0.52,-0.258l-0.552,-0.276l-0.576,-0.292l-0.542,-0.276l-0.516,-0.266l-0.547,-0.285l-0.579,-0.304l-0.545,-0.29l-0.503,-0.269l-0.534,-0.288l-0.605,-0.331l-0.54,-0.298l-0.499,-0.277l-0.537,-0.302l-0.559,-0.316l-0.566,-0.324l-0.533,-0.309l-0.523,-0.305l-0.531,-0.312l-0.551,-0.327l-0.549,-0.329l-0.527,-0.319l-0.525,-0.32l-0.544,-0.335l-0.552,-0.344l-0.521,-0.327l-0.531,-0.335l-0.547,-0.35l-0.517,-0.333l-0.534,-0.347l-0.533,-0.35l-0.504,-0.333l-0.548,-0.365l-0.528,-0.356l-0.526,-0.357l-0.561,-0.384l-0.496,-0.344l-0.495,-0.344l-0.546,-0.384l-0.528,-0.374l-0.516,-0.369l-0.54,-0.39l-0.497,-0.362l-0.52,-0.381l-0.535,-0.397l-0.508,-0.378l-0.506,-0.382l-0.504,-0.382l-0.537,-0.411l-0.501,-0.386l-0.499,-0.389l-0.498,-0.39l-0.529,-0.418l-0.517,-0.413l-0.493,-0.396l-0.5,-0.405l-0.512,-0.418l-0.51,-0.421l-0.485,-0.403l-0.484,-0.405l-0.505,-0.425l-0.502,-0.428l-0.51,-0.437l-0.499,-0.431l-0.476,-0.414l-0.494,-0.435l-0.494,-0.436l-0.491,-0.438l-0.469,-0.422l-0.496,-0.449l-0.506,-0.462l-0.464,-0.427l-0.473,-0.438l-0.5,-0.467l-0.468,-0.441l-0.476,-0.451l-0.494,-0.472l-0.473,-0.456l-0.471,-0.457l-0.469,-0.458l-0.468,-0.461l-0.483,-0.48l-0.464,-0.464l-0.462,-0.465l-0.469,-0.476l-0.459,-0.469l-0.466,-0.48l-0.472,-0.489l-0.454,-0.475l-0.443,-0.466l-0.483,-0.512l-0.448,-0.479l-0.447,-0.48l-0.461,-0.5l-0.459,-0.5l-0.442,-0.487l-0.447,-0.494l-0.462,-0.515l-0.436,-0.491l-0.442,-0.499l-0.449,-0.51l-0.438,-0.503l-0.445,-0.514l-0.451,-0.525l-0.433,-0.507l-0.44,-0.519l-0.424,-0.504l-0.428,-0.511l-0.448,-0.539l-0.433,-0.525l-0.431,-0.527l-0.422,-0.518l-0.428,-0.529l-0.439,-0.547l-0.417,-0.524l-0.411,-0.518l-0.434,-0.551l-0.432,-0.554l-0.411,-0.529l-0.41,-0.531l-0.415,-0.542l-0.426,-0.559l-0.424,-0.561l-0.411,-0.547l-0.402,-0.539l-0.412,-0.555l-0.417,-0.567l-0.405,-0.554l-0.397,-0.545l-0.423,-0.586l-0.411,-0.573l-0.383,-0.536l-0.401,-0.566l-0.41,-0.582l-0.412,-0.59l-0.387,-0.557l-0.387,-0.558l-0.41,-0.598l-0.4,-0.586l-0.391,-0.577l-0.39,-0.579l-0.387,-0.578l-0.396,-0.595l-0.393,-0.594l-0.391,-0.595l-0.384,-0.588l-0.382,-0.589l-0.39,-0.603l-0.38,-0.593l-0.385,-0.604l-0.384,-0.605l-0.376,-0.598l-0.383,-0.611l-0.388,-0.623l-0.365,-0.591l-0.379,-0.616l-0.384,-0.629l-0.369,-0.607l-0.376,-0.622l-0.373,-0.621l-0.365,-0.613l-0.373,-0.627l-0.376,-0.638l-0.363,-0.619l-0.368,-0.631l-0.368,-0.634l-0.366,-0.636l-0.371,-0.647l-0.358,-0.628l-0.363,-0.64l-0.362,-0.643l-0.361,-0.644l-0.365,-0.657l-0.359,-0.648l-0.358,-0.65l-0.351,-0.641l-0.362,-0.664l-0.36,-0.666l-0.349,-0.646l-0.358,-0.67l-0.358,-0.672l-0.351,-0.663l-0.345,-0.655l-0.355,-0.677l-0.353,-0.679l-0.343,-0.661l-0.352,-0.683l-0.35,-0.684l-0.345,-0.678l-0.345,-0.679l-0.348,-0.69l-0.347,-0.693l-0.342,-0.685l-0.341,-0.687l-0.344,-0.699l-0.344,-0.7l-0.339,-0.693l-0.342,-0.705l-0.342,-0.707l-0.335,-0.699l-0.341,-0.711l-0.339,-0.713l-0.333,-0.706l-0.338,-0.717l-0.337,-0.719l-0.336,-0.722l-0.335,-0.723l-0.326,-0.708l-0.334,-0.727l-0.341,-0.748l-0.328,-0.723l-0.332,-0.734l-0.331,-0.737l-0.326,-0.73l-0.334,-0.75l-0.329,-0.743l-0.324,-0.736l-0.332,-0.756l-0.327,-0.75l-0.322,-0.743l-0.329,-0.763l-0.326,-0.757l-0.324,-0.759l-0.324,-0.762l-0.32,-0.755l-0.321,-0.762l-0.321,-0.764l-0.318,-0.762l-0.321,-0.772l-0.32,-0.772l-0.318,-0.773l-0.316,-0.771l-0.317,-0.775l-0.317,-0.78l-0.315,-0.777l-0.315,-0.781l-0.314,-0.784l-0.315,-0.789l-0.31,-0.779l-0.314,-0.79l-0.315,-0.799l-0.309,-0.787l-0.311,-0.793l-0.311,-0.799l-0.311,-0.801l-0.308,-0.795l-0.307,-0.797l-0.312,-0.814l-0.308,-0.806l-0.306,-0.804l-0.306,-0.806l-0.307,-0.813l-0.307,-0.816l-0.303,-0.809l-0.307,-0.82l-0.305,-0.822l-0.306,-0.824l-0.301,-0.815l-0.301,-0.817l-0.309,-0.842l-0.3,-0.821l-0.3,-0.823l-0.306,-0.843l-0.299,-0.827l-0.299,-0.83l-0.302,-0.84l-0.302,-0.846l-0.301,-0.841l-0.297,-0.835l-0.297,-0.841l-0.3,-0.848l-0.3,-0.852l-0.3,-0.855l-0.295,-0.843l-0.295,-0.848l-0.301,-0.866l-0.295,-0.852l-0.296,-0.854l-0.297,-0.864l-0.296,-0.863l-0.294,-0.857l-0.295,-0.865l-0.298,-0.877l-0.293,-0.864l-0.292,-0.865l-0.294,-0.873l-0.296,-0.879l-0.292,-0.872l-0.292,-0.873l-0.299,-0.897l-0.58,-1.748l-0.584,-1.769l-0.582,-1.774l-0.582,-1.783l-0.58,-1.788l-0.579,-1.793l-0.579,-1.802l-0.578,-1.808l-0.577,-1.815l-0.576,-1.821l-0.574,-1.821l-0.574,-1.832l-0.574,-1.839l-0.572,-1.844l-0.572,-1.85l-0.571,-1.855l-0.569,-1.857l-0.57,-1.868l-0.569,-1.872l-0.568,-1.88l-0.568,-1.884l-0.565,-1.884l-0.566,-1.896l-0.566,-1.9l-0.563,-1.9l-0.564,-1.907l-0.564,-1.919l-0.562,-1.916l-0.562,-1.923l-0.562,-1.93l-0.56,-1.931l-0.561,-1.939l-0.56,-1.944l-0.559,-1.946l-0.558,-1.949l-0.559,-1.958l-0.557,-1.959l-0.556,-1.961l-0.558,-1.971l-0.556,-1.971l-0.555,-1.974l-0.555,-1.979l-0.554,-1.982l-0.555,-1.99l-0.554,-1.991l-0.553,-1.993l-0.553,-1.997l-0.552,-2l-0.552,-2.004l-0.552,-2.007l-0.552,-2.014l-0.551,-2.014l-0.549,-2.013l-0.55,-2.018l-0.55,-2.023l-0.55,-2.026l-0.549,-2.026l-0.549,-2.031l-0.548,-2.033l-0.547,-2.031l-0.548,-2.039l-0.547,-2.039l-0.548,-2.043l-0.546,-2.043l-0.546,-2.043l-0.547,-2.051l-1.09,-4.095l-1.091,-4.107l-1.088,-4.111l-1.087,-4.114l-1.087,-4.121l-1.086,-4.125l-1.084,-4.125l-1.084,-4.13l-1.083,-4.13l-1.082,-4.133l-2.16,-8.257l-2.158,-8.255l120.936,-31.612l2.155,8.243l2.153,8.229Z" style="fill:#000;"/><path d="M4145,3468l-4,224l58,41l-153,166l-103,-127l91,-76l14,-215l97,-13Z" style="fill:#fccea7;"/><g id="_744781632_"><path d="M4153,3731c-23,28 -48,33 -74,33c-25,0 -48,-7 -69,-30c16,93 -60,605 -42,766c0,5 3,9 7,14c23,2 47,4 71,5c21,1 50,2 64,2c14,0 13,-1 20,-1c29,0 57,-1 85,-3c5,-8 7,-16 8,-25c15,-200 -84,-680 -70,-761Z" style="fill:#000;"/><path d="M3864,3754c43,124 0,170 9,273c-3,24 21,101 22,125c3,187 -29,241 -65,341c46,10 94,17 144,22c23,3 47,4 71,5c1,-31 2,-101 9,-173c6,-75 18,-157 20,-250c1,-93 -8,-198 -10,-255c-1,-18 -2,-31 -1,-41c-21,-23 -52,-74 -62,-110c-69,32 -56,17 -137,63ZM4349,4501l0,-1c-20,-90 -52,-125 -63,-347c-1,-23 22,-74 23,-131c0,-35 -14,-86 -16,-120c-4,-66 4,-112 8,-153c-37,-22 -81,-33 -142,-57c-4,33 -35,82 -58,106c1,8 1,17 2,28c1,43 -1,120 1,232c2,112 9,260 15,350c4,55 8,91 10,114c29,-1 58,-2 86,-4c46,-4 90,-9 134,-17ZM4129,4523l0,1l0,-1ZM4130,4529l0,1l0,-1ZM4130,4530l0,1l0,-1ZM4131,4539l1,1l-1,-1ZM4132,4541l0,1l0,-1ZM4133,4548l0,1l0,-1ZM4133,4557l0,1l0,-1ZM4134,4559l0,1l0,-1ZM4134,4564l0,1l0,-1ZM4134,4573l0,1l0,-1Z" style="fill:#000;"/></g><path d="M4086,3063c327,4 301,571 -3,573c-306,-1 -329,-576 3,-573Z" style="fill:#fccea7;"/><path d="M4225,3377c1,2 0,5 -3,7c-2,1 -5,0 -6,-3c-4,-7 -9,-13 -15,-17c-8,-7 -18,-10 -29,-11c-10,-1 -21,1 -30,6c-6,3 -11,7 -15,12c-2,2 -5,3 -7,1c-2,-2 -3,-5 -1,-7c5,-6 12,-12 19,-15c10,-6 23,-8 35,-7c12,1 24,5 34,13c7,5 13,12 18,21Z" style="fill:#151514;fill-rule:nonzero;"/><path d="M4217,3383c-2,-2 -2,-5 -1,-7c2,-2 5,-2 7,-1c1,1 2,1 3,1c1,1 4,1 6,0c2,0 3,-1 4,-2c1,-3 3,-4 6,-4c3,1 4,4 4,6c-1,2 -1,3 -2,4l-1,0c-2,3 -5,5 -8,6l-1,0c-3,1 -7,1 -11,0c-2,0 -4,-2 -6,-3ZM4236,3374l0,0ZM4236,3374l0,0Z" style="fill:#151514;fill-rule:nonzero;"/><path d="M4206,3368c-2,-2 -2,-5 0,-7c1,-2 5,-2 7,-1c0,1 1,1 2,2c2,0 4,0 6,-1c2,0 3,-1 4,-2c1,-3 4,-4 6,-4c3,1 4,4 4,6c-1,2 -1,3 -2,4c-2,3 -6,5 -9,6c-4,1 -8,1 -12,0c-2,0 -4,-1 -6,-3ZM4225,3359l0,0Z" style="fill:#151514;fill-rule:nonzero;"/><path d="M4070,3399c0,35 -6,62 -9,74c1,4 2,14 22,15c2,1 4,2 4,5c-10,-1 -38,-2 -37,-18c1,-13 15,-73 20,-76Z" style="fill:#151514;fill-rule:nonzero;"/><path d="M3938,3378c-1,2 -4,3 -6,2c-3,-2 -4,-5 -2,-7c4,-9 10,-15 17,-20c11,-8 23,-12 35,-13c12,0 25,3 35,8c7,4 14,9 18,16c2,2 1,5 -1,7c-2,1 -5,1 -7,-1c-4,-6 -9,-10 -15,-13c-8,-5 -19,-7 -29,-7c-11,1 -21,4 -30,11c-6,4 -11,10 -15,17Z" style="fill:#151514;fill-rule:nonzero;"/><path d="M3931,3372c2,-2 5,-2 7,0c2,2 1,6 -1,7c-2,2 -4,3 -6,3c-4,1 -8,1 -12,-1c-3,-1 -6,-3 -8,-5c-1,-1 -2,-3 -2,-4c-1,-3 1,-6 3,-6c3,-1 6,1 6,4c1,1 3,1 5,2c2,1 4,1 6,1c0,-1 1,-1 2,-1ZM3918,3370l0,0Z" style="fill:#151514;fill-rule:nonzero;"/><path d="M3942,3357c2,-2 5,-2 7,1c2,2 1,5 -1,7c-2,1 -4,2 -6,3c-4,0 -8,0 -11,-1c-4,-1 -7,-3 -9,-6c-1,-1 -2,-2 -2,-4c-1,-3 1,-5 4,-6c2,0 5,1 6,4c0,1 2,2 4,2c2,1 4,1 6,1c1,0 1,-1 2,-1ZM3930,3355l0,0Z" style="fill:#151514;fill-rule:nonzero;"/><path d="M3994.65,3363.47c-6.681,0.014 -12.093,5.45 -12.078,12.13c0.014,6.681 5.45,12.093 12.13,12.078c6.681,-0.014 12.093,-5.45 12.078,-12.13c-0.014,-6.681 -5.45,-12.093 -12.13,-12.078Z" style="fill:#1a1a1a;"/><path d="M4163.4,3364.13c-6.681,0.014 -12.093,5.45 -12.078,12.13c0.014,6.681 5.45,12.093 12.13,12.078c6.681,-0.014 12.093,-5.45 12.078,-12.13c-0.014,-6.681 -5.45,-12.093 -12.13,-12.078Z" style="fill:#1a1a1a;"/><path d="M4133,3531c-28,36 -79,28 -93,-3" style="fill:none;stroke-width:10.41px;stroke:#b8a48a;"/><path d="M3925,3311c5,-4 14,-10 21,-14c7,-3 11,-4 23,-4c13,1 33,4 46,8c13,4 19,10 21,13c2,3 0,4 -6,2c-5,-1 -15,-4 -28,-7c-13,-3 -29,-5 -40,-5c-11,1 -16,3 -23,6c-6,3 -13,7 -17,7c-3,1 -2,-2 3,-6Z" style="fill:#45302c;"/><path d="M4124,3913c13,17 14,15 18,14c3,-1 6,-2 10,-2c-7,-3 -14,-4 -21,-7c-2,-2 -5,-4 -8,-6l1,1Z" style="fill:#000;fill-opacity:0.14902;"/><path d="M3976,3105c-16,24 -51,61 -71,113c-21,53 -29,119 -27,176c2,56 15,102 43,140c28,38 73,68 114,98c41,30 78,59 92,80c14,21 3,33 -40,44c-43,11 -119,21 -158,18c-39,-2 -40,-17 -38,-35c3,-18 9,-40 11,-65c2,-24 -2,-52 -14,-85c-11,-34 -31,-73 -45,-112c-13,-40 -20,-80 -17,-131c3,-52 16,-115 32,-157c17,-42 37,-62 59,-80c23,-18 48,-34 62,-37c13,-3 14,9 -3,33Z" style="fill:#b3b3b3;"/><path d="M3994,3092c35,0 85,7 132,29c47,22 93,60 124,111c31,51 48,114 48,167c0,54 -18,97 -51,134c-33,37 -81,69 -136,99c-56,30 -118,59 -160,79c-42,20 -64,31 -75,37c-12,6 -12,6 15,39c28,33 82,100 116,144c35,43 50,64 63,75c13,11 23,12 54,-25c31,-37 82,-112 122,-154c40,-43 69,-53 73,-63c3,-9 -19,-18 -35,-35c-17,-18 -29,-44 -32,-68c-2,-25 5,-48 23,-89c18,-40 48,-97 58,-157c10,-60 0,-123 -15,-176c-16,-53 -38,-96 -70,-128c-32,-32 -75,-53 -122,-61c-47,-8 -99,-3 -135,8c-36,11 -56,28 -55,33c0,6 22,0 58,1Z" style="fill:#ccc;"/><path d="M3905,3218c29,-19 58,-38 98,-49c40,-12 91,-15 124,-14c34,1 52,7 69,12c-22,-19 -45,-35 -70,-46c-47,-22 -97,-29 -132,-29c-4,0 -7,0 -10,0c-2,4 -5,8 -8,13c-16,24 -51,61 -71,113Z" style="fill:#808080;"/><path d="M4232,3311c-5,-4 -14,-10 -21,-14c-6,-3 -11,-4 -23,-4c-13,1 -33,4 -46,8c-13,4 -19,10 -21,13c-2,3 0,4 6,2c6,-1 15,-4 28,-7c13,-3 29,-5 40,-5c11,1 17,3 23,6c7,3 14,7 17,7c3,1 2,-2 -3,-6Z" style="fill:#45302c;"/><path d="M3857,3332c49,-6 82,-7 126,-6c72,2 67,26 100,24c33,2 28,-22 101,-24c44,-1 76,0 125,6l1,35c-15,14 -16,30 -25,57c-11,29 -83,30 -123,25c-26,-3 -39,-14 -47,-31c-9,-20 -15,-44 -32,-46c-17,2 -23,26 -32,46c-8,17 -21,28 -46,31c-40,5 -112,4 -123,-25c-10,-27 -10,-43 -26,-57l1,-35ZM4246,3336c-56,-7 -122,4 -128,18c-8,16 -8,58 24,80c13,9 32,10 59,11c61,-5 76,-13 81,-48c2,-9 2,-18 2,-26c-1,-16 -13,-32 -38,-35ZM3920,3336c57,-7 122,4 129,18c8,16 8,58 -25,80c-13,9 -31,10 -58,11c-62,-5 -76,-13 -82,-48c-1,-9 -2,-18 -1,-26c1,-16 13,-32 37,-35Z" style="fill:#000;"/></g></svg>