<?xml version="1.0" standalone="no"?><!DOCTYPE svg PUBLIC "-//W3C//DTD SVG 1.1//EN" "http://www.w3.org/Graphics/SVG/1.1/DTD/svg11.dtd"><svg width="100%" height="100%" viewBox="0 0 1122 1650" version="1.1" xmlns="http://www.w3.org/2000/svg" xmlns:xlink="http://www.w3.org/1999/xlink" xml:space="preserve" style="fill-rule:evenodd;clip-rule:evenodd;stroke-linejoin:round;stroke-miterlimit:1.41421;"><path d="M483,843.192c-1,1 -1,-1 -2,0c-4,5 -10,16 -17,40c-7,23 -16,58 -24,95c-14,60 -30,125 -48,170c-19,46 -43,72 -69,85c-31,17 -61,14 -88,5c-23,-8 -44,-21 -63,-42c-17,-19 -33,-44 -47,-78c-26,-58 -49,-148 -72,-238l-1,-2l53,-13l54,-16l1,2c22,85 44,171 67,224c9,22 18,36 27,46c6,7 12,10 18,12c1,1 -2,3 0,2c4,-2 10,-10 18,-30c14,-35 28,-96 42,-152c9,-38 17,-74 26,-103c13,-42 27,-67 42,-82c20,-22 37,-27 54,-31l29,106Z" style="fill:#fccf97;fill-rule:nonzero;"/><path d="M860,738.192c20,16 41,32 64,58c23,24 45,56 68,100c22,44 44,101 63,163c17,58 32,123 43,188c21,133 22,267 24,401l-66,0l-45,1l0,-1c-1,-129 -2,-258 -23,-383c-9,-60 -23,-119 -40,-174c-17,-58 -36,-108 -55,-145c-17,-35 -34,-58 -50,-76c-16,-17 -34,-31 -52,-45l69,-87Z" style="fill:#fccea7;fill-rule:nonzero;"/><path d="M702,468.192l-4,216l91,33l-186,167l-102,-164l90,-32l14,-208l97,-12Z" style="fill:#fccf97;"/><ellipse cx="849" cy="346.192" rx="70" ry="67" style="fill:#fccf97;"/><ellipse cx="442" cy="346.192" rx="70" ry="67" style="fill:#fccf97;"/><path d="M436,219.192c-3,35 -6,88 -3,141c3,54 11,107 30,149c18,41 47,69 78,88c31,18 65,27 100,28c35,1 72,-5 105,-26c33,-22 62,-60 82,-98c20,-38 29,-76 33,-131c3,-55 0,-127 -9,-179c-10,-52 -25,-84 -47,-107c-21,-22 -47,-34 -77,-43c-30,-9 -64,-14 -105,-10c-41,5 -90,20 -121,42c-32,22 -46,52 -54,74c-8,23 -10,38 -12,72Z" style="fill:#fccf97;"/><path d="M432,338.192c-6,19 -30,-58 -29,-94c1,-19 -2,-43 -2,-62c1,-19 4,-32 13,-46c10,-14 24,-29 35,-42c11,-12 19,-23 32,-34c12,-11 29,-23 49,-32c21,-9 46,-16 65,-21c20,-5 33,-8 49,-7c16,0 35,4 50,6c16,3 27,5 39,8c12,3 25,8 37,14c12,6 25,13 38,23c13,10 26,23 38,36c11,13 19,26 25,38c5,13 7,25 11,42c4,17 9,38 12,57c0,5 3,11 2,17c-19,60 -10,33 -19,60c-3,10 -10,24 -16,47c-8,27 -1,-25 -1,-37c2,-58 -26,-65 -27,-185c-1,-8 -19,-26 -48,-27c-2,-2 14,-7 7,-12c-7,-6 -22,-17 -36,-22c-2,-2 -4,-3 -5,-4c-8,-6 -8,-13 -20,-11c-19,2 -16,1 -34,-3c-15,-3 -25,-3 -34,-4c-10,-2 -19,-3 -28,-3c-9,1 -18,4 -28,6c-10,2 -20,3 -28,4c-7,1 -11,2 -16,4c-6,2 -13,5 -21,8c-7,2 -16,4 -22,8c-6,4 -9,10 -14,16c-4,5 -11,9 -18,13c-7,5 -13,11 -17,19c-5,9 -8,21 -11,30c-2,9 -3,15 -7,24c-4,8 -11,19 -15,35c-4,15 -5,35 -5,62c0,27 1,61 -1,69Z" style="fill:#211d1e;"/><path d="M578,253.192c-5,-4 -15,-8 -26,-10c-11,-2 -22,-3 -31,-3c-8,0 -15,1 -22,3c-8,3 -16,8 -23,15c-6,6 -10,16 -11,19c0,3 4,1 12,-3c8,-3 21,-8 33,-10c13,-2 25,-3 35,-3c10,-1 18,-1 23,0c5,0 8,0 11,-1c2,-1 4,-4 -1,-7Z" style="fill:#000;"/><path d="M707,251.192c5,-4 16,-7 27,-9c11,-2 22,-2 31,-2c8,1 15,1 22,4c7,3 16,8 22,15c6,7 10,17 10,20c0,3 -4,1 -12,-3c-8,-4 -20,-9 -32,-12c-13,-3 -25,-4 -35,-4c-10,-1 -17,-1 -23,-1c-5,0 -8,0 -11,-1c-2,-1 -3,-4 1,-7Z" style="fill:#000;"/><path d="M557,323.192c-7,0 -12,-8 -12,-18c0,-9 6,-17 13,-17c7,0 12,8 12,18c0,10 -6,17 -13,17Z" style="fill:#000;"/><path d="M729,323.192c-7,0 -12,-8 -12,-18c0,-9 6,-17 13,-17c7,0 12,8 12,18c0,10 -6,17 -13,17Z" style="fill:#000;"/><path d="M627,382.192c1,9 6,26 29,30c3,1 4,5 4,11c-11,-3 -42,-4 -41,-44c1,-13 4,-25 8,-45c11,-43 12,-45 0,48Z" style="fill:#151514;fill-rule:nonzero;"/><path d="M938,1507.19c-25,-248 -40,-497 -55,-747c-1,-10 0,-6 -1,-12c-41,-22 -118,-47 -152,-54c-15,80 -147,69 -165,-3c-39,16 -77,24 -129,48c-19,255 -30,505 -49,762c74,20 154,33 237,37c17,0 34,1 52,1c92,0 180,-11 262,-32ZM444,733.192c-2,2 -4,3 0,0Z" style="fill:#000;"/><path d="M415,1089.19c7,-116 14,-233 23,-351c-11,4 -23,11 -37,26c-15,16 -29,41 -43,85c-9,30 -18,67 -27,106c-9,37 -18,77 -28,110c18,16 36,32 55,44c14,10 29,17 44,24c4,-14 9,-28 13,-44Z" style="fill:#000;"/><path d="M884,832.192c2,39 4,78 7,117c19,39 39,90 56,149c2,6 4,11 5,17c19,-7 37,-14 55,-21c18,-8 35,-16 51,-26c1,-1 1,-1 2,-1c0,-1 -1,-2 -1,-2c-31,-115 -82,-263 -180,-318c2,28 3,56 5,85Z" style="fill:#000;"/><path d="M259,734.192c-1,-3 -7,-5 -16,-5c-9,1 -22,4 -34,12c-11,8 -23,20 -30,27c-6,7 -9,8 -11,8c-2,1 -3,0 -5,-6c-3,-6 -6,-17 -9,-32c-3,-15 -7,-34 -8,-55c-1,-21 0,-43 -2,-58c-1,-16 -5,-24 -8,-29c-3,-5 -4,-6 -6,-7c-1,-1 -3,-1 -4,0c-2,1 -3,4 -4,13c-1,10 -1,28 -3,51c-2,23 -4,52 -5,65c-1,12 0,9 -2,1c-2,-8 -8,-22 -12,-41c-3,-19 -5,-43 -7,-61c-3,-17 -6,-27 -10,-33c-4,-6 -8,-8 -11,-9c-3,-1 -4,0 -5,0c-1,1 -1,2 -1,17c1,15 1,44 2,60c1,16 1,19 2,30c2,11 4,30 5,39c1,9 1,9 -1,0c-3,-9 -7,-26 -11,-46c-4,-19 -7,-41 -11,-55c-4,-13 -8,-19 -12,-21c-4,-3 -7,-2 -8,-2c-2,1 -2,0 -2,10c1,10 1,30 2,44c1,14 2,22 3,27c1,6 2,8 4,18c2,9 5,24 6,32c2,8 1,8 -2,-1c-4,-8 -11,-25 -16,-39c-5,-13 -9,-23 -12,-29c-3,-6 -6,-9 -9,-10c-2,-1 -5,-1 -6,2c0,3 2,8 4,17c2,9 3,21 7,33c3,13 9,26 13,36c4,10 6,18 9,33c3,14 6,35 11,64c6,30 14,67 18,88c4,20 5,24 12,25c8,2 21,0 35,-2c15,-2 30,-4 37,-8c8,-3 7,-8 7,-18c0,-10 1,-26 3,-41c3,-15 7,-29 14,-39c7,-10 17,-15 25,-26c8,-10 14,-25 21,-37c8,-11 15,-20 21,-25c6,-5 11,-7 15,-9c4,-3 8,-6 7,-8Z" style="fill:#fccf97;"/><path d="M714,476.192c-6,31 -34,54 -67,54c-33,0 -61,-23 -68,-54l135,0Z" style="fill:#fff;"/><path d="M448,147.192c-14,-27 75,-64 124,-46c44,16 172,-2 225,-2c51,0 18,28 44,28c4,-41 2,-47 -51,-66c-75,-28 -216,-68 -287,-14c-10,8 -53,78 -53,91c0,7 -3,6 -2,9Z" style="fill:#211d1e;"/></svg>