<?xml version="1.0" standalone="no"?><!DOCTYPE svg PUBLIC "-//W3C//DTD SVG 1.1//EN" "http://www.w3.org/Graphics/SVG/1.1/DTD/svg11.dtd"><svg width="100%" height="100%" viewBox="0 0 1986 1986" version="1.1" xmlns="http://www.w3.org/2000/svg" xmlns:xlink="http://www.w3.org/1999/xlink" xml:space="preserve" style="fill-rule:evenodd;clip-rule:evenodd;stroke-linecap:round;stroke-linejoin:round;stroke-miterlimit:1.41421;"><g id="Layer_x0020_1"><g id="_874969456_"><path d="M1176.69,1272.03c-67.438,53.485 -151.155,53.485 -232.546,86.042c4.651,23.255 -2.326,6.976 20.929,39.533c23.255,34.882 93.019,81.391 151.155,99.995c58.137,16.278 113.948,16.278 167.434,9.302c51.16,-9.302 181.386,-44.184 204.641,-39.533c37.207,9.302 120.924,51.16 141.854,55.811c20.929,4.651 23.254,11.627 18.603,-13.953c-6.976,-25.58 -25.58,-65.113 -41.858,-109.297c-13.953,-41.858 18.604,-86.042 23.255,-132.551c6.976,-90.694 9.301,-153.481 -20.93,-246.5c-39.533,-125.575 -127.9,-179.061 -337.192,-186.037c11.627,60.462 18.603,123.249 9.301,186.037c-9.301,62.788 -39.533,197.665 -104.646,251.151Z" style="fill:#62d4d4;"/><path d="M868.961,565.062l1.496,0.003l1.495,0.004l1.493,0.006l1.491,0.007l1.49,0.009l1.487,0.01l1.487,0.012l1.484,0.013l1.482,0.014l1.481,0.016l1.478,0.018l1.477,0.019l1.474,0.02l1.473,0.022l1.47,0.024l1.469,0.024l1.467,0.026l1.464,0.028l1.462,0.029l1.46,0.031l1.457,0.031l1.456,0.034l1.452,0.034l1.451,0.036l1.449,0.038l1.446,0.039l1.444,0.04l1.441,0.042l1.439,0.043l1.436,0.045l1.435,0.045l1.431,0.048l1.428,0.048l1.426,0.05l1.424,0.052l1.421,0.053l1.418,0.054l1.416,0.055l1.412,0.057l1.41,0.059l1.407,0.059l1.405,0.061l1.401,0.062l1.398,0.064l1.395,0.065l1.393,0.066l1.39,0.068l1.387,0.069l1.383,0.07l1.381,0.072l1.378,0.073l1.374,0.074l1.371,0.076l1.367,0.077l1.365,0.078l1.361,0.08l1.359,0.081l1.367,0.083l1.338,0.084l1.327,0.086l1.323,0.088l1.319,0.089l1.316,0.091l1.312,0.093l1.309,0.095l1.306,0.096l1.302,0.098l1.298,0.1l1.295,0.101l1.293,0.103l1.288,0.105l1.284,0.107l1.282,0.108l1.277,0.11l1.275,0.112l1.271,0.114l1.267,0.115l1.264,0.117l1.262,0.119l1.257,0.121l1.254,0.122l1.25,0.124l1.247,0.125l1.244,0.128l1.24,0.129l1.237,0.13l1.234,0.133l1.23,0.134l1.228,0.136l1.223,0.138l1.22,0.139l1.216,0.141l1.215,0.143l1.21,0.144l1.206,0.146l1.204,0.148l1.2,0.15l1.197,0.151l1.194,0.153l1.19,0.155l1.187,0.156l1.184,0.158l1.181,0.16l1.177,0.161l1.173,0.163l1.17,0.165l1.168,0.167l1.165,0.168l1.16,0.17l1.158,0.172l1.154,0.173l1.151,0.175l1.148,0.176l1.145,0.179l1.142,0.18l1.137,0.182l1.136,0.183l1.132,0.185l1.128,0.187l1.125,0.188l1.122,0.191l1.119,0.191l1.117,0.194l1.112,0.195l1.11,0.197l1.106,0.198l1.103,0.201l1.1,0.202l1.097,0.203l1.094,0.205l1.091,0.207l1.087,0.209l1.085,0.21l1.081,0.212l1.078,0.213l1.075,0.216l1.072,0.217l1.069,0.218l1.065,0.221l1.063,0.221l1.059,0.224l1.057,0.225l1.053,0.227l1.051,0.229l1.046,0.23l1.044,0.232l1.042,0.233l1.038,0.236l1.035,0.237l1.032,0.238l1.029,0.24l1.026,0.242l1.023,0.244l1.019,0.245l1.017,0.247l1.014,0.248l1.01,0.25l1.009,0.252l1.004,0.253l1.002,0.255l1,0.257l0.994,0.258l0.993,0.26l0.99,0.262l0.986,0.263l0.986,0.266l0.981,0.266l0.977,0.268l0.975,0.27l0.973,0.272l0.969,0.273l0.966,0.275l0.963,0.276l0.96,0.278l0.958,0.28l0.954,0.281l0.952,0.284l0.949,0.284l0.947,0.287l0.942,0.288l0.939,0.289l0.938,0.292l0.934,0.292l0.932,0.295l0.928,0.296l0.925,0.298l0.923,0.299l0.921,0.301l0.917,0.303l0.913,0.304l0.912,0.306l0.91,0.308l0.904,0.309l0.902,0.31l0.902,0.313l0.896,0.314l0.894,0.316l0.892,0.317l0.889,0.319l0.886,0.321l0.882,0.322l0.881,0.324l0.879,0.326l0.873,0.326l0.872,0.329l0.87,0.331l0.866,0.331l0.864,0.334l0.86,0.335l0.858,0.337l0.856,0.339l0.852,0.339l0.85,0.342l0.847,0.343l0.845,0.346l0.842,0.346l0.838,0.348l0.835,0.35l0.834,0.351l0.831,0.353l0.827,0.355l0.825,0.356l0.823,0.358l0.821,0.36l0.815,0.36l0.816,0.363l0.811,0.364l0.808,0.366l0.807,0.367l0.803,0.369l0.801,0.371l0.798,0.372l0.796,0.374l0.793,0.376l0.789,0.376l0.788,0.379l0.786,0.381l0.782,0.381l0.779,0.384l0.777,0.385l0.774,0.387l0.77,0.387l0.771,0.391l0.766,0.391l0.763,0.393l0.761,0.395l0.759,0.396l0.756,0.398l0.753,0.399l0.75,0.401l0.748,0.403l0.745,0.403l0.743,0.407l0.739,0.406l0.738,0.409l0.736,0.411l0.731,0.412l0.731,0.414l0.726,0.415l0.724,0.416l0.723,0.419l0.718,0.419l0.718,0.422l0.714,0.423l0.711,0.425l0.709,0.425l0.707,0.429l0.703,0.429l0.702,0.43l0.699,0.433l0.695,0.433l0.694,0.436l0.692,0.438l0.689,0.438l0.685,0.44l0.684,0.442l0.68,0.443l0.679,0.445l0.677,0.446l0.672,0.448l0.672,0.45l0.668,0.45l0.665,0.452l0.664,0.455l0.66,0.455l0.659,0.458l0.656,0.458l0.654,0.461l0.649,0.461l0.648,0.462l0.647,0.466l0.644,0.466l0.639,0.467l0.638,0.469l0.637,0.471l0.634,0.473l0.629,0.473l0.629,0.476l0.627,0.477l0.621,0.477l0.621,0.479l0.62,0.482l0.617,0.484l0.612,0.483l0.612,0.486l0.609,0.488l0.605,0.488l0.603,0.49l0.601,0.491l0.601,0.494l0.597,0.496l0.592,0.495l0.59,0.496l0.765,0.647l0.753,0.681l0.58,0.527l0.58,0.53l0.578,0.532l0.575,0.533l0.572,0.534l0.571,0.536l0.569,0.538l0.565,0.538l0.565,0.54l0.563,0.543l0.562,0.544l0.558,0.545l0.556,0.546l0.555,0.55l0.553,0.549l0.549,0.551l0.548,0.552l0.547,0.554l0.546,0.558l0.541,0.556l0.539,0.557l0.54,0.562l0.536,0.562l0.534,0.563l0.533,0.565l0.531,0.566l0.527,0.568l0.526,0.567l0.526,0.573l0.522,0.571l0.519,0.572l0.519,0.576l0.518,0.577l0.513,0.577l0.512,0.579l0.511,0.58l0.509,0.582l0.507,0.585l0.504,0.583l0.503,0.587l0.5,0.586l0.499,0.59l0.498,0.591l0.493,0.589l0.493,0.594l0.493,0.596l0.488,0.594l0.488,0.599l0.485,0.598l0.482,0.598l0.483,0.603l0.478,0.601l0.477,0.603l0.476,0.605l0.474,0.607l0.472,0.608l0.47,0.61l0.468,0.609l0.466,0.613l0.464,0.612l0.463,0.614l0.46,0.616l0.457,0.615l0.459,0.62l0.455,0.62l0.451,0.618l0.453,0.624l0.449,0.624l0.446,0.622l0.446,0.626l0.443,0.626l0.442,0.629l0.44,0.629l0.439,0.632l0.437,0.633l0.433,0.631l0.431,0.633l0.432,0.636l0.43,0.638l0.426,0.637l0.426,0.64l0.423,0.639l0.421,0.64l0.42,0.644l0.418,0.643l0.417,0.647l0.414,0.645l0.412,0.647l0.412,0.65l0.408,0.647l0.408,0.652l0.405,0.652l0.404,0.652l0.403,0.656l0.399,0.654l0.398,0.656l0.398,0.659l0.395,0.659l0.392,0.658l0.391,0.661l0.391,0.664l0.388,0.663l0.385,0.662l0.385,0.666l0.383,0.667l0.38,0.666l0.379,0.669l0.379,0.672l0.375,0.669l0.374,0.671l0.373,0.673l0.371,0.675l0.369,0.675l0.367,0.675l0.365,0.676l0.365,0.679l0.362,0.68l0.36,0.679l0.36,0.683l0.357,0.681l0.355,0.682l0.355,0.686l0.351,0.684l0.351,0.686l0.349,0.687l0.348,0.69l0.346,0.691l0.343,0.687l0.342,0.692l0.342,0.694l0.339,0.692l0.337,0.694l0.335,0.693l0.335,0.696l0.334,0.7l0.331,0.698l0.329,0.699l0.328,0.7l0.326,0.701l0.324,0.7l0.324,0.703l0.322,0.707l0.319,0.702l0.318,0.705l0.317,0.707l0.316,0.708l0.314,0.709l0.313,0.71l0.309,0.709l0.309,0.71l0.308,0.713l0.306,0.713l0.306,0.715l0.302,0.714l0.301,0.714l0.3,0.718l0.298,0.717l0.297,0.717l0.296,0.72l0.293,0.719l0.292,0.721l0.292,0.723l0.289,0.722l0.288,0.723l0.286,0.724l0.285,0.725l0.284,0.727l0.282,0.727l0.28,0.727l0.279,0.728l0.278,0.73l0.275,0.73l0.274,0.728l0.275,0.735l0.271,0.732l0.27,0.731l0.27,0.738l0.266,0.733l0.267,0.736l0.264,0.737l0.263,0.735l0.263,0.742l0.259,0.737l0.259,0.738l0.258,0.744l0.256,0.739l0.254,0.741l0.254,0.744l0.252,0.744l0.25,0.744l0.249,0.743l0.248,0.747l0.247,0.749l0.245,0.746l0.243,0.747l0.243,0.75l0.241,0.749l0.239,0.75l0.238,0.75l0.238,0.754l0.235,0.752l0.234,0.752l0.233,0.754l0.232,0.755l0.231,0.757l0.228,0.755l0.227,0.755l0.227,0.757l0.226,0.76l0.223,0.759l0.222,0.758l0.221,0.76l0.221,0.764l0.218,0.759l0.217,0.763l0.216,0.763l0.214,0.762l0.214,0.765l0.213,0.765l0.211,0.767l0.209,0.764l0.209,0.768l0.207,0.768l0.205,0.767l0.205,0.767l0.203,0.771l0.203,0.772l0.2,0.769l0.201,0.772l0.198,0.771l0.197,0.772l0.196,0.775l0.195,0.773l0.193,0.774l0.193,0.776l0.191,0.775l0.19,0.776l0.189,0.776l0.188,0.777l0.186,0.78l0.186,0.779l0.184,0.779l0.183,0.779l0.181,0.781l0.181,0.781l0.179,0.781l0.179,0.782l0.177,0.783l0.176,0.784l0.174,0.781l0.174,0.785l0.173,0.785l0.171,0.786l0.171,0.787l0.111,0.519l0.129,0.515l0.194,0.783l0.194,0.785l0.191,0.78l0.192,0.784l0.191,0.787l0.19,0.784l0.188,0.785l0.188,0.785l0.187,0.786l0.186,0.786l0.186,0.787l0.185,0.79l0.183,0.787l0.182,0.788l0.182,0.791l0.181,0.79l0.18,0.789l0.179,0.79l0.178,0.793l0.177,0.793l0.176,0.789l0.176,0.795l0.174,0.794l0.174,0.793l0.172,0.796l0.172,0.794l0.17,0.794l0.17,0.798l0.169,0.797l0.168,0.798l0.167,0.797l0.165,0.797l0.166,0.8l0.164,0.8l0.163,0.801l0.162,0.801l0.161,0.799l0.16,0.8l0.16,0.806l0.158,0.803l0.157,0.802l0.157,0.804l0.155,0.805l0.155,0.806l0.153,0.806l0.152,0.806l0.152,0.807l0.15,0.808l0.149,0.806l0.149,0.809l0.148,0.811l0.146,0.81l0.145,0.81l0.145,0.811l0.143,0.812l0.142,0.812l0.142,0.813l0.14,0.813l0.14,0.816l0.138,0.814l0.137,0.815l0.137,0.818l0.135,0.816l0.134,0.817l0.133,0.817l0.132,0.818l0.131,0.82l0.13,0.822l0.129,0.817l0.128,0.822l0.127,0.823l0.126,0.822l0.125,0.824l0.123,0.822l0.123,0.824l0.121,0.826l0.121,0.826l0.119,0.825l0.118,0.826l0.118,0.828l0.117,0.832l0.114,0.827l0.114,0.828l0.113,0.831l0.112,0.832l0.111,0.832l0.109,0.83l0.109,0.834l0.107,0.834l0.107,0.835l0.105,0.835l0.104,0.834l0.103,0.837l0.102,0.837l0.101,0.838l0.1,0.841l0.098,0.837l0.098,0.839l0.096,0.843l0.095,0.839l0.094,0.842l0.093,0.842l0.091,0.843l0.091,0.847l0.09,0.844l0.088,0.843l0.087,0.848l0.086,0.849l0.085,0.845l0.084,0.848l0.082,0.85l0.082,0.85l0.08,0.85l0.079,0.852l0.078,0.852l0.076,0.852l0.076,0.855l0.075,0.855l0.072,0.854l0.072,0.855l0.071,0.856l0.07,0.858l0.068,0.859l0.067,0.858l0.066,0.858l0.065,0.861l0.064,0.862l0.062,0.861l0.062,0.863l0.06,0.864l0.058,0.863l0.058,0.865l0.056,0.867l0.055,0.864l0.054,0.868l0.053,0.869l0.052,0.869l0.05,0.868l0.049,0.87l0.048,0.872l0.046,0.872l0.046,0.873l0.044,0.874l0.042,0.874l0.042,0.873l0.04,0.878l0.039,0.877l0.038,0.875l0.037,0.881l0.035,0.878l0.034,0.878l0.033,0.883l0.031,0.881l0.031,0.882l0.029,0.885l0.027,0.884l0.026,0.882l0.026,0.885l0.024,0.89l0.022,0.887l0.021,0.885l0.02,0.891l0.019,0.891l0.017,0.888l0.017,0.893l0.014,0.894l0.014,0.89l0.012,0.895l0.011,0.896l0.009,0.895l0.008,0.895l0.008,0.899l0.005,0.899l0.004,0.898l0.003,0.901l0.002,0.9l0,0.902l-0.001,0.904l-0.002,0.902l-0.004,0.905l-0.005,0.904l-0.006,0.906l-0.008,0.908l-0.009,0.908l-0.011,0.91l-0.011,0.907l-0.013,0.911l-0.015,0.912l-0.016,0.911l-0.017,0.913l-0.018,0.917l-0.02,0.915l-0.022,0.914l-0.022,0.917l-0.024,0.917l-0.026,0.919l-0.026,0.922l-0.029,0.92l-0.029,0.919l-0.031,0.922l-0.032,0.925l-0.034,0.924l-0.035,0.923l-0.037,0.927l-0.038,0.927l-0.039,0.927l-0.041,0.931l-0.042,0.929l-0.043,0.93l-0.045,0.931l-0.047,0.934l-0.047,0.933l-0.049,0.933l-0.051,0.935l-0.052,0.937l-0.054,0.939l-0.054,0.937l-0.057,0.938l-0.057,0.939l-0.059,0.942l-0.061,0.944l-0.062,0.941l-0.063,0.945l-0.066,0.946l-0.066,0.945l-0.068,0.945l-0.069,0.949l-0.071,0.949l-0.072,0.949l-0.073,0.951l-0.075,0.953l-0.077,0.953l-0.078,0.952l-0.079,0.955l-0.081,0.956l-0.083,0.957l-0.084,0.958l-0.085,0.957l-0.087,0.96l-0.088,0.961l-0.09,0.962l-0.091,0.963l-0.093,0.964l-0.094,0.964l-0.096,0.966l-0.097,0.967l-0.099,0.968l-0.1,0.968l-0.102,0.97l-0.103,0.97l-0.105,0.972l-0.107,0.975l-0.107,0.974l-0.11,0.974l-0.111,0.976l-0.111,0.972l-0.113,0.976l-0.115,0.976l-0.116,0.976l-0.117,0.979l-0.119,0.983l-0.12,0.981l-0.121,0.983l-0.123,0.985l-0.124,0.985l-0.126,0.986l-0.127,0.989l-0.129,0.99l-0.13,0.989l-0.132,0.992l-0.133,0.995l-0.135,0.994l-0.136,0.994l-0.138,0.996l-0.139,0.997l-0.141,1l-0.143,1l-0.144,1.001l-0.146,1.002l-0.147,1.001l-0.15,1.006l-0.151,1.005l-0.152,1.005l-0.154,1.008l-0.156,1.007l-0.157,1.008l-0.16,1.01l-0.161,1.011l-0.163,1.011l-0.164,1.013l-0.167,1.013l-0.168,1.013l-0.17,1.014l-0.172,1.017l-0.173,1.015l-0.176,1.018l-0.177,1.018l-0.179,1.016l-0.181,1.02l-0.184,1.021l-0.185,1.02l-0.187,1.019l-0.188,1.023l-0.192,1.023l-0.192,1.022l-0.195,1.022l-0.197,1.024l-0.199,1.027l-0.201,1.023l-0.202,1.025l-0.205,1.026l-0.207,1.025l-0.21,1.028l-0.211,1.029l-0.213,1.026l-0.215,1.027l-0.218,1.028l-0.22,1.029l-0.222,1.029l-0.224,1.03l-0.227,1.031l-0.228,1.029l-0.23,1.028l-0.233,1.031l-0.236,1.031l-0.238,1.031l-0.24,1.032l-0.241,1.029l-0.245,1.031l-0.246,1.032l-0.249,1.031l-0.252,1.033l-0.254,1.03l-0.255,1.031l-0.26,1.035l-0.261,1.03l-0.262,1.031l-0.267,1.033l-0.268,1.032l-0.27,1.029l-0.274,1.033l-0.276,1.033l-0.277,1.029l-0.281,1.032l-0.284,1.032l-0.285,1.03l-0.289,1.031l-0.291,1.031l-0.293,1.03l-0.296,1.03l-0.299,1.031l-0.302,1.029l-0.304,1.029l-0.307,1.03l-0.309,1.029l-0.312,1.027l-0.314,1.027l-0.318,1.03l-0.321,1.027l-0.322,1.026l-0.327,1.028l-0.328,1.025l-0.331,1.025l-0.335,1.026l-0.336,1.023l-0.34,1.025l-0.343,1.023l-0.346,1.023l-0.348,1.023l-0.351,1.021l-0.355,1.022l-0.357,1.02l-0.36,1.019l-0.363,1.02l-0.367,1.019l-0.368,1.017l-0.372,1.017l-0.375,1.016l-0.377,1.011l-0.192,0.513l-0.19,0.505l-0.193,0.51l-0.193,0.508l-0.192,0.504l-0.194,0.507l-0.195,0.507l-0.196,0.505l-0.196,0.507l-0.197,0.503l-0.197,0.505l-0.2,0.509l-0.199,0.502l-0.2,0.505l-0.202,0.508l-0.201,0.501l-0.203,0.504l-0.204,0.507l-0.203,0.5l-0.205,0.504l-0.207,0.506l-0.207,0.503l-0.206,0.498l-0.208,0.502l-0.21,0.505l-0.21,0.502l-0.211,0.502l-0.211,0.501l-0.212,0.5l-0.214,0.503l-0.214,0.5l-0.213,0.497l-0.216,0.502l-0.217,0.5l-0.216,0.498l-0.219,0.501l-0.219,0.499l-0.219,0.498l-0.222,0.5l-0.221,0.497l-0.222,0.497l-0.222,0.497l-0.224,0.496l-0.225,0.499l-0.227,0.499l-0.226,0.495l-0.226,0.494l-0.228,0.495l-0.23,0.497l-0.231,0.497l-0.228,0.49l-0.232,0.496l-0.234,0.496l-0.232,0.492l-0.233,0.492l-0.236,0.495l-0.237,0.495l-0.236,0.49l-0.238,0.493l-0.238,0.491l-0.238,0.49l-0.242,0.495l-0.241,0.489l-0.241,0.489l-0.243,0.491l-0.244,0.49l-0.246,0.492l-0.244,0.486l-0.246,0.487l-0.248,0.49l-0.248,0.488l-0.249,0.488l-0.251,0.489l-0.25,0.484l-0.252,0.488l-0.253,0.486l-0.252,0.483l-0.255,0.487l-0.256,0.485l-0.257,0.486l-0.256,0.481l-0.258,0.484l-0.261,0.487l-0.258,0.48l-0.262,0.484l-0.262,0.482l-0.261,0.479l-0.264,0.482l-0.266,0.484l-0.266,0.481l-0.265,0.477l-0.267,0.481l-0.27,0.482l-0.268,0.475l-0.27,0.479l-0.273,0.48l-0.27,0.475l-0.273,0.477l-0.274,0.477l-0.275,0.477l-0.277,0.477l-0.277,0.476l-0.278,0.474l-0.278,0.475l-0.278,0.471l-0.282,0.476l-0.283,0.475l-0.281,0.47l-0.283,0.472l-0.286,0.473l-0.285,0.471l-0.286,0.47l-0.288,0.471l-0.287,0.468l-0.29,0.471l-0.291,0.47l-0.291,0.467l-0.293,0.469l-0.293,0.467l-0.293,0.466l-0.297,0.469l-0.295,0.464l-0.297,0.465l-0.3,0.467l-0.298,0.463l-0.3,0.463l-0.302,0.465l-0.302,0.462l-0.302,0.462l-0.305,0.463l-0.306,0.462l-0.305,0.46l-0.307,0.46l-0.309,0.461l-0.309,0.458l-0.311,0.46l-0.312,0.459l-0.311,0.456l-0.312,0.455l-0.316,0.459l-0.316,0.457l-0.315,0.453l-0.318,0.457l-0.32,0.456l-0.318,0.451l-0.319,0.452l-0.322,0.454l-0.324,0.453l-0.324,0.452l-0.324,0.451l-0.325,0.449l-0.328,0.451l-0.328,0.449l-0.327,0.447l-0.331,0.449l-0.331,0.448l-0.333,0.448l-0.333,0.446l-0.332,0.444l-0.336,0.446l-0.336,0.444l-0.336,0.442l-0.341,0.446l-0.339,0.443l-0.339,0.44l-0.342,0.442l-0.343,0.441l-0.343,0.44l-0.345,0.44l-0.346,0.439l-0.347,0.438l-0.347,0.437l-0.35,0.438l-0.35,0.437l-0.352,0.436l-0.351,0.434l-0.354,0.435l-0.355,0.434l-0.354,0.432l-0.359,0.435l-0.358,0.431l-0.357,0.429l-0.359,0.43l-0.362,0.431l-0.363,0.43l-0.363,0.428l-0.363,0.427l-0.366,0.427l-0.368,0.428l-0.367,0.425l-0.368,0.425l-0.369,0.423l-0.371,0.424l-0.372,0.422l-0.374,0.424l-0.376,0.423l-0.374,0.419l-0.374,0.418l-0.379,0.422l-0.381,0.42l-0.379,0.417l-0.38,0.417l-0.383,0.417l-0.383,0.415l-0.384,0.415l-0.385,0.413l-0.387,0.415l-0.389,0.413l-0.388,0.412l-0.391,0.412l-0.39,0.41l-0.392,0.409l-0.394,0.41l-0.394,0.407l-0.396,0.409l-0.398,0.407l-0.398,0.406l-0.398,0.404l-0.401,0.405l-0.402,0.404l-0.403,0.404l-0.403,0.401l-0.403,0.4l-0.41,0.404l-0.406,0.399l-0.407,0.397l-0.409,0.398l-0.411,0.398l-0.413,0.397l-0.413,0.396l-0.414,0.395l-0.415,0.394l-0.419,0.395l-0.417,0.392l-0.418,0.39l-0.418,0.39l-0.423,0.391l-0.424,0.391l-0.422,0.387l-0.425,0.388l-0.426,0.386l-0.427,0.386l-0.429,0.386l-0.429,0.384l-0.43,0.382l-0.432,0.383l-0.434,0.383l-0.434,0.38l-0.435,0.379l-0.437,0.38l-0.438,0.378l-0.44,0.378l-0.439,0.375l-0.44,0.375l-0.443,0.375l-0.443,0.373l-0.447,0.375l-0.447,0.372l-0.447,0.371l-0.449,0.37l-0.447,0.367l-0.452,0.37l-0.454,0.369l-0.452,0.365l-0.454,0.366l-0.456,0.365l-0.457,0.363l-0.457,0.362l-0.459,0.362l-0.46,0.361l-0.462,0.36l-0.462,0.359l-0.463,0.357l-0.463,0.356l-0.463,0.354l-0.467,0.355l-0.468,0.354l-0.468,0.353l-0.469,0.351l-0.471,0.352l-0.47,0.348l-0.471,0.348l-0.474,0.349l-0.473,0.346l-0.474,0.345l-0.478,0.345l-0.476,0.344l-0.476,0.341l-0.48,0.343l-0.484,0.343l-0.479,0.338l-0.479,0.338l-0.483,0.338l-0.484,0.337l-0.487,0.337l-0.483,0.334l-0.485,0.333l-0.49,0.334l-0.489,0.333l-0.486,0.329l-0.49,0.331l-0.494,0.331l-0.491,0.327l-0.494,0.328l-0.492,0.326l-0.492,0.324l-0.499,0.327l-0.496,0.323l-0.496,0.322l-0.5,0.323l-0.498,0.32l-0.499,0.32l-0.501,0.319l-0.504,0.319l-0.502,0.317l-0.501,0.315l-0.504,0.315l-0.506,0.315l-0.506,0.314l-0.507,0.313l-0.507,0.311l-0.509,0.311l-0.51,0.311l-0.509,0.308l-0.509,0.308l-0.513,0.308l-0.513,0.306l-0.514,0.306l-0.513,0.304l-0.515,0.304l-0.516,0.303l-0.516,0.302l-0.519,0.302l-0.519,0.301l-0.517,0.298l-0.519,0.298l-0.52,0.297l-0.52,0.297l-0.524,0.297l-0.523,0.295l-0.524,0.294l-0.524,0.294l-0.523,0.291l-0.528,0.293l-0.528,0.291l-0.523,0.288l-0.53,0.29l-0.531,0.29l-0.526,0.285l-0.529,0.286l-0.534,0.288l-0.533,0.285l-0.529,0.282l-0.534,0.284l-0.536,0.283l-0.531,0.28l-0.536,0.282l-0.538,0.281l-0.535,0.278l-0.537,0.278l-0.538,0.278l-0.54,0.277l-0.539,0.276l-0.541,0.275l-0.54,0.274l-0.539,0.272l-0.543,0.273l-0.543,0.272l-0.545,0.272l-0.544,0.27l-0.544,0.269l-0.543,0.268l-0.547,0.268l-0.547,0.268l-0.546,0.265l-0.549,0.266l-0.549,0.265l-0.55,0.265l-0.55,0.263l-0.549,0.261l-0.552,0.262l-0.552,0.261l-0.551,0.259l-0.553,0.26l-0.555,0.259l-0.553,0.257l-0.552,0.256l-0.556,0.256l-0.557,0.257l-0.558,0.255l-0.558,0.254l-0.556,0.252l-0.556,0.252l-0.561,0.253l-0.557,0.25l-0.558,0.249l-0.566,0.252l-0.559,0.248l-0.559,0.247l-0.564,0.248l-0.562,0.246l-0.564,0.246l-0.564,0.245l-0.565,0.244l-0.563,0.243l-0.564,0.243l-0.568,0.242l-0.566,0.241l-0.567,0.241l-0.567,0.24l-0.567,0.238l-0.57,0.24l-0.569,0.237l-0.568,0.237l-0.572,0.237l-0.568,0.235l-0.572,0.235l-0.573,0.235l-0.57,0.232l-0.572,0.233l-0.573,0.232l-0.572,0.231l-0.576,0.231l-0.574,0.23l-0.574,0.229l-0.578,0.23l-0.575,0.227l-0.572,0.226l-0.58,0.228l-0.575,0.225l-0.577,0.225l-0.581,0.226l-0.575,0.222l-0.579,0.223l-0.582,0.224l-0.578,0.221l-0.577,0.22l-0.586,0.222l-1.159,0.438l-1.164,0.436l-1.166,0.434l-1.165,0.43l-1.168,0.428l-1.171,0.426l-1.172,0.423l-1.174,0.421l-1.171,0.417l-1.177,0.415l-1.178,0.414l-1.178,0.409l-1.179,0.408l-1.182,0.405l-1.183,0.403l-1.182,0.4l-1.185,0.398l-1.187,0.395l-1.187,0.393l-1.189,0.391l-1.188,0.387l-1.19,0.386l-1.193,0.384l-1.192,0.381l-1.194,0.378l-1.194,0.376l-1.194,0.374l-1.197,0.372l-1.198,0.369l-1.197,0.367l-1.2,0.365l-1.2,0.363l-1.2,0.359l-1.201,0.358l-1.202,0.356l-1.202,0.354l-1.205,0.351l-1.204,0.349l-1.203,0.347l-1.204,0.344l-1.207,0.343l-1.206,0.341l-1.207,0.338l-1.206,0.336l-1.209,0.335l-1.208,0.332l-1.207,0.33l-1.209,0.327l-1.209,0.326l-1.21,0.324l-1.208,0.322l-1.211,0.32l-1.211,0.318l-1.211,0.316l-1.209,0.313l-1.209,0.312l-1.211,0.31l-1.211,0.308l-1.211,0.306l-1.212,0.304l-1.209,0.302l-1.21,0.3l-1.211,0.299l-1.211,0.296l-1.209,0.295l-1.212,0.293l-1.209,0.291l-1.21,0.289l-1.211,0.288l-1.209,0.285l-1.207,0.284l-1.209,0.282l-1.209,0.28l-1.208,0.279l-1.208,0.277l-1.206,0.275l-1.206,0.273l-1.206,0.271l-1.207,0.271l-1.204,0.268l-1.205,0.266l-1.204,0.265l-1.203,0.264l-1.203,0.261l-1.202,0.261l-1.2,0.258l-1.2,0.257l-1.202,0.255l-1.198,0.254l-1.196,0.251l-1.198,0.251l-1.196,0.249l-1.196,0.248l-1.194,0.246l-1.194,0.244l-1.192,0.243l-1.19,0.242l-1.192,0.24l-1.188,0.238l-1.189,0.238l-1.186,0.235l-1.186,0.234l-1.185,0.233l-1.182,0.231l-1.182,0.231l-1.181,0.228l-1.18,0.228l-1.178,0.226l-1.176,0.224l-1.174,0.223l-1.175,0.222l-1.173,0.221l-1.17,0.219l-1.169,0.218l-1.166,0.217l-1.166,0.216l-1.167,0.214l-1.163,0.213l-1.16,0.212l-1.159,0.21l-1.159,0.21l-1.154,0.207l-1.155,0.208l-1.154,0.206l-1.148,0.204l-1.148,0.203l-1.149,0.203l-1.145,0.201l-1.144,0.201l-2.277,0.396l-2.272,0.393l-2.262,0.387l-2.254,0.385l-2.245,0.379l-2.236,0.376l-2.227,0.373l-2.218,0.368l-2.207,0.364l-2.196,0.361l-2.187,0.357l-2.176,0.354l-2.165,0.351l-2.155,0.347l-2.143,0.344l-2.13,0.34l-2.12,0.338l-2.108,0.335l-2.094,0.332l-2.117,0.335l-2.162,0.331l-2.121,0.324l-2.111,0.321l-2.101,0.317l-2.09,0.314l-2.078,0.31l-2.067,0.307l-2.058,0.304l-2.048,0.3l-2.035,0.298l-2.028,0.294l-2.015,0.29l-2.006,0.288l-1.996,0.284l-1.986,0.281l-1.975,0.278l-1.964,0.274l-1.957,0.272l-1.945,0.268l-1.935,0.265l-1.927,0.262l-1.916,0.259l-1.907,0.256l-1.896,0.252l-1.888,0.25l-1.879,0.247l-1.868,0.243l-1.859,0.24l-1.851,0.238l-1.84,0.234l-1.831,0.231l-1.825,0.229l-1.813,0.225l-1.804,0.222l-1.796,0.22l-1.787,0.216l-1.778,0.214l-1.768,0.21l-1.761,0.208l-1.753,0.205l-1.744,0.202l-1.734,0.199l-1.726,0.196l-1.719,0.194l-1.71,0.19l-1.701,0.188l-1.693,0.185l-1.686,0.182l-1.676,0.179l-1.67,0.177l-1.662,0.174l-1.653,0.171l-1.645,0.169l-1.638,0.165l-1.63,0.163l-1.622,0.161l-1.614,0.157l-1.608,0.155l-1.6,0.153l-1.591,0.149l-1.586,0.147l-1.578,0.145l-1.568,0.142l-1.564,0.139l-1.557,0.137l-1.549,0.134l-1.541,0.132l-1.535,0.129l-1.528,0.126l-1.522,0.124l-1.515,0.122l-1.507,0.119l-1.5,0.116l-1.495,0.115l-1.489,0.112l-1.481,0.109l-1.474,0.107l-1.47,0.104l-1.463,0.103l-1.456,0.099l-1.449,0.097l-1.444,0.095l-1.437,0.093l-1.432,0.091l-1.427,0.088l-1.419,0.085l-1.414,0.084l-1.409,0.081l-1.402,0.079l-1.396,0.076l-1.392,0.075l-1.385,0.072l-1.381,0.07l-1.374,0.068l-1.369,0.066l-1.365,0.063l-1.358,0.061l-1.355,0.059l-1.348,0.057l-1.342,0.055l-1.338,0.053l-1.334,0.051l-1.329,0.048l-1.324,0.047l-1.318,0.044l-1.315,0.043l-1.308,0.04l-1.305,0.039l-1.301,0.036l-1.294,0.034l-1.291,0.033l-1.287,0.03l-1.282,0.029l-1.279,0.026l-1.273,0.025l-1.27,0.023l-1.265,0.02l-1.262,0.02l-1.257,0.016l-1.252,0.016l-1.251,0.013l-1.247,0.012l-1.241,0.009l-1.237,0.008l-1.234,0.007l-1.232,0.004l-1.227,0.003l-1.587,0.001l-1.582,-0.073l-1.207,-0.056l-1.203,-0.057l-1.201,-0.058l-1.199,-0.06l-1.194,-0.06l-1.189,-0.06l-1.188,-0.062l-1.184,-0.062l-1.18,-0.064l-1.177,-0.064l-1.174,-0.065l-1.172,-0.066l-1.165,-0.067l-1.163,-0.067l-1.161,-0.069l-1.154,-0.07l-1.153,-0.07l-1.149,-0.071l-1.146,-0.072l-1.142,-0.073l-1.138,-0.074l-1.135,-0.075l-1.131,-0.075l-1.128,-0.077l-1.122,-0.077l-1.122,-0.078l-1.117,-0.079l-1.111,-0.08l-1.111,-0.081l-1.106,-0.082l-1.102,-0.082l-1.098,-0.084l-1.093,-0.084l-1.093,-0.085l-1.087,-0.087l-1.081,-0.086l-1.082,-0.088l-1.076,-0.089l-1.07,-0.09l-1.068,-0.09l-1.066,-0.092l-1.061,-0.092l-1.055,-0.093l-1.053,-0.094l-1.051,-0.095l-1.045,-0.096l-1.04,-0.097l-1.037,-0.097l-1.034,-0.099l-1.03,-0.099l-1.028,-0.101l-1.019,-0.101l-1.018,-0.102l-1.016,-0.103l-1.009,-0.104l-1.006,-0.105l-1.002,-0.105l-0.998,-0.107l-0.994,-0.107l-0.99,-0.109l-0.987,-0.109l-0.982,-0.11l-0.978,-0.111l-0.974,-0.112l-0.97,-0.113l-0.966,-0.114l-0.962,-0.115l-0.957,-0.115l-0.954,-0.117l-0.947,-0.117l-0.948,-0.119l-0.941,-0.119l-0.935,-0.12l-0.936,-0.121l-0.929,-0.123l-0.924,-0.123l-0.921,-0.124l-0.914,-0.124l-0.913,-0.126l-0.91,-0.127l-0.904,-0.128l-0.897,-0.128l-0.896,-0.129l-0.893,-0.131l-0.887,-0.132l-0.88,-0.132l-0.879,-0.133l-0.876,-0.135l-0.87,-0.135l-0.864,-0.136l-0.861,-0.137l-0.857,-0.138l-0.853,-0.139l-0.851,-0.141l-0.842,-0.14l-0.84,-0.142l-0.838,-0.144l-0.829,-0.143l-0.827,-0.145l-0.822,-0.146l-0.819,-0.147l-0.814,-0.148l-0.809,-0.149l-0.805,-0.15l-0.802,-0.151l-0.796,-0.152l-0.792,-0.153l-0.788,-0.154l-0.783,-0.155l-0.779,-0.157l-0.772,-0.156l-0.773,-0.159l-0.766,-0.159l-0.759,-0.16l-0.759,-0.162l-0.753,-0.162l-0.749,-0.164l-0.744,-0.165l-0.736,-0.165l-0.735,-0.167l-0.734,-0.168l-0.726,-0.17l-0.722,-0.17l-0.717,-0.172l-0.711,-0.171l-0.709,-0.174l-0.87,-0.216l-0.801,-0.22l-0.625,-0.173l-0.62,-0.173l-0.61,-0.171l-0.6,-0.17l-0.594,-0.169l-0.582,-0.167l-0.58,-0.167l-1.124,-0.326l-1.096,-0.318l-1.064,-0.31l-1.032,-0.3l-1.005,-0.291l-0.485,-0.139l-0.48,-0.137l-0.471,-0.134l-0.463,-0.131l-0.458,-0.127l-0.451,-0.124l-0.441,-0.121l-0.433,-0.117l-0.425,-0.113l-0.421,-0.11l-0.412,-0.106l-0.4,-0.101l-0.396,-0.097l-0.392,-0.095l-0.38,-0.09l-0.376,-0.087l-0.383,-0.085l-0.164,-0.036l-0.174,-0.038l-0.18,-0.038l-0.181,-0.037l-0.179,-0.037l-0.17,-0.034l-0.16,-0.032l-0.177,-0.034l-0.168,-0.032l-0.166,-0.031l-0.167,-0.03l-0.156,-0.028l-0.157,-0.027l-0.164,-0.027l-0.163,-0.027l-0.153,-0.024l-0.154,-0.024l-0.153,-0.023l-0.153,-0.022l-0.151,-0.021l-0.143,-0.02l-0.15,-0.019l-0.15,-0.019l-0.142,-0.017l-0.149,-0.018l-0.14,-0.015l-0.141,-0.015l-0.14,-0.014l-0.139,-0.013l-0.139,-0.012l-0.131,-0.011l-0.138,-0.011l-0.139,-0.01l-0.13,-0.008l-0.13,-0.008l-0.13,-0.007l-0.139,-0.007l-0.13,-0.006l-0.13,-0.004l-0.122,-0.004l-0.13,-0.003l-0.131,-0.003l-0.122,-0.001l-0.132,-0.001l-0.123,0l-0.124,0.001l-0.124,0.001l-0.125,0.003l-0.125,0.003l-0.126,0.004l-0.126,0.005l-0.119,0.005l-0.128,0.007l-0.121,0.007l-0.121,0.008l-0.131,0.009l-0.123,0.01l-0.124,0.01l-0.118,0.011l-0.126,0.012l-0.128,0.014l-0.121,0.013l-0.13,0.016l-0.123,0.015l-0.125,0.017l-0.135,0.019l-0.128,0.018l-0.129,0.02l-0.123,0.02l-0.133,0.022l-0.134,0.023l-0.128,0.023l-0.137,0.026l-0.132,0.026l-0.133,0.027l-0.143,0.029l-0.138,0.03l-0.132,0.029l-0.142,0.033l-0.143,0.034l-0.146,0.035l-0.147,0.037l-0.142,0.036l-0.145,0.039l-0.147,0.039l-0.149,0.042l-0.151,0.042l-0.153,0.045l-0.158,0.047l-0.158,0.048l-0.154,0.048l-0.157,0.05l-0.165,0.054l-0.168,0.056l-0.165,0.055l-0.159,0.055l-0.168,0.06l-0.18,0.064l-0.174,0.063l-0.169,0.063l-0.174,0.066l-0.182,0.07l-0.184,0.072l-0.182,0.072l-0.183,0.074l-0.186,0.077l-0.19,0.079l-0.192,0.081l-0.189,0.081l-0.196,0.086l-0.2,0.088l-0.198,0.089l-0.2,0.091l-0.207,0.096l-0.206,0.096l-0.209,0.099l-0.211,0.101l-0.208,0.101l-0.222,0.109l-0.219,0.108l-0.212,0.107l-0.225,0.115l-0.228,0.117l-0.221,0.115l-0.232,0.122l-0.232,0.124l-0.23,0.123l-0.24,0.131l-0.239,0.131l-0.234,0.13l-0.246,0.137l-0.248,0.14l-0.247,0.141l-0.249,0.144l-0.251,0.146l-0.259,0.152l-0.259,0.153l-0.257,0.153l-0.259,0.156l-0.265,0.161l-0.27,0.166l-0.272,0.168l-0.27,0.168l-0.27,0.169l-0.28,0.178l-0.28,0.178l-0.279,0.179l-0.284,0.184l-0.287,0.187l-0.292,0.192l-0.29,0.191l-0.293,0.196l-0.299,0.2l-0.298,0.201l-0.302,0.205l-0.304,0.208l-0.306,0.211l-0.311,0.215l-0.31,0.216l-0.311,0.218l-0.32,0.226l-0.322,0.228l-0.32,0.229l-0.323,0.232l-0.327,0.235l-0.331,0.24l-0.33,0.241l-0.335,0.247l-0.338,0.249l-0.341,0.253l-0.342,0.255l-0.345,0.258l-0.349,0.263l-0.35,0.265l-0.353,0.268l-0.354,0.27l-0.358,0.276l-0.363,0.279l-0.364,0.283l-0.364,0.283l-0.369,0.289l-0.374,0.293l-0.373,0.294l-0.377,0.299l-0.3,0.238l-0.304,0.283l-0.753,0.704l-0.764,0.718l-0.773,0.728l-0.785,0.743l-0.796,0.756l-0.804,0.767l-0.815,0.78l-0.825,0.791l-0.833,0.803l-0.843,0.814l-0.853,0.826l-0.86,0.837l-0.869,0.846l-0.878,0.858l-0.886,0.869l-0.893,0.877l-0.901,0.887l-0.909,0.898l-0.916,0.907l-0.924,0.916l-0.931,0.925l-0.937,0.933l-0.943,0.942l-0.95,0.95l-0.957,0.958l-0.963,0.967l-0.967,0.973l-0.975,0.982l-0.98,0.989l-0.983,0.995l-0.99,1.003l-0.996,1.009l-0.999,1.015l-1.004,1.022l-1.008,1.028l-1.013,1.034l-1.017,1.038l-1.02,1.045l-1.025,1.05l-1.027,1.055l-1.031,1.058l-1.034,1.065l-1.038,1.068l-1.039,1.072l-1.043,1.077l-1.045,1.08l-1.046,1.083l-1.05,1.088l-1.051,1.09l-1.052,1.092l-1.054,1.096l-1.056,1.098l-1.055,1.1l-2.118,2.208l-2.118,2.214l-2.12,2.22l-2.12,2.222l-2.118,2.225l-2.115,2.226l-2.111,2.224l-2.104,2.22l-2.097,2.217l-2.089,2.211l-2.079,2.202l-2.067,2.193l-2.054,2.183l-2.041,2.17l-2.024,2.156l-2.007,2.14l-1.99,2.123l-1.969,2.104l-1.948,2.083l-1.925,2.061l-1.901,2.037l-1.877,2.012l-1.849,1.985l-1.821,1.957l-1.792,1.926l-1.761,1.894l-1.728,1.861l-1.695,1.827l-1.66,1.79l-1.623,1.751l-1.584,1.711l-3.053,3.299l-2.884,3.119l-2.925,3.168l-1.622,1.622l-1.352,1.351l-1.31,1.308l-1.267,1.261l-0.62,0.616l-0.61,0.605l-0.601,0.595l-0.589,0.582l-0.581,0.572l-0.574,0.564l-0.563,0.551l-0.553,0.54l-0.546,0.531l-0.538,0.521l-0.531,0.512l-0.522,0.5l-0.514,0.491l-0.508,0.48l-0.5,0.471l-0.495,0.463l-0.49,0.455l-0.482,0.443l-0.478,0.436l-0.467,0.421l-0.241,0.215l-0.235,0.209l-0.234,0.207l-0.226,0.199l-0.238,0.208l-0.235,0.203l-0.225,0.194l-0.231,0.198l-0.232,0.197l-0.232,0.195l-0.229,0.191l-0.226,0.187l-0.23,0.189l-0.236,0.192l-0.228,0.183l-0.231,0.184l-0.236,0.186l-0.232,0.18l-0.241,0.186l-0.239,0.181l-0.237,0.178l-0.238,0.176l-0.244,0.178l-0.245,0.175l-0.254,0.18l-0.254,0.176l-0.25,0.17l-0.263,0.176l-0.268,0.176l-0.272,0.175l-0.271,0.17l-0.283,0.173l-0.288,0.173l-0.289,0.168l-0.308,0.174l-0.325,0.178l-0.323,0.171l-0.321,0.165l-0.343,0.169l-0.374,0.177l-0.371,0.167l-0.37,0.16l-0.415,0.17l-0.416,0.159l-0.437,0.158l-0.455,0.152l-0.476,0.149l-0.515,0.144l-0.522,0.132l-0.545,0.122l-0.574,0.111l-0.541,0.086l-0.398,0.054l-0.327,0.038l-0.293,0.029l-0.343,0.029l-0.394,0.024l-0.312,0.013l-0.365,0.01l-0.37,0l-0.332,-0.004l-0.432,-0.015l-0.39,-0.024l-0.349,-0.027l-0.404,-0.04l-0.406,-0.051l-0.416,-0.061l-0.418,-0.072l-0.364,-0.071l-0.427,-0.093l-0.478,-0.118l-0.425,-0.117l-0.377,-0.113l-0.425,-0.138l-0.433,-0.154l-0.422,-0.162l-0.43,-0.179l-0.416,-0.185l-0.413,-0.198l-0.418,-0.212l-0.39,-0.213l-0.355,-0.204l-0.401,-0.243l-0.418,-0.271l-0.371,-0.256l-0.34,-0.246l-0.354,-0.269l-0.362,-0.291l-0.333,-0.282l-0.306,-0.272l-0.312,-0.29l-0.289,-0.282l-0.291,-0.296l-0.279,-0.3l-0.269,-0.3l-0.29,-0.341l-0.227,-0.281l-0.224,-0.286l-0.232,-0.311l-0.2,-0.279l-0.217,-0.315l-0.197,-0.3l-0.176,-0.28l-0.169,-0.279l-0.17,-0.291l-0.181,-0.325l-0.134,-0.253l-0.163,-0.315l-0.248,-0.514l-0.235,-0.526l-0.211,-0.514l-0.189,-0.499l-0.172,-0.492l-0.151,-0.472l-0.134,-0.451l-0.119,-0.439l-0.11,-0.438l-0.095,-0.417l-0.084,-0.397l-0.078,-0.41l-0.065,-0.379l-0.059,-0.371l-0.052,-0.371l-0.046,-0.358l-0.039,-0.346l-0.035,-0.344l-0.03,-0.34l-0.025,-0.328l-0.021,-0.331l-0.018,-0.321l-0.014,-0.311l-0.011,-0.314l-0.008,-0.312l-0.006,-0.303l-0.003,-0.308l0,-0.3l0.001,-0.294l0.004,-0.298l0.006,-0.297l0.008,-0.297l0.009,-0.292l0.011,-0.292l0.013,-0.292l0.014,-0.287l0.016,-0.293l0.018,-0.294l0.018,-0.29l0.02,-0.291l0.022,-0.292l0.022,-0.294l0.024,-0.291l0.025,-0.296l0.027,-0.299l0.027,-0.293l0.028,-0.298l0.031,-0.303l0.03,-0.298l0.033,-0.312l0.066,-0.601l0.071,-0.617l0.074,-0.625l0.079,-0.633l0.082,-0.643l0.086,-0.65l0.09,-0.663l0.093,-0.672l0.096,-0.68l0.1,-0.692l0.103,-0.704l0.106,-0.715l0.109,-0.725l0.113,-0.739l0.115,-0.75l0.119,-0.762l0.121,-0.778l0.25,-1.581l0.261,-1.637l0.271,-1.69l0.571,-3.54l0.298,-1.852l0.306,-1.908l0.314,-1.963l0.32,-2.022l0.328,-2.081l0.333,-2.141l0.341,-2.201l0.346,-2.257l0.353,-2.312l0.358,-2.365l0.363,-2.417l0.368,-2.467l0.374,-2.514l0.377,-2.56l0.382,-2.605l0.386,-2.647l0.389,-2.687l0.393,-2.726l0.396,-2.764l0.399,-2.798l0.402,-2.832l0.404,-2.863l0.405,-2.893l0.408,-2.922l0.409,-2.947l0.411,-2.972l0.411,-2.994l0.412,-3.016l0.413,-3.035l0.412,-3.053l0.413,-3.067l0.412,-3.082l0.412,-3.094l0.41,-3.104l0.41,-3.112l0.408,-3.119l0.406,-3.125l0.405,-3.127l0.402,-3.129l0.399,-3.128l0.397,-3.126l0.394,-3.123l0.39,-3.117l0.387,-3.109l0.383,-3.099l0.379,-3.089l0.374,-3.076l0.37,-3.062l0.365,-3.047l0.18,-1.514l0.179,-1.51l0.178,-1.506l0.176,-1.501l0.175,-1.495l0.174,-1.49l0.172,-1.484l0.17,-1.478l0.169,-1.471l0.167,-1.464l0.166,-1.458l0.164,-1.451l0.162,-1.444l0.161,-1.436l0.158,-1.428l0.157,-1.421l0.155,-1.412l0.154,-1.404l0.151,-1.395l0.149,-1.387l0.148,-1.377l0.145,-1.368l0.143,-1.358l0.142,-1.35l0.139,-1.338l0.137,-1.329l0.134,-1.317l0.133,-1.308l0.13,-1.297l0.128,-1.284l0.126,-1.274l0.124,-1.262l0.121,-1.251l0.118,-1.238l0.116,-1.225l0.114,-1.214l0.111,-1.2l0.077,-0.842l0.037,-0.774l0.051,-1.109l0.05,-1.095l0.047,-1.08l0.046,-1.068l0.045,-1.054l0.042,-1.041l0.041,-1.027l0.039,-1.015l0.037,-1.001l0.036,-0.991l0.033,-0.976l0.032,-0.964l0.03,-0.952l0.029,-0.94l0.026,-0.929l0.025,-0.916l0.023,-0.904l0.021,-0.894l0.02,-0.882l0.017,-0.871l0.016,-0.859l0.014,-0.85l0.012,-0.838l0.011,-0.828l0.008,-0.818l0.007,-0.808l0.005,-0.797l0.003,-0.787l0.001,-0.777l0,-0.768l-0.003,-0.76l-0.004,-0.749l-0.006,-0.74l-0.007,-0.732l-0.01,-0.721l-0.011,-0.714l-0.014,-0.707l-0.015,-0.697l-0.016,-0.69l-0.019,-0.68l-0.021,-0.674l-0.022,-0.667l-0.024,-0.657l-0.026,-0.651l-0.027,-0.646l-0.03,-0.637l-0.031,-0.631l-0.033,-0.625l-0.035,-0.619l-0.036,-0.611l-0.039,-0.605l-0.04,-0.602l-0.042,-0.594l-0.044,-0.59l-0.045,-0.584l-0.048,-0.581l-0.049,-0.576l-0.051,-0.567l-0.053,-0.567l-0.054,-0.563l-0.057,-0.558l-0.058,-0.556l-0.06,-0.55l-0.062,-0.548l-0.064,-0.546l-0.066,-0.54l-0.067,-0.54l-0.07,-0.539l-0.072,-0.536l-0.073,-0.532l-0.075,-0.531l-0.077,-0.532l-0.079,-0.527l-0.081,-0.528l-0.084,-0.53l-0.085,-0.525l-0.087,-0.525l-0.089,-0.527l-0.092,-0.528l-0.093,-0.526l-0.096,-0.527l-0.098,-0.529l-0.1,-0.529l-0.102,-0.529l-0.105,-0.532l-0.106,-0.534l-0.109,-0.534l-0.111,-0.536l-0.114,-0.54l-0.116,-0.542l-0.119,-0.544l-0.121,-0.548l-0.122,-0.549l-0.126,-0.554l-0.128,-0.557l-0.131,-0.559l-0.133,-0.565l-0.135,-0.567l-0.139,-0.572l-0.141,-0.577l-0.143,-0.581l-0.146,-0.584l-0.148,-0.59l-0.152,-0.596l-0.154,-0.601l-0.156,-0.605l-0.159,-0.61l-0.162,-0.618l-0.165,-0.622l-0.167,-0.628l-0.17,-0.635l-0.173,-0.64l-0.176,-0.646l-0.178,-0.654l-0.181,-0.662l-0.184,-0.665l-0.187,-0.675l-0.189,-0.682l-0.191,-0.684l-0.394,-1.403l-0.405,-1.431l-0.415,-1.462l-0.384,-1.346l-0.394,-1.283l-0.45,-1.473l-0.458,-1.5l-0.463,-1.527l-0.47,-1.552l-0.474,-1.577l-0.481,-1.601l-0.485,-1.625l-0.49,-1.649l-0.494,-1.671l-0.499,-1.694l-0.503,-1.717l-0.506,-1.736l-0.51,-1.758l-0.514,-1.778l-0.516,-1.798l-0.518,-1.817l-0.521,-1.836l-0.523,-1.851l-0.263,-0.937l-0.263,-0.937l-0.263,-0.942l-0.263,-0.947l-0.264,-0.95l-0.264,-0.955l-0.265,-0.959l-0.264,-0.962l-0.265,-0.967l-0.265,-0.97l-0.265,-0.974l-0.266,-0.979l-0.265,-0.981l-0.265,-0.985l-0.265,-0.987l-0.266,-0.993l-0.265,-0.995l-0.265,-0.999l-0.265,-1.002l-0.265,-1.004l-0.265,-1.008l-0.264,-1.012l-0.264,-1.014l-0.264,-1.016l-0.264,-1.021l-0.263,-1.023l-0.262,-1.025l-0.263,-1.028l-0.261,-1.03l-0.262,-1.034l-0.261,-1.036l-0.26,-1.037l-0.259,-1.041l-0.26,-1.043l-0.258,-1.045l-0.257,-1.046l-0.257,-1.05l-0.257,-1.051l-0.255,-1.053l-0.254,-1.054l-0.254,-1.057l-0.253,-1.059l-0.252,-1.061l-0.25,-1.061l-0.25,-1.063l-0.249,-1.066l-0.248,-1.067l-0.246,-1.067l-0.246,-1.069l-0.244,-1.071l-0.243,-1.071l-0.242,-1.073l-0.241,-1.073l-0.24,-1.076l-0.237,-1.075l-0.237,-1.077l-0.235,-1.078l-0.234,-1.077l-0.233,-1.079l-0.231,-1.08l-0.229,-1.081l-0.228,-1.08l-0.226,-1.081l-0.224,-1.081l-0.223,-1.082l-0.221,-1.082l-0.22,-1.083l-0.218,-1.082l-0.215,-1.082l-0.215,-1.083l-0.212,-1.083l-0.21,-1.082l-0.208,-1.083l-0.207,-1.082l-0.204,-1.081l-0.202,-1.081l-0.201,-1.082l-0.198,-1.08l-0.196,-1.08l-0.194,-1.08l-0.191,-1.079l-0.19,-1.078l-0.187,-1.077l-0.185,-1.077l-0.182,-1.076l-0.18,-1.074l-0.178,-1.074l-0.175,-1.072l-0.173,-1.072l-0.169,-1.068l-0.167,-1.059l-0.164,-1.055l-0.163,-1.055l-0.161,-1.053l-0.159,-1.053l-0.158,-1.05l-0.155,-1.05l-0.155,-1.05l-0.152,-1.049l-0.15,-1.048l-0.149,-1.048l-0.147,-1.046l-0.144,-1.046l-0.143,-1.046l-0.142,-1.046l-0.139,-1.046l-0.137,-1.044l-0.136,-1.045l-0.133,-1.045l-0.132,-1.045l-0.129,-1.044l-0.128,-1.045l-0.125,-1.046l-0.124,-1.045l-0.121,-1.044l-0.12,-1.046l-0.117,-1.046l-0.115,-1.047l-0.113,-1.048l-0.111,-1.046l-0.109,-1.047l-0.107,-1.05l-0.104,-1.05l-0.103,-1.05l-0.1,-1.051l-0.098,-1.052l-0.095,-1.053l-0.094,-1.054l-0.091,-1.056l-0.089,-1.056l-0.086,-1.057l-0.085,-1.058l-0.082,-1.061l-0.079,-1.062l-0.077,-1.062l-0.075,-1.065l-0.073,-1.066l-0.07,-1.068l-0.068,-1.069l-0.065,-1.071l-0.063,-1.073l-0.06,-1.074l-0.058,-1.076l-0.055,-1.079l-0.053,-1.081l-0.05,-1.082l-0.048,-1.084l-0.045,-1.088l-0.043,-1.089l-0.04,-1.092l-0.037,-1.093l-0.035,-1.096l-0.032,-1.099l-0.03,-1.101l-0.027,-1.105l-0.024,-1.106l-0.022,-1.109l-0.019,-1.112l-0.016,-1.115l-0.014,-1.117l-0.01,-1.122l-0.008,-1.124l-0.005,-1.126l-0.003,-1.13l0,-1.134l0.004,-1.135l0.005,-1.14l0.009,-1.143l0.012,-1.146l0.014,-1.151l0.018,-1.152l0.02,-1.157l0.023,-1.161l0.026,-1.164l0.029,-1.169l0.031,-1.172l0.035,-1.176l0.038,-1.18l0.041,-1.184l0.043,-1.188l0.047,-1.192l0.049,-1.196l0.053,-1.201l0.056,-1.204l0.058,-1.209l0.062,-1.215l0.065,-1.218l0.068,-1.223l0.071,-1.227l0.074,-1.232l0.077,-1.238l0.08,-1.241l0.083,-1.246l0.087,-1.252l0.09,-1.256l0.093,-1.262l0.096,-1.267l0.099,-1.272l0.102,-1.277l0.106,-1.282l0.109,-1.288l0.112,-1.294l0.115,-1.298l0.119,-1.305l0.121,-1.31l0.126,-1.316l0.128,-1.321l0.132,-1.328l0.135,-1.334l0.138,-1.338l0.142,-1.346l0.145,-1.351l0.148,-1.357l0.152,-1.365l0.155,-1.37l0.159,-1.376l0.162,-1.382l0.202,-1.701l0.273,-1.699l0.225,-1.39l0.227,-1.397l0.23,-1.403l0.233,-1.41l0.235,-1.418l0.239,-1.423l0.241,-1.43l0.244,-1.436l0.246,-1.443l0.25,-1.449l0.253,-1.455l0.255,-1.46l0.259,-1.467l0.262,-1.473l0.264,-1.477l0.268,-1.485l0.271,-1.489l0.273,-1.495l0.278,-1.5l0.28,-1.505l0.283,-1.51l0.287,-1.516l0.29,-1.52l0.293,-1.526l0.296,-1.53l0.3,-1.534l0.303,-1.54l0.307,-1.544l0.31,-1.548l0.313,-1.553l0.317,-1.556l0.321,-1.562l0.324,-1.565l0.327,-1.568l0.331,-1.573l0.335,-1.577l0.339,-1.58l0.342,-1.584l0.346,-1.587l0.349,-1.591l0.354,-1.593l0.356,-1.594l0.181,-0.804l0.181,-0.8l0.182,-0.801l0.182,-0.802l0.184,-0.803l0.185,-0.804l0.186,-0.804l0.187,-0.804l0.188,-0.806l0.189,-0.807l0.189,-0.806l0.191,-0.808l0.192,-0.808l0.193,-0.809l0.193,-0.809l0.195,-0.811l0.196,-0.81l0.197,-0.811l0.198,-0.812l0.198,-0.812l0.2,-0.814l0.201,-0.813l0.202,-0.815l0.203,-0.814l0.204,-0.814l0.206,-0.817l0.206,-0.815l0.207,-0.817l0.208,-0.817l0.21,-0.818l0.21,-0.817l0.211,-0.818l0.213,-0.82l0.214,-0.818l0.214,-0.82l0.216,-0.819l0.217,-0.82l0.218,-0.822l0.219,-0.821l0.22,-0.821l0.222,-0.822l0.222,-0.822l0.223,-0.821l0.225,-0.823l0.226,-0.823l0.226,-0.823l0.229,-0.824l0.228,-0.823l0.231,-0.825l0.232,-0.824l0.232,-0.823l0.233,-0.825l0.235,-0.824l0.236,-0.825l0.237,-0.825l0.239,-0.825l0.239,-0.826l0.241,-0.825l0.242,-0.825l0.243,-0.827l0.244,-0.825l0.245,-0.826l0.247,-0.826l0.247,-0.825l0.249,-0.828l0.251,-0.826l0.251,-0.825l0.252,-0.826l0.254,-0.827l0.255,-0.826l0.256,-0.826l0.258,-0.827l0.258,-0.825l0.26,-0.826l0.261,-0.826l0.262,-0.826l0.264,-0.827l0.265,-0.825l0.266,-0.825l0.267,-0.826l0.269,-0.826l0.27,-0.824l0.271,-0.826l0.273,-0.826l0.273,-0.823l0.275,-0.825l0.276,-0.825l0.278,-0.824l0.279,-0.824l0.28,-0.824l0.281,-0.823l0.283,-0.824l0.284,-0.822l0.285,-0.824l0.287,-0.822l0.288,-0.822l0.289,-0.823l0.291,-0.821l0.291,-0.82l0.294,-0.822l0.295,-0.821l0.295,-0.819l0.298,-0.82l0.299,-0.821l0.3,-0.818l0.301,-0.818l0.303,-0.819l0.304,-0.818l0.306,-0.817l0.307,-0.817l0.308,-0.816l0.309,-0.816l0.311,-0.816l0.313,-0.815l0.314,-0.815l0.315,-0.814l0.317,-0.813l0.318,-0.813l0.319,-0.813l0.321,-0.811l0.322,-0.81l0.324,-0.813l0.326,-0.81l0.326,-0.808l0.328,-0.809l0.33,-0.809l0.331,-0.807l0.333,-0.808l0.334,-0.806l0.334,-0.804l0.337,-0.806l0.339,-0.805l0.34,-0.803l0.341,-0.802l0.343,-0.802l0.344,-0.802l0.346,-0.801l0.347,-0.798l0.349,-0.8l0.35,-0.799l0.352,-0.797l0.354,-0.797l0.354,-0.795l0.356,-0.795l0.359,-0.795l0.359,-0.793l0.361,-0.791l0.363,-0.793l0.364,-0.792l0.365,-0.788l0.367,-0.788l0.369,-0.789l0.371,-0.787l0.372,-0.786l0.373,-0.785l0.376,-0.785l0.376,-0.782l0.378,-0.783l0.38,-0.78l0.382,-0.781l0.383,-0.779l0.384,-0.778l0.387,-0.777l0.388,-0.777l0.389,-0.774l0.391,-0.773l0.394,-0.774l0.394,-0.771l0.397,-0.771l0.343,-0.665l0.348,-0.692l0.402,-0.798l0.405,-0.796l0.407,-0.797l0.409,-0.794l0.411,-0.793l0.412,-0.791l0.415,-0.789l0.417,-0.79l0.419,-0.788l0.42,-0.786l0.423,-0.785l0.426,-0.784l0.426,-0.781l0.429,-0.78l0.431,-0.78l0.433,-0.778l0.436,-0.777l0.438,-0.775l0.439,-0.774l0.442,-0.772l0.444,-0.772l0.446,-0.77l0.448,-0.767l0.45,-0.767l0.454,-0.766l0.455,-0.764l0.456,-0.762l0.46,-0.762l0.462,-0.76l0.464,-0.759l0.466,-0.757l0.468,-0.755l0.471,-0.754l0.473,-0.752l0.476,-0.752l0.478,-0.75l0.48,-0.748l0.482,-0.747l0.485,-0.745l0.487,-0.744l0.49,-0.743l0.492,-0.74l0.494,-0.74l0.497,-0.738l0.5,-0.736l0.502,-0.735l0.504,-0.735l0.507,-0.731l0.509,-0.73l0.512,-0.73l0.514,-0.727l0.516,-0.725l0.52,-0.725l0.522,-0.724l0.524,-0.721l0.527,-0.719l0.53,-0.719l0.532,-0.717l0.534,-0.714l0.537,-0.714l0.54,-0.712l0.543,-0.71l0.545,-0.709l0.548,-0.707l0.55,-0.705l0.553,-0.704l0.556,-0.703l0.558,-0.701l0.561,-0.699l0.565,-0.698l0.566,-0.696l0.569,-0.694l0.572,-0.693l0.575,-0.69l0.577,-0.69l0.581,-0.688l0.582,-0.686l0.581,-0.679l0.3,-0.348l0.293,-0.339l0.295,-0.341l0.297,-0.341l0.297,-0.34l0.297,-0.339l0.299,-0.34l0.299,-0.34l0.298,-0.336l0.3,-0.338l0.303,-0.339l0.3,-0.335l0.302,-0.336l0.305,-0.338l0.304,-0.337l0.304,-0.334l0.304,-0.333l0.306,-0.335l0.307,-0.335l0.308,-0.334l0.309,-0.333l0.308,-0.332l0.309,-0.332l0.31,-0.332l0.313,-0.333l0.311,-0.33l0.311,-0.33l0.315,-0.331l0.314,-0.33l0.313,-0.328l0.315,-0.328l0.316,-0.328l0.319,-0.331l0.318,-0.327l0.316,-0.325l0.32,-0.328l0.321,-0.327l0.319,-0.324l0.321,-0.326l0.322,-0.324l0.324,-0.326l0.322,-0.322l0.325,-0.325l0.326,-0.324l0.324,-0.321l0.328,-0.323l0.327,-0.322l0.327,-0.321l0.329,-0.32l0.33,-0.321l0.331,-0.321l0.33,-0.319l0.331,-0.318l0.334,-0.32l0.333,-0.318l0.333,-0.316l0.335,-0.318l0.337,-0.319l0.335,-0.314l0.336,-0.315l0.34,-0.318l0.339,-0.316l0.337,-0.311l0.34,-0.315l0.342,-0.315l0.342,-0.313l0.343,-0.313l0.343,-0.313l0.343,-0.311l0.344,-0.31l0.347,-0.312l0.347,-0.312l0.346,-0.308l0.348,-0.31l0.349,-0.309l0.348,-0.308l0.351,-0.309l0.351,-0.307l0.353,-0.309l0.352,-0.306l0.352,-0.305l0.355,-0.307l0.354,-0.305l0.356,-0.305l0.356,-0.304l0.357,-0.304l0.359,-0.304l0.359,-0.303l0.359,-0.302l0.361,-0.303l0.361,-0.301l0.36,-0.3l0.364,-0.301l0.365,-0.302l0.364,-0.299l0.364,-0.299l0.368,-0.3l0.365,-0.297l0.367,-0.297l0.368,-0.298l0.37,-0.297l0.371,-0.298l0.372,-0.296l0.369,-0.294l0.373,-0.295l0.374,-0.296l0.373,-0.293l0.375,-0.293l0.376,-0.294l0.377,-0.293l0.376,-0.291l0.378,-0.291l0.38,-0.293l0.38,-0.29l0.38,-0.29l0.38,-0.289l0.382,-0.289l0.384,-0.29l0.384,-0.288l0.385,-0.289l0.385,-0.287l0.386,-0.286l0.387,-0.286l0.388,-0.286l0.388,-0.285l0.39,-0.286l0.39,-0.284l0.391,-0.284l0.393,-0.283l0.392,-0.283l0.395,-0.283l0.393,-0.282l0.396,-0.282l0.397,-0.281l0.396,-0.28l0.398,-0.28l0.399,-0.279l0.399,-0.28l0.4,-0.278l0.402,-0.278l0.402,-0.278l0.402,-0.276l0.405,-0.278l0.404,-0.276l0.405,-0.275l0.407,-0.276l0.406,-0.274l0.408,-0.274l0.41,-0.274l0.41,-0.274l0.41,-0.272l0.411,-0.272l0.412,-0.271l0.413,-0.272l0.415,-0.271l0.415,-0.27l0.414,-0.269l0.417,-0.27l0.417,-0.268l0.417,-0.268l0.42,-0.268l0.421,-0.268l0.42,-0.266l0.422,-0.267l0.423,-0.266l0.423,-0.265l0.424,-0.264l0.425,-0.265l0.425,-0.262l0.426,-0.263l0.43,-0.264l0.429,-0.263l0.429,-0.261l0.43,-0.261l0.431,-0.261l0.432,-0.26l0.433,-0.26l0.433,-0.259l0.436,-0.259l0.436,-0.259l0.435,-0.257l0.438,-0.258l0.438,-0.256l0.439,-0.256l0.44,-0.256l0.442,-0.256l0.441,-0.254l0.441,-0.254l0.445,-0.254l0.443,-0.252l0.447,-0.254l0.446,-0.252l0.445,-0.251l0.45,-0.252l0.45,-0.251l0.448,-0.249l0.449,-0.249l0.453,-0.25l0.453,-0.25l0.453,-0.247l0.454,-0.248l0.456,-0.248l0.456,-0.246l0.456,-0.245l0.457,-0.246l0.459,-0.245l0.46,-0.245l0.462,-0.245l0.461,-0.243l0.461,-0.243l0.465,-0.243l0.463,-0.242l0.465,-0.241l0.467,-0.242l0.465,-0.239l0.468,-0.241l0.47,-0.24l0.469,-0.238l0.47,-0.239l0.472,-0.238l0.474,-0.238l0.472,-0.237l0.474,-0.236l0.476,-0.236l0.476,-0.236l0.476,-0.234l0.479,-0.235l0.478,-0.234l0.479,-0.233l0.482,-0.233l0.483,-0.233l0.481,-0.232l0.483,-0.231l0.485,-0.231l0.485,-0.23l0.488,-0.23l0.486,-0.229l0.487,-0.229l0.491,-0.229l0.491,-0.228l0.49,-0.227l0.491,-0.226l0.493,-0.227l0.494,-0.225l0.495,-0.226l0.497,-0.225l0.495,-0.224l0.498,-0.223l0.499,-0.224l0.499,-0.222l0.5,-0.222l0.501,-0.222l0.504,-0.222l0.504,-0.221l0.503,-0.219l0.505,-0.22l0.507,-0.219l0.507,-0.219l0.507,-0.217l0.511,-0.219l0.509,-0.216l0.51,-0.217l0.513,-0.216l0.512,-0.215l0.515,-0.216l0.516,-0.215l0.516,-0.214l0.516,-0.213l0.517,-0.212l0.519,-0.213l0.519,-0.212l0.522,-0.211l0.522,-0.212l0.522,-0.21l0.523,-0.209l0.525,-0.21l0.526,-0.209l0.526,-0.208l0.528,-0.208l0.529,-0.208l0.529,-0.206l0.531,-0.207l0.532,-0.206l0.532,-0.205l0.532,-0.204l0.535,-0.204l0.537,-0.205l0.535,-0.202l0.538,-0.203l0.539,-0.203l0.54,-0.201l0.54,-0.201l0.541,-0.201l0.543,-0.2l0.544,-0.2l0.544,-0.199l0.546,-0.199l0.546,-0.197l0.547,-0.198l0.549,-0.197l0.55,-0.197l0.551,-0.196l0.55,-0.195l0.554,-0.195l0.553,-0.194l0.554,-0.194l0.556,-0.194l0.555,-0.192l0.558,-0.193l0.56,-0.192l0.56,-0.192l0.561,-0.191l0.561,-0.189l0.563,-0.191l0.563,-0.188l0.565,-0.189l0.567,-0.189l0.566,-0.188l0.569,-0.187l0.568,-0.187l0.57,-0.186l0.572,-0.186l0.57,-0.184l0.574,-0.185l0.575,-0.185l0.573,-0.183l0.579,-0.184l0.577,-0.182l0.576,-0.182l0.58,-0.181l0.582,-0.182l0.58,-0.18l0.583,-0.18l0.584,-0.18l0.583,-0.179l0.588,-0.179l0.587,-0.178l0.585,-0.176l0.589,-0.177l0.592,-0.177l0.591,-0.176l0.591,-0.175l0.593,-0.175l0.594,-0.175l0.595,-0.173l0.596,-0.174l0.598,-0.173l0.598,-0.172l0.6,-0.172l0.601,-0.171l0.602,-0.171l0.601,-0.17l0.605,-0.17l0.487,-0.136l0.502,-0.148l0.622,-0.183l0.623,-0.181l0.624,-0.182l0.625,-0.18l0.625,-0.18l0.625,-0.179l0.629,-0.179l0.629,-0.178l0.63,-0.178l0.631,-0.178l0.631,-0.176l0.631,-0.175l0.635,-0.176l0.635,-0.175l0.636,-0.174l0.636,-0.173l0.636,-0.173l0.641,-0.173l0.638,-0.172l0.64,-0.171l0.642,-0.171l0.643,-0.17l0.642,-0.17l0.644,-0.169l0.647,-0.169l0.646,-0.167l0.646,-0.168l0.648,-0.167l0.654,-0.167l1.296,-0.33l1.304,-0.328l1.307,-0.326l1.312,-0.325l1.316,-0.322l1.318,-0.319l1.323,-0.318l1.326,-0.315l1.329,-0.313l1.332,-0.311l1.337,-0.309l1.34,-0.306l1.343,-0.305l1.346,-0.302l1.35,-0.3l1.353,-0.298l1.356,-0.296l1.36,-0.293l1.363,-0.292l1.366,-0.289l1.369,-0.287l1.372,-0.286l1.376,-0.283l1.378,-0.28l1.382,-0.279l1.384,-0.277l1.387,-0.274l1.391,-0.273l1.394,-0.27l1.396,-0.269l1.399,-0.266l1.403,-0.264l1.405,-0.263l1.407,-0.259l1.41,-0.259l1.414,-0.256l1.416,-0.254l1.419,-0.252l1.421,-0.249l1.424,-0.248l1.426,-0.246l1.429,-0.244l1.432,-0.242l1.434,-0.24l1.437,-0.237l1.439,-0.236l1.441,-0.234l1.444,-0.232l1.447,-0.23l1.449,-0.227l1.45,-0.226l1.453,-0.224l1.456,-0.222l1.458,-0.22l1.459,-0.218l1.463,-0.216l1.464,-0.214l1.466,-0.212l1.469,-0.21l1.471,-0.209l1.472,-0.206l1.474,-0.204l1.477,-0.203l1.478,-0.2l1.481,-0.199l1.482,-0.197l1.483,-0.194l1.486,-0.193l1.489,-0.191l1.489,-0.189l1.491,-0.188l1.493,-0.185l1.494,-0.183l1.496,-0.182l1.498,-0.18l1.5,-0.177l1.5,-0.176l1.503,-0.174l1.504,-0.172l1.505,-0.171l1.507,-0.168l1.509,-0.167l1.509,-0.165l1.511,-0.163l1.513,-0.161l1.513,-0.159l1.515,-0.158l1.517,-0.155l1.516,-0.154l1.519,-0.152l1.52,-0.15l1.52,-0.148l1.522,-0.147l1.523,-0.145l1.524,-0.143l1.525,-0.141l1.526,-0.139l1.527,-0.138l1.528,-0.135l1.528,-0.134l1.53,-0.133l1.53,-0.13l1.531,-0.129l1.532,-0.127l1.533,-0.125l1.533,-0.123l1.534,-0.122l1.535,-0.12l1.535,-0.118l1.536,-0.116l1.536,-0.115l1.537,-0.113l1.538,-0.111l1.537,-0.11l1.539,-0.107l1.539,-0.106l1.538,-0.105l1.539,-0.102l1.541,-0.101l1.54,-0.099l1.54,-0.098l1.541,-0.095l1.54,-0.095l1.541,-0.092l1.541,-0.091l1.541,-0.089l1.542,-0.087l1.541,-0.085l1.541,-0.084l1.541,-0.083l1.542,-0.08l1.541,-0.079l1.541,-0.078l1.541,-0.075l1.541,-0.074l1.54,-0.072l1.54,-0.071l1.541,-0.069l1.539,-0.068l1.539,-0.065l1.54,-0.065l1.539,-0.062l1.538,-0.061l1.538,-0.059l1.538,-0.058l1.537,-0.056l1.536,-0.054l1.536,-0.053l1.536,-0.051l1.535,-0.05l1.534,-0.048l1.533,-0.046l1.533,-0.045l1.533,-0.043l1.53,-0.042l1.531,-0.04l1.53,-0.038l1.529,-0.037l1.527,-0.036l1.527,-0.033l1.527,-0.033l1.525,-0.03l1.524,-0.029l1.524,-0.028l1.522,-0.026l1.52,-0.024l1.52,-0.023l1.519,-0.021l1.517,-0.02l1.517,-0.019l1.515,-0.016l1.514,-0.016l1.513,-0.013l1.511,-0.012l1.509,-0.011l1.509,-0.009l1.507,-0.008l1.506,-0.006l1.505,-0.005l1.502,-0.003l1.501,-0.001l1.5,-0.001l1.498,0.002ZM544.585,1347.32l0.323,0.006l0.322,0.008l0.331,0.01l0.322,0.012l0.322,0.014l0.314,0.015l0.321,0.018l0.322,0.019l0.321,0.021l0.313,0.023l0.312,0.024l0.321,0.027l0.312,0.027l0.312,0.03l0.311,0.031l0.311,0.032l0.311,0.035l0.302,0.035l0.31,0.037l0.303,0.038l0.301,0.039l0.31,0.042l0.301,0.042l0.301,0.044l0.299,0.045l0.301,0.047l0.3,0.047l0.292,0.048l0.291,0.049l0.299,0.052l0.299,0.053l0.291,0.052l0.29,0.054l0.29,0.055l0.282,0.054l0.299,0.059l0.29,0.059l0.281,0.057l0.281,0.059l0.282,0.059l0.289,0.063l0.299,0.065l0.548,0.123l0.558,0.128l0.558,0.132l0.551,0.133l0.551,0.136l0.551,0.14l0.544,0.14l0.541,0.141l0.543,0.144l0.54,0.146l0.537,0.146l0.535,0.148l0.533,0.149l0.535,0.15l0.533,0.151l0.533,0.152l0.534,0.154l1.057,0.306l1.063,0.309l1.064,0.31l1.07,0.311l1.078,0.312l0.537,0.155l0.544,0.156l0.543,0.155l0.548,0.154l0.55,0.155l0.549,0.153l0.557,0.154l0.392,0.108l0.443,0.11l0.614,0.15l0.623,0.151l0.627,0.15l0.632,0.149l0.637,0.149l0.64,0.147l0.65,0.147l0.657,0.147l0.66,0.147l0.665,0.145l0.671,0.145l0.675,0.144l0.684,0.144l0.688,0.143l0.69,0.142l0.701,0.142l0.704,0.141l0.709,0.14l0.715,0.14l0.72,0.139l0.725,0.139l0.73,0.137l0.736,0.137l0.741,0.137l0.746,0.135l0.751,0.135l0.756,0.134l0.762,0.134l0.769,0.133l0.769,0.132l0.777,0.131l0.785,0.131l0.784,0.13l0.792,0.129l0.797,0.128l0.802,0.128l0.809,0.127l0.812,0.127l0.814,0.125l0.822,0.124l0.829,0.125l0.831,0.123l0.834,0.122l0.841,0.122l0.848,0.121l0.851,0.12l0.853,0.119l0.86,0.119l0.867,0.118l0.87,0.117l0.874,0.116l0.879,0.116l0.882,0.114l0.89,0.114l0.893,0.114l0.895,0.112l0.905,0.111l0.907,0.111l0.911,0.11l0.915,0.11l0.921,0.108l0.925,0.108l0.929,0.107l0.934,0.106l0.938,0.105l0.943,0.104l0.947,0.104l0.951,0.103l0.956,0.102l0.96,0.101l0.965,0.101l0.971,0.1l0.971,0.098l0.978,0.098l0.984,0.098l0.984,0.096l0.99,0.096l0.995,0.094l0.999,0.094l1.005,0.094l1.007,0.092l1.009,0.091l1.016,0.091l1.022,0.09l1.024,0.089l1.026,0.089l1.032,0.087l1.038,0.087l1.04,0.086l1.043,0.084l1.05,0.085l1.052,0.083l1.055,0.082l1.062,0.082l1.064,0.081l1.069,0.08l1.072,0.08l1.074,0.078l1.082,0.077l1.084,0.077l1.087,0.076l1.093,0.075l1.096,0.075l1.099,0.073l1.103,0.073l1.108,0.071l1.11,0.071l1.115,0.071l1.119,0.069l1.122,0.068l1.127,0.068l1.129,0.067l1.133,0.066l1.139,0.065l1.139,0.064l1.144,0.064l1.148,0.063l1.152,0.061l1.155,0.061l1.159,0.06l1.164,0.06l1.167,0.058l1.168,0.058l1.173,0.057l1.178,0.056l1.181,0.055l0.813,0.037l0.814,0l1.181,-0.003l1.184,-0.004l1.189,-0.006l1.192,-0.008l1.197,-0.009l1.199,-0.011l1.201,-0.013l1.208,-0.015l1.211,-0.016l1.215,-0.019l1.219,-0.019l1.222,-0.023l1.228,-0.023l1.231,-0.026l1.237,-0.027l1.24,-0.03l1.244,-0.031l1.251,-0.033l1.252,-0.035l1.259,-0.037l1.263,-0.039l1.267,-0.041l1.274,-0.043l1.277,-0.045l1.282,-0.047l1.287,-0.049l1.292,-0.051l1.299,-0.053l1.303,-0.055l1.307,-0.057l1.314,-0.059l1.318,-0.062l1.324,-0.063l1.331,-0.066l1.335,-0.067l1.341,-0.07l1.346,-0.072l1.353,-0.075l1.358,-0.076l1.363,-0.078l1.371,-0.081l1.377,-0.083l1.38,-0.086l1.388,-0.087l1.396,-0.09l1.4,-0.092l1.407,-0.095l1.414,-0.097l1.419,-0.099l1.425,-0.101l1.434,-0.104l1.44,-0.106l1.445,-0.109l1.452,-0.111l1.461,-0.113l1.467,-0.116l1.474,-0.118l1.479,-0.121l1.487,-0.123l1.495,-0.126l1.503,-0.128l1.508,-0.131l1.515,-0.133l1.524,-0.136l1.532,-0.138l1.539,-0.141l1.545,-0.144l1.554,-0.146l1.56,-0.148l1.569,-0.152l1.577,-0.154l1.585,-0.156l1.592,-0.16l1.601,-0.162l1.608,-0.164l1.617,-0.167l1.624,-0.17l1.632,-0.173l1.642,-0.176l1.649,-0.178l1.658,-0.181l1.667,-0.184l1.675,-0.187l1.682,-0.189l1.692,-0.192l1.701,-0.195l1.709,-0.198l1.717,-0.201l1.727,-0.204l1.737,-0.207l1.744,-0.209l1.754,-0.213l1.763,-0.215l1.773,-0.219l1.781,-0.221l1.789,-0.224l1.801,-0.228l1.81,-0.23l1.817,-0.233l1.829,-0.237l1.838,-0.239l1.847,-0.242l1.857,-0.246l1.867,-0.249l1.878,-0.251l1.886,-0.255l1.896,-0.258l1.907,-0.261l1.917,-0.264l1.925,-0.268l1.938,-0.271l1.947,-0.273l1.957,-0.277l1.967,-0.281l1.979,-0.283l1.989,-0.287l1.998,-0.29l2.01,-0.293l2.021,-0.297l2.03,-0.3l2.043,-0.303l2.052,-0.306l2.063,-0.31l2.074,-0.313l2.085,-0.317l2.097,-0.32l2.078,-0.319l2.038,-0.322l2.083,-0.33l2.093,-0.332l2.103,-0.336l2.114,-0.338l2.123,-0.341l2.133,-0.343l2.143,-0.347l2.152,-0.35l2.161,-0.353l2.17,-0.357l2.179,-0.359l2.187,-0.363l2.194,-0.367l2.203,-0.371l2.211,-0.374l2.219,-0.378l2.225,-0.381l2.232,-0.386l2.242,-0.39l1.12,-0.196l1.124,-0.198l1.123,-0.198l1.127,-0.2l1.13,-0.201l1.129,-0.201l1.13,-0.203l1.135,-0.204l1.133,-0.205l1.135,-0.206l1.138,-0.208l1.138,-0.208l1.137,-0.21l1.141,-0.211l1.144,-0.212l1.143,-0.213l1.145,-0.214l1.144,-0.216l1.146,-0.216l1.148,-0.219l1.149,-0.219l1.15,-0.22l1.15,-0.222l1.152,-0.223l1.152,-0.225l1.155,-0.226l1.153,-0.226l1.156,-0.229l1.157,-0.229l1.155,-0.231l1.159,-0.232l1.157,-0.234l1.16,-0.235l1.159,-0.236l1.16,-0.238l1.162,-0.239l1.161,-0.24l1.162,-0.242l1.162,-0.243l1.165,-0.246l1.164,-0.246l1.162,-0.247l1.165,-0.25l1.166,-0.25l1.164,-0.252l1.165,-0.254l1.166,-0.255l1.166,-0.257l1.167,-0.258l1.166,-0.259l1.166,-0.261l1.167,-0.263l1.167,-0.265l1.168,-0.266l1.167,-0.267l1.166,-0.269l1.167,-0.271l1.167,-0.272l1.168,-0.274l1.167,-0.276l1.166,-0.277l1.166,-0.279l1.167,-0.28l1.165,-0.282l1.167,-0.285l1.165,-0.285l1.164,-0.287l1.167,-0.289l1.165,-0.291l1.163,-0.292l1.164,-0.295l1.163,-0.295l1.162,-0.298l1.164,-0.3l1.162,-0.301l1.161,-0.303l1.16,-0.304l1.159,-0.307l1.16,-0.309l1.159,-0.31l1.157,-0.312l1.157,-0.314l1.157,-0.316l1.156,-0.317l1.153,-0.319l1.154,-0.322l1.153,-0.323l1.152,-0.325l1.15,-0.327l1.151,-0.33l1.15,-0.331l1.147,-0.333l1.146,-0.334l1.145,-0.337l1.145,-0.338l1.144,-0.341l1.142,-0.343l1.14,-0.344l1.139,-0.347l1.139,-0.349l1.136,-0.35l1.135,-0.353l1.136,-0.355l1.132,-0.357l1.132,-0.358l1.13,-0.361l1.126,-0.363l1.127,-0.365l1.126,-0.367l1.123,-0.369l1.123,-0.372l1.119,-0.373l1.118,-0.375l1.118,-0.378l1.115,-0.38l1.112,-0.381l1.112,-0.385l1.111,-0.386l1.106,-0.388l1.105,-0.391l1.106,-0.393l1.101,-0.395l1.099,-0.397l1.098,-0.399l1.095,-0.401l1.095,-0.405l1.091,-0.405l1.09,-0.409l1.089,-0.411l0.538,-0.204l0.545,-0.208l0.543,-0.208l0.538,-0.206l0.54,-0.209l0.543,-0.21l0.536,-0.208l0.539,-0.21l0.54,-0.211l0.535,-0.21l0.54,-0.214l0.538,-0.212l0.532,-0.212l0.537,-0.214l0.534,-0.214l0.532,-0.214l0.535,-0.216l0.533,-0.215l0.532,-0.217l0.533,-0.217l0.529,-0.217l0.53,-0.218l0.531,-0.219l0.528,-0.219l0.528,-0.22l0.529,-0.221l0.524,-0.22l0.528,-0.222l0.526,-0.223l0.524,-0.222l0.525,-0.224l0.522,-0.223l0.524,-0.225l0.524,-0.226l0.521,-0.226l0.521,-0.226l0.519,-0.226l0.521,-0.229l0.516,-0.226l0.521,-0.231l0.519,-0.229l0.512,-0.228l0.517,-0.232l0.517,-0.232l0.513,-0.23l0.516,-0.234l0.515,-0.233l0.511,-0.234l0.51,-0.233l0.509,-0.234l0.51,-0.235l0.512,-0.237l0.51,-0.237l0.506,-0.237l0.507,-0.237l0.508,-0.24l0.505,-0.238l0.504,-0.24l0.505,-0.241l0.504,-0.24l0.501,-0.241l0.501,-0.242l0.5,-0.242l0.502,-0.245l0.499,-0.243l0.497,-0.245l0.5,-0.246l0.498,-0.246l0.496,-0.246l0.493,-0.246l0.494,-0.248l0.494,-0.248l0.495,-0.25l0.492,-0.249l0.491,-0.251l0.49,-0.25l0.489,-0.251l0.488,-0.252l0.488,-0.253l0.489,-0.254l0.484,-0.253l0.484,-0.254l0.487,-0.257l0.482,-0.254l0.482,-0.257l0.485,-0.258l0.48,-0.258l0.477,-0.256l0.48,-0.26l0.482,-0.261l0.475,-0.259l0.474,-0.26l0.48,-0.264l0.473,-0.261l0.472,-0.262l0.475,-0.264l0.472,-0.264l0.471,-0.265l0.469,-0.265l0.468,-0.265l0.469,-0.267l0.467,-0.268l0.467,-0.268l0.468,-0.27l0.464,-0.268l0.461,-0.269l0.464,-0.271l0.461,-0.271l0.46,-0.271l0.461,-0.274l0.458,-0.272l0.458,-0.274l0.455,-0.273l0.457,-0.276l0.457,-0.277l0.453,-0.275l0.453,-0.277l0.452,-0.278l0.451,-0.278l0.449,-0.279l0.448,-0.279l0.448,-0.28l0.449,-0.283l0.447,-0.281l0.443,-0.281l0.444,-0.283l0.443,-0.284l0.443,-0.285l0.439,-0.283l0.441,-0.286l0.44,-0.287l0.433,-0.284l0.44,-0.29l0.437,-0.288l0.433,-0.288l0.435,-0.291l0.43,-0.288l0.431,-0.29l0.433,-0.294l0.429,-0.291l0.426,-0.291l0.429,-0.295l0.428,-0.295l0.423,-0.293l0.423,-0.295l0.423,-0.296l0.424,-0.299l0.423,-0.298l0.416,-0.295l0.417,-0.298l0.419,-0.301l0.417,-0.3l0.414,-0.3l0.415,-0.302l0.413,-0.302l0.411,-0.302l0.412,-0.304l0.41,-0.305l0.408,-0.304l0.408,-0.306l0.406,-0.305l0.404,-0.306l0.404,-0.307l0.404,-0.31l0.403,-0.309l0.4,-0.309l0.4,-0.31l0.398,-0.311l0.396,-0.311l0.396,-0.312l0.395,-0.313l0.394,-0.313l0.392,-0.314l0.392,-0.315l0.392,-0.317l0.388,-0.315l0.386,-0.316l0.39,-0.32l0.386,-0.319l0.385,-0.319l0.384,-0.32l0.381,-0.32l0.383,-0.322l0.381,-0.322l0.381,-0.324l0.38,-0.326l0.378,-0.324l0.377,-0.326l0.375,-0.325l0.376,-0.329l0.374,-0.328l0.372,-0.327l0.372,-0.33l0.372,-0.331l0.37,-0.331l0.369,-0.332l0.368,-0.332l0.367,-0.333l0.366,-0.334l0.367,-0.336l0.363,-0.335l0.362,-0.335l0.363,-0.338l0.363,-0.339l0.361,-0.339l0.357,-0.338l0.359,-0.34l0.357,-0.341l0.357,-0.342l0.355,-0.341l0.354,-0.343l0.354,-0.344l0.354,-0.346l0.352,-0.346l0.348,-0.343l0.351,-0.348l0.35,-0.348l0.347,-0.348l0.346,-0.348l0.346,-0.349l0.346,-0.351l0.344,-0.352l0.343,-0.351l0.341,-0.351l0.342,-0.354l0.34,-0.353l0.34,-0.356l0.34,-0.356l0.336,-0.355l0.337,-0.357l0.336,-0.357l0.333,-0.357l0.334,-0.359l0.334,-0.36l0.332,-0.361l0.331,-0.36l0.33,-0.362l0.331,-0.364l0.327,-0.361l0.325,-0.362l0.328,-0.366l0.328,-0.367l0.323,-0.364l0.323,-0.365l0.323,-0.368l0.322,-0.367l0.322,-0.37l0.32,-0.369l0.32,-0.371l0.317,-0.368l0.317,-0.371l0.318,-0.373l0.316,-0.373l0.315,-0.372l0.312,-0.372l0.314,-0.376l0.314,-0.377l0.311,-0.376l0.309,-0.374l0.31,-0.378l0.309,-0.377l0.307,-0.379l0.308,-0.379l0.305,-0.38l0.305,-0.38l0.304,-0.38l0.304,-0.382l0.303,-0.383l0.301,-0.383l0.301,-0.383l0.3,-0.384l0.299,-0.385l0.297,-0.384l0.299,-0.389l0.297,-0.386l0.293,-0.384l0.296,-0.39l0.294,-0.389l0.292,-0.388l0.294,-0.392l0.292,-0.391l0.29,-0.39l0.289,-0.391l0.288,-0.391l0.29,-0.396l0.287,-0.393l0.285,-0.392l0.286,-0.397l0.285,-0.395l0.283,-0.396l0.283,-0.395l0.281,-0.396l0.282,-0.4l0.282,-0.4l0.279,-0.397l0.278,-0.398l0.279,-0.402l0.276,-0.4l0.275,-0.4l0.277,-0.404l0.276,-0.404l0.273,-0.402l0.272,-0.402l0.273,-0.406l0.271,-0.403l0.271,-0.406l0.27,-0.407l0.269,-0.406l0.267,-0.406l0.268,-0.408l0.267,-0.409l0.264,-0.407l0.266,-0.411l0.265,-0.411l0.262,-0.409l0.263,-0.411l0.262,-0.413l0.26,-0.41l0.261,-0.414l0.259,-0.414l0.258,-0.412l0.258,-0.416l0.257,-0.414l0.255,-0.413l0.256,-0.418l0.254,-0.417l0.254,-0.417l0.253,-0.418l0.252,-0.417l0.251,-0.419l0.253,-0.421l0.248,-0.418l0.247,-0.418l0.25,-0.423l0.248,-0.422l0.247,-0.422l0.246,-0.422l0.244,-0.421l0.244,-0.423l0.244,-0.424l0.242,-0.424l0.244,-0.428l0.24,-0.423l0.24,-0.425l0.242,-0.43l0.237,-0.424l0.238,-0.427l0.239,-0.43l0.237,-0.429l0.234,-0.426l0.235,-0.428l0.236,-0.433l0.233,-0.43l0.232,-0.429l0.234,-0.434l0.23,-0.429l0.23,-0.432l0.231,-0.435l0.229,-0.432l0.228,-0.433l0.227,-0.433l0.228,-0.438l0.226,-0.434l0.225,-0.434l0.226,-0.439l0.223,-0.435l0.223,-0.436l0.222,-0.437l0.221,-0.436l0.222,-0.44l0.222,-0.441l0.218,-0.437l0.219,-0.439l0.217,-0.439l0.218,-0.442l0.218,-0.443l0.214,-0.437l0.215,-0.443l0.215,-0.444l0.214,-0.442l0.213,-0.444l0.212,-0.442l0.21,-0.442l0.212,-0.446l0.211,-0.446l0.208,-0.444l0.208,-0.443l0.21,-0.451l0.207,-0.444l0.205,-0.445l0.206,-0.448l0.206,-0.45l0.205,-0.449l0.203,-0.446l0.202,-0.447l0.203,-0.45l0.202,-0.45l0.201,-0.451l0.201,-0.452l0.198,-0.448l0.199,-0.452l0.198,-0.452l0.197,-0.45l0.197,-0.453l0.196,-0.453l0.194,-0.45l0.196,-0.458l0.195,-0.454l0.192,-0.452l0.193,-0.455l0.192,-0.455l0.191,-0.455l0.19,-0.456l0.189,-0.453l0.189,-0.456l0.19,-0.461l0.188,-0.457l0.186,-0.454l0.186,-0.458l0.187,-0.461l0.184,-0.456l0.185,-0.458l0.185,-0.462l0.182,-0.456l0.182,-0.46l0.182,-0.463l0.18,-0.457l0.181,-0.46l0.18,-0.464l0.179,-0.461l0.179,-0.462l0.177,-0.461l0.177,-0.462l0.177,-0.464l0.176,-0.463l0.174,-0.46l0.175,-0.466l0.172,-0.459l0.348,-0.932l0.343,-0.93l0.34,-0.931l0.338,-0.933l0.336,-0.933l0.332,-0.934l0.331,-0.935l0.328,-0.938l0.325,-0.936l0.323,-0.939l0.32,-0.939l0.318,-0.941l0.315,-0.941l0.312,-0.942l0.311,-0.945l0.308,-0.943l0.306,-0.946l0.303,-0.947l0.3,-0.946l0.298,-0.948l0.296,-0.949l0.293,-0.947l0.291,-0.953l0.289,-0.952l0.287,-0.951l0.283,-0.952l0.282,-0.954l0.28,-0.955l0.276,-0.953l0.275,-0.956l0.272,-0.956l0.27,-0.957l0.268,-0.957l0.266,-0.96l0.263,-0.957l0.261,-0.958l0.26,-0.963l0.256,-0.959l0.254,-0.959l0.253,-0.963l0.25,-0.962l0.247,-0.96l0.246,-0.964l0.244,-0.964l0.241,-0.961l0.239,-0.965l0.238,-0.965l0.234,-0.962l0.233,-0.965l0.231,-0.966l0.229,-0.965l0.227,-0.967l0.225,-0.966l0.222,-0.965l0.221,-0.966l0.218,-0.965l0.217,-0.969l0.215,-0.968l0.212,-0.965l0.211,-0.967l0.208,-0.967l0.207,-0.967l0.204,-0.967l0.203,-0.968l0.202,-0.969l0.198,-0.966l0.197,-0.966l0.195,-0.968l0.194,-0.967l0.191,-0.968l0.19,-0.968l0.187,-0.965l0.186,-0.966l0.184,-0.968l0.183,-0.968l0.18,-0.965l0.178,-0.965l0.177,-0.968l0.176,-0.966l0.173,-0.963l0.171,-0.965l0.17,-0.967l0.168,-0.964l0.167,-0.963l0.164,-0.965l0.163,-0.962l0.162,-0.964l0.16,-0.963l0.158,-0.962l0.156,-0.962l0.155,-0.961l0.153,-0.961l0.151,-0.959l0.15,-0.961l0.149,-0.96l0.147,-0.958l0.145,-0.959l0.144,-0.957l0.141,-0.955l0.141,-0.959l0.139,-0.955l0.138,-0.955l0.136,-0.953l0.134,-0.953l0.134,-0.954l0.131,-0.952l0.131,-0.952l0.129,-0.951l0.127,-0.948l0.126,-0.949l0.125,-0.95l0.123,-0.946l0.122,-0.946l0.12,-0.947l0.119,-0.945l0.118,-0.942l0.117,-0.944l0.115,-0.942l0.113,-0.938l0.113,-0.94l0.111,-0.94l0.11,-0.938l0.109,-0.935l0.107,-0.937l0.106,-0.931l0.104,-0.93l0.103,-0.928l0.101,-0.926l0.1,-0.926l0.099,-0.926l0.097,-0.924l0.095,-0.923l0.094,-0.922l0.093,-0.921l0.091,-0.92l0.09,-0.918l0.088,-0.918l0.087,-0.916l0.086,-0.916l0.084,-0.914l0.082,-0.913l0.082,-0.914l0.08,-0.912l0.078,-0.91l0.077,-0.908l0.075,-0.908l0.075,-0.909l0.073,-0.906l0.071,-0.904l0.07,-0.904l0.069,-0.904l0.067,-0.902l0.065,-0.9l0.065,-0.902l0.063,-0.9l0.062,-0.897l0.06,-0.896l0.059,-0.898l0.058,-0.894l0.056,-0.893l0.055,-0.894l0.053,-0.893l0.052,-0.892l0.051,-0.889l0.049,-0.888l0.048,-0.889l0.047,-0.888l0.046,-0.887l0.043,-0.884l0.043,-0.885l0.041,-0.884l0.04,-0.883l0.039,-0.879l0.037,-0.881l0.036,-0.88l0.035,-0.877l0.033,-0.88l0.032,-0.877l0.031,-0.874l0.029,-0.875l0.028,-0.876l0.027,-0.873l0.025,-0.87l0.024,-0.872l0.023,-0.87l0.022,-0.869l0.02,-0.87l0.019,-0.868l0.017,-0.864l0.017,-0.865l0.015,-0.867l0.013,-0.863l0.013,-0.863l0.011,-0.864l0.01,-0.86l0.008,-0.86l0.008,-0.859l0.006,-0.858l0.004,-0.859l0.004,-0.856l0.002,-0.857l0.001,-0.854l0,-0.853l-0.002,-0.855l-0.002,-0.851l-0.004,-0.853l-0.006,-0.85l-0.006,-0.848l-0.008,-0.85l-0.009,-0.85l-0.01,-0.846l-0.012,-0.845l-0.013,-0.848l-0.014,-0.844l-0.015,-0.842l-0.016,-0.846l-0.018,-0.841l-0.019,-0.84l-0.02,-0.843l-0.021,-0.84l-0.023,-0.835l-0.024,-0.839l-0.025,-0.84l-0.026,-0.837l-0.027,-0.834l-0.029,-0.835l-0.03,-0.834l-0.031,-0.831l-0.032,-0.835l-0.033,-0.832l-0.035,-0.829l-0.036,-0.832l-0.037,-0.829l-0.038,-0.827l-0.039,-0.829l-0.04,-0.827l-0.042,-0.826l-0.043,-0.826l-0.044,-0.824l-0.045,-0.823l-0.047,-0.823l-0.047,-0.824l-0.049,-0.821l-0.05,-0.821l-0.051,-0.819l-0.052,-0.821l-0.053,-0.818l-0.055,-0.817l-0.055,-0.819l-0.057,-0.816l-0.058,-0.814l-0.059,-0.817l-0.06,-0.813l-0.061,-0.812l-0.063,-0.814l-0.064,-0.814l-0.064,-0.81l-0.066,-0.809l-0.067,-0.811l-0.068,-0.81l-0.069,-0.81l-0.07,-0.806l-0.072,-0.806l-0.072,-0.807l-0.074,-0.806l-0.075,-0.804l-0.076,-0.805l-0.077,-0.804l-0.077,-0.801l-0.08,-0.803l-0.08,-0.805l-0.081,-0.799l-0.083,-0.798l-0.083,-0.802l-0.085,-0.799l-0.085,-0.796l-0.087,-0.798l-0.088,-0.797l-0.089,-0.797l-0.09,-0.798l-0.091,-0.792l-0.092,-0.795l-0.094,-0.796l-0.094,-0.79l-0.095,-0.793l-0.096,-0.791l-0.098,-0.791l-0.099,-0.792l-0.099,-0.79l-0.101,-0.789l-0.101,-0.788l-0.103,-0.788l-0.104,-0.789l-0.104,-0.786l-0.106,-0.786l-0.107,-0.785l-0.108,-0.786l-0.109,-0.786l-0.11,-0.781l-0.111,-0.782l-0.112,-0.784l-0.113,-0.783l-0.114,-0.781l-0.115,-0.78l-0.116,-0.781l-0.117,-0.781l-0.118,-0.778l-0.12,-0.779l-0.119,-0.777l-0.121,-0.776l-0.123,-0.78l-0.123,-0.775l-0.124,-0.774l-0.125,-0.776l-0.126,-0.776l-0.127,-0.774l-0.129,-0.775l-0.128,-0.771l-0.13,-0.773l-0.131,-0.772l-0.132,-0.77l-0.133,-0.771l-0.134,-0.771l-0.135,-0.77l-0.136,-0.769l-0.137,-0.769l-0.138,-0.769l-0.139,-0.767l-0.139,-0.765l-0.141,-0.767l-0.142,-0.769l-0.143,-0.765l-0.143,-0.765l-0.145,-0.765l-0.145,-0.764l-0.146,-0.763l-0.148,-0.763l-0.148,-0.762l-0.15,-0.764l-0.149,-0.762l-0.151,-0.758l-0.153,-0.763l-0.153,-0.762l-0.153,-0.759l-0.155,-0.759l-0.156,-0.758l-0.156,-0.757l-0.158,-0.76l-0.159,-0.759l-0.159,-0.756l-0.16,-0.756l-0.161,-0.755l-0.163,-0.757l-0.163,-0.756l-0.164,-0.754l-0.165,-0.756l-0.165,-0.752l-0.166,-0.753l-0.169,-0.756l-0.168,-0.751l-0.169,-0.751l-0.17,-0.752l-0.171,-0.753l-0.172,-0.752l-0.173,-0.749l-0.174,-0.75l-0.174,-0.751l-0.175,-0.748l-0.177,-0.749l-0.177,-0.749l-0.178,-0.749l-0.179,-0.748l-0.18,-0.747l-0.181,-0.748l-0.18,-0.744l-0.183,-0.746l-0.184,-0.749l-0.183,-0.743l-0.185,-0.745l-0.252,-1.011l-0.216,-1.006l-0.16,-0.738l-0.161,-0.737l-0.162,-0.736l-0.163,-0.736l-0.164,-0.737l-0.165,-0.734l-0.166,-0.734l-0.167,-0.732l-0.169,-0.733l-0.169,-0.731l-0.17,-0.731l-0.171,-0.73l-0.172,-0.729l-0.174,-0.728l-0.173,-0.726l-0.176,-0.727l-0.177,-0.726l-0.177,-0.726l-0.179,-0.725l-0.179,-0.722l-0.181,-0.723l-0.182,-0.723l-0.183,-0.719l-0.184,-0.721l-0.185,-0.721l-0.186,-0.717l-0.187,-0.719l-0.188,-0.716l-0.189,-0.714l-0.191,-0.717l-0.192,-0.716l-0.192,-0.713l-0.193,-0.711l-0.196,-0.714l-0.195,-0.71l-0.197,-0.709l-0.198,-0.709l-0.2,-0.711l-0.2,-0.706l-0.201,-0.707l-0.203,-0.708l-0.203,-0.702l-0.205,-0.704l-0.206,-0.705l-0.207,-0.702l-0.208,-0.699l-0.21,-0.701l-0.211,-0.702l-0.211,-0.699l-0.212,-0.696l-0.214,-0.697l-0.215,-0.696l-0.217,-0.695l-0.217,-0.695l-0.218,-0.692l-0.22,-0.693l-0.221,-0.691l-0.222,-0.692l-0.223,-0.687l-0.225,-0.69l-0.225,-0.689l-0.226,-0.685l-0.228,-0.684l-0.229,-0.687l-0.231,-0.684l-0.231,-0.682l-0.232,-0.681l-0.234,-0.682l-0.236,-0.682l-0.235,-0.675l-0.238,-0.68l-0.239,-0.679l-0.238,-0.673l-0.242,-0.677l-0.242,-0.674l-0.243,-0.673l-0.246,-0.674l-0.244,-0.668l-0.248,-0.672l-0.248,-0.669l-0.249,-0.666l-0.251,-0.669l-0.252,-0.667l-0.253,-0.664l-0.255,-0.665l-0.255,-0.663l-0.257,-0.662l-0.258,-0.66l-0.259,-0.66l-0.261,-0.659l-0.262,-0.659l-0.263,-0.657l-0.264,-0.654l-0.266,-0.656l-0.267,-0.655l-0.267,-0.651l-0.27,-0.653l-0.271,-0.651l-0.271,-0.648l-0.274,-0.65l-0.275,-0.649l-0.275,-0.644l-0.277,-0.645l-0.278,-0.644l-0.28,-0.644l-0.281,-0.643l-0.282,-0.641l-0.283,-0.639l-0.285,-0.638l-0.286,-0.638l-0.288,-0.637l-0.289,-0.638l-0.289,-0.632l-0.291,-0.633l-0.293,-0.634l-0.294,-0.631l-0.295,-0.63l-0.297,-0.629l-0.297,-0.628l-0.298,-0.624l-0.301,-0.626l-0.303,-0.627l-0.303,-0.623l-0.305,-0.623l-0.305,-0.62l-0.307,-0.62l-0.31,-0.621l-0.309,-0.617l-0.31,-0.614l-0.313,-0.616l-0.314,-0.615l-0.316,-0.614l-0.316,-0.611l-0.318,-0.611l-0.32,-0.611l-0.32,-0.607l-0.322,-0.608l-0.323,-0.606l-0.325,-0.604l-0.326,-0.605l-0.328,-0.604l-0.329,-0.601l-0.33,-0.6l-0.331,-0.598l-0.334,-0.599l-0.335,-0.598l-0.335,-0.594l-0.337,-0.594l-0.339,-0.595l-0.34,-0.591l-0.341,-0.591l-0.344,-0.592l-0.344,-0.588l-0.345,-0.585l-0.347,-0.586l-0.35,-0.587l-0.35,-0.584l-0.35,-0.58l-0.353,-0.582l-0.355,-0.582l-0.355,-0.577l-0.357,-0.578l-0.359,-0.577l-0.359,-0.573l-0.363,-0.577l-0.362,-0.571l-0.365,-0.573l-0.366,-0.57l-0.366,-0.568l-0.369,-0.568l-0.37,-0.565l-0.372,-0.567l-0.374,-0.565l-0.374,-0.562l-0.376,-0.563l-0.377,-0.559l-0.379,-0.558l-0.381,-0.559l-0.383,-0.559l-0.383,-0.554l-0.384,-0.553l-0.386,-0.552l-0.388,-0.552l-0.39,-0.551l-0.391,-0.549l-0.394,-0.549l-0.393,-0.546l-0.394,-0.543l-0.399,-0.546l-0.398,-0.543l-0.399,-0.539l-0.402,-0.542l-0.403,-0.539l-0.405,-0.538l-0.406,-0.536l-0.408,-0.535l-0.409,-0.534l-0.411,-0.531l-0.412,-0.531l-0.414,-0.53l-0.415,-0.529l-0.418,-0.528l-0.419,-0.526l-0.419,-0.524l-0.423,-0.524l-0.423,-0.522l-0.424,-0.52l-0.428,-0.521l-0.426,-0.516l-0.429,-0.516l-0.434,-0.519l-0.431,-0.512l-0.435,-0.513l-0.436,-0.512l-0.438,-0.51l-0.44,-0.51l-0.44,-0.507l-0.442,-0.506l-0.444,-0.504l-0.446,-0.505l-0.448,-0.503l-0.448,-0.499l-0.45,-0.499l-0.453,-0.5l-0.455,-0.497l-0.453,-0.494l-0.459,-0.495l-0.459,-0.494l-0.461,-0.491l-0.461,-0.49l-0.464,-0.489l-0.466,-0.488l-0.465,-0.484l-0.471,-0.486l-0.471,-0.485l-0.471,-0.481l-0.474,-0.48l-0.476,-0.48l-0.478,-0.479l-0.479,-0.477l-0.48,-0.474l-0.483,-0.475l-0.484,-0.473l-0.485,-0.47l-0.487,-0.469l-0.49,-0.469l-0.492,-0.468l-0.492,-0.465l-0.495,-0.464l-0.497,-0.464l-0.497,-0.461l-0.5,-0.46l-0.5,-0.458l-0.505,-0.458l-0.334,-0.303l-0.328,-0.277l-0.507,-0.427l-0.509,-0.425l-0.51,-0.422l-0.51,-0.421l-0.516,-0.421l-0.518,-0.421l-0.52,-0.419l-0.521,-0.417l-0.523,-0.416l-0.527,-0.416l-0.528,-0.414l-0.53,-0.412l-0.533,-0.412l-0.538,-0.412l-0.537,-0.41l-0.54,-0.408l-0.543,-0.408l-0.545,-0.406l-0.547,-0.405l-0.551,-0.405l-0.553,-0.404l-0.554,-0.401l-0.555,-0.4l-0.561,-0.401l-0.563,-0.399l-0.564,-0.397l-0.567,-0.397l-0.569,-0.395l-0.571,-0.394l-0.575,-0.393l-0.577,-0.392l-0.58,-0.391l-0.581,-0.39l-0.584,-0.389l-0.586,-0.387l-0.589,-0.386l-0.593,-0.385l-0.594,-0.384l-0.597,-0.383l-0.6,-0.382l-0.6,-0.38l-0.605,-0.38l-0.608,-0.379l-0.609,-0.376l-0.612,-0.377l-0.615,-0.375l-0.617,-0.373l-0.62,-0.373l-0.623,-0.372l-0.625,-0.37l-0.628,-0.368l-0.631,-0.369l-0.631,-0.366l-0.637,-0.366l-0.639,-0.365l-0.64,-0.363l-0.645,-0.363l-0.645,-0.36l-0.648,-0.359l-0.653,-0.36l-0.654,-0.357l-0.657,-0.356l-0.66,-0.356l-0.662,-0.353l-0.666,-0.353l-0.667,-0.351l-0.671,-0.351l-0.673,-0.349l-0.677,-0.348l-0.678,-0.347l-0.68,-0.344l-0.687,-0.346l-0.687,-0.343l-0.689,-0.341l-0.693,-0.341l-0.695,-0.34l-0.698,-0.338l-0.701,-0.337l-0.705,-0.336l-0.705,-0.334l-0.71,-0.334l-0.712,-0.332l-0.715,-0.331l-0.719,-0.33l-0.72,-0.328l-0.724,-0.328l-0.727,-0.326l-0.728,-0.324l-0.734,-0.324l-0.734,-0.323l-0.738,-0.32l-0.741,-0.32l-0.744,-0.319l-0.746,-0.317l-0.749,-0.316l-0.753,-0.315l-0.757,-0.314l-0.758,-0.312l-0.76,-0.311l-0.764,-0.309l-0.767,-0.309l-0.771,-0.307l-0.772,-0.306l-0.776,-0.304l-0.78,-0.304l-0.781,-0.302l-0.785,-0.301l-0.788,-0.299l-0.79,-0.298l-0.796,-0.297l-0.795,-0.295l-0.8,-0.295l-0.804,-0.293l-0.805,-0.291l-0.809,-0.291l-0.811,-0.288l-0.816,-0.288l-0.818,-0.287l-0.82,-0.284l-0.825,-0.284l-0.828,-0.283l-0.829,-0.281l-0.832,-0.279l-0.838,-0.279l-0.84,-0.277l-0.841,-0.276l-0.846,-0.274l-0.849,-0.273l-0.852,-0.272l-0.855,-0.27l-0.858,-0.269l-0.86,-0.268l-0.866,-0.266l-0.867,-0.265l-0.87,-0.263l-0.873,-0.262l-0.877,-0.261l-0.88,-0.26l-0.884,-0.258l-0.886,-0.256l-0.889,-0.256l-0.893,-0.254l-0.896,-0.252l-0.898,-0.251l-0.902,-0.25l-0.907,-0.248l-0.908,-0.247l-0.911,-0.245l-0.915,-0.245l-0.918,-0.242l-0.921,-0.241l-0.926,-0.241l-0.927,-0.238l-0.931,-0.237l-0.935,-0.236l-0.936,-0.234l-0.942,-0.233l-0.944,-0.231l-0.947,-0.23l-0.951,-0.229l-0.953,-0.227l-0.957,-0.225l-0.961,-0.225l-0.963,-0.222l-0.968,-0.222l-0.969,-0.219l-0.973,-0.219l-0.978,-0.217l-0.98,-0.215l-0.983,-0.214l-0.987,-0.213l-0.99,-0.211l-0.994,-0.209l-0.996,-0.208l-1.001,-0.207l-1.003,-0.206l-1.007,-0.203l-1.009,-0.202l-1.014,-0.201l-1.017,-0.2l-1.021,-0.197l-1.023,-0.197l-1.027,-0.195l-1.03,-0.193l-1.034,-0.192l-1.037,-0.19l-1.041,-0.189l-1.044,-0.187l-1.047,-0.186l-1.051,-0.184l-1.053,-0.183l-1.058,-0.181l-1.061,-0.18l-1.065,-0.178l-1.068,-0.177l-1.071,-0.175l-1.075,-0.174l-1.078,-0.172l-1.082,-0.171l-1.084,-0.169l-1.089,-0.167l-1.092,-0.166l-1.096,-0.165l-1.099,-0.163l-1.103,-0.161l-1.105,-0.16l-1.109,-0.158l-1.114,-0.157l-1.116,-0.155l-1.12,-0.154l-1.123,-0.152l-1.127,-0.15l-1.131,-0.149l-1.134,-0.148l-1.137,-0.145l-1.141,-0.145l-1.145,-0.142l-1.148,-0.141l-1.153,-0.14l-1.155,-0.138l-1.158,-0.136l-1.162,-0.135l-1.167,-0.133l-1.169,-0.131l-1.173,-0.13l-1.177,-0.129l-1.18,-0.126l-1.184,-0.126l-1.188,-0.123l-1.19,-0.122l-1.195,-0.12l-1.198,-0.119l-1.202,-0.117l-1.206,-0.116l-1.209,-0.114l-1.213,-0.112l-1.217,-0.111l-1.219,-0.109l-1.223,-0.107l-1.228,-0.106l-1.231,-0.104l-1.234,-0.102l-1.239,-0.101l-1.241,-0.1l-1.246,-0.097l-1.25,-0.096l-1.253,-0.095l-1.256,-0.092l-1.26,-0.091l-1.265,-0.09l-1.267,-0.087l-1.271,-0.086l-1.276,-0.085l-1.278,-0.083l-1.275,-0.08l-1.307,-0.08l-1.322,-0.078l-1.326,-0.078l-1.33,-0.076l-1.333,-0.075l-1.336,-0.074l-1.339,-0.072l-1.343,-0.071l-1.346,-0.07l-1.349,-0.069l-1.352,-0.067l-1.355,-0.066l-1.358,-0.065l-1.362,-0.063l-1.365,-0.062l-1.367,-0.061l-1.37,-0.06l-1.374,-0.058l-1.376,-0.057l-1.379,-0.055l-1.382,-0.054l-1.385,-0.053l-1.387,-0.052l-1.39,-0.05l-1.393,-0.049l-1.396,-0.047l-1.399,-0.047l-1.4,-0.044l-1.403,-0.044l-1.406,-0.042l-1.409,-0.041l-1.411,-0.039l-1.413,-0.038l-1.416,-0.037l-1.418,-0.035l-1.421,-0.034l-1.423,-0.033l-1.425,-0.031l-1.428,-0.03l-1.429,-0.028l-1.432,-0.027l-1.434,-0.026l-1.436,-0.024l-1.439,-0.023l-1.44,-0.021l-1.442,-0.02l-1.445,-0.018l-1.446,-0.018l-1.448,-0.015l-1.45,-0.015l-1.452,-0.012l-1.454,-0.012l-1.456,-0.01l-1.457,-0.008l-1.46,-0.008l-1.461,-0.005l-1.462,-0.004l-1.464,-0.003l-1.466,-0.002l-1.467,0.001l-1.47,0.001l-1.471,0.003l-1.472,0.005l-1.473,0.006l-1.475,0.007l-1.476,0.009l-1.478,0.011l-1.48,0.012l-1.479,0.013l-1.482,0.015l-1.483,0.016l-1.484,0.018l-1.486,0.02l-1.485,0.02l-1.488,0.023l-1.489,0.024l-1.49,0.025l-1.49,0.027l-1.492,0.029l-1.493,0.03l-1.493,0.031l-1.494,0.033l-1.496,0.035l-1.496,0.036l-1.496,0.037l-1.498,0.04l-1.499,0.04l-1.499,0.043l-1.499,0.044l-1.502,0.045l-1.501,0.047l-1.501,0.048l-1.502,0.05l-1.502,0.052l-1.504,0.053l-1.503,0.055l-1.504,0.057l-1.505,0.058l-1.505,0.059l-1.505,0.061l-1.505,0.063l-1.506,0.064l-1.506,0.066l-1.505,0.068l-1.506,0.069l-1.507,0.07l-1.506,0.073l-1.507,0.074l-1.507,0.075l-1.506,0.077l-1.506,0.079l-1.507,0.081l-1.507,0.082l-1.506,0.083l-1.506,0.086l-1.506,0.087l-1.506,0.088l-1.505,0.091l-1.505,0.091l-1.505,0.094l-1.504,0.095l-1.505,0.097l-1.503,0.099l-1.503,0.1l-1.504,0.102l-1.502,0.103l-1.501,0.105l-1.502,0.107l-1.5,0.109l-1.5,0.11l-1.499,0.112l-1.499,0.113l-1.498,0.116l-1.497,0.117l-1.496,0.118l-1.496,0.121l-1.495,0.122l-1.493,0.123l-1.494,0.126l-1.491,0.127l-1.491,0.129l-1.49,0.131l-1.489,0.132l-1.488,0.134l-1.486,0.136l-1.486,0.137l-1.484,0.139l-1.483,0.141l-1.483,0.143l-1.48,0.145l-1.48,0.146l-1.477,0.148l-1.478,0.149l-1.474,0.152l-1.474,0.153l-1.473,0.155l-1.471,0.156l-1.469,0.159l-1.468,0.16l-1.466,0.162l-1.464,0.164l-1.464,0.165l-1.461,0.168l-1.459,0.169l-1.458,0.171l-1.456,0.172l-1.454,0.175l-1.452,0.176l-1.451,0.178l-1.448,0.18l-1.447,0.181l-1.445,0.184l-1.442,0.185l-1.44,0.187l-1.439,0.189l-1.436,0.19l-1.434,0.193l-1.433,0.194l-1.43,0.196l-1.427,0.198l-1.426,0.2l-1.423,0.201l-1.42,0.203l-1.419,0.206l-1.416,0.207l-1.413,0.209l-1.411,0.21l-1.409,0.213l-1.405,0.214l-1.404,0.216l-1.401,0.219l-1.399,0.219l-1.395,0.222l-1.392,0.224l-1.391,0.225l-1.388,0.228l-1.384,0.229l-1.382,0.231l-1.378,0.233l-1.376,0.234l-1.374,0.237l-1.37,0.239l-1.367,0.24l-1.364,0.242l-1.361,0.244l-1.357,0.246l-1.355,0.248l-1.353,0.25l-1.348,0.251l-1.345,0.254l-1.342,0.255l-1.339,0.258l-1.335,0.259l-1.332,0.261l-1.329,0.263l-1.326,0.265l-1.322,0.266l-1.318,0.269l-1.314,0.271l-1.312,0.272l-1.307,0.274l-1.304,0.277l-1.301,0.278l-1.296,0.28l-1.293,0.282l-1.289,0.283l-1.285,0.286l-1.282,0.288l-1.278,0.29l-1.274,0.291l-1.269,0.293l-1.267,0.296l-1.262,0.297l-1.258,0.299l-1.253,0.301l-1.251,0.303l-1.244,0.305l-1.242,0.307l-1.238,0.309l-1.233,0.31l-1.233,0.314l-0.608,0.156l-0.611,0.157l-0.612,0.158l-0.61,0.159l-0.606,0.158l-0.608,0.16l-0.607,0.16l-0.605,0.16l-0.603,0.16l-0.603,0.162l-0.603,0.162l-0.599,0.162l-0.6,0.163l-0.6,0.163l-0.596,0.164l-0.596,0.164l-0.594,0.164l-0.595,0.166l-0.594,0.165l-0.59,0.166l-0.59,0.167l-0.589,0.167l-0.587,0.167l-0.588,0.168l-0.587,0.169l-0.583,0.169l-0.583,0.169l-0.582,0.17l-0.58,0.17l-0.699,0.206l-0.683,0.191l-0.564,0.159l-0.564,0.159l-0.563,0.16l-0.561,0.159l-0.56,0.161l-0.558,0.161l-0.558,0.161l-0.556,0.162l-0.557,0.162l-0.554,0.163l-0.553,0.163l-0.554,0.164l-0.55,0.164l-0.548,0.164l-0.548,0.165l-0.55,0.166l-0.547,0.165l-0.543,0.166l-0.545,0.167l-0.543,0.167l-0.541,0.167l-0.542,0.169l-0.538,0.167l-0.538,0.169l-0.54,0.17l-0.536,0.17l-0.533,0.169l-0.536,0.171l-0.532,0.171l-0.531,0.171l-0.532,0.172l-0.529,0.172l-0.529,0.173l-0.528,0.173l-0.526,0.174l-0.525,0.174l-0.523,0.174l-0.523,0.174l-0.523,0.176l-0.52,0.175l-0.521,0.177l-0.518,0.176l-0.517,0.177l-0.515,0.177l-0.515,0.178l-0.516,0.179l-0.512,0.178l-0.513,0.179l-0.511,0.18l-0.509,0.179l-0.509,0.181l-0.508,0.18l-0.506,0.181l-0.505,0.182l-0.505,0.182l-0.504,0.183l-0.502,0.182l-0.501,0.184l-0.5,0.183l-0.498,0.184l-0.499,0.185l-0.497,0.185l-0.496,0.185l-0.494,0.186l-0.493,0.186l-0.494,0.187l-0.491,0.186l-0.489,0.188l-0.491,0.188l-0.489,0.189l-0.487,0.188l-0.486,0.189l-0.486,0.19l-0.483,0.189l-0.483,0.191l-0.483,0.191l-0.48,0.19l-0.48,0.192l-0.48,0.192l-0.479,0.193l-0.476,0.192l-0.475,0.194l-0.476,0.193l-0.473,0.194l-0.474,0.195l-0.472,0.195l-0.47,0.195l-0.469,0.195l-0.468,0.196l-0.469,0.197l-0.465,0.197l-0.467,0.197l-0.465,0.198l-0.462,0.198l-0.463,0.199l-0.462,0.199l-0.46,0.199l-0.46,0.2l-0.459,0.2l-0.457,0.201l-0.455,0.2l-0.455,0.201l-0.456,0.202l-0.454,0.203l-0.452,0.202l-0.451,0.203l-0.452,0.204l-0.449,0.203l-0.447,0.204l-0.448,0.205l-0.446,0.204l-0.446,0.207l-0.446,0.205l-0.442,0.206l-0.441,0.206l-0.443,0.208l-0.441,0.207l-0.439,0.208l-0.439,0.208l-0.437,0.208l-0.437,0.21l-0.437,0.209l-0.433,0.21l-0.433,0.209l-0.434,0.211l-0.432,0.211l-0.43,0.211l-0.431,0.213l-0.429,0.212l-0.426,0.212l-0.428,0.213l-0.427,0.214l-0.424,0.213l-0.423,0.214l-0.424,0.215l-0.423,0.215l-0.42,0.214l-0.42,0.216l-0.421,0.217l-0.418,0.216l-0.417,0.217l-0.418,0.217l-0.414,0.217l-0.416,0.219l-0.414,0.219l-0.412,0.218l-0.411,0.219l-0.41,0.219l-0.411,0.22l-0.41,0.221l-0.409,0.221l-0.406,0.221l-0.407,0.222l-0.405,0.222l-0.404,0.221l-0.402,0.222l-0.404,0.224l-0.404,0.225l-0.399,0.223l-0.399,0.223l-0.4,0.226l-0.398,0.225l-0.396,0.224l-0.398,0.227l-0.394,0.225l-0.395,0.228l-0.395,0.227l-0.391,0.227l-0.392,0.227l-0.391,0.228l-0.39,0.229l-0.389,0.229l-0.389,0.23l-0.387,0.229l-0.385,0.229l-0.386,0.231l-0.386,0.231l-0.383,0.231l-0.383,0.232l-0.382,0.232l-0.382,0.232l-0.38,0.233l-0.377,0.232l-0.379,0.234l-0.379,0.234l-0.377,0.234l-0.376,0.235l-0.376,0.236l-0.373,0.235l-0.374,0.235l-0.373,0.237l-0.371,0.236l-0.369,0.236l-0.371,0.238l-0.37,0.238l-0.367,0.237l-0.369,0.24l-0.367,0.238l-0.364,0.239l-0.365,0.239l-0.364,0.24l-0.363,0.241l-0.364,0.241l-0.361,0.241l-0.36,0.241l-0.359,0.242l-0.361,0.243l-0.356,0.241l-0.359,0.244l-0.357,0.244l-0.354,0.242l-0.356,0.245l-0.354,0.245l-0.353,0.244l-0.353,0.246l-0.351,0.245l-0.351,0.246l-0.35,0.247l-0.35,0.247l-0.348,0.247l-0.347,0.247l-0.348,0.248l-0.345,0.248l-0.346,0.249l-0.343,0.248l-0.344,0.25l-0.344,0.25l-0.341,0.25l-0.342,0.251l-0.34,0.251l-0.34,0.251l-0.339,0.252l-0.339,0.253l-0.336,0.251l-0.337,0.253l-0.334,0.252l-0.336,0.254l-0.335,0.255l-0.334,0.255l-0.332,0.254l-0.331,0.254l-0.331,0.256l-0.332,0.257l-0.329,0.256l-0.329,0.256l-0.328,0.257l-0.328,0.258l-0.325,0.257l-0.326,0.258l-0.327,0.26l-0.324,0.258l-0.322,0.258l-0.322,0.26l-0.322,0.259l-0.322,0.261l-0.323,0.263l-0.318,0.26l-0.319,0.262l-0.319,0.262l-0.316,0.261l-0.317,0.262l-0.317,0.264l-0.316,0.264l-0.314,0.263l-0.315,0.265l-0.312,0.264l-0.312,0.264l-0.312,0.266l-0.311,0.266l-0.311,0.266l-0.31,0.267l-0.308,0.266l-0.31,0.268l-0.307,0.268l-0.306,0.267l-0.306,0.268l-0.304,0.268l-0.306,0.27l-0.304,0.27l-0.304,0.27l-0.303,0.271l-0.301,0.269l-0.3,0.27l-0.301,0.273l-0.301,0.272l-0.299,0.272l-0.298,0.273l-0.298,0.272l-0.295,0.272l-0.296,0.274l-0.299,0.277l-0.295,0.274l-0.291,0.272l-0.295,0.276l-0.294,0.277l-0.291,0.275l-0.291,0.276l-0.293,0.278l-0.29,0.277l-0.289,0.276l-0.289,0.279l-0.289,0.279l-0.287,0.278l-0.286,0.278l-0.286,0.28l-0.287,0.28l-0.285,0.281l-0.283,0.279l-0.285,0.283l-0.283,0.28l-0.281,0.281l-0.283,0.283l-0.28,0.282l-0.281,0.283l-0.28,0.284l-0.28,0.284l-0.277,0.283l-0.277,0.284l-0.28,0.287l-0.276,0.285l-0.274,0.283l-0.275,0.286l-0.276,0.288l-0.275,0.287l-0.273,0.287l-0.271,0.286l-0.273,0.289l-0.273,0.289l-0.269,0.288l-0.27,0.289l-0.271,0.29l-0.27,0.29l-0.268,0.29l-0.267,0.29l-0.267,0.291l-0.266,0.291l-0.268,0.294l-0.266,0.292l-0.264,0.292l-0.263,0.292l-0.264,0.294l-0.264,0.295l-0.261,0.292l-0.262,0.295l-0.263,0.297l-0.26,0.294l-0.259,0.295l-0.26,0.297l-0.259,0.297l-0.257,0.295l-0.258,0.298l-0.258,0.299l-0.252,0.292l-0.515,0.603l-0.51,0.6l-0.506,0.599l-0.504,0.603l-0.503,0.604l-0.499,0.605l-0.499,0.607l-0.495,0.609l-0.492,0.609l-0.492,0.612l-0.488,0.614l-0.487,0.614l-0.484,0.616l-0.482,0.619l-0.481,0.62l-0.477,0.621l-0.476,0.623l-0.473,0.624l-0.472,0.626l-0.47,0.629l-0.467,0.629l-0.464,0.63l-0.464,0.633l-0.461,0.635l-0.459,0.635l-0.456,0.637l-0.456,0.64l-0.453,0.641l-0.45,0.641l-0.45,0.645l-0.447,0.646l-0.444,0.647l-0.443,0.649l-0.441,0.65l-0.439,0.652l-0.438,0.654l-0.435,0.656l-0.433,0.657l-0.432,0.659l-0.429,0.66l-0.428,0.662l-0.426,0.664l-0.424,0.664l-0.422,0.667l-0.42,0.669l-0.419,0.67l-0.417,0.673l-0.414,0.673l-0.413,0.675l-0.412,0.677l-0.409,0.678l-0.408,0.681l-0.406,0.682l-0.404,0.682l-0.402,0.686l-0.401,0.687l-0.399,0.689l-0.398,0.69l-0.395,0.691l-0.394,0.694l-0.392,0.695l-0.391,0.697l-0.389,0.699l-0.387,0.699l-0.386,0.702l-0.384,0.704l-0.383,0.705l-0.38,0.707l-0.38,0.708l-0.377,0.71l-0.376,0.711l-0.374,0.714l-0.374,0.716l-0.371,0.717l-0.37,0.718l-0.368,0.719l-0.367,0.723l-0.365,0.723l-0.417,0.832l-0.418,0.809l-0.363,0.704l-0.361,0.707l-0.359,0.706l-0.359,0.71l-0.357,0.711l-0.356,0.711l-0.354,0.713l-0.354,0.715l-0.352,0.715l-0.35,0.717l-0.349,0.718l-0.348,0.72l-0.347,0.721l-0.346,0.722l-0.344,0.723l-0.343,0.725l-0.341,0.725l-0.34,0.726l-0.339,0.729l-0.338,0.731l-0.336,0.73l-0.335,0.73l-0.334,0.734l-0.333,0.734l-0.331,0.734l-0.33,0.736l-0.329,0.739l-0.327,0.737l-0.327,0.74l-0.324,0.74l-0.324,0.741l-0.323,0.743l-0.321,0.744l-0.319,0.743l-0.319,0.746l-0.318,0.747l-0.316,0.748l-0.314,0.748l-0.314,0.749l-0.313,0.752l-0.311,0.751l-0.31,0.751l-0.308,0.753l-0.308,0.754l-0.306,0.755l-0.305,0.757l-0.304,0.756l-0.302,0.756l-0.301,0.759l-0.301,0.76l-0.298,0.76l-0.298,0.76l-0.297,0.762l-0.295,0.762l-0.294,0.763l-0.292,0.763l-0.292,0.764l-0.291,0.766l-0.289,0.766l-0.288,0.767l-0.287,0.767l-0.285,0.768l-0.284,0.768l-0.284,0.77l-0.282,0.771l-0.281,0.769l-0.279,0.771l-0.279,0.773l-0.277,0.771l-0.276,0.773l-0.275,0.774l-0.274,0.775l-0.273,0.773l-0.271,0.776l-0.271,0.776l-0.269,0.775l-0.268,0.777l-0.267,0.777l-0.265,0.778l-0.265,0.778l-0.263,0.778l-0.262,0.779l-0.261,0.779l-0.26,0.78l-0.26,0.781l-0.257,0.78l-0.256,0.78l-0.256,0.782l-0.254,0.781l-0.253,0.781l-0.253,0.783l-0.251,0.783l-0.249,0.782l-0.249,0.783l-0.248,0.784l-0.246,0.784l-0.246,0.784l-0.244,0.783l-0.243,0.785l-0.243,0.785l-0.24,0.784l-0.24,0.785l-0.239,0.786l-0.238,0.786l-0.237,0.783l-0.235,0.787l-0.235,0.786l-0.233,0.786l-0.233,0.786l-0.231,0.785l-0.23,0.787l-0.23,0.786l-0.228,0.786l-0.227,0.786l-0.226,0.786l-0.225,0.787l-0.224,0.786l-0.222,0.787l-0.223,0.787l-0.22,0.786l-0.22,0.785l-0.219,0.788l-0.217,0.785l-0.217,0.786l-0.216,0.786l-0.214,0.786l-0.214,0.786l-0.213,0.786l-0.211,0.785l-0.211,0.786l-0.209,0.785l-0.208,0.784l-0.208,0.786l-0.207,0.785l-0.205,0.784l-0.205,0.785l-0.203,0.783l-0.203,0.784l-0.202,0.784l-0.2,0.783l-0.2,0.783l-0.198,0.782l-0.198,0.783l-0.196,0.782l-0.196,0.782l-0.195,0.782l-0.194,0.78l-0.193,0.782l-0.192,0.779l-0.191,0.78l-0.19,0.78l-0.189,0.779l-0.188,0.779l-0.187,0.778l-0.186,0.778l-0.185,0.777l-0.185,0.777l-0.183,0.776l-0.183,0.777l-0.181,0.775l-0.181,0.774l-0.179,0.776l-0.179,0.774l-0.178,0.773l-0.177,0.772l-0.176,0.772l-0.175,0.772l-0.175,0.771l-0.172,0.767l-0.345,1.542l-0.341,1.537l-0.337,1.533l-0.333,1.531l-0.331,1.528l-0.326,1.525l-0.323,1.521l-0.32,1.519l-0.317,1.516l-0.313,1.512l-0.309,1.508l-0.307,1.506l-0.303,1.501l-0.3,1.498l-0.296,1.494l-0.294,1.49l-0.29,1.486l-0.287,1.482l-0.284,1.478l-0.281,1.473l-0.278,1.469l-0.275,1.465l-0.272,1.46l-0.268,1.455l-0.266,1.451l-0.263,1.446l-0.26,1.44l-0.257,1.436l-0.254,1.431l-0.251,1.425l-0.249,1.421l-0.246,1.414l-0.242,1.409l-0.241,1.404l-0.237,1.398l-0.235,1.392l-0.232,1.386l-0.229,1.38l-0.227,1.375l-0.224,1.368l-0.222,1.361l-0.219,1.356l-0.166,1.033l-0.121,1.018l-0.155,1.322l-0.151,1.316l-0.149,1.308l-0.144,1.3l-0.142,1.296l-0.138,1.288l-0.135,1.281l-0.132,1.275l-0.128,1.269l-0.126,1.261l-0.122,1.256l-0.118,1.25l-0.116,1.243l-0.112,1.237l-0.11,1.231l-0.106,1.225l-0.103,1.219l-0.1,1.214l-0.097,1.208l-0.093,1.201l-0.091,1.196l-0.088,1.191l-0.084,1.185l-0.082,1.179l-0.078,1.176l-0.076,1.169l-0.073,1.163l-0.069,1.159l-0.067,1.154l-0.064,1.149l-0.061,1.143l-0.057,1.138l-0.055,1.135l-0.053,1.13l-0.049,1.124l-0.046,1.12l-0.044,1.116l-0.041,1.111l-0.038,1.107l-0.035,1.103l-0.033,1.098l-0.029,1.094l-0.027,1.09l-0.024,1.086l-0.022,1.082l-0.019,1.078l-0.016,1.076l-0.013,1.071l-0.011,1.067l-0.008,1.064l-0.006,1.059l-0.003,1.059l0,1.052l0.002,1.05l0.005,1.048l0.008,1.044l0.01,1.04l0.012,1.038l0.015,1.036l0.018,1.032l0.02,1.03l0.022,1.027l0.025,1.023l0.028,1.023l0.03,1.019l0.032,1.017l0.035,1.015l0.037,1.012l0.039,1.011l0.042,1.007l0.045,1.007l0.046,1.005l0.049,1.002l0.052,1.001l0.053,0.999l0.056,0.998l0.059,0.996l0.06,0.994l0.063,0.994l0.065,0.992l0.068,0.989l0.069,0.99l0.072,0.989l0.074,0.987l0.076,0.986l0.079,0.985l0.081,0.986l0.082,0.985l0.085,0.982l0.087,0.983l0.09,0.983l0.091,0.981l0.094,0.982l0.095,0.982l0.098,0.981l0.1,0.98l0.102,0.981l0.104,0.983l0.105,0.98l0.109,0.981l0.11,0.981l0.112,0.982l0.114,0.983l0.116,0.983l0.118,0.983l0.12,0.984l0.122,0.985l0.124,0.985l0.126,0.985l0.128,0.988l0.13,0.988l0.132,0.989l0.133,0.99l0.136,0.991l0.138,0.993l0.139,0.994l0.141,0.995l0.143,0.997l0.145,0.998l0.147,0.999l0.148,1.002l0.151,1.004l0.152,1.005l0.154,1.006l0.155,1.009l0.158,1.011l0.159,1.01l0.159,1.005l0.162,1.004l0.165,1.007l0.167,1.009l0.169,1.01l0.171,1.012l0.174,1.013l0.177,1.017l0.179,1.017l0.18,1.018l0.184,1.021l0.185,1.02l0.188,1.023l0.189,1.024l0.192,1.025l0.194,1.027l0.196,1.027l0.198,1.028l0.199,1.029l0.202,1.03l0.204,1.03l0.206,1.031l0.207,1.032l0.209,1.032l0.212,1.032l0.212,1.033l0.215,1.033l0.216,1.034l0.218,1.034l0.219,1.033l0.221,1.033l0.223,1.033l0.224,1.035l0.226,1.032l0.227,1.033l0.228,1.033l0.23,1.031l0.231,1.032l0.233,1.031l0.233,1.03l0.235,1.03l0.237,1.029l0.237,1.028l0.239,1.026l0.239,1.026l0.241,1.025l0.242,1.024l0.243,1.023l0.244,1.02l0.244,1.02l0.246,1.019l0.247,1.018l0.247,1.015l0.249,1.013l0.249,1.013l0.249,1.01l0.251,1.008l0.251,1.007l0.252,1.005l0.252,1.003l0.253,0.999l0.254,0.999l0.254,0.997l0.255,0.994l0.255,0.991l0.255,0.988l0.256,0.987l0.256,0.983l0.257,0.981l0.257,0.979l0.257,0.976l0.257,0.972l0.258,0.97l0.257,0.967l0.258,0.963l0.258,0.961l0.258,0.958l0.258,0.954l0.258,0.95l0.257,0.947l0.258,0.945l0.258,0.94l0.257,0.936l0.258,0.934l0.257,0.929l0.257,0.925l0.256,0.922l0.257,0.918l0.256,0.914l0.254,0.906l0.511,1.809l0.508,1.789l0.506,1.772l0.503,1.753l0.5,1.734l0.498,1.715l0.494,1.695l0.491,1.675l0.487,1.653l0.483,1.633l0.478,1.61l0.474,1.588l0.47,1.565l0.464,1.541l0.458,1.516l0.453,1.492l0.447,1.467l0.441,1.441l0.485,1.579l0.478,1.676l0.426,1.501l0.417,1.476l0.408,1.451l0.202,0.724l0.198,0.713l0.196,0.709l0.195,0.706l0.192,0.7l0.19,0.695l0.188,0.693l0.185,0.688l0.184,0.684l0.181,0.68l0.179,0.677l0.177,0.673l0.175,0.672l0.173,0.668l0.17,0.665l0.168,0.662l0.167,0.66l0.164,0.659l0.162,0.656l0.159,0.653l0.158,0.653l0.156,0.651l0.153,0.649l0.151,0.649l0.149,0.646l0.146,0.645l0.145,0.647l0.142,0.643l0.14,0.644l0.138,0.644l0.135,0.642l0.134,0.644l0.131,0.644l0.129,0.643l0.126,0.643l0.124,0.645l0.122,0.645l0.119,0.643l0.118,0.646l0.114,0.647l0.113,0.647l0.11,0.648l0.108,0.65l0.105,0.653l0.103,0.65l0.1,0.654l0.099,0.658l0.095,0.656l0.094,0.66l0.091,0.662l0.088,0.662l0.086,0.665l0.084,0.667l0.081,0.672l0.079,0.673l0.076,0.675l0.074,0.678l0.072,0.681l0.069,0.684l0.067,0.686l0.064,0.69l0.062,0.697l0.06,0.696l0.057,0.699l0.055,0.705l0.053,0.709l0.05,0.712l0.048,0.716l0.046,0.721l0.043,0.726l0.041,0.729l0.039,0.734l0.036,0.739l0.035,0.744l0.032,0.748l0.03,0.755l0.028,0.761l0.025,0.765l0.024,0.77l0.021,0.778l0.019,0.783l0.017,0.789l0.015,0.794l0.013,0.802l0.01,0.811l0.009,0.814l0.007,0.824l0.004,0.83l0.003,0.835l0,0.845l-0.001,0.853l-0.004,0.86l-0.005,0.869l-0.007,0.877l-0.01,0.883l-0.011,0.895l-0.013,0.901l-0.015,0.911l-0.017,0.921l-0.018,0.929l-0.021,0.939l-0.023,0.949l-0.024,0.958l-0.026,0.969l-0.028,0.978l-0.03,0.988l-0.032,1l-0.033,1.011l-0.035,1.021l-0.037,1.031l-0.039,1.044l-0.041,1.055l-0.042,1.067l-0.044,1.078l-0.046,1.09l-0.047,1.102l-0.05,1.115l-0.051,1.128l-0.052,1.14l-0.071,1.501l-0.144,1.568l-0.114,1.237l-0.117,1.247l-0.119,1.259l-0.122,1.271l-0.124,1.281l-0.127,1.293l-0.128,1.304l-0.131,1.314l-0.133,1.324l-0.136,1.335l-0.137,1.345l-0.14,1.355l-0.142,1.365l-0.144,1.373l-0.146,1.383l-0.148,1.392l-0.149,1.4l-0.152,1.41l-0.154,1.417l-0.155,1.426l-0.158,1.433l-0.159,1.441l-0.161,1.449l-0.163,1.457l-0.164,1.463l-0.166,1.47l-0.168,1.476l-0.169,1.484l-0.171,1.49l-0.173,1.495l-0.174,1.501l-0.175,1.507l-0.177,1.512l-0.179,1.518l-0.179,1.522l-0.181,1.527l-0.183,1.535l-0.368,3.073l-0.374,3.091l-0.378,3.106l-0.382,3.118l-0.386,3.127l-0.391,3.137l-0.393,3.143l-0.397,3.148l-0.4,3.152l-0.403,3.154l-0.405,3.153l-0.408,3.152l-0.409,3.148l-0.411,3.143l-0.413,3.136l-0.414,3.127l-0.414,3.117l-0.416,3.104l-0.415,3.091l-0.416,3.075l-0.416,3.057l-0.415,3.038l-0.414,3.018l-0.414,2.995l-0.412,2.97l-0.411,2.944l-0.409,2.917l-0.407,2.887l-0.405,2.855l-0.403,2.823l-0.399,2.787l-0.397,2.752l-0.393,2.713l-0.39,2.674l-0.385,2.631l-0.382,2.588l-0.378,2.544l-0.373,2.496l-0.367,2.448l-0.363,2.398l-0.358,2.346l-0.352,2.293l-0.149,0.961l0.92,-0.994l1.593,-1.72l1.63,-1.759l1.667,-1.798l1.702,-1.834l1.737,-1.87l1.77,-1.904l1.8,-1.935l1.83,-1.966l1.859,-1.996l1.885,-2.022l1.912,-2.048l1.936,-2.072l1.959,-2.096l1.981,-2.115l2,-2.135l2.02,-2.153l2.037,-2.17l2.053,-2.183l2.068,-2.197l2.081,-2.209l2.093,-2.218l2.104,-2.225l2.113,-2.234l2.121,-2.238l2.127,-2.242l2.132,-2.243l2.136,-2.244l2.139,-2.243l2.14,-2.24l2.139,-2.235l2.136,-2.228l1.069,-1.114l1.067,-1.11l1.065,-1.107l1.065,-1.106l1.063,-1.102l1.061,-1.099l1.06,-1.098l1.058,-1.093l1.055,-1.089l1.054,-1.088l1.05,-1.082l1.048,-1.078l1.046,-1.074l1.042,-1.07l1.039,-1.064l1.036,-1.061l1.033,-1.056l1.029,-1.05l1.025,-1.044l1.022,-1.04l1.017,-1.033l1.012,-1.027l1.008,-1.021l1.005,-1.016l0.999,-1.008l0.993,-1.002l0.99,-0.995l0.984,-0.987l0.978,-0.98l0.973,-0.974l0.967,-0.965l0.961,-0.958l0.956,-0.949l0.948,-0.941l0.943,-0.933l0.935,-0.923l0.93,-0.916l0.923,-0.906l0.915,-0.897l0.909,-0.888l0.901,-0.879l0.894,-0.869l0.886,-0.858l0.879,-0.849l0.871,-0.84l0.863,-0.827l0.854,-0.818l0.848,-0.808l0.838,-0.796l0.829,-0.785l0.822,-0.775l0.812,-0.762l0.804,-0.751l1.229,-1.145l0.898,-0.716l0.431,-0.343l0.429,-0.339l0.427,-0.338l0.424,-0.332l0.423,-0.331l0.424,-0.33l0.419,-0.325l0.416,-0.321l0.416,-0.319l0.416,-0.318l0.412,-0.313l0.412,-0.312l0.408,-0.307l0.409,-0.306l0.405,-0.302l0.404,-0.3l0.402,-0.297l0.401,-0.294l0.402,-0.293l0.397,-0.289l0.397,-0.286l0.396,-0.285l0.396,-0.282l0.39,-0.276l0.388,-0.274l0.392,-0.276l0.39,-0.271l0.386,-0.267l0.386,-0.266l0.385,-0.263l0.383,-0.26l0.383,-0.259l0.378,-0.253l0.381,-0.254l0.38,-0.251l0.375,-0.246l0.376,-0.245l0.375,-0.243l0.377,-0.242l0.372,-0.237l0.369,-0.234l0.376,-0.236l0.372,-0.231l0.366,-0.226l0.366,-0.224l0.367,-0.223l0.37,-0.223l0.369,-0.22l0.363,-0.215l0.36,-0.212l0.365,-0.212l0.364,-0.21l0.363,-0.207l0.359,-0.202l0.358,-0.201l0.366,-0.203l0.359,-0.197l0.354,-0.193l0.363,-0.194l0.357,-0.19l0.353,-0.186l0.363,-0.189l0.352,-0.181l0.353,-0.18l0.363,-0.182l0.353,-0.176l0.348,-0.171l0.359,-0.174l0.353,-0.169l0.353,-0.167l0.353,-0.165l0.35,-0.161l0.354,-0.161l0.354,-0.159l0.349,-0.154l0.35,-0.153l0.356,-0.153l0.351,-0.148l0.349,-0.146l0.352,-0.145l0.352,-0.142l0.351,-0.139l0.347,-0.136l0.346,-0.134l0.353,-0.133l0.355,-0.132l0.348,-0.127l0.341,-0.122l0.35,-0.123l0.357,-0.124l0.35,-0.118l0.343,-0.114l0.347,-0.112l0.351,-0.112l0.353,-0.11l0.347,-0.106l0.346,-0.103l0.347,-0.101l0.35,-0.099l0.348,-0.097l0.35,-0.095l0.349,-0.092l0.351,-0.09l0.345,-0.086l0.344,-0.083l0.345,-0.082l0.346,-0.079l0.353,-0.079l0.347,-0.074l0.339,-0.071l0.348,-0.07l0.348,-0.068l0.342,-0.064l0.35,-0.063l0.342,-0.059l0.342,-0.058l0.351,-0.056l0.343,-0.052l0.344,-0.051l0.336,-0.046l0.344,-0.046l0.345,-0.043l0.338,-0.04l0.345,-0.039l0.338,-0.036l0.338,-0.033l0.347,-0.032l0.338,-0.028l0.339,-0.027l0.33,-0.023l0.34,-0.023l0.339,-0.019l0.331,-0.017l0.339,-0.015l0.332,-0.013l0.331,-0.011l0.331,-0.008l0.331,-0.007l0.332,-0.004l0.331,-0.002l0.331,0l0.323,0.002l0.331,0.004Z" style="fill:#205d76;"/><path d="M672.06,909.258c23.255,32.556 46.509,67.438 62.788,93.018c13.952,25.581 23.254,44.184 34.882,53.486c11.627,11.627 23.254,16.278 32.556,11.627c11.628,-4.65 16.278,-16.278 58.137,-118.598c41.858,-104.646 120.924,-299.986 197.665,-492.999" style="fill:none;stroke-width:64.59px;stroke:#205d76;"/></g></g></svg>