<?xml version="1.0" standalone="no"?><!DOCTYPE svg PUBLIC "-//W3C//DTD SVG 1.1//EN" "http://www.w3.org/Graphics/SVG/1.1/DTD/svg11.dtd"><svg width="100%" height="100%" viewBox="0 0 1961 1961" version="1.1" xmlns="http://www.w3.org/2000/svg" xmlns:xlink="http://www.w3.org/1999/xlink" xml:space="preserve" style="fill-rule:evenodd;clip-rule:evenodd;stroke-linecap:round;stroke-linejoin:round;stroke-miterlimit:1.41421;"><g id="_613763088_"><path d="M840.227,539.49c-140.038,6.887 -140.038,13.774 -142.333,140.038c-2.296,126.264 -6.887,371.904 -4.592,500.463c4.592,128.56 16.07,140.038 158.404,146.925c142.333,9.183 413.226,11.479 555.56,9.183c142.333,0 153.812,-6.887 158.403,-137.742c4.592,-128.56 2.296,-383.383 -4.591,-518.829c-6.887,-133.151 -16.07,-146.925 -158.404,-151.516c-144.629,-2.296 -422.409,4.591 -562.447,11.478Z" style="fill:none;stroke-width:31.88px;stroke:#205d76;"/><path d="M1370.54,640.501c-22.957,-2.296 -43.619,-6.887 -71.167,-4.591c-25.253,4.591 -57.393,16.07 -73.463,130.855c-13.774,117.081 -13.774,337.468 -13.774,557.856" style="fill:none;stroke-width:47.82px;stroke:#205d76;"/><path d="M1127.19,922.873c84.941,0 167.586,0 252.527,0" style="fill:none;stroke-width:47.82px;stroke:#205d76;"/><path d="M509.646,1088.16c-110.194,2.296 -112.489,6.887 -112.489,59.688c-2.296,55.097 -6.888,160.7 -4.592,215.796c4.592,55.097 13.774,61.984 126.264,64.28c112.489,2.296 328.285,4.592 443.07,4.592c112.49,-2.296 121.673,-4.592 126.264,-59.689c2.296,-57.392 0,-165.29 -4.591,-224.979c-6.887,-57.392 -13.775,-61.984 -126.264,-64.279c-114.785,-2.296 -337.468,2.295 -447.662,4.591Z" style="fill:#ffc122;"/><path d="M592.291,1310.85c-4.591,9.183 -9.182,16.07 -18.365,20.662c-9.183,4.591 -22.957,6.887 -34.436,6.887c-13.774,0 -22.957,-2.296 -27.548,-6.887c-4.592,-6.887 -9.183,-13.775 -9.183,-22.957c0,-9.183 4.591,-18.366 9.183,-22.957c6.887,-4.592 16.07,-9.183 32.14,-11.479c13.774,-2.296 25.252,-4.591 34.435,-6.887c6.887,-2.296 11.479,-4.591 13.774,-6.887l0,50.505ZM553.264,1186.88c-18.365,0 -29.844,2.296 -41.322,9.183c-9.183,9.183 -16.07,20.661 -18.366,34.436c0,4.591 0,6.887 2.296,6.887c0,2.295 2.296,4.591 4.591,4.591c4.592,0 4.592,0 6.887,-2.296c2.296,-2.295 4.592,-4.591 4.592,-6.887c0,-9.182 4.591,-16.07 9.183,-20.661c6.887,-6.887 18.365,-9.183 32.139,-9.183c13.775,0 22.957,2.296 29.845,6.887c6.887,4.592 9.182,11.479 9.182,22.957c0,6.887 -2.295,13.775 -9.182,16.07c-4.592,4.592 -18.366,6.887 -39.027,9.183c-25.253,4.592 -41.323,9.183 -50.506,20.661c-4.591,6.888 -9.183,16.07 -9.183,29.845c0,13.774 4.592,25.252 13.775,34.435c9.182,6.887 22.957,11.479 41.322,11.479c11.479,0 22.957,-2.296 34.436,-6.887c6.887,-2.296 13.774,-6.888 20.661,-13.775c0,6.887 0,11.479 4.591,13.775c4.592,2.295 11.479,4.591 22.957,4.591c2.296,0 4.592,-2.296 6.888,-2.296c0,-2.295 2.295,-4.591 2.295,-6.887c0,-2.296 -2.295,-4.591 -2.295,-6.887c-2.296,0 -4.592,-2.296 -6.888,-2.296c-2.295,0 -6.887,0 -6.887,-2.295c-2.295,-2.296 -4.591,-4.592 -4.591,-6.887l0,-94.124c0,-16.07 -4.591,-27.549 -16.07,-34.436c-9.183,-6.887 -25.253,-9.183 -41.323,-9.183Z" style="fill:#205d76;fill-rule:nonzero;"/><path id="1" d="M796.609,1136.37c0,-2.296 -2.296,-4.592 -4.592,-6.887c0,-2.296 -2.295,-2.296 -4.591,-2.296c-2.296,0 -4.591,0 -6.887,2.296c-2.296,2.295 -2.296,4.591 -2.296,6.887l0,78.054c-6.887,-9.183 -13.774,-16.07 -22.957,-20.662c-9.183,-4.591 -18.365,-6.887 -29.844,-6.887c-20.661,0 -39.027,9.183 -52.801,25.253c-11.479,16.07 -16.07,34.436 -16.07,59.688c0,22.957 4.591,41.323 16.07,57.393c13.774,18.366 32.14,25.253 52.801,25.253c13.774,0 22.957,-2.296 32.14,-6.887c9.183,-4.592 16.07,-11.479 20.661,-18.366l0,13.774c0,2.296 0,4.592 2.296,6.887c2.296,0 2.296,2.296 6.887,2.296c2.296,0 4.591,0 4.591,-2.296c2.296,-2.295 4.592,-4.591 4.592,-6.887l0,-206.613ZM725.442,1202.95c18.366,0 29.844,6.887 39.027,20.662c9.183,13.774 13.774,27.548 13.774,48.209c0,18.366 -4.591,34.436 -13.774,45.914c-9.183,13.775 -20.661,20.662 -39.027,20.662c-16.07,0 -29.844,-6.887 -39.027,-20.662c-6.887,-11.478 -11.478,-27.548 -11.478,-45.914c0,-20.661 4.591,-34.435 11.478,-48.209c9.183,-13.775 22.957,-20.662 39.027,-20.662Z" style="fill:#205d76;fill-rule:nonzero;"/><path id="2" d="M897.62,1186.88c-16.07,0 -29.844,2.296 -39.027,9.183c-11.479,6.887 -16.07,18.366 -16.07,32.14c0,11.478 4.591,20.661 11.478,29.844c9.183,6.887 20.662,11.479 39.027,16.07c20.662,4.591 32.14,9.183 39.027,16.07c6.887,4.591 9.183,11.478 9.183,18.366c0,9.182 -2.296,16.07 -9.183,20.661c-6.887,6.887 -18.365,9.183 -29.844,9.183c-16.07,0 -27.548,-2.296 -34.435,-9.183c-6.887,-4.591 -9.183,-13.774 -9.183,-22.957c0,-2.296 -2.296,-4.592 -4.592,-6.887c0,0 -2.295,-2.296 -4.591,-2.296c-4.591,0 -4.591,2.296 -6.887,2.296c-2.296,2.295 -2.296,4.591 -2.296,6.887c0,16.07 4.592,27.548 16.07,36.731c11.479,6.887 25.253,11.479 45.914,11.479c18.366,0 34.436,-4.592 43.619,-13.775c9.182,-6.887 13.774,-18.365 13.774,-32.139c0,-13.775 -2.296,-22.957 -11.479,-29.845c-9.183,-9.182 -22.957,-16.069 -43.618,-20.661c-16.07,-4.591 -27.549,-9.183 -34.436,-13.774c-6.887,-4.592 -9.182,-11.479 -9.182,-18.366c0,-6.887 2.295,-13.774 9.182,-18.365c6.887,-2.296 16.07,-4.592 25.253,-4.592c13.774,0 22.957,2.296 29.844,6.887c6.887,4.592 11.479,11.479 11.479,20.662c0,2.295 2.295,4.591 4.591,4.591c0,2.296 2.296,2.296 6.887,2.296c2.296,0 4.592,0 4.592,-2.296c2.295,-2.296 4.591,-4.591 4.591,-6.887c-2.296,-11.479 -6.887,-22.957 -16.07,-29.844c-9.183,-9.183 -25.253,-11.479 -43.618,-11.479Z" style="fill:#205d76;fill-rule:nonzero;"/></g></svg>