<?xml version="1.0" standalone="no"?><!DOCTYPE svg PUBLIC "-//W3C//DTD SVG 1.1//EN" "http://www.w3.org/Graphics/SVG/1.1/DTD/svg11.dtd"><svg width="100%" height="100%" viewBox="0 0 1966 1966" version="1.1" xmlns="http://www.w3.org/2000/svg" xmlns:xlink="http://www.w3.org/1999/xlink" xml:space="preserve" style="fill-rule:evenodd;clip-rule:evenodd;stroke-linecap:round;stroke-linejoin:round;stroke-miterlimit:1.41421;"><g id="_874976432_"><path d="M1629.6,934.488c13.81,-9.207 16.112,-25.318 6.905,-55.24c-9.207,-27.621 -29.922,-66.75 -64.447,-87.465c-32.224,-20.715 -80.56,-20.715 -119.688,-34.525c-36.827,-13.81 -62.146,-39.129 -89.766,-43.732c-29.922,-4.604 -62.146,13.81 -85.163,36.827c-23.017,25.318 -39.129,57.542 -55.241,85.162c-18.413,29.922 -39.129,57.543 -48.335,87.465c-9.207,29.922 -6.906,62.146 -18.414,92.068c-13.81,32.223 -41.431,62.145 -75.956,87.464c-18.414,13.81 -39.129,27.62 -50.637,36.827c-9.207,6.905 -11.509,11.509 -6.905,11.509c13.81,2.301 78.257,-11.509 128.895,-27.621c50.637,-18.413 87.464,-36.827 115.084,-46.034c29.922,-11.508 48.336,-16.112 85.163,-18.413c36.827,-4.604 87.464,-9.207 115.085,-20.715c27.62,-9.207 29.922,-23.017 41.43,-39.129c11.509,-16.112 32.224,-32.224 55.241,-41.431c25.319,-9.207 52.939,-13.81 66.749,-23.017Z" style="fill:#ffa09e;"/><g><path d="M796.387,1153.15c-39.129,-4.603 -110.482,-9.206 -163.421,-6.905c-52.939,4.604 -89.766,13.81 -121.99,9.207c-29.922,-6.905 -57.542,-27.62 -92.067,-57.542c-32.224,-29.922 -71.353,-69.051 -85.163,-101.275c-16.112,-29.922 -9.207,-50.637 0,-64.447c11.508,-13.811 27.62,-20.716 50.637,-20.716c23.017,2.302 52.939,11.509 85.163,11.509c29.922,0 62.146,-6.905 87.464,-11.509c27.621,-2.301 48.336,-2.301 73.654,2.302c23.017,6.905 48.336,16.112 85.163,59.844c34.526,43.732 85.163,119.688 105.878,154.214c20.715,36.827 13.81,29.922 -25.318,25.318Z" style="fill:#62d4d4;"/><path d="M881.549,1585.87c20.716,-135.8 43.732,-271.6 2.302,-361.366c-43.732,-89.766 -149.61,-133.498 -255.488,-174.929" style="fill:none;stroke-width:31.96px;stroke:#205d76;"/><path d="M906.868,1362.6c-2.302,-66.75 -6.905,-133.499 20.715,-170.326c25.319,-34.525 82.861,-41.43 126.593,-64.447c41.431,-23.017 66.75,-59.844 98.973,-94.37c34.526,-34.525 73.655,-64.447 101.275,-80.559c27.62,-18.414 41.43,-23.017 55.241,-27.621" style="fill:none;stroke-width:31.96px;stroke:#205d76;"/><path d="M904.566,1293.55c-9.207,-48.336 -16.112,-94.37 -13.81,-128.895c2.302,-34.526 13.81,-57.543 18.414,-80.56c2.301,-25.318 -4.604,-50.637 -9.207,-75.956" style="fill:none;stroke-width:31.96px;stroke:#205d76;"/><path d="M899.963,384.383c-75.956,-9.207 -156.515,4.603 -214.058,23.017c-57.542,20.715 -92.068,50.637 -115.085,92.068c-23.017,41.43 -36.827,98.973 -39.128,156.515c-2.302,57.543 6.905,115.085 23.017,161.119c13.81,48.335 34.525,82.861 71.352,119.688c34.526,36.827 82.861,73.654 133.498,89.766c50.638,16.112 103.577,13.81 156.516,6.905c50.637,-9.207 103.576,-20.715 149.61,-43.732c46.034,-20.715 85.163,-50.637 115.085,-103.576c32.223,-52.939 57.542,-128.895 57.542,-186.438c2.302,-57.542 -18.414,-96.671 -41.431,-135.8c-69.05,-105.878 -170.325,-165.722 -296.918,-179.532Z" style="fill:#ffc122;"/><path d="M883.851,481.054l-2.302,-32.223c0,-9.207 -6.905,-13.811 -16.112,-11.509c-11.508,0 -13.81,4.603 -13.81,16.112l2.302,29.922c-34.526,4.603 -62.146,18.414 -82.861,39.129c-20.715,23.017 -32.224,50.637 -27.62,85.163c2.301,29.922 13.81,52.939 36.827,69.05c20.715,16.112 52.939,25.319 92.067,32.224l16.112,179.532c-29.922,-2.301 -50.637,-6.905 -69.051,-18.413c-20.715,-16.112 -34.525,-41.431 -36.827,-73.654c0,-6.906 -2.301,-13.811 -6.905,-16.112c-2.301,-2.302 -6.905,-4.604 -11.508,-4.604c-4.604,0 -9.207,2.302 -11.509,6.905c-2.301,4.604 -4.603,9.207 -4.603,16.112c4.603,46.034 23.017,80.56 52.939,101.275c20.715,13.81 50.637,20.715 89.766,20.715l4.603,41.431c0,11.508 4.604,16.111 16.112,16.111c9.207,-2.301 13.81,-6.905 13.81,-18.413l-4.603,-41.431c36.827,-6.905 64.448,-20.715 87.464,-43.732c23.017,-23.017 34.526,-52.939 32.224,-87.464c-4.603,-32.224 -16.112,-55.241 -39.129,-71.353c-20.715,-13.81 -55.24,-25.318 -98.972,-34.525l-16.112,-168.024c23.017,0 39.128,4.603 52.939,11.509c18.413,11.508 29.922,29.922 32.223,55.24c0,6.905 2.302,11.509 6.905,16.112c4.604,2.302 9.207,4.603 13.811,2.302c4.603,0 9.206,-2.302 11.508,-4.604c4.603,-4.603 4.603,-11.508 4.603,-18.413c-2.301,-29.922 -16.111,-52.939 -36.827,-71.353c-23.017,-16.112 -52.939,-23.017 -87.464,-23.017ZM856.231,515.58l13.81,161.118c-29.922,-6.905 -52.939,-13.81 -66.749,-27.62c-13.811,-11.508 -23.017,-27.62 -23.017,-48.336c-2.302,-23.017 4.603,-43.732 23.017,-59.844c13.81,-11.508 32.223,-20.715 52.939,-25.318ZM918.376,886.153l-13.81,-170.326c34.526,4.604 59.844,13.81 71.353,23.017c16.112,11.509 23.017,29.922 25.318,55.241c2.302,25.318 -4.603,48.335 -25.318,64.447c-16.112,13.81 -34.526,23.017 -57.543,27.621Z" style="fill:#fff;fill-rule:nonzero;"/></g></g></svg>