<?xml version="1.0" standalone="no"?><!DOCTYPE svg PUBLIC "-//W3C//DTD SVG 1.1//EN" "http://www.w3.org/Graphics/SVG/1.1/DTD/svg11.dtd"><svg width="100%" height="100%" viewBox="0 0 1953 1953" version="1.1" xmlns="http://www.w3.org/2000/svg" xmlns:xlink="http://www.w3.org/1999/xlink" xml:space="preserve" style="fill-rule:evenodd;clip-rule:evenodd;stroke-linecap:round;stroke-linejoin:round;stroke-miterlimit:1.41421;"><g id="_800663008_"><path d="M381.904,880.437c-29.729,114.342 -45.737,246.979 -27.443,359.035c18.295,109.769 70.893,198.956 137.211,267.561c66.319,68.605 144.072,114.342 205.817,137.211c61.745,22.868 107.482,20.582 171.513,-16.008c64.032,-36.59 144.072,-105.195 201.243,-180.661c54.884,-75.466 89.187,-155.506 100.621,-265.274c9.148,-107.482 -4.573,-242.406 -38.876,-343.028c-34.303,-100.621 -91.474,-166.94 -166.94,-217.25c-73.179,-48.024 -164.653,-80.04 -246.98,-84.614c-82.326,-6.86 -155.505,16.008 -212.677,75.466c-54.884,57.172 -96.047,153.219 -123.489,267.562Z" style="fill:none;stroke-width:31.75px;stroke:#205d76;"/><path d="M599.154,631.17c0,32.016 6.861,75.466 25.156,112.056c16.008,36.589 43.45,66.318 66.318,91.474c22.869,22.868 41.163,38.876 54.885,64.031c13.721,25.156 20.581,61.745 50.31,82.327c27.442,22.868 77.753,32.016 130.351,48.024c52.597,13.721 107.481,34.302 146.358,57.171c38.876,22.868 61.745,48.024 68.605,75.466c4.574,25.155 -4.573,54.884 -11.434,86.9c-9.147,32.016 -11.434,66.319 -41.163,121.203c-27.442,54.885 -84.614,128.064 -102.908,164.653c-18.295,36.59 -2.287,34.303 50.31,0c50.311,-34.303 137.211,-105.195 235.546,-137.211c98.334,-32.016 208.103,-25.155 278.995,-38.876c68.606,-16.008 96.048,-50.311 100.621,-100.621c2.287,-50.311 -20.581,-118.917 -18.294,-173.801c2.287,-54.884 29.729,-98.334 57.171,-139.498c29.729,-38.876 64.032,-73.179 61.745,-114.342c0,-43.45 -32.016,-93.761 -80.04,-125.777c-48.024,-29.729 -114.342,-43.45 -180.661,-43.45c-68.605,2.287 -137.211,16.008 -196.669,-13.721c-57.171,-29.729 -105.195,-105.195 -153.219,-164.653c-48.024,-59.458 -100.621,-107.482 -150.932,-137.211c-52.597,-29.729 -105.195,-43.45 -176.087,-50.311c-70.892,-4.573 -160.079,-4.573 -217.251,11.435c-57.171,16.008 -82.326,48.023 -100.621,86.9c-18.295,36.589 -29.729,80.04 -57.171,109.769c-27.442,29.729 -73.179,45.737 -102.908,61.745c-27.442,18.294 -41.164,36.589 -68.606,86.9c-27.442,50.31 -68.605,132.637 -64.031,201.242c2.286,66.319 50.31,121.203 80.039,192.096c29.729,73.179 38.877,166.94 54.885,226.398c18.294,59.458 41.163,84.613 45.737,80.039c4.573,-6.86 -9.148,-43.45 -11.435,-86.9c-2.287,-45.737 4.574,-96.048 32.016,-139.498c27.442,-45.737 75.466,-80.039 100.621,-125.776c27.443,-43.45 34.303,-96.048 41.164,-144.072c4.573,-48.024 9.147,-89.187 20.581,-139.497c9.148,-50.311 22.869,-107.482 27.443,-125.777c4.573,-16.008 2.286,9.147 4.573,41.163Z" style="fill:#ffa09e;"/><path d="M283.569,1031.37c-11.434,-4.574 -22.868,-9.148 -34.303,-6.861c-11.434,2.287 -22.868,11.434 -32.015,25.155c-6.861,13.721 -11.435,34.303 -11.435,54.885c0,22.868 4.574,43.45 16.008,64.031c11.435,18.295 32.016,34.303 41.164,48.024c9.147,16.008 11.434,27.442 22.868,38.877c13.721,11.434 36.59,25.155 59.458,38.876" style="fill:none;stroke-width:31.75px;stroke:#205d76;"/><path d="M562.565,1399.55c20.581,18.295 38.876,36.59 68.605,52.598c27.442,16.008 66.319,27.442 102.908,32.016c38.877,4.573 77.753,2.286 112.056,-13.722c36.589,-16.007 66.318,-43.45 96.048,-70.892" style="fill:none;stroke-width:31.75px;stroke:#205d76;"/><path d="M1319.51,496.246c9.148,25.155 25.156,61.745 50.311,80.04c27.442,20.581 61.745,22.868 96.048,25.155c34.302,2.287 66.318,2.287 93.761,-9.147c25.155,-9.148 43.45,-32.016 32.015,-48.024c-11.434,-16.008 -52.597,-29.729 -96.047,-48.024c-45.737,-18.295 -91.474,-43.45 -123.49,-54.884c-29.729,-9.148 -43.45,-4.574 -50.311,4.573c-6.86,9.148 -9.147,25.156 -2.287,50.311Z" style="fill:#ffa09e;"/></g></svg>