<?xml version="1.0" standalone="no"?><!DOCTYPE svg PUBLIC "-//W3C//DTD SVG 1.1//EN" "http://www.w3.org/Graphics/SVG/1.1/DTD/svg11.dtd"><svg width="100%" height="100%" viewBox="0 0 4309 1965" version="1.1" xmlns="http://www.w3.org/2000/svg" xmlns:xlink="http://www.w3.org/1999/xlink" xml:space="preserve" style="fill-rule:evenodd;clip-rule:evenodd;stroke-linecap:round;stroke-linejoin:round;stroke-miterlimit:1.41421;"><g id="_801173008_"><path d="M2943.49,1225l-80,0l0,-726c0,-44 36,-80 80,-80l80,0l0,727c0,44 -36,79 -80,79Z" style="fill:#205d76;"/><path d="M3464.49,419c56,0 108,10 157,31c48,21 91,50 127,86c37,37 66,80 87,128c20,49 31,101 31,157l0,404l-402,0c-56,0 -108,-10 -157,-31c-49,-21 -92,-50 -129,-87c-37,-37 -66,-80 -87,-129c-21,-50 -32,-102 -32,-157c0,-56 11,-108 32,-157c21,-48 50,-91 87,-128c37,-36 80,-65 129,-86c49,-21 101,-31 157,-31ZM3706.49,1066l0,-245c0,-33 -6,-65 -19,-94c-12,-29 -30,-55 -52,-77c-22,-22 -48,-40 -77,-52c-29,-13 -61,-19 -94,-19c-34,0 -66,6 -96,19c-30,12 -56,30 -78,52c-22,22 -39,48 -52,77c-12,29 -19,61 -19,94c0,34 7,66 19,95c13,30 30,56 52,79c22,22 48,39 78,52c30,12 62,19 96,19l242,0Z" style="fill:#205d76;"/><path d="M3992.49,1225l79,0l0,-1145c0,-44 -35,-80 -79,-80l-80,0l0,1146c0,44 36,79 80,79Z" style="fill:#205d76;"/><path d="M3971.49,257l-101,0l-109,0c-44,0 -80,35 -80,77l0,76l399,0c44,0 80,-34 80,-76l0,-77l-189,0Z" style="fill:#205d76;"/><path d="M4217.49,1043c-50,0 -91,41 -91,91l0,91l91,0c50,0 91,-41 91,-91c0,-50 -41,-91 -91,-91Z" style="fill:#ffc122;"/><path d="M2383.49,419c57,0 109,10 158,31c48,21 91,50 127,86c37,37 65,80 86,128c21,49 32,101 32,157l0,404l-403,0c-55,0 -107,-10 -156,-31c-49,-21 -92,-50 -129,-87c-37,-37 -66,-80 -87,-129c-21,-50 -32,-102 -32,-157c0,-56 11,-108 32,-157c21,-48 50,-91 87,-128c37,-36 80,-65 129,-86c49,-21 101,-31 156,-31ZM2626.49,1066l0,-245c0,-33 -6,-65 -19,-94c-13,-29 -30,-55 -52,-77c-22,-22 -48,-40 -77,-52c-30,-13 -61,-19 -95,-19c-33,0 -65,6 -95,19c-30,12 -56,30 -78,52c-22,22 -40,48 -52,77c-13,29 -19,61 -19,94c0,34 6,66 19,95c12,30 30,56 52,79c22,22 48,39 78,52c30,12 62,19 95,19l243,0Z" style="fill:#205d76;"/><path d="M2706.49,1423l80,0l0,-653c0,-44 -36,-79 -80,-79l-80,0l0,653c0,44 36,79 80,79Z" style="fill:#205d76;"/><path d="M2443.49,1965c48,0 92,-9 134,-27c41,-18 77,-43 108,-74c32,-31 56,-67 74,-109c18,-41 27,-86 27,-134l0,-345l-343,0c-47,0 -92,9 -134,27c-42,18 -78,43 -110,75c-32,31 -57,68 -74,110c-18,42 -27,86 -27,133c0,48 9,93 27,134c17,42 42,78 74,109c32,31 68,56 110,74c42,18 87,27 134,27ZM2633.49,1413c0,127 16,337 -110,399c-24,12 -52,16 -80,16c-29,0 -56,-5 -82,-16c-25,-11 -47,-25 -66,-44c-19,-19 -34,-41 -45,-66c-11,-25 -16,-52 -16,-81c0,-28 5,-55 16,-81c11,-25 26,-48 45,-67c19,-19 41,-33 66,-44c26,-11 53,-16 82,-16l190,0Z" style="fill:#205d76;"/><path d="M3023.49,1346l0,-67l-447,0c-37,0 -67,30 -67,67l0,67l447,0c37,0 67,-30 67,-67Z" style="fill:#205d76;"/><path d="M2706.49,1225l80,0l0,-726c0,-44 -36,-80 -80,-80l-80,0l0,727c0,44 36,79 80,79Z" style="fill:#205d76;"/><circle cx="709.489" cy="418" r="313" style="fill:#205d76;stroke-width:111.11px;stroke:#205d76;"/><path d="M396.489,418c7,191 13,382 -20,484c-34,101 -107,114 -161,106c-55,-8 -90,-36 -107,-72c-17,-35 -14,-77 -5,-105c10,-27 26,-40 43,-52" style="fill:none;stroke-width:111.11px;stroke:#205d76;"/><path d="M1022.49,418c-7,191 -13,382 20,484c34,101 107,114 161,106c55,-8 91,-36 107,-72c17,-35 14,-77 -3,-111c-16,-34 -47,-59 -78,-84" style="fill:none;stroke-width:111.11px;stroke:#205d76;"/><path d="M865.489,690c4,185 8,371 35,481c28,110 78,146 122,163c43,17 78,15 108,4c30,-12 55,-35 67,-60c12,-24 11,-51 4,-71c-7,-20 -19,-34 -32,-49" style="fill:none;stroke-width:111.11px;stroke:#205d76;"/><path d="M709.489,732c0,234 0,468 0,703" style="fill:none;stroke-width:111.11px;stroke:#205d76;"/><path d="M553.489,690c1,149 3,297 -3,417c-5,120 -18,211 -57,261c-38,51 -102,61 -150,52c-47,-9 -77,-37 -96,-68c-19,-30 -27,-63 -26,-90c1,-28 11,-51 23,-68c12,-17 25,-28 39,-40" style="fill:none;stroke-width:111.11px;stroke:#205d76;"/><path d="M709.489,1412c0,40 0,81 11,112c11,32 33,53 60,63c28,10 61,8 86,-4c24,-12 40,-33 46,-58c7,-24 3,-50 -5,-70c-8,-19 -21,-31 -33,-43" style="fill:none;stroke-width:111.11px;stroke:#205d76;"/><g><path d="M570.489,303c25,0 46,21 46,46c0,7 -2,15 -6,21c-7,-14 -22,-24 -40,-24c-17,0 -32,10 -40,24c-3,-6 -5,-14 -5,-21c0,-25 20,-46 45,-46Z" style="fill:#fff;"/><path d="M847.489,303c25,0 45,21 45,46c0,7 -2,15 -5,21c-8,-14 -23,-24 -40,-24c-17,0 -32,10 -40,24c-4,-6 -5,-14 -5,-21c0,-25 20,-46 45,-46Z" style="fill:#fff;"/></g></g></svg>