<?xml version="1.0" standalone="no"?><!DOCTYPE svg PUBLIC "-//W3C//DTD SVG 1.1//EN" "http://www.w3.org/Graphics/SVG/1.1/DTD/svg11.dtd"><svg width="100%" height="100%" viewBox="0 0 1967 1967" version="1.1" xmlns="http://www.w3.org/2000/svg" xmlns:xlink="http://www.w3.org/1999/xlink" xml:space="preserve" style="fill-rule:evenodd;clip-rule:evenodd;stroke-linejoin:round;stroke-miterlimit:1.41421;"><g id="_874981136_"><path d="M488.559,312.668l1.166,0.002l1.175,0.003l1.184,0.004l1.194,0.005l1.204,0.006l1.213,0.007l1.223,0.008l1.232,0.009l1.242,0.01l1.253,0.011l1.264,0.011l2.552,0.026l2.594,0.03l2.634,0.032l2.676,0.035l2.717,0.038l2.76,0.04l2.801,0.043l2.844,0.044l2.887,0.047l2.931,0.048l5.991,0.102l6.175,0.106l3.106,0.055l3.151,0.056l3.197,0.058l3.241,0.06l3.285,0.062l3.33,0.063l6.784,0.13l6.949,0.137l7.108,0.143l7.261,0.149l7.408,0.154l7.548,0.16l7.684,0.165l7.813,0.17l7.936,0.175l8.054,0.18l8.165,0.185l8.27,0.189l8.369,0.194l8.463,0.197l8.551,0.202l8.632,0.206l8.708,0.21l8.777,0.213l8.842,0.216l8.899,0.22l8.951,0.223l8.997,0.226l9.036,0.228l9.071,0.232l9.099,0.233l9.121,0.237l9.137,0.238l9.148,0.24l9.152,0.242l9.15,0.244l9.142,0.245l9.129,0.247l9.109,0.248l9.084,0.249l9.052,0.25l9.015,0.25l8.972,0.252l8.922,0.251l8.867,0.252l8.806,0.252l8.739,0.252l8.665,0.252l8.587,0.251l8.502,0.251l8.411,0.25l8.314,0.249l8.211,0.249l8.102,0.247l7.988,0.245l7.867,0.245l7.74,0.243l7.608,0.241l7.47,0.239l7.325,0.237l7.175,0.234l7.019,0.232l6.856,0.23l3.366,0.114l3.323,0.113l3.28,0.113l3.235,0.111l3.191,0.111l3.144,0.11l3.098,0.11l3.053,0.108l3.007,0.108l2.962,0.109l2.916,0.109l2.871,0.108l2.825,0.109l2.782,0.11l2.737,0.11l2.693,0.111l2.65,0.111l2.607,0.112l2.564,0.112l2.523,0.114l2.48,0.114l2.437,0.116l1.207,0.058l1.195,0.058l1.184,0.059l1.173,0.059l1.165,0.059l1.154,0.06l1.144,0.06l1.135,0.06l1.124,0.061l1.115,0.061l1.105,0.062l1.096,0.061l1.086,0.063l1.078,0.062l1.067,0.063l1.057,0.064l1.049,0.064l1.038,0.064l1.03,0.065l1.021,0.065l1.012,0.066l1.003,0.066l0.994,0.067l0.984,0.067l0.976,0.068l0.967,0.068l0.959,0.069l0.949,0.069l0.94,0.07l0.933,0.071l0.924,0.071l0.916,0.072l0.906,0.072l0.898,0.073l0.892,0.073l0.882,0.075l0.874,0.075l0.865,0.075l0.859,0.077l0.85,0.077l0.84,0.077l0.835,0.079l0.827,0.079l0.817,0.08l0.812,0.081l0.803,0.082l0.794,0.082l0.79,0.083l0.781,0.084l0.773,0.085l0.766,0.086l0.759,0.086l0.753,0.088l0.744,0.088l0.737,0.09l0.732,0.09l0.724,0.092l0.718,0.092l0.709,0.093l0.704,0.095l0.697,0.095l0.69,0.096l0.686,0.098l0.678,0.099l0.67,0.1l0.667,0.101l0.66,0.102l0.651,0.103l0.647,0.105l0.642,0.106l0.636,0.107l0.63,0.109l0.622,0.11l0.618,0.111l0.614,0.113l0.606,0.114l0.603,0.116l0.597,0.117l0.59,0.119l0.586,0.12l0.58,0.122l0.576,0.123l0.573,0.126l0.565,0.127l0.562,0.128l0.557,0.131l0.552,0.132l0.548,0.135l0.541,0.136l0.54,0.139l0.534,0.14l0.531,0.142l0.526,0.145l0.521,0.147l0.518,0.149l0.517,0.152l0.509,0.154l0.504,0.156l0.505,0.16l0.5,0.161l0.494,0.164l0.492,0.167l0.489,0.17l0.475,0.169l0.256,0.093l0.233,0.085l0.239,0.089l0.243,0.091l0.242,0.092l0.233,0.09l0.233,0.091l0.24,0.095l0.236,0.093l0.233,0.095l0.23,0.094l0.235,0.097l0.232,0.097l0.232,0.099l0.236,0.101l0.227,0.099l0.221,0.097l0.231,0.102l0.233,0.106l0.224,0.102l0.223,0.103l0.228,0.107l0.227,0.107l0.222,0.107l0.221,0.107l0.22,0.109l0.22,0.109l0.224,0.113l0.223,0.114l0.218,0.113l0.218,0.114l0.222,0.117l0.216,0.117l0.21,0.114l0.216,0.119l0.219,0.122l0.214,0.121l0.218,0.125l0.213,0.123l0.202,0.119l0.211,0.125l0.216,0.13l0.21,0.128l0.204,0.127l0.215,0.134l0.208,0.132l0.197,0.127l0.206,0.134l0.206,0.136l0.206,0.137l0.205,0.139l0.204,0.14l0.193,0.134l0.203,0.143l0.202,0.144l0.195,0.141l0.201,0.147l0.193,0.144l0.197,0.148l0.195,0.148l0.191,0.148l0.191,0.149l0.196,0.156l0.189,0.152l0.189,0.153l0.191,0.158l0.187,0.156l0.181,0.154l0.185,0.159l0.185,0.161l0.184,0.162l0.185,0.166l0.178,0.161l0.174,0.16l0.187,0.174l0.175,0.166l0.17,0.163l0.177,0.172l0.169,0.165l0.178,0.178l0.17,0.173l0.166,0.17l0.172,0.178l0.163,0.173l0.166,0.177l0.165,0.179l0.16,0.176l0.162,0.181l0.159,0.179l0.156,0.179l0.155,0.18l0.155,0.183l0.154,0.183l0.155,0.189l0.155,0.189l0.145,0.182l0.149,0.188l0.143,0.184l0.143,0.185l0.145,0.192l0.147,0.196l0.138,0.188l0.127,0.175l0.144,0.2l0.144,0.204l0.126,0.182l0.13,0.189l0.138,0.204l0.129,0.194l0.119,0.181l0.127,0.196l0.128,0.2l0.118,0.187l0.13,0.209l0.121,0.2l0.107,0.177l0.12,0.201l0.116,0.199l0.112,0.194l0.118,0.206l0.106,0.189l0.106,0.193l0.114,0.208l0.104,0.194l0.103,0.195l0.108,0.207l0.1,0.196l0.107,0.21l0.185,0.373l0.191,0.397l0.184,0.394l0.177,0.39l0.176,0.398l0.168,0.394l0.162,0.387l0.16,0.396l0.152,0.388l0.148,0.386l0.143,0.388l0.141,0.391l0.134,0.383l0.129,0.379l0.129,0.388l0.122,0.381l0.12,0.382l0.114,0.378l0.111,0.372l0.109,0.38l0.105,0.374l0.1,0.369l0.1,0.377l0.096,0.371l0.092,0.366l0.091,0.367l0.088,0.368l0.085,0.363l0.081,0.358l0.082,0.366l0.08,0.367l0.075,0.355l0.075,0.357l0.074,0.365l0.07,0.353l0.07,0.355l0.068,0.356l0.066,0.352l0.065,0.353l0.064,0.349l0.063,0.357l0.062,0.352l0.06,0.348l0.061,0.357l0.115,0.689l0.114,0.697l0.112,0.695l0.109,0.694l0.108,0.693l0.108,0.697l0.228,1.481l0.231,1.628l0.224,1.585l0.226,1.621l0.23,1.657l0.233,1.693l0.236,1.727l0.239,1.763l0.242,1.798l0.245,1.833l0.247,1.866l0.25,1.899l0.253,1.935l0.256,1.968l0.258,2.001l0.261,2.034l0.264,2.068l0.266,2.1l0.268,2.133l0.271,2.164l0.273,2.196l0.275,2.229l0.278,2.259l0.28,2.291l0.282,2.322l0.283,2.351l0.287,2.383l0.288,2.413l0.29,2.442l0.292,2.472l0.293,2.502l0.296,2.531l0.297,2.559l0.299,2.588l0.3,2.617l0.302,2.644l0.304,2.672l0.305,2.7l0.306,2.727l0.308,2.754l0.309,2.781l0.311,2.808l0.311,2.834l0.313,2.859l0.313,2.885l0.315,2.912l0.316,2.936l0.317,2.961l0.318,2.986l0.318,3.01l0.319,3.034l0.32,3.059l0.321,3.082l0.321,3.105l0.322,3.129l0.323,3.151l0.323,3.175l0.323,3.196l0.323,3.218l0.324,3.24l0.325,3.262l0.324,3.284l0.325,3.304l0.324,3.325l0.351,3.616l0.233,3.745l0.217,3.496l0.216,3.518l0.215,3.54l0.215,3.559l0.214,3.578l0.213,3.598l0.212,3.614l0.211,3.631l0.209,3.646l0.208,3.661l0.206,3.674l0.204,3.687l0.202,3.698l0.2,3.71l0.197,3.716l0.099,1.864l0.097,1.867l0.096,1.866l0.096,1.868l0.095,1.872l0.095,1.872l0.093,1.873l0.093,1.875l0.092,1.877l0.091,1.877l0.091,1.878l0.09,1.881l0.088,1.88l0.088,1.88l0.087,1.881l0.086,1.882l0.085,1.883l0.084,1.882l0.084,1.882l0.082,1.884l0.081,1.883l0.08,1.881l0.079,1.881l0.078,1.881l0.076,1.882l0.076,1.88l0.075,1.878l0.073,1.879l0.072,1.877l0.071,1.876l0.07,1.875l0.068,1.874l0.067,1.871l0.066,1.869l0.065,1.869l0.063,1.866l0.062,1.866l0.061,1.862l0.059,1.858l0.058,1.858l0.056,1.857l0.055,1.851l0.053,1.85l0.052,1.847l0.051,1.844l0.049,1.843l0.047,1.837l0.046,1.835l0.044,1.831l0.043,1.828l0.041,1.825l0.039,1.82l0.038,1.816l0.036,1.813l0.034,1.81l0.033,1.804l0.03,1.8l0.029,1.795l0.028,1.792l0.025,1.786l0.024,1.782l0.021,1.777l0.02,1.772l0.018,1.767l0.016,1.762l0.014,1.756l0.013,1.751l0.01,1.746l0.008,1.74l0.006,1.733l0.004,1.728l0.003,1.722l0,1.717l-0.003,1.71l-0.004,1.702l-0.006,1.698l-0.009,1.691l-0.01,1.683l-0.013,1.677l-0.015,1.67l-0.018,1.665l-0.019,1.655l-0.022,1.649l-0.024,1.642l-0.027,1.634l-0.029,1.627l-0.031,1.619l-0.034,1.612l-0.036,1.603l-0.039,1.596l-0.041,1.588l-0.043,1.578l-0.046,1.572l-0.049,1.563l-0.051,1.554l-0.054,1.535l-0.055,1.573l-0.057,1.571l-0.059,1.564l-0.061,1.554l-0.062,1.546l-0.064,1.536l-0.066,1.529l-0.067,1.519l-0.069,1.511l-0.071,1.504l-0.072,1.494l-0.074,1.486l-0.076,1.478l-0.077,1.47l-0.079,1.462l-0.081,1.456l-0.082,1.446l-0.084,1.438l-0.085,1.431l-0.087,1.424l-0.089,1.415l-0.09,1.41l-0.092,1.402l-0.093,1.393l-0.095,1.387l-0.097,1.381l-0.098,1.374l-0.099,1.366l-0.101,1.359l-0.103,1.352l-0.104,1.348l-0.106,1.339l-0.107,1.331l-0.109,1.329l-0.111,1.321l-0.111,1.312l-0.113,1.31l-0.115,1.303l-0.117,1.294l-0.117,1.289l-0.119,1.286l-0.121,1.279l-0.122,1.272l-0.123,1.268l-0.126,1.263l-0.126,1.256l-0.128,1.251l-0.129,1.245l-0.13,1.241l-0.133,1.237l-0.133,1.23l-0.135,1.224l-0.136,1.221l-0.137,1.218l-0.14,1.212l-0.14,1.205l-0.141,1.203l-0.143,1.198l-0.145,1.192l-0.145,1.19l-0.147,1.186l-0.148,1.18l-0.15,1.177l-0.151,1.173l-0.152,1.168l-0.154,1.166l-0.154,1.161l-0.156,1.158l-0.158,1.154l-0.158,1.15l-0.16,1.147l-0.161,1.145l-0.162,1.14l-0.163,1.138l-0.165,1.135l-0.166,1.13l-0.167,1.129l-0.168,1.126l-0.169,1.122l-0.171,1.121l-0.172,1.116l-0.172,1.116l-0.175,1.114l-0.175,1.108l-0.176,1.107l-0.177,1.107l-0.179,1.103l-0.179,1.101l-0.181,1.1l-0.182,1.097l-0.183,1.098l-0.184,1.092l-0.184,1.091l-0.187,1.093l-0.187,1.089l-0.188,1.087l-0.189,1.085l-0.19,1.086l-0.191,1.085l-0.192,1.082l-0.193,1.081l-0.195,1.083l-0.195,1.079l-0.195,1.079l-0.198,1.08l-0.198,1.078l-0.198,1.076l-0.2,1.076l-0.201,1.079l-0.202,1.077l-0.203,1.075l-0.203,1.076l-0.204,1.076l-0.206,1.078l-0.206,1.077l-0.207,1.074l-0.208,1.077l-0.209,1.081l-0.42,2.153l-0.423,2.159l-0.427,2.162l-0.43,2.165l-0.432,2.167l-0.432,2.159l-0.429,2.155l-0.429,2.158l-0.427,2.159l-0.426,2.159l-0.424,2.162l-0.422,2.164l-0.209,1.079l-0.209,1.082l-0.209,1.083l-0.207,1.082l-0.207,1.083l-0.206,1.083l-0.205,1.083l-0.204,1.084l-0.203,1.084l-0.203,1.085l-0.2,1.083l-0.2,1.085l-0.2,1.087l-0.198,1.085l-0.196,1.085l-0.195,1.085l-0.195,1.088l-0.192,1.087l-0.192,1.088l-0.191,1.087l-0.188,1.087l-0.187,1.087l-0.186,1.09l-0.185,1.089l-0.182,1.088l-0.181,1.091l-0.18,1.089l-0.178,1.09l-0.176,1.09l-0.174,1.09l-0.173,1.092l-0.171,1.09l-0.169,1.091l-0.167,1.092l-0.165,1.094l-0.163,1.092l-0.161,1.093l-0.159,1.093l-0.157,1.092l-0.155,1.094l-0.153,1.095l-0.151,1.095l-0.148,1.095l-0.146,1.095l-0.144,1.095l-0.142,1.096l-0.139,1.095l-0.137,1.096l-0.134,1.098l-0.132,1.096l-0.129,1.097l-0.127,1.098l-0.124,1.099l-0.122,1.098l-0.119,1.099l-0.116,1.1l-0.114,1.097l-0.111,1.1l-0.108,1.1l-0.105,1.106l-0.051,0.545l-0.051,0.55l-0.05,0.547l-0.049,0.552l-0.049,0.554l-0.048,0.551l-0.047,0.549l-0.046,0.548l-0.046,0.552l-0.045,0.552l-0.044,0.553l-0.043,0.549l-0.043,0.553l-0.042,0.553l-0.041,0.547l-0.04,0.553l-0.039,0.551l-0.039,0.55l-0.038,0.554l-0.037,0.552l-0.036,0.554l-0.036,0.548l-0.034,0.552l-0.034,0.555l-0.033,0.553l-0.033,0.552l-0.031,0.549l-0.03,0.553l-0.03,0.553l-0.029,0.554l-0.028,0.553l-0.027,0.55l-0.026,0.555l-0.026,0.554l-0.024,0.554l-0.024,0.551l-0.022,0.552l-0.022,0.555l-0.021,0.555l-0.021,0.552l-0.019,0.553l-0.018,0.556l-0.018,0.553l-0.016,0.553l-0.016,0.553l-0.015,0.557l-0.014,0.554l-0.012,0.55l-0.012,0.558l-0.011,0.554l-0.01,0.555l-0.01,0.555l-0.008,0.552l-0.007,0.555l-0.006,0.556l-0.006,0.555l-0.004,0.556l-0.004,0.557l-0.002,0.553l-0.002,0.553l0,0.557l0,0.557l0.002,0.558l0.002,0.554l0.004,0.555l0.004,0.555l0.006,0.554l0.006,0.559l0.008,0.555l0.008,0.556l0.01,0.56l0.01,0.556l0.012,0.556l0.012,0.557l0.014,0.557l0.014,0.557l0.016,0.554l0.017,0.557l0.018,0.562l0.019,0.554l0.02,0.555l0.021,0.562l0.022,0.559l0.023,0.556l0.024,0.556l0.026,0.559l0.026,0.56l0.028,0.557l0.028,0.557l0.03,0.56l0.031,0.557l0.032,0.558l0.033,0.561l0.034,0.558l0.035,0.559l0.037,0.558l0.038,0.559l0.039,0.563l0.039,0.559l0.041,0.556l0.042,0.561l0.044,0.559l0.044,0.561l0.046,0.561l0.047,0.561l0.048,0.561l0.049,0.558l0.013,0.151l0.042,0.283l0.051,0.347l0.052,0.343l0.053,0.349l0.052,0.338l0.111,0.7l0.112,0.696l0.116,0.699l0.119,0.703l0.121,0.704l0.124,0.704l0.126,0.706l0.13,0.712l0.132,0.713l0.133,0.712l0.137,0.717l0.139,0.721l0.14,0.719l0.143,0.724l0.145,0.726l0.146,0.724l0.149,0.732l0.15,0.732l0.151,0.73l0.154,0.739l0.154,0.739l0.155,0.738l0.157,0.739l0.317,1.495l0.32,1.499l0.323,1.506l0.325,1.516l0.325,1.524l0.325,1.529l0.163,0.77l0.163,0.772l0.162,0.775l0.161,0.775l0.16,0.777l0.16,0.778l0.16,0.785l0.158,0.785l0.156,0.782l0.156,0.79l0.155,0.792l0.152,0.792l0.151,0.793l0.15,0.798l0.148,0.799l0.146,0.802l0.144,0.805l0.141,0.803l0.139,0.807l0.137,0.811l0.135,0.813l0.132,0.817l0.127,0.806l0.064,0.415l0.063,0.412l0.062,0.413l0.061,0.413l0.06,0.408l2.287,15.871l-20.599,3.437l-2.571,0.43l-2.557,0.429l-2.544,0.43l-1.262,0.214l-1.256,0.214l-1.252,0.214l-1.246,0.214l-1.237,0.214l-1.231,0.213l-1.224,0.214l-1.214,0.213l-1.206,0.213l-1.198,0.213l-1.185,0.212l-1.178,0.212l-1.168,0.212l-1.154,0.211l-1.144,0.212l-1.133,0.211l-1.118,0.21l-1.107,0.211l-1.095,0.21l-1.077,0.209l-1.065,0.209l-0.676,0.135l-0.137,0.034l-0.503,0.127l-0.497,0.128l-0.503,0.13l-0.497,0.129l-0.494,0.13l-0.498,0.132l-0.491,0.132l-0.486,0.131l-0.49,0.134l-0.489,0.135l-0.484,0.134l-0.48,0.135l-0.484,0.137l-0.48,0.136l-0.478,0.138l-0.479,0.139l-0.471,0.138l-0.472,0.14l-0.471,0.14l-0.469,0.141l-0.47,0.143l-0.466,0.143l-0.463,0.142l-0.462,0.144l-0.461,0.145l-0.459,0.146l-0.457,0.146l-0.456,0.147l-0.453,0.147l-0.455,0.149l-0.451,0.149l-0.445,0.148l-0.448,0.151l-0.448,0.152l-0.443,0.151l-0.442,0.152l-0.441,0.153l-0.439,0.155l-0.437,0.154l-0.435,0.155l-0.437,0.157l-0.433,0.156l-0.427,0.156l-0.433,0.159l-0.427,0.159l-0.422,0.158l-0.428,0.161l-0.428,0.162l-0.416,0.16l-0.419,0.162l-0.423,0.164l-0.413,0.162l-0.413,0.164l-0.418,0.166l-0.412,0.166l-0.41,0.166l-0.409,0.166l-0.407,0.168l-0.405,0.168l-0.404,0.168l-0.404,0.17l-0.401,0.17l-0.4,0.172l-0.402,0.173l-0.396,0.171l-0.392,0.172l-0.397,0.175l-0.391,0.174l-0.392,0.175l-0.39,0.176l-0.387,0.176l-0.387,0.177l-0.386,0.178l-0.385,0.179l-0.383,0.179l-0.378,0.179l-0.381,0.181l-0.378,0.181l-0.374,0.18l-0.378,0.184l-0.374,0.183l-0.373,0.184l-0.374,0.186l-0.37,0.185l-0.366,0.185l-0.365,0.185l-0.369,0.189l-0.365,0.188l-0.363,0.189l-0.361,0.188l-0.356,0.188l-0.362,0.192l-0.362,0.193l-0.354,0.191l-0.353,0.191l-0.354,0.194l-0.354,0.194l-0.353,0.196l-0.349,0.194l-0.349,0.197l-0.348,0.197l-0.345,0.196l-0.345,0.198l-0.344,0.199l-0.343,0.2l-0.339,0.199l-0.344,0.202l-0.339,0.202l-0.334,0.2l-0.34,0.204l-0.333,0.202l-0.332,0.204l-0.336,0.206l-0.332,0.206l-0.329,0.205l-0.329,0.207l-0.331,0.209l-0.323,0.206l-0.325,0.209l-0.329,0.212l-0.323,0.21l-0.321,0.21l-0.323,0.213l-0.319,0.211l-0.318,0.213l-0.318,0.214l-0.316,0.214l-0.316,0.215l-0.319,0.219l-0.312,0.215l-0.31,0.216l-0.31,0.217l-0.314,0.221l-0.309,0.22l-0.307,0.218l-0.307,0.221l-0.306,0.222l-0.309,0.224l-0.304,0.223l-0.3,0.222l-0.299,0.222l-0.306,0.229l-0.3,0.226l-0.294,0.222l-0.303,0.231l-0.296,0.228l-0.296,0.228l-0.299,0.233l-0.291,0.227l-0.29,0.229l-0.294,0.233l-0.293,0.233l-0.29,0.233l-0.29,0.235l-0.29,0.235l-0.286,0.234l-0.288,0.237l-0.284,0.236l-0.284,0.236l-0.284,0.239l-0.284,0.24l-0.286,0.243l-0.279,0.239l-0.278,0.239l-0.283,0.245l-0.277,0.241l-0.278,0.244l-0.277,0.244l-0.276,0.246l-0.278,0.247l-0.274,0.247l-0.274,0.248l-0.27,0.245l-0.272,0.249l-0.273,0.252l-0.27,0.25l-0.269,0.251l-0.27,0.254l-0.268,0.252l-0.266,0.253l-0.268,0.256l-0.265,0.255l-0.264,0.255l-0.268,0.261l-0.262,0.256l-0.259,0.255l-0.265,0.263l-0.262,0.261l-0.259,0.26l-0.261,0.263l-0.259,0.263l-0.257,0.261l-0.258,0.266l-0.257,0.265l-0.254,0.264l-0.258,0.27l-0.255,0.267l-0.252,0.267l-0.256,0.271l-0.253,0.271l-0.251,0.27l-0.252,0.272l-0.25,0.273l-0.25,0.273l-0.249,0.274l-0.25,0.277l-0.247,0.275l-0.247,0.277l-0.248,0.279l-0.246,0.278l-0.242,0.276l-0.246,0.282l-0.248,0.285l-0.242,0.281l-0.242,0.282l-0.243,0.285l-0.241,0.283l-0.242,0.287l-0.244,0.29l-0.238,0.285l-0.238,0.287l-0.239,0.29l-0.239,0.29l-0.238,0.292l-0.235,0.289l-0.237,0.293l-0.236,0.294l-0.238,0.297l-0.235,0.296l-0.23,0.291l-0.237,0.302l-0.233,0.298l-0.231,0.297l-0.234,0.302l-0.232,0.302l-0.232,0.302l-0.228,0.299l-0.23,0.305l-0.23,0.305l-0.23,0.307l-0.23,0.308l-0.227,0.306l-0.226,0.307l-0.226,0.307l-0.23,0.315l-0.225,0.309l-0.224,0.311l-0.226,0.314l-0.223,0.312l-0.226,0.318l-0.224,0.316l-0.224,0.318l-0.221,0.315l-0.198,0.284l-0.174,0.284l-0.198,0.326l-0.197,0.324l-0.198,0.329l-0.199,0.331l-0.198,0.332l-0.199,0.335l-0.198,0.334l-0.198,0.335l-0.197,0.337l-0.198,0.338l-0.197,0.339l-0.197,0.341l-0.199,0.344l-0.195,0.339l-0.196,0.345l-0.198,0.347l-0.198,0.349l-0.196,0.348l-0.196,0.35l-0.196,0.351l-0.197,0.353l-0.196,0.353l-0.193,0.351l-0.195,0.354l-0.196,0.358l-0.196,0.36l-0.195,0.359l-0.195,0.362l-0.193,0.358l-0.193,0.361l-0.195,0.367l-0.195,0.367l-0.193,0.364l-0.192,0.366l-0.193,0.368l-0.193,0.369l-0.192,0.371l-0.192,0.372l-0.192,0.372l-0.193,0.376l-0.192,0.375l-0.189,0.372l-0.19,0.376l-0.192,0.381l-0.192,0.381l-0.187,0.375l-0.189,0.38l-0.192,0.387l-0.189,0.384l-0.188,0.381l-0.188,0.385l-0.188,0.386l-0.189,0.39l-0.187,0.386l-0.186,0.386l-0.188,0.394l-0.187,0.391l-0.185,0.389l-0.186,0.395l-0.186,0.395l-0.185,0.393l-0.185,0.396l-0.185,0.399l-0.184,0.396l-0.182,0.396l-0.185,0.403l-0.182,0.399l-0.181,0.399l-0.183,0.404l-0.183,0.405l-0.181,0.403l-0.181,0.403l-0.18,0.406l-0.18,0.405l-0.18,0.409l-0.18,0.408l-0.179,0.41l-0.178,0.408l-0.178,0.411l-0.177,0.411l-0.179,0.415l-0.177,0.413l-0.175,0.411l-0.176,0.415l-0.175,0.414l-0.176,0.417l-0.174,0.416l-0.174,0.419l-0.175,0.42l-0.173,0.419l-0.171,0.417l-0.173,0.423l-0.173,0.422l-0.17,0.419l-0.171,0.424l-0.171,0.424l-0.17,0.426l-0.168,0.422l-0.169,0.425l-0.169,0.428l-0.168,0.428l-0.167,0.427l-0.167,0.427l-0.166,0.429l-0.166,0.43l-0.165,0.431l-0.165,0.432l-0.164,0.43l-0.163,0.43l-0.163,0.434l-0.163,0.434l-0.162,0.433l-0.161,0.434l-0.162,0.438l-0.16,0.435l-0.159,0.434l-0.16,0.438l-0.159,0.438l-0.158,0.437l-0.157,0.438l-0.158,0.441l-0.156,0.439l-0.155,0.439l-0.156,0.442l-0.154,0.441l-0.154,0.441l-0.153,0.441l-0.154,0.444l-0.152,0.444l-0.151,0.442l-0.151,0.444l-0.151,0.447l-0.15,0.445l-0.148,0.443l-0.149,0.447l-0.148,0.448l-0.147,0.445l-0.146,0.446l-0.147,0.451l-0.145,0.448l-0.144,0.447l-0.144,0.448l-0.144,0.45l-0.143,0.452l-0.142,0.448l-0.141,0.451l-0.141,0.452l-0.14,0.451l-0.139,0.451l-0.139,0.452l-0.138,0.452l-0.137,0.452l-0.137,0.455l-0.136,0.453l-0.135,0.452l-0.134,0.453l-0.134,0.456l-0.134,0.455l-0.132,0.455l-0.132,0.456l-0.131,0.455l-0.13,0.454l-0.129,0.457l-0.13,0.457l-0.127,0.454l-0.128,0.458l-0.127,0.458l-0.125,0.457l-0.126,0.459l-0.124,0.456l-0.123,0.457l-0.124,0.459l-0.122,0.458l-0.121,0.458l-0.12,0.458l-0.121,0.462l-0.119,0.459l-0.118,0.457l-0.117,0.459l-0.118,0.461l-0.116,0.46l-0.115,0.46l-0.114,0.458l-0.114,0.461l-0.113,0.462l-0.112,0.459l-0.111,0.459l-0.11,0.461l-0.11,0.462l-0.109,0.462l-0.108,0.461l-0.107,0.459l-0.106,0.46l-0.106,0.464l-0.105,0.461l-0.103,0.459l-0.104,0.462l-0.102,0.461l-0.101,0.462l-0.101,0.46l-0.099,0.461l-0.1,0.464l-0.098,0.46l-0.097,0.46l-0.096,0.463l-0.095,0.461l-0.095,0.463l-0.094,0.46l-0.093,0.461l-0.092,0.461l-0.091,0.461l-0.09,0.461l-0.089,0.462l-0.089,0.46l-0.088,0.462l-0.086,0.461l-0.086,0.459l-0.085,0.461l-0.084,0.461l-0.083,0.46l-0.082,0.461l-0.082,0.461l-0.08,0.459l-0.079,0.459l-0.079,0.459l-0.078,0.461l-0.076,0.46l-0.076,0.459l-0.075,0.46l-0.074,0.457l-0.073,0.459l-0.072,0.461l-0.071,0.457l-0.07,0.456l-0.07,0.46l-0.068,0.459l-0.067,0.456l-0.067,0.458l-0.065,0.456l-0.065,0.458l-0.063,0.457l-0.062,0.454l-0.062,0.457l-0.061,0.457l-0.059,0.453l-0.059,0.455l-0.058,0.457l-0.057,0.454l-0.055,0.454l-0.055,0.454l-0.054,0.454l-0.053,0.454l-0.051,0.453l-0.046,0.406l-0.098,0.941l-0.1,0.986l-0.098,0.987l-0.095,0.987l-0.093,0.987l-0.091,0.986l-0.088,0.986l-0.085,0.986l-0.083,0.987l-0.081,0.985l-0.078,0.985l-0.076,0.987l-0.074,0.984l-0.071,0.984l-0.068,0.985l-0.066,0.984l-0.064,0.984l-0.061,0.984l-0.059,0.983l-0.056,0.982l-0.054,0.983l-0.052,0.982l-0.049,0.981l-0.047,0.981l-0.044,0.981l-0.042,0.979l-0.039,0.979l-0.037,0.979l-0.034,0.979l-0.032,0.977l-0.03,0.976l-0.027,0.977l-0.025,0.976l-0.022,0.974l-0.02,0.975l-0.017,0.973l-0.015,0.973l-0.013,0.971l-0.01,0.971l-0.008,0.971l-0.005,0.969l-0.003,0.968l0,0.967l0.002,0.968l0.004,0.965l0.007,0.965l0.01,0.964l0.011,0.962l0.014,0.961l0.017,0.962l0.019,0.96l0.021,0.958l0.024,0.956l0.027,0.957l0.028,0.956l0.031,0.953l0.034,0.953l0.036,0.952l0.038,0.95l0.041,0.948l0.043,0.949l0.046,0.946l0.048,0.945l0.051,0.943l0.052,0.943l0.056,0.941l0.057,0.939l0.061,0.939l0.062,0.937l0.065,0.935l0.067,0.933l0.07,0.932l0.072,0.931l0.075,0.929l0.077,0.928l0.079,0.925l0.082,0.924l0.084,0.924l0.086,0.92l0.089,0.918l0.092,0.919l0.094,0.915l0.096,0.914l0.098,0.912l0.101,0.91l0.103,0.909l0.106,0.907l0.108,0.904l0.11,0.903l0.113,0.901l0.115,0.899l0.118,0.897l0.12,0.896l0.122,0.892l0.125,0.892l0.127,0.888l0.129,0.886l0.132,0.885l0.134,0.884l0.137,0.88l0.139,0.879l0.141,0.876l0.143,0.874l0.146,0.871l0.149,0.87l0.15,0.867l0.153,0.865l0.155,0.863l0.158,0.861l0.16,0.857l0.162,0.855l0.165,0.853l0.166,0.851l0.17,0.848l0.171,0.847l0.174,0.842l0.176,0.841l0.179,0.838l0.181,0.835l0.183,0.833l0.185,0.832l0.19,0.835l0.093,0.406l0.094,0.409l0.097,0.413l0.097,0.413l0.096,0.409l0.098,0.408l0.098,0.41l0.099,0.409l0.099,0.409l0.1,0.404l0.1,0.405l0.215,0.863l0.243,1.286l0.155,0.806l0.159,0.81l0.079,0.394l0.08,0.401l0.081,0.4l0.081,0.395l0.082,0.398l0.083,0.399l0.083,0.397l0.084,0.396l0.085,0.395l0.084,0.393l0.086,0.394l0.086,0.394l0.087,0.394l0.087,0.391l0.088,0.391l0.089,0.39l0.089,0.389l0.09,0.39l0.09,0.389l0.091,0.387l0.091,0.387l0.092,0.385l0.093,0.387l0.094,0.387l0.094,0.385l0.094,0.383l0.095,0.384l0.096,0.381l0.096,0.382l0.097,0.383l0.098,0.38l0.099,0.383l0.098,0.377l0.099,0.378l0.101,0.38l0.1,0.377l0.101,0.378l0.103,0.378l0.102,0.376l0.103,0.374l0.104,0.374l0.105,0.376l0.105,0.375l0.106,0.373l0.105,0.371l0.107,0.372l0.108,0.371l0.108,0.371l0.11,0.372l0.109,0.37l0.11,0.369l0.111,0.369l0.111,0.368l0.112,0.366l0.113,0.368l0.113,0.367l0.115,0.366l0.115,0.367l0.115,0.364l0.116,0.364l0.116,0.364l0.118,0.366l0.118,0.363l0.118,0.358l0.119,0.362l0.121,0.366l0.12,0.359l0.122,0.361l0.122,0.362l0.122,0.357l0.123,0.358l0.125,0.36l0.125,0.359l0.124,0.356l0.126,0.357l0.128,0.359l0.127,0.357l0.127,0.352l0.13,0.357l0.13,0.357l0.13,0.355l0.13,0.353l0.131,0.352l0.133,0.353l0.134,0.355l0.133,0.351l0.133,0.351l0.135,0.351l0.137,0.353l0.137,0.354l0.136,0.347l0.138,0.348l0.138,0.35l0.141,0.353l0.14,0.347l0.14,0.347l0.142,0.351l0.142,0.346l0.141,0.344l0.144,0.347l0.146,0.349l0.145,0.347l0.146,0.346l0.146,0.344l0.146,0.344l0.15,0.347l0.148,0.343l0.149,0.343l0.151,0.346l0.151,0.344l0.151,0.341l0.152,0.34l0.155,0.347l0.154,0.343l0.153,0.338l0.156,0.342l0.156,0.34l0.158,0.344l0.158,0.341l0.156,0.335l0.162,0.344l0.159,0.339l0.161,0.338l0.162,0.34l0.162,0.338l0.164,0.341l0.163,0.335l0.165,0.339l0.166,0.338l0.166,0.337l0.168,0.34l0.167,0.334l0.169,0.337l0.169,0.336l0.171,0.337l0.171,0.337l0.17,0.331l0.175,0.34l0.174,0.336l0.172,0.33l0.176,0.336l0.178,0.339l0.175,0.332l0.177,0.332l0.181,0.338l0.179,0.335l0.178,0.329l0.179,0.331l0.183,0.334l0.183,0.334l0.185,0.336l0.185,0.333l0.182,0.328l0.187,0.333l0.187,0.333l0.188,0.332l0.189,0.333l0.189,0.33l0.189,0.331l0.192,0.333l0.191,0.328l0.192,0.331l0.197,0.335l0.193,0.328l0.194,0.328l0.197,0.332l0.197,0.33l0.198,0.331l0.2,0.331l0.199,0.329l0.199,0.328l0.202,0.329l0.204,0.333l0.203,0.328l0.204,0.329l0.205,0.329l0.205,0.327l0.208,0.332l0.209,0.33l0.207,0.326l0.21,0.329l0.21,0.328l0.21,0.326l0.212,0.329l0.216,0.331l0.216,0.331l0.213,0.325l0.214,0.326l0.218,0.329l0.218,0.328l0.22,0.33l0.218,0.326l0.223,0.33l0.221,0.328l0.22,0.322l0.227,0.333l0.224,0.328l0.224,0.325l0.226,0.327l0.229,0.33l0.228,0.328l0.228,0.325l0.23,0.327l0.233,0.329l0.232,0.328l0.231,0.325l0.234,0.327l0.237,0.329l0.236,0.328l0.235,0.324l0.241,0.332l0.239,0.328l0.238,0.324l0.241,0.327l0.242,0.327l0.244,0.33l0.244,0.327l0.246,0.329l0.244,0.325l0.247,0.327l0.249,0.329l0.247,0.325l0.25,0.327l0.253,0.33l0.253,0.329l0.253,0.328l0.252,0.325l0.256,0.329l0.258,0.33l0.255,0.325l0.256,0.325l0.26,0.329l0.262,0.33l0.263,0.33l0.263,0.33l0.259,0.323l0.266,0.33l0.265,0.328l0.266,0.327l0.269,0.331l0.268,0.327l0.271,0.331l0.269,0.325l0.273,0.33l0.276,0.334l0.271,0.326l0.275,0.328l0.275,0.328l0.138,0.165l0.266,0.267l0.29,0.293l0.302,0.307l0.317,0.324l0.334,0.344l0.345,0.36l0.357,0.374l0.368,0.391l0.37,0.397l0.202,0.22l0.194,0.212l0.189,0.208l0.202,0.224l0.202,0.225l0.198,0.222l0.202,0.23l0.21,0.238l0.205,0.237l0.201,0.234l0.216,0.253l0.208,0.246l0.207,0.247l0.213,0.257l0.214,0.261l0.209,0.257l0.215,0.267l0.221,0.278l0.21,0.268l0.215,0.277l0.217,0.284l0.211,0.278l0.215,0.288l0.221,0.3l0.215,0.297l0.217,0.303l0.216,0.307l0.211,0.304l0.218,0.32l0.217,0.324l0.209,0.318l0.212,0.328l0.214,0.338l0.212,0.342l0.211,0.347l0.206,0.347l0.208,0.357l0.207,0.365l0.207,0.374l0.204,0.38l0.198,0.379l7.723,15.205l-5.109,8.324l-39.47,0l-1.275,0.044l-1.571,0.053l-1.583,0.052l-1.593,0.051l-1.603,0.049l-1.617,0.049l-1.627,0.048l-1.637,0.046l-1.648,0.046l-1.659,0.044l-1.671,0.043l-1.68,0.043l-1.689,0.041l-1.702,0.041l-1.712,0.039l-1.72,0.038l-1.733,0.037l-1.742,0.037l-1.751,0.035l-1.762,0.034l-1.771,0.033l-1.781,0.033l-1.791,0.031l-1.801,0.03l-1.809,0.029l-1.819,0.029l-1.829,0.027l-1.837,0.026l-1.846,0.026l-1.856,0.024l-1.863,0.024l-1.874,0.022l-1.882,0.022l-1.891,0.021l-1.899,0.019l-1.907,0.019l-1.916,0.018l-1.924,0.016l-1.932,0.016l-1.94,0.015l-1.948,0.014l-1.956,0.014l-1.964,0.012l-1.972,0.011l-1.979,0.01l-1.987,0.01l-1.994,0.008l-2.001,0.008l-2.01,0.007l-2.016,0.006l-2.022,0.004l-2.03,0.005l-2.038,0.003l-2.043,0.002l-2.051,0.001l-2.057,0.001l-2.063,0l-2.07,-0.001l-2.076,-0.002l-2.084,-0.003l-2.089,-0.004l-2.094,-0.005l-2.1,-0.005l-2.107,-0.007l-2.113,-0.007l-2.118,-0.008l-2.124,-0.009l-2.13,-0.009l-2.135,-0.011l-2.139,-0.012l-2.145,-0.012l-2.151,-0.013l-2.155,-0.013l-2.161,-0.015l-2.166,-0.016l-2.169,-0.016l-2.175,-0.017l-2.18,-0.018l-2.184,-0.019l-2.189,-0.019l-4.389,-0.041l-4.406,-0.045l-4.422,-0.047l-4.437,-0.051l-4.452,-0.054l-4.464,-0.057l-4.478,-0.059l-4.49,-0.063l-4.502,-0.066l-4.512,-0.068l-4.521,-0.072l-4.531,-0.074l-4.54,-0.078l-4.547,-0.08l-4.554,-0.083l-4.561,-0.085l-4.566,-0.089l-4.57,-0.091l-4.575,-0.094l-4.577,-0.096l-4.581,-0.099l-4.582,-0.102l-4.583,-0.104l-4.583,-0.107l-4.583,-0.11l-4.582,-0.112l-4.579,-0.114l-4.578,-0.117l-4.574,-0.119l-4.569,-0.122l-4.565,-0.124l-4.559,-0.126l-4.553,-0.129l-4.545,-0.131l-4.538,-0.134l-4.529,-0.135l-4.519,-0.138l-4.511,-0.14l-4.498,-0.142l-4.488,-0.144l-4.475,-0.147l-4.462,-0.148l-4.448,-0.151l-4.434,-0.152l-4.418,-0.155l-4.403,-0.156l-4.385,-0.159l-4.368,-0.16l-4.351,-0.163l-4.331,-0.164l-4.311,-0.166l-4.291,-0.168l-4.27,-0.17l-4.248,-0.172l-4.226,-0.173l-4.202,-0.175l-4.177,-0.176l-4.153,-0.179l-4.128,-0.18l-4.101,-0.181l-4.074,-0.184l-4.046,-0.184l-4.018,-0.187l-3.989,-0.188l-3.958,-0.189l-3.928,-0.191l-3.895,-0.192l-1.937,-0.097l-1.929,-0.097l-1.92,-0.097l-1.91,-0.098l-1.904,-0.098l-1.894,-0.099l-1.886,-0.098l-1.877,-0.099l-1.869,-0.1l-1.859,-0.099l-1.85,-0.1l-1.842,-0.101l-1.833,-0.1l-1.824,-0.101l-1.813,-0.102l-1.804,-0.101l-1.796,-0.102l-1.785,-0.103l-1.775,-0.102l-1.767,-0.103l-1.756,-0.103l-1.746,-0.103l-1.737,-0.104l-1.725,-0.104l-1.716,-0.104l-1.705,-0.105l-1.695,-0.105l-1.686,-0.105l-1.673,-0.105l-1.662,-0.106l-1.654,-0.106l-1.642,-0.106l-1.629,-0.106l-1.621,-0.107l-1.609,-0.107l-1.596,-0.107l-1.587,-0.107l-1.575,-0.108l-1.563,-0.108l-1.552,-0.108l-1.541,-0.109l-1.385,-0.098l-1.373,-0.074l-1.503,-0.082l-1.492,-0.082l-1.48,-0.082l-1.468,-0.083l-1.457,-0.083l-1.446,-0.083l-1.435,-0.083l-1.423,-0.084l-1.412,-0.084l-1.401,-0.085l-1.391,-0.084l-1.38,-0.085l-1.367,-0.086l-1.357,-0.086l-1.348,-0.086l-1.336,-0.087l-1.323,-0.087l-1.314,-0.087l-1.304,-0.088l-1.294,-0.088l-1.282,-0.089l-1.271,-0.089l-1.262,-0.09l-1.252,-0.09l-1.239,-0.091l-1.231,-0.091l-1.222,-0.092l-1.21,-0.093l-1.198,-0.092l-1.19,-0.094l-1.181,-0.094l-1.171,-0.094l-1.159,-0.096l-1.149,-0.095l-1.141,-0.097l-1.13,-0.096l-1.121,-0.098l-1.113,-0.099l-1.1,-0.099l-1.092,-0.099l-1.085,-0.101l-1.071,-0.101l-1.063,-0.101l-1.056,-0.103l-1.046,-0.103l-1.035,-0.104l-1.026,-0.105l-1.019,-0.106l-1.009,-0.106l-1,-0.107l-0.989,-0.108l-0.982,-0.109l-0.975,-0.11l-0.965,-0.111l-0.955,-0.111l-0.947,-0.113l-0.94,-0.113l-0.929,-0.114l-0.921,-0.115l-0.916,-0.117l-0.903,-0.117l-0.896,-0.118l-0.891,-0.12l-0.88,-0.12l-0.87,-0.121l-0.867,-0.123l-0.856,-0.124l-0.848,-0.124l-0.842,-0.126l-0.832,-0.127l-0.824,-0.128l-0.819,-0.13l-0.811,-0.131l-0.801,-0.131l-0.796,-0.133l-0.791,-0.135l-0.78,-0.136l-0.771,-0.137l-0.766,-0.139l-0.761,-0.14l-0.752,-0.141l-0.744,-0.143l-0.74,-0.145l-0.733,-0.146l-0.726,-0.147l-0.717,-0.149l-0.71,-0.15l-0.706,-0.153l-0.701,-0.154l-0.693,-0.156l-0.686,-0.158l-0.68,-0.159l-0.673,-0.161l-0.67,-0.163l-0.661,-0.165l-0.648,-0.165l-0.333,-0.086l-0.322,-0.084l-0.327,-0.086l-0.326,-0.087l-0.317,-0.086l-0.316,-0.086l-0.32,-0.088l-0.32,-0.089l-0.312,-0.088l-0.31,-0.088l-0.316,-0.091l-0.306,-0.089l-0.313,-0.092l-0.311,-0.092l-0.303,-0.091l-0.302,-0.091l-0.308,-0.095l-0.304,-0.094l-0.298,-0.094l-0.297,-0.094l-0.301,-0.096l-0.3,-0.097l-0.299,-0.098l-0.299,-0.099l-0.289,-0.097l-0.289,-0.098l-0.293,-0.1l-0.293,-0.101l-0.285,-0.1l-0.289,-0.102l-0.29,-0.104l-0.287,-0.104l-0.287,-0.105l-0.279,-0.104l-0.283,-0.106l-0.283,-0.107l-0.275,-0.105l-0.28,-0.109l-0.279,-0.109l-0.28,-0.111l-0.275,-0.111l-0.269,-0.109l-0.275,-0.113l-0.274,-0.114l-0.273,-0.115l-0.271,-0.115l-0.262,-0.113l-0.27,-0.117l-0.275,-0.121l-0.259,-0.116l-0.267,-0.12l-0.263,-0.12l-0.264,-0.122l-0.263,-0.123l-0.262,-0.124l-0.26,-0.125l-0.251,-0.122l-0.265,-0.13l-0.257,-0.127l-0.257,-0.129l-0.256,-0.131l-0.254,-0.131l-0.251,-0.131l-0.244,-0.129l-0.259,-0.138l-0.25,-0.136l-0.249,-0.136l-0.247,-0.137l-0.245,-0.138l-0.254,-0.145l-0.236,-0.136l-0.243,-0.141l-0.252,-0.149l-0.239,-0.143l-0.24,-0.146l-0.239,-0.147l-0.239,-0.148l-0.245,-0.155l-0.234,-0.15l-0.226,-0.146l-0.24,-0.157l-0.242,-0.16l-0.223,-0.151l-0.23,-0.156l-0.239,-0.165l-0.235,-0.165l-0.224,-0.159l-0.224,-0.161l-0.225,-0.164l-0.224,-0.166l-0.231,-0.173l-0.22,-0.167l-0.218,-0.168l-0.225,-0.175l-0.217,-0.172l-0.216,-0.173l-0.222,-0.18l-0.213,-0.176l-0.213,-0.178l-0.218,-0.185l-0.212,-0.182l-0.209,-0.183l-0.209,-0.184l-0.211,-0.189l-0.203,-0.186l-0.202,-0.186l-0.208,-0.194l-0.206,-0.196l-0.199,-0.192l-0.197,-0.193l-0.199,-0.198l-0.198,-0.2l-0.194,-0.198l-0.199,-0.206l-0.193,-0.205l-0.182,-0.194l-0.191,-0.207l-0.19,-0.21l-0.183,-0.205l-0.187,-0.212l-0.185,-0.215l-0.181,-0.212l-0.174,-0.208l-0.176,-0.213l-0.179,-0.22l-0.172,-0.215l-0.176,-0.224l-0.172,-0.221l-0.165,-0.217l-0.164,-0.218l-0.168,-0.228l-0.165,-0.227l-0.155,-0.217l-0.161,-0.23l-0.161,-0.233l-0.152,-0.223l-0.156,-0.234l-0.152,-0.232l-0.143,-0.221l-0.151,-0.239l-0.15,-0.241l-0.139,-0.226l-0.139,-0.231l-0.144,-0.244l-0.14,-0.24l-0.134,-0.236l-0.13,-0.232l-0.131,-0.238l-0.129,-0.239l-0.13,-0.245l-0.126,-0.242l-0.118,-0.231l-0.125,-0.248l-0.119,-0.245l-0.116,-0.24l-0.116,-0.245l-0.112,-0.242l-0.111,-0.242l-0.11,-0.248l-0.109,-0.249l-0.102,-0.24l-0.103,-0.244l-0.101,-0.246l-0.097,-0.242l-0.1,-0.252l-0.095,-0.248l-0.092,-0.242l-0.09,-0.244l-0.09,-0.249l-0.088,-0.249l-0.083,-0.241l-0.083,-0.245l-0.083,-0.25l-0.08,-0.247l-0.078,-0.247l-0.076,-0.247l-0.073,-0.242l-0.074,-0.252l-0.069,-0.243l-0.067,-0.239l-0.069,-0.253l-0.066,-0.247l-0.063,-0.244l-0.062,-0.244l-0.06,-0.245l-0.059,-0.245l-0.056,-0.242l-0.054,-0.24l-0.056,-0.252l-0.052,-0.242l-0.05,-0.241l-0.05,-0.246l-0.047,-0.241l-0.046,-0.244l-0.044,-0.237l-0.043,-0.242l-0.043,-0.248l-0.04,-0.236l-0.038,-0.238l-0.039,-0.248l-0.036,-0.236l-0.034,-0.233l-0.034,-0.245l-0.033,-0.243l-0.031,-0.237l-0.029,-0.233l-0.029,-0.239l-0.027,-0.238l-0.027,-0.238l-0.025,-0.24l-0.024,-0.234l-0.024,-0.252l-0.04,-0.45l-0.039,-0.474l-0.033,-0.466l-0.03,-0.466l-0.026,-0.468l-0.022,-0.459l-0.018,-0.463l-0.016,-0.464l-0.011,-0.459l-0.009,-0.457l-0.005,-0.458l-0.003,-0.459l0.001,-0.454l0.003,-0.453l0.006,-0.457l0.009,-0.452l0.011,-0.451l0.014,-0.452l0.015,-0.451l0.018,-0.452l0.021,-0.448l0.022,-0.45l0.024,-0.448l0.026,-0.448l0.028,-0.449l0.029,-0.448l0.032,-0.45l0.032,-0.446l0.035,-0.446l0.035,-0.447l0.038,-0.449l0.038,-0.449l0.04,-0.446l0.041,-0.448l0.042,-0.45l0.044,-0.45l0.044,-0.449l0.045,-0.447l0.047,-0.456l0.095,-0.896l0.098,-0.904l0.101,-0.908l0.103,-0.909l0.105,-0.915l0.108,-0.919l0.057,-0.49l0.028,-0.447l0.058,-0.896l0.059,-0.907l0.061,-0.919l0.124,-1.856l0.131,-1.898l0.135,-1.936l0.139,-1.975l0.144,-2.011l0.147,-2.05l0.303,-4.21l0.155,-2.161l0.157,-2.197l0.159,-2.234l0.16,-2.269l0.16,-2.305l0.161,-2.341l0.161,-2.378l0.08,-1.199l0.08,-1.209l0.08,-1.217l0.079,-1.227l0.079,-1.235l0.079,-1.244l0.078,-1.252l0.078,-1.259l0.077,-1.269l0.077,-1.277l0.076,-1.284l0.075,-1.294l0.075,-1.302l0.074,-1.309l0.072,-1.317l0.072,-1.325l0.071,-1.334l0.071,-1.341l0.068,-1.348l0.068,-1.358l0.067,-1.365l0.066,-1.372l0.064,-1.38l0.063,-1.388l0.061,-1.394l0.061,-1.403l0.058,-1.411l0.058,-1.417l0.055,-1.424l0.054,-1.433l0.052,-1.439l0.051,-1.447l0.049,-1.454l0.047,-1.461l0.045,-1.467l0.043,-1.476l0.042,-1.481l0.039,-1.489l0.037,-1.496l0.035,-1.502l0.033,-1.509l0.03,-1.517l0.029,-1.522l0.026,-1.529l0.023,-1.535l0.021,-1.543l0.019,-1.549l0.016,-1.555l0.014,-1.561l0.01,-1.567l0.008,-1.575l0.006,-1.579l0.003,-1.587l-0.001,-1.593l-0.003,-1.601l-0.002,-0.797l-0.004,-0.803l-0.004,-0.805l-0.005,-0.806l-0.006,-0.807l-0.006,-0.809l-0.007,-0.81l-0.008,-0.812l-0.009,-0.814l-0.01,-0.814l-0.01,-0.816l-0.011,-0.818l-0.012,-0.818l-0.013,-0.819l-0.014,-0.823l-0.014,-0.824l-0.015,-0.822l-0.017,-0.826l-0.017,-0.829l-0.018,-0.828l-0.018,-0.829l-0.02,-0.832l-0.021,-0.834l-0.021,-0.834l-0.022,-0.834l-0.023,-0.837l-0.024,-0.838l-0.025,-0.839l-0.026,-0.842l-0.027,-0.841l-0.028,-0.843l-0.028,-0.844l-0.03,-0.847l-0.031,-0.847l-0.031,-0.848l-0.033,-0.85l-0.033,-0.85l-0.035,-0.853l-0.035,-0.853l-0.036,-0.856l-0.038,-0.855l-0.038,-0.856l-0.04,-0.858l-0.04,-0.861l-0.041,-0.861l-0.043,-0.861l-0.043,-0.863l-0.045,-0.865l-0.045,-0.865l-0.047,-0.867l-0.048,-0.868l-0.048,-0.869l-0.05,-0.87l-0.051,-0.87l-0.052,-0.874l-0.053,-0.874l-0.054,-0.874l-0.055,-0.875l-0.057,-0.877l-0.057,-0.879l-0.059,-0.88l-0.06,-0.88l-0.06,-0.881l-0.062,-0.882l-0.063,-0.884l-0.065,-0.884l-0.065,-0.886l-0.067,-0.886l-0.067,-0.887l-0.069,-0.89l-0.071,-0.89l-0.071,-0.891l-0.072,-0.892l-0.074,-0.893l-0.075,-0.893l-0.076,-0.895l-0.077,-0.896l-0.056,-0.638l-0.075,-0.612l-0.107,-0.872l-0.109,-0.874l-0.11,-0.875l-0.111,-0.876l-0.112,-0.877l-0.114,-0.88l-0.115,-0.88l-0.115,-0.881l-0.117,-0.882l-0.119,-0.882l-0.119,-0.885l-0.121,-0.886l-0.121,-0.887l-0.123,-0.888l-0.124,-0.889l-0.125,-0.889l-0.126,-0.891l-0.127,-0.893l-0.128,-0.893l-0.129,-0.894l-0.131,-0.894l-0.131,-0.896l-0.132,-0.897l-0.134,-0.899l-0.134,-0.899l-0.135,-0.898l-0.136,-0.902l-0.137,-0.902l-0.138,-0.901l-0.14,-0.905l-0.14,-0.904l-0.141,-0.905l-0.141,-0.906l-0.143,-0.906l-0.143,-0.905l-0.29,-1.821l-0.294,-1.82l-0.296,-1.823l-0.3,-1.827l-0.302,-1.829l-0.306,-1.832l-0.309,-1.834l-0.311,-1.836l-0.315,-1.839l-0.317,-1.841l-0.319,-1.843l-0.322,-1.846l-0.325,-1.847l-0.326,-1.848l-0.329,-1.851l-0.331,-1.853l-0.333,-1.853l-0.335,-1.855l-0.337,-1.857l-0.339,-1.857l-0.34,-1.859l-0.342,-1.86l-0.343,-1.86l-0.345,-1.861l-0.345,-1.862l-0.348,-1.863l-0.348,-1.862l-0.349,-1.864l-0.35,-1.864l-0.351,-1.862l-0.705,-3.729l-0.706,-3.727l-0.708,-3.726l-0.709,-3.724l-1.416,-7.438l-0.707,-3.712l-0.704,-3.708l-0.702,-3.701l-0.697,-3.693l-0.348,-1.846l-0.346,-1.842l-0.345,-1.841l-0.343,-1.839l-0.342,-1.836l-0.341,-1.833l-0.338,-1.831l-0.338,-1.83l-0.335,-1.826l-0.333,-1.823l-0.331,-1.821l-0.33,-1.818l-0.326,-1.814l-0.325,-1.812l-0.322,-1.809l-0.32,-1.805l-0.317,-1.801l-0.315,-1.799l-0.312,-1.795l-0.308,-1.791l-0.306,-1.787l-0.303,-1.784l-0.3,-1.78l-0.297,-1.776l-0.293,-1.771l-0.289,-1.768l-0.287,-1.764l-0.282,-1.758l-0.279,-1.752l-0.139,-0.879l-0.137,-0.875l-0.136,-0.873l-0.135,-0.871l-0.134,-0.871l-0.133,-0.871l-0.132,-0.869l-0.131,-0.866l-0.13,-0.867l-0.129,-0.865l-0.128,-0.864l-0.127,-0.863l-0.126,-0.86l-0.124,-0.86l-0.124,-0.861l-0.122,-0.857l-0.122,-0.855l-0.12,-0.855l-0.119,-0.854l-0.118,-0.853l-0.116,-0.851l-0.115,-0.849l-0.115,-0.848l-0.113,-0.848l-0.111,-0.845l-0.111,-0.845l-0.109,-0.842l-0.108,-0.841l-0.106,-0.841l-0.106,-0.838l-0.104,-0.836l-0.103,-0.838l-0.101,-0.834l-0.1,-0.832l-0.098,-0.831l-0.098,-0.83l-0.096,-0.829l-0.094,-0.826l-0.093,-0.827l-0.092,-0.824l-0.09,-0.822l-0.089,-0.821l-0.087,-0.82l-0.086,-0.817l-0.085,-0.816l-0.082,-0.815l-0.082,-0.814l-0.08,-0.812l-0.078,-0.809l-0.077,-0.808l-0.075,-0.807l-0.074,-0.806l-0.072,-0.804l-0.07,-0.802l-0.069,-0.8l-0.067,-0.798l-0.066,-0.798l-0.064,-0.795l-0.062,-0.793l-0.06,-0.792l-0.059,-0.791l-0.037,-0.507l-0.053,-0.503l-0.082,-0.783l-0.08,-0.781l-0.078,-0.779l-0.076,-0.777l-0.075,-0.775l-0.073,-0.773l-0.072,-0.77l-0.069,-0.771l-0.068,-0.766l-0.067,-0.765l-0.064,-0.764l-0.063,-0.76l-0.062,-0.759l-0.06,-0.759l-0.058,-0.755l-0.056,-0.753l-0.055,-0.752l-0.053,-0.751l-0.052,-0.748l-0.05,-0.746l-0.048,-0.745l-0.047,-0.742l-0.046,-0.742l-0.043,-0.738l-0.042,-0.738l-0.041,-0.736l-0.039,-0.734l-0.038,-0.731l-0.036,-0.731l-0.034,-0.727l-0.033,-0.727l-0.031,-0.727l-0.03,-0.723l-0.029,-0.721l-0.027,-0.721l-0.025,-0.718l-0.024,-0.717l-0.023,-0.715l-0.021,-0.713l-0.019,-0.712l-0.018,-0.712l-0.017,-0.708l-0.015,-0.705l-0.014,-0.707l-0.013,-0.705l-0.011,-0.701l-0.009,-0.701l-0.009,-0.7l-0.006,-0.697l-0.006,-0.697l-0.004,-0.694l-0.003,-0.694l-0.001,-0.692l0,-0.688l0.001,-0.691l0.003,-0.687l0.004,-0.685l0.005,-0.684l0.006,-0.683l0.008,-0.683l0.01,-0.678l0.01,-0.679l0.012,-0.679l0.013,-0.675l0.014,-0.675l0.016,-0.673l0.016,-0.671l0.018,-0.671l0.019,-0.668l0.021,-0.67l0.022,-0.665l0.022,-0.665l0.025,-0.664l0.025,-0.662l0.026,-0.662l0.028,-0.661l0.029,-0.659l0.029,-0.656l0.032,-0.658l0.032,-0.655l0.033,-0.653l0.035,-0.653l0.035,-0.651l0.037,-0.651l0.038,-0.648l0.039,-0.648l0.04,-0.649l0.041,-0.644l0.042,-0.643l0.043,-0.644l0.044,-0.643l0.046,-0.642l0.046,-0.64l0.048,-0.638l0.048,-0.638l0.049,-0.636l0.051,-0.637l0.051,-0.635l0.052,-0.632l0.054,-0.633l0.054,-0.633l0.055,-0.63l0.057,-0.63l0.057,-0.627l0.058,-0.628l0.059,-0.629l0.06,-0.624l0.061,-0.624l0.062,-0.625l0.062,-0.623l0.064,-0.622l0.064,-0.621l0.065,-0.619l0.066,-0.619l0.068,-0.621l0.068,-0.617l0.068,-0.614l0.07,-0.618l0.07,-0.616l0.071,-0.612l0.072,-0.614l0.073,-0.614l0.073,-0.612l0.075,-0.61l0.074,-0.609l0.076,-0.611l0.077,-0.609l0.077,-0.608l0.078,-0.607l0.079,-0.607l0.079,-0.605l0.081,-0.605l0.081,-0.61l0.163,-1.201l0.167,-1.206l0.169,-1.201l0.171,-1.199l0.175,-1.198l0.176,-1.195l0.179,-1.192l0.181,-1.19l0.184,-1.189l0.185,-1.186l0.188,-1.186l0.19,-1.183l0.191,-1.181l0.194,-1.18l0.195,-1.179l0.198,-1.177l0.198,-1.175l0.201,-1.175l0.202,-1.175l0.203,-1.172l0.205,-1.171l0.207,-1.172l0.207,-1.171l0.209,-1.169l0.21,-1.17l0.211,-1.169l0.213,-1.169l0.213,-1.168l0.214,-1.168l0.215,-1.169l0.216,-1.17l0.434,-2.336l0.436,-2.339l0.439,-2.343l0.88,-4.693l0.442,-2.355l0.442,-2.36l0.441,-2.366l0.442,-2.377l0.219,-1.19l0.22,-1.191l0.219,-1.195l0.219,-1.198l0.218,-1.199l0.218,-1.202l0.217,-1.205l0.216,-1.208l0.215,-1.211l0.215,-1.214l0.214,-1.217l0.162,-0.929l0.119,-0.873l0.155,-1.165l0.154,-1.168l0.153,-1.173l0.151,-1.174l0.149,-1.18l0.148,-1.184l0.146,-1.187l0.144,-1.193l0.143,-1.195l0.142,-1.201l0.14,-1.205l0.138,-1.208l0.136,-1.213l0.136,-1.219l0.133,-1.223l0.133,-1.228l0.13,-1.233l0.129,-1.237l0.128,-1.243l0.126,-1.248l0.125,-1.253l0.123,-1.258l0.122,-1.264l0.12,-1.269l0.119,-1.274l0.117,-1.281l0.116,-1.285l0.114,-1.293l0.113,-1.297l0.112,-1.303l0.11,-1.31l0.109,-1.316l0.107,-1.322l0.106,-1.328l0.104,-1.334l0.103,-1.341l0.102,-1.347l0.1,-1.354l0.099,-1.361l0.097,-1.367l0.096,-1.374l0.095,-1.382l0.094,-1.388l0.092,-1.394l0.09,-1.403l0.09,-1.41l0.088,-1.416l0.086,-1.424l0.086,-1.433l0.084,-1.438l0.082,-1.447l0.082,-1.455l0.08,-1.462l0.079,-1.47l0.077,-1.478l0.076,-1.487l0.075,-1.493l0.074,-1.502l0.072,-1.511l0.071,-1.519l0.07,-1.527l0.069,-1.536l0.067,-1.545l0.066,-1.553l0.065,-1.561l0.064,-1.571l0.062,-1.579l0.062,-1.589l0.06,-1.597l0.059,-1.607l0.057,-1.616l0.057,-1.624l0.055,-1.634l0.054,-1.644l0.053,-1.654l0.052,-1.663l0.05,-1.672l0.05,-1.683l0.048,-1.692l0.047,-1.702l0.046,-1.711l0.045,-1.722l0.044,-1.732l0.042,-1.742l0.042,-1.753l0.04,-1.763l0.039,-1.773l0.039,-1.784l0.037,-1.794l0.036,-1.806l0.035,-1.815l0.033,-1.827l0.033,-1.838l0.032,-1.848l0.031,-1.86l0.03,-1.871l0.028,-1.881l0.028,-1.894l0.026,-1.905l0.026,-1.916l0.024,-1.926l0.024,-1.94l0.023,-1.951l0.021,-1.962l0.021,-1.975l0.019,-1.986l0.019,-1.999l0.017,-2.01l0.017,-2.022l0.016,-2.035l0.015,-2.047l0.013,-2.059l0.013,-2.072l0.012,-2.084l0.011,-2.097l0.01,-2.11l0.009,-2.122l0.009,-2.136l0.007,-2.148l0.007,-2.161l0.005,-2.174l0.005,-2.187l0.004,-2.201l0.003,-2.214l0.002,-2.227l0.001,-2.241l0.001,-2.063l-0.105,-4.364l-0.113,-4.605l-0.116,-4.656l-0.118,-4.703l-0.122,-4.748l-0.124,-4.791l-0.126,-4.831l-0.129,-4.869l-0.131,-4.906l-0.132,-4.938l-0.135,-4.97l-0.136,-4.998l-0.277,-10.075l-0.281,-10.162l-0.285,-10.23l-0.287,-10.28l-0.288,-10.312l-0.287,-10.325l-0.286,-10.319l-0.283,-10.294l-0.14,-5.134l-0.139,-5.119l-0.137,-5.105l-0.136,-5.087l-0.134,-5.067l-0.132,-5.044l-0.131,-5.021l-0.128,-4.993l-0.126,-4.964l-0.123,-4.933l-0.121,-4.899l-0.118,-4.863l-0.115,-4.825l-0.112,-4.784l-0.109,-4.741l-0.105,-4.696l-0.102,-4.648l-0.098,-4.598l-0.093,-4.545l-0.046,-2.254l-0.045,-2.24l-0.043,-2.225l-0.042,-2.21l-0.042,-2.196l-0.04,-2.18l-0.039,-2.166l-0.038,-2.15l-0.036,-2.133l-0.036,-2.118l-0.034,-2.102l-0.033,-2.084l-0.032,-2.068l-0.031,-2.051l-0.029,-2.033l-0.028,-2.014l-0.026,-1.997l-0.026,-1.979l-0.024,-1.96l-0.022,-1.94l-0.021,-1.922l-0.02,-1.903l-0.018,-1.882l-0.017,-1.862l-0.015,-1.842l-0.014,-1.822l-0.012,-1.801l-0.01,-1.779l-0.009,-1.758l-0.008,-1.737l-0.006,-1.715l-0.004,-1.692l-0.002,-1.67l-0.001,-1.649l0.001,-1.576l0.002,-0.787l0.002,-0.777l0.004,-0.774l0.004,-0.769l0.005,-0.762l0.006,-0.76l0.007,-0.755l0.009,-0.75l0.009,-0.746l0.01,-0.74l0.012,-0.737l0.013,-0.732l0.014,-0.727l0.016,-0.725l0.017,-0.719l0.019,-0.714l0.02,-0.712l0.021,-0.707l0.024,-0.702l0.025,-0.7l0.027,-0.695l0.028,-0.692l0.031,-0.689l0.032,-0.682l0.034,-0.68l0.037,-0.679l0.039,-0.673l0.04,-0.669l0.044,-0.669l0.045,-0.662l0.048,-0.661l0.05,-0.657l0.053,-0.653l0.055,-0.652l0.059,-0.649l0.061,-0.645l0.064,-0.642l0.066,-0.64l0.07,-0.638l0.072,-0.622l0.039,-0.328l0.038,-0.315l0.04,-0.315l0.04,-0.317l0.041,-0.312l0.042,-0.312l0.043,-0.314l0.044,-0.314l0.044,-0.313l0.046,-0.307l0.046,-0.312l0.047,-0.309l0.048,-0.306l0.05,-0.312l0.051,-0.312l0.05,-0.302l0.053,-0.31l0.054,-0.309l0.053,-0.304l0.056,-0.307l0.057,-0.306l0.057,-0.302l0.058,-0.304l0.061,-0.308l0.06,-0.299l0.062,-0.302l0.064,-0.307l0.065,-0.304l0.065,-0.3l0.066,-0.299l0.069,-0.303l0.068,-0.297l0.071,-0.301l0.073,-0.304l0.073,-0.3l0.074,-0.294l0.075,-0.298l0.078,-0.301l0.08,-0.3l0.079,-0.296l0.081,-0.295l0.082,-0.294l0.084,-0.297l0.088,-0.302l0.086,-0.291l0.088,-0.294l0.09,-0.295l0.092,-0.294l0.093,-0.293l0.094,-0.291l0.097,-0.296l0.099,-0.295l0.099,-0.289l0.102,-0.294l0.103,-0.293l0.103,-0.286l0.107,-0.291l0.108,-0.29l0.109,-0.289l0.111,-0.288l0.115,-0.293l0.116,-0.29l0.117,-0.286l0.117,-0.284l0.12,-0.285l0.123,-0.287l0.125,-0.288l0.126,-0.284l0.128,-0.284l0.129,-0.283l0.132,-0.283l0.136,-0.286l0.135,-0.281l0.137,-0.278l0.138,-0.278l0.143,-0.283l0.145,-0.281l0.147,-0.281l0.148,-0.277l0.147,-0.271l0.153,-0.278l0.156,-0.28l0.155,-0.271l0.157,-0.273l0.161,-0.273l0.161,-0.27l0.166,-0.274l0.168,-0.272l0.167,-0.265l0.171,-0.269l0.174,-0.269l0.176,-0.267l0.175,-0.262l0.178,-0.262l0.183,-0.266l0.184,-0.261l0.186,-0.261l0.188,-0.26l0.19,-0.257l0.189,-0.254l0.194,-0.255l0.198,-0.256l0.199,-0.255l0.2,-0.251l0.2,-0.247l0.206,-0.25l0.207,-0.249l0.208,-0.244l0.209,-0.244l0.212,-0.241l0.215,-0.242l0.219,-0.244l0.215,-0.234l0.219,-0.234l0.225,-0.238l0.222,-0.232l0.226,-0.232l0.229,-0.23l0.23,-0.229l0.231,-0.226l0.231,-0.223l0.235,-0.223l0.237,-0.221l0.24,-0.221l0.238,-0.215l0.244,-0.218l0.245,-0.215l0.24,-0.207l0.249,-0.213l0.25,-0.209l0.246,-0.204l0.253,-0.206l0.258,-0.206l0.25,-0.197l0.255,-0.199l0.259,-0.198l0.259,-0.195l0.262,-0.194l0.26,-0.19l0.261,-0.188l0.265,-0.188l0.267,-0.186l0.267,-0.184l0.267,-0.18l0.269,-0.18l0.274,-0.18l0.27,-0.175l0.276,-0.175l0.274,-0.172l0.274,-0.169l0.278,-0.17l0.275,-0.164l0.282,-0.167l0.282,-0.164l0.278,-0.159l0.284,-0.16l0.285,-0.159l0.285,-0.155l0.284,-0.153l0.285,-0.151l0.289,-0.151l0.292,-0.15l0.289,-0.146l0.289,-0.144l0.293,-0.145l0.291,-0.14l0.294,-0.14l0.295,-0.138l0.295,-0.137l0.296,-0.134l0.297,-0.134l0.304,-0.133l0.298,-0.13l0.297,-0.127l0.303,-0.127l0.304,-0.126l0.3,-0.123l0.304,-0.122l0.307,-0.121l0.307,-0.12l0.305,-0.117l0.307,-0.116l0.31,-0.115l0.311,-0.114l0.31,-0.111l0.31,-0.11l0.316,-0.11l0.31,-0.107l0.313,-0.106l0.317,-0.106l0.317,-0.103l0.317,-0.103l0.318,-0.101l0.319,-0.099l0.32,-0.099l0.323,-0.097l0.322,-0.096l0.32,-0.094l0.326,-0.094l0.326,-0.093l0.323,-0.09l0.329,-0.09l0.326,-0.089l0.331,-0.088l0.332,-0.087l0.326,-0.084l0.331,-0.084l0.336,-0.083l0.337,-0.083l0.335,-0.081l0.332,-0.079l0.34,-0.079l0.339,-0.078l0.336,-0.076l0.344,-0.076l0.343,-0.075l0.343,-0.074l0.342,-0.072l0.347,-0.072l0.346,-0.071l0.346,-0.069l0.351,-0.069l0.35,-0.069l0.353,-0.067l0.349,-0.065l0.355,-0.066l0.357,-0.064l0.352,-0.063l0.359,-0.063l0.361,-0.062l0.357,-0.06l0.361,-0.06l0.365,-0.06l0.364,-0.058l0.365,-0.057l0.366,-0.057l0.369,-0.056l0.366,-0.055l0.371,-0.054l0.373,-0.054l0.374,-0.053l0.375,-0.052l0.375,-0.051l0.379,-0.05l0.377,-0.05l0.379,-0.048l0.383,-0.049l0.385,-0.048l0.384,-0.046l0.385,-0.046l0.39,-0.046l0.388,-0.045l0.388,-0.043l0.395,-0.044l0.393,-0.042l0.401,-0.043l0.789,-0.082l0.801,-0.079l0.808,-0.077l0.814,-0.074l0.82,-0.072l0.826,-0.069l0.835,-0.068l0.841,-0.064l0.846,-0.063l0.854,-0.06l0.861,-0.058l0.869,-0.056l0.875,-0.053l0.882,-0.052l0.89,-0.049l0.897,-0.048l0.903,-0.045l0.912,-0.044l0.92,-0.041l0.928,-0.04l0.933,-0.038l0.942,-0.036l0.951,-0.034l0.958,-0.032l0.965,-0.031l0.973,-0.029l0.983,-0.027l0.991,-0.025l0.998,-0.024l1.006,-0.023l1.014,-0.021l1.023,-0.019l1.033,-0.018l1.04,-0.016l1.048,-0.015l1.058,-0.013l1.066,-0.012l1.075,-0.011l1.084,-0.009l1.093,-0.008l1.1,-0.006l1.111,-0.005l1.119,-0.005l1.129,-0.002l1.138,-0.002l1.147,-0.001l1.156,0.001ZM486.285,344.646l-1.104,0.002l-1.093,0.003l-1.083,0.004l-1.073,0.005l-1.063,0.006l-1.052,0.008l-1.042,0.008l-1.031,0.011l-1.022,0.011l-1.011,0.013l-1.001,0.014l-0.992,0.015l-0.979,0.017l-0.971,0.019l-0.96,0.019l-0.952,0.021l-0.94,0.023l-0.93,0.024l-0.919,0.025l-0.911,0.028l-0.901,0.028l-0.89,0.03l-0.88,0.032l-0.871,0.033l-0.862,0.035l-0.85,0.036l-0.84,0.038l-0.831,0.04l-0.822,0.041l-0.812,0.043l-0.801,0.045l-0.792,0.046l-0.782,0.048l-0.772,0.049l-0.763,0.052l-0.753,0.053l-0.744,0.055l-0.733,0.056l-0.723,0.058l-0.715,0.06l-0.705,0.062l-0.694,0.063l-0.685,0.066l-0.676,0.067l-0.671,0.069l-0.323,0.034l-0.327,0.036l-0.322,0.035l-0.325,0.037l-0.321,0.037l-0.315,0.037l-0.315,0.037l-0.313,0.038l-0.308,0.039l-0.307,0.038l-0.306,0.04l-0.304,0.04l-0.299,0.04l-0.3,0.04l-0.294,0.041l-0.293,0.042l-0.29,0.041l-0.287,0.042l-0.289,0.043l-0.283,0.043l-0.281,0.044l-0.279,0.044l-0.276,0.044l-0.271,0.044l-0.272,0.045l-0.272,0.046l-0.264,0.046l-0.263,0.046l-0.266,0.047l-0.257,0.047l-0.255,0.047l-0.259,0.048l-0.251,0.048l-0.249,0.048l-0.246,0.049l-0.246,0.05l-0.243,0.049l-0.239,0.05l-0.24,0.05l-0.236,0.051l-0.232,0.051l-0.227,0.05l-0.231,0.052l-0.226,0.052l-0.221,0.052l-0.225,0.053l-0.219,0.053l-0.214,0.052l-0.211,0.053l-0.212,0.054l-0.215,0.055l-0.204,0.054l-0.203,0.054l-0.203,0.055l-0.198,0.054l-0.2,0.056l-0.194,0.055l-0.191,0.055l-0.193,0.057l-0.188,0.056l-0.184,0.055l-0.183,0.057l-0.182,0.056l-0.178,0.057l-0.176,0.057l-0.174,0.057l-0.169,0.056l-0.171,0.058l-0.17,0.059l-0.162,0.056l-0.164,0.058l-0.161,0.058l-0.156,0.057l-0.156,0.058l-0.153,0.058l-0.153,0.059l-0.149,0.057l-0.145,0.058l-0.144,0.058l-0.146,0.059l-0.139,0.058l-0.136,0.057l-0.139,0.06l-0.136,0.058l-0.126,0.056l-0.13,0.058l-0.129,0.059l-0.125,0.058l-0.124,0.058l-0.121,0.058l-0.121,0.058l-0.116,0.057l-0.117,0.058l-0.115,0.059l-0.108,0.055l-0.108,0.057l-0.11,0.058l-0.107,0.058l-0.104,0.056l-0.101,0.056l-0.098,0.056l-0.102,0.058l-0.095,0.055l-0.092,0.055l-0.097,0.058l-0.09,0.054l-0.092,0.057l-0.089,0.056l-0.085,0.054l-0.087,0.056l-0.08,0.053l-0.083,0.055l-0.082,0.056l-0.079,0.055l-0.077,0.053l-0.075,0.053l-0.077,0.056l-0.076,0.055l-0.071,0.053l-0.071,0.053l-0.068,0.053l-0.07,0.054l-0.071,0.056l-0.062,0.05l-0.064,0.052l-0.068,0.056l-0.062,0.051l-0.06,0.051l-0.066,0.058l-0.059,0.051l-0.057,0.051l-0.061,0.056l-0.056,0.051l-0.057,0.053l-0.056,0.053l-0.057,0.056l-0.055,0.053l-0.053,0.053l-0.053,0.054l-0.053,0.053l-0.053,0.056l-0.049,0.052l-0.053,0.056l-0.054,0.06l-0.047,0.051l-0.048,0.055l-0.051,0.058l-0.05,0.058l-0.049,0.058l-0.047,0.056l-0.046,0.056l-0.05,0.062l-0.048,0.06l-0.046,0.058l-0.045,0.059l-0.046,0.061l-0.049,0.065l-0.047,0.064l-0.045,0.063l-0.046,0.063l-0.046,0.066l-0.043,0.062l-0.047,0.069l-0.047,0.071l-0.045,0.069l-0.044,0.068l-0.045,0.069l-0.047,0.076l-0.044,0.072l-0.044,0.071l-0.046,0.077l-0.044,0.076l-0.046,0.079l-0.047,0.082l-0.042,0.075l-0.044,0.081l-0.048,0.089l-0.045,0.084l-0.044,0.083l-0.043,0.085l-0.044,0.086l-0.046,0.093l-0.046,0.094l-0.045,0.093l-0.043,0.091l-0.045,0.096l-0.046,0.1l-0.044,0.098l-0.045,0.103l-0.044,0.099l-0.044,0.103l-0.045,0.108l-0.045,0.109l-0.046,0.111l-0.043,0.109l-0.042,0.108l-0.045,0.116l-0.044,0.117l-0.044,0.117l-0.044,0.12l-0.045,0.125l-0.043,0.121l-0.043,0.124l-0.044,0.13l-0.042,0.126l-0.042,0.128l-0.044,0.134l-0.043,0.135l-0.042,0.137l-0.043,0.138l-0.042,0.141l-0.043,0.146l-0.04,0.138l-0.041,0.145l-0.042,0.15l-0.042,0.152l-0.041,0.154l-0.04,0.151l-0.039,0.152l-0.04,0.159l-0.041,0.164l-0.04,0.161l-0.038,0.158l-0.039,0.166l-0.039,0.171l-0.038,0.166l-0.038,0.175l-0.039,0.175l-0.036,0.173l-0.037,0.174l-0.037,0.18l-0.037,0.186l-0.035,0.18l-0.036,0.185l-0.036,0.19l-0.035,0.189l-0.034,0.19l-0.035,0.195l-0.034,0.193l-0.033,0.195l-0.034,0.204l-0.032,0.198l-0.032,0.2l-0.033,0.209l-0.031,0.207l-0.031,0.209l-0.032,0.214l-0.03,0.212l-0.03,0.213l-0.029,0.215l-0.03,0.22l-0.029,0.223l-0.028,0.22l-0.028,0.225l-0.028,0.227l-0.026,0.217l-0.054,0.476l-0.052,0.47l-0.05,0.478l-0.048,0.487l-0.047,0.493l-0.045,0.502l-0.043,0.508l-0.042,0.517l-0.04,0.525l-0.039,0.532l-0.037,0.54l-0.035,0.545l-0.034,0.556l-0.032,0.562l-0.031,0.568l-0.029,0.577l-0.028,0.586l-0.026,0.591l-0.025,0.599l-0.023,0.607l-0.022,0.613l-0.021,0.622l-0.019,0.628l-0.018,0.635l-0.016,0.645l-0.016,0.65l-0.014,0.657l-0.013,0.665l-0.012,0.672l-0.011,0.68l-0.01,0.687l-0.008,0.694l-0.008,0.701l-0.007,0.708l-0.005,0.715l-0.005,0.724l-0.004,0.731l-0.004,0.737l-0.002,0.745l-0.002,0.748l-0.001,1.53l0.001,1.613l0.002,1.639l0.004,1.662l0.006,1.685l0.007,1.708l0.009,1.732l0.011,1.754l0.012,1.776l0.013,1.797l0.015,1.819l0.017,1.84l0.018,1.861l0.019,1.881l0.021,1.902l0.022,1.921l0.024,1.941l0.025,1.961l0.027,1.979l0.027,1.998l0.029,2.017l0.03,2.034l0.032,2.052l0.033,2.07l0.034,2.087l0.035,2.103l0.037,2.121l0.037,2.136l0.039,2.153l0.04,2.169l0.041,2.183l0.042,2.199l0.044,2.214l0.044,2.228l0.045,2.241l0.094,4.528l0.097,4.579l0.102,4.63l0.104,4.68l0.109,4.725l0.111,4.769l0.115,4.811l0.118,4.85l0.12,4.887l0.123,4.922l0.126,4.954l0.128,4.983l0.13,5.011l0.132,5.037l0.134,5.059l0.136,5.08l0.137,5.098l0.139,5.114l0.139,5.128l0.283,10.287l0.286,10.314l0.287,10.321l0.288,10.311l0.287,10.281l0.285,10.234l0.281,10.168l0.277,10.081l0.136,5.005l0.135,4.976l0.133,4.945l0.131,4.912l0.129,4.877l0.127,4.841l0.124,4.8l0.122,4.759l0.118,4.713l0.117,4.668l0.113,4.619l0.114,4.758l-0.001,2.456l-0.001,2.253l-0.002,2.24l-0.003,2.227l-0.004,2.213l-0.005,2.2l-0.005,2.189l-0.007,2.175l-0.007,2.161l-0.009,2.15l-0.009,2.136l-0.01,2.125l-0.011,2.112l-0.012,2.1l-0.013,2.087l-0.014,2.076l-0.015,2.063l-0.016,2.051l-0.017,2.039l-0.017,2.027l-0.019,2.016l-0.02,2.004l-0.021,1.992l-0.021,1.981l-0.023,1.969l-0.024,1.958l-0.025,1.948l-0.025,1.935l-0.027,1.924l-0.028,1.914l-0.029,1.902l-0.03,1.892l-0.031,1.881l-0.032,1.87l-0.034,1.859l-0.034,1.849l-0.035,1.838l-0.037,1.828l-0.037,1.818l-0.039,1.807l-0.04,1.797l-0.041,1.788l-0.042,1.777l-0.043,1.767l-0.044,1.758l-0.046,1.748l-0.047,1.738l-0.048,1.728l-0.049,1.719l-0.05,1.709l-0.051,1.701l-0.053,1.691l-0.054,1.682l-0.055,1.672l-0.056,1.664l-0.057,1.655l-0.059,1.645l-0.06,1.637l-0.061,1.628l-0.063,1.62l-0.063,1.612l-0.065,1.602l-0.067,1.595l-0.067,1.586l-0.069,1.577l-0.07,1.57l-0.072,1.561l-0.072,1.554l-0.074,1.545l-0.076,1.539l-0.077,1.53l-0.078,1.522l-0.079,1.515l-0.081,1.507l-0.082,1.5l-0.083,1.493l-0.085,1.485l-0.087,1.479l-0.087,1.47l-0.089,1.464l-0.091,1.457l-0.092,1.45l-0.093,1.443l-0.095,1.437l-0.096,1.43l-0.098,1.423l-0.099,1.418l-0.1,1.41l-0.102,1.404l-0.104,1.398l-0.105,1.391l-0.106,1.386l-0.108,1.38l-0.11,1.374l-0.111,1.368l-0.112,1.362l-0.114,1.356l-0.116,1.351l-0.117,1.345l-0.118,1.339l-0.121,1.335l-0.121,1.329l-0.124,1.324l-0.125,1.318l-0.126,1.314l-0.128,1.308l-0.13,1.304l-0.131,1.298l-0.133,1.294l-0.135,1.289l-0.136,1.285l-0.138,1.28l-0.139,1.276l-0.141,1.27l-0.143,1.267l-0.145,1.263l-0.146,1.259l-0.147,1.253l-0.15,1.251l-0.151,1.245l-0.153,1.243l-0.154,1.238l-0.156,1.235l-0.159,1.232l-0.159,1.227l-0.162,1.224l-0.163,1.22l-0.204,1.506l-0.27,1.55l-0.22,1.253l-0.221,1.248l-0.222,1.244l-0.222,1.239l-0.222,1.234l-0.222,1.23l-0.223,1.226l-0.223,1.221l-0.224,1.217l-0.223,1.214l-0.224,1.209l-0.446,2.403l-0.446,2.391l-0.445,2.376l-0.443,2.362l-0.88,4.688l-0.435,2.325l-0.432,2.315l-0.428,2.307l-0.212,1.148l-0.211,1.146l-0.21,1.145l-0.208,1.143l-0.207,1.141l-0.206,1.139l-0.204,1.137l-0.203,1.136l-0.201,1.134l-0.2,1.132l-0.198,1.132l-0.196,1.131l-0.194,1.129l-0.193,1.127l-0.191,1.129l-0.188,1.126l-0.187,1.126l-0.184,1.125l-0.183,1.125l-0.18,1.125l-0.178,1.123l-0.176,1.124l-0.173,1.125l-0.172,1.124l-0.168,1.124l-0.166,1.124l-0.164,1.125l-0.161,1.125l-0.159,1.127l-0.155,1.126l-0.154,1.133l-0.075,0.558l-0.074,0.564l-0.075,0.566l-0.073,0.564l-0.072,0.565l-0.072,0.566l-0.072,0.566l-0.07,0.564l-0.069,0.568l-0.07,0.568l-0.068,0.566l-0.067,0.567l-0.066,0.568l-0.066,0.57l-0.065,0.567l-0.064,0.568l-0.064,0.572l-0.063,0.571l-0.061,0.568l-0.061,0.571l-0.061,0.573l-0.059,0.572l-0.059,0.573l-0.057,0.574l-0.057,0.572l-0.056,0.576l-0.055,0.576l-0.054,0.573l-0.054,0.576l-0.052,0.579l-0.052,0.577l-0.051,0.579l-0.049,0.578l-0.049,0.578l-0.048,0.583l-0.047,0.581l-0.046,0.58l-0.045,0.584l-0.045,0.583l-0.043,0.585l-0.043,0.585l-0.041,0.585l-0.04,0.586l-0.04,0.587l-0.038,0.59l-0.038,0.59l-0.036,0.589l-0.036,0.591l-0.034,0.593l-0.034,0.592l-0.032,0.594l-0.032,0.594l-0.03,0.597l-0.029,0.597l-0.029,0.596l-0.027,0.601l-0.026,0.6l-0.025,0.6l-0.024,0.601l-0.023,0.604l-0.022,0.604l-0.021,0.605l-0.02,0.608l-0.018,0.606l-0.018,0.609l-0.016,0.611l-0.015,0.611l-0.015,0.612l-0.013,0.613l-0.011,0.616l-0.011,0.615l-0.01,0.617l-0.008,0.62l-0.007,0.619l-0.006,0.62l-0.005,0.624l-0.003,0.625l-0.003,0.625l-0.001,0.625l0,0.629l0.001,0.63l0.003,0.629l0.004,0.633l0.005,0.633l0.006,0.636l0.007,0.636l0.009,0.638l0.01,0.641l0.011,0.64l0.013,0.641l0.014,0.646l0.015,0.647l0.017,0.645l0.018,0.649l0.019,0.651l0.02,0.652l0.022,0.654l0.023,0.656l0.025,0.656l0.026,0.659l0.027,0.662l0.029,0.66l0.03,0.663l0.032,0.667l0.032,0.668l0.035,0.669l0.035,0.671l0.037,0.672l0.039,0.674l0.04,0.677l0.042,0.678l0.042,0.68l0.045,0.682l0.046,0.684l0.047,0.686l0.049,0.686l0.05,0.689l0.052,0.692l0.053,0.695l0.055,0.694l0.056,0.697l0.058,0.7l0.06,0.701l0.061,0.703l0.062,0.706l0.064,0.706l0.066,0.71l0.067,0.711l0.069,0.714l0.07,0.716l0.073,0.718l0.073,0.72l0.075,0.721l0.107,1.006l0.073,1.007l0.054,0.726l0.056,0.73l0.058,0.734l0.059,0.734l0.06,0.737l0.062,0.74l0.064,0.742l0.066,0.744l0.066,0.746l0.069,0.749l0.07,0.75l0.071,0.754l0.074,0.758l0.074,0.758l0.076,0.759l0.078,0.763l0.079,0.766l0.08,0.767l0.082,0.769l0.084,0.771l0.085,0.775l0.086,0.775l0.088,0.778l0.089,0.781l0.091,0.782l0.092,0.784l0.093,0.787l0.095,0.789l0.096,0.791l0.097,0.791l0.099,0.795l0.1,0.798l0.101,0.798l0.103,0.8l0.104,0.804l0.105,0.804l0.107,0.806l0.107,0.808l0.11,0.81l0.11,0.814l0.111,0.813l0.113,0.816l0.114,0.817l0.115,0.82l0.117,0.822l0.117,0.823l0.119,0.824l0.119,0.827l0.122,0.83l0.121,0.829l0.124,0.832l0.124,0.833l0.125,0.835l0.127,0.838l0.127,0.839l0.129,0.839l0.13,0.842l0.13,0.844l0.132,0.846l0.133,0.846l0.133,0.845l0.271,1.704l0.274,1.708l0.278,1.713l0.282,1.719l0.286,1.726l0.289,1.73l0.292,1.736l0.296,1.742l0.299,1.747l0.302,1.753l0.306,1.758l0.308,1.762l0.311,1.767l0.314,1.773l0.316,1.776l0.32,1.782l0.322,1.787l0.324,1.79l0.326,1.795l0.329,1.799l0.331,1.803l0.333,1.806l0.335,1.811l0.337,1.815l0.339,1.818l0.34,1.822l0.342,1.825l0.343,1.828l0.345,1.831l0.694,3.674l0.698,3.685l0.702,3.695l0.706,3.705l1.416,7.439l0.71,3.73l0.711,3.738l0.709,3.744l0.708,3.747l0.354,1.878l0.352,1.877l0.352,1.878l0.352,1.879l0.35,1.88l0.349,1.88l0.349,1.881l0.347,1.881l0.346,1.882l0.344,1.882l0.343,1.882l0.342,1.882l0.34,1.882l0.338,1.883l0.336,1.881l0.334,1.881l0.333,1.881l0.33,1.881l0.328,1.88l0.326,1.879l0.323,1.878l0.321,1.878l0.318,1.877l0.316,1.876l0.313,1.873l0.31,1.873l0.307,1.872l0.304,1.87l0.301,1.869l0.297,1.864l0.148,0.936l0.147,0.932l0.146,0.932l0.145,0.933l0.144,0.931l0.143,0.929l0.143,0.931l0.141,0.93l0.141,0.928l0.14,0.93l0.138,0.928l0.138,0.927l0.136,0.926l0.136,0.927l0.135,0.926l0.134,0.926l0.132,0.924l0.132,0.923l0.131,0.924l0.129,0.923l0.129,0.922l0.127,0.921l0.126,0.921l0.125,0.919l0.124,0.919l0.124,0.92l0.121,0.918l0.121,0.917l0.119,0.916l0.119,0.915l0.117,0.916l0.116,0.914l0.115,0.913l0.113,0.913l0.112,0.912l0.143,1.17l0.105,1.196l0.08,0.936l0.08,0.935l0.078,0.935l0.077,0.932l0.076,0.931l0.074,0.931l0.074,0.929l0.072,0.927l0.07,0.927l0.07,0.926l0.068,0.924l0.067,0.924l0.066,0.921l0.065,0.921l0.063,0.921l0.062,0.918l0.062,0.916l0.059,0.915l0.059,0.915l0.058,0.914l0.056,0.913l0.056,0.911l0.054,0.908l0.053,0.909l0.052,0.907l0.05,0.906l0.05,0.904l0.049,0.903l0.047,0.902l0.046,0.9l0.046,0.898l0.044,0.899l0.043,0.896l0.042,0.894l0.041,0.894l0.04,0.894l0.039,0.891l0.038,0.889l0.037,0.888l0.036,0.886l0.035,0.886l0.033,0.884l0.033,0.883l0.032,0.881l0.031,0.879l0.03,0.879l0.028,0.877l0.028,0.876l0.027,0.874l0.026,0.872l0.025,0.871l0.024,0.869l0.024,0.87l0.022,0.867l0.021,0.864l0.02,0.863l0.02,0.863l0.018,0.861l0.018,0.858l0.017,0.857l0.016,0.858l0.015,0.854l0.014,0.852l0.013,0.853l0.013,0.85l0.011,0.848l0.011,0.846l0.01,0.846l0.009,0.844l0.009,0.842l0.007,0.84l0.007,0.839l0.006,0.838l0.005,0.834l0.004,0.834l0.004,0.833l0.002,0.835l0.004,1.653l0,1.65l-0.003,1.643l-0.006,1.637l-0.008,1.629l-0.011,1.623l-0.014,1.616l-0.017,1.61l-0.019,1.602l-0.022,1.595l-0.024,1.587l-0.027,1.582l-0.029,1.574l-0.032,1.566l-0.034,1.559l-0.036,1.552l-0.038,1.543l-0.041,1.537l-0.042,1.53l-0.045,1.521l-0.047,1.514l-0.048,1.507l-0.05,1.498l-0.053,1.491l-0.054,1.482l-0.055,1.475l-0.057,1.468l-0.059,1.459l-0.061,1.449l-0.061,1.443l-0.064,1.436l-0.065,1.426l-0.066,1.418l-0.067,1.409l-0.068,1.4l-0.07,1.393l-0.071,1.385l-0.072,1.375l-0.072,1.366l-0.074,1.358l-0.075,1.35l-0.075,1.341l-0.077,1.331l-0.077,1.322l-0.077,1.314l-0.079,1.305l-0.079,1.295l-0.079,1.287l-0.08,1.277l-0.08,1.267l-0.081,1.258l-0.08,1.249l-0.082,1.24l-0.081,1.23l-0.082,1.222l-0.163,2.409l-0.162,2.372l-0.163,2.332l-0.161,2.292l-0.16,2.251l-0.158,2.21l-0.156,2.169l-0.303,4.208l-0.146,2.039l-0.143,1.996l-0.137,1.949l-0.133,1.904l-0.128,1.859l-0.122,1.815l-0.058,0.884l-0.057,0.875l-0.056,0.864l-0.081,1.291l-0.157,1.334l-0.103,0.883l-0.1,0.866l-0.096,0.851l-0.093,0.83l-0.088,0.813l-0.084,0.8l-0.04,0.384l-0.039,0.388l-0.037,0.38l-0.037,0.375l-0.034,0.37l-0.034,0.367l-0.032,0.363l-0.031,0.356l-0.029,0.35l-0.028,0.346l-0.026,0.344l-0.025,0.337l-0.023,0.33l-0.021,0.326l-0.02,0.321l-0.019,0.317l-0.016,0.31l-0.015,0.306l-0.014,0.301l-0.012,0.293l-0.01,0.29l-0.008,0.283l-0.007,0.28l-0.005,0.274l-0.004,0.264l-0.002,0.264l0,0.257l0.001,0.248l0.003,0.245l0.005,0.24l0.005,0.235l0.008,0.224l0.009,0.222l0.01,0.22l0.012,0.207l0.013,0.204l0.014,0.201l0.015,0.187l0.019,0.206l0.007,0.075l0.009,0.092l0.009,0.085l0.01,0.086l0.01,0.084l0.01,0.083l0.01,0.087l0.011,0.082l0.01,0.075l0.01,0.072l0.013,0.083l0.011,0.078l0.011,0.066l0.012,0.074l0.012,0.076l0.011,0.063l0.012,0.068l0.013,0.071l0.012,0.063l0.013,0.066l0.012,0.058l0.013,0.064l0.013,0.06l0.011,0.05l0.014,0.062l0.014,0.058l0.013,0.054l0.013,0.053l0.013,0.052l0.013,0.052l0.013,0.048l0.011,0.041l0.015,0.053l0.014,0.049l0.012,0.039l0.014,0.047l0.013,0.041l0.012,0.041l0.013,0.04l0.012,0.036l0.013,0.039l0.027,0.076l0.025,0.069l0.026,0.068l0.024,0.06l0.025,0.06l0.025,0.057l0.023,0.052l0.024,0.052l0.025,0.05l0.025,0.051l0.022,0.04l0.024,0.046l0.03,0.052l0.018,0.031l0.033,0.054l0.018,0.029l0.033,0.051l0.041,0.059l0.034,0.049l0.027,0.036l0.039,0.053l0.031,0.039l0.036,0.045l0.047,0.057l0.041,0.047l0.046,0.052l0.045,0.049l0.036,0.038l0.025,0.027l0.053,0.055l0.029,0.029l0.03,0.029l0.034,0.034l0.035,0.034l0.031,0.029l0.032,0.03l0.04,0.037l0.041,0.037l0.036,0.032l0.041,0.037l0.043,0.037l0.043,0.037l0.039,0.034l0.048,0.039l0.049,0.041l0.043,0.035l0.053,0.042l0.054,0.043l0.049,0.038l0.057,0.044l0.059,0.045l0.052,0.039l0.06,0.044l0.062,0.045l0.066,0.048l0.068,0.048l0.061,0.043l0.059,0.041l0.072,0.048l0.08,0.055l0.066,0.043l0.069,0.046l0.087,0.056l0.081,0.052l0.073,0.046l0.083,0.051l0.085,0.052l0.087,0.053l0.091,0.055l0.081,0.048l0.093,0.054l0.102,0.059l0.088,0.05l0.099,0.055l0.101,0.057l0.102,0.055l0.103,0.056l0.099,0.053l0.115,0.061l0.112,0.058l0.112,0.058l0.112,0.057l0.115,0.058l0.119,0.059l0.113,0.056l0.131,0.063l0.123,0.059l0.126,0.059l0.128,0.06l0.13,0.06l0.134,0.062l0.133,0.06l0.144,0.064l0.132,0.058l0.14,0.061l0.151,0.065l0.146,0.062l0.146,0.061l0.149,0.062l0.151,0.062l0.161,0.066l0.157,0.063l0.156,0.062l0.16,0.062l0.163,0.063l0.17,0.066l0.167,0.063l0.169,0.063l0.177,0.066l0.173,0.063l0.175,0.064l0.177,0.063l0.18,0.064l0.188,0.065l0.184,0.064l0.186,0.064l0.194,0.066l0.198,0.066l0.192,0.064l0.194,0.063l0.198,0.064l0.2,0.064l0.207,0.066l0.21,0.066l0.207,0.064l0.207,0.063l0.216,0.066l0.22,0.066l0.215,0.063l0.216,0.064l0.226,0.066l0.221,0.063l0.23,0.065l0.232,0.066l0.228,0.063l0.23,0.064l0.239,0.065l0.241,0.065l0.237,0.063l0.239,0.063l0.248,0.065l0.24,0.062l0.51,0.13l0.512,0.127l0.519,0.127l0.53,0.126l0.539,0.127l0.548,0.126l0.557,0.125l0.564,0.124l0.575,0.124l0.587,0.124l0.596,0.124l0.603,0.123l0.612,0.122l0.621,0.121l0.632,0.121l0.642,0.121l0.649,0.12l0.661,0.119l0.672,0.119l0.678,0.119l0.686,0.117l0.697,0.116l0.71,0.117l0.716,0.115l0.726,0.115l0.737,0.115l0.747,0.114l0.754,0.113l0.765,0.112l0.776,0.112l0.782,0.111l0.797,0.111l0.804,0.11l0.811,0.109l0.826,0.108l0.835,0.109l0.84,0.107l0.854,0.106l0.865,0.107l0.871,0.105l0.884,0.105l0.894,0.104l0.903,0.104l0.912,0.103l0.923,0.102l0.935,0.102l0.944,0.101l0.953,0.101l0.964,0.1l0.975,0.099l0.986,0.099l0.994,0.098l1.004,0.098l1.016,0.097l1.028,0.097l1.035,0.096l1.047,0.095l1.059,0.096l1.067,0.094l1.078,0.094l1.091,0.094l1.099,0.092l1.112,0.093l1.122,0.092l1.131,0.092l1.142,0.091l1.154,0.09l1.166,0.09l1.176,0.09l1.185,0.089l1.197,0.089l1.21,0.088l1.219,0.088l1.231,0.088l1.242,0.087l1.254,0.087l1.263,0.086l1.275,0.086l1.287,0.086l1.3,0.085l1.309,0.085l1.32,0.085l1.332,0.084l1.344,0.084l1.355,0.084l1.367,0.083l1.377,0.083l1.391,0.082l1.402,0.083l1.413,0.082l1.425,0.082l1.437,0.082l1.449,0.081l1.461,0.082l1.472,0.081l1.484,0.08l1.639,0.089l1.649,0.117l1.518,0.107l1.53,0.106l1.542,0.107l1.554,0.106l1.565,0.106l1.579,0.106l1.589,0.106l1.599,0.105l1.613,0.105l1.623,0.105l1.633,0.105l1.646,0.104l1.657,0.105l1.666,0.103l1.678,0.104l1.688,0.104l1.699,0.103l1.71,0.103l1.719,0.103l1.731,0.102l1.74,0.102l1.75,0.102l1.761,0.102l1.77,0.101l1.779,0.101l1.791,0.101l1.799,0.101l1.809,0.1l1.817,0.1l1.827,0.099l1.838,0.099l1.846,0.1l1.855,0.098l1.863,0.099l1.874,0.098l1.881,0.097l1.889,0.098l1.9,0.097l1.907,0.097l1.915,0.096l1.922,0.096l3.873,0.191l3.904,0.19l3.935,0.188l3.965,0.187l3.995,0.185l4.024,0.184l4.052,0.182l4.08,0.181l4.105,0.179l4.132,0.177l4.157,0.176l4.182,0.174l4.205,0.173l4.228,0.17l4.25,0.169l4.271,0.168l4.293,0.165l4.312,0.164l4.33,0.161l4.35,0.16l4.367,0.158l4.384,0.156l4.401,0.154l4.415,0.152l4.43,0.15l4.444,0.147l4.457,0.146l4.47,0.144l4.481,0.142l4.491,0.139l4.502,0.137l4.512,0.135l4.52,0.133l4.528,0.131l4.535,0.128l4.542,0.126l4.547,0.123l4.552,0.122l4.556,0.119l4.56,0.116l4.562,0.114l4.564,0.112l4.565,0.108l4.566,0.107l4.565,0.104l4.564,0.101l4.562,0.099l4.56,0.096l4.557,0.094l4.552,0.09l4.547,0.088l4.542,0.086l4.535,0.082l4.529,0.08l4.52,0.077l4.512,0.074l4.503,0.071l4.492,0.069l4.482,0.065l4.469,0.062l4.458,0.06l4.445,0.056l4.431,0.054l4.416,0.05l4.4,0.048l4.385,0.044l4.369,0.041l2.176,0.019l2.174,0.019l2.167,0.018l2.164,0.017l2.159,0.016l2.154,0.015l2.148,0.015l2.145,0.014l2.138,0.013l2.134,0.012l2.128,0.011l2.123,0.011l2.117,0.009l2.111,0.009l2.106,0.008l2.1,0.007l2.094,0.007l2.088,0.005l2.083,0.004l2.076,0.004l2.068,0.003l2.064,0.002l2.056,0.001l2.051,0.001l2.043,-0.001l2.037,-0.001l2.03,-0.002l2.022,-0.004l2.016,-0.004l2.009,-0.005l2.002,-0.005l1.993,-0.007l1.987,-0.008l1.98,-0.008l1.971,-0.01l1.964,-0.01l1.956,-0.011l1.948,-0.012l1.94,-0.013l1.933,-0.014l1.923,-0.015l1.917,-0.016l1.906,-0.016l1.899,-0.018l1.891,-0.018l1.881,-0.02l1.872,-0.02l1.864,-0.022l1.855,-0.022l1.847,-0.023l1.836,-0.024l1.828,-0.026l1.819,-0.026l1.808,-0.027l1.799,-0.028l1.79,-0.029l1.779,-0.03l1.77,-0.031l1.761,-0.031l1.75,-0.033l1.74,-0.034l1.73,-0.035l1.72,-0.036l1.708,-0.037l1.7,-0.037l1.687,-0.039l1.676,-0.04l1.668,-0.041l1.656,-0.041l1.644,-0.043l1.633,-0.044l1.623,-0.045l1.611,-0.045l1.599,-0.047l0.108,-0.003l-0.093,-0.128l-0.272,-0.374l-0.276,-0.381l-0.273,-0.379l-0.27,-0.377l-0.271,-0.379l-0.272,-0.381l-0.269,-0.38l-0.267,-0.377l-0.267,-0.38l-0.268,-0.382l-0.265,-0.381l-0.263,-0.378l-0.263,-0.381l-0.263,-0.383l-0.262,-0.381l-0.256,-0.377l-0.263,-0.386l-0.258,-0.382l-0.256,-0.379l-0.257,-0.385l-0.254,-0.38l-0.255,-0.383l-0.252,-0.382l-0.254,-0.386l-0.254,-0.387l-0.248,-0.38l-0.247,-0.381l-0.249,-0.384l-0.249,-0.387l-0.247,-0.385l-0.245,-0.385l-0.246,-0.387l-0.243,-0.385l-0.241,-0.383l-0.243,-0.388l-0.241,-0.386l-0.239,-0.387l-0.24,-0.388l-0.236,-0.384l-0.237,-0.387l-0.237,-0.39l-0.235,-0.388l-0.233,-0.387l-0.233,-0.388l-0.232,-0.389l-0.23,-0.388l-0.232,-0.391l-0.23,-0.392l-0.226,-0.386l-0.228,-0.39l-0.227,-0.393l-0.225,-0.39l-0.225,-0.391l-0.224,-0.392l-0.222,-0.391l-0.221,-0.392l-0.22,-0.391l-0.219,-0.391l-0.222,-0.398l-0.217,-0.392l-0.215,-0.39l-0.215,-0.393l-0.215,-0.393l-0.215,-0.397l-0.216,-0.399l-0.211,-0.394l-0.209,-0.39l-0.212,-0.399l-0.21,-0.398l-0.206,-0.392l-0.207,-0.395l-0.209,-0.402l-0.205,-0.396l-0.202,-0.393l-0.207,-0.402l-0.202,-0.397l-0.201,-0.398l-0.202,-0.4l-0.2,-0.398l-0.2,-0.402l-0.197,-0.397l-0.198,-0.401l-0.195,-0.4l-0.195,-0.4l-0.196,-0.404l-0.192,-0.399l-0.194,-0.403l-0.191,-0.401l-0.192,-0.404l-0.19,-0.404l-0.187,-0.398l-0.19,-0.409l-0.187,-0.403l-0.185,-0.402l-0.186,-0.406l-0.184,-0.404l-0.185,-0.408l-0.182,-0.406l-0.18,-0.401l-0.182,-0.409l-0.181,-0.408l-0.179,-0.407l-0.176,-0.405l-0.179,-0.409l-0.176,-0.41l-0.175,-0.406l-0.175,-0.41l-0.174,-0.411l-0.173,-0.409l-0.171,-0.409l-0.17,-0.408l-0.17,-0.411l-0.171,-0.414l-0.169,-0.413l-0.166,-0.41l-0.167,-0.413l-0.166,-0.415l-0.164,-0.409l-0.163,-0.413l-0.164,-0.415l-0.164,-0.417l-0.16,-0.413l-0.16,-0.413l-0.159,-0.415l-0.159,-0.417l-0.159,-0.417l-0.156,-0.415l-0.156,-0.417l-0.156,-0.418l-0.155,-0.42l-0.153,-0.418l-0.152,-0.416l-0.151,-0.417l-0.152,-0.423l-0.15,-0.42l-0.149,-0.418l-0.148,-0.42l-0.148,-0.423l-0.147,-0.421l-0.145,-0.42l-0.146,-0.424l-0.144,-0.424l-0.143,-0.421l-0.143,-0.423l-0.142,-0.426l-0.139,-0.421l-0.14,-0.424l-0.141,-0.429l-0.138,-0.426l-0.137,-0.423l-0.137,-0.427l-0.135,-0.427l-0.136,-0.428l-0.134,-0.427l-0.133,-0.428l-0.132,-0.429l-0.132,-0.427l-0.131,-0.431l-0.13,-0.43l-0.13,-0.43l-0.128,-0.431l-0.128,-0.432l-0.126,-0.429l-0.127,-0.433l-0.125,-0.432l-0.124,-0.434l-0.125,-0.435l-0.123,-0.434l-0.121,-0.433l-0.121,-0.433l-0.121,-0.435l-0.12,-0.438l-0.119,-0.436l-0.118,-0.435l-0.117,-0.437l-0.117,-0.438l-0.115,-0.437l-0.115,-0.439l-0.115,-0.441l-0.113,-0.437l-0.113,-0.441l-0.111,-0.439l-0.112,-0.44l-0.111,-0.444l-0.109,-0.441l-0.109,-0.443l-0.108,-0.442l-0.107,-0.442l-0.106,-0.442l-0.107,-0.446l-0.105,-0.444l-0.104,-0.447l-0.104,-0.445l-0.102,-0.445l-0.103,-0.447l-0.101,-0.447l-0.101,-0.448l-0.1,-0.449l-0.099,-0.448l-0.098,-0.447l-0.098,-0.451l-0.097,-0.45l-0.096,-0.452l-0.095,-0.45l-0.095,-0.452l-0.094,-0.45l-0.093,-0.453l-0.094,-0.456l-0.091,-0.453l-0.091,-0.453l-0.092,-0.462l-0.178,-0.905l-0.176,-0.913l-0.083,-0.44l0,-0.001l-0.114,-0.46l-0.113,-0.462l-0.112,-0.46l-0.112,-0.46l-0.11,-0.461l-0.111,-0.463l-0.109,-0.464l-0.108,-0.461l-0.108,-0.463l-0.109,-0.468l-0.108,-0.471l-0.209,-0.924l-0.208,-0.933l-0.206,-0.936l-0.203,-0.938l-0.2,-0.94l-0.198,-0.942l-0.195,-0.945l-0.191,-0.945l-0.189,-0.948l-0.187,-0.951l-0.184,-0.952l-0.181,-0.955l-0.178,-0.956l-0.175,-0.958l-0.173,-0.959l-0.17,-0.963l-0.168,-0.963l-0.164,-0.966l-0.162,-0.968l-0.16,-0.969l-0.156,-0.971l-0.154,-0.973l-0.151,-0.976l-0.148,-0.975l-0.146,-0.978l-0.143,-0.981l-0.14,-0.982l-0.138,-0.984l-0.135,-0.985l-0.132,-0.987l-0.13,-0.988l-0.127,-0.99l-0.124,-0.992l-0.121,-0.994l-0.119,-0.995l-0.116,-0.996l-0.114,-0.998l-0.11,-0.999l-0.109,-1.002l-0.105,-1.003l-0.103,-1.003l-0.1,-1.006l-0.097,-1.007l-0.095,-1.009l-0.092,-1.008l-0.09,-1.012l-0.086,-1.013l-0.085,-1.014l-0.081,-1.016l-0.079,-1.016l-0.076,-1.017l-0.074,-1.02l-0.07,-1.021l-0.069,-1.021l-0.065,-1.023l-0.063,-1.024l-0.06,-1.025l-0.058,-1.026l-0.055,-1.028l-0.052,-1.029l-0.05,-1.03l-0.047,-1.03l-0.044,-1.033l-0.042,-1.034l-0.039,-1.034l-0.036,-1.034l-0.034,-1.037l-0.031,-1.037l-0.029,-1.038l-0.026,-1.039l-0.023,-1.041l-0.021,-1.041l-0.018,-1.041l-0.015,-1.043l-0.013,-1.045l-0.01,-1.044l-0.007,-1.045l-0.005,-1.047l-0.002,-1.046l0,-1.048l0.003,-1.049l0.006,-1.05l0.008,-1.049l0.011,-1.051l0.014,-1.052l0.016,-1.052l0.019,-1.053l0.021,-1.053l0.024,-1.054l0.027,-1.054l0.029,-1.055l0.032,-1.057l0.035,-1.056l0.037,-1.057l0.04,-1.057l0.043,-1.058l0.045,-1.059l0.047,-1.058l0.051,-1.059l0.053,-1.061l0.055,-1.059l0.059,-1.06l0.06,-1.061l0.064,-1.062l0.066,-1.061l0.069,-1.062l0.071,-1.062l0.074,-1.062l0.077,-1.063l0.079,-1.064l0.082,-1.061l0.084,-1.064l0.087,-1.064l0.09,-1.064l0.092,-1.063l0.095,-1.064l0.098,-1.065l0.1,-1.064l0.103,-1.063l0.105,-1.064l0.108,-1.065l0.116,-1.11l0.064,-0.567l0.059,-0.518l0.06,-0.52l0.062,-0.518l0.062,-0.52l0.064,-0.519l0.065,-0.52l0.066,-0.517l0.067,-0.521l0.068,-0.522l0.069,-0.518l0.07,-0.518l0.071,-0.522l0.073,-0.519l0.073,-0.519l0.074,-0.521l0.076,-0.518l0.076,-0.521l0.078,-0.519l0.078,-0.518l0.08,-0.521l0.081,-0.521l0.081,-0.518l0.083,-0.519l0.084,-0.522l0.084,-0.518l0.086,-0.519l0.087,-0.52l0.087,-0.518l0.089,-0.52l0.09,-0.52l0.091,-0.52l0.091,-0.517l0.093,-0.518l0.094,-0.52l0.094,-0.519l0.096,-0.517l0.097,-0.521l0.097,-0.517l0.098,-0.519l0.1,-0.518l0.1,-0.518l0.102,-0.518l0.102,-0.517l0.103,-0.518l0.105,-0.519l0.105,-0.518l0.106,-0.515l0.107,-0.518l0.108,-0.516l0.109,-0.518l0.11,-0.517l0.11,-0.514l0.111,-0.517l0.113,-0.517l0.114,-0.516l0.114,-0.515l0.115,-0.515l0.116,-0.518l0.117,-0.514l0.118,-0.513l0.119,-0.516l0.12,-0.516l0.12,-0.513l0.121,-0.514l0.123,-0.512l0.122,-0.513l0.125,-0.515l0.125,-0.514l0.125,-0.511l0.127,-0.512l0.127,-0.514l0.129,-0.512l0.129,-0.512l0.129,-0.509l0.131,-0.512l0.133,-0.514l0.132,-0.51l0.133,-0.507l0.134,-0.51l0.135,-0.511l0.136,-0.509l0.136,-0.508l0.138,-0.51l0.138,-0.51l0.139,-0.506l0.14,-0.508l0.14,-0.506l0.141,-0.507l0.143,-0.509l0.143,-0.505l0.143,-0.505l0.145,-0.507l0.145,-0.506l0.146,-0.503l0.147,-0.505l0.148,-0.504l0.148,-0.502l0.149,-0.503l0.15,-0.505l0.151,-0.502l0.151,-0.501l0.152,-0.502l0.153,-0.501l0.154,-0.501l0.154,-0.5l0.155,-0.501l0.156,-0.498l0.156,-0.499l0.158,-0.5l0.158,-0.496l0.158,-0.497l0.16,-0.497l0.16,-0.499l0.161,-0.496l0.161,-0.492l0.163,-0.497l0.163,-0.496l0.163,-0.493l0.164,-0.493l0.166,-0.495l0.166,-0.493l0.166,-0.489l0.167,-0.493l0.168,-0.492l0.168,-0.49l0.169,-0.489l0.17,-0.49l0.171,-0.49l0.171,-0.488l0.171,-0.486l0.173,-0.488l0.174,-0.488l0.173,-0.485l0.174,-0.486l0.176,-0.485l0.175,-0.483l0.176,-0.484l0.178,-0.485l0.178,-0.483l0.177,-0.479l0.179,-0.482l0.18,-0.481l0.179,-0.479l0.181,-0.479l0.182,-0.481l0.182,-0.479l0.183,-0.477l0.182,-0.475l0.184,-0.476l0.184,-0.476l0.186,-0.475l0.186,-0.476l0.185,-0.472l0.186,-0.47l0.188,-0.474l0.189,-0.474l0.188,-0.47l0.188,-0.469l0.19,-0.468l0.191,-0.471l0.19,-0.467l0.191,-0.465l0.193,-0.47l0.193,-0.466l0.192,-0.463l0.193,-0.464l0.194,-0.464l0.195,-0.462l0.195,-0.463l0.196,-0.461l0.197,-0.463l0.197,-0.459l0.196,-0.457l0.199,-0.459l0.198,-0.457l0.199,-0.457l0.199,-0.456l0.2,-0.454l0.2,-0.454l0.202,-0.454l0.201,-0.453l0.203,-0.453l0.203,-0.452l0.202,-0.448l0.202,-0.447l0.206,-0.451l0.205,-0.449l0.203,-0.443l0.207,-0.449l0.207,-0.446l0.205,-0.443l0.207,-0.442l0.208,-0.444l0.208,-0.441l0.207,-0.439l0.21,-0.443l0.21,-0.438l0.208,-0.435l0.211,-0.44l0.212,-0.438l0.21,-0.433l0.212,-0.434l0.212,-0.433l0.214,-0.436l0.213,-0.431l0.211,-0.426l0.214,-0.431l0.217,-0.434l0.214,-0.425l0.213,-0.424l0.217,-0.427l0.217,-0.429l0.217,-0.423l0.216,-0.422l0.217,-0.421l0.218,-0.422l0.218,-0.42l0.219,-0.418l0.219,-0.419l0.22,-0.418l0.221,-0.418l0.22,-0.414l0.218,-0.41l0.222,-0.415l0.224,-0.416l0.221,-0.409l0.222,-0.41l0.222,-0.407l0.222,-0.406l0.225,-0.409l0.225,-0.409l0.225,-0.405l0.224,-0.402l0.225,-0.402l0.226,-0.402l0.226,-0.401l0.225,-0.398l0.225,-0.396l0.228,-0.398l0.229,-0.4l0.227,-0.393l0.228,-0.394l0.229,-0.394l0.229,-0.392l0.229,-0.39l0.23,-0.39l0.23,-0.389l0.229,-0.385l0.231,-0.387l0.231,-0.383l0.231,-0.385l0.234,-0.386l0.233,-0.382l0.231,-0.379l0.458,-0.746l0.507,-0.73l0.268,-0.385l0.269,-0.382l0.266,-0.379l0.268,-0.377l0.266,-0.375l0.271,-0.379l0.27,-0.374l0.272,-0.378l0.274,-0.376l0.27,-0.369l0.274,-0.375l0.276,-0.373l0.277,-0.373l0.275,-0.37l0.276,-0.368l0.279,-0.369l0.278,-0.367l0.283,-0.372l0.281,-0.367l0.28,-0.364l0.281,-0.364l0.286,-0.367l0.285,-0.364l0.281,-0.358l0.291,-0.368l0.287,-0.361l0.286,-0.358l0.289,-0.36l0.29,-0.359l0.293,-0.361l0.292,-0.357l0.292,-0.356l0.294,-0.355l0.296,-0.357l0.298,-0.356l0.294,-0.351l0.297,-0.352l0.3,-0.353l0.299,-0.35l0.302,-0.352l0.302,-0.35l0.3,-0.345l0.302,-0.347l0.308,-0.35l0.306,-0.347l0.306,-0.344l0.308,-0.345l0.309,-0.344l0.309,-0.342l0.311,-0.342l0.312,-0.342l0.313,-0.341l0.314,-0.339l0.315,-0.339l0.317,-0.338l0.314,-0.335l0.32,-0.338l0.32,-0.335l0.317,-0.332l0.323,-0.336l0.322,-0.332l0.323,-0.332l0.326,-0.332l0.325,-0.33l0.326,-0.328l0.329,-0.33l0.328,-0.327l0.326,-0.323l0.335,-0.33l0.333,-0.326l0.33,-0.32l0.335,-0.325l0.336,-0.323l0.335,-0.32l0.338,-0.321l0.34,-0.32l0.338,-0.317l0.341,-0.319l0.342,-0.317l0.341,-0.314l0.345,-0.316l0.348,-0.317l0.346,-0.313l0.348,-0.312l0.347,-0.31l0.349,-0.31l0.351,-0.31l0.352,-0.309l0.355,-0.309l0.352,-0.304l0.357,-0.308l0.359,-0.307l0.355,-0.301l0.358,-0.303l0.359,-0.301l0.363,-0.303l0.364,-0.302l0.363,-0.298l0.366,-0.3l0.365,-0.296l0.366,-0.296l0.368,-0.296l0.369,-0.294l0.369,-0.292l0.375,-0.296l0.376,-0.294l0.37,-0.288l0.376,-0.29l0.377,-0.289l0.373,-0.285l0.384,-0.291l0.381,-0.286l0.376,-0.282l0.385,-0.286l0.387,-0.285l0.385,-0.282l0.383,-0.279l0.387,-0.281l0.389,-0.279l0.391,-0.279l0.391,-0.277l0.388,-0.274l0.396,-0.277l0.397,-0.276l0.397,-0.274l0.393,-0.27l0.398,-0.271l0.401,-0.272l0.4,-0.269l0.402,-0.269l0.405,-0.268l0.403,-0.266l0.407,-0.266l0.408,-0.265l0.403,-0.26l0.41,-0.263l0.415,-0.264l0.409,-0.259l0.414,-0.26l0.415,-0.259l0.415,-0.257l0.414,-0.255l0.42,-0.257l0.421,-0.255l0.418,-0.252l0.425,-0.255l0.423,-0.251l0.421,-0.248l0.427,-0.251l0.427,-0.248l0.428,-0.248l0.429,-0.246l0.432,-0.246l0.432,-0.244l0.433,-0.244l0.436,-0.243l0.433,-0.24l0.437,-0.24l0.437,-0.239l0.443,-0.24l0.443,-0.239l0.438,-0.234l0.441,-0.234l0.449,-0.236l0.447,-0.234l0.448,-0.233l0.448,-0.23l0.447,-0.229l0.454,-0.231l0.454,-0.229l0.455,-0.227l0.452,-0.225l0.457,-0.225l0.458,-0.224l0.456,-0.222l0.464,-0.224l0.461,-0.221l0.462,-0.219l0.468,-0.221l0.465,-0.218l0.465,-0.216l0.469,-0.216l0.469,-0.215l0.472,-0.215l0.473,-0.213l0.473,-0.212l0.476,-0.211l0.474,-0.209l0.481,-0.211l0.48,-0.208l0.478,-0.206l0.481,-0.205l0.484,-0.206l0.484,-0.203l0.487,-0.204l0.488,-0.202l0.489,-0.201l0.49,-0.2l0.492,-0.199l0.494,-0.198l0.489,-0.195l0.497,-0.197l0.501,-0.197l0.494,-0.192l0.501,-0.193l0.506,-0.194l0.498,-0.189l0.501,-0.189l0.51,-0.191l0.506,-0.187l0.505,-0.186l0.514,-0.188l0.511,-0.185l0.509,-0.182l0.514,-0.184l0.517,-0.182l0.516,-0.181l0.518,-0.18l0.52,-0.179l0.522,-0.178l0.519,-0.176l0.524,-0.176l0.529,-0.177l0.526,-0.174l0.525,-0.172l0.532,-0.172l0.53,-0.171l0.533,-0.171l0.534,-0.169l0.535,-0.168l0.537,-0.167l0.54,-0.167l0.54,-0.165l0.538,-0.163l0.543,-0.164l0.545,-0.162l0.547,-0.162l0.55,-0.161l0.546,-0.158l0.55,-0.159l0.552,-0.157l0.551,-0.156l0.558,-0.157l0.557,-0.154l0.555,-0.153l0.559,-0.153l0.564,-0.153l0.564,-0.15l0.56,-0.149l0.566,-0.149l0.568,-0.148l0.565,-0.146l0.573,-0.147l0.573,-0.145l0.939,-0.236l1.497,-0.297l1.134,-0.223l1.146,-0.223l1.154,-0.221l1.165,-0.222l1.177,-0.221l1.183,-0.221l1.194,-0.22l1.204,-0.221l1.209,-0.219l1.218,-0.22l1.228,-0.22l1.232,-0.219l1.241,-0.219l1.248,-0.219l1.252,-0.218l1.258,-0.218l1.266,-0.218l1.267,-0.218l0.787,-0.135l-0.06,-0.292l-0.153,-0.736l-0.154,-0.737l-0.156,-0.739l-0.157,-0.742l-0.317,-1.493l-0.32,-1.498l-0.323,-1.508l-0.325,-1.516l-0.325,-1.523l-0.325,-1.528l-0.163,-0.773l-0.163,-0.772l-0.161,-0.773l-0.161,-0.772l-0.161,-0.781l-0.16,-0.78l-0.159,-0.779l-0.158,-0.788l-0.157,-0.785l-0.155,-0.787l-0.155,-0.793l-0.153,-0.79l-0.151,-0.794l-0.15,-0.8l-0.147,-0.797l-0.146,-0.8l-0.144,-0.805l-0.142,-0.808l-0.139,-0.807l-0.137,-0.808l-0.134,-0.812l-0.132,-0.816l-0.128,-0.81l-0.064,-0.419l-0.062,-0.407l-0.062,-0.412l-0.061,-0.408l-0.06,-0.413l-0.118,-0.82l-0.093,-1.032l-0.055,-0.629l-0.054,-0.625l-0.052,-0.625l-0.051,-0.625l-0.049,-0.625l-0.049,-0.624l-0.047,-0.625l-0.046,-0.627l-0.044,-0.624l-0.043,-0.621l-0.042,-0.624l-0.041,-0.623l-0.039,-0.623l-0.039,-0.624l-0.036,-0.62l-0.036,-0.622l-0.034,-0.623l-0.033,-0.619l-0.032,-0.622l-0.031,-0.623l-0.029,-0.618l-0.028,-0.618l-0.027,-0.622l-0.026,-0.622l-0.025,-0.618l-0.023,-0.614l-0.022,-0.621l-0.021,-0.62l-0.02,-0.614l-0.018,-0.617l-0.018,-0.62l-0.016,-0.617l-0.015,-0.617l-0.014,-0.616l-0.013,-0.616l-0.012,-0.616l-0.01,-0.612l-0.009,-0.616l-0.009,-0.615l-0.007,-0.612l-0.006,-0.615l-0.005,-0.614l-0.004,-0.615l-0.002,-0.614l-0.002,-0.611l0,-0.611l0,-0.61l0.002,-0.614l0.003,-0.613l0.003,-0.61l0.005,-0.61l0.006,-0.609l0.007,-0.61l0.008,-0.609l0.009,-0.612l0.01,-0.609l0.011,-0.608l0.012,-0.609l0.013,-0.605l0.014,-0.611l0.016,-0.608l0.016,-0.604l0.017,-0.607l0.018,-0.608l0.019,-0.606l0.02,-0.604l0.021,-0.607l0.022,-0.606l0.023,-0.603l0.024,-0.602l0.025,-0.606l0.026,-0.606l0.027,-0.602l0.028,-0.602l0.028,-0.601l0.03,-0.605l0.03,-0.601l0.031,-0.602l0.033,-0.6l0.033,-0.601l0.034,-0.604l0.035,-0.6l0.036,-0.6l0.037,-0.597l0.037,-0.599l0.039,-0.603l0.039,-0.596l0.04,-0.599l0.041,-0.596l0.042,-0.598l0.043,-0.599l0.043,-0.595l0.045,-0.601l0.045,-0.595l0.046,-0.594l0.047,-0.597l0.048,-0.594l0.048,-0.594l0.049,-0.593l0.05,-0.597l0.051,-0.596l0.052,-0.593l0.052,-0.589l0.053,-0.593l0.054,-0.596l0.055,-0.592l0.056,-0.597l0.112,-1.177l0.116,-1.181l0.119,-1.18l0.122,-1.18l0.125,-1.177l0.127,-1.176l0.13,-1.174l0.133,-1.173l0.135,-1.171l0.138,-1.171l0.14,-1.17l0.143,-1.167l0.146,-1.167l0.148,-1.165l0.15,-1.164l0.153,-1.162l0.155,-1.162l0.157,-1.159l0.16,-1.158l0.161,-1.156l0.164,-1.155l0.166,-1.155l0.168,-1.154l0.169,-1.151l0.172,-1.149l0.174,-1.148l0.175,-1.146l0.177,-1.148l0.18,-1.145l0.18,-1.142l0.183,-1.142l0.184,-1.141l0.186,-1.139l0.188,-1.138l0.189,-1.135l0.19,-1.136l0.192,-1.133l0.193,-1.131l0.195,-1.132l0.196,-1.131l0.197,-1.128l0.199,-1.125l0.199,-1.126l0.201,-1.122l0.202,-1.124l0.203,-1.122l0.204,-1.12l0.205,-1.117l0.206,-1.117l0.208,-1.117l0.207,-1.114l0.209,-1.112l0.209,-1.112l0.21,-1.111l0.211,-1.108l0.211,-1.108l0.213,-1.106l0.212,-1.104l0.214,-1.103l0.214,-1.105l0.428,-2.198l0.43,-2.193l0.432,-2.189l0.432,-2.183l0.433,-2.177l0.433,-2.174l0.432,-2.162l0.428,-2.144l0.423,-2.134l0.42,-2.127l0.416,-2.12l0.413,-2.118l0.204,-1.052l0.203,-1.054l0.203,-1.057l0.202,-1.052l0.2,-1.051l0.2,-1.051l0.199,-1.05l0.197,-1.051l0.197,-1.05l0.195,-1.047l0.195,-1.049l0.194,-1.05l0.192,-1.049l0.192,-1.047l0.19,-1.049l0.19,-1.049l0.188,-1.047l0.187,-1.05l0.187,-1.051l0.185,-1.048l0.183,-1.05l0.184,-1.053l0.182,-1.053l0.181,-1.053l0.179,-1.051l0.179,-1.057l0.178,-1.058l0.176,-1.055l0.175,-1.059l0.175,-1.06l0.173,-1.061l0.172,-1.064l0.17,-1.063l0.17,-1.067l0.169,-1.071l0.167,-1.069l0.166,-1.072l0.166,-1.075l0.163,-1.076l0.163,-1.08l0.162,-1.081l0.16,-1.083l0.16,-1.088l0.158,-1.09l0.157,-1.091l0.155,-1.095l0.155,-1.098l0.153,-1.101l0.152,-1.104l0.151,-1.108l0.15,-1.111l0.148,-1.114l0.147,-1.117l0.146,-1.122l0.145,-1.125l0.143,-1.128l0.143,-1.134l0.141,-1.135l0.139,-1.14l0.139,-1.146l0.137,-1.149l0.136,-1.153l0.134,-1.159l0.134,-1.162l0.132,-1.166l0.13,-1.172l0.13,-1.177l0.128,-1.182l0.127,-1.185l0.125,-1.192l0.124,-1.197l0.123,-1.202l0.122,-1.208l0.12,-1.211l0.118,-1.218l0.118,-1.225l0.116,-1.228l0.114,-1.235l0.113,-1.242l0.112,-1.248l0.111,-1.253l0.109,-1.258l0.107,-1.267l0.107,-1.272l0.104,-1.277l0.104,-1.286l0.102,-1.292l0.1,-1.297l0.099,-1.305l0.098,-1.312l0.096,-1.32l0.095,-1.325l0.093,-1.332l0.091,-1.341l0.091,-1.348l0.088,-1.354l0.088,-1.363l0.085,-1.371l0.085,-1.377l0.082,-1.385l0.081,-1.395l0.08,-1.401l0.078,-1.408l0.077,-1.417l0.075,-1.426l0.073,-1.434l0.072,-1.442l0.07,-1.452l0.069,-1.458l0.067,-1.468l0.066,-1.477l0.063,-1.485l0.063,-1.495l0.06,-1.503l0.059,-1.512l0.058,-1.521l0.055,-1.532l0.055,-1.548l0.052,-1.497l0.049,-1.496l0.047,-1.506l0.044,-1.514l0.042,-1.525l0.04,-1.534l0.037,-1.542l0.035,-1.552l0.033,-1.559l0.03,-1.569l0.028,-1.578l0.026,-1.586l0.024,-1.594l0.021,-1.603l0.019,-1.611l0.017,-1.618l0.015,-1.626l0.012,-1.634l0.011,-1.642l0.008,-1.648l0.006,-1.655l0.004,-1.665l0.002,-1.67l0,-1.676l-0.002,-1.684l-0.004,-1.691l-0.006,-1.698l-0.008,-1.703l-0.01,-1.709l-0.012,-1.716l-0.014,-1.722l-0.015,-1.728l-0.018,-1.732l-0.02,-1.74l-0.021,-1.744l-0.023,-1.751l-0.025,-1.754l-0.027,-1.76l-0.029,-1.766l-0.03,-1.771l-0.032,-1.775l-0.033,-1.779l-0.036,-1.784l-0.037,-1.789l-0.039,-1.794l-0.04,-1.796l-0.042,-1.801l-0.044,-1.805l-0.045,-1.809l-0.047,-1.813l-0.048,-1.814l-0.05,-1.82l-0.051,-1.823l-0.053,-1.826l-0.054,-1.83l-0.055,-1.83l-0.058,-1.835l-0.058,-1.838l-0.06,-1.84l-0.061,-1.842l-0.063,-1.844l-0.063,-1.847l-0.066,-1.849l-0.066,-1.852l-0.068,-1.852l-0.069,-1.854l-0.07,-1.856l-0.071,-1.858l-0.073,-1.858l-0.074,-1.861l-0.075,-1.861l-0.076,-1.862l-0.077,-1.863l-0.078,-1.864l-0.079,-1.866l-0.081,-1.864l-0.081,-1.865l-0.082,-1.866l-0.084,-1.866l-0.084,-1.865l-0.085,-1.866l-0.087,-1.866l-0.087,-1.865l-0.088,-1.865l-0.088,-1.863l-0.09,-1.864l-0.091,-1.863l-0.091,-1.861l-0.093,-1.862l-0.092,-1.859l-0.094,-1.859l-0.094,-1.855l-0.096,-1.856l-0.095,-1.855l-0.097,-1.85l-0.097,-1.849l-0.196,-3.696l-0.199,-3.684l-0.201,-3.676l-0.203,-3.664l-0.205,-3.652l-0.206,-3.64l-0.208,-3.625l-0.21,-3.611l-0.211,-3.595l-0.212,-3.579l-0.213,-3.561l-0.214,-3.543l-0.214,-3.523l-0.215,-3.503l-0.215,-3.481l-0.199,-3.187l-0.296,-3.057l-0.323,-3.306l-0.323,-3.286l-0.323,-3.264l-0.322,-3.244l-0.322,-3.222l-0.322,-3.2l-0.322,-3.178l-0.321,-3.156l-0.32,-3.134l-0.32,-3.109l-0.32,-3.088l-0.318,-3.064l-0.318,-3.039l-0.318,-3.017l-0.316,-2.992l-0.316,-2.966l-0.315,-2.943l-0.314,-2.918l-0.312,-2.892l-0.312,-2.867l-0.311,-2.841l-0.309,-2.816l-0.308,-2.787l-0.308,-2.763l-0.305,-2.735l-0.304,-2.707l-0.303,-2.681l-0.302,-2.653l-0.299,-2.625l-0.299,-2.596l-0.296,-2.569l-0.295,-2.54l-0.293,-2.51l-0.291,-2.48l-0.29,-2.452l-0.287,-2.422l-0.286,-2.392l-0.283,-2.36l-0.282,-2.332l-0.279,-2.299l-0.277,-2.268l-0.275,-2.238l-0.272,-2.204l-0.271,-2.173l-0.268,-2.141l-0.265,-2.108l-0.263,-2.075l-0.26,-2.043l-0.258,-2.009l-0.255,-1.975l-0.252,-1.941l-0.249,-1.907l-0.247,-1.873l-0.243,-1.838l-0.241,-1.801l-0.238,-1.767l-0.234,-1.731l-0.232,-1.696l-0.228,-1.658l-0.225,-1.622l-0.222,-1.586l-0.218,-1.548l-0.204,-1.431l-0.198,-1.289l-0.102,-0.661l-0.101,-0.646l-0.099,-0.627l-0.097,-0.609l-0.096,-0.588l-0.097,-0.58l-0.047,-0.271l-0.047,-0.275l-0.047,-0.267l-0.046,-0.258l-0.048,-0.261l-0.046,-0.253l-0.047,-0.25l-0.046,-0.241l-0.047,-0.239l-0.047,-0.236l-0.045,-0.22l-0.047,-0.224l-0.047,-0.222l-0.044,-0.206l-0.046,-0.203l-0.047,-0.206l-0.046,-0.198l-0.045,-0.188l-0.046,-0.185l-0.046,-0.183l-0.044,-0.173l-0.044,-0.164l-0.046,-0.168l-0.044,-0.158l-0.043,-0.149l-0.045,-0.153l-0.043,-0.143l-0.043,-0.135l-0.042,-0.132l-0.04,-0.121l-0.043,-0.127l-0.042,-0.118l-0.038,-0.107l-0.04,-0.107l-0.04,-0.104l-0.039,-0.1l-0.035,-0.086l-0.038,-0.092l-0.035,-0.083l-0.033,-0.073l-0.036,-0.079l-0.033,-0.071l-0.031,-0.064l-0.042,-0.085l-0.009,-0.018l-0.016,-0.031l-0.009,-0.018l-0.016,-0.03l-0.016,-0.03l-0.008,-0.015l-0.017,-0.03l-0.018,-0.032l-0.008,-0.014l-0.015,-0.026l-0.012,-0.02l-0.01,-0.017l-0.024,-0.04l-0.01,-0.017l-0.004,-0.005l-0.017,-0.028l-0.009,-0.014l-0.01,-0.016l-0.021,-0.031l-0.011,-0.017l-0.004,-0.006l-0.014,-0.021l-0.019,-0.027l-0.003,-0.003l-0.005,-0.008l-0.022,-0.031l-0.013,-0.017l-0.006,-0.008l-0.009,-0.012l-0.014,-0.018l-0.014,-0.018l-0.01,-0.013l-0.015,-0.019l-0.008,-0.009l-0.009,-0.011l-0.012,-0.014l-0.012,-0.015l-0.014,-0.016l-0.014,-0.016l-0.014,-0.016l-0.012,-0.012l-0.015,-0.017l-0.013,-0.014l-0.013,-0.014l-0.017,-0.019l-0.011,-0.011l-0.019,-0.019l-0.016,-0.016l-0.009,-0.01l-0.022,-0.021l-0.014,-0.014l-0.023,-0.022l-0.02,-0.019l-0.011,-0.009l-0.025,-0.024l-0.023,-0.021l-0.017,-0.015l-0.022,-0.019l-0.021,-0.019l-0.024,-0.02l-0.029,-0.025l-0.026,-0.021l-0.022,-0.019l-0.028,-0.023l-0.03,-0.023l-0.023,-0.019l-0.032,-0.025l-0.033,-0.026l-0.032,-0.024l-0.032,-0.024l-0.036,-0.027l-0.032,-0.023l-0.04,-0.029l-0.034,-0.024l-0.036,-0.026l-0.048,-0.033l-0.039,-0.027l-0.041,-0.027l-0.042,-0.028l-0.043,-0.029l-0.045,-0.029l-0.057,-0.037l-0.048,-0.03l-0.044,-0.028l-0.056,-0.034l-0.053,-0.033l-0.049,-0.029l-0.057,-0.034l-0.067,-0.04l-0.059,-0.034l-0.056,-0.032l-0.063,-0.035l-0.059,-0.033l-0.066,-0.037l-0.073,-0.039l-0.07,-0.038l-0.066,-0.035l-0.073,-0.038l-0.075,-0.039l-0.072,-0.037l-0.074,-0.037l-0.08,-0.04l-0.083,-0.04l-0.084,-0.041l-0.086,-0.042l-0.083,-0.039l-0.085,-0.04l-0.091,-0.042l-0.094,-0.043l-0.087,-0.039l-0.092,-0.041l-0.104,-0.046l-0.101,-0.044l-0.094,-0.04l-0.101,-0.043l-0.103,-0.043l-0.104,-0.043l-0.11,-0.045l-0.11,-0.044l-0.111,-0.045l-0.108,-0.042l-0.118,-0.046l-0.121,-0.047l-0.115,-0.044l-0.116,-0.043l-0.123,-0.046l-0.132,-0.048l-0.111,-0.041l-0.269,-0.095l-0.265,-0.092l-0.274,-0.093l-0.283,-0.094l-0.289,-0.094l-0.295,-0.093l-0.307,-0.095l-0.313,-0.094l-0.319,-0.094l-0.329,-0.095l-0.337,-0.095l-0.345,-0.095l-0.352,-0.094l-0.361,-0.095l-0.367,-0.095l-0.379,-0.095l-0.384,-0.094l-0.393,-0.094l-0.401,-0.094l-0.409,-0.094l-0.418,-0.094l-0.424,-0.093l-0.434,-0.093l-0.442,-0.093l-0.451,-0.092l-0.46,-0.092l-0.465,-0.092l-0.474,-0.091l-0.484,-0.091l-0.49,-0.09l-0.5,-0.09l-0.509,-0.09l-0.516,-0.089l-0.524,-0.088l-0.533,-0.088l-0.542,-0.088l-0.552,-0.088l-0.557,-0.086l-0.566,-0.086l-0.577,-0.086l-0.583,-0.085l-0.592,-0.084l-0.602,-0.084l-0.61,-0.084l-0.618,-0.083l-0.628,-0.082l-0.635,-0.082l-0.644,-0.081l-0.652,-0.081l-0.662,-0.08l-0.672,-0.08l-0.678,-0.079l-0.688,-0.078l-0.698,-0.078l-0.706,-0.078l-0.714,-0.077l-0.723,-0.076l-0.734,-0.076l-0.742,-0.075l-0.751,-0.075l-0.76,-0.075l-0.768,-0.073l-0.778,-0.073l-0.788,-0.073l-0.797,-0.072l-0.804,-0.072l-0.816,-0.071l-0.825,-0.071l-0.833,-0.07l-0.842,-0.07l-0.853,-0.069l-0.863,-0.069l-0.871,-0.068l-0.88,-0.068l-0.89,-0.067l-0.901,-0.067l-0.909,-0.067l-0.92,-0.066l-0.929,-0.065l-0.938,-0.065l-0.949,-0.065l-0.958,-0.065l-0.967,-0.063l-0.979,-0.064l-0.988,-0.063l-0.997,-0.063l-1.009,-0.062l-1.018,-0.062l-1.028,-0.062l-1.038,-0.061l-1.048,-0.061l-1.058,-0.061l-1.069,-0.06l-1.079,-0.06l-1.089,-0.06l-1.1,-0.059l-1.11,-0.059l-1.121,-0.059l-1.13,-0.058l-1.142,-0.058l-1.153,-0.058l-1.163,-0.058l-1.172,-0.058l-1.181,-0.057l-2.404,-0.113l-2.443,-0.113l-2.488,-0.112l-2.53,-0.111l-2.576,-0.111l-2.62,-0.11l-2.665,-0.109l-2.711,-0.109l-2.756,-0.109l-2.802,-0.108l-2.849,-0.108l-2.895,-0.108l-2.942,-0.107l-2.991,-0.108l-3.041,-0.108l-3.089,-0.109l-3.137,-0.11l-3.182,-0.111l-3.227,-0.111l-3.272,-0.112l-3.316,-0.113l-3.358,-0.114l-6.844,-0.229l-7.006,-0.232l-7.163,-0.234l-7.314,-0.237l-7.459,-0.238l-7.598,-0.241l-7.731,-0.242l-7.858,-0.245l-7.978,-0.245l-8.094,-0.247l-8.203,-0.248l-8.306,-0.249l-8.403,-0.25l-8.494,-0.251l-8.58,-0.251l-8.658,-0.251l-8.732,-0.252l-8.799,-0.252l-8.861,-0.251l-8.915,-0.252l-8.966,-0.251l-9.008,-0.25l-9.046,-0.25l-9.078,-0.249l-9.103,-0.247l-9.123,-0.247l-9.136,-0.245l-9.144,-0.244l-9.146,-0.242l-9.141,-0.24l-9.131,-0.238l-9.115,-0.236l-9.093,-0.233l-9.065,-0.232l-9.03,-0.228l-8.991,-0.226l-8.944,-0.223l-8.893,-0.219l-8.834,-0.217l-8.771,-0.213l-8.701,-0.209l-8.625,-0.206l-8.543,-0.201l-8.455,-0.198l-8.362,-0.193l-8.262,-0.189l-8.156,-0.185l-8.045,-0.18l-7.927,-0.175l-7.803,-0.17l-7.674,-0.164l-7.538,-0.16l-7.397,-0.154l-7.249,-0.148l-7.096,-0.143l-6.936,-0.136l-6.772,-0.131l-3.32,-0.063l-3.278,-0.061l-3.234,-0.06l-3.187,-0.058l-3.143,-0.056l-3.094,-0.055l-6.163,-0.106l-5.98,-0.101l-2.92,-0.048l-2.874,-0.046l-2.829,-0.045l-2.783,-0.042l-2.738,-0.04l-2.694,-0.038l-2.649,-0.034l-2.605,-0.032l-2.561,-0.029l-2.52,-0.026l-1.24,-0.011l-1.231,-0.011l-1.221,-0.01l-1.21,-0.008l-1.199,-0.008l-1.189,-0.007l-1.178,-0.006l-1.166,-0.005l-1.158,-0.004l-1.145,-0.003l-1.136,-0.002l-1.125,0l-1.115,0ZM1089.56,1513.73l0,0l-0.003,-0.003l0.003,0.003Z" style="fill:#205d76;"/><path d="M651.734,543.496c62.18,2.303 175.024,4.605 255.627,4.605c82.906,2.303 131.268,2.303 158.904,6.909c25.332,4.606 29.938,11.515 -2.303,16.121c-29.939,2.303 -96.724,2.303 -184.236,2.303c-87.512,-2.303 -200.357,-2.303 -255.627,-9.212c-57.574,-4.606 -59.877,-13.818 -52.968,-18.423c4.606,-4.606 16.121,-4.606 80.603,-2.303Z" style="fill:#205d76;"/><path d="M654.037,667.855c62.18,0 175.024,4.606 255.627,4.606c82.906,2.303 131.268,2.303 158.904,6.908c27.635,2.303 29.938,11.515 -2.303,16.121c-29.939,2.303 -96.724,2.303 -184.236,0c-87.512,0 -200.357,0 -255.627,-6.909c-57.574,-4.606 -59.877,-16.12 -52.968,-20.726c4.606,-4.606 18.423,-2.303 80.603,0Z" style="fill:#205d76;"/><path d="M635.613,773.79c43.756,0 124.36,4.606 181.933,4.606c57.574,2.303 92.118,2.303 110.542,6.909c18.423,2.303 20.726,11.515 0,16.121c-23.03,2.303 -69.089,2.303 -131.268,0c-62.18,0 -140.48,0 -179.63,-6.909c-41.453,-4.606 -41.453,-16.121 -39.15,-20.727c4.606,-4.606 13.817,-2.303 57.573,0Z" style="fill:#205d76;"/><path d="M635.613,1050.14c43.756,2.303 124.36,4.606 181.933,4.606c57.574,2.303 92.118,2.303 110.542,6.909c18.423,4.606 20.726,11.514 0,16.12c-23.03,2.303 -69.089,2.303 -131.268,0c-62.18,0 -140.48,0 -179.63,-6.908c-41.453,-4.606 -41.453,-13.818 -39.15,-18.424c4.606,-4.606 13.817,-4.606 57.573,-2.303Z" style="fill:#205d76;"/><path d="M635.613,1142.26c43.756,2.303 124.36,4.606 181.933,6.909c57.574,0 92.118,0 110.542,4.606c18.423,4.606 20.726,13.817 0,16.12c-23.03,4.606 -69.089,2.303 -131.268,2.303c-62.18,0 -140.48,-2.303 -179.63,-6.909c-41.453,-6.908 -41.453,-16.12 -39.15,-20.726c4.606,-4.606 13.817,-2.303 57.573,-2.303Z" style="fill:#205d76;"/><path d="M1326.5,1100.81c-64.483,-13.818 -131.268,-9.212 -181.933,4.606c-48.362,11.514 -78.3,34.544 -99.027,66.785c-23.029,34.544 -39.15,78.3 -46.059,126.662c-4.606,46.059 -2.303,94.421 6.909,135.874c9.212,39.15 25.332,71.392 50.665,103.633c27.635,32.241 66.785,66.785 105.935,82.906c41.453,18.424 85.209,20.726 128.965,16.121c43.756,-2.303 87.512,-9.212 126.663,-23.03c39.15,-16.121 73.694,-36.847 103.632,-78.3c29.939,-41.453 55.271,-103.633 59.877,-151.995c6.909,-46.059 -9.212,-80.603 -25.333,-112.844c-16.12,-34.544 -36.847,-64.483 -73.694,-96.724c-39.15,-32.241 -94.421,-62.179 -156.6,-73.694ZM1114.63,1227.47c-4.606,-4.606 -6.909,-13.818 -2.303,-20.727c4.605,-6.908 13.817,-6.908 20.726,-2.303l163.509,126.663l99.027,-138.177c4.606,-4.606 13.818,-6.909 20.727,-2.303c6.908,4.606 6.908,13.817 2.303,20.726l-99.027,138.177l140.48,108.239c4.606,4.606 6.908,13.817 2.303,18.423c-4.606,6.909 -13.818,9.212 -20.727,4.606l-138.177,-108.238l-133.571,184.235c-4.606,6.909 -13.817,9.212 -20.726,4.606c-6.909,-4.606 -9.212,-13.817 -4.606,-20.726l135.874,-186.539l-165.812,-126.662Z" style="fill:#62d4d4;"/></g></svg>