<?xml version="1.0" standalone="no"?><!DOCTYPE svg PUBLIC "-//W3C//DTD SVG 1.1//EN" "http://www.w3.org/Graphics/SVG/1.1/DTD/svg11.dtd"><svg width="100%" height="100%" viewBox="0 0 1957 1957" version="1.1" xmlns="http://www.w3.org/2000/svg" xmlns:xlink="http://www.w3.org/1999/xlink" xml:space="preserve" style="fill-rule:evenodd;clip-rule:evenodd;stroke-linecap:round;stroke-linejoin:round;stroke-miterlimit:1.41421;"><g id="_874966864_"><path d="M1081.08,730.646c116.812,-139.716 123.683,-160.33 119.102,-185.525c-2.29,-25.194 -16.033,-57.26 -38.937,-77.874c-22.904,-22.904 -57.261,-34.357 -91.617,-34.357c-34.357,-2.29 -71.003,9.162 -93.908,27.486c-20.613,13.742 -32.066,32.066 -91.617,105.359l-2.29,2.291c18.323,2.29 38.937,4.58 57.261,6.871c27.485,4.581 50.389,9.162 71.003,20.614c20.614,11.452 38.937,29.775 50.389,45.808c9.162,16.033 13.743,29.776 16.033,50.39c2.291,11.452 2.291,25.194 4.581,38.937Z" style="fill:#62d4d4;"/><path d="M819.972,639.029c-119.102,137.425 -345.854,382.501 -460.375,506.184c-114.521,121.393 -114.521,121.393 -123.683,160.33c-9.162,38.937 -27.485,116.811 -38.937,164.91c-11.453,45.809 -13.743,61.842 29.775,52.68c43.518,-11.452 135.135,-48.099 187.815,-71.003c50.389,-22.904 64.132,-34.356 185.525,-171.782c123.683,-137.425 357.306,-403.115 478.699,-545.121c119.102,-142.007 125.973,-164.911 121.392,-190.106c-2.29,-25.194 -16.033,-57.26 -38.937,-77.874c-22.904,-22.904 -57.261,-34.357 -91.617,-34.357c-34.357,-2.29 -71.003,9.162 -93.908,27.486c-25.194,18.323 -36.646,43.518 -155.749,178.653Z" style="fill:none;stroke-width:31.8px;stroke:#205d76;"/><path d="M884.104,565.735c-13.742,-2.29 -25.194,-2.29 -36.646,0c-9.162,0 -18.324,2.291 -59.551,41.228c-41.228,38.937 -116.812,116.812 -190.106,194.686" style="fill:none;stroke-width:31.8px;stroke:#205d76;"/><path d="M251.947,1266.61c36.647,2.29 73.293,6.871 107.65,20.613c34.356,13.743 64.132,36.647 80.165,61.842c16.033,25.195 20.614,50.389 22.904,75.584" style="fill:none;stroke-width:31.8px;stroke:#205d76;"/><path d="M210.719,1410.9c22.904,11.452 45.809,22.905 61.842,36.647c16.033,13.743 22.904,32.066 29.775,50.39" style="fill:none;stroke-width:31.8px;stroke:#205d76;"/><path d="M199.267,1525.42c247.366,0 497.022,0 671.095,-2.291c176.363,0 277.141,0 348.145,-9.161c71.003,-9.162 109.94,-25.195 128.263,-43.519c18.324,-20.613 16.033,-45.808 -36.646,-57.26c-52.68,-11.452 -153.459,-11.452 -258.819,-11.452c-105.359,0 -213.009,0 -272.56,-11.452c-57.261,-11.453 -66.423,-36.647 -64.132,-54.971c4.581,-18.323 20.614,-34.356 50.389,-43.518c27.485,-9.162 68.713,-13.742 217.591,-16.033c146.587,-2.29 405.405,-2.29 545.121,-4.581c139.716,0 160.33,-4.58 183.234,-13.742c22.904,-6.871 45.809,-22.904 52.68,-43.518c9.162,-22.905 2.29,-50.39 -130.554,-64.132c-130.555,-11.452 -384.792,-9.162 -522.217,-11.452c-137.426,-4.581 -158.04,-13.743 -158.04,-27.485c0,-13.743 18.324,-29.776 48.099,-41.228c27.485,-13.743 66.422,-18.324 103.069,-25.195" style="fill:none;stroke-width:31.8px;stroke:#205d76;"/><path d="M302.336,1497.94c-6.871,-18.324 -13.742,-36.647 -29.775,-50.39c-16.033,-13.742 -38.938,-25.195 -61.842,-36.647l-13.742,59.551c-9.162,32.066 -11.453,50.39 2.29,54.971c4.581,0 9.162,0 13.743,0c4.58,-2.291 9.161,-2.291 13.742,-2.291c18.324,-4.581 45.809,-13.742 75.584,-25.194Z" style="fill:#205d76;"/><path d="M1163.54,1019.24c9.162,-11.453 29.776,-16.033 50.39,-25.195c20.614,-11.452 38.937,-27.485 57.26,-43.518c16.033,-16.033 32.066,-32.066 50.39,-43.518c20.614,-13.743 43.518,-27.485 66.422,-27.485c22.904,0 45.809,13.742 61.842,27.485c16.033,13.742 22.904,29.775 57.26,36.646c32.066,9.162 89.327,6.872 125.974,-4.58c36.646,-11.453 52.679,-32.066 66.422,-34.357c16.033,0 27.485,18.324 32.066,38.937c4.581,20.614 2.29,43.519 -13.743,61.842c-13.742,20.614 -41.227,38.937 -82.455,43.518c-43.518,4.581 -103.069,-2.29 -148.878,-9.162c-43.518,-6.871 -73.293,-13.742 -123.683,-11.452c-50.389,4.581 -123.683,16.033 -164.91,16.033c-38.938,0 -43.518,-16.033 -34.357,-25.194Z" style="fill:#ffc122;"/></g></svg>