<?xml version="1.0" standalone="no"?><!DOCTYPE svg PUBLIC "-//W3C//DTD SVG 1.1//EN" "http://www.w3.org/Graphics/SVG/1.1/DTD/svg11.dtd"><svg width="100%" height="100%" viewBox="0 0 1129 1129" version="1.1" xmlns="http://www.w3.org/2000/svg" xmlns:xlink="http://www.w3.org/1999/xlink" xml:space="preserve" style="fill-rule:evenodd;clip-rule:evenodd;stroke-linejoin:round;stroke-miterlimit:1.41421;"><path d="M761.679,473.81l0.127,0.003l0.14,0.005l0.127,0.008l0.113,0.007l0.126,0.009l0.139,0.012l0.127,0.013l0.125,0.013l0.126,0.016l0.127,0.017l0.125,0.018l0.125,0.02l0.138,0.024l0.123,0.023l0.125,0.024l0.126,0.026l0.124,0.027l0.123,0.028l0.136,0.032l0.234,0.062l0.133,0.036l0.135,0.039l0.124,0.038l0.122,0.038l0.119,0.039l0.122,0.04l0.121,0.042l0.132,0.047l0.12,0.045l0.119,0.044l0.131,0.052l0.109,0.044l0.13,0.053l0.129,0.056l0.109,0.048l0.129,0.057l0.116,0.054l0.116,0.054l0.128,0.061l0.12,0.059l0.115,0.059l0.125,0.063l0.234,0.124l0.125,0.069l0.116,0.065l0.115,0.065l0.122,0.07l0.124,0.074l0.108,0.065l0.114,0.069l0.123,0.076l0.123,0.078l0.113,0.073l0.113,0.073l0.125,0.082l0.112,0.076l0.113,0.077l0.122,0.084l0.119,0.084l0.115,0.082l0.112,0.081l0.119,0.087l0.115,0.086l0.114,0.086l0.119,0.09l0.118,0.091l0.114,0.09l0.117,0.092l0.23,0.185l0.232,0.192l0.231,0.195l0.232,0.199l0.231,0.204l0.232,0.208l0.234,0.215l0.232,0.217l0.232,0.221l0.234,0.227l0.233,0.23l0.234,0.234l0.235,0.24l0.234,0.243l0.236,0.248l0.238,0.255l0.238,0.258l0.237,0.262l0.237,0.265l0.24,0.271l0.243,0.278l0.242,0.282l0.24,0.284l0.244,0.289l0.245,0.296l0.246,0.3l0.245,0.303l0.248,0.309l0.25,0.315l0.251,0.32l0.251,0.323l0.252,0.328l0.254,0.333l0.256,0.34l0.257,0.344l0.256,0.347l0.261,0.355l0.26,0.357l0.262,0.363l0.264,0.37l0.265,0.372l0.267,0.379l0.268,0.383l0.27,0.39l0.273,0.396l0.273,0.4l0.273,0.402l0.277,0.41l0.279,0.416l0.279,0.42l0.283,0.427l0.283,0.431l0.284,0.435l0.288,0.442l0.289,0.448l0.29,0.452l0.292,0.457l0.296,0.465l0.296,0.469l0.297,0.473l0.301,0.48l0.303,0.487l0.304,0.491l0.306,0.496l0.308,0.502l0.309,0.507l0.313,0.513l0.315,0.52l0.317,0.525l0.318,0.53l0.321,0.536l0.323,0.541l0.325,0.549l0.328,0.553l0.329,0.558l0.331,0.565l0.334,0.57l0.337,0.577l0.339,0.582l0.34,0.588l0.344,0.594l0.345,0.6l0.348,0.605l0.351,0.612l0.353,0.619l0.354,0.622l0.358,0.63l0.36,0.636l0.363,0.642l0.365,0.648l0.367,0.652l0.37,0.66l0.373,0.667l0.753,1.35l0.763,1.374l0.774,1.4l0.784,1.424l0.795,1.449l0.806,1.474l0.817,1.5l0.828,1.524l0.84,1.551l0.851,1.576l0.863,1.602l0.874,1.628l0.882,1.645l0.893,1.648l0.91,1.683l0.922,1.708l0.934,1.735l0.946,1.76l0.957,1.785l0.969,1.81l0.979,1.835l0.992,1.86l1.002,1.885l1.013,1.908l1.025,1.933l1.035,1.956l1.046,1.98l1.057,2.004l1.068,2.027l1.078,2.049l1.089,2.073l1.099,2.095l1.109,2.118l1.119,2.14l1.13,2.163l1.139,2.184l1.15,2.205l1.159,2.228l1.169,2.248l1.178,2.269l1.188,2.291l1.197,2.31l1.207,2.332l1.216,2.351l1.225,2.372l1.234,2.392l1.243,2.41l1.252,2.431l1.261,2.45l1.269,2.468l1.279,2.488l1.286,2.506l1.295,2.525l1.303,2.543l1.311,2.561l1.32,2.579l1.327,2.596l1.336,2.614l1.343,2.631l1.351,2.648l1.358,2.664l1.366,2.682l1.374,2.698l1.381,2.713l1.388,2.73l1.395,2.747l1.403,2.761l2.826,5.568l2.852,5.628l2.88,5.687l2.905,5.744l2.93,5.798l2.953,5.852l2.978,5.903l3,5.954l3.022,6.003l3.042,6.049l3.064,6.094l3.083,6.139l3.102,6.18l3.12,6.221l3.137,6.259l3.154,6.297l3.17,6.333l3.185,6.366l3.199,6.398l3.213,6.43l3.225,6.458l3.238,6.486l3.249,6.511l3.259,6.536l3.27,6.558l3.278,6.579l3.287,6.599l3.294,6.617l3.301,6.632l3.307,6.647l3.313,6.659l3.316,6.671l3.321,6.681l3.324,6.688l3.326,6.695l6.655,13.401l-6.22,3.089l-6.655,-13.401l-3.326,-6.694l-3.323,-6.687l-3.32,-6.681l-3.317,-6.669l-3.312,-6.659l-3.306,-6.646l-3.301,-6.631l-3.294,-6.616l-3.286,-6.598l-3.278,-6.578l-3.269,-6.557l-3.259,-6.535l-3.248,-6.51l-3.237,-6.484l-3.225,-6.458l-3.212,-6.428l-3.199,-6.397l-3.184,-6.365l-3.169,-6.331l-3.153,-6.295l-3.136,-6.257l-3.119,-6.219l-3.101,-6.179l-3.082,-6.136l-3.063,-6.093l-3.042,-6.048l-3.021,-6l-2.999,-5.952l-2.976,-5.901l-2.953,-5.849l-2.928,-5.796l-2.904,-5.741l-2.878,-5.684l-2.851,-5.626l-2.824,-5.565l-1.402,-2.76l-1.395,-2.745l-1.387,-2.728l-1.38,-2.712l-1.373,-2.696l-1.365,-2.68l-1.358,-2.663l-1.35,-2.646l-1.342,-2.63l-1.335,-2.612l-1.326,-2.593l-1.319,-2.578l-1.31,-2.559l-1.302,-2.541l-1.294,-2.522l-1.285,-2.505l-1.277,-2.485l-1.269,-2.466l-1.259,-2.448l-1.251,-2.428l-1.242,-2.409l-1.233,-2.389l-1.224,-2.369l-1.214,-2.349l-1.206,-2.329l-1.196,-2.308l-1.186,-2.288l-1.177,-2.266l-1.168,-2.246l-1.157,-2.224l-1.148,-2.203l-1.137,-2.181l-1.128,-2.159l-1.118,-2.136l-1.108,-2.115l-1.097,-2.092l-1.086,-2.068l-1.077,-2.047l-1.065,-2.023l-1.055,-1.999l-1.044,-1.977l-1.033,-1.952l-1.023,-1.928l-1.011,-1.904l-0.999,-1.88l-0.989,-1.855l-0.977,-1.83l-0.966,-1.805l-0.955,-1.78l-0.942,-1.755l-0.931,-1.728l-0.919,-1.703l-0.907,-1.677l-0.9,-1.66l-0.888,-1.657l-0.871,-1.622l-0.858,-1.595l-0.848,-1.568l-0.835,-1.544l-0.824,-1.516l-0.813,-1.491l-0.801,-1.466l-0.79,-1.44l-0.779,-1.414l-0.768,-1.389l-0.757,-1.364l-0.747,-1.339l-0.368,-0.659l-0.367,-0.653l-0.364,-0.648l-0.362,-0.643l-0.358,-0.634l-0.356,-0.628l-0.354,-0.623l-0.351,-0.617l-0.349,-0.61l-0.345,-0.603l-0.344,-0.599l-0.342,-0.592l-0.338,-0.586l-0.336,-0.58l-0.334,-0.573l-0.331,-0.568l-0.329,-0.561l-0.327,-0.556l-0.324,-0.55l-0.321,-0.544l-0.319,-0.537l-0.317,-0.531l-0.315,-0.527l-0.312,-0.519l-0.311,-0.515l-0.307,-0.507l-0.305,-0.501l-0.304,-0.497l-0.301,-0.49l-0.299,-0.485l-0.296,-0.479l-0.293,-0.471l-0.292,-0.466l-0.291,-0.462l-0.288,-0.456l-0.284,-0.448l-0.284,-0.444l-0.282,-0.439l-0.278,-0.431l-0.277,-0.426l-0.275,-0.42l-0.273,-0.416l-0.27,-0.409l-0.269,-0.403l-0.265,-0.397l-0.265,-0.392l-0.264,-0.388l-0.26,-0.381l-0.257,-0.373l-0.256,-0.369l-0.254,-0.364l-0.253,-0.358l-0.25,-0.353l-0.248,-0.347l-0.247,-0.341l-0.244,-0.336l-0.242,-0.329l-0.241,-0.326l-0.238,-0.319l-0.236,-0.312l-0.234,-0.308l-0.233,-0.303l-0.231,-0.298l-0.228,-0.29l-0.225,-0.285l-0.225,-0.28l-0.224,-0.276l-0.222,-0.27l-0.217,-0.263l-0.217,-0.258l-0.217,-0.255l-0.212,-0.247l-0.209,-0.24l-0.209,-0.237l-0.209,-0.233l-0.205,-0.226l-0.203,-0.22l-0.199,-0.214l-0.2,-0.209l-0.198,-0.206l-0.194,-0.198l-0.193,-0.194l-0.193,-0.19l-0.187,-0.182l-0.187,-0.178l-0.185,-0.173l-0.181,-0.165l-0.18,-0.163l-0.179,-0.157l-0.176,-0.151l-0.174,-0.147l-0.17,-0.141l-0.171,-0.138l-0.083,-0.065l-0.084,-0.066l-0.08,-0.062l-0.08,-0.06l-0.082,-0.062l-0.082,-0.061l-0.078,-0.057l-0.083,-0.06l-0.081,-0.058l-0.075,-0.053l-0.073,-0.05l-0.081,-0.055l-0.08,-0.054l-0.068,-0.045l-0.079,-0.052l-0.078,-0.05l-0.069,-0.043l-0.067,-0.042l-0.077,-0.046l-0.081,-0.049l-0.065,-0.039l-0.067,-0.039l-0.074,-0.042l-0.071,-0.039l-0.062,-0.034l-0.073,-0.039l-0.066,-0.035l-0.063,-0.032l-0.07,-0.035l-0.065,-0.032l-0.057,-0.028l-0.068,-0.032l-0.068,-0.031l-0.055,-0.024l-0.073,-0.033l-0.054,-0.023l-0.052,-0.021l-0.073,-0.029l-0.051,-0.02l-0.062,-0.024l-0.06,-0.022l-0.049,-0.017l-0.058,-0.021l-0.059,-0.019l-0.059,-0.019l-0.056,-0.018l-0.055,-0.017l-0.044,-0.012l-0.044,-0.013l-0.066,-0.017l-0.054,-0.014l-0.041,-0.01l-0.052,-0.012l-0.052,-0.011l-0.05,-0.01l-0.051,-0.01l-0.051,-0.01l-0.037,-0.006l-0.049,-0.008l-0.048,-0.007l-0.048,-0.006l-0.047,-0.006l-0.048,-0.005l-0.046,-0.005l-0.033,-0.003l-0.046,-0.003l-0.059,-0.004l-0.045,-0.002l-0.031,-0.001l-0.044,-0.002l-0.045,0l-0.043,0l-0.044,0l-0.043,0.001l-0.043,0.002l-0.043,0.002l-0.043,0.002l-0.029,0.002l-0.042,0.004l-0.056,0.005l-0.043,0.005l-0.043,0.005l-0.042,0.005l-0.027,0.004l-0.057,0.01l-0.043,0.007l-0.028,0.005l-0.056,0.011l-0.043,0.008l-0.044,0.01l-0.04,0.009l-0.044,0.011l-0.044,0.011l-0.043,0.012l-0.045,0.012l-0.043,0.013l-0.043,0.013l-0.045,0.015l-0.058,0.019l-0.044,0.015l-0.034,0.012l-0.059,0.021l-0.045,0.017l-0.045,0.018l-0.047,0.019l-0.048,0.02l-0.057,0.024l-0.037,0.017l-0.06,0.027l-0.05,0.023l-0.047,0.022l-0.048,0.023l-0.05,0.026l-0.061,0.031l-0.051,0.027l-0.052,0.027l-0.052,0.029l-0.05,0.028l-0.052,0.03l-0.063,0.037l-0.051,0.03l-0.054,0.033l-0.063,0.039l-0.055,0.034l-0.055,0.036l-0.055,0.036l-0.056,0.037l-0.062,0.042l-0.056,0.039l-0.06,0.042l-0.055,0.039l-0.052,0.038l-0.133,0.099l-0.122,0.093l-0.123,0.097l-0.127,0.103l-0.126,0.104l-0.126,0.108l-0.132,0.116l-0.13,0.116l-0.129,0.12l-0.137,0.128l-0.135,0.13l-0.137,0.135l-0.139,0.138l-0.135,0.139l-0.141,0.148l-0.143,0.15l-0.14,0.152l-0.143,0.159l-0.145,0.162l-0.144,0.164l-0.148,0.172l-0.148,0.173l-0.147,0.176l-0.151,0.183l-0.15,0.184l-0.151,0.19l-0.152,0.191l-0.152,0.195l-0.156,0.203l-0.156,0.204l-0.156,0.207l-0.156,0.21l-0.158,0.216l-0.159,0.217l-0.16,0.223l-0.162,0.227l-0.161,0.228l-0.163,0.234l-0.164,0.235l-0.163,0.238l-0.167,0.245l-0.167,0.247l-0.167,0.25l-0.168,0.252l-0.168,0.255l-0.171,0.261l-0.171,0.263l-0.173,0.267l-0.173,0.27l-0.174,0.273l-0.175,0.276l-0.176,0.279l-0.177,0.282l-0.178,0.286l-0.179,0.288l-0.362,0.588l-0.366,0.599l-0.37,0.612l-0.374,0.622l-0.379,0.635l-0.384,0.646l-0.388,0.658l-0.37,0.629l-0.353,0.642l-0.381,0.694l-0.385,0.701l-0.39,0.712l-0.395,0.723l-0.399,0.733l-0.403,0.742l-0.408,0.752l-0.413,0.763l-0.417,0.773l-0.422,0.782l-0.426,0.793l-0.431,0.802l-0.434,0.811l-0.439,0.822l-0.443,0.831l-0.448,0.841l-0.451,0.85l-0.456,0.86l-0.46,0.871l-0.465,0.878l-0.467,0.888l-0.473,0.898l-0.476,0.907l-0.479,0.916l-0.485,0.927l-0.488,0.934l-0.491,0.944l-0.496,0.954l-0.499,0.962l-0.503,0.971l-0.507,0.981l-0.51,0.989l-0.514,0.998l-0.518,1.008l-0.521,1.016l-0.524,1.024l-0.529,1.034l-0.531,1.043l-0.536,1.051l-0.538,1.059l-0.542,1.069l-0.545,1.077l-0.548,1.086l-0.552,1.094l-0.555,1.102l-0.558,1.11l-0.561,1.12l-0.565,1.128l-0.567,1.135l-0.57,1.145l-0.574,1.152l-0.576,1.16l-0.58,1.169l-0.582,1.177l-0.585,1.185l-0.588,1.192l-0.591,1.2l-0.594,1.21l-0.596,1.216l-0.599,1.225l-0.602,1.232l-0.604,1.24l-0.607,1.248l-0.609,1.254l-0.613,1.263l-0.614,1.271l-0.617,1.278l-0.619,1.286l-0.622,1.294l-0.624,1.3l-0.627,1.308l-0.629,1.316l-0.631,1.322l-0.633,1.33l-0.635,1.337l-0.638,1.344l-0.64,1.353l-0.641,1.359l-0.644,1.365l-0.646,1.373l-0.648,1.38l-0.65,1.387l-0.651,1.393l-0.654,1.402l-0.656,1.407l-0.657,1.414l-0.659,1.422l-0.66,1.427l-0.662,1.434l-0.665,1.442l-0.666,1.447l-0.667,1.454l-0.669,1.461l-0.67,1.467l-0.672,1.474l-0.674,1.48l-0.674,1.487l-0.677,1.493l-0.677,1.499l-0.679,1.505l-0.68,1.512l-0.682,1.517l-0.682,1.524l-0.684,1.53l-0.685,1.536l-0.686,1.542l-0.687,1.548l-0.689,1.554l-0.689,1.56l-0.69,1.564l-0.691,1.572l-0.693,1.577l-0.692,1.583l-0.694,1.588l-0.695,1.594l-0.695,1.6l-0.697,1.605l-0.696,1.61l-0.698,1.617l-0.698,1.622l-0.699,1.627l-0.699,1.632l-0.7,1.638l-0.701,1.643l-0.7,1.648l-0.702,1.654l-0.713,1.685l-0.737,1.667l-0.726,1.646l-0.726,1.651l-0.727,1.657l-0.726,1.661l-0.727,1.667l-0.728,1.672l-0.728,1.678l-0.728,1.683l-0.729,1.688l-0.729,1.692l-0.729,1.698l-0.73,1.704l-0.73,1.707l-0.73,1.712l-0.731,1.719l-0.731,1.722l-0.732,1.727l-0.732,1.732l-0.732,1.736l-0.732,1.741l-0.733,1.746l-0.733,1.75l-0.733,1.755l-0.734,1.759l-0.734,1.763l-0.734,1.769l-0.735,1.772l-0.734,1.775l-0.736,1.781l-0.736,1.785l-0.735,1.789l-0.736,1.793l-0.737,1.796l-0.736,1.802l-0.737,1.805l-0.737,1.807l-0.738,1.813l-0.738,1.817l-0.738,1.82l-0.738,1.824l-0.739,1.827l-0.738,1.83l-0.74,1.835l-0.739,1.838l-0.739,1.842l-0.74,1.845l-0.74,1.847l-0.741,1.853l-0.74,1.854l-0.741,1.858l-0.741,1.862l-0.741,1.864l-0.742,1.868l-0.741,1.87l-0.742,1.874l-0.742,1.876l-0.743,1.88l-0.742,1.882l-0.743,1.885l-0.743,1.888l-0.743,1.891l-0.744,1.893l-0.743,1.896l-0.744,1.898l-0.744,1.901l-1.488,3.81l-1.49,3.819l-1.489,3.828l-1.491,3.838l-1.491,3.845l-1.492,3.854l-1.492,3.862l-1.494,3.869l-1.493,3.877l-1.494,3.882l-1.495,3.89l-1.495,3.895l-1.496,3.901l-1.496,3.906l-1.496,3.91l-1.497,3.916l-1.498,3.919l-1.497,3.923l-1.498,3.927l-2.997,7.862l-2.998,7.87l-2.999,7.877l-2.999,7.881l-3,7.88l-3,7.878l-6.49,-2.471l3,-7.878l2.999,-7.88l3,-7.88l2.999,-7.878l2.998,-7.872l2.998,-7.864l1.498,-3.928l1.498,-3.925l1.499,-3.921l1.497,-3.916l1.497,-3.913l1.497,-3.909l1.497,-3.903l1.496,-3.897l1.496,-3.892l1.495,-3.886l1.495,-3.88l1.494,-3.872l1.494,-3.865l1.493,-3.858l1.493,-3.849l1.492,-3.841l1.491,-3.833l1.491,-3.823l1.49,-3.814l0.745,-1.904l0.745,-1.901l0.745,-1.898l0.744,-1.896l0.744,-1.893l0.744,-1.89l0.744,-1.888l0.743,-1.885l0.744,-1.883l0.743,-1.879l0.743,-1.876l0.743,-1.874l0.743,-1.87l0.742,-1.868l0.742,-1.864l0.742,-1.861l0.742,-1.858l0.742,-1.855l0.741,-1.852l0.741,-1.848l0.741,-1.845l0.741,-1.841l0.741,-1.838l0.74,-1.835l0.74,-1.831l0.74,-1.827l0.739,-1.824l0.74,-1.82l0.739,-1.817l0.738,-1.812l0.739,-1.809l0.738,-1.805l0.738,-1.801l0.738,-1.797l0.738,-1.793l0.737,-1.789l0.737,-1.785l0.737,-1.781l0.737,-1.776l0.735,-1.772l0.736,-1.769l0.736,-1.764l0.735,-1.759l0.736,-1.755l0.734,-1.751l0.735,-1.746l0.734,-1.742l0.734,-1.737l0.734,-1.733l0.733,-1.727l0.733,-1.723l0.733,-1.718l0.732,-1.713l0.732,-1.708l0.732,-1.705l0.732,-1.698l0.731,-1.694l0.731,-1.689l0.73,-1.683l0.731,-1.679l0.729,-1.673l0.73,-1.668l0.729,-1.662l0.729,-1.657l0.728,-1.653l0.717,-1.62l0.692,-1.636l0.704,-1.66l0.703,-1.654l0.704,-1.649l0.702,-1.643l0.702,-1.638l0.701,-1.633l0.7,-1.627l0.7,-1.622l0.7,-1.617l0.698,-1.61l0.698,-1.606l0.697,-1.599l0.697,-1.594l0.695,-1.588l0.695,-1.583l0.693,-1.576l0.693,-1.571l0.692,-1.566l0.69,-1.559l0.69,-1.553l0.688,-1.547l0.687,-1.541l0.687,-1.536l0.685,-1.529l0.684,-1.522l0.682,-1.518l0.682,-1.51l0.679,-1.504l0.679,-1.498l0.677,-1.492l0.676,-1.485l0.674,-1.479l0.673,-1.473l0.671,-1.465l0.67,-1.46l0.668,-1.453l0.666,-1.446l0.665,-1.439l0.663,-1.433l0.661,-1.426l0.66,-1.419l0.658,-1.413l0.655,-1.405l0.654,-1.399l0.652,-1.392l0.65,-1.385l0.649,-1.378l0.646,-1.37l0.644,-1.364l0.642,-1.356l0.64,-1.35l0.637,-1.342l0.636,-1.335l0.633,-1.327l0.631,-1.321l0.629,-1.313l0.627,-1.305l0.624,-1.297l0.621,-1.291l0.62,-1.283l0.616,-1.276l0.615,-1.268l0.612,-1.26l0.609,-1.252l0.606,-1.244l0.605,-1.237l0.601,-1.229l0.599,-1.221l0.595,-1.214l0.593,-1.206l0.591,-1.197l0.587,-1.189l0.585,-1.182l0.582,-1.173l0.579,-1.165l0.575,-1.157l0.573,-1.149l0.57,-1.141l0.567,-1.132l0.563,-1.124l0.561,-1.115l0.557,-1.108l0.554,-1.098l0.55,-1.089l0.548,-1.083l0.545,-1.073l0.54,-1.065l0.538,-1.056l0.534,-1.046l0.53,-1.038l0.528,-1.031l0.523,-1.02l0.52,-1.012l0.517,-1.004l0.512,-0.993l0.51,-0.986l0.505,-0.976l0.502,-0.967l0.498,-0.957l0.494,-0.95l0.491,-0.94l0.486,-0.93l0.482,-0.922l0.479,-0.912l0.475,-0.902l0.471,-0.894l0.467,-0.884l0.462,-0.874l0.458,-0.865l0.455,-0.857l0.45,-0.845l0.446,-0.837l0.442,-0.827l0.438,-0.817l0.433,-0.807l0.429,-0.797l0.425,-0.789l0.42,-0.777l0.415,-0.768l0.411,-0.759l0.408,-0.749l0.402,-0.737l0.397,-0.728l0.393,-0.72l0.389,-0.708l0.383,-0.696l0.401,-0.729l0.423,-0.72l0.396,-0.67l0.392,-0.661l0.389,-0.651l0.386,-0.642l0.382,-0.631l0.379,-0.622l0.376,-0.611l0.188,-0.302l0.187,-0.3l0.187,-0.297l0.185,-0.295l0.186,-0.292l0.184,-0.289l0.184,-0.286l0.182,-0.283l0.184,-0.283l0.182,-0.278l0.183,-0.278l0.183,-0.273l0.181,-0.271l0.181,-0.268l0.179,-0.263l0.182,-0.265l0.181,-0.262l0.179,-0.256l0.181,-0.256l0.179,-0.25l0.179,-0.25l0.181,-0.247l0.179,-0.245l0.18,-0.241l0.18,-0.239l0.179,-0.236l0.179,-0.231l0.181,-0.232l0.181,-0.229l0.18,-0.225l0.181,-0.222l0.18,-0.218l0.182,-0.218l0.182,-0.214l0.18,-0.209l0.184,-0.21l0.183,-0.204l0.183,-0.202l0.187,-0.203l0.184,-0.195l0.184,-0.192l0.19,-0.194l0.187,-0.188l0.187,-0.184l0.189,-0.182l0.188,-0.176l0.193,-0.179l0.196,-0.174l0.191,-0.168l0.197,-0.169l0.198,-0.164l0.196,-0.159l0.201,-0.158l0.202,-0.154l0.19,-0.141l0.109,-0.08l0.107,-0.076l0.102,-0.072l0.106,-0.072l0.1,-0.068l0.106,-0.072l0.107,-0.069l0.107,-0.069l0.107,-0.067l0.099,-0.062l0.108,-0.066l0.112,-0.066l0.1,-0.058l0.109,-0.064l0.113,-0.063l0.111,-0.06l0.111,-0.06l0.111,-0.058l0.102,-0.052l0.112,-0.057l0.116,-0.056l0.116,-0.056l0.114,-0.052l0.103,-0.047l0.126,-0.056l0.107,-0.045l0.116,-0.049l0.116,-0.046l0.119,-0.047l0.12,-0.044l0.106,-0.04l0.13,-0.046l0.121,-0.041l0.107,-0.035l0.119,-0.038l0.122,-0.037l0.122,-0.036l0.121,-0.034l0.123,-0.033l0.122,-0.031l0.121,-0.03l0.126,-0.029l0.123,-0.027l0.123,-0.025l0.111,-0.022l0.139,-0.026l0.124,-0.02l0.111,-0.018l0.14,-0.02l0.126,-0.016l0.125,-0.016l0.125,-0.013l0.113,-0.011l0.126,-0.011l0.14,-0.01l0.126,-0.007l0.127,-0.006l0.127,-0.004l0.126,-0.003l0.127,-0.001l0.127,0l0.126,0.002Z" style="fill:#205d76;"/><path d="M673.159,643.827c-63,-116 -119,-217 -155,-279c-60,-105 -67,-104 -86,-52c-20,51 -51,153 -96,258c-45,104 -104,213 -163,321l634,0c-46,-85 -92,-170 -134,-248Z" style="fill:#62d4d4;"/><path d="M788.159,211.827c-9,-10 -22,-18 -33,-22c-10,-4 -18,-4 -27,-1c-8,4 -17,10 -24,18c-7,8 -12,17 -16,25c-3,9 -4,16 -4,26c1,9 4,20 9,28c5,8 13,14 21,19c8,5 17,10 26,12c9,2 18,3 29,-1c11,-4 23,-12 30,-20c7,-8 9,-16 10,-24c3,-23 -5,-43 -21,-60Z" style="fill:#ffc122;"/></svg>