<?xml version="1.0" standalone="no"?><!DOCTYPE svg PUBLIC "-//W3C//DTD SVG 1.1//EN" "http://www.w3.org/Graphics/SVG/1.1/DTD/svg11.dtd"><svg width="100%" height="100%" viewBox="0 0 1970 1970" version="1.1" xmlns="http://www.w3.org/2000/svg" xmlns:xlink="http://www.w3.org/1999/xlink" xml:space="preserve" style="fill-rule:evenodd;clip-rule:evenodd;stroke-linejoin:round;stroke-miterlimit:1.41421;"><g id="_874970128_"><path d="M548.953,1469.26c-36.904,-50.743 -85.341,-115.326 -133.779,-182.215c-20.758,29.985 -39.21,55.356 -55.356,76.115c-46.131,59.97 -62.276,83.035 -57.663,113.02c2.306,27.678 27.678,62.276 66.889,62.276c36.904,0 85.341,-29.985 179.909,-69.196Z" style="fill:#ffc122;"/><path d="M431.097,1281.66l3.026,4.114l3.022,4.112l3.017,4.108l3.011,4.105l3.005,4.099l2.999,4.095l2.991,4.087l2.984,4.08l2.977,4.071l2.968,4.062l2.959,4.053l2.949,4.04l2.94,4.029l5.848,8.017l5.804,7.959l5.754,7.892l5.702,7.82l5.646,7.739l2.799,3.836l2.785,3.814l2.769,3.791l2.752,3.765l2.735,3.74l2.718,3.713l2.699,3.686l2.681,3.658l2.663,3.629l2.642,3.598l2.623,3.567l2.603,3.536l2.581,3.502l2.561,3.47l1.271,1.721l1.267,1.713l1.261,1.704l1.254,1.693l1.249,1.685l1.245,1.678l1.237,1.667l1.232,1.657l1.225,1.647l1.22,1.638l1.214,1.628l1.207,1.619l1.201,1.608l1.196,1.599l1.189,1.588l1.181,1.576l1.176,1.567l1.17,1.556l1.162,1.545l1.156,1.535l1.15,1.524l1.142,1.511l1.135,1.501l1.129,1.49l1.122,1.479l1.114,1.467l1.107,1.453l1.101,1.444l1.093,1.431l1.086,1.419l1.078,1.407l1.071,1.394l1.064,1.384l1.055,1.368l1.047,1.356l1.041,1.345l1.032,1.33l1.025,1.318l1.017,1.306l1.009,1.292l1,1.277l0.992,1.265l0.985,1.251l0.975,1.237l0.967,1.222l0.959,1.208l0.951,1.195l0.943,1.182l0.932,1.165l0.923,1.15l0.917,1.139l1.02,1.262l1.008,1.302l0.889,1.145l0.881,1.128l0.871,1.114l0.863,1.098l0.855,1.083l0.846,1.069l0.838,1.053l0.828,1.037l0.822,1.025l0.813,1.009l0.805,0.995l0.797,0.982l0.79,0.967l0.78,0.952l0.772,0.936l0.766,0.926l0.758,0.911l0.75,0.896l0.748,0.891l0.364,0.431l0.364,0.43l0.365,0.431l0.363,0.427l0.364,0.427l0.359,0.42l0.353,0.413l0.355,0.413l0.356,0.413l0.35,0.405l0.349,0.402l0.351,0.404l0.345,0.396l0.345,0.395l0.344,0.392l0.339,0.387l0.337,0.381l0.338,0.383l0.336,0.379l0.335,0.376l0.332,0.373l0.329,0.367l0.33,0.367l0.327,0.363l0.324,0.359l0.323,0.356l0.324,0.357l0.319,0.349l0.317,0.347l0.315,0.342l0.317,0.344l0.316,0.342l0.309,0.333l0.31,0.333l0.31,0.332l0.305,0.325l0.305,0.324l0.304,0.322l0.302,0.319l0.3,0.315l0.299,0.313l0.297,0.31l0.294,0.306l0.297,0.308l0.291,0.301l0.29,0.297l0.292,0.299l0.286,0.292l0.283,0.288l0.286,0.29l0.285,0.287l0.278,0.279l0.283,0.283l0.278,0.277l0.277,0.275l0.277,0.273l0.274,0.27l0.272,0.267l0.266,0.259l0.274,0.266l0.272,0.263l0.26,0.251l0.263,0.252l0.268,0.255l0.265,0.252l0.264,0.25l0.257,0.242l0.254,0.238l0.253,0.236l0.257,0.239l0.261,0.24l0.253,0.234l0.246,0.226l0.25,0.226l0.249,0.226l0.247,0.224l0.245,0.219l0.243,0.217l0.248,0.221l0.24,0.212l0.239,0.21l0.242,0.212l0.235,0.205l0.24,0.208l0.238,0.206l0.229,0.196l0.229,0.195l0.234,0.198l0.239,0.202l0.222,0.187l0.229,0.19l0.228,0.19l0.224,0.185l0.224,0.184l0.223,0.182l0.227,0.184l0.218,0.176l0.217,0.175l0.218,0.173l0.22,0.175l0.221,0.174l0.211,0.166l0.209,0.162l0.215,0.167l0.214,0.165l0.213,0.163l0.212,0.161l0.202,0.152l0.207,0.156l0.216,0.161l0.205,0.153l0.204,0.15l0.202,0.148l0.201,0.147l0.2,0.144l0.205,0.147l0.206,0.148l0.187,0.133l0.201,0.141l0.202,0.141l0.191,0.133l0.199,0.138l0.196,0.134l0.195,0.134l0.196,0.132l0.192,0.129l0.192,0.129l0.181,0.12l0.188,0.124l0.199,0.13l0.188,0.122l0.195,0.126l0.182,0.117l0.184,0.116l0.192,0.122l0.179,0.113l0.189,0.117l0.179,0.111l0.187,0.115l0.184,0.113l0.176,0.106l0.196,0.118l0.18,0.107l0.17,0.101l0.181,0.107l0.181,0.106l0.177,0.102l0.187,0.108l0.178,0.102l0.175,0.098l0.185,0.105l0.184,0.103l0.172,0.096l0.171,0.094l0.181,0.099l0.17,0.092l0.181,0.097l0.178,0.096l0.166,0.088l0.173,0.091l0.368,0.193l0.35,0.179l0.345,0.175l0.35,0.175l0.359,0.176l0.35,0.171l0.347,0.166l0.358,0.168l0.349,0.163l0.353,0.162l0.359,0.163l0.35,0.156l0.361,0.159l0.36,0.157l0.358,0.154l0.365,0.155l0.363,0.152l0.369,0.153l0.367,0.15l0.375,0.152l0.374,0.15l0.372,0.148l0.38,0.149l0.386,0.15l0.386,0.149l0.111,0.043l0.194,0.041l0.43,0.089l0.432,0.088l0.434,0.086l0.443,0.087l0.438,0.084l0.433,0.081l0.441,0.081l0.451,0.081l0.444,0.078l0.447,0.077l0.448,0.076l0.45,0.074l0.451,0.073l0.453,0.071l0.461,0.071l0.456,0.068l0.449,0.066l0.459,0.066l0.467,0.065l0.46,0.062l0.462,0.061l0.463,0.06l0.464,0.058l0.466,0.057l0.466,0.055l0.467,0.054l0.468,0.052l0.469,0.051l0.47,0.049l0.478,0.049l0.472,0.046l0.464,0.044l0.481,0.044l0.473,0.042l0.474,0.04l0.475,0.039l0.475,0.037l0.476,0.036l0.476,0.034l0.484,0.034l0.469,0.03l0.477,0.03l0.485,0.029l0.478,0.026l0.478,0.026l0.478,0.023l0.471,0.022l0.485,0.021l0.479,0.019l0.478,0.017l0.485,0.017l0.471,0.014l0.478,0.013l0.478,0.011l0.478,0.01l0.484,0.009l0.477,0.007l0.477,0.005l0.476,0.004l0.476,0.002l0.475,0.001l0.475,-0.001l0.475,-0.002l0.473,-0.004l0.474,-0.005l0.472,-0.007l0.479,-0.009l0.471,-0.01l0.47,-0.011l0.47,-0.013l0.461,-0.014l0.475,-0.016l0.466,-0.017l0.466,-0.02l0.472,-0.02l0.456,-0.022l0.462,-0.023l0.461,-0.025l0.46,-0.027l0.467,-0.028l0.457,-0.029l0.448,-0.031l0.463,-0.033l0.453,-0.033l0.452,-0.036l0.45,-0.036l0.449,-0.039l0.447,-0.039l0.445,-0.042l0.451,-0.043l0.435,-0.043l0.44,-0.046l0.446,-0.048l0.436,-0.048l0.435,-0.05l0.433,-0.051l0.43,-0.052l0.429,-0.054l0.426,-0.055l0.425,-0.057l0.422,-0.058l0.419,-0.06l0.418,-0.061l0.423,-0.063l0.413,-0.064l0.403,-0.063l0.408,-0.067l0.413,-0.069l0.403,-0.068l0.4,-0.07l0.398,-0.072l0.394,-0.072l0.393,-0.074l0.389,-0.076l0.395,-0.078l0.383,-0.077l0.373,-0.077l0.377,-0.08l0.383,-0.083l0.372,-0.082l0.367,-0.084l0.365,-0.084l0.362,-0.086l0.119,-0.029l0.223,-0.076l0.39,-0.136l0.386,-0.137l0.389,-0.14l0.389,-0.143l0.17,-0.064l0.186,-0.07l0.185,-0.07l0.185,-0.071l0.185,-0.072l0.182,-0.071l0.181,-0.071l0.18,-0.072l0.167,-0.067l0.179,-0.073l0.177,-0.073l0.163,-0.067l0.176,-0.074l0.176,-0.074l0.173,-0.074l0.158,-0.068l0.173,-0.075l0.172,-0.075l0.141,-0.063l0.169,-0.076l0.168,-0.076l0.155,-0.071l0.166,-0.077l0.166,-0.077l0.15,-0.07l0.149,-0.071l0.15,-0.072l0.148,-0.073l0.162,-0.079l0.158,-0.078l0.146,-0.073l0.145,-0.074l0.143,-0.073l0.145,-0.075l0.141,-0.073l0.141,-0.075l0.154,-0.082l0.138,-0.074l0.141,-0.077l0.138,-0.076l0.136,-0.075l0.136,-0.077l0.136,-0.077l0.133,-0.076l0.136,-0.079l0.133,-0.078l0.118,-0.07l0.133,-0.08l0.144,-0.087l0.118,-0.072l0.129,-0.08l0.127,-0.079l0.115,-0.073l0.129,-0.082l0.126,-0.082l0.126,-0.082l0.113,-0.074l0.124,-0.083l0.111,-0.075l0.123,-0.084l0.124,-0.085l0.11,-0.077l0.119,-0.083l0.11,-0.079l0.108,-0.077l0.119,-0.087l0.12,-0.088l0.106,-0.079l0.106,-0.08l0.105,-0.08l0.118,-0.09l0.104,-0.081l0.103,-0.082l0.114,-0.09l0.105,-0.084l0.104,-0.085l0.1,-0.082l0.101,-0.084l0.103,-0.086l0.113,-0.096l0.102,-0.088l0.1,-0.086l0.096,-0.085l0.092,-0.081l0.11,-0.099l0.098,-0.089l0.09,-0.083l0.109,-0.101l0.097,-0.091l0.087,-0.083l0.098,-0.095l0.098,-0.095l0.096,-0.094l0.095,-0.094l0.088,-0.089l0.097,-0.099l0.097,-0.099l0.086,-0.089l0.095,-0.101l0.096,-0.102l0.093,-0.1l0.087,-0.095l0.085,-0.093l0.095,-0.106l0.094,-0.106l0.087,-0.098l0.086,-0.1l0.092,-0.107l0.093,-0.11l0.086,-0.103l0.084,-0.101l0.093,-0.113l0.088,-0.108l0.083,-0.105l0.086,-0.108l0.086,-0.11l0.091,-0.118l0.086,-0.112l0.085,-0.113l0.091,-0.122l0.083,-0.112l0.085,-0.116l0.087,-0.121l0.084,-0.118l0.083,-0.118l0.081,-0.116l0.09,-0.131l0.083,-0.121l0.086,-0.129l0.084,-0.126l0.077,-0.118l0.091,-0.14l0.084,-0.131l0.079,-0.124l0.086,-0.137l0.083,-0.135l0.078,-0.127l0.083,-0.138l0.087,-0.145l0.084,-0.142l0.081,-0.139l0.079,-0.137l0.081,-0.142l0.084,-0.15l0.081,-0.146l0.079,-0.143l0.086,-0.158l0.082,-0.154l0.077,-0.145l0.081,-0.153l0.08,-0.155l0.082,-0.16l0.081,-0.162l0.078,-0.157l0.08,-0.162l0.08,-0.163l0.081,-0.169l0.078,-0.164l0.079,-0.169l0.08,-0.173l0.078,-0.169l0.08,-0.177l0.077,-0.174l0.078,-0.174l0.078,-0.18l0.077,-0.179l0.078,-0.183l0.078,-0.186l0.076,-0.184l0.079,-0.194l0.076,-0.188l0.075,-0.187l0.077,-0.195l0.076,-0.194l0.076,-0.198l0.074,-0.196l0.076,-0.203l0.076,-0.205l0.074,-0.202l0.074,-0.204l0.075,-0.211l0.074,-0.212l0.072,-0.206l0.074,-0.216l0.075,-0.222l0.071,-0.212l0.072,-0.218l0.072,-0.224l0.072,-0.222l0.072,-0.228l0.072,-0.23l0.069,-0.224l0.07,-0.231l0.071,-0.236l0.071,-0.237l0.07,-0.24l0.068,-0.236l0.068,-0.24l0.069,-0.246l0.068,-0.245l0.068,-0.247l0.067,-0.249l0.068,-0.254l0.067,-0.256l0.066,-0.255l0.066,-0.258l0.065,-0.259l0.065,-0.262l0.065,-0.263l0.064,-0.266l0.065,-0.271l0.063,-0.27l0.063,-0.272l0.062,-0.272l0.063,-0.28l0.062,-0.281l0.061,-0.278l0.062,-0.286l0.06,-0.282l0.06,-0.291l0.06,-0.289l0.059,-0.289l0.059,-0.297l0.059,-0.296l0.058,-0.298l0.057,-0.301l0.057,-0.302l0.057,-0.305l0.056,-0.307l0.056,-0.312l0.055,-0.309l0.055,-0.311l0.055,-0.32l0.053,-0.316l0.053,-0.318l0.053,-0.325l0.053,-0.325l0.052,-0.327l0.051,-0.327l0.051,-0.331l0.051,-0.336l0.049,-0.332l0.05,-0.339l0.049,-0.34l0.047,-0.337l0.047,-0.335l0.046,-0.336l0.045,-0.344l0.045,-0.343l0.044,-0.347l0.043,-0.349l0.043,-0.35l0.042,-0.351l0.041,-0.356l0.041,-0.36l0.04,-0.357l0.04,-0.363l0.039,-0.365l0.038,-0.367l0.038,-0.371l0.037,-0.372l0.036,-0.371l0.035,-0.375l0.035,-0.381l0.034,-0.38l0.034,-0.38l0.033,-0.387l0.032,-0.385l0.031,-0.388l0.031,-0.393l0.031,-0.393l0.029,-0.396l0.029,-0.396l0.029,-0.4l0.027,-0.402l0.027,-0.401l0.027,-0.405l0.025,-0.411l0.026,-0.409l0.024,-0.409l0.024,-0.415l0.023,-0.415l0.022,-0.417l0.022,-0.419l0.021,-0.42l0.021,-0.427l0.019,-0.424l0.02,-0.425l0.018,-0.43l0.018,-0.43l0.017,-0.433l0.017,-0.428l0.031,-0.88l0.029,-0.882l0.027,-0.889l0.024,-0.895l0.021,-0.903l0.019,-0.909l0.017,-0.917l0.014,-0.923l0.011,-0.93l0.01,-0.937l0.007,-0.943l0.004,-0.949l0.003,-0.955l0,-0.962l-0.003,-0.969l-0.004,-0.973l-0.007,-0.98l-0.009,-0.987l-0.011,-0.992l-0.014,-0.997l-0.015,-1.004l-0.018,-1.009l-0.02,-1.014l-0.022,-1.021l-0.024,-1.025l-0.026,-1.031l-0.028,-1.036l-0.03,-1.042l-0.032,-1.046l-0.034,-1.051l-0.036,-1.057l-0.038,-1.062l-0.039,-1.066l-0.042,-1.071l-0.043,-1.075l-0.046,-1.081l-0.047,-1.085l-0.048,-1.089l-0.051,-1.094l-0.052,-1.098l-0.054,-1.102l-0.055,-1.107l-0.058,-1.111l-0.058,-1.115l-0.061,-1.118l-0.062,-1.123l-0.063,-1.127l-0.065,-1.13l-0.066,-1.135l-0.068,-1.139l-0.07,-1.14l-0.07,-1.146l-0.072,-1.148l-0.074,-1.152l-0.075,-1.156l-0.076,-1.159l-0.077,-1.161l-0.079,-1.166l-0.08,-1.169l-0.081,-1.171l-0.082,-1.173l-0.083,-1.177l-0.085,-1.18l-0.085,-1.183l-0.087,-1.186l-0.088,-1.188l-0.089,-1.19l-0.089,-1.194l-0.091,-1.195l-0.092,-1.196l-0.186,-2.406l-0.189,-2.412l-0.193,-2.42l-0.196,-2.428l-0.198,-2.436l-0.202,-2.443l-0.203,-2.448l-0.206,-2.455l-0.208,-2.461l-0.209,-2.465l-0.212,-2.469l-0.212,-2.474l-0.214,-2.476l-0.43,-4.964l-0.432,-4.97l31.908,-2.773l0.432,4.974l0.431,4.974l0.215,2.488l0.213,2.486l0.213,2.484l0.211,2.481l0.209,2.479l0.208,2.475l0.205,2.473l0.204,2.468l0.201,2.463l0.198,2.459l0.195,2.453l0.192,2.447l0.189,2.438l0.093,1.22l0.093,1.217l0.091,1.215l0.09,1.212l0.09,1.211l0.088,1.207l0.087,1.208l0.087,1.204l0.085,1.202l0.084,1.201l0.083,1.198l0.081,1.195l0.081,1.193l0.079,1.191l0.078,1.188l0.077,1.186l0.076,1.183l0.074,1.18l0.072,1.179l0.072,1.175l0.07,1.172l0.068,1.169l0.067,1.167l0.066,1.164l0.064,1.16l0.062,1.158l0.061,1.155l0.059,1.151l0.058,1.148l0.056,1.145l0.054,1.141l0.053,1.138l0.05,1.134l0.049,1.133l0.048,1.127l0.045,1.124l0.043,1.121l0.042,1.117l0.04,1.113l0.037,1.108l0.036,1.106l0.034,1.102l0.032,1.098l0.029,1.094l0.028,1.089l0.025,1.087l0.023,1.081l0.021,1.078l0.019,1.074l0.017,1.068l0.014,1.065l0.012,1.061l0.01,1.056l0.007,1.052l0.005,1.048l0.003,1.042l0,1.038l-0.003,1.035l-0.005,1.029l-0.007,1.025l-0.011,1.019l-0.012,1.015l-0.016,1.011l-0.018,1.005l-0.021,1.001l-0.023,0.996l-0.027,0.992l-0.029,0.987l-0.032,0.979l-0.035,0.971l-0.019,0.493l-0.02,0.483l-0.02,0.486l-0.021,0.481l-0.021,0.483l-0.023,0.48l-0.023,0.476l-0.024,0.478l-0.025,0.477l-0.025,0.475l-0.027,0.474l-0.027,0.471l-0.028,0.473l-0.028,0.469l-0.03,0.466l-0.03,0.467l-0.031,0.469l-0.032,0.463l-0.033,0.463l-0.034,0.463l-0.034,0.46l-0.036,0.458l-0.036,0.457l-0.037,0.458l-0.038,0.457l-0.039,0.452l-0.04,0.454l-0.04,0.452l-0.042,0.447l-0.042,0.45l-0.044,0.449l-0.044,0.447l-0.045,0.443l-0.046,0.443l-0.047,0.441l-0.048,0.441l-0.049,0.442l-0.05,0.436l-0.051,0.437l-0.052,0.437l-0.053,0.435l-0.054,0.432l-0.055,0.431l-0.056,0.43l-0.056,0.427l-0.059,0.43l-0.059,0.426l-0.06,0.422l-0.059,0.415l-0.061,0.413l-0.062,0.415l-0.061,0.408l-0.063,0.409l-0.064,0.409l-0.065,0.405l-0.065,0.404l-0.065,0.4l-0.068,0.403l-0.068,0.402l-0.067,0.394l-0.07,0.399l-0.071,0.397l-0.07,0.391l-0.072,0.392l-0.072,0.391l-0.074,0.39l-0.074,0.387l-0.075,0.387l-0.076,0.386l-0.077,0.381l-0.078,0.385l-0.079,0.381l-0.079,0.378l-0.081,0.38l-0.08,0.375l-0.083,0.379l-0.083,0.371l-0.083,0.371l-0.085,0.374l-0.086,0.371l-0.087,0.369l-0.087,0.365l-0.089,0.367l-0.089,0.365l-0.09,0.365l-0.092,0.362l-0.092,0.362l-0.094,0.36l-0.093,0.357l-0.095,0.355l-0.096,0.356l-0.097,0.356l-0.098,0.354l-0.099,0.35l-0.1,0.353l-0.102,0.353l-0.102,0.346l-0.102,0.346l-0.103,0.343l-0.106,0.346l-0.107,0.349l-0.107,0.34l-0.107,0.339l-0.11,0.342l-0.109,0.336l-0.112,0.34l-0.114,0.341l-0.111,0.329l-0.114,0.332l-0.118,0.34l-0.116,0.329l-0.117,0.328l-0.119,0.332l-0.121,0.331l-0.12,0.323l-0.122,0.325l-0.124,0.328l-0.124,0.322l-0.126,0.324l-0.126,0.32l-0.13,0.323l-0.129,0.321l-0.128,0.311l-0.132,0.319l-0.132,0.315l-0.133,0.313l-0.136,0.316l-0.136,0.311l-0.138,0.314l-0.14,0.312l-0.138,0.305l-0.142,0.31l-0.141,0.304l-0.143,0.305l-0.146,0.307l-0.144,0.3l-0.147,0.302l-0.149,0.301l-0.151,0.303l-0.149,0.296l-0.151,0.295l-0.153,0.297l-0.155,0.296l-0.16,0.301l-0.156,0.29l-0.154,0.284l-0.161,0.294l-0.162,0.29l-0.159,0.284l-0.165,0.288l-0.167,0.291l-0.167,0.286l-0.166,0.281l-0.164,0.275l-0.169,0.28l-0.176,0.288l-0.172,0.277l-0.171,0.273l-0.179,0.283l-0.176,0.273l-0.17,0.263l-0.185,0.282l-0.18,0.27l-0.18,0.267l-0.184,0.271l-0.179,0.26l-0.188,0.271l-0.189,0.267l-0.188,0.264l-0.187,0.26l-0.191,0.262l-0.194,0.262l-0.188,0.251l-0.195,0.259l-0.196,0.256l-0.191,0.248l-0.199,0.254l-0.201,0.254l-0.204,0.254l-0.201,0.249l-0.198,0.241l-0.208,0.251l-0.207,0.247l-0.202,0.238l-0.204,0.239l-0.212,0.244l-0.213,0.242l-0.206,0.233l-0.208,0.231l-0.219,0.241l-0.218,0.238l-0.214,0.23l-0.213,0.226l-0.214,0.225l-0.226,0.235l-0.216,0.222l-0.218,0.222l-0.227,0.229l-0.223,0.221l-0.223,0.219l-0.223,0.216l-0.223,0.215l-0.237,0.225l-0.228,0.214l-0.218,0.202l-0.238,0.219l-0.231,0.21l-0.221,0.199l-0.242,0.215l-0.237,0.208l-0.236,0.205l-0.236,0.202l-0.226,0.192l-0.237,0.2l-0.241,0.2l-0.244,0.2l-0.241,0.196l-0.241,0.194l-0.235,0.186l-0.246,0.194l-0.247,0.191l-0.235,0.181l-0.249,0.19l-0.25,0.188l-0.251,0.187l-0.239,0.175l-0.242,0.176l-0.254,0.183l-0.253,0.18l-0.247,0.174l-0.257,0.179l-0.245,0.168l-0.247,0.169l-0.26,0.175l-0.249,0.166l-0.262,0.173l-0.25,0.163l-0.252,0.163l-0.25,0.159l-0.266,0.168l-0.256,0.16l-0.254,0.158l-0.269,0.164l-0.243,0.147l-0.256,0.153l-0.272,0.162l-0.259,0.151l-0.258,0.15l-0.262,0.15l-0.262,0.149l-0.262,0.147l-0.264,0.147l-0.264,0.145l-0.262,0.143l-0.267,0.144l-0.253,0.134l-0.266,0.141l-0.269,0.141l-0.267,0.137l-0.27,0.139l-0.27,0.136l-0.27,0.135l-0.259,0.129l-0.258,0.126l-0.273,0.133l-0.273,0.131l-0.275,0.132l-0.277,0.129l-0.261,0.122l-0.263,0.121l-0.276,0.127l-0.264,0.119l-0.266,0.12l-0.294,0.13l-0.266,0.117l-0.266,0.116l-0.282,0.121l-0.27,0.115l-0.268,0.113l-0.269,0.113l-0.285,0.118l-0.272,0.111l-0.271,0.111l-0.286,0.114l-0.273,0.109l-0.275,0.109l-0.275,0.107l-0.275,0.106l-0.275,0.106l-0.277,0.105l-0.278,0.105l-0.296,0.111l-0.546,0.2l-0.554,0.201l-0.564,0.2l-0.566,0.197l-0.562,0.192l-1.142,0.384l-1.112,0.275l-0.515,0.125l-0.515,0.122l-0.517,0.12l-0.52,0.117l-0.52,0.115l-0.514,0.112l-0.523,0.111l-0.533,0.11l-0.527,0.107l-0.52,0.102l-0.53,0.103l-0.53,0.1l-0.533,0.098l-0.534,0.096l-0.535,0.093l-0.537,0.092l-0.53,0.088l-0.54,0.088l-0.548,0.087l-0.542,0.083l-0.536,0.08l-0.544,0.08l-0.546,0.077l-0.548,0.076l-0.548,0.073l-0.549,0.071l-0.551,0.07l-0.552,0.067l-0.554,0.065l-0.554,0.064l-0.555,0.061l-0.549,0.059l-0.557,0.058l-0.566,0.056l-0.552,0.053l-0.561,0.052l-0.562,0.049l-0.562,0.049l-0.564,0.045l-0.564,0.045l-0.565,0.041l-0.559,0.041l-0.574,0.039l-0.568,0.036l-0.561,0.034l-0.569,0.033l-0.57,0.031l-0.571,0.029l-0.579,0.027l-0.565,0.025l-0.573,0.023l-0.573,0.021l-0.567,0.02l-0.582,0.018l-0.575,0.015l-0.576,0.014l-0.576,0.012l-0.569,0.01l-0.578,0.009l-0.577,0.006l-0.578,0.005l-0.579,0.003l-0.579,0.001l-0.579,-0.001l-0.579,-0.003l-0.58,-0.005l-0.58,-0.006l-0.58,-0.009l-0.573,-0.01l-0.581,-0.011l-0.581,-0.014l-0.581,-0.016l-0.588,-0.018l-0.574,-0.019l-0.582,-0.021l-0.581,-0.024l-0.574,-0.024l-0.588,-0.027l-0.582,-0.029l-0.581,-0.031l-0.581,-0.033l-0.574,-0.033l-0.581,-0.036l-0.588,-0.039l-0.573,-0.04l-0.58,-0.041l-0.58,-0.044l-0.58,-0.045l-0.58,-0.048l-0.579,-0.049l-0.579,-0.051l-0.571,-0.052l-0.586,-0.056l-0.577,-0.057l-0.57,-0.058l-0.577,-0.06l-0.577,-0.062l-0.575,-0.064l-0.576,-0.067l-0.575,-0.068l-0.574,-0.07l-0.574,-0.072l-0.572,-0.074l-0.573,-0.075l-0.572,-0.078l-0.563,-0.079l-0.57,-0.081l-0.577,-0.084l-0.569,-0.086l-0.56,-0.086l-0.568,-0.089l-0.566,-0.092l-0.565,-0.093l-0.564,-0.095l-0.564,-0.097l-0.563,-0.099l-0.554,-0.1l-0.561,-0.103l-0.567,-0.106l-0.559,-0.107l-0.55,-0.108l-0.557,-0.111l-0.556,-0.113l-0.554,-0.115l-0.553,-0.117l-0.552,-0.119l-1.643,-0.362l-1.524,-0.574l-0.47,-0.178l-0.475,-0.182l-0.474,-0.183l-0.473,-0.183l-0.477,-0.188l-0.485,-0.192l-0.483,-0.194l-0.481,-0.195l-0.488,-0.2l-0.487,-0.202l-0.492,-0.206l-0.49,-0.208l-0.497,-0.214l-0.496,-0.216l-0.495,-0.218l-0.507,-0.226l-0.498,-0.226l-0.505,-0.232l-0.511,-0.238l-0.503,-0.237l-0.515,-0.246l-0.514,-0.25l-0.506,-0.249l-0.518,-0.258l-0.523,-0.265l-0.522,-0.269l-0.505,-0.264l-0.265,-0.139l-0.272,-0.145l-0.26,-0.139l-0.259,-0.139l-0.27,-0.147l-0.261,-0.142l-0.27,-0.149l-0.27,-0.151l-0.259,-0.145l-0.258,-0.145l-0.271,-0.153l-0.267,-0.153l-0.259,-0.149l-0.27,-0.157l-0.267,-0.156l-0.267,-0.157l-0.279,-0.166l-0.271,-0.161l-0.256,-0.154l-0.276,-0.167l-0.269,-0.165l-0.267,-0.164l-0.277,-0.171l-0.267,-0.167l-0.278,-0.174l-0.266,-0.168l-0.276,-0.176l-0.278,-0.179l-0.267,-0.172l-0.275,-0.178l-0.265,-0.174l-0.277,-0.182l-0.284,-0.189l-0.276,-0.184l-0.277,-0.187l-0.274,-0.185l-0.275,-0.188l-0.276,-0.19l-0.275,-0.189l-0.284,-0.198l-0.275,-0.192l-0.276,-0.195l-0.292,-0.207l-0.274,-0.196l-0.277,-0.199l-0.283,-0.205l-0.283,-0.206l-0.284,-0.208l-0.284,-0.209l-0.284,-0.211l-0.274,-0.205l-0.285,-0.214l-0.291,-0.22l-0.284,-0.216l-0.283,-0.217l-0.285,-0.219l-0.284,-0.22l-0.293,-0.228l-0.291,-0.229l-0.284,-0.224l-0.286,-0.227l-0.291,-0.232l-0.293,-0.234l-0.293,-0.237l-0.286,-0.233l-0.293,-0.238l-0.293,-0.241l-0.294,-0.243l-0.292,-0.243l-0.295,-0.245l-0.301,-0.253l-0.287,-0.243l-0.294,-0.249l-0.302,-0.257l-0.303,-0.26l-0.296,-0.255l-0.295,-0.256l-0.303,-0.264l-0.298,-0.261l-0.303,-0.266l-0.303,-0.269l-0.299,-0.265l-0.304,-0.272l-0.306,-0.275l-0.304,-0.274l-0.306,-0.277l-0.307,-0.28l-0.313,-0.286l-0.307,-0.284l-0.303,-0.279l-0.307,-0.286l-0.316,-0.294l-0.315,-0.295l-0.315,-0.297l-0.311,-0.295l-0.312,-0.296l-0.311,-0.297l-0.318,-0.304l-0.324,-0.313l-0.314,-0.303l-0.315,-0.306l-0.325,-0.317l-0.321,-0.315l-0.322,-0.316l-0.322,-0.319l-0.324,-0.321l-0.325,-0.324l-0.323,-0.323l-0.33,-0.332l-0.327,-0.329l-0.328,-0.331l-0.333,-0.339l-0.332,-0.339l-0.33,-0.338l-0.335,-0.344l-0.335,-0.347l-0.333,-0.344l-0.338,-0.352l-0.338,-0.353l-0.339,-0.355l-0.341,-0.358l-0.341,-0.36l-0.343,-0.363l-0.343,-0.365l-0.348,-0.37l-0.344,-0.37l-0.347,-0.372l-0.352,-0.379l-0.347,-0.376l-0.35,-0.379l-0.355,-0.386l-0.354,-0.388l-0.357,-0.391l-0.354,-0.389l-0.358,-0.395l-0.361,-0.399l-0.36,-0.4l-0.361,-0.402l-0.365,-0.407l-0.364,-0.408l-0.365,-0.411l-0.367,-0.413l-0.368,-0.416l-0.372,-0.423l-0.373,-0.424l-0.373,-0.425l-0.373,-0.428l-0.377,-0.433l-0.375,-0.431l-0.38,-0.439l-0.383,-0.442l-0.379,-0.44l-0.384,-0.447l-0.389,-0.453l-0.386,-0.453l-0.386,-0.452l-0.389,-0.458l-0.391,-0.461l-0.395,-0.467l-0.399,-0.474l-0.788,-0.938l-0.801,-0.958l-0.807,-0.97l-0.813,-0.981l-0.821,-0.997l-0.828,-1.01l-0.834,-1.021l-0.841,-1.036l-0.848,-1.048l-0.856,-1.063l-0.862,-1.075l-0.871,-1.09l-0.878,-1.104l-0.885,-1.117l-0.893,-1.132l-0.9,-1.145l-0.908,-1.161l-0.916,-1.175l-0.924,-1.188l-0.821,-1.061l-0.827,-1.023l-0.947,-1.175l-0.956,-1.191l-0.964,-1.205l-0.97,-1.216l-0.978,-1.23l-0.987,-1.243l-0.994,-1.258l-1.002,-1.269l-1.009,-1.282l-1.016,-1.296l-1.025,-1.308l-1.031,-1.32l-1.038,-1.333l-1.045,-1.345l-1.054,-1.358l-1.06,-1.369l-1.068,-1.382l-1.075,-1.395l-1.08,-1.405l-1.089,-1.418l-1.096,-1.43l-1.102,-1.44l-1.109,-1.452l-1.116,-1.463l-1.123,-1.476l-1.13,-1.487l-1.136,-1.497l-1.142,-1.507l-1.149,-1.519l-1.156,-1.531l-1.162,-1.54l-1.168,-1.55l-1.175,-1.561l-1.181,-1.572l-1.186,-1.581l-1.194,-1.593l-1.2,-1.603l-1.205,-1.611l-1.211,-1.622l-1.217,-1.631l-1.223,-1.64l-1.229,-1.651l-1.235,-1.66l-1.241,-1.669l-1.246,-1.679l-1.25,-1.685l-1.258,-1.696l-1.263,-1.706l-1.268,-1.714l-1.273,-1.722l-1.279,-1.731l-2.572,-3.485l-2.594,-3.519l-2.614,-3.55l-2.633,-3.581l-2.652,-3.612l-2.671,-3.641l-2.689,-3.668l-2.707,-3.696l-2.724,-3.722l-2.741,-3.748l-2.757,-3.773l-2.773,-3.796l-2.789,-3.82l-2.804,-3.842l-5.65,-7.744l-5.704,-7.823l-5.755,-7.893l-5.801,-7.956l-5.844,-8.012l-2.937,-4.024l-2.947,-4.037l-2.954,-4.046l-2.964,-4.055l-2.971,-4.065l-2.979,-4.072l-2.985,-4.08l-2.992,-4.084l-2.998,-4.09l-3.004,-4.095l-3.008,-4.097l-3.013,-4.1l-3.017,-4.101l-3.023,-4.105l25.789,-18.992l3.028,4.111Z" style="fill:#62d4d4;"/><path d="M727.437,828.677l0.268,0.003l0.289,0.004l0.311,0.008l0.289,0.009l0.289,0.011l0.288,0.013l0.268,0.013l0.289,0.016l0.288,0.018l0.288,0.02l0.309,0.024l0.288,0.024l0.267,0.023l0.287,0.027l0.287,0.03l0.287,0.03l0.307,0.035l0.266,0.033l0.285,0.035l0.306,0.041l0.267,0.037l0.285,0.041l0.285,0.043l0.284,0.045l0.305,0.05l0.284,0.048l0.264,0.046l0.283,0.052l0.302,0.056l0.283,0.055l0.264,0.053l0.283,0.058l0.3,0.063l0.281,0.061l0.264,0.059l0.299,0.068l0.28,0.067l0.28,0.066l0.28,0.07l0.28,0.07l0.297,0.077l0.262,0.069l0.278,0.075l0.277,0.076l0.28,0.078l0.295,0.084l0.277,0.081l0.277,0.083l0.276,0.083l0.278,0.086l0.276,0.087l0.276,0.087l0.275,0.09l0.276,0.091l0.292,0.098l0.273,0.093l0.274,0.095l0.276,0.097l0.275,0.098l0.272,0.098l0.274,0.1l0.29,0.108l0.272,0.103l0.273,0.105l0.272,0.106l0.273,0.107l0.273,0.108l0.271,0.109l0.288,0.118l0.271,0.112l0.27,0.113l0.274,0.115l0.27,0.116l0.285,0.123l0.27,0.119l0.272,0.12l0.271,0.121l0.269,0.121l0.285,0.131l0.27,0.125l0.27,0.125l0.271,0.128l0.269,0.128l0.283,0.136l0.271,0.132l0.27,0.132l0.281,0.139l0.27,0.135l0.258,0.129l0.281,0.142l0.282,0.145l0.258,0.134l0.271,0.14l0.282,0.148l0.279,0.148l0.271,0.145l0.27,0.146l0.27,0.146l0.269,0.147l0.281,0.155l0.271,0.151l0.27,0.151l0.272,0.153l0.281,0.159l0.269,0.154l0.27,0.156l0.283,0.164l0.271,0.158l0.269,0.159l0.282,0.166l0.272,0.163l0.27,0.161l0.282,0.171l0.272,0.166l0.273,0.167l0.273,0.167l0.28,0.173l0.273,0.171l0.273,0.171l0.283,0.178l0.282,0.179l0.283,0.181l0.538,0.346l0.558,0.363l0.559,0.368l0.555,0.369l0.557,0.374l0.562,0.382l0.563,0.386l0.561,0.388l0.565,0.395l0.567,0.4l0.565,0.403l0.57,0.409l0.571,0.414l0.57,0.416l0.575,0.424l0.576,0.427l0.578,0.433l0.581,0.438l0.582,0.443l0.584,0.447l0.586,0.452l0.583,0.453l0.59,0.461l0.596,0.469l0.594,0.471l0.596,0.476l0.599,0.481l0.601,0.485l0.603,0.49l0.609,0.498l0.608,0.5l0.609,0.504l0.614,0.511l0.615,0.514l0.621,0.522l0.624,0.527l0.622,0.53l0.626,0.533l0.632,0.543l0.632,0.544l0.634,0.55l0.639,0.556l0.643,0.562l0.643,0.564l0.648,0.572l0.652,0.576l0.652,0.581l0.658,0.586l0.66,0.592l0.661,0.595l0.667,0.602l0.67,0.608l0.671,0.61l0.676,0.617l0.682,0.625l0.683,0.628l0.685,0.632l0.69,0.638l0.693,0.643l0.696,0.649l0.703,0.656l0.704,0.66l0.705,0.662l0.711,0.669l0.716,0.677l0.718,0.681l0.722,0.685l0.726,0.691l0.731,0.698l0.733,0.703l0.736,0.706l0.852,0.819l0.825,0.826l0.721,0.724l0.724,0.728l0.73,0.736l0.736,0.743l0.735,0.746l0.74,0.75l0.744,0.757l0.748,0.762l0.753,0.77l0.752,0.77l0.758,0.777l0.762,0.784l0.765,0.787l0.766,0.791l0.773,0.799l0.775,0.804l0.778,0.806l0.782,0.814l0.784,0.817l0.787,0.822l0.789,0.825l0.794,0.832l0.799,0.838l0.8,0.841l0.802,0.845l0.805,0.85l0.81,0.855l0.812,0.86l0.815,0.864l0.816,0.868l0.82,0.872l0.824,0.878l0.826,0.882l0.829,0.886l0.829,0.889l0.834,0.894l0.838,0.9l0.837,0.901l0.841,0.907l0.845,0.912l0.846,0.914l0.849,0.919l0.852,0.925l0.852,0.924l0.856,0.932l0.859,0.936l0.859,0.936l0.863,0.943l0.865,0.947l0.867,0.949l0.868,0.953l0.871,0.957l0.874,0.961l0.875,0.965l0.876,0.967l0.88,0.972l0.881,0.975l0.882,0.977l0.885,0.982l0.886,0.984l0.888,0.988l0.891,0.993l0.891,0.994l0.893,0.998l0.895,1.001l0.897,1.004l0.898,1.008l0.899,1.01l0.9,1.013l0.903,1.015l0.904,1.02l0.905,1.022l0.907,1.025l0.908,1.029l0.909,1.03l0.91,1.033l0.911,1.036l0.914,1.039l0.913,1.041l0.915,1.043l0.915,1.046l0.918,1.05l0.918,1.051l0.919,1.054l0.92,1.057l0.92,1.057l0.922,1.062l0.922,1.062l0.923,1.066l0.924,1.067l0.925,1.07l0.925,1.073l0.926,1.073l0.926,1.076l0.927,1.079l0.928,1.08l0.927,1.081l0.93,1.085l0.928,1.086l0.929,1.087l0.93,1.09l0.929,1.09l0.931,1.093l0.931,1.096l0.93,1.096l0.93,1.097l0.932,1.101l0.931,1.1l0.93,1.101l0.932,1.105l0.932,1.107l0.93,1.106l0.931,1.107l0.931,1.11l0.93,1.11l0.931,1.112l0.93,1.112l0.93,1.115l0.931,1.116l0.929,1.116l0.929,1.118l0.929,1.118l0.927,1.118l0.928,1.121l0.928,1.122l0.926,1.121l0.926,1.123l0.924,1.122l0.926,1.125l0.925,1.127l0.923,1.125l0.923,1.126l0.921,1.126l0.921,1.127l0.92,1.129l0.92,1.128l0.919,1.13l0.915,1.127l0.916,1.129l0.917,1.131l0.914,1.131l0.913,1.129l0.912,1.131l0.911,1.132l0.91,1.131l0.908,1.131l0.906,1.129l0.906,1.131l0.905,1.132l0.903,1.131l0.901,1.131l0.9,1.131l0.898,1.13l0.896,1.129l0.897,1.132l0.893,1.13l0.892,1.128l0.891,1.131l0.888,1.127l0.887,1.128l0.885,1.128l0.884,1.129l0.881,1.126l0.879,1.125l0.879,1.127l0.875,1.124l0.874,1.125l0.87,1.122l0.871,1.124l0.868,1.123l0.864,1.119l0.863,1.121l0.861,1.119l0.859,1.118l0.856,1.117l0.854,1.116l0.853,1.116l0.849,1.114l0.847,1.113l0.844,1.113l0.842,1.109l0.839,1.11l0.836,1.107l0.834,1.106l0.832,1.106l0.83,1.104l0.826,1.103l0.823,1.101l0.821,1.099l0.819,1.1l0.814,1.096l0.811,1.093l0.81,1.094l0.806,1.091l0.803,1.089l0.801,1.089l0.797,1.087l0.794,1.084l0.791,1.082l0.788,1.081l0.784,1.078l0.782,1.076l0.779,1.076l0.774,1.072l0.772,1.071l0.768,1.069l0.764,1.065l0.761,1.064l0.758,1.062l0.754,1.059l0.751,1.058l0.748,1.055l0.743,1.053l0.74,1.05l0.736,1.047l0.733,1.045l0.73,1.045l0.724,1.039l0.72,1.037l0.719,1.036l0.713,1.032l0.709,1.03l0.706,1.028l0.701,1.023l0.698,1.022l0.694,1.02l0.688,1.014l0.686,1.013l0.682,1.011l0.677,1.008l0.673,1.004l0.668,1.001l0.664,0.997l0.66,0.997l0.656,0.992l0.65,0.988l0.647,0.986l0.643,0.984l0.638,0.979l0.633,0.976l0.628,0.973l0.625,0.97l0.62,0.967l0.614,0.962l0.611,0.961l0.605,0.955l0.6,0.952l0.597,0.95l0.592,0.947l0.585,0.942l0.581,0.937l0.577,0.936l0.572,0.933l0.567,0.928l0.47,0.774l0.491,0.773l0.58,0.919l0.573,0.913l0.569,0.909l0.564,0.907l0.56,0.904l0.553,0.901l0.548,0.895l0.543,0.892l0.539,0.889l0.535,0.888l0.528,0.883l0.523,0.878l0.517,0.874l0.515,0.874l0.508,0.868l0.503,0.863l0.5,0.864l0.494,0.86l0.489,0.855l0.484,0.851l0.479,0.848l0.475,0.846l0.47,0.842l0.463,0.835l0.462,0.837l0.456,0.834l0.451,0.828l0.445,0.824l0.442,0.821l0.437,0.82l0.433,0.815l0.427,0.812l0.424,0.81l0.419,0.808l0.413,0.801l0.409,0.798l0.405,0.796l0.401,0.794l0.396,0.789l0.392,0.789l0.386,0.781l0.383,0.781l0.379,0.778l0.375,0.775l0.369,0.772l0.365,0.766l0.361,0.766l0.357,0.761l0.351,0.758l0.348,0.755l0.346,0.755l0.339,0.75l0.335,0.746l0.331,0.743l0.327,0.74l0.324,0.74l0.319,0.735l0.314,0.731l0.31,0.727l0.307,0.727l0.303,0.722l0.299,0.722l0.295,0.718l0.29,0.713l0.285,0.71l0.283,0.708l0.279,0.707l0.275,0.703l0.27,0.699l0.267,0.697l0.263,0.694l0.259,0.692l0.255,0.689l0.251,0.685l0.247,0.681l0.244,0.681l0.241,0.679l0.236,0.674l0.233,0.673l0.228,0.668l0.225,0.666l0.221,0.664l0.218,0.66l0.214,0.658l0.211,0.657l0.206,0.654l0.203,0.649l0.2,0.648l0.196,0.644l0.192,0.641l0.189,0.641l0.185,0.637l0.182,0.632l0.178,0.633l0.176,0.631l0.171,0.626l0.168,0.623l0.164,0.621l0.162,0.62l0.157,0.616l0.154,0.613l0.151,0.61l0.148,0.609l0.145,0.609l0.141,0.603l0.137,0.599l0.134,0.599l0.132,0.596l0.128,0.594l0.124,0.589l0.121,0.588l0.119,0.588l0.115,0.583l0.112,0.582l0.109,0.58l0.105,0.573l0.103,0.575l0.099,0.572l0.096,0.566l0.093,0.568l0.09,0.566l0.087,0.56l0.084,0.561l0.081,0.556l0.078,0.556l0.075,0.552l0.072,0.547l0.069,0.548l0.067,0.547l0.063,0.542l0.06,0.538l0.057,0.538l0.055,0.537l0.051,0.534l0.049,0.53l0.046,0.53l0.043,0.524l0.04,0.523l0.038,0.523l0.035,0.521l0.032,0.515l0.029,0.514l0.027,0.512l0.024,0.511l0.021,0.509l0.018,0.503l0.016,0.501l0.013,0.502l0.011,0.501l0.008,0.495l0.005,0.493l0.003,0.491l0,0.49l-0.002,0.486l-0.005,0.485l-0.007,0.483l-0.01,0.477l-0.012,0.48l-0.015,0.476l-0.017,0.47l-0.02,0.474l-0.022,0.469l-0.024,0.462l-0.026,0.464l-0.03,0.463l-0.031,0.459l-0.034,0.457l-0.036,0.455l-0.038,0.451l-0.04,0.45l-0.043,0.446l-0.045,0.446l-0.047,0.445l-0.049,0.439l-0.052,0.439l-0.053,0.435l-0.056,0.435l-0.058,0.431l-0.059,0.428l-0.062,0.426l-0.064,0.424l-0.066,0.423l-0.068,0.42l-0.07,0.418l-0.072,0.415l-0.073,0.411l-0.076,0.409l-0.077,0.408l-0.079,0.406l-0.082,0.405l-0.083,0.401l-0.084,0.394l-0.086,0.399l-0.089,0.394l-0.089,0.39l-0.092,0.388l-0.093,0.388l-0.095,0.386l-0.096,0.379l-0.098,0.377l-0.1,0.38l-0.101,0.374l-0.102,0.371l-0.104,0.369l-0.106,0.369l-0.107,0.367l-0.107,0.359l-0.109,0.357l-0.112,0.361l-0.113,0.356l-0.112,0.35l-0.115,0.35l-0.115,0.345l-0.119,0.352l-0.118,0.342l-0.118,0.335l-0.121,0.342l-0.122,0.335l-0.122,0.331l-0.125,0.334l-0.123,0.325l-0.125,0.325l-0.13,0.331l-0.127,0.319l-0.126,0.312l-0.129,0.317l-0.13,0.315l-0.131,0.311l-0.129,0.304l-0.134,0.308l-0.135,0.31l-0.132,0.297l-0.132,0.296l-0.136,0.297l-0.136,0.296l-0.136,0.292l-0.134,0.284l-0.136,0.287l-0.138,0.285l-0.139,0.284l-0.138,0.28l-0.136,0.272l-0.136,0.27l-0.141,0.277l-0.141,0.271l-0.135,0.261l-0.139,0.263l-0.141,0.265l-0.138,0.257l-0.139,0.256l-0.14,0.255l-0.138,0.251l-0.138,0.246l-0.14,0.248l-0.143,0.252l-0.254,0.443l-0.261,0.447l-0.266,0.451l-0.271,0.453l-0.262,0.43l-0.146,0.237l-0.144,0.232l-0.139,0.222l-0.144,0.228l-0.143,0.224l-0.146,0.227l-0.152,0.234l-0.142,0.216l-0.147,0.222l-0.16,0.239l-0.155,0.229l-0.152,0.222l-0.153,0.222l-0.163,0.233l-0.158,0.223l-0.158,0.223l-0.172,0.237l-0.164,0.224l-0.167,0.225l-0.171,0.229l-0.17,0.224l-0.175,0.229l-0.178,0.228l-0.179,0.228l-0.183,0.229l-0.176,0.218l-0.191,0.233l-0.19,0.229l-0.174,0.207l-0.198,0.233l-0.197,0.228l-0.192,0.22l-0.196,0.222l-0.198,0.22l-0.202,0.221l-0.203,0.22l-0.205,0.219l-0.199,0.21l-0.213,0.221l-0.224,0.23l-0.206,0.207l-0.21,0.209l-0.224,0.22l-0.223,0.216l-0.216,0.206l-0.223,0.21l-0.222,0.206l-0.223,0.204l-0.24,0.217l-0.231,0.205l-0.229,0.201l-0.225,0.194l-0.237,0.203l-0.241,0.203l-0.242,0.201l-0.244,0.198l-0.237,0.192l-0.237,0.189l-0.25,0.196l-0.256,0.198l-0.235,0.179l-0.244,0.184l-0.261,0.195l-0.254,0.186l-0.252,0.182l-0.257,0.184l-0.259,0.183l-0.258,0.179l-0.252,0.173l-0.266,0.181l-0.266,0.178l-0.257,0.17l-0.271,0.177l-0.274,0.176l-0.254,0.162l-0.265,0.167l-0.279,0.174l-0.285,0.175l-0.272,0.165l-0.263,0.158l-0.277,0.164l-0.279,0.164l-0.284,0.164l-0.271,0.156l-0.285,0.162l-0.29,0.163l-0.279,0.155l-0.294,0.161l-0.295,0.161l-0.286,0.153l-0.29,0.155l-0.292,0.154l-0.293,0.153l-0.295,0.152l-0.301,0.155l-0.302,0.153l-0.303,0.152l-0.306,0.153l-0.299,0.147l-0.312,0.153l-0.315,0.153l-0.305,0.147l-0.321,0.152l-0.324,0.153l-0.304,0.143l-0.318,0.148l-0.331,0.153l-0.324,0.148l-0.327,0.149l-0.33,0.148l-0.332,0.149l-0.337,0.15l-0.34,0.15l-0.331,0.145l-0.345,0.15l-0.348,0.151l-0.343,0.147l-0.346,0.147l-0.348,0.149l-0.371,0.156l-0.71,0.296l-0.728,0.301l-0.743,0.304l-0.753,0.304l-0.768,0.307l-0.778,0.309l-0.793,0.311l-0.805,0.313l-0.817,0.316l-0.829,0.317l-0.849,0.323l-0.867,0.327l-0.871,0.327l-0.894,0.333l-0.91,0.337l-0.921,0.338l-0.939,0.345l-0.957,0.348l-0.973,0.353l-0.992,0.358l-1.007,0.362l-1.024,0.367l-1.043,0.372l-1.061,0.377l-1.08,0.383l-1.101,0.39l-1.116,0.393l-1.136,0.4l-1.161,0.407l-2.371,0.83l-2.457,0.856l-2.538,0.883l-2.626,0.912l-2.716,0.941l-5.7,1.974l-6.081,2.106l-3.187,1.104l-3.287,1.14l-3.388,1.178l-3.495,1.216l-3.601,1.255l-3.709,1.296l-3.821,1.337l-1.95,0.684l-2.041,0.717l-2.124,0.727l-2.091,0.717l-2.117,0.727l-2.144,0.738l-2.174,0.749l-2.199,0.759l-2.227,0.769l-2.252,0.779l-2.276,0.789l-2.303,0.799l-2.329,0.809l-2.352,0.819l-2.376,0.828l-2.401,0.838l-2.424,0.846l-2.447,0.856l-2.468,0.864l-2.491,0.874l-2.514,0.883l-2.534,0.891l-2.555,0.899l-2.576,0.908l-2.596,0.916l-2.616,0.924l-2.636,0.932l-2.654,0.94l-2.672,0.948l-2.691,0.955l-2.709,0.963l-2.727,0.97l-2.743,0.978l-2.761,0.984l-2.776,0.991l-2.792,0.999l-2.808,1.005l-2.822,1.011l-2.838,1.018l-2.852,1.024l-2.866,1.031l-2.879,1.037l-2.892,1.043l-2.906,1.048l-2.916,1.054l-2.931,1.06l-2.941,1.065l-2.95,1.07l-2.964,1.076l-2.974,1.081l-2.983,1.085l-2.992,1.091l-3.002,1.095l-3.012,1.101l-3.019,1.104l-3.028,1.109l-3.035,1.112l-3.042,1.117l-3.049,1.121l-3.056,1.124l-3.062,1.128l-3.067,1.132l-3.073,1.135l-3.078,1.139l-3.082,1.142l-3.087,1.145l-3.09,1.147l-3.093,1.151l-3.097,1.154l-3.099,1.155l-3.101,1.158l-3.102,1.161l-3.104,1.162l-3.107,1.166l-3.105,1.166l-3.106,1.168l-3.107,1.171l-3.104,1.171l-3.104,1.173l-3.104,1.175l-3.101,1.175l-3.1,1.177l-3.096,1.177l-3.094,1.178l-3.091,1.179l-3.086,1.179l-3.083,1.18l-3.078,1.18l-3.073,1.18l-3.068,1.181l-3.062,1.18l-3.056,1.18l-3.05,1.179l-3.043,1.179l-3.036,1.179l-3.028,1.178l-3.019,1.176l-3.012,1.176l-3.003,1.175l-2.993,1.173l-2.984,1.172l-2.974,1.171l-2.963,1.168l-2.953,1.168l-2.943,1.165l-2.928,1.163l-2.918,1.161l-2.906,1.159l-2.893,1.157l-2.88,1.154l-2.866,1.15l-2.852,1.149l-2.838,1.145l-2.822,1.142l-2.808,1.14l-2.792,1.135l-2.777,1.133l-2.759,1.129l-2.746,1.126l-1.363,0.56l-1.361,0.561l-1.357,0.559l-1.352,0.558l-1.347,0.557l-1.34,0.555l-1.341,0.556l-1.335,0.554l-1.328,0.553l-1.324,0.551l-1.318,0.551l-1.316,0.55l-1.311,0.548l-1.303,0.547l-1.301,0.546l-1.295,0.545l-1.29,0.544l-1.285,0.542l-1.277,0.54l-1.274,0.54l-1.271,0.539l-1.319,0.561l-1.338,0.558l-1.278,0.534l-1.275,0.534l-1.267,0.532l-1.261,0.531l-1.262,0.531l-1.251,0.529l-1.247,0.527l-1.243,0.528l-1.238,0.526l-1.234,0.524l-1.226,0.523l-1.22,0.522l-1.218,0.522l-1.216,0.521l-1.207,0.519l-1.2,0.516l-1.198,0.517l-1.193,0.516l-1.188,0.514l-1.183,0.513l-1.178,0.512l-1.173,0.51l-1.168,0.51l-1.166,0.509l-1.157,0.506l-1.151,0.505l-1.152,0.506l-1.146,0.503l-1.136,0.501l-2.267,1.001l-2.246,0.994l-2.228,0.991l-2.211,0.985l-2.191,0.979l-2.174,0.974l-2.153,0.968l-2.138,0.963l-2.12,0.958l-2.101,0.951l-2.085,0.947l-2.066,0.94l-2.049,0.934l-2.034,0.93l-2.017,0.923l-1.998,0.917l-1.981,0.91l-1.966,0.905l-1.95,0.9l-1.934,0.892l-1.916,0.886l-1.901,0.88l-1.885,0.874l-3.725,1.729l-3.663,1.702l-3.602,1.676l-7.028,3.269l-3.428,1.593l-3.371,1.564l-1.667,0.773l-1.653,0.764l-1.639,0.757l-1.626,0.75l-1.614,0.743l-1.6,0.735l-1.586,0.726l-1.574,0.72l-1.565,0.713l-1.551,0.705l-1.539,0.696l-1.525,0.688l-1.513,0.681l-1.506,0.675l-1.493,0.665l-1.48,0.657l-1.464,0.646l-0.735,0.324l-0.732,0.321l-0.725,0.317l-0.719,0.313l-0.719,0.314l-0.721,0.312l-0.714,0.309l-0.712,0.307l-0.713,0.306l-0.705,0.302l-0.703,0.3l-0.705,0.3l-0.699,0.296l-0.695,0.294l-0.698,0.293l-0.69,0.289l-0.692,0.289l-0.69,0.286l-0.683,0.283l-0.685,0.282l-0.677,0.278l-0.681,0.278l-0.677,0.275l-0.676,0.273l-0.673,0.271l-0.666,0.266l-0.668,0.266l-0.666,0.264l-0.664,0.262l-0.662,0.259l-0.659,0.257l-0.657,0.255l-0.661,0.254l-0.652,0.249l-0.646,0.246l-0.654,0.247l-0.646,0.242l-0.645,0.241l-0.648,0.24l-0.635,0.233l-0.644,0.236l-0.642,0.232l-0.634,0.228l-0.633,0.225l-0.636,0.226l-0.634,0.222l-0.627,0.218l-0.626,0.216l-0.629,0.216l-0.627,0.212l-0.619,0.208l-0.63,0.21l-0.617,0.202l-0.62,0.203l-0.618,0.199l-0.612,0.196l-0.615,0.194l-0.614,0.193l-0.618,0.191l-0.612,0.186l-0.603,0.182l-0.607,0.181l-0.613,0.181l-0.605,0.175l-0.604,0.174l-0.602,0.17l-0.601,0.168l-0.6,0.164l-0.604,0.164l-0.603,0.161l-0.589,0.155l-0.601,0.155l-0.6,0.152l-0.585,0.147l-0.597,0.147l-0.597,0.143l-0.588,0.14l-0.594,0.137l-0.593,0.135l-0.592,0.132l-0.584,0.127l-0.589,0.126l-0.589,0.123l-0.581,0.118l-0.586,0.117l-0.586,0.113l-0.586,0.111l-0.584,0.107l-0.583,0.104l-0.582,0.101l-0.582,0.097l-0.58,0.095l-0.58,0.091l-0.579,0.088l-0.586,0.086l-0.578,0.08l-0.576,0.079l-0.576,0.074l-0.575,0.071l-0.582,0.069l-0.582,0.065l-0.572,0.06l-0.572,0.058l-0.58,0.054l-0.571,0.05l-0.578,0.047l-0.569,0.043l-0.577,0.041l-0.569,0.035l-0.283,0.016l-0.283,0.016l-0.3,0.016l-0.284,0.013l-0.283,0.013l-0.299,0.013l-0.283,0.01l-0.266,0.01l-0.299,0.01l-0.282,0.008l-0.283,0.007l-0.298,0.007l-0.282,0.005l-0.281,0.004l-0.282,0.004l-0.298,0.002l-0.281,0.001l-0.281,0.001l-0.281,-0.001l-0.28,-0.001l-0.298,-0.002l-0.28,-0.004l-0.28,-0.004l-0.28,-0.005l-0.279,-0.006l-0.297,-0.008l-0.279,-0.009l-0.279,-0.009l-0.297,-0.01l-0.279,-0.012l-0.261,-0.011l-0.278,-0.013l-0.296,-0.015l-0.278,-0.015l-0.277,-0.015l-0.278,-0.017l-0.277,-0.018l-0.295,-0.02l-0.277,-0.02l-0.259,-0.019l-0.277,-0.021l-0.294,-0.024l-0.276,-0.024l-0.276,-0.024l-0.275,-0.026l-0.258,-0.024l-0.293,-0.029l-0.275,-0.029l-0.258,-0.026l-0.292,-0.032l-0.274,-0.031l-0.274,-0.032l-0.274,-0.033l-0.274,-0.034l-0.274,-0.035l-0.273,-0.035l-0.272,-0.037l-0.256,-0.035l-0.272,-0.038l-0.29,-0.042l-0.272,-0.041l-0.255,-0.038l-0.272,-0.042l-0.271,-0.043l-0.27,-0.044l-0.29,-0.048l-0.513,-0.088l-0.54,-0.096l-0.539,-0.101l-0.52,-0.1l-0.528,-0.105l-0.536,-0.11l-0.525,-0.113l-0.525,-0.116l-0.523,-0.12l-0.523,-0.122l-0.521,-0.127l-0.52,-0.13l-0.51,-0.131l-0.517,-0.137l-0.516,-0.14l-0.507,-0.141l-0.514,-0.148l-0.504,-0.148l-0.511,-0.153l-0.502,-0.156l-0.5,-0.157l-0.506,-0.164l-0.498,-0.165l-0.488,-0.165l-0.495,-0.17l-0.502,-0.177l-0.492,-0.178l-0.49,-0.18l-0.481,-0.181l-0.481,-0.184l-0.494,-0.193l-0.485,-0.193l-0.468,-0.19l-0.481,-0.199l-0.481,-0.202l-0.471,-0.202l-0.47,-0.205l-0.469,-0.208l-0.474,-0.215l-0.465,-0.214l-0.463,-0.216l-0.462,-0.22l-0.461,-0.223l-0.459,-0.225l-0.449,-0.224l-0.457,-0.232l-0.454,-0.234l-0.445,-0.232l-0.451,-0.24l-0.45,-0.242l-0.44,-0.241l-0.439,-0.244l-0.445,-0.251l-0.435,-0.249l-0.434,-0.251l-0.433,-0.255l-0.43,-0.256l-0.436,-0.264l-0.428,-0.262l-0.418,-0.261l-0.424,-0.266l-0.423,-0.271l-0.413,-0.267l-0.419,-0.274l-0.417,-0.278l-0.416,-0.279l-0.407,-0.278l-0.405,-0.28l-0.404,-0.282l-0.408,-0.289l-0.406,-0.291l-0.392,-0.285l-0.397,-0.291l-0.396,-0.295l-0.393,-0.296l-0.396,-0.302l-0.391,-0.301l-0.383,-0.299l-0.378,-0.299l-0.384,-0.306l-0.383,-0.31l-0.382,-0.312l-0.373,-0.31l-0.371,-0.31l-0.374,-0.317l-0.368,-0.315l-0.372,-0.322l-0.363,-0.319l-0.362,-0.32l-0.362,-0.325l-0.352,-0.319l-0.362,-0.331l-0.356,-0.331l-0.346,-0.324l-0.352,-0.332l-0.35,-0.336l-0.347,-0.336l-0.345,-0.338l-0.34,-0.336l-0.337,-0.338l-0.334,-0.338l-0.338,-0.344l-0.336,-0.348l-0.324,-0.339l-0.328,-0.345l-0.331,-0.353l-0.324,-0.35l-0.322,-0.351l-0.319,-0.351l-0.313,-0.349l-0.318,-0.357l-0.314,-0.358l-0.311,-0.357l-0.312,-0.362l-0.305,-0.359l-0.3,-0.356l-0.305,-0.365l-0.3,-0.365l-0.296,-0.362l-0.298,-0.369l-0.294,-0.367l-0.29,-0.367l-0.289,-0.37l-0.288,-0.371l-0.285,-0.372l-0.283,-0.374l-0.281,-0.373l-0.279,-0.377l-0.275,-0.374l-0.27,-0.372l-0.277,-0.385l-0.269,-0.379l-0.266,-0.377l-0.266,-0.384l-0.262,-0.38l-0.264,-0.388l-0.259,-0.384l-0.252,-0.379l-0.257,-0.388l-0.252,-0.388l-0.248,-0.384l-0.25,-0.392l-0.247,-0.391l-0.241,-0.387l-0.241,-0.391l-0.241,-0.396l-0.238,-0.394l-0.233,-0.39l-0.232,-0.394l-0.231,-0.397l-0.228,-0.395l-0.228,-0.401l-0.222,-0.394l-0.222,-0.399l-0.219,-0.4l-0.216,-0.396l-0.215,-0.401l-0.213,-0.402l-0.212,-0.404l-0.206,-0.399l-0.208,-0.407l-0.204,-0.404l-0.199,-0.397l-0.201,-0.409l-0.198,-0.408l-0.193,-0.402l-0.194,-0.409l-0.191,-0.408l-0.187,-0.406l-0.188,-0.412l-0.183,-0.408l-0.181,-0.408l-0.18,-0.412l-0.176,-0.408l-0.176,-0.413l-0.172,-0.412l-0.17,-0.41l-0.169,-0.414l-0.165,-0.411l-0.163,-0.413l-0.161,-0.414l-0.161,-0.418l-0.156,-0.414l-0.154,-0.414l-0.152,-0.415l-0.148,-0.412l-0.15,-0.421l-0.145,-0.418l-0.142,-0.414l-0.141,-0.417l-0.139,-0.422l-0.136,-0.417l-0.131,-0.413l-0.132,-0.42l-0.131,-0.424l-0.125,-0.415l-0.124,-0.419l-0.123,-0.423l-0.119,-0.419l-0.117,-0.42l-0.115,-0.42l-0.112,-0.42l-0.111,-0.424l-0.108,-0.423l-0.105,-0.422l-0.102,-0.418l-0.1,-0.422l-0.098,-0.424l-0.095,-0.42l-0.093,-0.422l-0.092,-0.427l-0.088,-0.423l-0.085,-0.421l-0.083,-0.423l-0.081,-0.425l-0.078,-0.424l-0.076,-0.424l-0.073,-0.423l-0.07,-0.421l-0.069,-0.429l-0.065,-0.424l-0.063,-0.422l-0.061,-0.425l-0.057,-0.424l-0.056,-0.428l-0.052,-0.422l-0.05,-0.422l-0.048,-0.429l-0.045,-0.425l-0.042,-0.423l-0.025,-0.276l-0.002,-0.014l-0.001,-0.009l-0.045,-0.307l-0.061,-0.432l-0.059,-0.432l-0.056,-0.431l-0.054,-0.43l-0.051,-0.43l-0.05,-0.433l-0.047,-0.432l-0.044,-0.43l-0.043,-0.434l-0.04,-0.432l-0.038,-0.433l-0.035,-0.432l-0.032,-0.429l-0.031,-0.433l-0.028,-0.436l-0.026,-0.432l-0.023,-0.43l-0.021,-0.433l-0.018,-0.437l-0.016,-0.433l-0.013,-0.429l-0.011,-0.435l-0.008,-0.436l-0.006,-0.431l-0.003,-0.435l-0.001,-0.435l0.002,-0.432l0.004,-0.431l0.007,-0.435l0.01,-0.437l0.012,-0.434l0.015,-0.431l0.017,-0.434l0.02,-0.434l0.022,-0.434l0.025,-0.436l0.028,-0.434l0.03,-0.433l0.033,-0.433l0.035,-0.436l0.039,-0.436l0.04,-0.429l0.043,-0.434l0.046,-0.436l0.048,-0.432l0.052,-0.435l0.053,-0.433l0.057,-0.434l0.059,-0.433l0.061,-0.435l0.064,-0.432l0.067,-0.43l0.069,-0.434l0.072,-0.433l0.074,-0.433l0.077,-0.432l0.08,-0.434l0.082,-0.432l0.085,-0.431l0.087,-0.434l0.089,-0.429l0.093,-0.432l0.094,-0.431l0.098,-0.431l0.1,-0.434l0.102,-0.43l0.104,-0.428l0.108,-0.431l0.11,-0.433l0.112,-0.431l0.114,-0.427l0.117,-0.43l0.121,-0.433l0.121,-0.427l0.125,-0.43l0.127,-0.432l0.129,-0.428l0.131,-0.429l0.135,-0.433l0.136,-0.426l0.139,-0.43l0.141,-0.429l0.143,-0.427l0.147,-0.432l0.148,-0.429l0.149,-0.426l0.153,-0.43l0.155,-0.427l0.157,-0.43l0.161,-0.431l0.161,-0.427l0.165,-0.43l0.167,-0.432l0.168,-0.427l0.171,-0.427l0.173,-0.431l0.175,-0.428l0.179,-0.432l0.181,-0.431l0.181,-0.429l0.184,-0.429l0.186,-0.429l0.191,-0.435l0.19,-0.428l0.191,-0.427l0.198,-0.439l0.199,-0.432l0.196,-0.425l0.202,-0.434l0.206,-0.436l0.206,-0.432l0.209,-0.435l0.211,-0.434l0.21,-0.43l0.216,-0.437l0.218,-0.436l0.219,-0.437l0.222,-0.436l0.222,-0.434l0.228,-0.443l0.228,-0.437l0.228,-0.437l0.232,-0.437l0.235,-0.442l0.237,-0.443l0.238,-0.44l0.24,-0.44l0.242,-0.442l0.246,-0.446l0.247,-0.444l0.249,-0.446l0.251,-0.445l0.254,-0.447l0.256,-0.448l0.258,-0.451l0.26,-0.449l0.26,-0.447l0.267,-0.455l0.265,-0.451l0.269,-0.454l0.271,-0.455l0.272,-0.454l0.275,-0.457l0.277,-0.457l0.279,-0.458l0.283,-0.463l0.283,-0.461l0.284,-0.459l0.29,-0.466l0.291,-0.466l0.29,-0.463l0.295,-0.468l0.298,-0.47l0.298,-0.469l0.302,-0.473l0.304,-0.473l0.304,-0.472l0.307,-0.474l0.309,-0.477l0.314,-0.481l0.314,-0.479l0.316,-0.481l0.319,-0.482l0.321,-0.485l0.323,-0.485l0.325,-0.486l0.33,-0.493l0.33,-0.491l0.328,-0.486l0.335,-0.495l0.338,-0.498l0.339,-0.496l0.342,-0.502l0.345,-0.502l0.344,-0.5l0.346,-0.501l0.35,-0.507l0.355,-0.511l0.355,-0.509l0.357,-0.512l0.36,-0.514l0.363,-0.517l0.728,-1.034l0.739,-1.044l0.75,-1.053l0.759,-1.061l0.767,-1.068l0.777,-1.077l0.786,-1.086l0.796,-1.095l0.807,-1.105l0.816,-1.114l0.824,-1.121l0.834,-1.132l0.846,-1.143l0.854,-1.151l0.863,-1.16l0.873,-1.17l0.885,-1.182l0.893,-1.192l0.903,-1.201l0.914,-1.214l0.924,-1.224l0.933,-1.233l0.944,-1.246l0.954,-1.258l0.963,-1.266l0.974,-1.279l0.986,-1.294l0.994,-1.301l1.004,-1.315l1.017,-1.328l1.026,-1.34l1.036,-1.351l2.103,-2.739l2.058,-2.677l2.101,-2.835l2.229,-3.007l4.581,-6.176l9.629,-12.977l5.031,-6.783l2.567,-3.462l2.599,-3.507l2.63,-3.552l2.662,-3.594l2.69,-3.637l2.72,-3.678l2.746,-3.718l2.774,-3.758l2.799,-3.795l2.824,-3.832l2.847,-3.869l2.87,-3.903l2.891,-3.937l2.913,-3.971l1.462,-1.995l1.469,-2.006l1.473,-2.012l1.477,-2.02l1.482,-2.027l1.485,-2.034l1.491,-2.042l1.494,-2.049l1.498,-2.055l1.502,-2.063l1.506,-2.069l1.509,-2.075l1.512,-2.082l1.516,-2.088l1.518,-2.094l1.522,-2.1l1.525,-2.107l1.527,-2.11l1.53,-2.118l1.533,-2.122l1.535,-2.128l1.537,-2.133l1.54,-2.138l1.541,-2.143l1.544,-2.148l1.545,-2.152l1.546,-2.156l1.549,-2.161l1.55,-2.166l1.55,-2.169l1.552,-2.173l1.553,-2.177l1.554,-2.181l1.555,-2.185l1.555,-2.187l1.556,-2.192l1.556,-2.194l1.557,-2.198l1.556,-2.2l1.556,-2.203l1.557,-2.205l1.556,-2.208l1.555,-2.211l1.556,-2.213l1.554,-2.215l1.554,-2.216l1.553,-2.219l1.553,-2.221l1.55,-2.221l1.549,-2.223l1.548,-2.225l1.547,-2.226l1.545,-2.226l1.544,-2.229l1.541,-2.227l1.539,-2.23l1.537,-2.229l1.535,-2.23l1.533,-2.23l1.53,-2.23l1.527,-2.23l1.524,-2.23l1.522,-2.23l1.519,-2.229l1.515,-2.229l1.512,-2.227l1.509,-2.227l1.505,-2.226l1.502,-2.226l1.497,-2.222l1.494,-2.223l1.49,-2.22l1.485,-2.219l1.482,-2.217l1.476,-2.216l1.473,-2.214l1.467,-2.21l1.462,-2.208l1.459,-2.207l1.454,-2.205l0.721,-1.097l0.722,-1.098l0.721,-1.098l0.718,-1.097l0.718,-1.097l0.717,-1.097l0.715,-1.095l0.712,-1.093l0.712,-1.095l0.71,-1.093l0.709,-1.092l0.708,-1.093l0.706,-1.091l0.705,-1.091l0.703,-1.088l0.702,-1.089l0.7,-1.088l0.698,-1.087l0.698,-1.087l0.695,-1.083l1.39,-2.171l1.382,-2.165l1.377,-2.162l1.371,-2.158l1.365,-2.153l1.36,-2.151l1.354,-2.146l1.348,-2.142l1.343,-2.139l1.338,-2.134l1.332,-2.129l1.325,-2.124l1.321,-2.121l1.315,-2.116l1.309,-2.11l1.304,-2.105l1.298,-2.101l1.293,-2.097l1.287,-2.09l1.281,-2.084l1.276,-2.081l1.271,-2.074l1.265,-2.068l1.259,-2.062l1.254,-2.057l1.248,-2.052l1.243,-2.045l1.238,-2.038l1.231,-2.033l1.227,-2.026l1.221,-2.02l1.215,-2.012l1.211,-2.007l1.204,-1.999l1.199,-1.993l1.194,-1.986l1.188,-1.979l1.183,-1.972l1.178,-1.964l1.171,-1.955l2.329,-3.892l2.307,-3.861l2.285,-3.828l2.263,-3.797l2.243,-3.763l4.422,-7.423l2.179,-3.658l2.158,-3.623l2.138,-3.585l2.116,-3.546l2.096,-3.509l2.074,-3.467l1.031,-1.719l1.025,-1.711l1.02,-1.699l1.014,-1.687l1.01,-1.678l1.004,-1.667l0.999,-1.657l0.996,-1.647l0.989,-1.634l0.984,-1.624l0.98,-1.614l0.974,-1.602l0.969,-1.59l0.965,-1.579l0.96,-1.569l0.955,-1.557l0.949,-1.544l0.945,-1.533l0.941,-1.522l0.935,-1.509l0.931,-1.499l0.926,-1.485l0.92,-1.473l0.917,-1.462l0.912,-1.45l0.907,-1.436l0.902,-1.424l0.897,-1.412l0.893,-1.398l0.887,-1.385l0.445,-0.691l0.441,-0.685l0.44,-0.682l0.439,-0.678l0.439,-0.677l0.436,-0.672l0.435,-0.667l0.436,-0.667l0.434,-0.664l0.432,-0.657l0.43,-0.655l0.431,-0.654l0.43,-0.65l0.428,-0.646l0.428,-0.643l0.425,-0.638l0.424,-0.635l0.426,-0.636l0.423,-0.628l0.42,-0.624l0.422,-0.625l0.419,-0.618l0.419,-0.616l0.419,-0.613l0.416,-0.608l0.414,-0.604l0.416,-0.604l0.415,-0.6l0.411,-0.593l0.411,-0.591l0.411,-0.589l0.413,-0.588l0.407,-0.579l0.406,-0.576l0.41,-0.578l0.406,-0.571l0.402,-0.563l0.407,-0.568l0.403,-0.559l0.402,-0.557l0.404,-0.556l0.399,-0.548l0.399,-0.545l0.283,-0.385l0.283,-0.403l0.393,-0.558l0.39,-0.553l0.39,-0.55l0.393,-0.551l0.387,-0.541l0.387,-0.539l0.388,-0.539l0.388,-0.536l0.386,-0.531l0.385,-0.526l0.383,-0.521l0.387,-0.525l0.385,-0.518l0.381,-0.511l0.384,-0.513l0.384,-0.508l0.383,-0.506l0.382,-0.501l0.382,-0.497l0.38,-0.492l0.385,-0.496l0.381,-0.487l0.381,-0.485l0.383,-0.482l0.381,-0.479l0.384,-0.477l0.379,-0.469l0.382,-0.468l0.385,-0.469l0.385,-0.465l0.383,-0.458l0.379,-0.451l0.386,-0.455l0.387,-0.453l0.385,-0.445l0.384,-0.442l0.385,-0.438l0.389,-0.439l0.39,-0.435l0.39,-0.432l0.389,-0.426l0.388,-0.421l0.393,-0.422l0.395,-0.42l0.392,-0.411l0.397,-0.413l0.397,-0.409l0.395,-0.401l0.401,-0.402l0.402,-0.4l0.403,-0.394l0.405,-0.392l0.393,-0.375l0.215,-0.204l0.202,-0.19l0.2,-0.187l0.219,-0.204l0.201,-0.184l0.201,-0.184l0.213,-0.194l0.202,-0.182l0.202,-0.181l0.212,-0.189l0.213,-0.187l0.205,-0.18l0.214,-0.186l0.214,-0.185l0.209,-0.178l0.204,-0.174l0.205,-0.173l0.22,-0.185l0.217,-0.18l0.217,-0.179l0.209,-0.17l0.209,-0.17l0.223,-0.179l0.222,-0.177l0.219,-0.173l0.212,-0.165l0.211,-0.165l0.212,-0.163l0.224,-0.171l0.227,-0.172l0.226,-0.169l0.226,-0.168l0.217,-0.159l0.215,-0.157l0.23,-0.166l0.216,-0.154l0.229,-0.163l0.232,-0.163l0.22,-0.153l0.234,-0.16l0.232,-0.158l0.221,-0.149l0.222,-0.148l0.248,-0.163l0.223,-0.145l0.226,-0.147l0.253,-0.161l0.222,-0.14l0.226,-0.141l0.242,-0.149l0.242,-0.148l0.242,-0.145l0.23,-0.137l0.244,-0.144l0.244,-0.141l0.23,-0.132l0.23,-0.131l0.251,-0.14l0.247,-0.137l0.248,-0.135l0.251,-0.135l0.235,-0.125l0.253,-0.132l0.251,-0.13l0.238,-0.121l0.254,-0.128l0.239,-0.118l0.256,-0.125l0.257,-0.123l0.258,-0.123l0.258,-0.12l0.242,-0.111l0.26,-0.117l0.243,-0.108l0.263,-0.116l0.263,-0.112l0.263,-0.112l0.265,-0.11l0.246,-0.1l0.267,-0.107l0.268,-0.105l0.248,-0.096l0.267,-0.102l0.27,-0.1l0.27,-0.099l0.271,-0.097l0.253,-0.088l0.27,-0.093l0.273,-0.092l0.254,-0.084l0.274,-0.088l0.277,-0.087l0.275,-0.085l0.275,-0.082l0.276,-0.081l0.259,-0.074l0.279,-0.078l0.278,-0.075l0.257,-0.069l0.302,-0.078l0.281,-0.07l0.26,-0.063l0.282,-0.066l0.282,-0.065l0.261,-0.058l0.282,-0.061l0.305,-0.063l0.264,-0.053l0.284,-0.055l0.284,-0.053l0.265,-0.048l0.307,-0.053l0.286,-0.047l0.265,-0.042l0.286,-0.044l0.287,-0.041l0.266,-0.037l0.309,-0.041l0.288,-0.035l0.266,-0.031l0.288,-0.032l0.289,-0.03l0.289,-0.028l0.288,-0.026l0.289,-0.024l0.289,-0.022l0.289,-0.019l0.268,-0.017l0.289,-0.017l0.311,-0.015l0.29,-0.012l0.268,-0.009l0.29,-0.009l0.289,-0.006l0.29,-0.005l0.289,-0.002l0.29,-0.001l0.289,0.002ZM727.03,860.704l-0.074,0l-0.073,0.001l-0.073,0.002l-0.072,0.002l-0.093,0.003l-0.071,0.003l-0.049,0.003l-0.07,0.004l-0.091,0.005l-0.069,0.005l-0.068,0.005l-0.068,0.006l-0.069,0.006l-0.067,0.006l-0.066,0.007l-0.067,0.008l-0.088,0.01l-0.067,0.008l-0.043,0.006l-0.088,0.012l-0.065,0.01l-0.065,0.01l-0.087,0.013l-0.065,0.011l-0.043,0.007l-0.085,0.016l-0.065,0.012l-0.066,0.013l-0.084,0.016l-0.043,0.009l-0.065,0.015l-0.086,0.019l-0.065,0.014l-0.064,0.015l-0.086,0.021l-0.064,0.016l-0.043,0.012l-0.088,0.023l-0.066,0.018l-0.064,0.018l-0.085,0.024l-0.066,0.019l-0.068,0.021l-0.067,0.02l-0.066,0.021l-0.067,0.022l-0.087,0.028l-0.067,0.023l-0.07,0.024l-0.088,0.031l-0.068,0.024l-0.069,0.025l-0.069,0.026l-0.072,0.027l-0.09,0.035l-0.071,0.028l-0.07,0.028l-0.092,0.038l-0.071,0.029l-0.074,0.031l-0.074,0.032l-0.073,0.032l-0.093,0.042l-0.076,0.034l-0.094,0.043l-0.076,0.035l-0.077,0.037l-0.078,0.037l-0.079,0.039l-0.095,0.047l-0.079,0.04l-0.097,0.049l-0.082,0.042l-0.081,0.043l-0.098,0.051l-0.081,0.044l-0.085,0.047l-0.085,0.047l-0.082,0.045l-0.102,0.058l-0.102,0.059l-0.088,0.051l-0.088,0.052l-0.101,0.06l-0.089,0.054l-0.09,0.054l-0.089,0.055l-0.105,0.066l-0.108,0.068l-0.078,0.05l-0.105,0.067l-0.107,0.07l-0.083,0.055l-0.108,0.072l-0.109,0.073l-0.098,0.067l-0.096,0.066l-0.11,0.076l-0.098,0.069l-0.1,0.071l-0.114,0.081l-0.099,0.072l-0.115,0.084l-0.113,0.083l-0.103,0.076l-0.104,0.078l-0.102,0.077l-0.105,0.081l-0.118,0.09l-0.118,0.092l-0.118,0.092l-0.11,0.087l-0.108,0.086l-0.106,0.085l-0.12,0.098l-0.121,0.098l-0.112,0.093l-0.113,0.094l-0.109,0.091l-0.125,0.105l-0.125,0.107l-0.121,0.103l-0.115,0.1l-0.117,0.101l-0.124,0.109l-0.117,0.104l-0.118,0.105l-0.128,0.115l-0.129,0.115l-0.117,0.107l-0.129,0.118l-0.13,0.12l-0.112,0.103l-0.13,0.122l-0.129,0.121l-0.116,0.11l-0.27,0.257l-0.257,0.25l-0.261,0.256l-0.262,0.259l-0.264,0.266l-0.272,0.275l-0.269,0.277l-0.27,0.281l-0.277,0.291l-0.274,0.291l-0.278,0.298l-0.283,0.307l-0.283,0.31l-0.284,0.314l-0.285,0.319l-0.286,0.323l-0.293,0.333l-0.294,0.338l-0.296,0.343l-0.294,0.343l-0.297,0.35l-0.305,0.363l-0.303,0.364l-0.302,0.365l-0.304,0.369l-0.309,0.38l-0.314,0.387l-0.31,0.386l-0.314,0.394l-0.315,0.397l-0.319,0.405l-0.32,0.41l-0.319,0.41l-0.326,0.422l-0.326,0.425l-0.327,0.429l-0.329,0.433l-0.33,0.439l-0.332,0.443l-0.338,0.453l-0.336,0.452l-0.336,0.455l-0.343,0.467l-0.344,0.471l-0.344,0.472l-0.345,0.478l-0.348,0.481l-0.352,0.491l-0.354,0.495l-0.351,0.493l-0.357,0.504l-0.359,0.508l-0.359,0.51l-0.473,0.675l-0.475,0.646l-0.362,0.494l-0.364,0.499l-0.362,0.499l-0.366,0.507l-0.368,0.51l-0.366,0.512l-0.374,0.523l-0.372,0.523l-0.372,0.525l-0.377,0.534l-0.379,0.539l-0.376,0.537l-0.38,0.544l-0.383,0.55l-0.385,0.555l-0.384,0.556l-0.385,0.56l-0.39,0.567l-0.39,0.571l-0.391,0.571l-0.393,0.579l-0.395,0.582l-0.394,0.584l-0.4,0.593l-0.399,0.593l-0.399,0.596l-0.402,0.602l-0.405,0.608l-0.405,0.609l-0.407,0.613l-0.407,0.617l-0.409,0.62l-0.412,0.627l-0.414,0.631l-0.414,0.631l-0.414,0.636l-0.419,0.642l-0.419,0.644l-0.419,0.646l-0.422,0.654l-0.423,0.655l-0.425,0.659l-0.424,0.66l-0.858,1.339l-0.863,1.351l-0.868,1.366l-0.874,1.38l-0.881,1.394l-0.885,1.407l-0.891,1.422l-0.898,1.436l-0.903,1.449l-0.909,1.463l-0.915,1.477l-0.92,1.489l-0.926,1.503l-0.933,1.516l-0.937,1.528l-0.943,1.541l-0.949,1.555l-0.955,1.567l-0.961,1.579l-0.965,1.589l-0.973,1.605l-0.978,1.616l-0.982,1.626l-0.989,1.64l-0.996,1.652l-1,1.663l-1.007,1.675l-1.011,1.684l-1.017,1.696l-1.023,1.708l-2.064,3.45l-2.087,3.493l-2.109,3.534l-2.132,3.576l-2.155,3.617l-2.177,3.656l-4.424,7.427l-2.247,3.769l-2.269,3.806l-2.293,3.841l-2.315,3.875l-2.338,3.907l-1.178,1.968l-1.184,1.974l-1.189,1.982l-1.196,1.991l-1.2,1.997l-1.207,2.006l-1.213,2.013l-1.219,2.02l-1.224,2.028l-1.23,2.035l-1.236,2.041l-1.242,2.049l-1.248,2.056l-1.253,2.062l-1.259,2.068l-1.265,2.076l-1.272,2.083l-1.277,2.088l-1.282,2.093l-1.289,2.101l-1.295,2.107l-1.3,2.112l-1.306,2.117l-1.312,2.124l-1.319,2.129l-1.324,2.135l-1.33,2.14l-1.336,2.144l-1.342,2.151l-1.348,2.156l-1.354,2.159l-1.359,2.165l-1.366,2.17l-1.372,2.174l-1.377,2.179l-1.385,2.183l-1.389,2.187l-1.395,2.191l-1.402,2.196l-1.407,2.197l-0.707,1.103l-0.707,1.102l-0.71,1.104l-0.71,1.103l-0.713,1.105l-0.714,1.106l-0.715,1.107l-0.716,1.107l-0.718,1.107l-0.72,1.11l-0.721,1.11l-0.723,1.111l-0.725,1.113l-0.726,1.112l-0.726,1.111l-0.729,1.114l-0.731,1.116l-0.731,1.115l-0.733,1.116l-0.737,1.119l-1.47,2.23l-1.476,2.233l-1.481,2.237l-1.486,2.238l-1.49,2.239l-1.494,2.242l-1.499,2.243l-1.502,2.245l-1.507,2.245l-1.51,2.248l-1.515,2.248l-1.517,2.248l-1.521,2.249l-1.525,2.251l-1.528,2.251l-1.53,2.251l-1.534,2.251l-1.536,2.251l-1.54,2.252l-1.542,2.252l-1.544,2.251l-1.547,2.25l-1.549,2.251l-1.55,2.249l-1.554,2.249l-1.555,2.248l-1.556,2.246l-1.558,2.247l-1.559,2.243l-1.561,2.243l-1.563,2.243l-1.563,2.239l-1.564,2.237l-1.565,2.237l-1.566,2.233l-1.566,2.231l-1.567,2.23l-1.567,2.227l-1.568,2.225l-1.568,2.221l-1.567,2.219l-1.567,2.215l-1.567,2.212l-1.567,2.209l-1.566,2.206l-1.566,2.203l-1.565,2.199l-1.563,2.194l-1.564,2.192l-1.561,2.187l-1.561,2.182l-1.558,2.178l-1.558,2.175l-1.556,2.17l-1.554,2.164l-1.552,2.16l-1.551,2.155l-1.548,2.15l-1.545,2.144l-1.544,2.14l-1.54,2.134l-1.539,2.128l-1.536,2.123l-1.532,2.116l-1.529,2.111l-1.527,2.104l-1.522,2.098l-1.52,2.093l-1.517,2.085l-1.512,2.078l-1.509,2.072l-1.505,2.065l-1.5,2.057l-1.497,2.051l-1.493,2.044l-1.488,2.036l-1.483,2.028l-1.479,2.021l-1.474,2.012l-1.47,2.006l-2.922,3.984l-2.902,3.951l-2.88,3.917l-2.857,3.881l-2.832,3.845l-2.808,3.807l-2.781,3.768l-2.754,3.728l-2.726,3.687l-2.697,3.645l-2.667,3.602l-2.635,3.558l-2.603,3.512l-2.57,3.467l-5.036,6.789l-9.629,12.976l-4.577,6.171l-2.224,3.001l-2.268,3.06l-2.223,2.892l-2.091,2.724l-1.027,1.34l-1.017,1.326l-1.004,1.312l-0.995,1.302l-0.983,1.288l-0.97,1.272l-0.961,1.263l-0.951,1.251l-0.937,1.234l-0.927,1.223l-0.917,1.213l-0.904,1.198l-0.893,1.186l-0.883,1.175l-0.872,1.162l-0.86,1.15l-0.85,1.139l-0.839,1.128l-0.828,1.115l-0.815,1.102l-0.806,1.093l-0.795,1.082l-0.783,1.069l-0.772,1.058l-0.762,1.047l-0.751,1.037l-0.74,1.027l-0.73,1.016l-0.717,1.003l-0.707,0.993l-0.697,0.984l-0.688,0.976l-0.337,0.481l-0.336,0.479l-0.333,0.478l-0.331,0.474l-0.325,0.47l-0.326,0.47l-0.325,0.471l-0.321,0.466l-0.316,0.461l-0.313,0.458l-0.312,0.458l-0.308,0.453l-0.305,0.452l-0.308,0.456l-0.301,0.447l-0.296,0.441l-0.297,0.445l-0.293,0.44l-0.29,0.439l-0.288,0.435l-0.285,0.434l-0.283,0.431l-0.278,0.427l-0.277,0.427l-0.275,0.425l-0.273,0.424l-0.269,0.418l-0.265,0.415l-0.265,0.416l-0.26,0.411l-0.258,0.41l-0.258,0.411l-0.253,0.405l-0.248,0.4l-0.251,0.405l-0.246,0.399l-0.241,0.395l-0.24,0.395l-0.239,0.394l-0.234,0.389l-0.234,0.39l-0.229,0.385l-0.227,0.383l-0.226,0.384l-0.22,0.376l-0.221,0.381l-0.217,0.375l-0.214,0.372l-0.211,0.369l-0.21,0.37l-0.207,0.368l-0.204,0.364l-0.202,0.363l-0.198,0.359l-0.197,0.36l-0.195,0.358l-0.192,0.356l-0.188,0.35l-0.186,0.349l-0.185,0.351l-0.183,0.349l-0.179,0.344l-0.175,0.338l-0.175,0.344l-0.172,0.339l-0.169,0.336l-0.167,0.334l-0.163,0.331l-0.165,0.336l-0.16,0.329l-0.156,0.325l-0.156,0.327l-0.151,0.32l-0.149,0.32l-0.152,0.328l-0.145,0.316l-0.14,0.31l-0.143,0.319l-0.139,0.315l-0.135,0.306l-0.134,0.311l-0.133,0.308l-0.13,0.307l-0.126,0.302l-0.124,0.3l-0.124,0.302l-0.12,0.298l-0.119,0.299l-0.117,0.298l-0.113,0.291l-0.111,0.291l-0.111,0.293l-0.107,0.286l-0.105,0.287l-0.104,0.288l-0.101,0.284l-0.1,0.286l-0.097,0.281l-0.094,0.277l-0.094,0.281l-0.092,0.277l-0.089,0.276l-0.088,0.276l-0.084,0.27l-0.083,0.271l-0.082,0.273l-0.079,0.267l-0.077,0.267l-0.077,0.27l-0.073,0.262l-0.072,0.265l-0.071,0.265l-0.068,0.262l-0.066,0.259l-0.064,0.259l-0.064,0.262l-0.061,0.257l-0.059,0.255l-0.058,0.256l-0.056,0.255l-0.054,0.254l-0.053,0.256l-0.051,0.249l-0.049,0.252l-0.048,0.252l-0.046,0.247l-0.044,0.25l-0.043,0.25l-0.041,0.247l-0.039,0.246l-0.039,0.25l-0.036,0.247l-0.035,0.244l-0.033,0.246l-0.032,0.245l-0.031,0.245l-0.028,0.243l-0.028,0.245l-0.025,0.242l-0.024,0.244l-0.024,0.247l-0.021,0.242l-0.02,0.241l-0.018,0.244l-0.017,0.244l-0.016,0.244l-0.013,0.241l-0.013,0.244l-0.011,0.244l-0.01,0.244l-0.008,0.246l-0.007,0.244l-0.005,0.241l-0.004,0.244l-0.003,0.248l-0.001,0.247l0.001,0.245l0.001,0.245l0.004,0.249l0.004,0.246l0.007,0.247l0.007,0.253l0.009,0.25l0.011,0.245l0.012,0.252l0.014,0.255l0.015,0.253l0.016,0.251l0.018,0.254l0.019,0.258l0.021,0.256l0.023,0.257l0.023,0.258l0.026,0.257l0.027,0.262l0.028,0.262l0.03,0.261l0.032,0.265l0.033,0.266l0.035,0.267l0.036,0.266l0.038,0.268l0.039,0.27l0.124,0.817l0.068,0.785l0.021,0.226l0.022,0.227l0.025,0.229l0.025,0.224l0.027,0.234l0.029,0.235l0.03,0.229l0.032,0.234l0.033,0.235l0.036,0.238l0.036,0.237l0.038,0.234l0.04,0.242l0.042,0.24l0.043,0.241l0.044,0.242l0.046,0.241l0.048,0.244l0.05,0.247l0.052,0.246l0.051,0.242l0.055,0.247l0.056,0.251l0.058,0.246l0.059,0.25l0.062,0.253l0.062,0.251l0.064,0.25l0.065,0.249l0.068,0.254l0.069,0.253l0.071,0.254l0.072,0.256l0.074,0.252l0.075,0.256l0.079,0.259l0.077,0.252l0.08,0.255l0.084,0.263l0.084,0.258l0.084,0.254l0.087,0.259l0.09,0.262l0.09,0.258l0.09,0.254l0.095,0.263l0.095,0.261l0.097,0.261l0.099,0.262l0.098,0.256l0.102,0.261l0.103,0.261l0.106,0.263l0.106,0.259l0.108,0.263l0.11,0.263l0.11,0.258l0.114,0.264l0.114,0.26l0.116,0.263l0.118,0.263l0.118,0.258l0.121,0.263l0.122,0.261l0.123,0.259l0.127,0.265l0.126,0.259l0.126,0.256l0.134,0.267l0.132,0.262l0.131,0.256l0.136,0.263l0.135,0.258l0.137,0.259l0.139,0.258l0.142,0.262l0.142,0.258l0.144,0.258l0.147,0.262l0.144,0.253l0.149,0.259l0.149,0.255l0.151,0.257l0.156,0.26l0.152,0.254l0.154,0.252l0.157,0.255l0.161,0.257l0.159,0.253l0.159,0.249l0.165,0.256l0.164,0.252l0.164,0.248l0.171,0.257l0.169,0.25l0.166,0.245l0.173,0.251l0.171,0.246l0.176,0.25l0.177,0.248l0.172,0.24l0.181,0.25l0.181,0.246l0.18,0.243l0.183,0.244l0.183,0.241l0.185,0.241l0.186,0.24l0.188,0.24l0.19,0.24l0.19,0.239l0.19,0.234l0.194,0.238l0.194,0.236l0.194,0.232l0.2,0.238l0.2,0.234l0.197,0.229l0.201,0.23l0.2,0.229l0.201,0.226l0.209,0.232l0.206,0.227l0.207,0.225l0.208,0.225l0.205,0.219l0.211,0.222l0.218,0.228l0.209,0.217l0.212,0.216l0.218,0.22l0.218,0.218l0.22,0.218l0.217,0.213l0.219,0.211l0.218,0.21l0.222,0.209l0.229,0.215l0.223,0.207l0.22,0.202l0.234,0.211l0.227,0.204l0.23,0.203l0.232,0.204l0.227,0.197l0.234,0.2l0.231,0.196l0.238,0.199l0.238,0.197l0.233,0.191l0.235,0.19l0.238,0.19l0.246,0.194l0.245,0.192l0.241,0.185l0.238,0.182l0.244,0.183l0.244,0.182l0.247,0.182l0.255,0.185l0.245,0.175l0.244,0.173l0.253,0.177l0.255,0.176l0.255,0.174l0.25,0.168l0.251,0.167l0.254,0.166l0.262,0.169l0.255,0.164l0.258,0.162l0.266,0.165l0.259,0.159l0.255,0.155l0.264,0.157l0.263,0.155l0.266,0.154l0.268,0.153l0.26,0.147l0.27,0.15l0.272,0.149l0.266,0.143l0.266,0.141l0.277,0.145l0.269,0.138l0.27,0.138l0.281,0.14l0.274,0.134l0.275,0.133l0.277,0.132l0.279,0.13l0.279,0.129l0.274,0.123l0.281,0.125l0.284,0.124l0.286,0.123l0.279,0.117l0.281,0.116l0.297,0.121l0.283,0.113l0.277,0.108l0.294,0.112l0.296,0.111l0.289,0.107l0.29,0.105l0.284,0.1l0.293,0.101l0.303,0.102l0.297,0.098l0.291,0.094l0.299,0.095l0.301,0.093l0.294,0.088l0.304,0.089l0.297,0.086l0.307,0.085l0.301,0.082l0.302,0.08l0.312,0.08l0.305,0.076l0.306,0.075l0.308,0.072l0.31,0.071l0.311,0.069l0.314,0.067l0.305,0.063l0.317,0.063l0.326,0.063l0.311,0.058l0.312,0.055l0.342,0.059l0.139,0.023l0.158,0.025l0.159,0.026l0.159,0.024l0.176,0.027l0.16,0.024l0.143,0.02l0.161,0.023l0.178,0.024l0.162,0.022l0.162,0.021l0.162,0.021l0.162,0.02l0.164,0.02l0.163,0.019l0.164,0.018l0.147,0.016l0.348,0.037l0.148,0.014l0.184,0.017l0.167,0.016l0.167,0.015l0.168,0.014l0.15,0.012l0.169,0.013l0.186,0.014l0.17,0.012l0.152,0.011l0.17,0.01l0.171,0.011l0.171,0.01l0.172,0.009l0.154,0.008l0.173,0.007l0.19,0.009l0.174,0.007l0.156,0.005l0.175,0.006l0.174,0.005l0.158,0.004l0.176,0.004l0.176,0.004l0.177,0.002l0.177,0.003l0.161,0.001l0.177,0.001l0.179,0l0.179,0l0.179,-0.001l0.163,-0.001l0.181,-0.003l0.18,-0.002l0.182,-0.004l0.165,-0.003l0.182,-0.005l0.183,-0.005l0.166,-0.006l0.201,-0.007l0.184,-0.007l0.168,-0.007l0.186,-0.009l0.185,-0.008l0.17,-0.009l0.187,-0.011l0.188,-0.011l0.376,-0.023l0.371,-0.026l0.381,-0.028l0.375,-0.031l0.385,-0.034l0.379,-0.036l0.39,-0.039l0.393,-0.041l0.386,-0.043l0.389,-0.046l0.399,-0.05l0.402,-0.052l0.404,-0.054l0.407,-0.057l0.401,-0.059l0.412,-0.062l0.414,-0.065l0.416,-0.068l0.42,-0.071l0.421,-0.073l0.424,-0.075l0.427,-0.079l0.429,-0.081l0.432,-0.083l0.435,-0.087l0.444,-0.09l0.44,-0.092l0.443,-0.094l0.452,-0.099l0.448,-0.1l0.45,-0.102l0.454,-0.105l0.463,-0.11l0.458,-0.11l0.462,-0.114l0.478,-0.119l0.467,-0.119l0.47,-0.122l0.486,-0.127l0.475,-0.127l0.478,-0.13l0.488,-0.133l0.49,-0.137l0.493,-0.14l0.496,-0.142l0.499,-0.145l0.495,-0.145l0.504,-0.151l0.514,-0.155l0.509,-0.155l0.507,-0.157l0.516,-0.161l0.518,-0.164l0.527,-0.169l0.525,-0.169l0.528,-0.172l0.535,-0.176l0.527,-0.176l0.542,-0.182l0.54,-0.182l0.541,-0.186l0.55,-0.19l0.553,-0.192l0.552,-0.193l0.553,-0.197l0.563,-0.2l0.565,-0.203l0.562,-0.204l0.566,-0.207l0.579,-0.213l0.572,-0.211l0.58,-0.217l0.583,-0.218l0.581,-0.22l0.594,-0.226l0.593,-0.226l0.589,-0.227l0.599,-0.232l0.601,-0.234l0.604,-0.237l0.608,-0.24l0.611,-0.242l0.613,-0.244l0.622,-0.249l0.62,-0.249l0.623,-0.252l0.626,-0.254l0.629,-0.258l0.638,-0.261l0.635,-0.262l0.644,-0.266l0.642,-0.266l0.646,-0.27l0.653,-0.273l0.651,-0.274l0.66,-0.279l0.662,-0.28l0.662,-0.282l0.669,-0.286l0.673,-0.287l0.671,-0.289l0.679,-0.293l0.683,-0.294l0.681,-0.296l0.689,-0.3l0.697,-0.304l0.695,-0.304l0.695,-0.305l0.698,-0.307l1.421,-0.628l1.431,-0.634l1.442,-0.643l1.456,-0.652l1.473,-0.663l1.488,-0.671l1.502,-0.681l1.516,-0.688l1.528,-0.697l1.546,-0.707l1.563,-0.716l1.575,-0.723l1.59,-0.731l1.606,-0.741l1.622,-0.749l1.636,-0.757l1.65,-0.764l3.354,-1.557l3.414,-1.586l7.022,-3.267l3.608,-1.678l3.676,-1.709l3.741,-1.736l1.897,-0.879l1.914,-0.886l1.933,-0.894l1.948,-0.899l1.965,-0.906l1.984,-0.914l2.002,-0.92l2.021,-0.927l2.036,-0.932l2.053,-0.938l2.075,-0.947l2.092,-0.951l2.109,-0.958l2.13,-0.964l2.146,-0.97l2.165,-0.976l2.186,-0.982l2.203,-0.987l2.223,-0.993l2.24,-0.999l2.261,-1.005l2.282,-1.01l2.297,-1.014l1.161,-0.512l1.161,-0.51l1.165,-0.512l1.175,-0.515l1.178,-0.515l1.18,-0.515l1.187,-0.518l1.192,-0.519l1.198,-0.52l1.201,-0.521l1.208,-0.523l1.212,-0.524l1.216,-0.525l1.225,-0.527l1.228,-0.527l1.229,-0.528l1.237,-0.53l1.245,-0.532l1.25,-0.533l1.252,-0.532l1.258,-0.535l1.263,-0.535l1.27,-0.538l1.275,-0.538l1.276,-0.538l1.286,-0.541l1.291,-0.542l1.294,-0.542l1.301,-0.544l1.251,-0.522l1.227,-0.521l1.286,-0.546l1.293,-0.548l1.3,-0.55l1.302,-0.549l1.308,-0.551l1.312,-0.552l1.316,-0.553l1.324,-0.555l1.326,-0.555l1.33,-0.557l1.338,-0.558l1.341,-0.559l1.346,-0.559l1.349,-0.56l1.352,-0.561l1.362,-0.564l1.363,-0.564l1.367,-0.564l1.372,-0.565l1.376,-0.567l1.382,-0.568l2.77,-1.136l2.789,-1.141l2.804,-1.144l2.82,-1.147l2.835,-1.15l2.849,-1.153l2.864,-1.156l2.878,-1.159l2.892,-1.161l2.903,-1.163l2.916,-1.166l2.929,-1.168l2.942,-1.171l2.953,-1.173l2.963,-1.173l2.975,-1.176l2.985,-1.178l2.994,-1.178l3.006,-1.181l3.014,-1.181l3.022,-1.183l3.032,-1.183l3.04,-1.185l3.047,-1.185l3.054,-1.185l3.061,-1.187l3.068,-1.186l3.074,-1.187l3.081,-1.187l3.085,-1.187l3.091,-1.187l3.095,-1.187l3.099,-1.186l3.104,-1.186l3.106,-1.184l3.11,-1.185l3.113,-1.183l3.114,-1.183l3.118,-1.181l3.117,-1.18l3.119,-1.179l3.122,-1.178l3.12,-1.175l3.121,-1.174l3.121,-1.172l3.118,-1.17l3.118,-1.168l3.118,-1.166l3.115,-1.163l3.112,-1.161l3.11,-1.158l3.107,-1.156l3.103,-1.152l3.1,-1.15l3.095,-1.147l3.09,-1.143l3.086,-1.14l3.081,-1.137l3.074,-1.133l3.068,-1.129l3.061,-1.125l3.056,-1.122l3.047,-1.117l3.039,-1.112l3.031,-1.109l3.023,-1.104l3.014,-1.1l3.005,-1.095l2.996,-1.09l2.984,-1.085l2.974,-1.08l2.965,-1.075l2.952,-1.069l2.94,-1.064l2.93,-1.058l2.916,-1.052l2.903,-1.047l2.891,-1.041l2.877,-1.035l2.864,-1.028l2.848,-1.022l2.834,-1.016l2.819,-1.009l2.804,-1.002l2.788,-0.996l2.771,-0.988l2.754,-0.981l2.738,-0.974l2.72,-0.967l2.702,-0.96l2.685,-0.952l2.666,-0.944l2.646,-0.936l2.628,-0.928l2.607,-0.92l2.587,-0.912l2.568,-0.904l2.546,-0.895l2.525,-0.886l2.503,-0.878l2.481,-0.869l2.459,-0.86l2.435,-0.851l2.413,-0.841l2.389,-0.833l2.365,-0.823l2.34,-0.813l2.316,-0.804l2.293,-0.794l2.265,-0.784l2.239,-0.773l2.213,-0.764l2.185,-0.753l2.161,-0.744l2.132,-0.732l2.103,-0.721l2.013,-0.689l1.931,-0.678l1.964,-0.689l3.841,-1.345l3.729,-1.302l3.618,-1.261l3.509,-1.222l3.405,-1.182l3.298,-1.144l3.195,-1.108l6.086,-2.107l5.695,-1.972l2.702,-0.936l2.611,-0.907l2.519,-0.876l2.427,-0.846l2.342,-0.82l1.132,-0.397l1.117,-0.393l1.096,-0.387l1.07,-0.378l1.051,-0.373l1.032,-0.367l1.009,-0.36l0.991,-0.355l0.969,-0.348l0.947,-0.342l0.929,-0.337l0.908,-0.331l0.89,-0.325l0.872,-0.322l0.848,-0.313l0.83,-0.31l0.817,-0.306l0.789,-0.297l0.772,-0.294l0.759,-0.291l0.739,-0.285l0.719,-0.28l0.699,-0.274l0.684,-0.271l0.663,-0.265l0.647,-0.262l0.628,-0.257l0.614,-0.253l0.603,-0.252l0.274,-0.116l0.29,-0.123l0.286,-0.122l0.283,-0.121l0.269,-0.117l0.266,-0.116l0.273,-0.119l0.259,-0.114l0.254,-0.113l0.252,-0.113l0.248,-0.112l0.244,-0.111l0.242,-0.111l0.228,-0.105l0.235,-0.11l0.242,-0.113l0.216,-0.102l0.214,-0.102l0.223,-0.107l0.207,-0.1l0.203,-0.1l0.212,-0.105l0.198,-0.098l0.196,-0.099l0.191,-0.096l0.187,-0.096l0.186,-0.096l0.184,-0.097l0.178,-0.094l0.175,-0.093l0.175,-0.094l0.159,-0.086l0.156,-0.086l0.165,-0.092l0.15,-0.084l0.148,-0.084l0.158,-0.091l0.142,-0.082l0.139,-0.082l0.138,-0.081l0.146,-0.088l0.133,-0.081l0.116,-0.071l0.116,-0.072l0.127,-0.08l0.132,-0.085l0.109,-0.069l0.107,-0.071l0.117,-0.077l0.103,-0.069l0.098,-0.067l0.11,-0.075l0.099,-0.069l0.094,-0.066l0.091,-0.065l0.093,-0.068l0.088,-0.064l0.076,-0.056l0.09,-0.068l0.094,-0.072l0.071,-0.055l0.073,-0.057l0.082,-0.066l0.078,-0.063l0.069,-0.056l0.067,-0.056l0.065,-0.054l0.066,-0.056l0.075,-0.065l0.066,-0.058l0.063,-0.056l0.05,-0.045l0.064,-0.059l0.063,-0.059l0.059,-0.055l0.063,-0.06l0.053,-0.051l0.05,-0.049l0.061,-0.061l0.063,-0.063l0.041,-0.043l0.051,-0.053l0.062,-0.066l0.055,-0.057l0.053,-0.059l0.053,-0.057l0.055,-0.062l0.054,-0.061l0.056,-0.064l0.05,-0.057l0.046,-0.055l0.069,-0.082l0.051,-0.061l0.048,-0.059l0.062,-0.076l0.053,-0.067l0.056,-0.071l0.055,-0.071l0.056,-0.073l0.06,-0.079l0.058,-0.078l0.061,-0.081l0.063,-0.087l0.053,-0.074l0.066,-0.092l0.066,-0.092l0.059,-0.085l0.068,-0.099l0.068,-0.1l0.065,-0.095l0.059,-0.088l0.071,-0.108l0.076,-0.116l0.065,-0.099l0.071,-0.11l0.073,-0.115l0.072,-0.114l0.076,-0.121l0.071,-0.115l0.069,-0.113l0.168,-0.276l0.158,-0.263l0.164,-0.278l0.17,-0.292l0.178,-0.309l0.072,-0.128l0.077,-0.135l0.078,-0.141l0.078,-0.14l0.076,-0.139l0.076,-0.141l0.077,-0.143l0.074,-0.139l0.077,-0.145l0.078,-0.151l0.074,-0.143l0.073,-0.142l0.076,-0.151l0.077,-0.154l0.073,-0.149l0.073,-0.149l0.073,-0.151l0.073,-0.154l0.075,-0.159l0.073,-0.156l0.071,-0.155l0.072,-0.157l0.073,-0.163l0.073,-0.165l0.068,-0.157l0.07,-0.161l0.072,-0.17l0.071,-0.167l0.068,-0.166l0.069,-0.169l0.072,-0.177l0.069,-0.174l0.065,-0.165l0.068,-0.177l0.068,-0.179l0.065,-0.176l0.067,-0.181l0.066,-0.181l0.064,-0.179l0.066,-0.19l0.064,-0.186l0.062,-0.182l0.064,-0.192l0.063,-0.191l0.062,-0.194l0.061,-0.194l0.06,-0.193l0.061,-0.2l0.06,-0.202l0.059,-0.199l0.058,-0.202l0.057,-0.204l0.057,-0.209l0.057,-0.207l0.054,-0.208l0.056,-0.214l0.054,-0.217l0.053,-0.213l0.052,-0.217l0.052,-0.22l0.051,-0.223l0.05,-0.223l0.049,-0.224l0.049,-0.232l0.048,-0.23l0.046,-0.23l0.046,-0.233l0.045,-0.237l0.044,-0.239l0.043,-0.243l0.042,-0.242l0.041,-0.244l0.04,-0.247l0.039,-0.248l0.038,-0.253l0.036,-0.253l0.036,-0.258l0.035,-0.258l0.033,-0.261l0.033,-0.263l0.031,-0.265l0.03,-0.27l0.029,-0.268l0.027,-0.272l0.026,-0.277l0.025,-0.278l0.024,-0.281l0.022,-0.282l0.021,-0.285l0.02,-0.287l0.018,-0.29l0.017,-0.293l0.016,-0.299l0.014,-0.297l0.012,-0.297l0.011,-0.307l0.01,-0.305l0.008,-0.306l0.006,-0.315l0.005,-0.313l0.003,-0.317l0.001,-0.32l0,-0.321l-0.002,-0.325l-0.003,-0.329l-0.006,-0.332l-0.007,-0.331l-0.008,-0.335l-0.011,-0.341l-0.013,-0.344l-0.014,-0.343l-0.016,-0.347l-0.019,-0.352l-0.02,-0.354l-0.022,-0.358l-0.024,-0.357l-0.026,-0.361l-0.028,-0.367l-0.03,-0.37l-0.033,-0.37l-0.034,-0.375l-0.037,-0.378l-0.038,-0.378l-0.041,-0.384l-0.043,-0.389l-0.046,-0.39l-0.047,-0.391l-0.05,-0.395l-0.053,-0.401l-0.054,-0.403l-0.057,-0.404l-0.06,-0.409l-0.061,-0.411l-0.065,-0.415l-0.066,-0.417l-0.069,-0.42l-0.073,-0.427l-0.074,-0.427l-0.077,-0.43l-0.08,-0.436l-0.082,-0.437l-0.084,-0.439l-0.088,-0.445l-0.089,-0.445l-0.093,-0.45l-0.097,-0.456l-0.098,-0.456l-0.101,-0.46l-0.104,-0.464l-0.108,-0.468l-0.11,-0.472l-0.112,-0.471l-0.115,-0.475l-0.119,-0.482l-0.122,-0.484l-0.125,-0.487l-0.127,-0.49l-0.131,-0.494l-0.134,-0.498l-0.137,-0.501l-0.14,-0.503l-0.143,-0.506l-0.147,-0.513l-0.15,-0.515l-0.152,-0.516l-0.157,-0.522l-0.159,-0.526l-0.163,-0.528l-0.166,-0.532l-0.17,-0.535l-0.172,-0.537l-0.177,-0.543l-0.18,-0.546l-0.183,-0.549l-0.186,-0.553l-0.191,-0.558l-0.193,-0.559l-0.198,-0.563l-0.2,-0.567l-0.204,-0.569l-0.209,-0.576l-0.212,-0.578l-0.215,-0.58l-0.219,-0.585l-0.223,-0.588l-0.227,-0.592l-0.23,-0.597l-0.234,-0.599l-0.238,-0.601l-0.242,-0.607l-0.246,-0.612l-0.25,-0.614l-0.253,-0.617l-0.257,-0.619l-0.262,-0.626l-0.265,-0.627l-0.27,-0.633l-0.274,-0.638l-0.277,-0.638l-0.28,-0.641l-0.286,-0.647l-0.29,-0.651l-0.294,-0.655l-0.299,-0.658l-0.301,-0.659l-0.307,-0.666l-0.311,-0.67l-0.315,-0.673l-0.319,-0.676l-0.324,-0.682l-0.328,-0.685l-0.332,-0.686l-0.336,-0.691l-0.341,-0.695l-0.346,-0.701l-0.349,-0.702l-0.355,-0.706l-0.358,-0.71l-0.363,-0.714l-0.369,-0.719l-0.373,-0.724l-0.376,-0.725l-0.381,-0.727l-0.387,-0.734l-0.39,-0.738l-0.395,-0.74l-0.401,-0.745l-0.405,-0.75l-0.41,-0.753l-0.413,-0.755l-0.419,-0.758l-0.425,-0.768l-0.429,-0.768l-0.433,-0.77l-0.438,-0.777l-0.444,-0.78l-0.448,-0.784l-0.453,-0.787l-0.457,-0.79l-0.464,-0.796l-0.468,-0.801l-0.472,-0.801l-0.479,-0.809l-0.484,-0.813l-0.488,-0.814l-0.492,-0.818l-0.498,-0.822l-0.504,-0.828l-0.509,-0.832l-0.514,-0.835l-0.518,-0.838l-0.524,-0.843l-0.53,-0.848l-0.536,-0.852l-0.539,-0.854l-0.639,-1.007l-0.617,-1.014l-0.53,-0.869l-0.535,-0.872l-0.541,-0.877l-0.547,-0.883l-0.552,-0.888l-0.557,-0.891l-0.561,-0.894l-0.569,-0.901l-0.573,-0.906l-0.577,-0.908l-0.584,-0.913l-0.587,-0.917l-0.593,-0.921l-0.598,-0.925l-0.603,-0.93l-0.608,-0.934l-0.612,-0.936l-0.617,-0.94l-0.623,-0.946l-0.627,-0.949l-0.63,-0.951l-0.637,-0.956l-0.641,-0.961l-0.645,-0.964l-0.65,-0.967l-0.654,-0.969l-0.658,-0.973l-0.664,-0.979l-0.668,-0.98l-0.671,-0.983l-0.677,-0.988l-0.68,-0.99l-0.685,-0.994l-0.689,-0.997l-0.692,-0.999l-0.697,-1.004l-0.702,-1.007l-0.704,-1.007l-0.709,-1.011l-0.713,-1.015l-0.717,-1.018l-0.721,-1.021l-0.725,-1.022l-0.728,-1.026l-0.732,-1.029l-0.736,-1.03l-0.74,-1.034l-0.743,-1.037l-0.747,-1.039l-0.75,-1.04l-0.754,-1.045l-0.757,-1.045l-0.761,-1.048l-0.765,-1.052l-0.766,-1.051l-0.772,-1.056l-0.774,-1.057l-0.777,-1.059l-0.78,-1.06l-0.785,-1.064l-0.787,-1.067l-0.789,-1.065l-0.794,-1.071l-0.797,-1.072l-0.798,-1.071l-0.802,-1.075l-0.806,-1.077l-0.807,-1.078l-0.811,-1.079l-0.813,-1.081l-0.817,-1.083l-0.819,-1.085l-0.822,-1.086l-0.825,-1.089l-0.827,-1.089l-0.829,-1.09l-0.833,-1.092l-0.833,-1.091l-0.838,-1.094l-0.84,-1.096l-0.842,-1.097l-0.844,-1.097l-0.846,-1.099l-0.85,-1.101l-0.851,-1.101l-0.852,-1.1l-0.857,-1.104l-0.857,-1.103l-0.861,-1.105l-0.861,-1.105l-0.864,-1.106l-0.866,-1.108l-0.867,-1.106l-0.87,-1.108l-0.871,-1.109l-0.875,-1.111l-0.874,-1.108l-0.877,-1.111l-0.88,-1.112l-0.879,-1.109l-0.883,-1.112l-0.883,-1.113l-0.885,-1.111l-0.887,-1.114l-0.888,-1.112l-0.889,-1.112l-0.891,-1.112l-0.894,-1.115l-0.894,-1.113l-0.895,-1.113l-0.896,-1.112l-0.898,-1.113l-0.899,-1.114l-0.9,-1.112l-0.9,-1.111l-0.903,-1.113l-0.905,-1.114l-0.904,-1.111l-0.905,-1.111l-0.906,-1.11l-0.907,-1.111l-0.908,-1.111l-0.909,-1.109l-0.911,-1.11l-0.909,-1.107l-0.911,-1.107l-0.913,-1.108l-0.913,-1.107l-0.913,-1.106l-0.913,-1.104l-0.914,-1.103l-0.916,-1.105l-0.915,-1.102l-0.915,-1.101l-0.917,-1.101l-0.916,-1.099l-0.916,-1.097l-0.917,-1.098l-0.918,-1.096l-0.917,-1.095l-0.918,-1.093l-0.918,-1.093l-0.919,-1.092l-0.916,-1.088l-0.918,-1.087l-0.919,-1.089l-0.918,-1.086l-0.917,-1.083l-0.918,-1.082l-0.918,-1.083l-0.916,-1.077l-0.917,-1.077l-0.918,-1.077l-0.916,-1.074l-0.916,-1.072l-0.917,-1.072l-0.914,-1.067l-0.915,-1.067l-0.915,-1.065l-0.913,-1.062l-0.913,-1.061l-0.914,-1.06l-0.911,-1.056l-0.911,-1.054l-0.911,-1.052l-0.91,-1.05l-0.909,-1.049l-0.908,-1.045l-0.908,-1.044l-0.906,-1.041l-0.906,-1.038l-0.905,-1.036l-0.902,-1.033l-0.903,-1.031l-0.902,-1.029l-0.901,-1.026l-0.898,-1.023l-0.898,-1.02l-0.897,-1.019l-0.896,-1.015l-0.893,-1.011l-0.893,-1.01l-0.891,-1.006l-0.89,-1.003l-0.888,-1.001l-0.888,-0.998l-0.886,-0.995l-0.883,-0.991l-0.882,-0.988l-0.881,-0.985l-0.879,-0.982l-0.877,-0.979l-0.875,-0.974l-0.873,-0.972l-0.873,-0.969l-0.87,-0.966l-0.868,-0.962l-0.866,-0.958l-0.863,-0.954l-0.863,-0.952l-0.86,-0.947l-0.857,-0.944l-0.856,-0.94l-0.854,-0.937l-0.852,-0.933l-0.848,-0.928l-0.847,-0.925l-0.846,-0.923l-0.841,-0.917l-0.839,-0.912l-0.839,-0.911l-0.834,-0.905l-0.831,-0.9l-0.831,-0.898l-0.826,-0.892l-0.825,-0.888l-0.823,-0.886l-0.818,-0.88l-0.817,-0.875l-0.814,-0.873l-0.81,-0.866l-0.809,-0.863l-0.804,-0.857l-0.802,-0.853l-0.8,-0.851l-0.796,-0.843l-0.792,-0.839l-0.79,-0.835l-0.788,-0.831l-0.784,-0.826l-0.78,-0.821l-0.776,-0.814l-0.773,-0.81l-0.772,-0.807l-0.768,-0.801l-0.764,-0.796l-0.759,-0.79l-0.758,-0.787l-0.753,-0.78l-0.748,-0.773l-0.748,-0.772l-0.743,-0.765l-0.737,-0.759l-0.736,-0.754l-0.733,-0.751l-0.725,-0.741l-0.724,-0.737l-0.72,-0.733l-0.716,-0.726l-0.713,-0.723l-0.705,-0.713l-0.703,-0.708l-0.702,-0.705l-0.696,-0.699l-0.585,-0.586l-0.604,-0.581l-0.71,-0.681l-0.705,-0.676l-0.7,-0.667l-0.696,-0.663l-0.692,-0.658l-0.688,-0.651l-0.681,-0.644l-0.678,-0.639l-0.677,-0.635l-0.669,-0.628l-0.663,-0.619l-0.661,-0.615l-0.656,-0.61l-0.652,-0.603l-0.65,-0.599l-0.643,-0.591l-0.637,-0.583l-0.634,-0.58l-0.633,-0.575l-0.625,-0.567l-0.622,-0.561l-0.62,-0.558l-0.613,-0.549l-0.608,-0.543l-0.606,-0.539l-0.601,-0.532l-0.596,-0.526l-0.593,-0.521l-0.587,-0.513l-0.584,-0.507l-0.581,-0.504l-0.577,-0.497l-0.57,-0.489l-0.569,-0.486l-0.565,-0.48l-0.557,-0.471l-0.553,-0.465l-0.552,-0.462l-0.548,-0.455l-0.544,-0.45l-0.54,-0.444l-0.532,-0.435l-0.531,-0.432l-0.527,-0.425l-0.523,-0.42l-0.518,-0.414l-0.515,-0.408l-0.506,-0.399l-0.507,-0.396l-0.506,-0.393l-0.497,-0.384l-0.494,-0.378l-0.49,-0.372l-0.484,-0.365l-0.481,-0.36l-0.478,-0.355l-0.473,-0.348l-0.471,-0.345l-0.465,-0.337l-0.46,-0.33l-0.459,-0.327l-0.452,-0.319l-0.448,-0.313l-0.447,-0.309l-0.438,-0.301l-0.434,-0.294l-0.434,-0.292l-0.431,-0.286l-0.422,-0.278l-0.416,-0.271l-0.432,-0.278l-0.2,-0.127l-0.199,-0.127l-0.198,-0.125l-0.205,-0.128l-0.204,-0.128l-0.197,-0.121l-0.202,-0.124l-0.201,-0.124l-0.201,-0.121l-0.189,-0.115l-0.2,-0.119l-0.197,-0.118l-0.185,-0.11l-0.197,-0.116l-0.194,-0.113l-0.181,-0.105l-0.192,-0.111l-0.193,-0.11l-0.179,-0.101l-0.187,-0.106l-0.188,-0.105l-0.186,-0.103l-0.174,-0.096l-0.185,-0.101l-0.184,-0.1l-0.181,-0.098l-0.18,-0.096l-0.17,-0.09l-0.166,-0.087l-0.177,-0.092l-0.188,-0.098l-0.163,-0.083l-0.162,-0.082l-0.186,-0.094l-0.171,-0.085l-0.16,-0.079l-0.169,-0.083l-0.167,-0.081l-0.154,-0.074l-0.167,-0.08l-0.164,-0.077l-0.164,-0.076l-0.163,-0.075l-0.146,-0.067l-0.162,-0.073l-0.158,-0.071l-0.157,-0.07l-0.158,-0.069l-0.142,-0.061l-0.155,-0.066l-0.15,-0.064l-0.153,-0.064l-0.152,-0.063l-0.133,-0.054l-0.149,-0.06l-0.147,-0.058l-0.146,-0.057l-0.144,-0.057l-0.143,-0.054l-0.144,-0.055l-0.124,-0.046l-0.14,-0.051l-0.14,-0.051l-0.137,-0.049l-0.135,-0.047l-0.135,-0.047l-0.136,-0.046l-0.115,-0.039l-0.131,-0.043l-0.131,-0.042l-0.129,-0.042l-0.127,-0.04l-0.126,-0.038l-0.127,-0.039l-0.123,-0.036l-0.124,-0.037l-0.104,-0.029l-0.12,-0.034l-0.12,-0.033l-0.119,-0.032l-0.134,-0.035l-0.098,-0.026l-0.115,-0.028l-0.113,-0.028l-0.113,-0.027l-0.111,-0.027l-0.092,-0.021l-0.127,-0.028l-0.108,-0.023l-0.088,-0.019l-0.105,-0.021l-0.123,-0.025l-0.103,-0.02l-0.084,-0.016l-0.1,-0.018l-0.12,-0.021l-0.099,-0.017l-0.078,-0.013l-0.097,-0.015l-0.096,-0.014l-0.094,-0.014l-0.113,-0.015l-0.073,-0.01l-0.092,-0.012l-0.111,-0.013l-0.069,-0.008l-0.089,-0.01l-0.088,-0.008l-0.086,-0.009l-0.107,-0.009l-0.085,-0.007l-0.063,-0.005l-0.083,-0.006l-0.082,-0.005l-0.082,-0.004l-0.101,-0.006l-0.08,-0.003l-0.079,-0.003l-0.079,-0.003l-0.056,-0.001l-0.076,-0.001l-0.098,-0.001l-0.075,-0.001l-0.075,0.001ZM286.247,1478.08l0.015,0.101l-0.016,-0.11l0.001,0.009ZM286.244,1478.06l0.002,0.014l-0.013,-0.142l0.011,0.128Z" style="fill:#205d76;"/><path d="M807.284,828.042c6.919,-27.678 23.065,-76.115 29.985,-117.632c9.226,-39.211 9.226,-73.809 16.145,-92.261c6.92,-18.453 18.452,-25.372 29.985,-25.372c11.533,0 20.759,4.613 29.985,6.919c9.226,2.307 16.146,0 20.759,-9.226c2.306,-11.532 2.306,-32.291 4.613,-55.356c0,-25.372 4.613,-53.05 13.839,-66.889c9.226,-16.146 25.372,-18.453 43.824,-18.453c18.452,0 36.904,2.307 50.743,18.453c11.533,18.452 13.839,48.437 6.92,76.115c-9.226,27.678 -29.985,53.05 -41.518,78.422c-11.532,23.065 -13.839,46.13 -32.291,62.276c-16.146,16.146 -48.437,23.065 -64.583,29.985c-18.452,9.226 -20.758,16.145 -36.904,41.517c-13.839,25.372 -36.904,69.196 -53.05,87.648c-16.146,18.452 -23.065,11.533 -18.452,-16.146Z" style="fill:#ffc122;"/><path d="M943.369,839.575c34.598,-43.824 96.874,-122.246 140.698,-172.989c43.824,-48.437 71.502,-71.503 87.648,-101.487c18.452,-29.985 27.678,-66.89 41.517,-94.568c16.146,-27.678 36.904,-48.437 55.357,-59.97c16.145,-11.532 29.985,-16.145 41.517,-18.452c11.533,-2.306 25.372,-2.306 20.759,6.92c-4.613,6.919 -25.372,25.372 -43.824,50.743c-16.146,23.066 -29.985,53.05 -48.437,96.874c-20.759,46.131 -46.131,108.407 -76.115,149.925c-29.985,41.517 -64.583,64.582 -99.181,94.567c-36.904,29.985 -73.809,66.889 -101.487,85.341c-27.678,20.759 -48.437,23.066 -55.357,20.759c-6.919,-2.306 2.307,-11.532 36.905,-57.663Z" style="fill:#62d4d4;"/><path d="M1037.94,938.756c62.276,-23.066 186.829,-48.437 269.864,-64.583c83.035,-13.839 124.552,-16.146 143.004,-2.307c18.452,13.84 18.452,46.131 20.759,69.196c2.306,23.065 6.919,39.211 29.985,48.437c20.758,9.226 55.356,13.839 83.035,20.759c29.984,9.226 50.743,23.065 64.582,50.743c13.839,27.679 20.759,69.196 20.759,103.794c0,32.291 -9.226,57.663 -27.678,71.502c-18.452,11.533 -50.744,11.533 -85.342,-6.919c-36.904,-16.146 -80.728,-48.437 -122.246,-71.503c-41.517,-20.758 -83.034,-32.291 -119.939,-32.291c-39.211,0 -71.502,11.533 -103.793,4.613c-32.292,-6.919 -62.277,-29.985 -80.729,-50.743c-20.759,-18.453 -29.985,-32.292 -48.437,-46.131c-16.145,-13.839 -39.211,-27.678 -57.663,-34.598c-20.759,-6.919 -34.598,-4.613 -41.517,-13.839c-6.92,-6.919 -6.92,-23.065 55.356,-46.13Z" style="fill:#ffc122;"/><path d="M1109.44,1157.88c23.066,9.227 62.277,18.453 89.955,16.146c29.985,0 48.437,-11.532 59.97,-4.613c11.532,4.613 16.145,27.678 6.919,41.518c-11.532,16.145 -39.211,25.371 -57.663,23.065c-18.452,-2.307 -27.678,-13.839 -43.824,-20.759c-13.839,-6.919 -36.904,-6.919 -50.743,-20.759c-16.146,-11.532 -25.372,-36.904 -27.679,-43.824c-2.306,-6.919 2.307,0 23.065,9.226Z" style="fill:#ffc122;"/><path d="M1031.02,885.706c23.065,-18.453 133.778,-89.955 209.893,-147.618c76.116,-55.357 115.327,-96.874 143.005,-122.246c27.678,-27.678 41.517,-39.211 76.115,-46.13c34.598,-6.92 89.955,-9.226 101.487,2.306c11.533,11.533 -20.758,36.905 -46.13,55.357c-25.372,20.758 -43.824,32.291 -64.583,39.211c-20.759,9.226 -41.517,13.839 -92.261,43.824c-50.743,27.678 -131.472,78.422 -207.587,122.245c-73.809,41.518 -143.005,73.809 -119.939,53.051Z" style="fill:#ffa09e;"/></g></svg>