<?xml version="1.0" standalone="no"?><!DOCTYPE svg PUBLIC "-//W3C//DTD SVG 1.1//EN" "http://www.w3.org/Graphics/SVG/1.1/DTD/svg11.dtd"><svg width="100%" height="100%" viewBox="0 0 1963 1963" version="1.1" xmlns="http://www.w3.org/2000/svg" xmlns:xlink="http://www.w3.org/1999/xlink" xml:space="preserve" style="fill-rule:evenodd;clip-rule:evenodd;stroke-linejoin:round;stroke-miterlimit:1.41421;"><g id="_874970704_"><path d="M1269.49,777.18l-3.874,3.337l-3.869,3.335l-3.866,3.336l-3.867,3.336l-7.732,6.677l-7.734,6.678l-3.869,3.339l-3.871,3.341l-3.875,3.342l-3.877,3.342l-3.881,3.343l-3.885,3.344l-3.89,3.343l-1.947,1.673l-1.949,1.673l-1.95,1.673l-1.952,1.673l-1.952,1.672l-1.955,1.674l-1.956,1.673l-1.96,1.675l-1.96,1.673l-1.961,1.673l-1.964,1.675l-1.966,1.674l-1.969,1.675l-1.971,1.675l-1.971,1.673l-1.975,1.675l-1.977,1.676l-1.981,1.675l-1.982,1.676l-1.984,1.675l-1.988,1.675l-1.989,1.676l-1.994,1.677l-1.996,1.676l-1.998,1.675l-2.002,1.677l-2.004,1.676l-2.008,1.678l-2.012,1.677l-2.013,1.676l-2.017,1.677l-2.021,1.678l-2.025,1.678l-2.027,1.677l-2.031,1.677l-2.034,1.678l-2.039,1.678l-2.044,1.679l-2.046,1.678l-2.049,1.678l-2.053,1.678l-2.058,1.679l-2.063,1.68l-2.066,1.678l-2.07,1.679l-2.074,1.679l-2.079,1.679l-2.084,1.681l-2.088,1.678l-2.091,1.679l-2.097,1.681l-2.101,1.679l-2.107,1.681l-2.112,1.68l-2.114,1.679l-2.12,1.68l-1.063,0.841l-1.064,0.84l-1.065,0.84l-1.066,0.841l-1.069,0.841l-1.066,0.839l-1.07,0.84l-1.071,0.84l-1.072,0.841l-1.076,0.842l-1.073,0.839l-1.076,0.84l-1.079,0.841l-1.08,0.842l-1.082,0.841l-1.079,0.838l-1.083,0.841l-1.085,0.841l-1.087,0.841l-1.088,0.841l-1.088,0.84l-1.089,0.84l-1.092,0.841l-1.094,0.841l-1.095,0.841l-1.094,0.84l-1.098,0.841l-1.099,0.841l-1.1,0.841l-1.104,0.842l-1.101,0.839l-1.105,0.841l-1.107,0.841l-1.107,0.841l-1.111,0.842l-1.109,0.839l-1.112,0.842l-1.114,0.84l-1.116,0.842l-1.119,0.842l-1.116,0.839l-1.121,0.842l-1.122,0.841l-1.123,0.841l-1.126,0.842l-1.125,0.84l-1.129,0.842l-1.129,0.84l-1.132,0.842l-1.135,0.843l-1.133,0.839l-1.135,0.841l-1.138,0.841l-1.14,0.842l-1.144,0.843l-1.141,0.839l-1.144,0.841l-1.147,0.841l-1.148,0.842l-1.151,0.843l-1.15,0.84l-1.154,0.841l-1.155,0.841l-1.156,0.842l-1.162,0.843l-1.159,0.84l-1.16,0.841l-1.164,0.841l-1.166,0.842l-1.171,0.843l-1.167,0.84l-1.169,0.841l-1.174,0.841l-1.176,0.843l-1.177,0.842l-1.178,0.841l-1.18,0.841l-1.181,0.841l-1.185,0.842l-1.188,0.843l-1.186,0.84l-1.19,0.842l-1.19,0.84l-1.295,0.914l-1.301,0.885l-1.197,0.814l-1.199,0.814l-1.204,0.816l-1.204,0.814l-1.204,0.812l-1.208,0.815l-1.211,0.814l-1.211,0.813l-1.213,0.813l-1.216,0.814l-1.218,0.813l-1.216,0.811l-1.22,0.812l-1.222,0.812l-1.224,0.811l-1.226,0.812l-1.227,0.811l-1.228,0.81l-1.23,0.811l-1.234,0.811l-1.234,0.81l-1.234,0.809l-1.237,0.81l-1.24,0.809l-1.239,0.809l-1.244,0.81l-1.243,0.808l-1.244,0.808l-1.249,0.809l-1.249,0.808l-1.248,0.806l-1.252,0.808l-1.253,0.807l-1.256,0.808l-1.258,0.808l-1.256,0.804l-1.26,0.807l-1.263,0.808l-1.262,0.805l-1.264,0.805l-1.265,0.805l-1.268,0.806l-1.269,0.805l-1.272,0.805l-1.272,0.805l-1.271,0.803l-1.277,0.805l-1.278,0.805l-1.275,0.802l-1.279,0.804l-1.283,0.804l-1.281,0.802l-1.284,0.804l-1.286,0.803l-1.287,0.802l-1.287,0.802l-1.289,0.802l-1.294,0.804l-1.292,0.801l-1.292,0.8l-1.294,0.801l-1.298,0.802l-1.298,0.801l-1.298,0.8l-1.301,0.801l-1.303,0.801l-1.302,0.799l-1.306,0.801l-1.306,0.8l-1.306,0.798l-1.307,0.799l-1.312,0.8l-1.311,0.799l-1.314,0.8l-1.315,0.799l-1.314,0.798l-1.315,0.797l-1.319,0.799l-1.319,0.798l-1.319,0.797l-1.322,0.798l-1.321,0.796l-1.323,0.798l-1.329,0.799l-1.327,0.797l-1.326,0.795l-1.327,0.796l-1.33,0.796l-1.334,0.798l-2.664,1.591l-2.671,1.592l-2.676,1.59l-2.678,1.589l-2.684,1.59l-2.689,1.589l-2.693,1.588l-2.698,1.587l-2.701,1.586l-2.705,1.586l-2.711,1.587l-2.714,1.584l-2.717,1.585l-2.724,1.584l-2.726,1.583l-2.728,1.582l-2.734,1.582l-2.736,1.582l-2.742,1.581l-2.745,1.581l-2.748,1.58l-2.752,1.579l-2.754,1.579l-2.759,1.579l-2.761,1.578l-2.765,1.577l-2.768,1.577l-2.772,1.577l-2.775,1.577l-2.777,1.575l-2.781,1.575l-2.783,1.574l-2.786,1.575l-2.79,1.574l-2.79,1.573l-2.795,1.573l-2.797,1.573l-2.8,1.573l-2.803,1.572l-2.803,1.571l-2.807,1.571l-2.811,1.571l-2.811,1.57l-2.813,1.571l-2.817,1.569l-2.817,1.57l-2.822,1.569l-2.82,1.568l-2.824,1.569l-2.826,1.568l-2.827,1.567l-2.831,1.569l-2.831,1.567l-2.832,1.566l-2.834,1.567l-2.836,1.566l-2.837,1.566l-2.839,1.566l-2.84,1.566l-2.841,1.565l-2.843,1.566l-5.687,3.129l-5.692,3.129l-5.697,3.128l-5.699,3.127l-5.702,3.126l-5.703,3.126l-5.706,3.125l-5.708,3.125l-5.708,3.124l-11.416,6.248l-15.315,-27.988l11.415,-6.246l5.705,-3.123l5.703,-3.122l5.7,-3.123l5.698,-3.122l5.694,-3.123l5.691,-3.122l5.685,-3.122l5.681,-3.123l5.677,-3.123l2.835,-1.561l2.834,-1.562l2.832,-1.561l2.832,-1.562l2.83,-1.562l2.827,-1.561l2.825,-1.562l2.825,-1.563l2.822,-1.562l2.819,-1.561l2.819,-1.564l2.815,-1.562l2.814,-1.563l2.812,-1.563l2.808,-1.562l2.807,-1.563l2.805,-1.564l2.801,-1.563l2.8,-1.564l2.796,-1.563l2.794,-1.565l2.794,-1.565l2.788,-1.563l2.785,-1.565l2.783,-1.564l2.78,-1.566l2.778,-1.566l2.774,-1.564l2.77,-1.566l2.769,-1.566l2.764,-1.567l2.762,-1.566l2.757,-1.566l2.754,-1.567l2.751,-1.568l2.747,-1.567l2.744,-1.568l2.741,-1.568l2.737,-1.569l2.732,-1.568l2.728,-1.569l2.725,-1.569l2.721,-1.569l2.717,-1.571l2.713,-1.57l2.71,-1.571l2.705,-1.57l2.699,-1.571l2.697,-1.572l2.691,-1.572l2.686,-1.571l2.683,-1.574l2.679,-1.573l2.674,-1.573l2.668,-1.574l2.664,-1.574l2.659,-1.574l2.656,-1.576l2.649,-1.575l2.644,-1.575l2.641,-1.577l1.316,-0.787l1.316,-0.789l1.316,-0.789l1.317,-0.79l1.312,-0.788l1.308,-0.786l1.31,-0.79l1.31,-0.789l1.307,-0.789l1.307,-0.79l1.305,-0.789l1.302,-0.789l1.303,-0.791l1.303,-0.79l1.298,-0.789l1.296,-0.789l1.296,-0.79l1.295,-0.789l1.294,-0.791l1.294,-0.792l1.29,-0.79l1.289,-0.79l1.289,-0.791l1.285,-0.79l1.284,-0.791l1.286,-0.792l1.281,-0.791l1.28,-0.791l1.28,-0.792l1.279,-0.792l1.276,-0.791l1.273,-0.791l1.273,-0.792l1.273,-0.793l1.269,-0.791l1.268,-0.792l1.267,-0.793l1.267,-0.793l1.262,-0.792l1.262,-0.792l1.264,-0.795l1.258,-0.792l1.256,-0.793l1.257,-0.794l1.255,-0.793l1.251,-0.793l1.251,-0.794l1.25,-0.794l1.248,-0.794l1.247,-0.795l1.245,-0.794l1.241,-0.793l1.241,-0.795l1.242,-0.796l1.236,-0.793l1.237,-0.796l1.233,-0.794l1.233,-0.796l1.234,-0.796l1.229,-0.795l1.225,-0.795l1.227,-0.796l1.225,-0.797l1.221,-0.794l1.221,-0.797l1.219,-0.796l1.217,-0.797l1.217,-0.797l1.213,-0.797l1.21,-0.796l1.21,-0.797l1.209,-0.798l1.207,-0.797l1.203,-0.797l1.203,-0.798l1.201,-0.797l1.199,-0.798l1.199,-0.8l1.194,-0.797l1.192,-0.798l1.192,-0.798l1.19,-0.8l1.187,-0.798l1.185,-0.798l1.186,-0.801l1.183,-0.8l1.178,-0.798l1.179,-0.8l1.178,-0.801l1.071,-0.729l1.073,-0.757l1.172,-0.828l1.172,-0.829l1.17,-0.828l1.164,-0.826l1.164,-0.828l1.163,-0.828l1.162,-0.829l1.161,-0.828l1.156,-0.827l1.155,-0.827l1.153,-0.827l1.154,-0.83l1.153,-0.829l1.146,-0.826l1.146,-0.827l1.145,-0.828l1.145,-0.829l1.144,-0.83l1.137,-0.825l1.139,-0.829l1.136,-0.827l1.135,-0.829l1.135,-0.829l1.13,-0.826l1.13,-0.828l1.128,-0.828l1.128,-0.829l1.127,-0.829l1.121,-0.827l1.122,-0.828l1.119,-0.827l1.12,-0.829l1.119,-0.83l1.114,-0.826l1.113,-0.828l1.113,-0.829l1.11,-0.828l1.111,-0.829l1.106,-0.827l1.107,-0.829l1.105,-0.828l1.102,-0.828l1.104,-0.83l1.099,-0.827l1.097,-0.828l1.098,-0.828l1.096,-0.829l1.096,-0.83l1.091,-0.827l1.091,-0.828l1.09,-0.829l1.089,-0.828l1.089,-0.83l1.083,-0.827l1.085,-0.828l1.082,-0.829l1.081,-0.828l1.082,-0.83l1.077,-0.828l1.078,-0.828l1.075,-0.828l1.076,-0.83l1.074,-0.83l1.071,-0.827l1.07,-0.829l1.069,-0.828l1.068,-0.829l1.07,-0.831l1.064,-0.828l1.063,-0.828l1.062,-0.828l1.062,-0.83l1.063,-0.83l1.056,-0.826l1.058,-0.83l1.057,-0.829l1.056,-0.829l1.056,-0.831l1.051,-0.827l1.052,-0.83l1.051,-0.829l1.049,-0.829l1.047,-0.828l2.094,-1.659l2.09,-1.66l2.084,-1.658l2.079,-1.658l2.075,-1.659l2.071,-1.659l2.067,-1.66l2.063,-1.659l2.057,-1.658l2.054,-1.66l2.051,-1.66l2.047,-1.66l2.042,-1.659l2.038,-1.659l2.035,-1.66l2.032,-1.661l2.029,-1.661l2.024,-1.66l2.02,-1.66l2.017,-1.66l2.014,-1.661l2.012,-1.662l2.008,-1.661l2.004,-1.661l2.001,-1.661l1.998,-1.662l1.997,-1.662l1.993,-1.661l1.989,-1.662l1.988,-1.662l1.984,-1.662l1.983,-1.664l1.98,-1.662l1.975,-1.662l1.975,-1.663l1.973,-1.663l1.971,-1.664l1.968,-1.663l1.965,-1.663l1.964,-1.663l1.961,-1.664l1.962,-1.665l1.957,-1.664l1.955,-1.663l1.955,-1.665l1.953,-1.665l1.952,-1.665l1.95,-1.665l1.947,-1.664l1.947,-1.666l1.946,-1.665l1.945,-1.666l1.943,-1.666l1.941,-1.665l1.941,-1.666l1.939,-1.666l3.878,-3.334l3.874,-3.333l3.872,-3.335l3.869,-3.335l3.867,-3.336l3.866,-3.337l3.867,-3.337l7.732,-6.676l7.736,-6.68l3.871,-3.34l3.873,-3.342l3.878,-3.342l3.877,-3.34l20.823,24.171Z" style="fill:#205d76;"/><path d="M793.099,795.427l3.661,3.235l3.658,3.233l3.654,3.233l3.65,3.23l3.647,3.229l7.283,6.45l7.271,6.44l3.631,3.216l3.628,3.211l3.625,3.208l3.622,3.204l3.621,3.2l3.617,3.196l3.615,3.189l3.613,3.186l3.611,3.181l1.805,1.587l1.804,1.587l1.803,1.584l1.803,1.583l1.804,1.584l1.802,1.581l1.801,1.578l1.801,1.576l1.802,1.577l1.8,1.573l1.8,1.572l1.8,1.571l1.799,1.568l1.8,1.567l1.799,1.565l1.798,1.563l1.798,1.561l1.797,1.558l1.799,1.558l1.797,1.556l1.797,1.553l1.797,1.551l1.796,1.549l1.796,1.546l1.797,1.545l1.795,1.542l1.796,1.54l1.796,1.538l1.795,1.536l1.795,1.532l1.796,1.532l1.795,1.528l1.795,1.526l1.794,1.523l1.795,1.521l1.796,1.519l1.792,1.514l1.796,1.514l1.795,1.511l1.793,1.506l1.796,1.506l1.793,1.502l1.795,1.5l1.796,1.498l1.794,1.493l1.794,1.491l1.794,1.488l1.795,1.485l1.796,1.483l1.794,1.479l1.795,1.476l1.795,1.473l1.794,1.469l1.797,1.467l1.796,1.465l1.795,1.46l1.796,1.457l1.796,1.454l1.795,1.45l1.798,1.448l1.797,1.445l1.797,1.44l1.797,1.437l1.797,1.434l1.798,1.43l1.798,1.427l0.899,0.711l0.901,0.713l0.898,0.709l0.899,0.709l0.9,0.708l0.9,0.708l0.899,0.707l0.899,0.705l0.899,0.703l0.902,0.706l0.9,0.703l0.899,0.701l0.901,0.702l0.901,0.7l0.899,0.698l0.901,0.699l0.901,0.698l0.9,0.695l0.902,0.696l0.9,0.694l0.9,0.692l0.902,0.694l0.9,0.69l0.901,0.69l0.903,0.69l0.902,0.69l0.901,0.687l0.902,0.686l0.903,0.686l0.901,0.684l0.902,0.683l0.902,0.682l0.902,0.682l0.904,0.681l0.9,0.678l0.903,0.677l0.904,0.679l0.903,0.676l0.903,0.675l0.903,0.674l0.905,0.675l0.902,0.671l0.902,0.669l0.906,0.671l0.904,0.669l0.904,0.668l0.905,0.667l1.023,0.754l1.026,0.783l0.906,0.691l0.902,0.687l0.908,0.689l0.907,0.689l0.905,0.686l0.906,0.685l0.909,0.686l0.904,0.682l0.908,0.682l0.907,0.682l0.907,0.68l0.91,0.681l0.905,0.677l0.91,0.679l0.91,0.678l0.906,0.674l0.911,0.676l0.908,0.674l0.907,0.67l0.911,0.673l0.911,0.672l0.909,0.67l0.911,0.67l0.91,0.668l0.91,0.667l0.911,0.667l0.91,0.665l0.913,0.666l0.91,0.663l0.912,0.663l0.912,0.663l0.909,0.659l0.914,0.661l0.913,0.66l0.913,0.658l0.915,0.66l0.911,0.656l0.91,0.654l0.914,0.655l0.915,0.655l0.913,0.653l0.913,0.652l0.917,0.654l0.913,0.65l0.914,0.65l0.912,0.648l0.917,0.649l0.917,0.65l0.911,0.644l0.915,0.646l0.917,0.646l0.916,0.644l0.912,0.641l1.835,1.287l1.833,1.282l1.834,1.279l1.832,1.275l1.834,1.272l1.835,1.269l1.836,1.267l1.837,1.264l1.835,1.26l1.838,1.258l1.836,1.254l1.839,1.252l1.84,1.25l1.837,1.245l1.84,1.244l1.842,1.243l1.839,1.237l1.84,1.235l1.843,1.234l1.842,1.231l1.843,1.229l1.841,1.225l1.842,1.222l1.845,1.221l1.844,1.219l1.843,1.216l1.844,1.213l1.845,1.211l1.845,1.21l1.847,1.208l1.844,1.204l1.846,1.202l1.846,1.201l1.846,1.197l1.847,1.197l1.847,1.194l1.847,1.193l1.848,1.19l1.846,1.189l1.848,1.186l1.847,1.184l1.848,1.183l1.848,1.181l1.849,1.179l1.847,1.177l1.848,1.175l1.85,1.176l1.848,1.172l1.848,1.17l1.849,1.17l1.848,1.167l1.849,1.167l1.849,1.164l1.849,1.164l1.847,1.161l1.849,1.16l1.85,1.161l1.846,1.156l1.848,1.156l1.85,1.156l1.849,1.155l1.848,1.153l1.847,1.151l1.848,1.151l1.847,1.149l1.848,1.148l1.847,1.148l3.695,2.293l3.694,2.288l3.692,2.285l3.691,2.281l3.69,2.279l3.689,2.277l3.688,2.274l3.687,2.272l3.684,2.27l7.365,4.535l7.356,4.531l3.676,2.266l3.673,2.264l3.671,2.265l3.665,2.263l-16.759,27.147l-3.662,-2.261l-3.662,-2.259l-3.666,-2.26l-3.671,-2.262l-7.352,-4.529l-7.367,-4.537l-3.689,-2.272l-3.691,-2.275l-3.695,-2.279l-3.697,-2.281l-3.702,-2.286l-3.704,-2.29l-3.707,-2.294l-3.709,-2.297l-3.711,-2.303l-1.856,-1.154l-1.858,-1.154l-1.859,-1.156l-1.858,-1.158l-1.86,-1.159l-1.859,-1.16l-1.86,-1.161l-1.859,-1.162l-1.862,-1.165l-1.864,-1.168l-1.86,-1.166l-1.863,-1.169l-1.864,-1.172l-1.862,-1.172l-1.865,-1.174l-1.864,-1.177l-1.864,-1.177l-1.865,-1.18l-1.866,-1.181l-1.866,-1.184l-1.864,-1.184l-1.868,-1.188l-1.867,-1.19l-1.867,-1.191l-1.866,-1.193l-1.868,-1.195l-1.868,-1.197l-1.868,-1.2l-1.869,-1.202l-1.868,-1.204l-1.869,-1.206l-1.868,-1.209l-1.868,-1.21l-1.87,-1.213l-1.869,-1.216l-1.87,-1.218l-1.871,-1.221l-1.868,-1.222l-1.869,-1.225l-1.87,-1.227l-1.87,-1.231l-1.871,-1.234l-1.869,-1.235l-1.869,-1.238l-1.871,-1.242l-1.87,-1.244l-1.87,-1.246l-1.87,-1.25l-1.868,-1.251l-1.871,-1.255l-1.871,-1.26l-1.867,-1.259l-1.869,-1.263l-1.871,-1.269l-1.868,-1.269l-1.869,-1.272l-1.869,-1.277l-1.868,-1.279l-1.87,-1.283l-1.867,-1.285l-1.867,-1.288l-1.868,-1.293l-1.868,-1.295l-1.868,-1.3l-1.866,-1.301l-1.867,-1.305l-1.863,-1.307l-0.937,-0.658l-0.933,-0.657l-0.93,-0.656l-0.934,-0.659l-0.936,-0.662l-0.93,-0.659l-0.931,-0.659l-0.934,-0.663l-0.933,-0.663l-0.934,-0.665l-0.929,-0.663l-0.932,-0.665l-0.933,-0.668l-0.929,-0.666l-0.932,-0.668l-0.935,-0.671l-0.932,-0.671l-0.929,-0.67l-0.931,-0.671l-0.931,-0.673l-0.93,-0.673l-0.934,-0.677l-0.93,-0.676l-0.93,-0.676l-0.931,-0.679l-0.93,-0.678l-0.93,-0.68l-0.93,-0.68l-0.931,-0.682l-0.93,-0.684l-0.929,-0.682l-0.93,-0.686l-0.928,-0.684l-0.928,-0.686l-0.932,-0.689l-0.93,-0.69l-0.927,-0.688l-0.931,-0.692l-0.927,-0.691l-0.927,-0.692l-0.93,-0.695l-0.927,-0.694l-0.928,-0.696l-0.928,-0.697l-0.928,-0.698l-0.929,-0.7l-0.926,-0.699l-0.927,-0.701l-0.928,-0.704l-0.925,-0.702l-0.925,-0.702l-0.93,-0.708l-0.926,-0.707l-0.805,-0.615l-0.807,-0.594l-0.926,-0.683l-0.926,-0.683l-0.925,-0.685l-0.923,-0.684l-0.927,-0.688l-0.926,-0.689l-0.923,-0.687l-0.924,-0.69l-0.924,-0.691l-0.924,-0.692l-0.921,-0.691l-0.924,-0.693l-0.925,-0.697l-0.921,-0.694l-0.923,-0.697l-0.923,-0.698l-0.922,-0.699l-0.922,-0.699l-0.92,-0.7l-0.922,-0.701l-0.921,-0.703l-0.92,-0.702l-0.919,-0.703l-0.921,-0.705l-0.921,-0.707l-0.919,-0.706l-0.92,-0.708l-0.921,-0.71l-0.918,-0.708l-0.92,-0.712l-0.917,-0.71l-0.919,-0.712l-0.919,-0.714l-0.917,-0.713l-0.918,-0.714l-0.918,-0.717l-0.917,-0.716l-0.915,-0.716l-0.919,-0.719l-0.918,-0.72l-0.916,-0.719l-0.916,-0.721l-0.916,-0.721l-0.916,-0.723l-0.918,-0.724l-0.913,-0.723l-0.917,-0.725l-1.83,-1.452l-1.83,-1.456l-1.828,-1.459l-1.828,-1.461l-1.829,-1.466l-1.825,-1.467l-1.825,-1.471l-1.827,-1.475l-1.826,-1.478l-1.823,-1.479l-1.825,-1.484l-1.822,-1.486l-1.822,-1.488l-1.823,-1.493l-1.821,-1.494l-1.82,-1.497l-1.822,-1.501l-1.818,-1.502l-1.819,-1.505l-1.819,-1.509l-1.82,-1.511l-1.818,-1.514l-1.816,-1.515l-1.817,-1.518l-1.817,-1.522l-1.815,-1.522l-1.818,-1.527l-1.814,-1.528l-1.815,-1.529l-1.817,-1.535l-1.813,-1.534l-1.814,-1.537l-1.815,-1.541l-1.812,-1.541l-1.814,-1.544l-1.813,-1.546l-1.813,-1.548l-1.813,-1.55l-1.811,-1.552l-1.813,-1.554l-1.812,-1.557l-1.812,-1.557l-1.811,-1.56l-1.813,-1.563l-1.81,-1.563l-1.812,-1.565l-1.811,-1.568l-1.81,-1.568l-1.812,-1.57l-1.811,-1.573l-1.811,-1.574l-1.811,-1.575l-1.81,-1.577l-1.812,-1.579l-1.81,-1.58l-1.811,-1.581l-1.812,-1.584l-1.81,-1.583l-1.811,-1.586l-1.812,-1.588l-1.811,-1.588l-1.81,-1.589l-1.812,-1.591l-1.813,-1.593l-1.81,-1.593l-1.812,-1.594l-3.624,-3.191l-3.625,-3.196l-3.627,-3.2l-3.627,-3.204l-3.627,-3.207l-3.63,-3.21l-3.63,-3.213l-3.633,-3.215l-3.633,-3.218l-7.272,-6.441l-7.281,-6.448l-3.642,-3.224l-3.646,-3.227l-3.647,-3.227l-3.649,-3.226l-3.653,-3.227l-3.658,-3.228l21.114,-23.919l3.662,3.233Z" style="fill:#205d76;"/><path d="M705.357,686.977c-27.571,16.083 -52.844,41.356 -66.629,64.332c-13.786,20.678 -18.381,39.059 -13.786,59.737c2.298,20.678 11.488,41.357 25.273,62.035c13.786,18.38 32.167,36.761 50.547,48.249c16.083,11.488 32.166,18.381 52.845,20.678c22.975,4.595 48.249,2.298 68.927,-4.595c20.678,-6.893 39.059,-20.678 52.844,-36.761c16.083,-16.083 29.869,-34.464 41.357,-52.845c9.19,-20.678 13.785,-39.058 11.488,-64.332c-4.595,-27.571 -16.083,-59.737 -29.869,-78.118c-13.785,-20.678 -29.868,-27.571 -48.249,-34.463c-50.547,-18.381 -98.796,-11.488 -144.748,16.083Z" style="fill:#ffa09e;"/><path d="M1233.8,1054.59c-27.571,18.38 -50.547,43.654 -64.332,64.332c-16.083,22.976 -18.381,39.059 -16.083,59.737c4.595,20.678 13.785,43.654 27.571,62.035c13.785,20.678 32.166,36.761 48.249,48.249c18.38,11.488 34.464,18.381 55.142,22.976c20.678,2.297 45.951,2.297 68.927,-4.595c20.678,-9.191 36.762,-22.976 52.845,-39.059c16.083,-16.083 29.868,-34.464 39.058,-52.845c9.191,-18.38 16.084,-39.059 11.488,-64.332c-2.297,-25.273 -13.785,-57.439 -27.571,-78.118c-13.785,-18.38 -32.166,-27.571 -50.546,-32.166c-48.25,-20.678 -98.796,-13.785 -144.748,13.786Z" style="fill:#205d76;"/><path d="M1252.18,631.835c-32.166,-2.298 -66.63,6.893 -89.606,18.38c-22.976,9.191 -36.761,22.976 -43.654,41.357c-9.19,18.381 -11.488,43.654 -11.488,68.927c2.298,22.976 6.893,45.952 16.083,66.63c9.19,18.381 18.381,32.166 34.464,45.952c16.083,13.785 39.059,27.571 59.737,32.166c22.976,6.893 43.654,2.297 66.63,-2.298c20.678,-4.595 43.654,-13.785 62.034,-22.975c18.381,-11.488 32.167,-25.274 43.655,-50.547c11.487,-22.976 18.38,-55.142 16.083,-80.416c0,-22.975 -11.488,-39.058 -22.976,-55.142c-32.166,-41.356 -78.118,-62.034 -130.962,-62.034Z" style="fill:#62d4d4;"/><path d="M742.119,1084.46c-20.679,-22.976 -50.547,-41.356 -75.821,-50.547c-22.975,-9.19 -41.356,-9.19 -62.034,0c-18.381,6.893 -36.761,20.679 -55.142,39.059c-16.083,18.381 -27.571,39.059 -34.464,57.44c-9.19,20.678 -11.488,36.761 -9.19,59.737c0,20.678 6.893,45.952 18.38,64.332c11.488,18.381 29.869,32.166 48.25,43.654c18.38,11.488 41.356,22.976 62.034,27.571c20.679,4.595 39.059,6.893 64.333,-2.297c25.273,-9.191 52.844,-27.571 68.927,-45.952c16.083,-18.381 20.678,-36.761 22.976,-55.142c6.893,-52.844 -9.19,-98.796 -48.249,-137.855Z" style="fill:#ffc122;"/></g></svg>