<?xml version="1.0" standalone="no"?><!DOCTYPE svg PUBLIC "-//W3C//DTD SVG 1.1//EN" "http://www.w3.org/Graphics/SVG/1.1/DTD/svg11.dtd"><svg width="100%" height="100%" viewBox="0 0 1971 1971" version="1.1" xmlns="http://www.w3.org/2000/svg" xmlns:xlink="http://www.w3.org/1999/xlink" xml:space="preserve" style="fill-rule:evenodd;clip-rule:evenodd;stroke-linecap:round;stroke-linejoin:round;stroke-miterlimit:1.41421;"><g id="_794886832_"><path d="M1349.63,694.426c4.614,-41.528 6.921,-62.291 4.614,-78.441c0,-16.149 -2.307,-25.377 -9.228,-39.22c-4.614,-11.535 -13.842,-27.684 -23.071,-39.22c-9.228,-9.228 -16.149,-13.842 -145.345,-13.842c-126.888,0 -376.051,2.307 -502.939,4.614c-126.888,4.614 -131.503,4.614 -126.888,11.535c2.307,6.922 13.842,18.457 20.763,32.299c6.921,13.843 9.228,29.992 9.228,57.677c2.307,23.07 0,55.369 0,89.975c2.307,-2.307 4.615,-2.307 6.922,-2.307c34.605,-2.307 92.282,-2.307 126.888,-2.307c34.606,0 43.834,0 66.905,25.378c23.07,23.07 59.983,69.212 96.896,117.66c166.109,-4.614 311.454,-9.228 403.736,-9.228c23.071,2.307 43.834,2.307 62.291,2.307l9.228,-156.88Z" style="fill:#ffa09e;"/><path d="M874.376,858.227c-36.913,-48.448 -73.826,-94.59 -96.896,-117.66c-23.071,-25.378 -32.299,-25.378 -66.905,-25.378c-34.606,0 -92.283,0 -126.888,2.307c-32.299,2.307 -41.528,6.921 -48.449,11.535c-6.921,6.922 -16.149,13.843 -20.763,140.731c-6.921,126.889 -9.229,373.744 -4.614,502.94c4.614,126.888 18.456,138.423 173.029,140.73c154.573,4.614 452.184,2.307 606.757,0c154.574,-2.307 168.416,-9.228 173.03,-115.353c2.307,-106.125 -2.307,-316.067 -9.228,-424.499c-9.228,-110.739 -18.457,-122.274 -175.337,-124.581c-156.88,0 -461.412,9.228 -765.944,20.763" style="fill:none;stroke-width:32.04px;stroke:#205d76;"/><path d="M962.045,1072.78c2.307,89.975 2.307,179.95 2.307,269.926" style="fill:none;stroke-width:32.04px;stroke:#62d4d4;"/><path d="M839.77,1255.04c41.528,29.992 83.055,57.677 103.818,73.826c20.764,13.843 20.764,13.843 41.527,2.308c18.457,-13.843 57.677,-36.913 96.897,-62.291" style="fill:none;stroke-width:32.04px;stroke:#62d4d4;"/><path d="M813.112,438.53l3.092,0.054l3.138,0.054l3.182,0.054l6.496,0.108l6.664,0.108l6.827,0.108l6.984,0.108l7.135,0.108l7.28,0.108l7.42,0.108l7.553,0.108l7.681,0.109l7.802,0.108l7.918,0.108l8.028,0.108l8.132,0.108l8.231,0.108l8.322,0.108l8.409,0.108l8.49,0.108l8.564,0.108l8.633,0.109l8.696,0.108l17.557,0.216l17.739,0.216l17.873,0.217l35.962,0.432l17.995,0.216l17.942,0.217l17.842,0.216l17.695,0.216l17.501,0.217l8.663,0.108l8.598,0.108l8.525,0.108l8.448,0.108l8.364,0.109l8.275,0.108l8.179,0.108l8.079,0.108l7.971,0.108l7.859,0.108l7.74,0.109l7.615,0.108l7.485,0.108l7.349,0.108l7.207,0.108l7.06,0.109l6.905,0.108l6.746,0.108l6.581,0.108l6.409,0.109l3.14,0.054l3.094,0.054l3.049,0.054l2.998,0.054l11.743,0.21l11.025,0.199l5.251,0.095l5.078,0.094l4.91,0.092l4.744,0.09l4.58,0.089l4.421,0.088l4.263,0.088l4.106,0.087l1.999,0.043l1.959,0.044l1.922,0.043l1.885,0.043l1.849,0.044l1.813,0.044l1.777,0.044l1.741,0.044l1.707,0.044l1.672,0.045l1.637,0.045l1.604,0.045l1.57,0.046l1.537,0.046l1.505,0.046l1.471,0.047l1.44,0.048l1.408,0.048l1.377,0.048l1.346,0.05l1.317,0.05l1.285,0.05l1.258,0.052l1.227,0.052l1.198,0.053l1.172,0.054l1.143,0.056l1.114,0.056l1.089,0.057l1.063,0.058l1.037,0.059l1.01,0.061l0.987,0.062l0.963,0.063l0.932,0.064l0.466,0.034l0.454,0.033l0.45,0.034l0.444,0.034l0.436,0.035l0.432,0.035l0.431,0.035l0.422,0.036l0.414,0.037l0.414,0.037l0.406,0.037l0.401,0.038l0.399,0.039l0.392,0.039l0.386,0.039l0.384,0.041l0.38,0.041l0.373,0.041l0.372,0.043l0.367,0.043l0.363,0.044l0.358,0.045l0.355,0.045l0.351,0.046l0.347,0.048l0.344,0.048l0.345,0.049l0.341,0.051l0.329,0.051l0.335,0.052l0.333,0.055l0.326,0.054l0.326,0.057l0.325,0.058l0.324,0.06l0.316,0.06l0.32,0.063l0.323,0.066l0.316,0.067l0.317,0.069l0.314,0.07l0.315,0.074l0.321,0.077l0.314,0.079l0.315,0.082l0.326,0.087l0.32,0.09l0.313,0.091l0.326,0.097l0.334,0.105l0.323,0.105l0.33,0.111l0.343,0.121l0.339,0.124l0.339,0.13l0.35,0.139l0.352,0.146l0.358,0.156l0.366,0.166l0.375,0.178l0.375,0.187l0.385,0.2l0.393,0.215l0.394,0.226l0.404,0.244l0.414,0.264l0.412,0.277l0.43,0.303l0.438,0.33l0.422,0.335l0.441,0.371l0.435,0.391l0.445,0.424l0.446,0.457l0.384,0.42l0.253,0.292l0.219,0.261l0.24,0.299l0.205,0.268l0.181,0.244l0.204,0.283l0.207,0.303l0.198,0.301l0.193,0.309l0.205,0.34l0.162,0.288l0.184,0.333l0.18,0.352l0.152,0.308l0.17,0.366l0.144,0.329l0.135,0.324l0.147,0.375l0.142,0.391l0.118,0.348l0.109,0.343l0.102,0.347l0.097,0.357l0.103,0.41l0.08,0.361l0.063,0.306l0.076,0.41l0.07,0.448l0.082,0.617l0.063,0.723l0.033,0.664l0.009,0.684l-0.017,0.647l-0.037,0.634l-0.059,0.621l-0.075,0.583l-0.091,0.567l-0.101,0.529l-0.113,0.513l-0.124,0.496l-0.133,0.481l-0.137,0.448l-0.143,0.435l-0.142,0.398l-0.147,0.39l-0.159,0.394l-0.147,0.345l-0.142,0.319l-0.152,0.328l-0.155,0.318l-0.148,0.295l-0.152,0.291l-0.142,0.262l-0.141,0.256l-0.146,0.255l-0.138,0.235l-0.139,0.232l-0.137,0.224l-0.13,0.208l-0.125,0.196l-0.13,0.202l-0.132,0.199l-0.135,0.203l-0.228,0.333l-0.233,0.334l-0.218,0.305l-0.217,0.3l-0.208,0.283l-0.195,0.262l-0.198,0.266l-0.371,0.492l-0.382,0.502l-0.392,0.512l-0.4,0.517l-0.405,0.522l-0.415,0.533l-0.423,0.54l-0.431,0.549l-0.881,1.119l-0.914,1.157l-0.943,1.194l-0.973,1.234l-0.492,0.627l-0.502,0.639l-0.508,0.649l-0.514,0.658l-0.518,0.667l-0.525,0.676l-0.529,0.685l-0.533,0.693l-0.539,0.703l-0.544,0.714l-0.546,0.721l-0.55,0.73l-0.555,0.74l-0.562,0.753l-0.276,0.372l-0.28,0.379l-0.28,0.38l-0.281,0.383l-0.283,0.387l-0.283,0.388l-0.283,0.388l-0.284,0.392l-0.285,0.396l-0.284,0.395l-0.286,0.399l-0.287,0.402l-0.283,0.398l-0.286,0.404l-0.287,0.408l-0.286,0.407l-0.286,0.41l-0.286,0.41l-0.286,0.413l-0.287,0.416l-0.287,0.419l-0.288,0.421l-0.285,0.419l-0.285,0.421l-0.287,0.426l-0.286,0.427l-0.287,0.43l-0.286,0.429l-0.284,0.432l-0.286,0.434l-0.284,0.435l-0.282,0.434l-0.284,0.439l-0.284,0.443l-0.283,0.441l-0.282,0.445l-0.281,0.444l-0.281,0.447l-0.281,0.45l-0.278,0.448l-0.278,0.452l-0.279,0.454l-0.276,0.453l-0.276,0.456l-0.277,0.46l-0.274,0.458l-0.271,0.458l-0.274,0.465l-0.272,0.465l-0.269,0.461l-0.269,0.467l-0.269,0.469l-0.266,0.467l-0.266,0.471l-0.263,0.47l-0.263,0.473l-0.261,0.474l-0.261,0.476l-0.259,0.476l-0.257,0.477l-0.256,0.48l-0.254,0.48l-0.253,0.481l-0.251,0.483l-0.25,0.483l-0.246,0.481l-0.246,0.486l-0.247,0.492l-0.246,0.494l-0.247,0.499l-0.246,0.501l-0.245,0.504l-0.245,0.508l-0.244,0.511l-0.243,0.511l-0.242,0.514l-0.242,0.519l-0.24,0.519l-0.24,0.523l-0.24,0.528l-0.24,0.531l-0.238,0.533l-0.238,0.536l-0.237,0.54l-0.237,0.544l-0.236,0.546l-0.236,0.55l-0.234,0.553l-0.235,0.558l-0.234,0.562l-0.234,0.566l-0.232,0.569l-0.233,0.574l-0.232,0.577l-0.231,0.582l-0.231,0.585l-0.231,0.59l-0.23,0.595l-0.23,0.6l-0.229,0.603l-0.229,0.608l-0.229,0.614l-0.228,0.616l-0.228,0.622l-0.227,0.627l-0.227,0.633l-0.227,0.637l-0.226,0.641l-0.226,0.648l-0.226,0.653l-0.225,0.658l-0.225,0.662l-0.224,0.668l-0.224,0.674l-0.224,0.68l-0.224,0.685l-0.223,0.691l-0.223,0.696l-0.223,0.703l-0.222,0.707l-0.222,0.715l-0.222,0.72l-0.222,0.726l-0.221,0.732l-0.221,0.738l-0.221,0.745l-0.221,0.75l-0.22,0.757l-0.22,0.765l-0.22,0.77l-0.219,0.776l-0.22,0.783l-0.219,0.79l-0.218,0.796l-0.219,0.805l-0.219,0.811l-0.218,0.816l-0.218,0.823l-0.218,0.832l-0.217,0.838l-0.218,0.847l-0.217,0.853l-0.217,0.858l-0.217,0.868l-0.217,0.875l-0.216,0.882l-0.217,0.89l-0.216,0.897l-0.216,0.905l-0.216,0.912l-0.215,0.92l-0.216,0.928l-0.215,0.937l-0.215,0.943l-0.215,0.952l-0.215,0.96l-0.215,0.968l-0.215,0.976l-0.215,0.985l-0.214,0.992l-0.214,1.001l-0.215,1.009l-0.214,1.017l-0.214,1.027l-0.214,1.035l-0.214,1.043l-0.213,1.052l-0.214,1.061l-0.214,1.069l-0.213,1.079l-0.214,1.087l-0.213,1.096l-0.213,1.105l-0.214,1.114l-0.213,1.124l-0.213,1.133l-0.213,1.141l-0.213,1.151l-0.213,1.161l-0.213,1.17l-0.214,1.18l-0.213,1.189l-0.213,1.198l-0.212,1.207l-0.213,1.218l-0.213,1.228l-0.213,1.237l-0.213,1.247l-0.213,1.257l-0.214,1.268l-0.213,1.277l-0.213,1.286l-0.213,1.298l-0.213,1.308l-0.213,1.318l-0.213,1.325l-0.212,1.331l-0.21,1.34l-0.21,1.35l-0.209,1.362l-0.209,1.373l-0.208,1.385l-0.207,1.397l-0.206,1.406l-0.206,1.417l-0.205,1.428l-0.205,1.439l-0.203,1.449l-0.204,1.46l-0.202,1.469l-0.202,1.48l-0.201,1.49l-0.2,1.5l-0.2,1.51l-0.2,1.519l-0.198,1.53l-0.198,1.538l-0.197,1.548l-0.197,1.558l-0.196,1.566l-0.196,1.576l-0.194,1.585l-0.194,1.594l-0.194,1.602l-0.193,1.612l-0.192,1.62l-0.192,1.628l-0.191,1.637l-0.191,1.645l-0.19,1.653l-0.189,1.662l-0.189,1.67l-0.189,1.678l-0.188,1.685l-0.187,1.693l-0.186,1.701l-0.187,1.708l-0.185,1.716l-0.185,1.723l-0.185,1.731l-0.184,1.737l-0.183,1.744l-0.183,1.752l-0.183,1.759l-0.182,1.765l-0.181,1.772l-0.181,1.778l-0.181,1.785l-0.18,1.791l-0.179,1.797l-0.179,1.804l-0.179,1.811l-0.178,1.816l-0.178,1.821l-0.177,1.828l-0.177,1.833l-0.177,1.839l-0.176,1.844l-0.175,1.851l-0.176,1.855l-0.174,1.86l-0.175,1.865l-0.174,1.871l-0.173,1.876l-0.174,1.88l-0.173,1.885l-0.172,1.89l-0.172,1.893l-0.344,3.804l-0.341,3.82l-0.341,3.836l-0.339,3.851l-0.339,3.867l-0.337,3.88l-0.335,3.894l-0.335,3.907l-0.334,3.919l-0.333,3.93l-0.332,3.94l-0.331,3.95l-0.33,3.959l-0.33,3.967l-0.329,3.975l-0.328,3.981l-0.327,3.987l-0.327,3.992l-0.327,3.997l-0.326,4l-0.651,8.01l-0.65,8.016l-1.298,16.024l-31.931,-2.587l1.298,-16.025l0.651,-8.02l0.651,-8.017l0.327,-4.007l0.327,-4.003l0.328,-4l0.328,-3.995l0.329,-3.99l0.33,-3.985l0.33,-3.978l0.331,-3.97l0.332,-3.964l0.333,-3.954l0.335,-3.944l0.335,-3.935l0.336,-3.923l0.337,-3.913l0.339,-3.9l0.34,-3.886l0.341,-3.873l0.343,-3.858l0.344,-3.843l0.345,-3.826l0.174,-1.908l0.173,-1.903l0.174,-1.899l0.175,-1.895l0.175,-1.889l0.175,-1.885l0.176,-1.88l0.176,-1.876l0.177,-1.871l0.177,-1.865l0.178,-1.861l0.178,-1.856l0.178,-1.849l0.179,-1.845l0.18,-1.84l0.18,-1.834l0.18,-1.827l0.181,-1.823l0.182,-1.817l0.182,-1.811l0.182,-1.805l0.183,-1.799l0.184,-1.792l0.184,-1.786l0.185,-1.78l0.185,-1.774l0.186,-1.768l0.186,-1.76l0.187,-1.754l0.188,-1.747l0.188,-1.74l0.189,-1.734l0.19,-1.726l0.19,-1.719l0.19,-1.712l0.192,-1.704l0.192,-1.698l0.192,-1.689l0.194,-1.683l0.194,-1.675l0.195,-1.666l0.195,-1.66l0.196,-1.651l0.197,-1.643l0.197,-1.635l0.198,-1.627l0.2,-1.62l0.199,-1.61l0.201,-1.602l0.201,-1.593l0.202,-1.586l0.203,-1.576l0.203,-1.568l0.205,-1.558l0.205,-1.55l0.206,-1.541l0.207,-1.532l0.207,-1.523l0.209,-1.514l0.209,-1.504l0.21,-1.495l0.211,-1.484l0.212,-1.477l0.213,-1.467l0.214,-1.456l0.215,-1.446l0.215,-1.437l0.217,-1.427l0.218,-1.418l0.218,-1.407l0.22,-1.396l0.22,-1.384l0.22,-1.368l0.219,-1.356l0.219,-1.345l0.22,-1.336l0.219,-1.327l0.22,-1.317l0.22,-1.307l0.22,-1.297l0.22,-1.289l0.22,-1.279l0.22,-1.269l0.221,-1.261l0.22,-1.252l0.221,-1.242l0.221,-1.233l0.221,-1.224l0.222,-1.215l0.221,-1.207l0.222,-1.197l0.222,-1.19l0.222,-1.18l0.222,-1.171l0.223,-1.163l0.223,-1.155l0.223,-1.147l0.224,-1.138l0.223,-1.129l0.224,-1.121l0.224,-1.114l0.225,-1.105l0.225,-1.097l0.225,-1.089l0.225,-1.08l0.226,-1.074l0.227,-1.066l0.226,-1.058l0.227,-1.05l0.227,-1.042l0.228,-1.035l0.228,-1.027l0.228,-1.02l0.229,-1.013l0.23,-1.006l0.229,-0.997l0.23,-0.991l0.231,-0.984l0.231,-0.976l0.231,-0.97l0.232,-0.963l0.233,-0.956l0.232,-0.948l0.234,-0.943l0.234,-0.935l0.234,-0.93l0.235,-0.922l0.236,-0.915l0.236,-0.909l0.236,-0.903l0.237,-0.897l0.238,-0.891l0.239,-0.883l0.238,-0.877l0.24,-0.872l0.24,-0.866l0.241,-0.859l0.241,-0.855l0.242,-0.848l0.242,-0.84l0.244,-0.837l0.244,-0.831l0.244,-0.824l0.246,-0.82l0.246,-0.813l0.246,-0.808l0.247,-0.803l0.249,-0.797l0.248,-0.792l0.25,-0.786l0.25,-0.782l0.251,-0.777l0.252,-0.77l0.252,-0.767l0.253,-0.761l0.254,-0.756l0.256,-0.753l0.255,-0.746l0.256,-0.741l0.257,-0.736l0.259,-0.733l0.259,-0.728l0.259,-0.722l0.26,-0.719l0.262,-0.714l0.262,-0.711l0.263,-0.704l0.264,-0.7l0.265,-0.698l0.265,-0.692l0.266,-0.687l0.268,-0.684l0.268,-0.68l0.269,-0.676l0.27,-0.673l0.271,-0.667l0.272,-0.664l0.272,-0.66l0.273,-0.656l0.275,-0.653l0.275,-0.649l0.276,-0.646l0.278,-0.641l0.277,-0.638l0.279,-0.634l0.28,-0.632l0.281,-0.627l0.281,-0.623l0.282,-0.621l0.284,-0.618l0.284,-0.615l0.285,-0.61l0.287,-0.609l0.287,-0.606l0.288,-0.6l0.288,-0.597l0.289,-0.596l0.291,-0.594l0.292,-0.59l0.294,-0.59l0.295,-0.588l0.3,-0.591l0.302,-0.591l0.303,-0.586l0.303,-0.583l0.306,-0.582l0.307,-0.579l0.307,-0.575l0.31,-0.575l0.311,-0.572l0.311,-0.569l0.312,-0.566l0.314,-0.565l0.316,-0.563l0.316,-0.559l0.317,-0.558l0.317,-0.554l0.318,-0.551l0.322,-0.553l0.319,-0.546l0.32,-0.541l0.323,-0.545l0.323,-0.541l0.322,-0.534l0.323,-0.535l0.325,-0.533l0.324,-0.529l0.325,-0.527l0.327,-0.526l0.325,-0.521l0.326,-0.519l0.327,-0.517l0.327,-0.514l0.327,-0.511l0.326,-0.507l0.326,-0.506l0.329,-0.506l0.328,-0.501l0.327,-0.498l0.327,-0.496l0.328,-0.493l0.326,-0.488l0.327,-0.488l0.325,-0.483l0.327,-0.484l0.328,-0.482l0.324,-0.474l0.325,-0.472l0.324,-0.471l0.325,-0.468l0.325,-0.467l0.323,-0.463l0.323,-0.46l0.321,-0.456l0.322,-0.454l0.323,-0.454l0.318,-0.447l0.319,-0.445l0.319,-0.443l0.316,-0.438l0.316,-0.437l0.316,-0.435l0.315,-0.431l0.312,-0.427l0.313,-0.425l0.312,-0.424l0.31,-0.419l0.312,-0.421l0.61,-0.817l0.607,-0.81l0.471,-0.625l-0.561,-0.026l-1.142,-0.051l-1.174,-0.05l-1.205,-0.049l-1.239,-0.049l-1.271,-0.048l-1.303,-0.048l-1.338,-0.047l-1.371,-0.047l-1.404,-0.046l-1.439,-0.046l-1.472,-0.046l-1.508,-0.045l-1.542,-0.045l-1.577,-0.044l-1.614,-0.045l-1.648,-0.044l-1.685,-0.043l-1.721,-0.044l-1.758,-0.043l-1.795,-0.044l-1.831,-0.043l-1.87,-0.043l-1.908,-0.043l-1.945,-0.043l-1.983,-0.043l-4.087,-0.087l-4.243,-0.087l-4.403,-0.088l-4.567,-0.088l-4.732,-0.091l-4.9,-0.091l-5.07,-0.094l-5.244,-0.095l-11.019,-0.199l-11.744,-0.21l-2.997,-0.054l-3.04,-0.054l-3.086,-0.054l-3.13,-0.054l-6.396,-0.108l-6.567,-0.108l-6.734,-0.108l-6.894,-0.108l-7.049,-0.108l-7.197,-0.108l-7.34,-0.108l-7.477,-0.108l-7.608,-0.108l-7.733,-0.108l-7.852,-0.108l-7.965,-0.108l-8.073,-0.109l-8.174,-0.108l-8.271,-0.108l-8.359,-0.108l-8.444,-0.108l-8.522,-0.108l-8.594,-0.108l-8.66,-0.108l-17.497,-0.217l-17.691,-0.216l-17.839,-0.216l-17.941,-0.216l-17.994,-0.217l-35.963,-0.432l-17.876,-0.217l-17.742,-0.216l-17.562,-0.216l-8.699,-0.108l-8.636,-0.109l-8.567,-0.108l-8.494,-0.108l-8.413,-0.108l-8.327,-0.108l-8.235,-0.108l-8.137,-0.109l-8.034,-0.108l-7.925,-0.108l-7.809,-0.108l-7.688,-0.108l-7.561,-0.109l-7.428,-0.108l-7.29,-0.108l-7.145,-0.108l-6.995,-0.108l-6.838,-0.109l-6.677,-0.108l-6.509,-0.108l-3.19,-0.054l-3.146,-0.054l-3.101,-0.055l-2.91,-0.051l-2.806,0l-2.903,0.001l-2.858,0.003l-2.814,0.002l-2.771,0.004l-2.728,0.005l-2.685,0.005l-2.642,0.006l-2.6,0.007l-2.558,0.008l-2.516,0.008l-2.476,0.01l-2.434,0.01l-2.394,0.01l-2.354,0.012l-2.313,0.012l-2.275,0.013l-2.235,0.014l-2.196,0.014l-2.157,0.016l-2.119,0.015l-2.082,0.017l-2.044,0.017l-2.006,0.018l-1.97,0.019l-1.932,0.019l-1.897,0.02l-1.861,0.021l-1.826,0.021l-1.79,0.022l-1.754,0.023l-1.72,0.023l-1.686,0.024l-1.653,0.024l-1.618,0.025l-1.585,0.026l-1.552,0.026l-1.519,0.027l-1.487,0.027l-1.455,0.028l-1.423,0.029l-1.392,0.029l-1.36,0.029l-1.33,0.031l-1.299,0.03l-1.27,0.032l-1.239,0.031l-1.21,0.033l-1.181,0.032l-1.151,0.033l-1.123,0.034l-1.095,0.034l-1.067,0.035l-1.039,0.035l-1.011,0.035l-0.985,0.036l-0.958,0.037l-0.931,0.036l-0.904,0.037l-0.879,0.038l-0.854,0.038l-0.828,0.038l-0.803,0.038l-0.778,0.039l-0.751,0.039l-0.73,0.039l-0.706,0.04l-0.679,0.04l-0.658,0.04l-0.634,0.04l-0.611,0.04l-0.441,0.031l-0.004,0.164l-0.008,0.389l-0.007,0.406l-0.007,0.418l-0.006,0.431l-0.005,0.446l-0.005,0.46l-0.004,0.466l-0.006,0.99l-0.004,1.042l-0.002,1.096l-0.002,1.15l0,2.495l-0.001,0.306l-0.001,0.319l-0.003,0.322l-0.003,0.335l-0.009,0.639l-0.013,0.653l-0.016,0.659l-0.019,0.662l-0.022,0.666l-0.024,0.669l-0.027,0.676l-0.03,0.679l-0.032,0.683l-0.034,0.688l-0.036,0.692l-0.038,0.695l-0.04,0.7l-0.041,0.704l-0.044,0.709l-0.044,0.712l-0.046,0.717l-0.047,0.718l-0.049,0.723l-0.049,0.73l-0.101,1.456l-0.104,1.474l-0.107,1.484l-0.214,2.995l-0.108,1.506l-0.105,1.511l-0.104,1.518l-0.05,0.754l-0.05,0.758l-0.049,0.757l-0.048,0.759l-0.047,0.756l-0.045,0.756l-0.045,0.756l-0.042,0.753l-0.042,0.752l-0.039,0.75l-0.038,0.749l-0.036,0.746l-0.034,0.746l-0.033,0.741l-0.03,0.737l-0.028,0.736l-0.025,0.732l-0.024,0.727l-0.02,0.724l-0.019,0.721l-0.016,0.715l-0.013,0.71l-0.01,0.714l-0.004,0.342l-0.003,0.352l-0.003,0.348l-0.002,0.345l-0.001,0.346l0,0.364l-32.036,-0.041l0.001,-0.395l0.001,-0.413l0.002,-0.416l0.004,-0.415l0.003,-0.412l0.005,-0.423l0.012,-0.822l0.015,-0.83l0.019,-0.83l0.021,-0.827l0.024,-0.83l0.026,-0.828l0.029,-0.827l0.032,-0.827l0.033,-0.826l0.036,-0.824l0.038,-0.822l0.04,-0.82l0.041,-0.82l0.043,-0.818l0.045,-0.815l0.046,-0.814l0.048,-0.81l0.048,-0.808l0.05,-0.806l0.051,-0.8l0.051,-0.798l0.052,-0.795l0.054,-0.795l0.107,-1.567l0.108,-1.554l0.109,-1.535l0.216,-3.002l0.105,-1.466l0.101,-1.439l0.099,-1.415l0.046,-0.69l0.046,-0.685l0.045,-0.678l0.043,-0.668l0.041,-0.66l0.04,-0.65l0.037,-0.64l0.036,-0.631l0.034,-0.622l0.032,-0.61l0.03,-0.598l0.027,-0.588l0.025,-0.576l0.023,-0.564l0.02,-0.551l0.018,-0.539l0.015,-0.524l0.012,-0.51l0.01,-0.497l0.007,-0.491l0.002,-0.223l0.002,-0.232l0.001,-0.229l0,-0.237l0.001,-2.484l0.001,-1.186l0.003,-1.142l0.004,-1.101l0.007,-1.061l0.004,-0.528l0.005,-0.511l0.006,-0.504l0.007,-0.499l0.008,-0.49l0.009,-0.484l0.01,-0.481l0.011,-0.47l0.012,-0.466l0.014,-0.466l0.015,-0.456l0.017,-0.453l0.019,-0.452l0.021,-0.446l0.022,-0.442l0.025,-0.441l0.027,-0.44l0.029,-0.439l0.032,-0.434l0.035,-0.435l0.038,-0.434l0.04,-0.434l0.045,-0.434l0.048,-0.436l0.052,-0.435l0.055,-0.431l0.06,-0.439l0.065,-0.44l0.068,-0.435l0.071,-0.417l0.043,-0.247l0.041,-0.22l0.041,-0.218l0.043,-0.225l0.046,-0.225l0.045,-0.217l0.046,-0.217l0.051,-0.231l0.05,-0.222l0.05,-0.215l0.055,-0.229l0.056,-0.227l0.056,-0.22l0.057,-0.221l0.06,-0.224l0.062,-0.225l0.061,-0.217l0.065,-0.224l0.068,-0.229l0.068,-0.222l0.068,-0.219l0.072,-0.225l0.072,-0.219l0.075,-0.224l0.076,-0.221l0.075,-0.213l0.078,-0.217l0.08,-0.218l0.082,-0.219l0.084,-0.221l0.086,-0.217l0.082,-0.206l0.088,-0.216l0.089,-0.215l0.087,-0.205l0.017,-0.038l0.027,-0.088l0.182,-0.513l0.211,-0.542l0.237,-0.545l0.228,-0.482l0.262,-0.514l0.293,-0.524l0.292,-0.483l0.31,-0.476l0.341,-0.487l0.329,-0.436l0.336,-0.421l0.377,-0.439l0.336,-0.366l0.364,-0.377l0.386,-0.373l0.336,-0.307l0.364,-0.317l0.367,-0.3l0.341,-0.266l0.348,-0.258l0.352,-0.248l0.338,-0.226l0.33,-0.211l0.317,-0.193l0.312,-0.182l0.321,-0.179l0.303,-0.161l0.303,-0.155l0.287,-0.14l0.274,-0.13l0.284,-0.128l0.279,-0.12l0.269,-0.112l0.248,-0.1l0.254,-0.098l0.253,-0.095l0.249,-0.089l0.246,-0.085l0.24,-0.08l0.226,-0.073l0.224,-0.07l0.232,-0.07l0.236,-0.069l0.213,-0.06l0.214,-0.059l0.231,-0.061l0.216,-0.056l0.209,-0.052l0.24,-0.058l0.397,-0.091l0.426,-0.093l0.424,-0.087l0.42,-0.081l0.427,-0.078l0.428,-0.075l0.434,-0.071l0.442,-0.07l0.446,-0.066l0.453,-0.064l0.465,-0.062l0.471,-0.06l0.482,-0.059l0.494,-0.058l0.509,-0.056l0.519,-0.055l0.532,-0.054l0.546,-0.053l0.56,-0.052l0.577,-0.051l0.59,-0.05l0.609,-0.05l0.625,-0.049l0.64,-0.048l0.661,-0.047l0.678,-0.047l0.697,-0.046l0.715,-0.045l0.735,-0.045l0.758,-0.044l0.776,-0.043l0.796,-0.044l0.82,-0.042l0.841,-0.042l0.863,-0.041l0.885,-0.041l0.908,-0.04l0.932,-0.04l0.956,-0.039l0.981,-0.039l1.004,-0.038l1.03,-0.038l1.056,-0.037l1.082,-0.036l1.107,-0.036l1.133,-0.035l1.161,-0.035l1.188,-0.034l1.216,-0.034l1.243,-0.033l1.273,-0.033l1.3,-0.032l1.33,-0.031l1.36,-0.031l1.389,-0.03l1.419,-0.03l1.45,-0.029l1.481,-0.029l1.512,-0.027l1.544,-0.028l1.575,-0.026l1.608,-0.026l1.641,-0.026l1.673,-0.024l1.707,-0.024l1.74,-0.024l1.776,-0.023l1.809,-0.022l1.843,-0.021l1.879,-0.021l1.914,-0.021l1.951,-0.019l1.986,-0.019l2.023,-0.018l2.059,-0.017l2.097,-0.017l2.134,-0.016l2.172,-0.015l2.21,-0.015l2.249,-0.014l2.288,-0.013l2.327,-0.012l2.366,-0.012l2.407,-0.01l2.447,-0.011l2.487,-0.009l2.528,-0.008l2.569,-0.008l2.611,-0.007l2.653,-0.006l2.696,-0.006l2.737,-0.004l2.781,-0.004l2.825,-0.003l2.868,-0.002l2.911,-0.001l3.097,-0.001l3.193,0.057Z" style="fill:#205d76;"/></g></svg>