<?xml version="1.0" standalone="no"?><!DOCTYPE svg PUBLIC "-//W3C//DTD SVG 1.1//EN" "http://www.w3.org/Graphics/SVG/1.1/DTD/svg11.dtd"><svg width="100%" height="100%" viewBox="0 0 1957 1957" version="1.1" xmlns="http://www.w3.org/2000/svg" xmlns:xlink="http://www.w3.org/1999/xlink" xml:space="preserve" style="fill-rule:evenodd;clip-rule:evenodd;stroke-linecap:round;stroke-linejoin:round;stroke-miterlimit:1.41421;"><g id="_874969456_"><path d="M1158.95,1252.86c-66.422,52.68 -148.877,52.68 -229.042,84.746c4.581,22.904 -2.291,6.871 20.614,38.937c22.904,34.356 91.617,80.165 148.877,98.488c57.261,16.033 112.231,16.033 164.911,9.162c50.389,-9.162 178.653,-43.518 201.558,-38.937c36.646,9.161 119.102,50.389 139.716,54.97c20.613,4.581 22.904,11.452 18.323,-13.743c-6.871,-25.194 -25.195,-64.132 -41.228,-107.65c-13.742,-41.227 18.324,-84.745 22.905,-130.554c6.871,-89.327 9.161,-151.168 -20.614,-242.785c-38.938,-123.683 -125.974,-176.363 -332.112,-183.234c11.452,59.551 18.323,121.392 9.162,183.234c-9.162,61.841 -38.938,194.686 -103.07,247.366Z" style="fill:#62d4d4;"/><path d="M855.866,556.547l1.475,0.003l1.473,0.004l1.469,0.006l1.469,0.007l1.468,0.009l1.464,0.01l1.464,0.011l1.462,0.013l1.46,0.015l1.458,0.015l1.457,0.018l1.454,0.018l1.451,0.02l1.451,0.022l1.449,0.023l1.446,0.024l1.444,0.026l1.443,0.027l1.441,0.029l1.437,0.03l1.436,0.031l1.433,0.033l1.431,0.034l1.43,0.036l1.426,0.037l1.424,0.038l1.422,0.04l1.419,0.041l1.419,0.042l1.414,0.044l1.411,0.045l1.41,0.047l1.409,0.048l1.404,0.049l1.401,0.051l1.4,0.052l1.397,0.053l1.394,0.055l1.392,0.056l1.388,0.057l1.387,0.059l1.382,0.06l1.38,0.061l1.378,0.063l1.374,0.064l1.372,0.065l1.369,0.067l1.365,0.068l1.364,0.069l1.36,0.071l1.356,0.072l1.353,0.073l1.35,0.074l1.347,0.076l1.346,0.077l1.34,0.079l1.337,0.079l1.347,0.082l1.319,0.084l1.305,0.084l1.302,0.086l1.3,0.088l1.299,0.09l1.291,0.092l1.289,0.092l1.286,0.095l1.283,0.097l1.28,0.098l1.274,0.1l1.271,0.102l1.27,0.103l1.266,0.105l1.261,0.107l1.259,0.108l1.256,0.111l1.25,0.111l1.249,0.114l1.246,0.115l1.241,0.117l1.239,0.119l1.234,0.12l1.233,0.122l1.228,0.124l1.224,0.125l1.223,0.128l1.218,0.128l1.216,0.131l1.211,0.132l1.208,0.134l1.206,0.136l1.201,0.137l1.198,0.139l1.195,0.14l1.192,0.142l1.19,0.144l1.186,0.146l1.182,0.148l1.177,0.148l1.175,0.151l1.174,0.152l1.17,0.155l1.166,0.155l1.161,0.157l1.159,0.159l1.158,0.161l1.152,0.163l1.15,0.164l1.147,0.165l1.143,0.168l1.14,0.169l1.137,0.17l1.134,0.173l1.13,0.174l1.128,0.175l1.124,0.178l1.122,0.179l1.117,0.18l1.115,0.183l1.111,0.184l1.108,0.185l1.107,0.187l1.102,0.19l1.099,0.19l1.096,0.193l1.092,0.193l1.09,0.196l1.087,0.197l1.081,0.199l1.081,0.2l1.08,0.203l1.073,0.203l1.071,0.205l1.068,0.208l1.064,0.208l1.063,0.211l1.059,0.212l1.054,0.213l1.054,0.216l1.05,0.217l1.045,0.218l1.045,0.22l1.041,0.222l1.038,0.224l1.033,0.225l1.031,0.227l1.029,0.228l1.026,0.23l1.022,0.232l1.018,0.233l1.017,0.235l1.014,0.237l1.01,0.238l1.008,0.24l1.004,0.241l1.001,0.243l0.999,0.245l0.995,0.246l0.994,0.248l0.99,0.25l0.985,0.251l0.984,0.253l0.983,0.255l0.975,0.255l0.976,0.258l0.972,0.26l0.968,0.26l0.968,0.263l0.963,0.264l0.961,0.266l0.957,0.268l0.954,0.269l0.952,0.27l0.948,0.273l0.947,0.274l0.943,0.275l0.939,0.277l0.936,0.278l0.938,0.282l0.931,0.282l0.927,0.283l0.926,0.285l0.923,0.287l0.922,0.289l0.917,0.29l0.915,0.292l0.911,0.293l0.907,0.294l0.908,0.297l0.903,0.298l0.898,0.299l0.9,0.302l0.896,0.304l0.889,0.303l0.892,0.307l0.887,0.308l0.881,0.309l0.882,0.311l0.878,0.313l0.875,0.314l0.873,0.315l0.87,0.318l0.866,0.319l0.865,0.32l0.861,0.322l0.86,0.324l0.856,0.326l0.852,0.326l0.851,0.329l0.848,0.33l0.844,0.332l0.843,0.333l0.841,0.336l0.836,0.335l0.834,0.339l0.832,0.34l0.831,0.342l0.824,0.342l0.823,0.344l0.821,0.346l0.819,0.348l0.816,0.35l0.811,0.35l0.81,0.352l0.808,0.354l0.806,0.356l0.801,0.357l0.798,0.358l0.798,0.361l0.795,0.363l0.791,0.363l0.787,0.364l0.789,0.368l0.782,0.368l0.78,0.369l0.779,0.372l0.775,0.373l0.772,0.374l0.772,0.376l0.769,0.379l0.764,0.378l0.761,0.381l0.762,0.383l0.758,0.384l0.752,0.384l0.754,0.388l0.75,0.39l0.745,0.389l0.745,0.392l0.743,0.393l0.738,0.395l0.737,0.396l0.734,0.399l0.731,0.399l0.728,0.401l0.726,0.402l0.726,0.406l0.721,0.405l0.719,0.408l0.715,0.408l0.714,0.411l0.712,0.412l0.705,0.412l0.708,0.416l0.705,0.418l0.698,0.416l0.7,0.421l0.696,0.421l0.693,0.423l0.691,0.425l0.687,0.425l0.687,0.427l0.682,0.429l0.681,0.43l0.68,0.433l0.675,0.434l0.673,0.435l0.67,0.436l0.668,0.438l0.666,0.439l0.665,0.442l0.66,0.443l0.657,0.443l0.656,0.446l0.654,0.447l0.65,0.449l0.649,0.45l0.645,0.452l0.645,0.453l0.641,0.455l0.636,0.455l0.639,0.459l0.632,0.459l0.631,0.46l0.631,0.464l0.624,0.462l0.622,0.464l0.623,0.468l0.619,0.468l0.616,0.469l0.614,0.471l0.613,0.474l0.61,0.474l0.604,0.473l0.604,0.478l0.604,0.48l0.598,0.479l0.597,0.48l0.596,0.484l0.592,0.484l0.589,0.486l0.588,0.487l0.585,0.488l0.58,0.489l0.752,0.636l0.744,0.672l0.572,0.52l0.57,0.521l0.569,0.524l0.567,0.526l0.563,0.525l0.562,0.527l0.561,0.531l0.557,0.53l0.556,0.532l0.556,0.535l0.552,0.536l0.548,0.535l0.548,0.538l0.548,0.542l0.543,0.541l0.543,0.543l0.541,0.545l0.537,0.546l0.536,0.547l0.533,0.548l0.534,0.551l0.529,0.552l0.53,0.554l0.524,0.553l0.525,0.556l0.523,0.559l0.521,0.559l0.518,0.561l0.515,0.56l0.516,0.565l0.512,0.564l0.511,0.566l0.51,0.57l0.505,0.566l0.504,0.57l0.504,0.574l0.501,0.572l0.498,0.574l0.498,0.577l0.495,0.576l0.493,0.579l0.492,0.581l0.489,0.581l0.486,0.581l0.486,0.584l0.484,0.587l0.482,0.587l0.48,0.588l0.477,0.588l0.476,0.591l0.475,0.593l0.471,0.592l0.471,0.595l0.469,0.597l0.466,0.596l0.465,0.6l0.463,0.599l0.46,0.601l0.46,0.603l0.457,0.603l0.455,0.605l0.454,0.606l0.452,0.609l0.45,0.609l0.447,0.608l0.446,0.612l0.445,0.612l0.441,0.613l0.442,0.616l0.439,0.617l0.436,0.616l0.435,0.619l0.433,0.62l0.431,0.62l0.431,0.623l0.428,0.625l0.425,0.623l0.425,0.626l0.422,0.627l0.42,0.627l0.42,0.632l0.416,0.629l0.416,0.631l0.414,0.635l0.412,0.634l0.41,0.635l0.407,0.636l0.406,0.636l0.406,0.64l0.402,0.64l0.401,0.639l0.4,0.643l0.398,0.644l0.396,0.645l0.393,0.644l0.393,0.647l0.39,0.647l0.389,0.648l0.389,0.653l0.385,0.65l0.382,0.649l0.384,0.656l0.38,0.654l0.377,0.653l0.378,0.658l0.375,0.658l0.373,0.657l0.374,0.662l0.37,0.661l0.367,0.659l0.368,0.664l0.365,0.664l0.362,0.663l0.363,0.667l0.359,0.666l0.359,0.667l0.357,0.671l0.355,0.669l0.354,0.671l0.352,0.673l0.35,0.672l0.349,0.674l0.346,0.674l0.346,0.676l0.345,0.679l0.341,0.676l0.34,0.678l0.339,0.682l0.337,0.68l0.336,0.681l0.335,0.685l0.332,0.682l0.33,0.685l0.33,0.686l0.328,0.687l0.326,0.687l0.324,0.688l0.323,0.69l0.322,0.69l0.319,0.69l0.319,0.693l0.317,0.694l0.314,0.693l0.315,0.697l0.312,0.695l0.31,0.696l0.309,0.697l0.308,0.7l0.306,0.701l0.304,0.698l0.302,0.701l0.303,0.704l0.299,0.702l0.298,0.703l0.298,0.707l0.295,0.705l0.293,0.705l0.292,0.707l0.292,0.709l0.29,0.711l0.287,0.708l0.287,0.712l0.285,0.711l0.283,0.712l0.282,0.714l0.281,0.714l0.279,0.716l0.278,0.715l0.276,0.717l0.274,0.715l0.273,0.719l0.274,0.722l0.269,0.718l0.269,0.721l0.268,0.721l0.266,0.722l0.265,0.723l0.264,0.725l0.262,0.726l0.26,0.724l0.258,0.724l0.259,0.728l0.257,0.729l0.254,0.727l0.254,0.732l0.252,0.728l0.251,0.73l0.25,0.733l0.248,0.734l0.247,0.732l0.245,0.733l0.244,0.734l0.242,0.734l0.242,0.738l0.24,0.737l0.239,0.737l0.238,0.74l0.235,0.738l0.234,0.738l0.235,0.743l0.231,0.74l0.231,0.742l0.229,0.743l0.228,0.741l0.227,0.746l0.226,0.745l0.223,0.743l0.223,0.746l0.223,0.748l0.22,0.748l0.219,0.748l0.218,0.749l0.216,0.747l0.216,0.752l0.214,0.751l0.212,0.75l0.212,0.753l0.21,0.754l0.209,0.751l0.207,0.753l0.207,0.756l0.206,0.756l0.203,0.755l0.204,0.758l0.201,0.756l0.2,0.757l0.199,0.76l0.198,0.758l0.197,0.76l0.196,0.762l0.194,0.76l0.193,0.761l0.192,0.764l0.19,0.76l0.19,0.763l0.188,0.766l0.188,0.764l0.186,0.766l0.184,0.765l0.183,0.764l0.184,0.769l0.181,0.767l0.18,0.767l0.179,0.771l0.178,0.77l0.176,0.767l0.176,0.77l0.175,0.772l0.173,0.773l0.172,0.769l0.171,0.774l0.17,0.773l0.169,0.772l0.168,0.776l0.11,0.511l0.127,0.509l0.19,0.769l0.191,0.773l0.19,0.771l0.188,0.77l0.188,0.773l0.187,0.775l0.185,0.771l0.186,0.774l0.184,0.776l0.184,0.775l0.182,0.775l0.181,0.773l0.182,0.779l0.18,0.779l0.178,0.774l0.178,0.778l0.178,0.78l0.176,0.779l0.175,0.778l0.175,0.782l0.173,0.78l0.173,0.78l0.172,0.783l0.171,0.781l0.169,0.782l0.17,0.784l0.168,0.783l0.167,0.784l0.166,0.785l0.166,0.787l0.164,0.784l0.163,0.786l0.163,0.788l0.162,0.788l0.16,0.787l0.16,0.79l0.159,0.79l0.157,0.788l0.157,0.791l0.156,0.789l0.155,0.792l0.154,0.793l0.153,0.792l0.152,0.794l0.151,0.792l0.15,0.795l0.15,0.795l0.147,0.793l0.148,0.796l0.146,0.8l0.146,0.798l0.143,0.795l0.144,0.798l0.142,0.799l0.141,0.8l0.141,0.802l0.138,0.799l0.139,0.801l0.137,0.804l0.136,0.8l0.135,0.803l0.135,0.806l0.133,0.804l0.132,0.805l0.131,0.805l0.13,0.805l0.13,0.809l0.128,0.807l0.127,0.808l0.126,0.81l0.125,0.809l0.123,0.809l0.123,0.81l0.122,0.812l0.121,0.811l0.12,0.812l0.118,0.815l0.118,0.814l0.117,0.814l0.115,0.814l0.115,0.817l0.113,0.818l0.112,0.815l0.111,0.816l0.111,0.82l0.109,0.82l0.108,0.821l0.107,0.819l0.106,0.821l0.104,0.823l0.104,0.821l0.102,0.823l0.102,0.825l0.1,0.822l0.099,0.826l0.099,0.826l0.097,0.827l0.096,0.828l0.094,0.826l0.094,0.828l0.093,0.832l0.091,0.83l0.09,0.829l0.09,0.831l0.088,0.832l0.087,0.833l0.086,0.836l0.085,0.834l0.083,0.832l0.082,0.836l0.082,0.838l0.08,0.837l0.079,0.837l0.078,0.838l0.077,0.839l0.075,0.842l0.074,0.84l0.074,0.84l0.072,0.842l0.071,0.842l0.07,0.845l0.068,0.846l0.067,0.844l0.067,0.845l0.065,0.846l0.064,0.849l0.062,0.849l0.061,0.845l0.061,0.851l0.059,0.852l0.058,0.85l0.057,0.852l0.055,0.852l0.055,0.854l0.053,0.855l0.052,0.854l0.05,0.856l0.05,0.855l0.048,0.858l0.047,0.858l0.046,0.858l0.045,0.86l0.043,0.861l0.042,0.861l0.041,0.863l0.04,0.86l0.038,0.864l0.038,0.867l0.035,0.863l0.035,0.864l0.034,0.869l0.032,0.868l0.031,0.868l0.03,0.869l0.028,0.868l0.028,0.872l0.026,0.872l0.024,0.872l0.024,0.873l0.022,0.874l0.021,0.874l0.02,0.876l0.018,0.878l0.017,0.874l0.016,0.878l0.015,0.883l0.013,0.879l0.012,0.878l0.01,0.883l0.01,0.881l0.008,0.882l0.007,0.886l0.005,0.884l0.005,0.887l0.002,0.885l0.002,0.887l0,0.889l-0.001,0.888l-0.002,0.891l-0.004,0.892l-0.005,0.89l-0.006,0.892l-0.007,0.894l-0.009,0.893l-0.011,0.895l-0.011,0.897l-0.013,0.896l-0.014,0.898l-0.016,0.899l-0.017,0.9l-0.018,0.899l-0.02,0.902l-0.021,0.903l-0.022,0.901l-0.024,0.904l-0.025,0.905l-0.026,0.906l-0.028,0.907l-0.029,0.908l-0.031,0.908l-0.031,0.908l-0.033,0.91l-0.035,0.913l-0.036,0.912l-0.037,0.911l-0.039,0.914l-0.04,0.917l-0.042,0.915l-0.042,0.914l-0.045,0.917l-0.045,0.921l-0.047,0.919l-0.049,0.92l-0.05,0.923l-0.051,0.921l-0.052,0.923l-0.054,0.923l-0.056,0.925l-0.057,0.927l-0.058,0.927l-0.06,0.927l-0.061,0.93l-0.062,0.929l-0.064,0.929l-0.065,0.933l-0.067,0.934l-0.069,0.933l-0.069,0.933l-0.071,0.935l-0.073,0.937l-0.074,0.938l-0.075,0.938l-0.077,0.94l-0.078,0.941l-0.08,0.94l-0.081,0.941l-0.083,0.944l-0.084,0.945l-0.085,0.946l-0.087,0.946l-0.089,0.946l-0.09,0.949l-0.091,0.95l-0.093,0.948l-0.094,0.952l-0.096,0.952l-0.097,0.954l-0.099,0.954l-0.1,0.956l-0.102,0.956l-0.103,0.957l-0.105,0.957l-0.106,0.959l-0.108,0.962l-0.109,0.959l-0.11,0.961l-0.112,0.961l-0.112,0.96l-0.114,0.961l-0.116,0.965l-0.117,0.966l-0.118,0.967l-0.12,0.97l-0.121,0.969l-0.122,0.969l-0.124,0.973l-0.125,0.974l-0.127,0.974l-0.128,0.974l-0.13,0.977l-0.131,0.981l-0.133,0.977l-0.134,0.981l-0.136,0.982l-0.137,0.982l-0.139,0.983l-0.14,0.986l-0.142,0.985l-0.144,0.986l-0.145,0.989l-0.147,0.99l-0.149,0.988l-0.15,0.992l-0.152,0.991l-0.153,0.993l-0.156,0.994l-0.156,0.992l-0.159,0.996l-0.161,0.999l-0.162,0.995l-0.163,0.996l-0.166,1.001l-0.168,0.999l-0.169,1l-0.171,1.002l-0.173,1l-0.174,1.002l-0.177,1.002l-0.178,1.004l-0.181,1.007l-0.182,1.005l-0.184,1.004l-0.186,1.006l-0.188,1.006l-0.19,1.007l-0.192,1.008l-0.194,1.01l-0.196,1.01l-0.198,1.008l-0.199,1.008l-0.202,1.011l-0.204,1.013l-0.206,1.011l-0.208,1.011l-0.21,1.011l-0.212,1.012l-0.215,1.014l-0.216,1.014l-0.219,1.013l-0.221,1.013l-0.222,1.014l-0.226,1.014l-0.227,1.015l-0.229,1.014l-0.232,1.015l-0.234,1.016l-0.236,1.016l-0.238,1.014l-0.241,1.017l-0.243,1.016l-0.245,1.014l-0.248,1.018l-0.25,1.015l-0.252,1.014l-0.255,1.018l-0.257,1.017l-0.259,1.015l-0.262,1.017l-0.265,1.017l-0.266,1.015l-0.269,1.016l-0.272,1.016l-0.274,1.016l-0.276,1.016l-0.279,1.015l-0.282,1.016l-0.284,1.016l-0.286,1.013l-0.289,1.015l-0.292,1.016l-0.295,1.014l-0.297,1.015l-0.298,1.011l-0.303,1.015l-0.305,1.015l-0.307,1.012l-0.31,1.012l-0.313,1.012l-0.315,1.012l-0.319,1.012l-0.321,1.011l-0.323,1.009l-0.326,1.01l-0.33,1.011l-0.332,1.01l-0.334,1.008l-0.338,1.007l-0.34,1.008l-0.343,1.006l-0.346,1.007l-0.35,1.007l-0.352,1.005l-0.354,1.003l-0.357,1.003l-0.361,1.004l-0.364,1.004l-0.366,1l-0.369,1.001l-0.373,1.002l-0.376,1l-0.378,0.997l-0.379,0.994l-0.194,0.503l-0.192,0.496l-0.193,0.498l-0.196,0.502l-0.196,0.5l-0.194,0.494l-0.195,0.494l-0.198,0.499l-0.199,0.499l-0.199,0.496l-0.199,0.496l-0.2,0.496l-0.202,0.498l-0.201,0.494l-0.203,0.496l-0.204,0.495l-0.204,0.494l-0.205,0.496l-0.206,0.495l-0.207,0.494l-0.207,0.493l-0.209,0.496l-0.208,0.491l-0.21,0.494l-0.211,0.493l-0.211,0.492l-0.213,0.494l-0.213,0.493l-0.214,0.492l-0.215,0.491l-0.215,0.49l-0.216,0.491l-0.217,0.491l-0.219,0.492l-0.219,0.49l-0.219,0.489l-0.221,0.491l-0.22,0.486l-0.223,0.49l-0.223,0.49l-0.224,0.49l-0.226,0.489l-0.225,0.487l-0.226,0.486l-0.226,0.486l-0.229,0.488l-0.229,0.489l-0.23,0.485l-0.23,0.485l-0.233,0.489l-0.232,0.484l-0.231,0.482l-0.234,0.485l-0.236,0.486l-0.236,0.484l-0.236,0.483l-0.239,0.487l-0.237,0.479l-0.238,0.481l-0.241,0.485l-0.242,0.483l-0.241,0.48l-0.241,0.479l-0.246,0.486l-0.244,0.479l-0.244,0.478l-0.249,0.485l-0.246,0.477l-0.246,0.476l-0.25,0.481l-0.251,0.48l-0.249,0.476l-0.252,0.478l-0.253,0.477l-0.252,0.476l-0.255,0.478l-0.255,0.476l-0.257,0.477l-0.256,0.472l-0.257,0.475l-0.26,0.476l-0.26,0.475l-0.261,0.475l-0.26,0.469l-0.263,0.474l-0.264,0.474l-0.264,0.471l-0.265,0.473l-0.267,0.472l-0.267,0.471l-0.266,0.466l-0.269,0.471l-0.272,0.473l-0.269,0.465l-0.272,0.471l-0.275,0.471l-0.271,0.463l-0.274,0.468l-0.276,0.467l-0.276,0.466l-0.279,0.469l-0.28,0.467l-0.277,0.462l-0.279,0.463l-0.283,0.467l-0.282,0.463l-0.281,0.46l-0.285,0.465l-0.286,0.464l-0.285,0.461l-0.288,0.461l-0.287,0.46l-0.291,0.464l-0.288,0.457l-0.29,0.458l-0.294,0.463l-0.29,0.454l-0.295,0.46l-0.295,0.458l-0.295,0.456l-0.297,0.457l-0.298,0.457l-0.298,0.454l-0.3,0.456l-0.301,0.454l-0.302,0.454l-0.303,0.455l-0.302,0.451l-0.305,0.453l-0.306,0.452l-0.306,0.451l-0.307,0.448l-0.31,0.453l-0.31,0.45l-0.31,0.449l-0.313,0.45l-0.311,0.446l-0.313,0.447l-0.315,0.447l-0.317,0.448l-0.316,0.445l-0.317,0.444l-0.318,0.445l-0.321,0.446l-0.322,0.444l-0.32,0.441l-0.323,0.443l-0.325,0.443l-0.324,0.44l-0.327,0.442l-0.326,0.439l-0.327,0.439l-0.33,0.44l-0.33,0.438l-0.332,0.439l-0.333,0.438l-0.332,0.434l-0.333,0.435l-0.336,0.436l-0.338,0.437l-0.338,0.435l-0.337,0.431l-0.339,0.433l-0.341,0.433l-0.342,0.432l-0.342,0.431l-0.344,0.43l-0.344,0.429l-0.348,0.432l-0.347,0.427l-0.347,0.428l-0.348,0.425l-0.351,0.428l-0.352,0.427l-0.351,0.423l-0.354,0.426l-0.356,0.425l-0.355,0.423l-0.356,0.422l-0.357,0.421l-0.359,0.422l-0.361,0.422l-0.36,0.419l-0.363,0.42l-0.362,0.418l-0.365,0.418l-0.366,0.418l-0.367,0.417l-0.368,0.416l-0.367,0.414l-0.369,0.413l-0.371,0.414l-0.372,0.414l-0.373,0.412l-0.374,0.412l-0.376,0.411l-0.378,0.412l-0.377,0.41l-0.377,0.407l-0.38,0.408l-0.38,0.407l-0.382,0.406l-0.385,0.408l-0.383,0.404l-0.385,0.404l-0.386,0.403l-0.389,0.405l-0.388,0.401l-0.389,0.401l-0.392,0.402l-0.392,0.399l-0.394,0.4l-0.393,0.398l-0.395,0.396l-0.397,0.398l-0.399,0.397l-0.397,0.394l-0.399,0.394l-0.404,0.396l-0.403,0.393l-0.4,0.389l-0.405,0.392l-0.41,0.395l-0.405,0.388l-0.406,0.388l-0.41,0.388l-0.41,0.388l-0.412,0.386l-0.413,0.386l-0.413,0.385l-0.415,0.384l-0.416,0.384l-0.415,0.38l-0.42,0.384l-0.421,0.382l-0.419,0.378l-0.423,0.381l-0.423,0.377l-0.423,0.378l-0.427,0.377l-0.426,0.376l-0.429,0.376l-0.428,0.373l-0.429,0.373l-0.432,0.373l-0.432,0.371l-0.434,0.372l-0.434,0.368l-0.435,0.368l-0.439,0.371l-0.439,0.368l-0.439,0.365l-0.439,0.364l-0.442,0.365l-0.443,0.364l-0.445,0.364l-0.446,0.362l-0.444,0.359l-0.448,0.361l-0.451,0.361l-0.449,0.357l-0.451,0.357l-0.453,0.357l-0.451,0.354l-0.454,0.354l-0.456,0.354l-0.455,0.351l-0.458,0.352l-0.457,0.349l-0.458,0.349l-0.46,0.348l-0.46,0.346l-0.467,0.351l-0.46,0.343l-0.462,0.342l-0.469,0.347l-0.463,0.34l-0.467,0.342l-0.469,0.341l-0.469,0.339l-0.47,0.339l-0.468,0.336l-0.47,0.335l-0.475,0.337l-0.474,0.335l-0.475,0.334l-0.478,0.335l-0.473,0.329l-0.475,0.33l-0.479,0.33l-0.48,0.33l-0.481,0.329l-0.48,0.326l-0.483,0.327l-0.484,0.326l-0.481,0.323l-0.483,0.322l-0.487,0.323l-0.486,0.322l-0.489,0.322l-0.487,0.319l-0.487,0.317l-0.489,0.318l-0.493,0.318l-0.493,0.318l-0.491,0.313l-0.493,0.315l-0.494,0.313l-0.496,0.313l-0.494,0.31l-0.496,0.311l-0.501,0.311l-0.495,0.307l-0.499,0.309l-0.5,0.307l-0.503,0.307l-0.5,0.304l-0.501,0.304l-0.507,0.306l-0.5,0.3l-0.504,0.302l-0.508,0.302l-0.505,0.3l-0.511,0.301l-0.508,0.298l-0.504,0.295l-0.509,0.296l-0.514,0.298l-0.511,0.295l-0.51,0.293l-0.513,0.293l-0.513,0.292l-0.517,0.293l-0.512,0.289l-0.515,0.29l-0.516,0.289l-0.518,0.288l-0.521,0.289l-0.516,0.285l-0.519,0.285l-0.522,0.286l-0.518,0.283l-0.523,0.283l-0.521,0.282l-0.524,0.282l-0.524,0.281l-0.523,0.279l-0.527,0.28l-0.522,0.276l-0.528,0.278l-0.53,0.278l-0.528,0.276l-0.527,0.274l-0.53,0.274l-0.527,0.272l-0.531,0.273l-0.534,0.273l-0.53,0.27l-0.533,0.271l-0.533,0.269l-0.532,0.268l-0.537,0.268l-0.536,0.268l-0.535,0.265l-0.535,0.265l-0.538,0.265l-0.539,0.264l-0.535,0.262l-0.54,0.263l-0.541,0.262l-0.539,0.26l-0.543,0.261l-0.541,0.259l-0.541,0.257l-0.543,0.258l-0.542,0.257l-0.543,0.255l-0.548,0.257l-0.546,0.255l-0.542,0.252l-0.548,0.254l-0.547,0.252l-0.546,0.252l-0.551,0.251l-0.545,0.249l-0.549,0.249l-0.552,0.25l-0.55,0.248l-0.55,0.246l-0.551,0.247l-0.553,0.246l-0.554,0.245l-0.552,0.244l-0.553,0.243l-0.557,0.244l-0.552,0.241l-0.554,0.241l-0.556,0.24l-0.558,0.241l-0.557,0.239l-0.554,0.237l-0.561,0.239l-0.561,0.238l-0.554,0.234l-0.558,0.235l-0.562,0.236l-0.563,0.235l-0.56,0.233l-0.559,0.232l-0.563,0.233l-0.561,0.23l-0.563,0.231l-0.565,0.231l-0.562,0.228l-0.566,0.229l-0.564,0.228l-0.564,0.227l-0.565,0.226l-0.568,0.227l-0.567,0.225l-0.564,0.223l-0.568,0.224l-0.57,0.224l-0.567,0.222l-0.569,0.222l-0.569,0.221l-0.569,0.22l-0.576,0.222l-1.136,0.435l-1.143,0.435l-1.144,0.432l-1.147,0.43l-1.147,0.427l-1.149,0.424l-1.152,0.422l-1.15,0.419l-1.155,0.417l-1.156,0.414l-1.155,0.411l-1.158,0.409l-1.161,0.407l-1.161,0.404l-1.161,0.401l-1.163,0.399l-1.165,0.397l-1.166,0.394l-1.167,0.392l-1.167,0.389l-1.17,0.387l-1.171,0.385l-1.172,0.382l-1.17,0.38l-1.174,0.377l-1.176,0.376l-1.175,0.372l-1.177,0.371l-1.178,0.368l-1.177,0.366l-1.179,0.364l-1.179,0.361l-1.182,0.36l-1.182,0.357l-1.182,0.354l-1.183,0.353l-1.184,0.35l-1.185,0.349l-1.184,0.345l-1.187,0.344l-1.186,0.342l-1.186,0.34l-1.189,0.337l-1.188,0.335l-1.186,0.333l-1.191,0.332l-1.189,0.329l-1.19,0.327l-1.19,0.325l-1.189,0.323l-1.192,0.321l-1.191,0.319l-1.192,0.317l-1.191,0.315l-1.192,0.313l-1.191,0.311l-1.192,0.309l-1.194,0.307l-1.192,0.305l-1.191,0.303l-1.193,0.302l-1.193,0.3l-1.191,0.297l-1.193,0.296l-1.192,0.294l-1.192,0.292l-1.193,0.29l-1.191,0.289l-1.194,0.287l-1.192,0.284l-1.189,0.283l-1.191,0.281l-1.191,0.28l-1.19,0.278l-1.191,0.276l-1.19,0.274l-1.188,0.272l-1.19,0.272l-1.189,0.269l-1.186,0.267l-1.188,0.266l-1.188,0.265l-1.187,0.262l-1.184,0.261l-1.186,0.26l-1.184,0.257l-1.184,0.256l-1.182,0.255l-1.183,0.253l-1.181,0.251l-1.181,0.25l-1.181,0.249l-1.178,0.246l-1.178,0.245l-1.177,0.244l-1.177,0.243l-1.176,0.24l-1.174,0.24l-1.172,0.237l-1.173,0.237l-1.173,0.235l-1.167,0.233l-1.169,0.232l-1.17,0.231l-1.167,0.23l-1.164,0.227l-1.164,0.227l-1.163,0.225l-1.162,0.224l-1.16,0.223l-1.158,0.221l-1.158,0.22l-1.156,0.218l-1.154,0.218l-1.153,0.216l-1.153,0.215l-1.151,0.213l-1.147,0.212l-1.145,0.211l-1.146,0.21l-1.145,0.209l-1.142,0.207l-1.14,0.206l-1.138,0.205l-1.138,0.204l-1.133,0.203l-1.133,0.201l-1.133,0.201l-1.128,0.199l-1.128,0.198l-1.129,0.198l-2.241,0.39l-2.238,0.387l-2.229,0.382l-2.22,0.378l-2.212,0.374l-2.202,0.371l-2.193,0.366l-2.183,0.363l-2.175,0.359l-2.164,0.355l-2.152,0.352l-2.144,0.349l-2.133,0.345l-2.121,0.342l-2.111,0.338l-2.099,0.336l-2.087,0.333l-2.076,0.329l-2.063,0.327l-2.085,0.33l-2.13,0.327l-2.089,0.319l-2.08,0.315l-2.068,0.313l-2.057,0.308l-2.048,0.306l-2.037,0.303l-2.027,0.299l-2.016,0.296l-2.006,0.293l-1.995,0.289l-1.986,0.287l-1.976,0.283l-1.966,0.28l-1.954,0.276l-1.946,0.274l-1.936,0.271l-1.926,0.267l-1.917,0.264l-1.906,0.261l-1.897,0.258l-1.887,0.255l-1.878,0.252l-1.869,0.249l-1.859,0.246l-1.85,0.243l-1.84,0.239l-1.832,0.237l-1.822,0.234l-1.812,0.231l-1.805,0.228l-1.796,0.225l-1.786,0.222l-1.777,0.219l-1.769,0.216l-1.759,0.213l-1.752,0.21l-1.743,0.208l-1.733,0.204l-1.726,0.202l-1.718,0.199l-1.708,0.196l-1.701,0.193l-1.692,0.191l-1.685,0.187l-1.675,0.185l-1.668,0.182l-1.66,0.18l-1.651,0.176l-1.644,0.174l-1.636,0.172l-1.63,0.169l-1.621,0.165l-1.612,0.163l-1.604,0.161l-1.599,0.158l-1.591,0.155l-1.582,0.153l-1.576,0.15l-1.568,0.147l-1.562,0.145l-1.553,0.142l-1.545,0.14l-1.542,0.138l-1.533,0.134l-1.524,0.132l-1.519,0.13l-1.513,0.127l-1.504,0.125l-1.498,0.122l-1.492,0.12l-1.485,0.117l-1.479,0.115l-1.471,0.112l-1.466,0.111l-1.46,0.107l-1.451,0.105l-1.447,0.103l-1.441,0.101l-1.434,0.098l-1.427,0.096l-1.423,0.094l-1.416,0.091l-1.411,0.089l-1.404,0.086l-1.398,0.085l-1.392,0.082l-1.387,0.08l-1.383,0.078l-1.375,0.075l-1.37,0.074l-1.365,0.071l-1.359,0.069l-1.355,0.066l-1.348,0.065l-1.343,0.062l-1.338,0.061l-1.333,0.058l-1.33,0.056l-1.322,0.054l-1.317,0.052l-1.315,0.05l-1.308,0.048l-1.303,0.046l-1.3,0.044l-1.294,0.041l-1.289,0.04l-1.284,0.038l-1.281,0.036l-1.278,0.034l-1.27,0.032l-1.267,0.03l-1.264,0.028l-1.258,0.026l-1.254,0.024l-1.251,0.023l-1.246,0.02l-1.243,0.019l-1.238,0.017l-1.235,0.015l-1.23,0.013l-1.228,0.011l-1.223,0.01l-1.219,0.008l-1.215,0.006l-1.213,0.004l-1.21,0.003l-1.563,0.001l-1.555,-0.071l-1.191,-0.056l-1.186,-0.057l-1.182,-0.057l-1.179,-0.058l-1.177,-0.059l-1.173,-0.06l-1.169,-0.061l-1.165,-0.061l-1.163,-0.062l-1.161,-0.064l-1.154,-0.064l-1.153,-0.065l-1.149,-0.066l-1.146,-0.066l-1.142,-0.068l-1.138,-0.068l-1.137,-0.07l-1.13,-0.07l-1.128,-0.071l-1.125,-0.072l-1.122,-0.072l-1.118,-0.074l-1.112,-0.074l-1.113,-0.075l-1.107,-0.077l-1.102,-0.077l-1.1,-0.078l-1.097,-0.078l-1.092,-0.08l-1.09,-0.081l-1.083,-0.081l-1.082,-0.082l-1.08,-0.083l-1.075,-0.084l-1.069,-0.085l-1.067,-0.086l-1.064,-0.086l-1.058,-0.087l-1.056,-0.089l-1.054,-0.089l-1.049,-0.09l-1.043,-0.091l-1.041,-0.092l-1.037,-0.092l-1.034,-0.094l-1.03,-0.094l-1.024,-0.095l-1.022,-0.096l-1.02,-0.098l-1.012,-0.098l-1.011,-0.098l-1.007,-0.1l-1.003,-0.1l-0.999,-0.102l-0.993,-0.102l-0.993,-0.104l-0.985,-0.104l-0.983,-0.104l-0.98,-0.106l-0.975,-0.107l-0.972,-0.108l-0.965,-0.108l-0.966,-0.11l-0.96,-0.11l-0.953,-0.111l-0.952,-0.112l-0.947,-0.113l-0.944,-0.114l-0.939,-0.115l-0.934,-0.116l-0.931,-0.116l-0.93,-0.118l-0.921,-0.118l-0.919,-0.119l-0.915,-0.121l-0.911,-0.121l-0.907,-0.122l-0.901,-0.123l-0.901,-0.124l-0.894,-0.125l-0.889,-0.125l-0.886,-0.127l-0.882,-0.128l-0.876,-0.128l-0.874,-0.129l-0.872,-0.131l-0.865,-0.132l-0.859,-0.132l-0.857,-0.133l-0.853,-0.134l-0.849,-0.135l-0.844,-0.136l-0.841,-0.137l-0.836,-0.138l-0.829,-0.139l-0.827,-0.14l-0.824,-0.141l-0.819,-0.141l-0.815,-0.143l-0.81,-0.144l-0.806,-0.145l-0.8,-0.145l-0.798,-0.147l-0.793,-0.148l-0.789,-0.148l-0.785,-0.15l-0.78,-0.151l-0.776,-0.152l-0.772,-0.153l-0.768,-0.154l-0.761,-0.154l-0.758,-0.156l-0.755,-0.157l-0.75,-0.158l-0.746,-0.159l-0.742,-0.16l-0.737,-0.161l-0.73,-0.162l-0.729,-0.163l-0.724,-0.165l-0.72,-0.165l-0.716,-0.167l-0.711,-0.168l-0.707,-0.169l-0.7,-0.169l-0.699,-0.171l-0.857,-0.213l-0.79,-0.217l-0.614,-0.17l-0.609,-0.169l-0.602,-0.17l-0.594,-0.168l-0.582,-0.166l-0.574,-0.164l-0.572,-0.165l-1.107,-0.32l-1.078,-0.314l-1.049,-0.306l-1.015,-0.295l-0.99,-0.286l-0.478,-0.137l-0.472,-0.135l-0.467,-0.133l-0.459,-0.129l-0.447,-0.124l-0.442,-0.122l-0.437,-0.12l-0.426,-0.115l-0.417,-0.11l-0.413,-0.108l-0.409,-0.105l-0.396,-0.1l-0.389,-0.096l-0.384,-0.094l-0.377,-0.088l-0.368,-0.085l-0.368,-0.083l-0.173,-0.037l-0.178,-0.039l-0.169,-0.036l-0.177,-0.036l-0.175,-0.036l-0.167,-0.034l-0.165,-0.032l-0.173,-0.034l-0.156,-0.029l-0.164,-0.031l-0.17,-0.03l-0.153,-0.028l-0.162,-0.027l-0.16,-0.027l-0.151,-0.025l-0.15,-0.024l-0.15,-0.023l-0.159,-0.024l-0.149,-0.022l-0.148,-0.02l-0.147,-0.02l-0.147,-0.02l-0.148,-0.018l-0.137,-0.017l-0.138,-0.016l-0.146,-0.016l-0.136,-0.014l-0.136,-0.014l-0.145,-0.013l-0.127,-0.012l-0.136,-0.011l-0.135,-0.01l-0.127,-0.009l-0.144,-0.01l-0.127,-0.008l-0.126,-0.006l-0.135,-0.007l-0.118,-0.005l-0.127,-0.005l-0.136,-0.004l-0.127,-0.003l-0.119,-0.002l-0.127,-0.002l-0.128,-0.001l-0.12,0l-0.12,0.001l-0.13,0.002l-0.121,0.002l-0.122,0.003l-0.122,0.004l-0.115,0.005l-0.132,0.006l-0.125,0.006l-0.108,0.006l-0.127,0.009l-0.127,0.009l-0.12,0.009l-0.121,0.01l-0.122,0.011l-0.122,0.012l-0.125,0.014l-0.125,0.014l-0.119,0.014l-0.128,0.016l-0.129,0.017l-0.123,0.017l-0.124,0.018l-0.125,0.019l-0.128,0.021l-0.129,0.021l-0.131,0.023l-0.132,0.024l-0.133,0.025l-0.129,0.025l-0.13,0.026l-0.139,0.029l-0.133,0.029l-0.136,0.03l-0.145,0.033l-0.132,0.031l-0.142,0.035l-0.144,0.036l-0.139,0.035l-0.147,0.039l-0.15,0.041l-0.145,0.04l-0.148,0.042l-0.157,0.046l-0.145,0.043l-0.155,0.047l-0.157,0.049l-0.158,0.05l-0.161,0.053l-0.158,0.052l-0.16,0.054l-0.168,0.058l-0.165,0.058l-0.169,0.061l-0.175,0.064l-0.165,0.061l-0.176,0.067l-0.178,0.068l-0.174,0.068l-0.183,0.073l-0.179,0.072l-0.182,0.075l-0.19,0.079l-0.189,0.08l-0.19,0.082l-0.192,0.084l-0.195,0.086l-0.198,0.089l-0.202,0.092l-0.198,0.091l-0.2,0.093l-0.203,0.096l-0.207,0.1l-0.215,0.104l-0.21,0.103l-0.215,0.107l-0.219,0.11l-0.214,0.109l-0.222,0.114l-0.227,0.118l-0.223,0.118l-0.227,0.12l-0.228,0.123l-0.237,0.129l-0.235,0.128l-0.233,0.129l-0.244,0.137l-0.237,0.134l-0.243,0.139l-0.253,0.146l-0.246,0.143l-0.251,0.147l-0.252,0.149l-0.256,0.153l-0.258,0.155l-0.26,0.158l-0.264,0.162l-0.267,0.165l-0.269,0.168l-0.268,0.168l-0.271,0.171l-0.274,0.175l-0.28,0.18l-0.28,0.181l-0.283,0.184l-0.285,0.187l-0.284,0.188l-0.291,0.193l-0.293,0.197l-0.295,0.2l-0.297,0.201l-0.299,0.205l-0.301,0.206l-0.304,0.211l-0.31,0.216l-0.309,0.217l-0.31,0.219l-0.316,0.224l-0.315,0.224l-0.322,0.231l-0.323,0.234l-0.321,0.233l-0.329,0.24l-0.329,0.242l-0.33,0.243l-0.338,0.251l-0.338,0.252l-0.338,0.253l-0.343,0.258l-0.347,0.263l-0.348,0.264l-0.349,0.267l-0.352,0.27l-0.356,0.274l-0.358,0.278l-0.361,0.281l-0.363,0.284l-0.367,0.288l-0.37,0.292l-0.37,0.293l-0.294,0.234l-0.301,0.279l-0.74,0.693l-0.753,0.706l-0.763,0.719l-0.772,0.731l-0.783,0.744l-0.794,0.757l-0.802,0.767l-0.812,0.78l-0.822,0.791l-0.829,0.801l-0.839,0.813l-0.848,0.824l-0.856,0.835l-0.865,0.845l-0.872,0.855l-0.88,0.864l-0.888,0.875l-0.895,0.883l-0.902,0.893l-0.91,0.902l-0.916,0.911l-0.924,0.92l-0.929,0.927l-0.936,0.936l-0.942,0.944l-0.948,0.952l-0.953,0.959l-0.959,0.966l-0.965,0.975l-0.97,0.98l-0.975,0.988l-0.98,0.994l-0.985,1l-0.988,1.006l-0.993,1.012l-0.999,1.019l-1.001,1.023l-1.004,1.028l-1.009,1.034l-1.012,1.039l-1.016,1.043l-1.019,1.048l-1.021,1.052l-1.024,1.057l-1.027,1.06l-1.029,1.064l-1.031,1.067l-1.033,1.07l-1.035,1.074l-1.038,1.077l-1.037,1.079l-1.04,1.082l-1.04,1.083l-2.085,2.175l-2.087,2.181l-2.088,2.185l-2.088,2.189l-2.086,2.192l-2.083,2.192l-2.079,2.19l-2.073,2.187l-2.065,2.184l-2.058,2.177l-2.047,2.169l-2.036,2.161l-2.024,2.15l-2.009,2.136l-1.994,2.124l-1.977,2.108l-1.959,2.09l-1.939,2.073l-1.919,2.052l-1.897,2.03l-1.873,2.006l-1.847,1.981l-1.822,1.956l-1.794,1.927l-1.764,1.897l-1.734,1.866l-1.703,1.833l-1.669,1.799l-1.635,1.763l-1.598,1.725l-1.561,1.685l-3.007,3.249l-2.84,3.073l-2.881,3.12l-1.598,1.597l-1.332,1.331l-1.29,1.288l-1.247,1.241l-0.611,0.608l-0.602,0.596l-0.591,0.585l-0.581,0.574l-0.572,0.565l-0.564,0.553l-0.554,0.543l-0.546,0.533l-0.537,0.522l-0.53,0.514l-0.523,0.503l-0.514,0.493l-0.508,0.484l-0.5,0.474l-0.492,0.463l-0.486,0.455l-0.483,0.448l-0.477,0.438l-0.47,0.429l-0.459,0.413l-0.238,0.213l-0.228,0.203l-0.231,0.204l-0.231,0.204l-0.229,0.2l-0.225,0.195l-0.231,0.199l-0.226,0.193l-0.222,0.189l-0.231,0.194l-0.226,0.189l-0.226,0.187l-0.23,0.188l-0.228,0.185l-0.225,0.182l-0.231,0.183l-0.23,0.181l-0.226,0.176l-0.232,0.179l-0.237,0.18l-0.234,0.175l-0.238,0.176l-0.241,0.175l-0.249,0.179l-0.242,0.171l-0.247,0.172l-0.253,0.172l-0.253,0.169l-0.266,0.174l-0.264,0.17l-0.269,0.169l-0.281,0.172l-0.292,0.175l-0.29,0.168l-0.293,0.166l-0.302,0.165l-0.323,0.173l-0.334,0.17l-0.332,0.164l-0.36,0.17l-0.369,0.167l-0.369,0.159l-0.401,0.164l-0.418,0.161l-0.422,0.152l-0.454,0.153l-0.474,0.146l-0.499,0.141l-0.52,0.131l-0.546,0.122l-0.573,0.109l-0.5,0.08l-0.376,0.052l-0.326,0.038l-0.336,0.034l-0.342,0.027l-0.304,0.02l-0.357,0.016l-0.363,0.009l-0.371,0.002l-0.377,-0.007l-0.337,-0.012l-0.391,-0.022l-0.395,-0.032l-0.401,-0.04l-0.36,-0.046l-0.409,-0.058l-0.415,-0.073l-0.373,-0.071l-0.47,-0.103l-0.429,-0.108l-0.375,-0.102l-0.425,-0.127l-0.424,-0.14l-0.377,-0.133l-0.431,-0.165l-0.42,-0.174l-0.416,-0.185l-0.423,-0.202l-0.395,-0.202l-0.402,-0.218l-0.365,-0.211l-0.388,-0.237l-0.38,-0.247l-0.358,-0.245l-0.362,-0.262l-0.333,-0.253l-0.343,-0.275l-0.35,-0.295l-0.293,-0.262l-0.325,-0.299l-0.3,-0.297l-0.253,-0.257l-0.29,-0.31l-0.28,-0.315l-0.236,-0.278l-0.235,-0.287l-0.254,-0.326l-0.208,-0.28l-0.2,-0.277l-0.21,-0.307l-0.197,-0.298l-0.186,-0.296l-0.168,-0.278l-0.148,-0.255l-0.196,-0.349l-0.269,-0.515l-0.256,-0.531l-0.231,-0.517l-0.21,-0.511l-0.186,-0.492l-0.166,-0.475l-0.149,-0.463l-0.136,-0.457l-0.118,-0.438l-0.105,-0.417l-0.095,-0.414l-0.084,-0.404l-0.074,-0.386l-0.065,-0.377l-0.058,-0.37l-0.051,-0.361l-0.044,-0.348l-0.04,-0.348l-0.035,-0.344l-0.029,-0.33l-0.025,-0.326l-0.021,-0.321l-0.017,-0.318l-0.014,-0.308l-0.011,-0.306l-0.008,-0.309l-0.005,-0.301l-0.003,-0.293l-0.001,-0.298l0.002,-0.296l0.004,-0.296l0.005,-0.289l0.008,-0.289l0.009,-0.289l0.011,-0.289l0.013,-0.289l0.014,-0.285l0.015,-0.285l0.017,-0.286l0.019,-0.287l0.02,-0.288l0.021,-0.29l0.022,-0.29l0.024,-0.287l0.024,-0.29l0.026,-0.292l0.027,-0.292l0.029,-0.295l0.03,-0.305l0.06,-0.581l0.066,-0.601l0.07,-0.609l0.074,-0.615l0.077,-0.623l0.081,-0.634l0.085,-0.641l0.088,-0.652l0.092,-0.662l0.094,-0.67l0.099,-0.683l0.101,-0.693l0.105,-0.703l0.108,-0.715l0.11,-0.727l0.114,-0.738l0.116,-0.752l0.12,-0.765l0.246,-1.558l0.257,-1.612l0.268,-1.665l0.561,-3.485l0.294,-1.825l0.302,-1.879l0.309,-1.934l0.315,-1.991l0.323,-2.05l0.328,-2.109l0.336,-2.167l0.341,-2.223l0.347,-2.277l0.353,-2.33l0.357,-2.381l0.363,-2.43l0.368,-2.476l0.372,-2.522l0.376,-2.565l0.38,-2.607l0.384,-2.647l0.386,-2.685l0.391,-2.722l0.393,-2.756l0.395,-2.789l0.398,-2.82l0.4,-2.849l0.401,-2.878l0.403,-2.903l0.404,-2.927l0.405,-2.95l0.406,-2.97l0.407,-2.989l0.406,-3.006l0.406,-3.022l0.406,-3.035l0.406,-3.047l0.404,-3.057l0.404,-3.066l0.401,-3.072l0.401,-3.078l0.398,-3.08l0.396,-3.081l0.393,-3.081l0.391,-3.08l0.388,-3.075l0.385,-3.07l0.38,-3.062l0.378,-3.053l0.373,-3.042l0.369,-3.03l0.364,-3.015l0.359,-3.002l0.178,-1.49l0.176,-1.488l0.175,-1.484l0.174,-1.478l0.172,-1.473l0.171,-1.467l0.17,-1.461l0.167,-1.456l0.167,-1.449l0.165,-1.442l0.163,-1.436l0.161,-1.429l0.16,-1.422l0.158,-1.415l0.156,-1.406l0.155,-1.4l0.153,-1.391l0.15,-1.382l0.149,-1.374l0.148,-1.366l0.145,-1.357l0.143,-1.347l0.141,-1.338l0.139,-1.329l0.137,-1.319l0.135,-1.308l0.133,-1.298l0.131,-1.287l0.128,-1.277l0.126,-1.267l0.124,-1.254l0.122,-1.243l0.119,-1.231l0.117,-1.22l0.114,-1.207l0.112,-1.195l0.109,-1.182l0.076,-0.83l0.036,-0.762l0.051,-1.092l0.048,-1.079l0.047,-1.064l0.046,-1.051l0.043,-1.039l0.042,-1.025l0.04,-1.011l0.039,-1l0.037,-0.986l0.034,-0.974l0.034,-0.963l0.031,-0.95l0.03,-0.937l0.028,-0.927l0.026,-0.914l0.024,-0.902l0.023,-0.892l0.021,-0.879l0.019,-0.869l0.017,-0.858l0.016,-0.847l0.014,-0.836l0.012,-0.826l0.01,-0.816l0.008,-0.804l0.007,-0.795l0.005,-0.786l0.003,-0.775l0.001,-0.767l0,-0.756l-0.003,-0.747l-0.004,-0.738l-0.006,-0.729l-0.007,-0.721l-0.01,-0.711l-0.011,-0.704l-0.013,-0.695l-0.015,-0.686l-0.016,-0.679l-0.019,-0.671l-0.02,-0.665l-0.022,-0.656l-0.023,-0.647l-0.026,-0.642l-0.027,-0.634l-0.029,-0.629l-0.031,-0.622l-0.032,-0.615l-0.035,-0.608l-0.036,-0.603l-0.037,-0.597l-0.04,-0.592l-0.041,-0.586l-0.044,-0.58l-0.045,-0.576l-0.046,-0.572l-0.049,-0.566l-0.05,-0.561l-0.052,-0.557l-0.054,-0.554l-0.055,-0.55l-0.058,-0.547l-0.059,-0.542l-0.061,-0.54l-0.063,-0.538l-0.065,-0.533l-0.066,-0.531l-0.069,-0.529l-0.07,-0.529l-0.072,-0.525l-0.074,-0.523l-0.076,-0.522l-0.078,-0.522l-0.08,-0.52l-0.082,-0.518l-0.084,-0.52l-0.086,-0.518l-0.088,-0.518l-0.09,-0.52l-0.092,-0.517l-0.094,-0.519l-0.097,-0.52l-0.098,-0.522l-0.101,-0.524l-0.103,-0.523l-0.105,-0.524l-0.107,-0.526l-0.11,-0.53l-0.112,-0.531l-0.114,-0.534l-0.117,-0.536l-0.118,-0.538l-0.122,-0.541l-0.124,-0.546l-0.126,-0.55l-0.128,-0.55l-0.131,-0.555l-0.134,-0.561l-0.136,-0.563l-0.139,-0.565l-0.141,-0.574l-0.144,-0.576l-0.146,-0.581l-0.149,-0.587l-0.152,-0.591l-0.154,-0.596l-0.157,-0.603l-0.159,-0.607l-0.163,-0.613l-0.164,-0.618l-0.168,-0.624l-0.17,-0.633l-0.173,-0.637l-0.175,-0.642l-0.179,-0.651l-0.181,-0.658l-0.183,-0.659l-0.377,-1.354l-0.387,-1.378l-0.398,-1.408l-0.409,-1.441l-0.378,-1.326l-0.388,-1.263l-0.444,-1.451l-0.451,-1.478l-0.456,-1.504l-0.462,-1.528l-0.468,-1.553l-0.473,-1.577l-0.478,-1.601l-0.482,-1.624l-0.488,-1.646l-0.491,-1.669l-0.495,-1.69l-0.499,-1.711l-0.502,-1.731l-0.506,-1.751l-0.508,-1.771l-0.511,-1.79l-0.513,-1.808l-0.515,-1.826l-0.517,-1.84l-0.26,-0.931l-0.259,-0.932l-0.26,-0.936l-0.26,-0.94l-0.261,-0.945l-0.26,-0.948l-0.261,-0.952l-0.261,-0.956l-0.261,-0.959l-0.262,-0.963l-0.261,-0.966l-0.261,-0.971l-0.261,-0.974l-0.262,-0.976l-0.261,-0.981l-0.261,-0.984l-0.261,-0.986l-0.261,-0.989l-0.261,-0.994l-0.26,-0.997l-0.26,-0.997l-0.26,-1.001l-0.26,-1.006l-0.259,-1.008l-0.258,-1.008l-0.259,-1.013l-0.258,-1.016l-0.257,-1.017l-0.257,-1.02l-0.256,-1.022l-0.256,-1.026l-0.255,-1.027l-0.254,-1.029l-0.254,-1.03l-0.253,-1.034l-0.253,-1.035l-0.251,-1.038l-0.251,-1.038l-0.25,-1.041l-0.249,-1.043l-0.248,-1.045l-0.246,-1.045l-0.247,-1.047l-0.245,-1.05l-0.244,-1.05l-0.243,-1.052l-0.242,-1.053l-0.24,-1.054l-0.24,-1.055l-0.238,-1.057l-0.237,-1.057l-0.236,-1.059l-0.234,-1.06l-0.233,-1.06l-0.232,-1.062l-0.23,-1.061l-0.229,-1.063l-0.228,-1.064l-0.226,-1.063l-0.224,-1.064l-0.223,-1.066l-0.221,-1.065l-0.219,-1.065l-0.218,-1.066l-0.216,-1.066l-0.215,-1.066l-0.212,-1.066l-0.211,-1.067l-0.209,-1.066l-0.207,-1.066l-0.205,-1.066l-0.204,-1.066l-0.201,-1.065l-0.199,-1.065l-0.198,-1.065l-0.195,-1.064l-0.193,-1.063l-0.191,-1.064l-0.188,-1.062l-0.187,-1.063l-0.184,-1.061l-0.182,-1.06l-0.18,-1.059l-0.177,-1.059l-0.175,-1.058l-0.173,-1.056l-0.17,-1.055l-0.167,-1.052l-0.164,-1.044l-0.162,-1.04l-0.16,-1.038l-0.159,-1.037l-0.157,-1.037l-0.155,-1.034l-0.153,-1.035l-0.152,-1.033l-0.15,-1.033l-0.148,-1.033l-0.147,-1.032l-0.144,-1.031l-0.143,-1.03l-0.141,-1.03l-0.139,-1.03l-0.137,-1.03l-0.135,-1.029l-0.133,-1.029l-0.132,-1.029l-0.129,-1.029l-0.128,-1.029l-0.126,-1.029l-0.123,-1.03l-0.122,-1.028l-0.119,-1.029l-0.118,-1.031l-0.116,-1.03l-0.113,-1.031l-0.112,-1.031l-0.109,-1.032l-0.107,-1.033l-0.105,-1.032l-0.103,-1.033l-0.101,-1.035l-0.099,-1.036l-0.096,-1.036l-0.094,-1.037l-0.092,-1.038l-0.09,-1.04l-0.088,-1.039l-0.085,-1.043l-0.083,-1.043l-0.081,-1.044l-0.078,-1.044l-0.076,-1.047l-0.074,-1.049l-0.071,-1.051l-0.069,-1.05l-0.067,-1.054l-0.064,-1.056l-0.062,-1.055l-0.059,-1.059l-0.057,-1.06l-0.055,-1.062l-0.052,-1.065l-0.049,-1.066l-0.047,-1.068l-0.045,-1.07l-0.042,-1.074l-0.039,-1.074l-0.037,-1.077l-0.035,-1.081l-0.031,-1.082l-0.03,-1.084l-0.026,-1.087l-0.024,-1.09l-0.021,-1.093l-0.019,-1.095l-0.016,-1.098l-0.013,-1.102l-0.011,-1.103l-0.008,-1.107l-0.005,-1.11l-0.002,-1.112l0,-1.117l0.003,-1.118l0.006,-1.123l0.009,-1.126l0.011,-1.129l0.014,-1.132l0.017,-1.137l0.02,-1.139l0.023,-1.144l0.025,-1.147l0.029,-1.15l0.031,-1.154l0.034,-1.159l0.038,-1.162l0.04,-1.166l0.043,-1.17l0.046,-1.173l0.048,-1.179l0.052,-1.183l0.055,-1.186l0.058,-1.192l0.061,-1.195l0.064,-1.2l0.066,-1.204l0.07,-1.209l0.073,-1.214l0.076,-1.218l0.079,-1.222l0.082,-1.229l0.086,-1.233l0.088,-1.237l0.091,-1.242l0.095,-1.248l0.097,-1.253l0.101,-1.258l0.104,-1.263l0.108,-1.268l0.11,-1.274l0.114,-1.28l0.116,-1.285l0.12,-1.29l0.124,-1.295l0.126,-1.303l0.13,-1.307l0.133,-1.313l0.136,-1.318l0.14,-1.326l0.143,-1.331l0.146,-1.338l0.149,-1.342l0.153,-1.35l0.156,-1.356l0.16,-1.362l0.199,-1.674l0.269,-1.674l0.221,-1.369l0.224,-1.375l0.226,-1.383l0.23,-1.389l0.232,-1.396l0.234,-1.402l0.238,-1.408l0.24,-1.415l0.243,-1.421l0.246,-1.427l0.249,-1.433l0.252,-1.438l0.255,-1.445l0.257,-1.45l0.261,-1.456l0.263,-1.461l0.267,-1.467l0.27,-1.473l0.273,-1.477l0.276,-1.483l0.279,-1.487l0.282,-1.493l0.286,-1.497l0.288,-1.503l0.292,-1.507l0.296,-1.512l0.298,-1.515l0.302,-1.521l0.306,-1.526l0.308,-1.529l0.312,-1.533l0.316,-1.537l0.319,-1.541l0.323,-1.546l0.326,-1.549l0.33,-1.553l0.333,-1.556l0.337,-1.559l0.341,-1.564l0.344,-1.567l0.348,-1.57l0.352,-1.573l0.355,-1.573l0.18,-0.792l0.18,-0.79l0.181,-0.79l0.182,-0.792l0.183,-0.793l0.184,-0.792l0.185,-0.793l0.186,-0.795l0.187,-0.795l0.188,-0.795l0.188,-0.796l0.19,-0.796l0.191,-0.798l0.192,-0.798l0.193,-0.799l0.194,-0.798l0.195,-0.8l0.196,-0.8l0.196,-0.801l0.199,-0.802l0.198,-0.8l0.2,-0.803l0.201,-0.803l0.202,-0.803l0.203,-0.805l0.204,-0.803l0.205,-0.805l0.207,-0.805l0.207,-0.805l0.208,-0.807l0.21,-0.806l0.21,-0.806l0.211,-0.807l0.213,-0.809l0.214,-0.808l0.214,-0.808l0.216,-0.808l0.217,-0.809l0.218,-0.809l0.219,-0.809l0.22,-0.811l0.222,-0.811l0.222,-0.809l0.223,-0.81l0.225,-0.812l0.225,-0.811l0.227,-0.811l0.228,-0.812l0.229,-0.812l0.23,-0.812l0.232,-0.813l0.232,-0.812l0.233,-0.811l0.235,-0.814l0.236,-0.813l0.237,-0.813l0.238,-0.813l0.24,-0.813l0.24,-0.813l0.241,-0.814l0.244,-0.814l0.244,-0.813l0.244,-0.813l0.247,-0.814l0.248,-0.815l0.248,-0.813l0.25,-0.812l0.251,-0.815l0.253,-0.814l0.253,-0.814l0.255,-0.814l0.256,-0.813l0.257,-0.813l0.258,-0.813l0.26,-0.814l0.261,-0.813l0.262,-0.813l0.263,-0.814l0.265,-0.813l0.265,-0.813l0.268,-0.813l0.268,-0.812l0.269,-0.812l0.271,-0.813l0.272,-0.812l0.274,-0.811l0.274,-0.811l0.276,-0.813l0.278,-0.811l0.278,-0.81l0.28,-0.811l0.281,-0.81l0.282,-0.81l0.284,-0.811l0.285,-0.809l0.286,-0.809l0.287,-0.808l0.289,-0.81l0.29,-0.807l0.292,-0.808l0.293,-0.809l0.294,-0.806l0.296,-0.807l0.297,-0.807l0.297,-0.805l0.3,-0.806l0.301,-0.805l0.302,-0.803l0.304,-0.806l0.305,-0.803l0.306,-0.803l0.308,-0.803l0.309,-0.803l0.311,-0.801l0.311,-0.801l0.314,-0.801l0.314,-0.8l0.316,-0.799l0.318,-0.8l0.32,-0.799l0.32,-0.798l0.321,-0.797l0.323,-0.796l0.325,-0.795l0.326,-0.796l0.328,-0.796l0.328,-0.794l0.331,-0.793l0.331,-0.792l0.333,-0.792l0.335,-0.792l0.337,-0.791l0.337,-0.789l0.339,-0.79l0.341,-0.789l0.342,-0.788l0.343,-0.786l0.345,-0.786l0.347,-0.785l0.348,-0.785l0.349,-0.784l0.352,-0.784l0.352,-0.782l0.354,-0.781l0.355,-0.78l0.358,-0.78l0.358,-0.779l0.36,-0.777l0.362,-0.778l0.363,-0.775l0.365,-0.776l0.367,-0.775l0.368,-0.773l0.369,-0.771l0.371,-0.771l0.372,-0.771l0.375,-0.77l0.376,-0.768l0.377,-0.768l0.379,-0.766l0.38,-0.765l0.382,-0.764l0.384,-0.764l0.386,-0.762l0.387,-0.761l0.388,-0.759l0.39,-0.759l0.339,-0.656l0.342,-0.682l0.397,-0.786l0.398,-0.784l0.401,-0.784l0.403,-0.782l0.404,-0.781l0.407,-0.78l0.408,-0.778l0.411,-0.777l0.412,-0.776l0.415,-0.774l0.416,-0.773l0.419,-0.772l0.42,-0.769l0.422,-0.769l0.425,-0.768l0.427,-0.767l0.429,-0.765l0.431,-0.764l0.433,-0.762l0.435,-0.76l0.437,-0.76l0.44,-0.758l0.441,-0.756l0.444,-0.755l0.446,-0.755l0.448,-0.753l0.45,-0.75l0.452,-0.75l0.456,-0.749l0.457,-0.748l0.459,-0.745l0.46,-0.743l0.465,-0.744l0.467,-0.742l0.467,-0.739l0.47,-0.738l0.474,-0.737l0.475,-0.736l0.478,-0.734l0.479,-0.732l0.483,-0.733l0.485,-0.729l0.486,-0.727l0.49,-0.728l0.492,-0.726l0.495,-0.725l0.496,-0.721l0.498,-0.719l0.502,-0.721l0.505,-0.719l0.506,-0.716l0.509,-0.715l0.511,-0.713l0.515,-0.713l0.516,-0.71l0.518,-0.707l0.522,-0.708l0.524,-0.707l0.527,-0.704l0.529,-0.703l0.532,-0.701l0.535,-0.701l0.535,-0.696l0.54,-0.697l0.542,-0.695l0.545,-0.694l0.548,-0.692l0.55,-0.69l0.552,-0.689l0.556,-0.687l0.557,-0.685l0.561,-0.684l0.564,-0.683l0.565,-0.679l0.569,-0.68l0.572,-0.678l0.574,-0.675l0.576,-0.674l0.582,-0.674l0.581,-0.669l0.585,-0.669l0.589,-0.669l0.59,-0.665l0.589,-0.659l0.302,-0.336l0.299,-0.332l0.3,-0.331l0.299,-0.329l0.3,-0.33l0.303,-0.331l0.301,-0.327l0.302,-0.329l0.305,-0.328l0.303,-0.328l0.306,-0.328l0.304,-0.325l0.308,-0.328l0.309,-0.328l0.306,-0.323l0.306,-0.324l0.311,-0.326l0.311,-0.325l0.309,-0.323l0.312,-0.324l0.312,-0.322l0.314,-0.324l0.313,-0.322l0.312,-0.319l0.316,-0.323l0.316,-0.321l0.317,-0.321l0.318,-0.321l0.318,-0.32l0.318,-0.318l0.317,-0.316l0.322,-0.321l0.323,-0.319l0.319,-0.315l0.322,-0.317l0.323,-0.316l0.325,-0.317l0.323,-0.314l0.325,-0.316l0.328,-0.316l0.327,-0.314l0.327,-0.314l0.328,-0.313l0.328,-0.312l0.331,-0.314l0.329,-0.311l0.33,-0.31l0.335,-0.314l0.332,-0.31l0.333,-0.31l0.334,-0.309l0.335,-0.309l0.337,-0.311l0.338,-0.31l0.336,-0.306l0.335,-0.305l0.34,-0.309l0.341,-0.308l0.34,-0.306l0.343,-0.307l0.34,-0.303l0.341,-0.304l0.344,-0.305l0.344,-0.304l0.347,-0.305l0.346,-0.303l0.344,-0.301l0.346,-0.301l0.35,-0.304l0.35,-0.302l0.348,-0.299l0.35,-0.301l0.352,-0.301l0.351,-0.298l0.352,-0.299l0.355,-0.299l0.354,-0.298l0.355,-0.297l0.356,-0.297l0.357,-0.298l0.356,-0.295l0.357,-0.294l0.36,-0.296l0.359,-0.295l0.362,-0.296l0.363,-0.294l0.357,-0.29l0.365,-0.295l0.366,-0.294l0.362,-0.29l0.364,-0.291l0.368,-0.292l0.368,-0.292l0.364,-0.287l0.37,-0.291l0.37,-0.29l0.369,-0.288l0.372,-0.289l0.371,-0.287l0.371,-0.287l0.374,-0.287l0.373,-0.285l0.376,-0.288l0.376,-0.285l0.377,-0.285l0.376,-0.284l0.376,-0.282l0.38,-0.285l0.381,-0.284l0.379,-0.281l0.384,-0.284l0.382,-0.282l0.379,-0.278l0.386,-0.283l0.385,-0.28l0.384,-0.279l0.385,-0.278l0.389,-0.28l0.389,-0.279l0.387,-0.277l0.387,-0.276l0.392,-0.278l0.393,-0.277l0.39,-0.275l0.391,-0.274l0.396,-0.277l0.395,-0.275l0.394,-0.272l0.394,-0.272l0.398,-0.275l0.4,-0.274l0.397,-0.27l0.397,-0.27l0.402,-0.273l0.403,-0.271l0.4,-0.269l0.403,-0.27l0.402,-0.268l0.404,-0.268l0.407,-0.27l0.406,-0.268l0.405,-0.265l0.409,-0.268l0.41,-0.267l0.408,-0.265l0.409,-0.264l0.412,-0.265l0.413,-0.265l0.412,-0.263l0.412,-0.262l0.416,-0.264l0.416,-0.263l0.414,-0.26l0.419,-0.263l0.416,-0.259l0.418,-0.26l0.421,-0.261l0.421,-0.259l0.422,-0.26l0.42,-0.257l0.425,-0.259l0.426,-0.258l0.419,-0.254l0.426,-0.257l0.429,-0.257l0.426,-0.254l0.428,-0.255l0.43,-0.255l0.429,-0.254l0.432,-0.254l0.433,-0.253l0.428,-0.25l0.434,-0.253l0.438,-0.253l0.434,-0.25l0.434,-0.249l0.438,-0.251l0.437,-0.249l0.439,-0.249l0.441,-0.249l0.439,-0.247l0.438,-0.246l0.444,-0.248l0.444,-0.247l0.444,-0.246l0.447,-0.247l0.441,-0.242l0.448,-0.245l0.448,-0.244l0.449,-0.245l0.451,-0.243l0.445,-0.24l0.452,-0.243l0.453,-0.242l0.454,-0.241l0.455,-0.241l0.452,-0.239l0.454,-0.239l0.457,-0.239l0.458,-0.239l0.456,-0.237l0.461,-0.239l0.461,-0.237l0.458,-0.235l0.463,-0.237l0.464,-0.236l0.462,-0.234l0.464,-0.234l0.467,-0.235l0.465,-0.232l0.465,-0.233l0.469,-0.233l0.469,-0.232l0.471,-0.232l0.472,-0.231l0.471,-0.23l0.47,-0.229l0.477,-0.231l0.473,-0.228l0.472,-0.227l0.481,-0.23l0.476,-0.227l0.476,-0.226l0.479,-0.227l0.482,-0.226l0.481,-0.226l0.483,-0.225l0.481,-0.224l0.481,-0.223l0.485,-0.223l0.487,-0.224l0.488,-0.223l0.488,-0.222l0.486,-0.22l0.49,-0.222l0.492,-0.22l0.488,-0.219l0.493,-0.22l0.491,-0.218l0.495,-0.219l0.495,-0.218l0.494,-0.216l0.498,-0.218l0.498,-0.216l0.5,-0.217l0.501,-0.215l0.498,-0.214l0.502,-0.215l0.504,-0.214l0.501,-0.212l0.504,-0.213l0.503,-0.212l0.508,-0.212l0.508,-0.212l0.509,-0.211l0.51,-0.211l0.507,-0.208l0.512,-0.21l0.513,-0.209l0.511,-0.208l0.514,-0.207l0.515,-0.208l0.514,-0.206l0.521,-0.208l0.519,-0.206l0.513,-0.203l0.521,-0.205l0.524,-0.206l0.519,-0.202l0.52,-0.202l0.528,-0.205l0.525,-0.202l0.523,-0.201l0.524,-0.2l0.529,-0.202l0.532,-0.201l0.527,-0.198l0.531,-0.2l0.532,-0.199l0.53,-0.197l0.534,-0.198l0.535,-0.197l0.533,-0.196l0.537,-0.197l0.541,-0.197l0.536,-0.194l0.537,-0.193l0.541,-0.195l0.542,-0.194l0.543,-0.193l0.544,-0.193l0.545,-0.192l0.545,-0.192l0.544,-0.19l0.545,-0.19l0.553,-0.191l0.549,-0.19l0.548,-0.188l0.552,-0.189l0.552,-0.188l0.555,-0.187l0.552,-0.187l0.555,-0.186l0.558,-0.187l0.557,-0.185l0.559,-0.185l0.557,-0.184l0.561,-0.184l0.562,-0.184l0.563,-0.183l0.564,-0.182l0.565,-0.182l0.563,-0.181l0.567,-0.181l0.568,-0.18l0.57,-0.181l0.569,-0.179l0.568,-0.178l0.573,-0.179l0.573,-0.178l0.574,-0.177l0.576,-0.177l0.576,-0.177l0.574,-0.174l0.579,-0.176l0.579,-0.175l0.58,-0.174l0.582,-0.174l0.58,-0.173l0.586,-0.174l0.584,-0.172l0.583,-0.171l0.587,-0.171l0.588,-0.171l0.585,-0.17l0.59,-0.17l0.594,-0.17l0.592,-0.168l0.59,-0.168l0.591,-0.167l0.598,-0.168l0.48,-0.134l0.495,-0.146l0.614,-0.18l0.613,-0.179l0.613,-0.178l0.614,-0.178l0.615,-0.177l0.62,-0.177l0.618,-0.176l0.618,-0.175l0.622,-0.176l0.621,-0.174l0.621,-0.174l0.622,-0.173l0.624,-0.172l0.627,-0.173l0.625,-0.171l0.626,-0.171l0.63,-0.171l0.629,-0.17l0.629,-0.169l0.63,-0.169l0.631,-0.168l0.635,-0.168l0.633,-0.167l0.634,-0.166l0.64,-0.167l1.269,-0.329l1.279,-0.329l1.28,-0.325l1.283,-0.324l1.29,-0.322l1.291,-0.318l1.295,-0.317l1.301,-0.316l1.301,-0.312l1.305,-0.311l1.31,-0.308l1.313,-0.307l1.316,-0.303l1.319,-0.302l1.323,-0.3l1.327,-0.298l1.329,-0.295l1.332,-0.294l1.337,-0.291l1.339,-0.289l1.342,-0.287l1.345,-0.285l1.348,-0.283l1.353,-0.281l1.354,-0.279l1.358,-0.277l1.362,-0.274l1.362,-0.273l1.366,-0.27l1.371,-0.269l1.371,-0.266l1.376,-0.264l1.379,-0.263l1.38,-0.26l1.384,-0.258l1.387,-0.256l1.389,-0.254l1.392,-0.252l1.394,-0.25l1.397,-0.249l1.401,-0.246l1.403,-0.244l1.405,-0.242l1.407,-0.24l1.41,-0.239l1.413,-0.236l1.413,-0.234l1.418,-0.232l1.421,-0.23l1.423,-0.229l1.423,-0.226l1.427,-0.224l1.429,-0.223l1.431,-0.22l1.435,-0.219l1.435,-0.216l1.437,-0.215l1.441,-0.213l1.442,-0.211l1.444,-0.209l1.446,-0.207l1.448,-0.205l1.452,-0.203l1.452,-0.201l1.454,-0.2l1.456,-0.197l1.457,-0.196l1.461,-0.194l1.461,-0.191l1.464,-0.191l1.465,-0.188l1.466,-0.186l1.47,-0.184l1.471,-0.183l1.471,-0.18l1.474,-0.179l1.475,-0.177l1.476,-0.175l1.479,-0.174l1.48,-0.171l1.482,-0.17l1.483,-0.167l1.483,-0.166l1.485,-0.164l1.487,-0.163l1.489,-0.16l1.489,-0.159l1.492,-0.157l1.491,-0.155l1.493,-0.153l1.495,-0.152l1.497,-0.149l1.496,-0.148l1.496,-0.146l1.5,-0.145l1.501,-0.142l1.501,-0.141l1.501,-0.139l1.503,-0.137l1.503,-0.136l1.506,-0.134l1.506,-0.131l1.505,-0.131l1.507,-0.128l1.509,-0.127l1.509,-0.125l1.51,-0.123l1.51,-0.122l1.51,-0.119l1.511,-0.119l1.513,-0.116l1.512,-0.115l1.514,-0.113l1.514,-0.111l1.515,-0.109l1.513,-0.108l1.516,-0.106l1.516,-0.105l1.515,-0.102l1.517,-0.101l1.515,-0.1l1.518,-0.098l1.517,-0.095l1.517,-0.095l1.517,-0.092l1.518,-0.091l1.519,-0.09l1.517,-0.087l1.518,-0.086l1.517,-0.085l1.519,-0.082l1.518,-0.081l1.519,-0.08l1.517,-0.077l1.517,-0.077l1.518,-0.074l1.519,-0.073l1.517,-0.071l1.516,-0.07l1.517,-0.068l1.518,-0.066l1.516,-0.065l1.516,-0.063l1.516,-0.062l1.514,-0.06l1.516,-0.058l1.514,-0.057l1.513,-0.055l1.514,-0.054l1.513,-0.052l1.512,-0.05l1.511,-0.049l1.511,-0.047l1.511,-0.046l1.51,-0.044l1.51,-0.043l1.507,-0.041l1.507,-0.039l1.507,-0.038l1.506,-0.036l1.505,-0.035l1.504,-0.033l1.504,-0.032l1.501,-0.03l1.502,-0.029l1.501,-0.027l1.497,-0.026l1.499,-0.024l1.498,-0.022l1.495,-0.021l1.495,-0.02l1.493,-0.018l1.492,-0.016l1.492,-0.015l1.49,-0.014l1.487,-0.012l1.488,-0.01l1.486,-0.009l1.484,-0.008l1.483,-0.006l1.482,-0.004l1.48,-0.003l1.478,-0.002l1.478,0l1.474,0.001ZM536.374,1327.02l0.328,0.006l0.319,0.008l0.31,0.01l0.319,0.011l0.327,0.014l0.31,0.015l0.318,0.017l0.318,0.02l0.301,0.02l0.318,0.023l0.309,0.024l0.309,0.025l0.317,0.028l0.299,0.029l0.309,0.03l0.308,0.033l0.298,0.032l0.308,0.036l0.307,0.037l0.298,0.037l0.298,0.039l0.298,0.041l0.298,0.042l0.297,0.043l0.288,0.043l0.297,0.046l0.297,0.047l0.297,0.049l0.288,0.048l0.287,0.05l0.296,0.052l0.279,0.051l0.287,0.053l0.294,0.055l0.279,0.054l0.287,0.057l0.286,0.057l0.279,0.057l0.277,0.058l0.286,0.061l0.279,0.06l0.283,0.062l0.549,0.123l0.551,0.127l0.548,0.129l0.543,0.131l0.544,0.135l0.541,0.137l0.534,0.137l0.534,0.139l0.536,0.142l0.532,0.144l0.527,0.144l0.528,0.145l0.53,0.148l0.524,0.148l0.523,0.148l0.525,0.15l0.526,0.151l1.04,0.301l1.048,0.305l1.048,0.305l1.054,0.307l1.063,0.308l0.527,0.151l0.537,0.154l0.538,0.153l0.536,0.152l0.539,0.152l0.544,0.151l0.549,0.152l0.386,0.106l0.436,0.108l0.605,0.149l0.613,0.148l0.616,0.147l0.623,0.147l0.627,0.146l0.634,0.146l0.638,0.145l0.645,0.144l0.652,0.145l0.656,0.143l0.66,0.143l0.666,0.142l0.672,0.141l0.677,0.141l0.682,0.14l0.691,0.14l0.693,0.139l0.698,0.138l0.703,0.138l0.709,0.137l0.714,0.136l0.719,0.136l0.724,0.135l0.729,0.134l0.738,0.134l0.739,0.133l0.745,0.132l0.75,0.131l0.755,0.131l0.759,0.13l0.766,0.129l0.772,0.129l0.775,0.128l0.779,0.128l0.785,0.126l0.79,0.126l0.794,0.125l0.8,0.124l0.806,0.124l0.809,0.123l0.812,0.121l0.818,0.122l0.826,0.12l0.828,0.12l0.833,0.119l0.84,0.119l0.842,0.118l0.845,0.116l0.854,0.116l0.856,0.116l0.861,0.114l0.865,0.114l0.871,0.113l0.876,0.112l0.877,0.112l0.884,0.11l0.89,0.11l0.893,0.11l0.898,0.108l0.901,0.107l0.907,0.107l0.912,0.106l0.915,0.106l0.918,0.104l0.926,0.104l0.928,0.103l0.933,0.102l0.937,0.101l0.941,0.1l0.947,0.1l0.948,0.099l0.956,0.098l0.959,0.098l0.962,0.096l0.967,0.096l0.971,0.095l0.978,0.094l0.977,0.094l0.984,0.092l0.989,0.092l0.992,0.091l0.996,0.09l1,0.09l1.005,0.088l1.01,0.088l1.012,0.087l1.015,0.086l1.02,0.085l1.026,0.085l1.029,0.084l1.032,0.082l1.038,0.083l1.04,0.081l1.043,0.08l1.048,0.08l1.054,0.079l1.056,0.078l1.059,0.077l1.064,0.077l1.068,0.075l1.073,0.075l1.075,0.074l1.077,0.073l1.085,0.072l1.086,0.072l1.09,0.071l1.094,0.07l1.098,0.069l1.103,0.068l1.104,0.067l1.11,0.067l1.113,0.066l1.116,0.065l1.12,0.064l1.123,0.063l1.129,0.063l1.128,0.062l1.135,0.06l1.139,0.061l1.141,0.059l1.145,0.058l1.149,0.058l1.152,0.057l1.156,0.056l1.159,0.055l1.161,0.054l0.804,0.037l0.802,-0.001l1.162,-0.002l1.167,-0.004l1.17,-0.006l1.175,-0.008l1.178,-0.009l1.18,-0.011l1.186,-0.013l1.188,-0.014l1.193,-0.016l1.196,-0.018l1.201,-0.02l1.204,-0.022l1.209,-0.023l1.214,-0.025l1.216,-0.027l1.222,-0.029l1.227,-0.031l1.229,-0.033l1.234,-0.034l1.241,-0.037l1.244,-0.038l1.249,-0.04l1.252,-0.043l1.259,-0.044l1.264,-0.046l1.266,-0.048l1.274,-0.051l1.279,-0.052l1.282,-0.054l1.288,-0.056l1.294,-0.059l1.299,-0.06l1.305,-0.063l1.309,-0.064l1.316,-0.067l1.32,-0.069l1.326,-0.071l1.333,-0.073l1.336,-0.075l1.344,-0.077l1.35,-0.08l1.355,-0.082l1.362,-0.084l1.367,-0.086l1.373,-0.089l1.379,-0.09l1.387,-0.094l1.392,-0.095l1.397,-0.097l1.405,-0.1l1.412,-0.103l1.417,-0.104l1.424,-0.107l1.432,-0.11l1.437,-0.111l1.444,-0.114l1.451,-0.117l1.458,-0.119l1.467,-0.121l1.471,-0.124l1.478,-0.126l1.488,-0.129l1.493,-0.131l1.499,-0.134l1.508,-0.136l1.517,-0.139l1.521,-0.141l1.531,-0.144l1.538,-0.146l1.545,-0.15l1.552,-0.151l1.56,-0.154l1.57,-0.157l1.577,-0.16l1.584,-0.162l1.591,-0.165l1.6,-0.167l1.608,-0.17l1.617,-0.173l1.625,-0.176l1.632,-0.178l1.642,-0.181l1.649,-0.184l1.658,-0.187l1.666,-0.189l1.675,-0.192l1.683,-0.195l1.692,-0.198l1.702,-0.201l1.709,-0.203l1.718,-0.207l1.728,-0.209l1.736,-0.212l1.746,-0.215l1.754,-0.218l1.764,-0.221l1.772,-0.224l1.782,-0.227l1.792,-0.23l1.8,-0.232l1.811,-0.236l1.819,-0.239l1.829,-0.242l1.839,-0.245l1.848,-0.248l1.859,-0.251l1.868,-0.254l1.878,-0.257l1.887,-0.26l1.898,-0.264l1.907,-0.266l1.917,-0.27l1.929,-0.273l1.938,-0.276l1.948,-0.279l1.959,-0.283l1.969,-0.285l1.98,-0.289l1.989,-0.292l2,-0.295l2.011,-0.299l2.021,-0.302l2.034,-0.305l2.043,-0.309l2.053,-0.312l2.065,-0.315l2.047,-0.314l2.007,-0.317l2.051,-0.325l2.061,-0.328l2.072,-0.33l2.082,-0.333l2.091,-0.335l2.102,-0.339l2.11,-0.341l2.119,-0.345l2.13,-0.348l2.137,-0.351l2.144,-0.354l2.155,-0.358l2.163,-0.361l2.169,-0.365l2.177,-0.368l2.185,-0.373l2.192,-0.376l2.198,-0.38l2.209,-0.384l1.102,-0.193l1.106,-0.195l1.11,-0.195l1.108,-0.196l1.111,-0.198l1.115,-0.199l1.113,-0.2l1.116,-0.201l1.117,-0.202l1.118,-0.203l1.119,-0.204l1.12,-0.205l1.124,-0.207l1.125,-0.208l1.124,-0.208l1.124,-0.21l1.128,-0.211l1.128,-0.213l1.129,-0.213l1.13,-0.215l1.132,-0.216l1.133,-0.217l1.133,-0.218l1.133,-0.22l1.135,-0.221l1.138,-0.223l1.137,-0.223l1.136,-0.224l1.139,-0.227l1.141,-0.228l1.139,-0.228l1.14,-0.23l1.143,-0.232l1.143,-0.232l1.142,-0.234l1.143,-0.236l1.144,-0.237l1.144,-0.238l1.147,-0.24l1.144,-0.241l1.147,-0.242l1.147,-0.244l1.145,-0.246l1.148,-0.247l1.149,-0.248l1.147,-0.25l1.148,-0.251l1.149,-0.253l1.149,-0.254l1.147,-0.256l1.149,-0.257l1.151,-0.259l1.149,-0.26l1.148,-0.262l1.151,-0.264l1.149,-0.265l1.149,-0.266l1.15,-0.269l1.149,-0.269l1.149,-0.272l1.151,-0.273l1.149,-0.275l1.147,-0.276l1.149,-0.278l1.147,-0.279l1.149,-0.282l1.148,-0.282l1.146,-0.285l1.149,-0.287l1.146,-0.287l1.146,-0.29l1.147,-0.292l1.145,-0.293l1.143,-0.294l1.145,-0.297l1.144,-0.299l1.144,-0.3l1.142,-0.302l1.141,-0.304l1.141,-0.305l1.14,-0.307l1.141,-0.31l1.138,-0.311l1.138,-0.313l1.137,-0.314l1.135,-0.316l1.137,-0.32l1.135,-0.32l1.133,-0.322l1.133,-0.324l1.131,-0.326l1.13,-0.327l1.13,-0.33l1.129,-0.332l1.126,-0.333l1.126,-0.336l1.125,-0.337l1.124,-0.34l1.121,-0.341l1.122,-0.344l1.12,-0.345l1.119,-0.348l1.116,-0.349l1.116,-0.351l1.115,-0.354l1.111,-0.355l1.111,-0.357l1.111,-0.36l1.109,-0.362l1.105,-0.363l1.105,-0.366l1.104,-0.368l1.102,-0.369l1.1,-0.372l1.097,-0.374l1.096,-0.376l1.096,-0.379l1.093,-0.38l1.089,-0.382l1.089,-0.385l1.089,-0.387l1.084,-0.389l1.083,-0.391l1.083,-0.394l1.078,-0.395l1.077,-0.398l1.076,-0.4l1.072,-0.402l1.071,-0.404l1.068,-0.406l1.072,-0.411l0.527,-0.203l0.532,-0.206l0.531,-0.206l0.53,-0.207l0.532,-0.208l0.527,-0.207l0.528,-0.209l0.532,-0.21l0.527,-0.209l0.525,-0.21l0.527,-0.211l0.527,-0.212l0.526,-0.212l0.523,-0.212l0.525,-0.214l0.522,-0.212l0.523,-0.215l0.523,-0.215l0.52,-0.215l0.525,-0.217l0.52,-0.217l0.517,-0.216l0.517,-0.217l0.52,-0.219l0.522,-0.22l0.515,-0.219l0.513,-0.218l0.519,-0.223l0.514,-0.22l0.514,-0.222l0.514,-0.222l0.513,-0.224l0.515,-0.224l0.509,-0.223l0.512,-0.225l0.512,-0.226l0.508,-0.225l0.507,-0.226l0.509,-0.227l0.509,-0.228l0.506,-0.229l0.504,-0.227l0.506,-0.23l0.508,-0.231l0.501,-0.23l0.504,-0.232l0.503,-0.232l0.5,-0.231l0.504,-0.235l0.5,-0.233l0.496,-0.233l0.5,-0.235l0.499,-0.236l0.497,-0.236l0.498,-0.237l0.495,-0.237l0.494,-0.238l0.495,-0.239l0.492,-0.238l0.492,-0.239l0.494,-0.242l0.49,-0.24l0.49,-0.241l0.491,-0.243l0.489,-0.243l0.487,-0.243l0.485,-0.243l0.488,-0.246l0.485,-0.244l0.484,-0.246l0.486,-0.248l0.48,-0.245l0.482,-0.248l0.484,-0.249l0.48,-0.249l0.481,-0.25l0.479,-0.25l0.475,-0.249l0.476,-0.251l0.479,-0.254l0.474,-0.251l0.475,-0.254l0.474,-0.254l0.472,-0.254l0.473,-0.255l0.47,-0.255l0.472,-0.258l0.467,-0.256l0.47,-0.258l0.469,-0.259l0.464,-0.257l0.465,-0.26l0.465,-0.259l0.465,-0.262l0.465,-0.263l0.46,-0.26l0.461,-0.263l0.46,-0.263l0.461,-0.265l0.459,-0.264l0.453,-0.263l0.457,-0.266l0.46,-0.269l0.456,-0.267l0.45,-0.266l0.453,-0.269l0.45,-0.267l0.452,-0.271l0.453,-0.272l0.446,-0.269l0.449,-0.272l0.448,-0.273l0.445,-0.272l0.445,-0.273l0.443,-0.274l0.446,-0.276l0.44,-0.274l0.441,-0.276l0.442,-0.277l0.438,-0.277l0.439,-0.278l0.437,-0.279l0.438,-0.28l0.433,-0.279l0.433,-0.279l0.433,-0.282l0.435,-0.283l0.431,-0.283l0.429,-0.281l0.429,-0.284l0.427,-0.284l0.428,-0.286l0.429,-0.287l0.423,-0.285l0.423,-0.287l0.424,-0.288l0.421,-0.288l0.42,-0.288l0.419,-0.289l0.42,-0.292l0.421,-0.293l0.414,-0.29l0.415,-0.291l0.414,-0.293l0.411,-0.292l0.414,-0.296l0.413,-0.296l0.41,-0.295l0.41,-0.297l0.406,-0.295l0.406,-0.297l0.408,-0.3l0.401,-0.296l0.406,-0.302l0.405,-0.301l0.396,-0.297l0.401,-0.303l0.4,-0.302l0.398,-0.303l0.399,-0.305l0.394,-0.303l0.396,-0.305l0.393,-0.305l0.392,-0.306l0.392,-0.307l0.389,-0.307l0.389,-0.308l0.389,-0.31l0.384,-0.308l0.386,-0.31l0.386,-0.312l0.383,-0.311l0.382,-0.312l0.381,-0.313l0.38,-0.313l0.38,-0.316l0.38,-0.317l0.377,-0.315l0.374,-0.315l0.376,-0.319l0.375,-0.319l0.373,-0.319l0.373,-0.321l0.371,-0.32l0.371,-0.322l0.37,-0.323l0.367,-0.322l0.369,-0.324l0.365,-0.324l0.366,-0.326l0.365,-0.326l0.362,-0.325l0.365,-0.33l0.36,-0.327l0.359,-0.328l0.362,-0.331l0.359,-0.331l0.357,-0.331l0.357,-0.332l0.356,-0.333l0.355,-0.333l0.354,-0.334l0.352,-0.335l0.354,-0.337l0.353,-0.338l0.346,-0.333l0.348,-0.338l0.352,-0.341l0.347,-0.339l0.343,-0.338l0.347,-0.342l0.346,-0.342l0.342,-0.342l0.342,-0.342l0.343,-0.344l0.341,-0.345l0.339,-0.344l0.34,-0.347l0.337,-0.345l0.337,-0.348l0.337,-0.348l0.334,-0.347l0.335,-0.35l0.334,-0.35l0.332,-0.351l0.33,-0.35l0.331,-0.352l0.33,-0.353l0.329,-0.354l0.33,-0.356l0.327,-0.354l0.324,-0.354l0.325,-0.356l0.325,-0.357l0.323,-0.357l0.322,-0.358l0.321,-0.358l0.322,-0.361l0.321,-0.362l0.319,-0.36l0.317,-0.361l0.317,-0.362l0.315,-0.362l0.317,-0.365l0.314,-0.363l0.314,-0.366l0.312,-0.364l0.311,-0.366l0.312,-0.368l0.311,-0.368l0.309,-0.369l0.308,-0.367l0.306,-0.368l0.309,-0.373l0.304,-0.369l0.304,-0.37l0.306,-0.375l0.303,-0.372l0.303,-0.374l0.3,-0.372l0.3,-0.375l0.3,-0.376l0.299,-0.375l0.298,-0.377l0.297,-0.377l0.296,-0.377l0.297,-0.381l0.295,-0.378l0.291,-0.378l0.293,-0.38l0.293,-0.382l0.292,-0.383l0.29,-0.381l0.289,-0.382l0.289,-0.383l0.287,-0.384l0.287,-0.385l0.288,-0.387l0.284,-0.384l0.285,-0.387l0.283,-0.386l0.282,-0.387l0.284,-0.391l0.281,-0.388l0.279,-0.388l0.279,-0.39l0.28,-0.391l0.278,-0.392l0.276,-0.39l0.276,-0.393l0.276,-0.393l0.276,-0.396l0.273,-0.392l0.273,-0.395l0.272,-0.395l0.269,-0.394l0.272,-0.398l0.27,-0.397l0.269,-0.398l0.268,-0.398l0.268,-0.4l0.266,-0.398l0.266,-0.4l0.265,-0.4l0.263,-0.4l0.264,-0.403l0.262,-0.402l0.261,-0.401l0.262,-0.405l0.26,-0.403l0.258,-0.403l0.261,-0.408l0.256,-0.402l0.257,-0.407l0.258,-0.409l0.253,-0.404l0.256,-0.409l0.253,-0.408l0.254,-0.409l0.251,-0.408l0.25,-0.408l0.253,-0.413l0.25,-0.411l0.248,-0.409l0.249,-0.414l0.249,-0.415l0.246,-0.411l0.245,-0.411l0.245,-0.414l0.244,-0.414l0.244,-0.415l0.246,-0.419l0.24,-0.413l0.24,-0.415l0.243,-0.421l0.238,-0.414l0.239,-0.417l0.241,-0.422l0.237,-0.419l0.236,-0.418l0.236,-0.419l0.236,-0.422l0.234,-0.419l0.233,-0.421l0.235,-0.425l0.232,-0.421l0.231,-0.422l0.23,-0.422l0.23,-0.424l0.231,-0.428l0.228,-0.423l0.228,-0.425l0.226,-0.424l0.227,-0.428l0.226,-0.426l0.225,-0.427l0.225,-0.43l0.223,-0.426l0.222,-0.427l0.223,-0.431l0.222,-0.432l0.218,-0.424l0.221,-0.433l0.221,-0.433l0.215,-0.426l0.219,-0.433l0.218,-0.434l0.215,-0.432l0.214,-0.43l0.216,-0.435l0.216,-0.437l0.212,-0.432l0.212,-0.435l0.212,-0.435l0.211,-0.433l0.21,-0.436l0.211,-0.44l0.21,-0.438l0.207,-0.434l0.208,-0.438l0.207,-0.44l0.206,-0.436l0.205,-0.438l0.205,-0.44l0.204,-0.441l0.204,-0.441l0.203,-0.439l0.201,-0.44l0.201,-0.44l0.2,-0.441l0.202,-0.446l0.198,-0.441l0.199,-0.443l0.198,-0.444l0.196,-0.442l0.197,-0.444l0.196,-0.444l0.195,-0.446l0.195,-0.445l0.194,-0.446l0.193,-0.445l0.191,-0.444l0.192,-0.448l0.191,-0.447l0.19,-0.446l0.191,-0.451l0.188,-0.446l0.188,-0.449l0.188,-0.449l0.187,-0.448l0.186,-0.449l0.186,-0.45l0.185,-0.451l0.184,-0.449l0.184,-0.453l0.183,-0.45l0.182,-0.451l0.182,-0.453l0.181,-0.452l0.179,-0.45l0.179,-0.451l0.18,-0.457l0.18,-0.456l0.177,-0.452l0.176,-0.451l0.176,-0.454l0.177,-0.457l0.173,-0.451l0.35,-0.915l0.346,-0.913l0.343,-0.913l0.34,-0.912l0.338,-0.917l0.336,-0.918l0.332,-0.917l0.33,-0.918l0.328,-0.921l0.326,-0.923l0.323,-0.922l0.32,-0.921l0.317,-0.924l0.316,-0.927l0.313,-0.926l0.311,-0.928l0.308,-0.93l0.306,-0.928l0.302,-0.928l0.301,-0.931l0.299,-0.934l0.296,-0.933l0.294,-0.933l0.291,-0.934l0.289,-0.935l0.287,-0.937l0.284,-0.938l0.282,-0.936l0.279,-0.937l0.278,-0.941l0.275,-0.94l0.273,-0.94l0.271,-0.94l0.268,-0.942l0.266,-0.944l0.264,-0.942l0.261,-0.944l0.26,-0.944l0.257,-0.944l0.255,-0.946l0.253,-0.945l0.25,-0.946l0.249,-0.948l0.246,-0.947l0.244,-0.947l0.242,-0.949l0.24,-0.948l0.237,-0.946l0.236,-0.952l0.234,-0.95l0.231,-0.948l0.23,-0.952l0.228,-0.95l0.225,-0.95l0.223,-0.952l0.221,-0.951l0.219,-0.95l0.218,-0.952l0.215,-0.953l0.213,-0.952l0.212,-0.952l0.209,-0.952l0.208,-0.955l0.205,-0.952l0.203,-0.951l0.202,-0.952l0.2,-0.953l0.198,-0.954l0.196,-0.953l0.194,-0.953l0.192,-0.951l0.19,-0.952l0.189,-0.954l0.187,-0.954l0.184,-0.952l0.183,-0.951l0.181,-0.951l0.18,-0.952l0.178,-0.953l0.175,-0.951l0.175,-0.953l0.173,-0.952l0.17,-0.948l0.169,-0.95l0.167,-0.951l0.166,-0.951l0.164,-0.951l0.162,-0.948l0.161,-0.949l0.159,-0.948l0.157,-0.946l0.155,-0.95l0.155,-0.949l0.152,-0.944l0.15,-0.946l0.15,-0.949l0.148,-0.944l0.146,-0.945l0.145,-0.944l0.142,-0.943l0.142,-0.944l0.14,-0.943l0.138,-0.939l0.137,-0.943l0.136,-0.941l0.134,-0.939l0.133,-0.94l0.131,-0.939l0.13,-0.936l0.128,-0.937l0.127,-0.939l0.125,-0.933l0.124,-0.934l0.123,-0.935l0.121,-0.934l0.12,-0.931l0.119,-0.93l0.117,-0.933l0.117,-0.93l0.114,-0.927l0.113,-0.927l0.113,-0.926l0.11,-0.925l0.11,-0.926l0.108,-0.925l0.108,-0.921l0.105,-0.92l0.105,-0.919l0.102,-0.914l0.101,-0.914l0.1,-0.915l0.098,-0.912l0.097,-0.911l0.096,-0.91l0.094,-0.909l0.093,-0.908l0.091,-0.906l0.09,-0.906l0.088,-0.906l0.087,-0.904l0.086,-0.902l0.084,-0.903l0.083,-0.901l0.081,-0.899l0.08,-0.898l0.079,-0.896l0.077,-0.899l0.076,-0.897l0.075,-0.893l0.073,-0.893l0.071,-0.894l0.071,-0.89l0.068,-0.89l0.068,-0.89l0.066,-0.89l0.065,-0.888l0.064,-0.886l0.062,-0.884l0.061,-0.886l0.059,-0.884l0.058,-0.881l0.057,-0.883l0.055,-0.881l0.054,-0.878l0.053,-0.879l0.051,-0.879l0.05,-0.877l0.049,-0.876l0.047,-0.873l0.046,-0.875l0.045,-0.873l0.043,-0.87l0.042,-0.871l0.041,-0.873l0.039,-0.869l0.038,-0.866l0.037,-0.867l0.035,-0.869l0.034,-0.865l0.033,-0.863l0.031,-0.863l0.031,-0.865l0.029,-0.861l0.027,-0.861l0.027,-0.859l0.025,-0.859l0.023,-0.858l0.023,-0.856l0.021,-0.858l0.02,-0.855l0.018,-0.854l0.018,-0.855l0.016,-0.852l0.015,-0.851l0.013,-0.85l0.012,-0.851l0.011,-0.849l0.01,-0.847l0.008,-0.849l0.008,-0.845l0.006,-0.847l0.004,-0.846l0.004,-0.842l0.002,-0.842l0.001,-0.843l0,-0.84l-0.002,-0.842l-0.003,-0.84l-0.004,-0.838l-0.005,-0.838l-0.006,-0.836l-0.008,-0.837l-0.009,-0.836l-0.01,-0.832l-0.012,-0.837l-0.012,-0.833l-0.014,-0.828l-0.015,-0.832l-0.016,-0.833l-0.017,-0.827l-0.019,-0.83l-0.02,-0.828l-0.021,-0.827l-0.022,-0.827l-0.023,-0.825l-0.025,-0.825l-0.026,-0.822l-0.027,-0.825l-0.028,-0.822l-0.029,-0.822l-0.031,-0.82l-0.031,-0.818l-0.033,-0.821l-0.035,-0.82l-0.035,-0.815l-0.036,-0.817l-0.038,-0.818l-0.038,-0.814l-0.04,-0.814l-0.041,-0.814l-0.042,-0.812l-0.044,-0.814l-0.044,-0.811l-0.046,-0.81l-0.047,-0.811l-0.048,-0.809l-0.049,-0.809l-0.05,-0.807l-0.051,-0.806l-0.053,-0.808l-0.054,-0.804l-0.054,-0.807l-0.056,-0.802l-0.057,-0.802l-0.059,-0.806l-0.059,-0.801l-0.06,-0.8l-0.062,-0.802l-0.062,-0.8l-0.064,-0.8l-0.065,-0.797l-0.065,-0.796l-0.068,-0.798l-0.068,-0.797l-0.069,-0.796l-0.071,-0.795l-0.071,-0.793l-0.072,-0.793l-0.074,-0.794l-0.075,-0.793l-0.076,-0.791l-0.076,-0.789l-0.078,-0.791l-0.08,-0.792l-0.08,-0.788l-0.081,-0.786l-0.082,-0.788l-0.083,-0.787l-0.085,-0.786l-0.085,-0.788l-0.087,-0.784l-0.087,-0.782l-0.089,-0.784l-0.09,-0.785l-0.09,-0.782l-0.092,-0.781l-0.093,-0.781l-0.094,-0.78l-0.095,-0.781l-0.096,-0.779l-0.097,-0.778l-0.098,-0.78l-0.099,-0.776l-0.1,-0.776l-0.101,-0.778l-0.102,-0.775l-0.103,-0.774l-0.104,-0.773l-0.106,-0.775l-0.106,-0.775l-0.108,-0.771l-0.108,-0.771l-0.109,-0.773l-0.111,-0.771l-0.111,-0.769l-0.112,-0.769l-0.113,-0.77l-0.115,-0.769l-0.115,-0.766l-0.116,-0.769l-0.118,-0.767l-0.118,-0.768l-0.119,-0.764l-0.121,-0.765l-0.121,-0.765l-0.122,-0.763l-0.123,-0.763l-0.125,-0.764l-0.125,-0.763l-0.126,-0.762l-0.127,-0.759l-0.128,-0.761l-0.129,-0.763l-0.13,-0.758l-0.131,-0.759l-0.132,-0.761l-0.133,-0.756l-0.134,-0.758l-0.134,-0.757l-0.136,-0.756l-0.137,-0.759l-0.138,-0.756l-0.138,-0.751l-0.14,-0.755l-0.14,-0.756l-0.142,-0.753l-0.142,-0.753l-0.144,-0.755l-0.144,-0.751l-0.145,-0.751l-0.146,-0.751l-0.147,-0.75l-0.148,-0.752l-0.148,-0.749l-0.15,-0.751l-0.151,-0.748l-0.151,-0.747l-0.153,-0.749l-0.153,-0.747l-0.154,-0.746l-0.156,-0.747l-0.156,-0.748l-0.157,-0.745l-0.157,-0.743l-0.16,-0.746l-0.159,-0.745l-0.161,-0.743l-0.161,-0.745l-0.163,-0.743l-0.163,-0.741l-0.164,-0.743l-0.165,-0.743l-0.165,-0.739l-0.167,-0.742l-0.168,-0.741l-0.168,-0.738l-0.17,-0.74l-0.171,-0.743l-0.17,-0.737l-0.172,-0.736l-0.173,-0.741l-0.173,-0.737l-0.175,-0.738l-0.175,-0.735l-0.176,-0.737l-0.178,-0.738l-0.177,-0.734l-0.179,-0.735l-0.18,-0.737l-0.18,-0.734l-0.181,-0.732l-0.183,-0.736l-0.247,-0.994l-0.214,-0.991l-0.157,-0.726l-0.159,-0.728l-0.159,-0.725l-0.161,-0.724l-0.161,-0.726l-0.163,-0.723l-0.163,-0.722l-0.165,-0.721l-0.166,-0.724l-0.166,-0.72l-0.167,-0.717l-0.169,-0.72l-0.17,-0.719l-0.17,-0.714l-0.172,-0.719l-0.173,-0.716l-0.174,-0.715l-0.175,-0.715l-0.175,-0.711l-0.177,-0.712l-0.179,-0.715l-0.178,-0.709l-0.181,-0.711l-0.181,-0.71l-0.182,-0.707l-0.183,-0.708l-0.185,-0.708l-0.185,-0.705l-0.186,-0.706l-0.188,-0.705l-0.188,-0.702l-0.19,-0.705l-0.191,-0.7l-0.191,-0.7l-0.194,-0.701l-0.194,-0.702l-0.195,-0.698l-0.196,-0.696l-0.198,-0.699l-0.198,-0.695l-0.199,-0.694l-0.201,-0.696l-0.202,-0.693l-0.202,-0.692l-0.204,-0.692l-0.205,-0.689l-0.206,-0.69l-0.208,-0.692l-0.208,-0.687l-0.209,-0.685l-0.212,-0.69l-0.211,-0.685l-0.213,-0.684l-0.215,-0.684l-0.214,-0.681l-0.217,-0.684l-0.218,-0.682l-0.218,-0.678l-0.22,-0.679l-0.221,-0.679l-0.221,-0.675l-0.224,-0.677l-0.224,-0.676l-0.226,-0.675l-0.227,-0.675l-0.227,-0.671l-0.229,-0.67l-0.231,-0.672l-0.232,-0.671l-0.232,-0.667l-0.234,-0.669l-0.234,-0.666l-0.236,-0.664l-0.238,-0.668l-0.239,-0.665l-0.239,-0.662l-0.241,-0.661l-0.242,-0.661l-0.244,-0.661l-0.244,-0.659l-0.246,-0.657l-0.247,-0.66l-0.247,-0.653l-0.249,-0.654l-0.252,-0.656l-0.252,-0.654l-0.253,-0.652l-0.254,-0.651l-0.255,-0.65l-0.256,-0.648l-0.259,-0.649l-0.259,-0.648l-0.26,-0.645l-0.262,-0.646l-0.262,-0.642l-0.264,-0.643l-0.265,-0.642l-0.267,-0.642l-0.269,-0.641l-0.268,-0.636l-0.27,-0.638l-0.272,-0.639l-0.272,-0.633l-0.275,-0.635l-0.276,-0.636l-0.276,-0.631l-0.277,-0.63l-0.28,-0.631l-0.281,-0.63l-0.281,-0.628l-0.283,-0.626l-0.285,-0.627l-0.285,-0.625l-0.286,-0.622l-0.289,-0.625l-0.289,-0.621l-0.291,-0.62l-0.293,-0.621l-0.293,-0.618l-0.294,-0.618l-0.296,-0.615l-0.297,-0.615l-0.3,-0.616l-0.298,-0.611l-0.302,-0.612l-0.303,-0.611l-0.303,-0.608l-0.305,-0.609l-0.308,-0.61l-0.306,-0.603l-0.31,-0.605l-0.311,-0.605l-0.312,-0.603l-0.313,-0.602l-0.314,-0.6l-0.316,-0.6l-0.317,-0.598l-0.318,-0.596l-0.32,-0.596l-0.322,-0.596l-0.322,-0.592l-0.325,-0.594l-0.325,-0.592l-0.326,-0.589l-0.329,-0.591l-0.33,-0.588l-0.329,-0.584l-0.333,-0.587l-0.333,-0.584l-0.334,-0.581l-0.338,-0.585l-0.338,-0.581l-0.337,-0.576l-0.342,-0.582l-0.343,-0.578l-0.341,-0.572l-0.345,-0.577l-0.347,-0.575l-0.347,-0.571l-0.35,-0.573l-0.35,-0.569l-0.351,-0.569l-0.353,-0.567l-0.355,-0.567l-0.356,-0.566l-0.357,-0.563l-0.359,-0.563l-0.361,-0.563l-0.362,-0.561l-0.363,-0.559l-0.363,-0.556l-0.367,-0.557l-0.368,-0.557l-0.368,-0.553l-0.371,-0.554l-0.372,-0.552l-0.373,-0.551l-0.376,-0.55l-0.375,-0.547l-0.377,-0.546l-0.38,-0.547l-0.381,-0.545l-0.382,-0.543l-0.384,-0.543l-0.385,-0.54l-0.385,-0.538l-0.389,-0.539l-0.389,-0.537l-0.391,-0.536l-0.394,-0.536l-0.393,-0.533l-0.395,-0.531l-0.397,-0.53l-0.399,-0.53l-0.401,-0.529l-0.4,-0.526l-0.404,-0.526l-0.405,-0.525l-0.405,-0.522l-0.408,-0.523l-0.409,-0.52l-0.41,-0.519l-0.414,-0.519l-0.413,-0.516l-0.415,-0.515l-0.418,-0.515l-0.418,-0.513l-0.42,-0.512l-0.421,-0.509l-0.423,-0.509l-0.426,-0.509l-0.427,-0.507l-0.426,-0.504l-0.43,-0.504l-0.432,-0.503l-0.432,-0.5l-0.434,-0.501l-0.437,-0.499l-0.435,-0.495l-0.44,-0.497l-0.443,-0.497l-0.44,-0.492l-0.444,-0.491l-0.446,-0.492l-0.446,-0.488l-0.45,-0.49l-0.45,-0.486l-0.452,-0.486l-0.452,-0.483l-0.455,-0.483l-0.459,-0.483l-0.457,-0.479l-0.461,-0.479l-0.461,-0.477l-0.463,-0.476l-0.466,-0.476l-0.468,-0.474l-0.467,-0.472l-0.47,-0.47l-0.473,-0.47l-0.471,-0.467l-0.475,-0.466l-0.48,-0.468l-0.478,-0.464l-0.479,-0.461l-0.481,-0.462l-0.486,-0.461l-0.484,-0.458l-0.487,-0.457l-0.49,-0.458l-0.49,-0.453l-0.491,-0.453l-0.494,-0.452l-0.497,-0.451l-0.328,-0.296l-0.324,-0.275l-0.5,-0.42l-0.5,-0.418l-0.502,-0.416l-0.506,-0.417l-0.507,-0.415l-0.507,-0.411l-0.513,-0.413l-0.514,-0.412l-0.514,-0.409l-0.518,-0.409l-0.524,-0.41l-0.522,-0.407l-0.524,-0.404l-0.528,-0.405l-0.529,-0.403l-0.533,-0.403l-0.533,-0.401l-0.539,-0.401l-0.541,-0.401l-0.539,-0.396l-0.544,-0.398l-0.548,-0.396l-0.546,-0.393l-0.553,-0.396l-0.553,-0.392l-0.556,-0.391l-0.559,-0.391l-0.56,-0.389l-0.563,-0.389l-0.566,-0.387l-0.567,-0.385l-0.573,-0.386l-0.572,-0.384l-0.574,-0.382l-0.578,-0.382l-0.581,-0.38l-0.583,-0.38l-0.586,-0.379l-0.588,-0.377l-0.588,-0.375l-0.594,-0.375l-0.595,-0.374l-0.598,-0.372l-0.601,-0.372l-0.603,-0.37l-0.606,-0.37l-0.608,-0.368l-0.609,-0.366l-0.615,-0.367l-0.615,-0.364l-0.616,-0.363l-0.624,-0.364l-0.623,-0.361l-0.626,-0.36l-0.629,-0.359l-0.632,-0.358l-0.634,-0.357l-0.634,-0.354l-0.64,-0.355l-0.642,-0.353l-0.645,-0.353l-0.647,-0.35l-0.65,-0.35l-0.653,-0.349l-0.654,-0.347l-0.658,-0.346l-0.662,-0.346l-0.662,-0.344l-0.665,-0.341l-0.67,-0.343l-0.671,-0.34l-0.672,-0.338l-0.678,-0.339l-0.681,-0.338l-0.681,-0.334l-0.684,-0.334l-0.688,-0.334l-0.692,-0.332l-0.692,-0.33l-0.696,-0.33l-0.7,-0.329l-0.7,-0.327l-0.705,-0.326l-0.708,-0.325l-0.709,-0.323l-0.712,-0.322l-0.717,-0.322l-0.718,-0.32l-0.721,-0.318l-0.723,-0.317l-0.727,-0.317l-0.732,-0.315l-0.731,-0.314l-0.735,-0.312l-0.737,-0.311l-0.743,-0.31l-0.745,-0.31l-0.745,-0.307l-0.75,-0.306l-0.752,-0.305l-0.757,-0.304l-0.757,-0.302l-0.761,-0.301l-0.766,-0.301l-0.767,-0.298l-0.769,-0.298l-0.775,-0.296l-0.776,-0.295l-0.778,-0.294l-0.781,-0.292l-0.785,-0.291l-0.789,-0.29l-0.79,-0.288l-0.794,-0.288l-0.797,-0.286l-0.799,-0.284l-0.802,-0.283l-0.808,-0.283l-0.808,-0.281l-0.81,-0.278l-0.817,-0.279l-0.816,-0.277l-0.819,-0.275l-0.826,-0.275l-0.827,-0.273l-0.828,-0.27l-0.835,-0.271l-0.836,-0.269l-0.839,-0.268l-0.842,-0.266l-0.843,-0.264l-0.848,-0.264l-0.852,-0.262l-0.856,-0.262l-0.858,-0.26l-0.857,-0.257l-0.864,-0.257l-0.868,-0.256l-0.87,-0.254l-0.872,-0.252l-0.876,-0.252l-0.88,-0.25l-0.883,-0.249l-0.885,-0.247l-0.888,-0.246l-0.892,-0.245l-0.893,-0.242l-0.899,-0.242l-0.902,-0.241l-0.903,-0.239l-0.91,-0.238l-0.909,-0.236l-0.913,-0.234l-0.919,-0.235l-0.919,-0.232l-0.923,-0.23l-0.927,-0.229l-0.929,-0.228l-0.934,-0.227l-0.936,-0.225l-0.939,-0.223l-0.943,-0.223l-0.946,-0.22l-0.948,-0.22l-0.953,-0.218l-0.957,-0.216l-0.958,-0.215l-0.961,-0.214l-0.966,-0.212l-0.97,-0.211l-0.971,-0.21l-0.975,-0.207l-0.978,-0.207l-0.982,-0.205l-0.985,-0.204l-0.988,-0.201l-0.992,-0.201l-0.995,-0.199l-0.998,-0.198l-1.002,-0.197l-1.005,-0.195l-1.008,-0.193l-1.012,-0.192l-1.013,-0.19l-1.018,-0.189l-1.023,-0.187l-1.025,-0.186l-1.027,-0.185l-1.033,-0.183l-1.035,-0.182l-1.038,-0.18l-1.042,-0.178l-1.042,-0.177l-1.051,-0.176l-1.051,-0.174l-1.055,-0.172l-1.06,-0.172l-1.061,-0.169l-1.065,-0.168l-1.069,-0.167l-1.072,-0.165l-1.076,-0.163l-1.079,-0.162l-1.082,-0.161l-1.086,-0.158l-1.089,-0.158l-1.093,-0.156l-1.097,-0.154l-1.098,-0.153l-1.103,-0.151l-1.109,-0.15l-1.11,-0.148l-1.112,-0.147l-1.115,-0.145l-1.121,-0.143l-1.126,-0.143l-1.128,-0.14l-1.129,-0.139l-1.134,-0.137l-1.138,-0.136l-1.142,-0.134l-1.145,-0.133l-1.149,-0.131l-1.151,-0.13l-1.156,-0.128l-1.159,-0.126l-1.162,-0.125l-1.166,-0.123l-1.169,-0.122l-1.174,-0.12l-1.177,-0.119l-1.179,-0.117l-1.185,-0.115l-1.186,-0.114l-1.192,-0.112l-1.194,-0.111l-1.197,-0.108l-1.204,-0.108l-1.204,-0.106l-1.208,-0.104l-1.214,-0.103l-1.215,-0.1l-1.219,-0.1l-1.224,-0.097l-1.228,-0.097l-1.229,-0.094l-1.234,-0.093l-1.237,-0.091l-1.242,-0.09l-1.246,-0.088l-1.247,-0.087l-1.252,-0.084l-1.257,-0.083l-1.261,-0.082l-1.254,-0.079l-1.287,-0.078l-1.303,-0.078l-1.306,-0.076l-1.309,-0.076l-1.312,-0.073l-1.316,-0.073l-1.32,-0.071l-1.323,-0.07l-1.325,-0.069l-1.328,-0.068l-1.333,-0.066l-1.334,-0.065l-1.338,-0.064l-1.342,-0.062l-1.343,-0.061l-1.346,-0.06l-1.351,-0.059l-1.353,-0.057l-1.355,-0.056l-1.358,-0.055l-1.361,-0.053l-1.364,-0.052l-1.366,-0.051l-1.371,-0.05l-1.372,-0.048l-1.373,-0.047l-1.377,-0.045l-1.381,-0.044l-1.383,-0.043l-1.383,-0.042l-1.388,-0.04l-1.389,-0.038l-1.393,-0.038l-1.395,-0.036l-1.395,-0.035l-1.4,-0.033l-1.402,-0.032l-1.404,-0.031l-1.406,-0.029l-1.408,-0.028l-1.409,-0.027l-1.413,-0.025l-1.415,-0.024l-1.416,-0.022l-1.418,-0.021l-1.421,-0.02l-1.424,-0.018l-1.424,-0.017l-1.425,-0.016l-1.43,-0.014l-1.429,-0.012l-1.432,-0.012l-1.435,-0.009l-1.435,-0.009l-1.437,-0.007l-1.44,-0.005l-1.44,-0.005l-1.441,-0.002l-1.445,-0.002l-1.445,0l-1.447,0.002l-1.448,0.003l-1.45,0.004l-1.451,0.006l-1.453,0.008l-1.454,0.008l-1.455,0.011l-1.458,0.012l-1.458,0.013l-1.458,0.014l-1.461,0.017l-1.462,0.017l-1.463,0.019l-1.465,0.021l-1.464,0.022l-1.465,0.023l-1.469,0.026l-1.468,0.026l-1.468,0.028l-1.472,0.03l-1.47,0.031l-1.472,0.032l-1.473,0.034l-1.473,0.036l-1.474,0.037l-1.476,0.039l-1.476,0.04l-1.476,0.041l-1.477,0.043l-1.478,0.045l-1.478,0.046l-1.48,0.048l-1.479,0.05l-1.48,0.05l-1.48,0.053l-1.482,0.054l-1.481,0.055l-1.481,0.057l-1.483,0.059l-1.482,0.06l-1.483,0.062l-1.483,0.063l-1.482,0.065l-1.483,0.067l-1.485,0.068l-1.484,0.07l-1.483,0.071l-1.483,0.073l-1.485,0.074l-1.484,0.076l-1.483,0.078l-1.484,0.079l-1.483,0.081l-1.484,0.082l-1.484,0.084l-1.484,0.086l-1.482,0.087l-1.482,0.089l-1.483,0.091l-1.483,0.092l-1.481,0.093l-1.481,0.096l-1.482,0.097l-1.48,0.098l-1.481,0.101l-1.479,0.102l-1.479,0.103l-1.48,0.106l-1.477,0.106l-1.477,0.109l-1.477,0.11l-1.476,0.112l-1.475,0.114l-1.474,0.115l-1.475,0.117l-1.473,0.118l-1.472,0.12l-1.472,0.122l-1.469,0.124l-1.469,0.125l-1.47,0.127l-1.468,0.129l-1.465,0.13l-1.466,0.132l-1.464,0.134l-1.463,0.135l-1.463,0.137l-1.46,0.139l-1.458,0.141l-1.46,0.142l-1.458,0.144l-1.455,0.146l-1.453,0.147l-1.454,0.149l-1.452,0.151l-1.45,0.153l-1.449,0.154l-1.447,0.156l-1.445,0.158l-1.445,0.159l-1.443,0.162l-1.441,0.163l-1.438,0.164l-1.437,0.167l-1.436,0.168l-1.435,0.17l-1.432,0.172l-1.43,0.174l-1.43,0.175l-1.426,0.177l-1.423,0.179l-1.424,0.181l-1.421,0.182l-1.419,0.184l-1.417,0.186l-1.413,0.188l-1.414,0.19l-1.411,0.191l-1.408,0.193l-1.406,0.195l-1.403,0.196l-1.402,0.199l-1.4,0.2l-1.397,0.203l-1.395,0.203l-1.391,0.206l-1.39,0.208l-1.388,0.209l-1.384,0.211l-1.383,0.213l-1.379,0.215l-1.378,0.216l-1.375,0.219l-1.371,0.22l-1.368,0.222l-1.366,0.224l-1.366,0.226l-1.361,0.227l-1.357,0.23l-1.356,0.231l-1.353,0.233l-1.349,0.235l-1.346,0.236l-1.343,0.239l-1.342,0.241l-1.337,0.242l-1.334,0.244l-1.331,0.246l-1.328,0.248l-1.327,0.25l-1.32,0.251l-1.319,0.253l-1.316,0.256l-1.311,0.257l-1.309,0.259l-1.307,0.261l-1.3,0.262l-1.299,0.265l-1.295,0.266l-1.29,0.269l-1.289,0.27l-1.284,0.272l-1.282,0.274l-1.277,0.276l-1.273,0.277l-1.27,0.28l-1.266,0.282l-1.262,0.283l-1.258,0.285l-1.255,0.287l-1.251,0.289l-1.246,0.291l-1.243,0.292l-1.239,0.295l-1.236,0.297l-1.229,0.298l-1.228,0.301l-1.224,0.302l-1.216,0.303l-1.216,0.307l-1.211,0.308l-1.204,0.309l-1.208,0.313l-0.594,0.155l-0.599,0.157l-0.597,0.158l-0.594,0.157l-0.595,0.159l-0.595,0.159l-0.593,0.159l-0.592,0.16l-0.589,0.16l-0.59,0.161l-0.589,0.161l-0.584,0.161l-0.587,0.163l-0.586,0.163l-0.584,0.163l-0.584,0.164l-0.579,0.163l-0.581,0.165l-0.58,0.165l-0.575,0.165l-0.578,0.166l-0.577,0.167l-0.575,0.167l-0.574,0.167l-0.57,0.167l-0.687,0.203l-0.673,0.188l-0.553,0.156l-0.558,0.157l-0.556,0.158l-0.553,0.158l-0.548,0.157l-0.55,0.158l-0.552,0.16l-0.548,0.159l-0.547,0.16l-0.548,0.161l-0.544,0.16l-0.541,0.16l-0.545,0.163l-0.54,0.161l-0.541,0.163l-0.539,0.162l-0.537,0.164l-0.54,0.164l-0.535,0.164l-0.535,0.164l-0.533,0.165l-0.532,0.165l-0.531,0.166l-0.532,0.167l-0.53,0.167l-0.527,0.166l-0.526,0.168l-0.526,0.168l-0.527,0.169l-0.523,0.168l-0.523,0.169l-0.521,0.17l-0.519,0.17l-0.519,0.17l-0.521,0.172l-0.516,0.171l-0.517,0.171l-0.514,0.172l-0.513,0.173l-0.516,0.174l-0.51,0.173l-0.511,0.173l-0.508,0.174l-0.511,0.176l-0.508,0.175l-0.502,0.174l-0.508,0.177l-0.506,0.177l-0.503,0.176l-0.502,0.177l-0.5,0.178l-0.499,0.177l-0.498,0.178l-0.498,0.179l-0.499,0.18l-0.498,0.181l-0.491,0.179l-0.493,0.18l-0.495,0.182l-0.49,0.181l-0.49,0.181l-0.492,0.183l-0.487,0.182l-0.487,0.183l-0.489,0.184l-0.481,0.183l-0.484,0.184l-0.485,0.185l-0.484,0.186l-0.48,0.185l-0.476,0.184l-0.482,0.188l-0.48,0.187l-0.473,0.186l-0.475,0.187l-0.481,0.19l-0.473,0.188l-0.468,0.187l-0.474,0.19l-0.47,0.189l-0.47,0.19l-0.47,0.191l-0.466,0.19l-0.466,0.191l-0.469,0.193l-0.464,0.191l-0.462,0.192l-0.462,0.192l-0.46,0.193l-0.463,0.194l-0.459,0.194l-0.461,0.195l-0.456,0.195l-0.456,0.194l-0.458,0.197l-0.453,0.195l-0.453,0.196l-0.451,0.196l-0.451,0.197l-0.453,0.199l-0.449,0.197l-0.447,0.198l-0.449,0.2l-0.446,0.198l-0.449,0.201l-0.443,0.199l-0.443,0.2l-0.444,0.202l-0.441,0.201l-0.44,0.2l-0.438,0.202l-0.438,0.202l-0.441,0.204l-0.438,0.204l-0.435,0.202l-0.434,0.204l-0.432,0.203l-0.433,0.205l-0.434,0.206l-0.433,0.206l-0.425,0.204l-0.431,0.207l-0.431,0.208l-0.423,0.205l-0.429,0.208l-0.427,0.209l-0.422,0.207l-0.423,0.208l-0.422,0.209l-0.42,0.209l-0.422,0.21l-0.421,0.211l-0.418,0.21l-0.417,0.211l-0.419,0.212l-0.414,0.211l-0.414,0.211l-0.417,0.214l-0.412,0.212l-0.41,0.212l-0.413,0.215l-0.41,0.214l-0.408,0.214l-0.41,0.215l-0.409,0.216l-0.406,0.215l-0.404,0.215l-0.403,0.216l-0.404,0.216l-0.407,0.22l-0.401,0.216l-0.399,0.217l-0.4,0.218l-0.399,0.219l-0.402,0.221l-0.396,0.218l-0.395,0.219l-0.395,0.22l-0.394,0.22l-0.396,0.222l-0.394,0.222l-0.39,0.22l-0.392,0.223l-0.391,0.223l-0.388,0.221l-0.391,0.225l-0.389,0.224l-0.382,0.222l-0.385,0.223l-0.389,0.228l-0.383,0.224l-0.383,0.225l-0.383,0.226l-0.38,0.226l-0.381,0.226l-0.381,0.228l-0.376,0.226l-0.378,0.227l-0.382,0.231l-0.374,0.227l-0.374,0.228l-0.377,0.231l-0.372,0.228l-0.373,0.23l-0.37,0.23l-0.372,0.231l-0.372,0.232l-0.368,0.23l-0.37,0.233l-0.367,0.232l-0.366,0.232l-0.367,0.234l-0.367,0.234l-0.363,0.233l-0.363,0.233l-0.364,0.236l-0.363,0.235l-0.359,0.234l-0.359,0.235l-0.361,0.237l-0.358,0.236l-0.356,0.236l-0.358,0.238l-0.357,0.238l-0.355,0.237l-0.356,0.239l-0.352,0.238l-0.351,0.237l-0.354,0.241l-0.353,0.241l-0.348,0.239l-0.348,0.239l-0.351,0.242l-0.349,0.242l-0.346,0.241l-0.345,0.241l-0.347,0.243l-0.346,0.244l-0.342,0.241l-0.342,0.243l-0.344,0.245l-0.343,0.245l-0.34,0.244l-0.339,0.244l-0.339,0.246l-0.34,0.246l-0.337,0.246l-0.335,0.245l-0.34,0.25l-0.335,0.246l-0.332,0.246l-0.335,0.249l-0.332,0.247l-0.33,0.247l-0.334,0.251l-0.332,0.25l-0.33,0.25l-0.329,0.25l-0.326,0.249l-0.329,0.252l-0.326,0.25l-0.327,0.253l-0.327,0.253l-0.323,0.251l-0.324,0.253l-0.323,0.252l-0.321,0.253l-0.326,0.257l-0.319,0.253l-0.318,0.253l-0.321,0.256l-0.32,0.257l-0.316,0.254l-0.315,0.254l-0.321,0.26l-0.315,0.256l-0.313,0.256l-0.315,0.258l-0.312,0.257l-0.314,0.259l-0.314,0.26l-0.31,0.258l-0.311,0.26l-0.31,0.26l-0.309,0.26l-0.308,0.26l-0.308,0.261l-0.308,0.262l-0.305,0.261l-0.306,0.262l-0.306,0.263l-0.304,0.263l-0.301,0.261l-0.304,0.264l-0.304,0.266l-0.302,0.264l-0.299,0.263l-0.3,0.265l-0.299,0.266l-0.299,0.266l-0.3,0.268l-0.296,0.265l-0.297,0.268l-0.295,0.265l-0.293,0.267l-0.298,0.271l-0.296,0.27l-0.291,0.267l-0.291,0.267l-0.292,0.27l-0.292,0.271l-0.291,0.27l-0.29,0.272l-0.286,0.268l-0.29,0.273l-0.29,0.273l-0.285,0.27l-0.288,0.274l-0.286,0.273l-0.286,0.274l-0.284,0.274l-0.282,0.272l-0.284,0.274l-0.283,0.276l-0.281,0.275l-0.282,0.275l-0.28,0.276l-0.283,0.279l-0.278,0.275l-0.276,0.275l-0.281,0.28l-0.278,0.279l-0.277,0.278l-0.275,0.277l-0.275,0.279l-0.275,0.279l-0.273,0.279l-0.275,0.282l-0.274,0.281l-0.271,0.28l-0.273,0.282l-0.27,0.281l-0.272,0.283l-0.269,0.282l-0.268,0.281l-0.27,0.285l-0.27,0.285l-0.266,0.282l-0.265,0.283l-0.268,0.287l-0.265,0.284l-0.265,0.286l-0.264,0.285l-0.264,0.287l-0.265,0.288l-0.261,0.285l-0.262,0.288l-0.263,0.289l-0.26,0.287l-0.259,0.288l-0.256,0.285l-0.522,0.584l-0.516,0.581l-0.512,0.581l-0.51,0.584l-0.51,0.587l-0.504,0.585l-0.504,0.589l-0.502,0.591l-0.498,0.59l-0.497,0.593l-0.495,0.596l-0.492,0.596l-0.49,0.597l-0.488,0.6l-0.486,0.601l-0.484,0.602l-0.481,0.605l-0.479,0.605l-0.476,0.606l-0.475,0.609l-0.473,0.611l-0.472,0.613l-0.468,0.613l-0.466,0.615l-0.465,0.617l-0.462,0.618l-0.46,0.619l-0.457,0.621l-0.458,0.625l-0.454,0.625l-0.451,0.625l-0.451,0.628l-0.448,0.63l-0.446,0.631l-0.444,0.632l-0.441,0.633l-0.441,0.638l-0.439,0.639l-0.436,0.638l-0.434,0.64l-0.432,0.641l-0.432,0.646l-0.429,0.646l-0.425,0.645l-0.426,0.65l-0.423,0.65l-0.421,0.652l-0.419,0.653l-0.418,0.656l-0.417,0.658l-0.413,0.657l-0.411,0.659l-0.412,0.664l-0.409,0.664l-0.406,0.664l-0.405,0.666l-0.403,0.668l-0.402,0.671l-0.4,0.671l-0.398,0.673l-0.396,0.675l-0.395,0.677l-0.393,0.678l-0.391,0.68l-0.39,0.681l-0.388,0.683l-0.387,0.685l-0.384,0.686l-0.383,0.688l-0.381,0.689l-0.38,0.691l-0.379,0.694l-0.377,0.694l-0.374,0.696l-0.374,0.698l-0.372,0.699l-0.37,0.701l-0.369,0.703l-0.367,0.704l-0.366,0.707l-0.364,0.707l-0.363,0.709l-0.362,0.712l-0.359,0.712l-0.412,0.82l-0.41,0.795l-0.357,0.694l-0.357,0.697l-0.354,0.697l-0.353,0.698l-0.351,0.699l-0.351,0.701l-0.349,0.703l-0.348,0.703l-0.347,0.705l-0.345,0.706l-0.344,0.707l-0.342,0.709l-0.342,0.71l-0.341,0.712l-0.339,0.712l-0.337,0.713l-0.336,0.715l-0.336,0.716l-0.333,0.717l-0.333,0.719l-0.331,0.719l-0.33,0.72l-0.329,0.722l-0.328,0.724l-0.326,0.724l-0.325,0.724l-0.324,0.726l-0.322,0.727l-0.321,0.728l-0.321,0.73l-0.319,0.731l-0.317,0.731l-0.316,0.732l-0.315,0.732l-0.314,0.736l-0.313,0.735l-0.311,0.735l-0.31,0.738l-0.309,0.739l-0.308,0.739l-0.307,0.74l-0.305,0.74l-0.303,0.741l-0.303,0.744l-0.302,0.743l-0.301,0.745l-0.299,0.746l-0.298,0.745l-0.296,0.746l-0.296,0.748l-0.294,0.749l-0.293,0.749l-0.292,0.75l-0.291,0.751l-0.29,0.751l-0.288,0.752l-0.287,0.754l-0.286,0.753l-0.285,0.753l-0.284,0.757l-0.282,0.756l-0.281,0.755l-0.281,0.758l-0.279,0.758l-0.278,0.758l-0.276,0.759l-0.275,0.758l-0.275,0.761l-0.273,0.761l-0.272,0.761l-0.271,0.762l-0.27,0.763l-0.268,0.762l-0.267,0.763l-0.267,0.764l-0.265,0.765l-0.264,0.765l-0.263,0.766l-0.261,0.765l-0.261,0.766l-0.259,0.767l-0.259,0.768l-0.257,0.767l-0.256,0.768l-0.255,0.768l-0.254,0.769l-0.252,0.769l-0.252,0.77l-0.251,0.769l-0.249,0.77l-0.248,0.771l-0.247,0.77l-0.246,0.771l-0.245,0.772l-0.244,0.771l-0.243,0.772l-0.242,0.773l-0.241,0.772l-0.239,0.772l-0.238,0.772l-0.238,0.774l-0.236,0.774l-0.235,0.772l-0.234,0.773l-0.234,0.775l-0.232,0.773l-0.231,0.774l-0.23,0.774l-0.229,0.774l-0.227,0.774l-0.227,0.775l-0.226,0.774l-0.225,0.774l-0.223,0.774l-0.223,0.775l-0.222,0.775l-0.22,0.775l-0.22,0.774l-0.218,0.774l-0.217,0.774l-0.217,0.775l-0.215,0.775l-0.215,0.774l-0.213,0.775l-0.213,0.774l-0.211,0.773l-0.21,0.774l-0.21,0.774l-0.208,0.774l-0.208,0.774l-0.206,0.773l-0.205,0.774l-0.205,0.772l-0.203,0.772l-0.202,0.773l-0.202,0.774l-0.201,0.772l-0.199,0.771l-0.199,0.773l-0.197,0.77l-0.197,0.772l-0.195,0.772l-0.195,0.769l-0.194,0.771l-0.192,0.769l-0.192,0.77l-0.191,0.771l-0.19,0.768l-0.189,0.768l-0.188,0.768l-0.187,0.768l-0.187,0.768l-0.185,0.767l-0.184,0.766l-0.183,0.766l-0.183,0.765l-0.181,0.766l-0.181,0.765l-0.18,0.765l-0.179,0.763l-0.178,0.763l-0.177,0.763l-0.176,0.761l-0.175,0.762l-0.174,0.762l-0.174,0.76l-0.171,0.757l-0.344,1.522l-0.339,1.515l-0.335,1.514l-0.332,1.509l-0.328,1.508l-0.326,1.505l-0.321,1.502l-0.319,1.499l-0.315,1.496l-0.311,1.492l-0.309,1.49l-0.305,1.486l-0.302,1.483l-0.298,1.479l-0.295,1.474l-0.293,1.471l-0.289,1.469l-0.286,1.463l-0.282,1.459l-0.28,1.456l-0.277,1.452l-0.274,1.446l-0.27,1.443l-0.268,1.438l-0.265,1.433l-0.261,1.429l-0.259,1.424l-0.256,1.419l-0.253,1.414l-0.251,1.41l-0.247,1.403l-0.245,1.399l-0.242,1.394l-0.239,1.387l-0.237,1.383l-0.234,1.376l-0.231,1.372l-0.228,1.366l-0.226,1.359l-0.224,1.353l-0.22,1.347l-0.219,1.342l-0.216,1.336l-0.163,1.016l-0.119,1.003l-0.153,1.303l-0.149,1.294l-0.146,1.289l-0.143,1.282l-0.139,1.275l-0.136,1.269l-0.133,1.261l-0.13,1.256l-0.126,1.25l-0.124,1.243l-0.12,1.236l-0.117,1.231l-0.114,1.226l-0.111,1.218l-0.107,1.211l-0.105,1.207l-0.101,1.201l-0.099,1.195l-0.095,1.19l-0.092,1.183l-0.09,1.178l-0.086,1.173l-0.083,1.168l-0.081,1.162l-0.077,1.155l-0.074,1.153l-0.072,1.147l-0.068,1.14l-0.066,1.136l-0.063,1.132l-0.06,1.127l-0.057,1.122l-0.054,1.116l-0.051,1.112l-0.049,1.109l-0.046,1.102l-0.043,1.099l-0.04,1.095l-0.037,1.09l-0.035,1.087l-0.032,1.081l-0.029,1.077l-0.027,1.074l-0.024,1.071l-0.021,1.065l-0.018,1.062l-0.016,1.058l-0.014,1.055l-0.01,1.052l-0.008,1.047l-0.006,1.044l-0.003,1.042l0,1.037l0.002,1.035l0.005,1.031l0.008,1.028l0.009,1.026l0.013,1.022l0.014,1.019l0.018,1.017l0.02,1.014l0.022,1.011l0.024,1.009l0.027,1.008l0.03,1.004l0.032,1l0.034,1l0.036,0.997l0.039,0.995l0.042,0.994l0.043,0.991l0.046,0.989l0.049,0.987l0.05,0.987l0.053,0.983l0.055,0.982l0.058,0.983l0.059,0.978l0.062,0.978l0.064,0.978l0.067,0.975l0.068,0.974l0.071,0.974l0.073,0.973l0.075,0.972l0.077,0.97l0.08,0.969l0.081,0.97l0.084,0.969l0.086,0.967l0.088,0.968l0.09,0.968l0.092,0.966l0.094,0.966l0.096,0.967l0.099,0.967l0.1,0.966l0.102,0.966l0.105,0.966l0.106,0.967l0.109,0.967l0.11,0.966l0.112,0.968l0.115,0.969l0.116,0.967l0.118,0.969l0.121,0.97l0.122,0.97l0.124,0.972l0.126,0.972l0.128,0.974l0.13,0.974l0.131,0.974l0.134,0.977l0.135,0.978l0.137,0.979l0.139,0.98l0.141,0.981l0.143,0.983l0.144,0.985l0.147,0.986l0.148,0.989l0.15,0.99l0.151,0.992l0.154,0.994l0.155,0.995l0.156,0.994l0.158,0.99l0.159,0.99l0.162,0.992l0.164,0.993l0.167,0.994l0.169,0.997l0.171,0.999l0.174,1l0.176,1.002l0.178,1.003l0.181,1.005l0.182,1.006l0.185,1.008l0.187,1.008l0.189,1.01l0.191,1.01l0.193,1.012l0.195,1.012l0.197,1.014l0.198,1.015l0.201,1.014l0.202,1.015l0.205,1.017l0.206,1.017l0.208,1.016l0.209,1.017l0.212,1.018l0.213,1.018l0.214,1.018l0.216,1.019l0.218,1.017l0.219,1.018l0.221,1.018l0.222,1.017l0.224,1.017l0.225,1.017l0.226,1.016l0.228,1.016l0.229,1.016l0.23,1.015l0.232,1.014l0.232,1.013l0.234,1.012l0.235,1.012l0.236,1.01l0.237,1.01l0.239,1.009l0.239,1.007l0.24,1.005l0.241,1.004l0.242,1.004l0.243,1.002l0.244,1l0.244,0.998l0.245,0.997l0.247,0.996l0.246,0.993l0.248,0.991l0.248,0.989l0.248,0.988l0.25,0.986l0.249,0.982l0.251,0.981l0.251,0.98l0.251,0.976l0.251,0.973l0.252,0.972l0.253,0.97l0.252,0.966l0.253,0.963l0.254,0.961l0.253,0.959l0.254,0.955l0.253,0.951l0.254,0.95l0.254,0.947l0.254,0.942l0.254,0.94l0.254,0.937l0.254,0.932l0.254,0.93l0.254,0.926l0.254,0.923l0.253,0.918l0.253,0.915l0.253,0.912l0.253,0.908l0.252,0.901l0.504,1.798l0.502,1.779l0.5,1.763l0.499,1.745l0.495,1.726l0.493,1.708l0.49,1.69l0.487,1.67l0.483,1.649l0.48,1.629l0.476,1.607l0.471,1.586l0.467,1.564l0.462,1.541l0.457,1.518l0.452,1.494l0.446,1.469l0.44,1.445l0.435,1.419l0.477,1.555l0.471,1.651l0.419,1.477l0.412,1.455l0.402,1.434l0.392,1.407l0.195,0.703l0.191,0.694l0.189,0.688l0.188,0.688l0.184,0.681l0.183,0.676l0.181,0.675l0.178,0.671l0.177,0.666l0.174,0.664l0.172,0.66l0.17,0.658l0.168,0.656l0.166,0.651l0.164,0.651l0.161,0.649l0.159,0.644l0.158,0.646l0.156,0.643l0.152,0.639l0.152,0.64l0.149,0.641l0.146,0.635l0.144,0.636l0.143,0.635l0.14,0.636l0.138,0.634l0.136,0.634l0.133,0.633l0.131,0.633l0.129,0.634l0.127,0.634l0.125,0.635l0.122,0.632l0.12,0.635l0.117,0.634l0.116,0.637l0.113,0.638l0.111,0.637l0.108,0.639l0.106,0.64l0.104,0.639l0.101,0.645l0.099,0.644l0.097,0.645l0.094,0.647l0.092,0.651l0.09,0.652l0.087,0.651l0.085,0.656l0.082,0.658l0.08,0.661l0.078,0.662l0.075,0.664l0.073,0.669l0.07,0.671l0.068,0.673l0.066,0.677l0.064,0.68l0.061,0.684l0.059,0.687l0.056,0.689l0.054,0.694l0.052,0.698l0.049,0.701l0.048,0.706l0.045,0.709l0.042,0.715l0.041,0.719l0.038,0.723l0.036,0.727l0.034,0.733l0.032,0.738l0.029,0.743l0.027,0.749l0.026,0.754l0.023,0.758l0.02,0.766l0.019,0.771l0.017,0.778l0.015,0.783l0.012,0.789l0.011,0.798l0.008,0.803l0.007,0.81l0.004,0.817l0.003,0.825l0.001,0.832l-0.002,0.839l-0.003,0.848l-0.006,0.854l-0.007,0.863l-0.009,0.872l-0.011,0.88l-0.013,0.889l-0.015,0.897l-0.016,0.907l-0.019,0.915l-0.02,0.925l-0.022,0.935l-0.024,0.942l-0.026,0.955l-0.028,0.964l-0.029,0.973l-0.031,0.985l-0.033,0.995l-0.035,1.005l-0.036,1.017l-0.038,1.028l-0.04,1.039l-0.042,1.051l-0.044,1.062l-0.045,1.072l-0.046,1.087l-0.049,1.098l-0.05,1.11l-0.052,1.123l-0.07,1.479l-0.141,1.545l-0.113,1.217l-0.115,1.229l-0.117,1.24l-0.12,1.251l-0.122,1.262l-0.125,1.274l-0.127,1.284l-0.129,1.294l-0.131,1.305l-0.133,1.315l-0.136,1.324l-0.137,1.335l-0.14,1.344l-0.142,1.352l-0.144,1.362l-0.145,1.371l-0.148,1.38l-0.149,1.387l-0.152,1.397l-0.153,1.404l-0.155,1.412l-0.157,1.42l-0.158,1.427l-0.161,1.434l-0.162,1.441l-0.163,1.448l-0.165,1.455l-0.167,1.461l-0.169,1.466l-0.169,1.473l-0.172,1.48l-0.173,1.483l-0.174,1.49l-0.176,1.494l-0.176,1.5l-0.179,1.504l-0.18,1.511l-0.363,3.027l-0.367,3.045l-0.373,3.059l-0.376,3.07l-0.381,3.081l-0.384,3.089l-0.388,3.096l-0.391,3.101l-0.394,3.104l-0.396,3.106l-0.4,3.107l-0.401,3.104l-0.403,3.1l-0.405,3.096l-0.407,3.089l-0.407,3.079l-0.408,3.07l-0.41,3.058l-0.409,3.044l-0.409,3.029l-0.41,3.011l-0.409,2.992l-0.408,2.972l-0.407,2.95l-0.406,2.925l-0.405,2.9l-0.403,2.873l-0.401,2.844l-0.399,2.812l-0.396,2.78l-0.394,2.746l-0.39,2.709l-0.387,2.673l-0.384,2.633l-0.38,2.592l-0.376,2.549l-0.372,2.505l-0.367,2.459l-0.363,2.411l-0.357,2.361l-0.352,2.312l-0.347,2.258l-0.146,0.946l0.905,-0.978l1.569,-1.694l1.606,-1.733l1.642,-1.77l1.677,-1.807l1.71,-1.842l1.742,-1.875l1.774,-1.907l1.802,-1.936l1.831,-1.965l1.858,-1.992l1.883,-2.018l1.906,-2.041l1.929,-2.063l1.951,-2.084l1.971,-2.103l1.989,-2.12l2.006,-2.137l2.023,-2.151l2.036,-2.163l2.05,-2.175l2.062,-2.185l2.072,-2.193l2.081,-2.199l2.089,-2.205l2.095,-2.207l2.1,-2.21l2.104,-2.21l2.106,-2.209l2.108,-2.206l2.107,-2.202l2.104,-2.195l1.053,-1.096l1.05,-1.093l1.051,-1.092l1.047,-1.088l1.047,-1.086l1.046,-1.083l1.044,-1.08l1.041,-1.077l1.04,-1.074l1.037,-1.069l1.035,-1.067l1.033,-1.062l1.029,-1.058l1.027,-1.053l1.023,-1.049l1.021,-1.045l1.017,-1.04l1.013,-1.033l1.01,-1.03l1.006,-1.024l1.002,-1.017l0.997,-1.012l0.994,-1.006l0.988,-1l0.984,-0.992l0.979,-0.987l0.975,-0.981l0.968,-0.972l0.964,-0.966l0.958,-0.958l0.953,-0.951l0.946,-0.942l0.941,-0.935l0.934,-0.927l0.929,-0.919l0.922,-0.911l0.916,-0.901l0.909,-0.893l0.901,-0.883l0.895,-0.875l0.887,-0.865l0.88,-0.855l0.874,-0.847l0.866,-0.837l0.857,-0.825l0.85,-0.816l0.843,-0.806l0.833,-0.794l0.825,-0.784l0.818,-0.774l0.808,-0.762l0.8,-0.752l0.793,-0.74l1.21,-1.127l0.885,-0.706l0.425,-0.338l0.423,-0.335l0.42,-0.331l0.417,-0.328l0.417,-0.326l0.415,-0.323l0.413,-0.32l0.412,-0.317l0.41,-0.315l0.41,-0.313l0.406,-0.309l0.403,-0.305l0.403,-0.303l0.403,-0.303l0.4,-0.297l0.395,-0.293l0.399,-0.295l0.396,-0.29l0.391,-0.286l0.396,-0.288l0.39,-0.281l0.387,-0.278l0.39,-0.278l0.385,-0.274l0.387,-0.273l0.384,-0.269l0.38,-0.264l0.381,-0.265l0.382,-0.262l0.379,-0.259l0.378,-0.257l0.375,-0.253l0.374,-0.251l0.373,-0.248l0.376,-0.249l0.372,-0.243l0.37,-0.242l0.369,-0.239l0.366,-0.235l0.369,-0.235l0.368,-0.233l0.368,-0.231l0.363,-0.226l0.362,-0.223l0.362,-0.222l0.362,-0.22l0.362,-0.218l0.361,-0.215l0.36,-0.214l0.359,-0.211l0.36,-0.209l0.352,-0.202l0.357,-0.205l0.36,-0.203l0.351,-0.196l0.358,-0.199l0.355,-0.194l0.349,-0.19l0.354,-0.19l0.354,-0.189l0.354,-0.186l0.347,-0.18l0.349,-0.18l0.356,-0.181l0.348,-0.175l0.348,-0.173l0.351,-0.173l0.344,-0.166l0.348,-0.167l0.35,-0.166l0.351,-0.164l0.35,-0.161l0.344,-0.157l0.345,-0.154l0.347,-0.153l0.346,-0.151l0.346,-0.149l0.345,-0.146l0.342,-0.143l0.348,-0.143l0.348,-0.14l0.342,-0.137l0.348,-0.136l0.344,-0.132l0.342,-0.13l0.351,-0.13l0.34,-0.124l0.343,-0.123l0.345,-0.121l0.341,-0.118l0.347,-0.117l0.346,-0.116l0.342,-0.11l0.343,-0.11l0.342,-0.106l0.342,-0.104l0.351,-0.105l0.337,-0.098l0.344,-0.098l0.345,-0.095l0.339,-0.092l0.34,-0.09l0.348,-0.089l0.339,-0.085l0.341,-0.083l0.349,-0.082l0.335,-0.077l0.343,-0.076l0.343,-0.074l0.336,-0.07l0.344,-0.069l0.345,-0.067l0.338,-0.064l0.338,-0.061l0.339,-0.059l0.338,-0.056l0.339,-0.054l0.341,-0.052l0.34,-0.05l0.341,-0.048l0.333,-0.044l0.333,-0.041l0.342,-0.041l0.334,-0.037l0.334,-0.036l0.335,-0.032l0.335,-0.031l0.335,-0.029l0.335,-0.026l0.327,-0.023l0.327,-0.022l0.344,-0.02l0.328,-0.016l0.319,-0.015l0.336,-0.013l0.328,-0.01l0.328,-0.009l0.328,-0.006l0.319,-0.004l0.328,-0.002l0.328,0l0.319,0.002l0.319,0.004Z" style="fill:#205d76;"/><path d="M661.933,895.557c22.904,32.065 45.809,66.422 61.842,91.617c13.742,25.194 22.904,43.518 34.356,52.679c11.452,11.452 22.904,16.033 32.066,11.452c11.452,-4.58 16.033,-16.033 57.261,-116.811c41.227,-103.069 119.102,-295.465 194.686,-485.571" style="fill:none;stroke-width:63.62px;stroke:#205d76;"/></g></svg>